%TF.GenerationSoftware,KiCad,Pcbnew,8.0.4-8.0.4-0~ubuntu24.04.1*%
%TF.CreationDate,2024-08-18T17:45:03-07:00*%
%TF.ProjectId,shadow_tracer,73686164-6f77-45f7-9472-616365722e6b,rev?*%
%TF.SameCoordinates,Original*%
%TF.FileFunction,Soldermask,Top*%
%TF.FilePolarity,Negative*%
%FSLAX46Y46*%
G04 Gerber Fmt 4.6, Leading zero omitted, Abs format (unit mm)*
G04 Created by KiCad (PCBNEW 8.0.4-8.0.4-0~ubuntu24.04.1) date 2024-08-18 17:45:03*
%MOMM*%
%LPD*%
G01*
G04 APERTURE LIST*
%ADD10C,0.200000*%
%ADD11R,1.700000X1.700000*%
%ADD12O,1.700000X1.700000*%
%ADD13R,1.600000X2.400000*%
%ADD14O,1.600000X2.400000*%
%ADD15R,0.355600X0.711200*%
%ADD16R,0.355600X0.558800*%
%ADD17R,0.406400X1.092200*%
G04 APERTURE END LIST*
D10*
X127762000Y-76327000D02*
X147447000Y-76327000D01*
X147447000Y-78232000D01*
X127762000Y-78232000D01*
X127762000Y-76327000D01*
G36*
X127762000Y-76327000D02*
G01*
X147447000Y-76327000D01*
X147447000Y-78232000D01*
X127762000Y-78232000D01*
X127762000Y-76327000D01*
G37*
X127762000Y-66802000D02*
X149352000Y-66802000D01*
X149352000Y-68707000D01*
X127762000Y-68707000D01*
X127762000Y-66802000D01*
G36*
X127762000Y-66802000D02*
G01*
X149352000Y-66802000D01*
X149352000Y-68707000D01*
X127762000Y-68707000D01*
X127762000Y-66802000D01*
G37*
D11*
%TO.C,J9*%
X163322000Y-71882000D03*
D12*
X163322000Y-74422000D03*
%TD*%
D11*
%TO.C,J8*%
X158672000Y-71882000D03*
D12*
X158672000Y-74422000D03*
%TD*%
D11*
%TO.C,J7*%
X154022000Y-71882000D03*
D12*
X154022000Y-74422000D03*
%TD*%
D11*
%TO.C,J6*%
X123952000Y-158242000D03*
D12*
X123952000Y-160782000D03*
%TD*%
D11*
%TO.C,J5*%
X125222000Y-84582000D03*
D12*
X125222000Y-87122000D03*
%TD*%
D11*
%TO.C,J4*%
X174752000Y-158242000D03*
D12*
X174752000Y-160782000D03*
%TD*%
D13*
%TO.C,SOCKET2*%
X125222000Y-153162000D03*
D14*
X127762000Y-153162000D03*
X130302000Y-153162000D03*
X132842000Y-153162000D03*
X135382000Y-153162000D03*
X137922000Y-153162000D03*
X140462000Y-153162000D03*
X143002000Y-153162000D03*
X145542000Y-153162000D03*
X148082000Y-153162000D03*
X150622000Y-153162000D03*
X153162000Y-153162000D03*
X155702000Y-153162000D03*
X158242000Y-153162000D03*
X160782000Y-153162000D03*
X163322000Y-153162000D03*
X165862000Y-153162000D03*
X168402000Y-153162000D03*
X170942000Y-153162000D03*
X173482000Y-153162000D03*
X173482000Y-137922000D03*
X170942000Y-137922000D03*
X168402000Y-137922000D03*
X165862000Y-137922000D03*
X163322000Y-137922000D03*
X160782000Y-137922000D03*
X158242000Y-137922000D03*
X155702000Y-137922000D03*
X153162000Y-137922000D03*
X150622000Y-137922000D03*
X148082000Y-137922000D03*
X145542000Y-137922000D03*
X143002000Y-137922000D03*
X140462000Y-137922000D03*
X137922000Y-137922000D03*
X135382000Y-137922000D03*
X132842000Y-137922000D03*
X130302000Y-137922000D03*
X127762000Y-137922000D03*
X125222000Y-137922000D03*
%TD*%
%TO.C,SOCKET1*%
X125227000Y-111257000D03*
X127767000Y-111257000D03*
X130307000Y-111257000D03*
X132847000Y-111257000D03*
X135387000Y-111257000D03*
X137927000Y-111257000D03*
X140467000Y-111257000D03*
X143007000Y-111257000D03*
X145547000Y-111257000D03*
X148087000Y-111257000D03*
X150627000Y-111257000D03*
X153167000Y-111257000D03*
X155707000Y-111257000D03*
X158247000Y-111257000D03*
X160787000Y-111257000D03*
X163327000Y-111257000D03*
X165867000Y-111257000D03*
X168407000Y-111257000D03*
X170947000Y-111257000D03*
X173487000Y-111257000D03*
X173487000Y-126497000D03*
X170947000Y-126497000D03*
X168407000Y-126497000D03*
X165867000Y-126497000D03*
X163327000Y-126497000D03*
X160787000Y-126497000D03*
X158247000Y-126497000D03*
X155707000Y-126497000D03*
X153167000Y-126497000D03*
X150627000Y-126497000D03*
X148087000Y-126497000D03*
X145547000Y-126497000D03*
X143007000Y-126497000D03*
X140467000Y-126497000D03*
X137927000Y-126497000D03*
X135387000Y-126497000D03*
X132847000Y-126497000D03*
X130307000Y-126497000D03*
X127767000Y-126497000D03*
D13*
X125227000Y-126497000D03*
%TD*%
D11*
%TO.C,J1*%
X173482000Y-85852000D03*
D12*
X173482000Y-83312000D03*
X173482000Y-80772000D03*
X173482000Y-78232000D03*
X173482000Y-75692000D03*
X173482000Y-73152000D03*
X173482000Y-70612000D03*
X173482000Y-68072000D03*
%TD*%
D11*
%TO.C,J3*%
X125222000Y-96647000D03*
D12*
X127762000Y-96647000D03*
X130302000Y-96647000D03*
X132842000Y-96647000D03*
X135382000Y-96647000D03*
X137922000Y-96647000D03*
X140462000Y-96647000D03*
X143002000Y-96647000D03*
X145542000Y-96647000D03*
X148082000Y-96647000D03*
X150622000Y-96647000D03*
X153162000Y-96647000D03*
X155702000Y-96647000D03*
X158242000Y-96647000D03*
X160782000Y-96647000D03*
X163322000Y-96647000D03*
X165862000Y-96647000D03*
X168402000Y-96647000D03*
X170942000Y-96647000D03*
X173482000Y-96647000D03*
%TD*%
D11*
%TO.C,J_EXT2*%
X126492000Y-64262000D03*
D12*
X126492000Y-61722000D03*
X129032000Y-64262000D03*
X129032000Y-61722000D03*
X131572000Y-64262000D03*
X131572000Y-61722000D03*
X134112000Y-64262000D03*
X134112000Y-61722000D03*
X136652000Y-64262000D03*
X136652000Y-61722000D03*
X139192000Y-64262000D03*
X139192000Y-61722000D03*
X141732000Y-64262000D03*
X141732000Y-61722000D03*
X144272000Y-64262000D03*
X144272000Y-61722000D03*
X146812000Y-64262000D03*
X146812000Y-61722000D03*
X149352000Y-64262000D03*
X149352000Y-61722000D03*
X151892000Y-64262000D03*
X151892000Y-61722000D03*
X154432000Y-64262000D03*
X154432000Y-61722000D03*
X156972000Y-64262000D03*
X156972000Y-61722000D03*
X159512000Y-64262000D03*
X159512000Y-61722000D03*
%TD*%
D15*
%TO.C,J_EXT1*%
X135292000Y-73152000D03*
D16*
X135592000Y-70136990D03*
D15*
X135891999Y-73152000D03*
D16*
X136192001Y-70136990D03*
D15*
X136492000Y-73152000D03*
D16*
X136792000Y-70136990D03*
D15*
X137091999Y-73152000D03*
D16*
X137392001Y-70136990D03*
D15*
X137692000Y-73152000D03*
D16*
X137992000Y-70136990D03*
D15*
X138291999Y-73152000D03*
D16*
X138592001Y-70136990D03*
D15*
X138892001Y-73152000D03*
D16*
X139192000Y-70136990D03*
D15*
X139491999Y-73152000D03*
D16*
X139792001Y-70136990D03*
D15*
X140092001Y-73152000D03*
D16*
X140392000Y-70136990D03*
D15*
X140692000Y-73152000D03*
D16*
X140992001Y-70136990D03*
D15*
X141292001Y-73152000D03*
D16*
X141592000Y-70136990D03*
D15*
X141892000Y-73152000D03*
D16*
X142192002Y-70136990D03*
D15*
X142492001Y-73152000D03*
D16*
X142792000Y-70136990D03*
D15*
X143092000Y-73152000D03*
D17*
X134316998Y-72785311D03*
X144067002Y-72785311D03*
%TD*%
D11*
%TO.C,CONN1*%
X125222000Y-164592000D03*
D12*
X125222000Y-167132000D03*
X127762000Y-164592000D03*
X127762000Y-167132000D03*
X130302000Y-164592000D03*
X130302000Y-167132000D03*
X132842000Y-164592000D03*
X132842000Y-167132000D03*
X135382000Y-164592000D03*
X135382000Y-167132000D03*
X137922000Y-164592000D03*
X137922000Y-167132000D03*
X140462000Y-164592000D03*
X140462000Y-167132000D03*
X143002000Y-164592000D03*
X143002000Y-167132000D03*
X145542000Y-164592000D03*
X145542000Y-167132000D03*
X148082000Y-164592000D03*
X148082000Y-167132000D03*
X150622000Y-164592000D03*
X150622000Y-167132000D03*
X153162000Y-164592000D03*
X153162000Y-167132000D03*
X155702000Y-164592000D03*
X155702000Y-167132000D03*
X158242000Y-164592000D03*
X158242000Y-167132000D03*
X160782000Y-164592000D03*
X160782000Y-167132000D03*
X163322000Y-164592000D03*
X163322000Y-167132000D03*
X165862000Y-164592000D03*
X165862000Y-167132000D03*
X168402000Y-164592000D03*
X168402000Y-167132000D03*
X170942000Y-164592000D03*
X170942000Y-167132000D03*
X173482000Y-164592000D03*
X173482000Y-167132000D03*
%TD*%
D11*
%TO.C,J2*%
X125222000Y-101092000D03*
D12*
X127762000Y-101092000D03*
X130302000Y-101092000D03*
X132842000Y-101092000D03*
X135382000Y-101092000D03*
X137922000Y-101092000D03*
X140462000Y-101092000D03*
X143002000Y-101092000D03*
X145542000Y-101092000D03*
X148082000Y-101092000D03*
X150622000Y-101092000D03*
X153162000Y-101092000D03*
X155702000Y-101092000D03*
X158242000Y-101092000D03*
X160782000Y-101092000D03*
X163322000Y-101092000D03*
X165862000Y-101092000D03*
X168402000Y-101092000D03*
X170942000Y-101092000D03*
X173482000Y-101092000D03*
%TD*%
M02*
