%TF.GenerationSoftware,KiCad,Pcbnew,8.0.4-8.0.4-0~ubuntu24.04.1*%
%TF.CreationDate,2024-08-18T17:45:03-07:00*%
%TF.ProjectId,shadow_tracer,73686164-6f77-45f7-9472-616365722e6b,rev?*%
%TF.SameCoordinates,Original*%
%TF.FileFunction,Legend,Bot*%
%TF.FilePolarity,Positive*%
%FSLAX46Y46*%
G04 Gerber Fmt 4.6, Leading zero omitted, Abs format (unit mm)*
G04 Created by KiCad (PCBNEW 8.0.4-8.0.4-0~ubuntu24.04.1) date 2024-08-18 17:45:03*
%MOMM*%
%LPD*%
G01*
G04 APERTURE LIST*
%ADD10C,0.150000*%
G04 APERTURE END LIST*
D10*
X125356649Y-139995152D02*
X125356649Y-140661819D01*
X125594744Y-139614200D02*
X125832839Y-140328485D01*
X125832839Y-140328485D02*
X125213792Y-140328485D01*
X124642363Y-139661819D02*
X124547125Y-139661819D01*
X124547125Y-139661819D02*
X124451887Y-139709438D01*
X124451887Y-139709438D02*
X124404268Y-139757057D01*
X124404268Y-139757057D02*
X124356649Y-139852295D01*
X124356649Y-139852295D02*
X124309030Y-140042771D01*
X124309030Y-140042771D02*
X124309030Y-140280866D01*
X124309030Y-140280866D02*
X124356649Y-140471342D01*
X124356649Y-140471342D02*
X124404268Y-140566580D01*
X124404268Y-140566580D02*
X124451887Y-140614200D01*
X124451887Y-140614200D02*
X124547125Y-140661819D01*
X124547125Y-140661819D02*
X124642363Y-140661819D01*
X124642363Y-140661819D02*
X124737601Y-140614200D01*
X124737601Y-140614200D02*
X124785220Y-140566580D01*
X124785220Y-140566580D02*
X124832839Y-140471342D01*
X124832839Y-140471342D02*
X124880458Y-140280866D01*
X124880458Y-140280866D02*
X124880458Y-140042771D01*
X124880458Y-140042771D02*
X124832839Y-139852295D01*
X124832839Y-139852295D02*
X124785220Y-139757057D01*
X124785220Y-139757057D02*
X124737601Y-139709438D01*
X124737601Y-139709438D02*
X124642363Y-139661819D01*
X124961411Y-124961819D02*
X125532839Y-124961819D01*
X125247125Y-124961819D02*
X125247125Y-123961819D01*
X125247125Y-123961819D02*
X125342363Y-124104676D01*
X125342363Y-124104676D02*
X125437601Y-124199914D01*
X125437601Y-124199914D02*
X125532839Y-124247533D01*
X148161411Y-151461819D02*
X148732839Y-151461819D01*
X148447125Y-151461819D02*
X148447125Y-150461819D01*
X148447125Y-150461819D02*
X148542363Y-150604676D01*
X148542363Y-150604676D02*
X148637601Y-150699914D01*
X148637601Y-150699914D02*
X148732839Y-150747533D01*
X147542363Y-150461819D02*
X147447125Y-150461819D01*
X147447125Y-150461819D02*
X147351887Y-150509438D01*
X147351887Y-150509438D02*
X147304268Y-150557057D01*
X147304268Y-150557057D02*
X147256649Y-150652295D01*
X147256649Y-150652295D02*
X147209030Y-150842771D01*
X147209030Y-150842771D02*
X147209030Y-151080866D01*
X147209030Y-151080866D02*
X147256649Y-151271342D01*
X147256649Y-151271342D02*
X147304268Y-151366580D01*
X147304268Y-151366580D02*
X147351887Y-151414200D01*
X147351887Y-151414200D02*
X147447125Y-151461819D01*
X147447125Y-151461819D02*
X147542363Y-151461819D01*
X147542363Y-151461819D02*
X147637601Y-151414200D01*
X147637601Y-151414200D02*
X147685220Y-151366580D01*
X147685220Y-151366580D02*
X147732839Y-151271342D01*
X147732839Y-151271342D02*
X147780458Y-151080866D01*
X147780458Y-151080866D02*
X147780458Y-150842771D01*
X147780458Y-150842771D02*
X147732839Y-150652295D01*
X147732839Y-150652295D02*
X147685220Y-150557057D01*
X147685220Y-150557057D02*
X147637601Y-150509438D01*
X147637601Y-150509438D02*
X147542363Y-150461819D01*
X164132839Y-112957057D02*
X164085220Y-112909438D01*
X164085220Y-112909438D02*
X163989982Y-112861819D01*
X163989982Y-112861819D02*
X163751887Y-112861819D01*
X163751887Y-112861819D02*
X163656649Y-112909438D01*
X163656649Y-112909438D02*
X163609030Y-112957057D01*
X163609030Y-112957057D02*
X163561411Y-113052295D01*
X163561411Y-113052295D02*
X163561411Y-113147533D01*
X163561411Y-113147533D02*
X163609030Y-113290390D01*
X163609030Y-113290390D02*
X164180458Y-113861819D01*
X164180458Y-113861819D02*
X163561411Y-113861819D01*
X162656649Y-112861819D02*
X163132839Y-112861819D01*
X163132839Y-112861819D02*
X163180458Y-113338009D01*
X163180458Y-113338009D02*
X163132839Y-113290390D01*
X163132839Y-113290390D02*
X163037601Y-113242771D01*
X163037601Y-113242771D02*
X162799506Y-113242771D01*
X162799506Y-113242771D02*
X162704268Y-113290390D01*
X162704268Y-113290390D02*
X162656649Y-113338009D01*
X162656649Y-113338009D02*
X162609030Y-113433247D01*
X162609030Y-113433247D02*
X162609030Y-113671342D01*
X162609030Y-113671342D02*
X162656649Y-113766580D01*
X162656649Y-113766580D02*
X162704268Y-113814200D01*
X162704268Y-113814200D02*
X162799506Y-113861819D01*
X162799506Y-113861819D02*
X163037601Y-113861819D01*
X163037601Y-113861819D02*
X163132839Y-113814200D01*
X163132839Y-113814200D02*
X163180458Y-113766580D01*
X161061411Y-104061819D02*
X161632839Y-104061819D01*
X161347125Y-104061819D02*
X161347125Y-103061819D01*
X161347125Y-103061819D02*
X161442363Y-103204676D01*
X161442363Y-103204676D02*
X161537601Y-103299914D01*
X161537601Y-103299914D02*
X161632839Y-103347533D01*
X160156649Y-103061819D02*
X160632839Y-103061819D01*
X160632839Y-103061819D02*
X160680458Y-103538009D01*
X160680458Y-103538009D02*
X160632839Y-103490390D01*
X160632839Y-103490390D02*
X160537601Y-103442771D01*
X160537601Y-103442771D02*
X160299506Y-103442771D01*
X160299506Y-103442771D02*
X160204268Y-103490390D01*
X160204268Y-103490390D02*
X160156649Y-103538009D01*
X160156649Y-103538009D02*
X160109030Y-103633247D01*
X160109030Y-103633247D02*
X160109030Y-103871342D01*
X160109030Y-103871342D02*
X160156649Y-103966580D01*
X160156649Y-103966580D02*
X160204268Y-104014200D01*
X160204268Y-104014200D02*
X160299506Y-104061819D01*
X160299506Y-104061819D02*
X160537601Y-104061819D01*
X160537601Y-104061819D02*
X160632839Y-104014200D01*
X160632839Y-104014200D02*
X160680458Y-103966580D01*
X174332839Y-93857057D02*
X174285220Y-93809438D01*
X174285220Y-93809438D02*
X174189982Y-93761819D01*
X174189982Y-93761819D02*
X173951887Y-93761819D01*
X173951887Y-93761819D02*
X173856649Y-93809438D01*
X173856649Y-93809438D02*
X173809030Y-93857057D01*
X173809030Y-93857057D02*
X173761411Y-93952295D01*
X173761411Y-93952295D02*
X173761411Y-94047533D01*
X173761411Y-94047533D02*
X173809030Y-94190390D01*
X173809030Y-94190390D02*
X174380458Y-94761819D01*
X174380458Y-94761819D02*
X173761411Y-94761819D01*
X172809030Y-94761819D02*
X173380458Y-94761819D01*
X173094744Y-94761819D02*
X173094744Y-93761819D01*
X173094744Y-93761819D02*
X173189982Y-93904676D01*
X173189982Y-93904676D02*
X173285220Y-93999914D01*
X173285220Y-93999914D02*
X173380458Y-94047533D01*
X151480458Y-112861819D02*
X150861411Y-112861819D01*
X150861411Y-112861819D02*
X151194744Y-113242771D01*
X151194744Y-113242771D02*
X151051887Y-113242771D01*
X151051887Y-113242771D02*
X150956649Y-113290390D01*
X150956649Y-113290390D02*
X150909030Y-113338009D01*
X150909030Y-113338009D02*
X150861411Y-113433247D01*
X150861411Y-113433247D02*
X150861411Y-113671342D01*
X150861411Y-113671342D02*
X150909030Y-113766580D01*
X150909030Y-113766580D02*
X150956649Y-113814200D01*
X150956649Y-113814200D02*
X151051887Y-113861819D01*
X151051887Y-113861819D02*
X151337601Y-113861819D01*
X151337601Y-113861819D02*
X151432839Y-113814200D01*
X151432839Y-113814200D02*
X151480458Y-113766580D01*
X150242363Y-112861819D02*
X150147125Y-112861819D01*
X150147125Y-112861819D02*
X150051887Y-112909438D01*
X150051887Y-112909438D02*
X150004268Y-112957057D01*
X150004268Y-112957057D02*
X149956649Y-113052295D01*
X149956649Y-113052295D02*
X149909030Y-113242771D01*
X149909030Y-113242771D02*
X149909030Y-113480866D01*
X149909030Y-113480866D02*
X149956649Y-113671342D01*
X149956649Y-113671342D02*
X150004268Y-113766580D01*
X150004268Y-113766580D02*
X150051887Y-113814200D01*
X150051887Y-113814200D02*
X150147125Y-113861819D01*
X150147125Y-113861819D02*
X150242363Y-113861819D01*
X150242363Y-113861819D02*
X150337601Y-113814200D01*
X150337601Y-113814200D02*
X150385220Y-113766580D01*
X150385220Y-113766580D02*
X150432839Y-113671342D01*
X150432839Y-113671342D02*
X150480458Y-113480866D01*
X150480458Y-113480866D02*
X150480458Y-113242771D01*
X150480458Y-113242771D02*
X150432839Y-113052295D01*
X150432839Y-113052295D02*
X150385220Y-112957057D01*
X150385220Y-112957057D02*
X150337601Y-112909438D01*
X150337601Y-112909438D02*
X150242363Y-112861819D01*
X160961411Y-124961819D02*
X161532839Y-124961819D01*
X161247125Y-124961819D02*
X161247125Y-123961819D01*
X161247125Y-123961819D02*
X161342363Y-124104676D01*
X161342363Y-124104676D02*
X161437601Y-124199914D01*
X161437601Y-124199914D02*
X161532839Y-124247533D01*
X160056649Y-123961819D02*
X160532839Y-123961819D01*
X160532839Y-123961819D02*
X160580458Y-124438009D01*
X160580458Y-124438009D02*
X160532839Y-124390390D01*
X160532839Y-124390390D02*
X160437601Y-124342771D01*
X160437601Y-124342771D02*
X160199506Y-124342771D01*
X160199506Y-124342771D02*
X160104268Y-124390390D01*
X160104268Y-124390390D02*
X160056649Y-124438009D01*
X160056649Y-124438009D02*
X160009030Y-124533247D01*
X160009030Y-124533247D02*
X160009030Y-124771342D01*
X160009030Y-124771342D02*
X160056649Y-124866580D01*
X160056649Y-124866580D02*
X160104268Y-124914200D01*
X160104268Y-124914200D02*
X160199506Y-124961819D01*
X160199506Y-124961819D02*
X160437601Y-124961819D01*
X160437601Y-124961819D02*
X160532839Y-124914200D01*
X160532839Y-124914200D02*
X160580458Y-124866580D01*
X174332839Y-139757057D02*
X174285220Y-139709438D01*
X174285220Y-139709438D02*
X174189982Y-139661819D01*
X174189982Y-139661819D02*
X173951887Y-139661819D01*
X173951887Y-139661819D02*
X173856649Y-139709438D01*
X173856649Y-139709438D02*
X173809030Y-139757057D01*
X173809030Y-139757057D02*
X173761411Y-139852295D01*
X173761411Y-139852295D02*
X173761411Y-139947533D01*
X173761411Y-139947533D02*
X173809030Y-140090390D01*
X173809030Y-140090390D02*
X174380458Y-140661819D01*
X174380458Y-140661819D02*
X173761411Y-140661819D01*
X172809030Y-140661819D02*
X173380458Y-140661819D01*
X173094744Y-140661819D02*
X173094744Y-139661819D01*
X173094744Y-139661819D02*
X173189982Y-139804676D01*
X173189982Y-139804676D02*
X173285220Y-139899914D01*
X173285220Y-139899914D02*
X173380458Y-139947533D01*
X164032839Y-93857057D02*
X163985220Y-93809438D01*
X163985220Y-93809438D02*
X163889982Y-93761819D01*
X163889982Y-93761819D02*
X163651887Y-93761819D01*
X163651887Y-93761819D02*
X163556649Y-93809438D01*
X163556649Y-93809438D02*
X163509030Y-93857057D01*
X163509030Y-93857057D02*
X163461411Y-93952295D01*
X163461411Y-93952295D02*
X163461411Y-94047533D01*
X163461411Y-94047533D02*
X163509030Y-94190390D01*
X163509030Y-94190390D02*
X164080458Y-94761819D01*
X164080458Y-94761819D02*
X163461411Y-94761819D01*
X162556649Y-93761819D02*
X163032839Y-93761819D01*
X163032839Y-93761819D02*
X163080458Y-94238009D01*
X163080458Y-94238009D02*
X163032839Y-94190390D01*
X163032839Y-94190390D02*
X162937601Y-94142771D01*
X162937601Y-94142771D02*
X162699506Y-94142771D01*
X162699506Y-94142771D02*
X162604268Y-94190390D01*
X162604268Y-94190390D02*
X162556649Y-94238009D01*
X162556649Y-94238009D02*
X162509030Y-94333247D01*
X162509030Y-94333247D02*
X162509030Y-94571342D01*
X162509030Y-94571342D02*
X162556649Y-94666580D01*
X162556649Y-94666580D02*
X162604268Y-94714200D01*
X162604268Y-94714200D02*
X162699506Y-94761819D01*
X162699506Y-94761819D02*
X162937601Y-94761819D01*
X162937601Y-94761819D02*
X163032839Y-94714200D01*
X163032839Y-94714200D02*
X163080458Y-94666580D01*
X174432839Y-112957057D02*
X174385220Y-112909438D01*
X174385220Y-112909438D02*
X174289982Y-112861819D01*
X174289982Y-112861819D02*
X174051887Y-112861819D01*
X174051887Y-112861819D02*
X173956649Y-112909438D01*
X173956649Y-112909438D02*
X173909030Y-112957057D01*
X173909030Y-112957057D02*
X173861411Y-113052295D01*
X173861411Y-113052295D02*
X173861411Y-113147533D01*
X173861411Y-113147533D02*
X173909030Y-113290390D01*
X173909030Y-113290390D02*
X174480458Y-113861819D01*
X174480458Y-113861819D02*
X173861411Y-113861819D01*
X172909030Y-113861819D02*
X173480458Y-113861819D01*
X173194744Y-113861819D02*
X173194744Y-112861819D01*
X173194744Y-112861819D02*
X173289982Y-113004676D01*
X173289982Y-113004676D02*
X173385220Y-113099914D01*
X173385220Y-113099914D02*
X173480458Y-113147533D01*
X138680458Y-139661819D02*
X138061411Y-139661819D01*
X138061411Y-139661819D02*
X138394744Y-140042771D01*
X138394744Y-140042771D02*
X138251887Y-140042771D01*
X138251887Y-140042771D02*
X138156649Y-140090390D01*
X138156649Y-140090390D02*
X138109030Y-140138009D01*
X138109030Y-140138009D02*
X138061411Y-140233247D01*
X138061411Y-140233247D02*
X138061411Y-140471342D01*
X138061411Y-140471342D02*
X138109030Y-140566580D01*
X138109030Y-140566580D02*
X138156649Y-140614200D01*
X138156649Y-140614200D02*
X138251887Y-140661819D01*
X138251887Y-140661819D02*
X138537601Y-140661819D01*
X138537601Y-140661819D02*
X138632839Y-140614200D01*
X138632839Y-140614200D02*
X138680458Y-140566580D01*
X137156649Y-139661819D02*
X137632839Y-139661819D01*
X137632839Y-139661819D02*
X137680458Y-140138009D01*
X137680458Y-140138009D02*
X137632839Y-140090390D01*
X137632839Y-140090390D02*
X137537601Y-140042771D01*
X137537601Y-140042771D02*
X137299506Y-140042771D01*
X137299506Y-140042771D02*
X137204268Y-140090390D01*
X137204268Y-140090390D02*
X137156649Y-140138009D01*
X137156649Y-140138009D02*
X137109030Y-140233247D01*
X137109030Y-140233247D02*
X137109030Y-140471342D01*
X137109030Y-140471342D02*
X137156649Y-140566580D01*
X137156649Y-140566580D02*
X137204268Y-140614200D01*
X137204268Y-140614200D02*
X137299506Y-140661819D01*
X137299506Y-140661819D02*
X137537601Y-140661819D01*
X137537601Y-140661819D02*
X137632839Y-140614200D01*
X137632839Y-140614200D02*
X137680458Y-140566580D01*
X174332839Y-124057057D02*
X174285220Y-124009438D01*
X174285220Y-124009438D02*
X174189982Y-123961819D01*
X174189982Y-123961819D02*
X173951887Y-123961819D01*
X173951887Y-123961819D02*
X173856649Y-124009438D01*
X173856649Y-124009438D02*
X173809030Y-124057057D01*
X173809030Y-124057057D02*
X173761411Y-124152295D01*
X173761411Y-124152295D02*
X173761411Y-124247533D01*
X173761411Y-124247533D02*
X173809030Y-124390390D01*
X173809030Y-124390390D02*
X174380458Y-124961819D01*
X174380458Y-124961819D02*
X173761411Y-124961819D01*
X173142363Y-123961819D02*
X173047125Y-123961819D01*
X173047125Y-123961819D02*
X172951887Y-124009438D01*
X172951887Y-124009438D02*
X172904268Y-124057057D01*
X172904268Y-124057057D02*
X172856649Y-124152295D01*
X172856649Y-124152295D02*
X172809030Y-124342771D01*
X172809030Y-124342771D02*
X172809030Y-124580866D01*
X172809030Y-124580866D02*
X172856649Y-124771342D01*
X172856649Y-124771342D02*
X172904268Y-124866580D01*
X172904268Y-124866580D02*
X172951887Y-124914200D01*
X172951887Y-124914200D02*
X173047125Y-124961819D01*
X173047125Y-124961819D02*
X173142363Y-124961819D01*
X173142363Y-124961819D02*
X173237601Y-124914200D01*
X173237601Y-124914200D02*
X173285220Y-124866580D01*
X173285220Y-124866580D02*
X173332839Y-124771342D01*
X173332839Y-124771342D02*
X173380458Y-124580866D01*
X173380458Y-124580866D02*
X173380458Y-124342771D01*
X173380458Y-124342771D02*
X173332839Y-124152295D01*
X173332839Y-124152295D02*
X173285220Y-124057057D01*
X173285220Y-124057057D02*
X173237601Y-124009438D01*
X173237601Y-124009438D02*
X173142363Y-123961819D01*
X151380458Y-139661819D02*
X150761411Y-139661819D01*
X150761411Y-139661819D02*
X151094744Y-140042771D01*
X151094744Y-140042771D02*
X150951887Y-140042771D01*
X150951887Y-140042771D02*
X150856649Y-140090390D01*
X150856649Y-140090390D02*
X150809030Y-140138009D01*
X150809030Y-140138009D02*
X150761411Y-140233247D01*
X150761411Y-140233247D02*
X150761411Y-140471342D01*
X150761411Y-140471342D02*
X150809030Y-140566580D01*
X150809030Y-140566580D02*
X150856649Y-140614200D01*
X150856649Y-140614200D02*
X150951887Y-140661819D01*
X150951887Y-140661819D02*
X151237601Y-140661819D01*
X151237601Y-140661819D02*
X151332839Y-140614200D01*
X151332839Y-140614200D02*
X151380458Y-140566580D01*
X150142363Y-139661819D02*
X150047125Y-139661819D01*
X150047125Y-139661819D02*
X149951887Y-139709438D01*
X149951887Y-139709438D02*
X149904268Y-139757057D01*
X149904268Y-139757057D02*
X149856649Y-139852295D01*
X149856649Y-139852295D02*
X149809030Y-140042771D01*
X149809030Y-140042771D02*
X149809030Y-140280866D01*
X149809030Y-140280866D02*
X149856649Y-140471342D01*
X149856649Y-140471342D02*
X149904268Y-140566580D01*
X149904268Y-140566580D02*
X149951887Y-140614200D01*
X149951887Y-140614200D02*
X150047125Y-140661819D01*
X150047125Y-140661819D02*
X150142363Y-140661819D01*
X150142363Y-140661819D02*
X150237601Y-140614200D01*
X150237601Y-140614200D02*
X150285220Y-140566580D01*
X150285220Y-140566580D02*
X150332839Y-140471342D01*
X150332839Y-140471342D02*
X150380458Y-140280866D01*
X150380458Y-140280866D02*
X150380458Y-140042771D01*
X150380458Y-140042771D02*
X150332839Y-139852295D01*
X150332839Y-139852295D02*
X150285220Y-139757057D01*
X150285220Y-139757057D02*
X150237601Y-139709438D01*
X150237601Y-139709438D02*
X150142363Y-139661819D01*
X124861411Y-104061819D02*
X125432839Y-104061819D01*
X125147125Y-104061819D02*
X125147125Y-103061819D01*
X125147125Y-103061819D02*
X125242363Y-103204676D01*
X125242363Y-103204676D02*
X125337601Y-103299914D01*
X125337601Y-103299914D02*
X125432839Y-103347533D01*
X151380458Y-93761819D02*
X150761411Y-93761819D01*
X150761411Y-93761819D02*
X151094744Y-94142771D01*
X151094744Y-94142771D02*
X150951887Y-94142771D01*
X150951887Y-94142771D02*
X150856649Y-94190390D01*
X150856649Y-94190390D02*
X150809030Y-94238009D01*
X150809030Y-94238009D02*
X150761411Y-94333247D01*
X150761411Y-94333247D02*
X150761411Y-94571342D01*
X150761411Y-94571342D02*
X150809030Y-94666580D01*
X150809030Y-94666580D02*
X150856649Y-94714200D01*
X150856649Y-94714200D02*
X150951887Y-94761819D01*
X150951887Y-94761819D02*
X151237601Y-94761819D01*
X151237601Y-94761819D02*
X151332839Y-94714200D01*
X151332839Y-94714200D02*
X151380458Y-94666580D01*
X150142363Y-93761819D02*
X150047125Y-93761819D01*
X150047125Y-93761819D02*
X149951887Y-93809438D01*
X149951887Y-93809438D02*
X149904268Y-93857057D01*
X149904268Y-93857057D02*
X149856649Y-93952295D01*
X149856649Y-93952295D02*
X149809030Y-94142771D01*
X149809030Y-94142771D02*
X149809030Y-94380866D01*
X149809030Y-94380866D02*
X149856649Y-94571342D01*
X149856649Y-94571342D02*
X149904268Y-94666580D01*
X149904268Y-94666580D02*
X149951887Y-94714200D01*
X149951887Y-94714200D02*
X150047125Y-94761819D01*
X150047125Y-94761819D02*
X150142363Y-94761819D01*
X150142363Y-94761819D02*
X150237601Y-94714200D01*
X150237601Y-94714200D02*
X150285220Y-94666580D01*
X150285220Y-94666580D02*
X150332839Y-94571342D01*
X150332839Y-94571342D02*
X150380458Y-94380866D01*
X150380458Y-94380866D02*
X150380458Y-94142771D01*
X150380458Y-94142771D02*
X150332839Y-93952295D01*
X150332839Y-93952295D02*
X150285220Y-93857057D01*
X150285220Y-93857057D02*
X150237601Y-93809438D01*
X150237601Y-93809438D02*
X150142363Y-93761819D01*
X174132839Y-150557057D02*
X174085220Y-150509438D01*
X174085220Y-150509438D02*
X173989982Y-150461819D01*
X173989982Y-150461819D02*
X173751887Y-150461819D01*
X173751887Y-150461819D02*
X173656649Y-150509438D01*
X173656649Y-150509438D02*
X173609030Y-150557057D01*
X173609030Y-150557057D02*
X173561411Y-150652295D01*
X173561411Y-150652295D02*
X173561411Y-150747533D01*
X173561411Y-150747533D02*
X173609030Y-150890390D01*
X173609030Y-150890390D02*
X174180458Y-151461819D01*
X174180458Y-151461819D02*
X173561411Y-151461819D01*
X172942363Y-150461819D02*
X172847125Y-150461819D01*
X172847125Y-150461819D02*
X172751887Y-150509438D01*
X172751887Y-150509438D02*
X172704268Y-150557057D01*
X172704268Y-150557057D02*
X172656649Y-150652295D01*
X172656649Y-150652295D02*
X172609030Y-150842771D01*
X172609030Y-150842771D02*
X172609030Y-151080866D01*
X172609030Y-151080866D02*
X172656649Y-151271342D01*
X172656649Y-151271342D02*
X172704268Y-151366580D01*
X172704268Y-151366580D02*
X172751887Y-151414200D01*
X172751887Y-151414200D02*
X172847125Y-151461819D01*
X172847125Y-151461819D02*
X172942363Y-151461819D01*
X172942363Y-151461819D02*
X173037601Y-151414200D01*
X173037601Y-151414200D02*
X173085220Y-151366580D01*
X173085220Y-151366580D02*
X173132839Y-151271342D01*
X173132839Y-151271342D02*
X173180458Y-151080866D01*
X173180458Y-151080866D02*
X173180458Y-150842771D01*
X173180458Y-150842771D02*
X173132839Y-150652295D01*
X173132839Y-150652295D02*
X173085220Y-150557057D01*
X173085220Y-150557057D02*
X173037601Y-150509438D01*
X173037601Y-150509438D02*
X172942363Y-150461819D01*
X138780458Y-112861819D02*
X138161411Y-112861819D01*
X138161411Y-112861819D02*
X138494744Y-113242771D01*
X138494744Y-113242771D02*
X138351887Y-113242771D01*
X138351887Y-113242771D02*
X138256649Y-113290390D01*
X138256649Y-113290390D02*
X138209030Y-113338009D01*
X138209030Y-113338009D02*
X138161411Y-113433247D01*
X138161411Y-113433247D02*
X138161411Y-113671342D01*
X138161411Y-113671342D02*
X138209030Y-113766580D01*
X138209030Y-113766580D02*
X138256649Y-113814200D01*
X138256649Y-113814200D02*
X138351887Y-113861819D01*
X138351887Y-113861819D02*
X138637601Y-113861819D01*
X138637601Y-113861819D02*
X138732839Y-113814200D01*
X138732839Y-113814200D02*
X138780458Y-113766580D01*
X137256649Y-112861819D02*
X137732839Y-112861819D01*
X137732839Y-112861819D02*
X137780458Y-113338009D01*
X137780458Y-113338009D02*
X137732839Y-113290390D01*
X137732839Y-113290390D02*
X137637601Y-113242771D01*
X137637601Y-113242771D02*
X137399506Y-113242771D01*
X137399506Y-113242771D02*
X137304268Y-113290390D01*
X137304268Y-113290390D02*
X137256649Y-113338009D01*
X137256649Y-113338009D02*
X137209030Y-113433247D01*
X137209030Y-113433247D02*
X137209030Y-113671342D01*
X137209030Y-113671342D02*
X137256649Y-113766580D01*
X137256649Y-113766580D02*
X137304268Y-113814200D01*
X137304268Y-113814200D02*
X137399506Y-113861819D01*
X137399506Y-113861819D02*
X137637601Y-113861819D01*
X137637601Y-113861819D02*
X137732839Y-113814200D01*
X137732839Y-113814200D02*
X137780458Y-113766580D01*
X138680458Y-93761819D02*
X138061411Y-93761819D01*
X138061411Y-93761819D02*
X138394744Y-94142771D01*
X138394744Y-94142771D02*
X138251887Y-94142771D01*
X138251887Y-94142771D02*
X138156649Y-94190390D01*
X138156649Y-94190390D02*
X138109030Y-94238009D01*
X138109030Y-94238009D02*
X138061411Y-94333247D01*
X138061411Y-94333247D02*
X138061411Y-94571342D01*
X138061411Y-94571342D02*
X138109030Y-94666580D01*
X138109030Y-94666580D02*
X138156649Y-94714200D01*
X138156649Y-94714200D02*
X138251887Y-94761819D01*
X138251887Y-94761819D02*
X138537601Y-94761819D01*
X138537601Y-94761819D02*
X138632839Y-94714200D01*
X138632839Y-94714200D02*
X138680458Y-94666580D01*
X137156649Y-93761819D02*
X137632839Y-93761819D01*
X137632839Y-93761819D02*
X137680458Y-94238009D01*
X137680458Y-94238009D02*
X137632839Y-94190390D01*
X137632839Y-94190390D02*
X137537601Y-94142771D01*
X137537601Y-94142771D02*
X137299506Y-94142771D01*
X137299506Y-94142771D02*
X137204268Y-94190390D01*
X137204268Y-94190390D02*
X137156649Y-94238009D01*
X137156649Y-94238009D02*
X137109030Y-94333247D01*
X137109030Y-94333247D02*
X137109030Y-94571342D01*
X137109030Y-94571342D02*
X137156649Y-94666580D01*
X137156649Y-94666580D02*
X137204268Y-94714200D01*
X137204268Y-94714200D02*
X137299506Y-94761819D01*
X137299506Y-94761819D02*
X137537601Y-94761819D01*
X137537601Y-94761819D02*
X137632839Y-94714200D01*
X137632839Y-94714200D02*
X137680458Y-94666580D01*
X135109030Y-150461819D02*
X135585220Y-150461819D01*
X135585220Y-150461819D02*
X135632839Y-150938009D01*
X135632839Y-150938009D02*
X135585220Y-150890390D01*
X135585220Y-150890390D02*
X135489982Y-150842771D01*
X135489982Y-150842771D02*
X135251887Y-150842771D01*
X135251887Y-150842771D02*
X135156649Y-150890390D01*
X135156649Y-150890390D02*
X135109030Y-150938009D01*
X135109030Y-150938009D02*
X135061411Y-151033247D01*
X135061411Y-151033247D02*
X135061411Y-151271342D01*
X135061411Y-151271342D02*
X135109030Y-151366580D01*
X135109030Y-151366580D02*
X135156649Y-151414200D01*
X135156649Y-151414200D02*
X135251887Y-151461819D01*
X135251887Y-151461819D02*
X135489982Y-151461819D01*
X135489982Y-151461819D02*
X135585220Y-151414200D01*
X135585220Y-151414200D02*
X135632839Y-151366580D01*
X124961411Y-151461819D02*
X125532839Y-151461819D01*
X125247125Y-151461819D02*
X125247125Y-150461819D01*
X125247125Y-150461819D02*
X125342363Y-150604676D01*
X125342363Y-150604676D02*
X125437601Y-150699914D01*
X125437601Y-150699914D02*
X125532839Y-150747533D01*
X148361411Y-104061819D02*
X148932839Y-104061819D01*
X148647125Y-104061819D02*
X148647125Y-103061819D01*
X148647125Y-103061819D02*
X148742363Y-103204676D01*
X148742363Y-103204676D02*
X148837601Y-103299914D01*
X148837601Y-103299914D02*
X148932839Y-103347533D01*
X147742363Y-103061819D02*
X147647125Y-103061819D01*
X147647125Y-103061819D02*
X147551887Y-103109438D01*
X147551887Y-103109438D02*
X147504268Y-103157057D01*
X147504268Y-103157057D02*
X147456649Y-103252295D01*
X147456649Y-103252295D02*
X147409030Y-103442771D01*
X147409030Y-103442771D02*
X147409030Y-103680866D01*
X147409030Y-103680866D02*
X147456649Y-103871342D01*
X147456649Y-103871342D02*
X147504268Y-103966580D01*
X147504268Y-103966580D02*
X147551887Y-104014200D01*
X147551887Y-104014200D02*
X147647125Y-104061819D01*
X147647125Y-104061819D02*
X147742363Y-104061819D01*
X147742363Y-104061819D02*
X147837601Y-104014200D01*
X147837601Y-104014200D02*
X147885220Y-103966580D01*
X147885220Y-103966580D02*
X147932839Y-103871342D01*
X147932839Y-103871342D02*
X147980458Y-103680866D01*
X147980458Y-103680866D02*
X147980458Y-103442771D01*
X147980458Y-103442771D02*
X147932839Y-103252295D01*
X147932839Y-103252295D02*
X147885220Y-103157057D01*
X147885220Y-103157057D02*
X147837601Y-103109438D01*
X147837601Y-103109438D02*
X147742363Y-103061819D01*
X125456649Y-113195152D02*
X125456649Y-113861819D01*
X125694744Y-112814200D02*
X125932839Y-113528485D01*
X125932839Y-113528485D02*
X125313792Y-113528485D01*
X124742363Y-112861819D02*
X124647125Y-112861819D01*
X124647125Y-112861819D02*
X124551887Y-112909438D01*
X124551887Y-112909438D02*
X124504268Y-112957057D01*
X124504268Y-112957057D02*
X124456649Y-113052295D01*
X124456649Y-113052295D02*
X124409030Y-113242771D01*
X124409030Y-113242771D02*
X124409030Y-113480866D01*
X124409030Y-113480866D02*
X124456649Y-113671342D01*
X124456649Y-113671342D02*
X124504268Y-113766580D01*
X124504268Y-113766580D02*
X124551887Y-113814200D01*
X124551887Y-113814200D02*
X124647125Y-113861819D01*
X124647125Y-113861819D02*
X124742363Y-113861819D01*
X124742363Y-113861819D02*
X124837601Y-113814200D01*
X124837601Y-113814200D02*
X124885220Y-113766580D01*
X124885220Y-113766580D02*
X124932839Y-113671342D01*
X124932839Y-113671342D02*
X124980458Y-113480866D01*
X124980458Y-113480866D02*
X124980458Y-113242771D01*
X124980458Y-113242771D02*
X124932839Y-113052295D01*
X124932839Y-113052295D02*
X124885220Y-112957057D01*
X124885220Y-112957057D02*
X124837601Y-112909438D01*
X124837601Y-112909438D02*
X124742363Y-112861819D01*
X164032839Y-139757057D02*
X163985220Y-139709438D01*
X163985220Y-139709438D02*
X163889982Y-139661819D01*
X163889982Y-139661819D02*
X163651887Y-139661819D01*
X163651887Y-139661819D02*
X163556649Y-139709438D01*
X163556649Y-139709438D02*
X163509030Y-139757057D01*
X163509030Y-139757057D02*
X163461411Y-139852295D01*
X163461411Y-139852295D02*
X163461411Y-139947533D01*
X163461411Y-139947533D02*
X163509030Y-140090390D01*
X163509030Y-140090390D02*
X164080458Y-140661819D01*
X164080458Y-140661819D02*
X163461411Y-140661819D01*
X162556649Y-139661819D02*
X163032839Y-139661819D01*
X163032839Y-139661819D02*
X163080458Y-140138009D01*
X163080458Y-140138009D02*
X163032839Y-140090390D01*
X163032839Y-140090390D02*
X162937601Y-140042771D01*
X162937601Y-140042771D02*
X162699506Y-140042771D01*
X162699506Y-140042771D02*
X162604268Y-140090390D01*
X162604268Y-140090390D02*
X162556649Y-140138009D01*
X162556649Y-140138009D02*
X162509030Y-140233247D01*
X162509030Y-140233247D02*
X162509030Y-140471342D01*
X162509030Y-140471342D02*
X162556649Y-140566580D01*
X162556649Y-140566580D02*
X162604268Y-140614200D01*
X162604268Y-140614200D02*
X162699506Y-140661819D01*
X162699506Y-140661819D02*
X162937601Y-140661819D01*
X162937601Y-140661819D02*
X163032839Y-140614200D01*
X163032839Y-140614200D02*
X163080458Y-140566580D01*
X148261411Y-124961819D02*
X148832839Y-124961819D01*
X148547125Y-124961819D02*
X148547125Y-123961819D01*
X148547125Y-123961819D02*
X148642363Y-124104676D01*
X148642363Y-124104676D02*
X148737601Y-124199914D01*
X148737601Y-124199914D02*
X148832839Y-124247533D01*
X147642363Y-123961819D02*
X147547125Y-123961819D01*
X147547125Y-123961819D02*
X147451887Y-124009438D01*
X147451887Y-124009438D02*
X147404268Y-124057057D01*
X147404268Y-124057057D02*
X147356649Y-124152295D01*
X147356649Y-124152295D02*
X147309030Y-124342771D01*
X147309030Y-124342771D02*
X147309030Y-124580866D01*
X147309030Y-124580866D02*
X147356649Y-124771342D01*
X147356649Y-124771342D02*
X147404268Y-124866580D01*
X147404268Y-124866580D02*
X147451887Y-124914200D01*
X147451887Y-124914200D02*
X147547125Y-124961819D01*
X147547125Y-124961819D02*
X147642363Y-124961819D01*
X147642363Y-124961819D02*
X147737601Y-124914200D01*
X147737601Y-124914200D02*
X147785220Y-124866580D01*
X147785220Y-124866580D02*
X147832839Y-124771342D01*
X147832839Y-124771342D02*
X147880458Y-124580866D01*
X147880458Y-124580866D02*
X147880458Y-124342771D01*
X147880458Y-124342771D02*
X147832839Y-124152295D01*
X147832839Y-124152295D02*
X147785220Y-124057057D01*
X147785220Y-124057057D02*
X147737601Y-124009438D01*
X147737601Y-124009438D02*
X147642363Y-123961819D01*
X174432839Y-103157057D02*
X174385220Y-103109438D01*
X174385220Y-103109438D02*
X174289982Y-103061819D01*
X174289982Y-103061819D02*
X174051887Y-103061819D01*
X174051887Y-103061819D02*
X173956649Y-103109438D01*
X173956649Y-103109438D02*
X173909030Y-103157057D01*
X173909030Y-103157057D02*
X173861411Y-103252295D01*
X173861411Y-103252295D02*
X173861411Y-103347533D01*
X173861411Y-103347533D02*
X173909030Y-103490390D01*
X173909030Y-103490390D02*
X174480458Y-104061819D01*
X174480458Y-104061819D02*
X173861411Y-104061819D01*
X173242363Y-103061819D02*
X173147125Y-103061819D01*
X173147125Y-103061819D02*
X173051887Y-103109438D01*
X173051887Y-103109438D02*
X173004268Y-103157057D01*
X173004268Y-103157057D02*
X172956649Y-103252295D01*
X172956649Y-103252295D02*
X172909030Y-103442771D01*
X172909030Y-103442771D02*
X172909030Y-103680866D01*
X172909030Y-103680866D02*
X172956649Y-103871342D01*
X172956649Y-103871342D02*
X173004268Y-103966580D01*
X173004268Y-103966580D02*
X173051887Y-104014200D01*
X173051887Y-104014200D02*
X173147125Y-104061819D01*
X173147125Y-104061819D02*
X173242363Y-104061819D01*
X173242363Y-104061819D02*
X173337601Y-104014200D01*
X173337601Y-104014200D02*
X173385220Y-103966580D01*
X173385220Y-103966580D02*
X173432839Y-103871342D01*
X173432839Y-103871342D02*
X173480458Y-103680866D01*
X173480458Y-103680866D02*
X173480458Y-103442771D01*
X173480458Y-103442771D02*
X173432839Y-103252295D01*
X173432839Y-103252295D02*
X173385220Y-103157057D01*
X173385220Y-103157057D02*
X173337601Y-103109438D01*
X173337601Y-103109438D02*
X173242363Y-103061819D01*
X135009030Y-103061819D02*
X135485220Y-103061819D01*
X135485220Y-103061819D02*
X135532839Y-103538009D01*
X135532839Y-103538009D02*
X135485220Y-103490390D01*
X135485220Y-103490390D02*
X135389982Y-103442771D01*
X135389982Y-103442771D02*
X135151887Y-103442771D01*
X135151887Y-103442771D02*
X135056649Y-103490390D01*
X135056649Y-103490390D02*
X135009030Y-103538009D01*
X135009030Y-103538009D02*
X134961411Y-103633247D01*
X134961411Y-103633247D02*
X134961411Y-103871342D01*
X134961411Y-103871342D02*
X135009030Y-103966580D01*
X135009030Y-103966580D02*
X135056649Y-104014200D01*
X135056649Y-104014200D02*
X135151887Y-104061819D01*
X135151887Y-104061819D02*
X135389982Y-104061819D01*
X135389982Y-104061819D02*
X135485220Y-104014200D01*
X135485220Y-104014200D02*
X135532839Y-103966580D01*
X160961411Y-151461819D02*
X161532839Y-151461819D01*
X161247125Y-151461819D02*
X161247125Y-150461819D01*
X161247125Y-150461819D02*
X161342363Y-150604676D01*
X161342363Y-150604676D02*
X161437601Y-150699914D01*
X161437601Y-150699914D02*
X161532839Y-150747533D01*
X160056649Y-150461819D02*
X160532839Y-150461819D01*
X160532839Y-150461819D02*
X160580458Y-150938009D01*
X160580458Y-150938009D02*
X160532839Y-150890390D01*
X160532839Y-150890390D02*
X160437601Y-150842771D01*
X160437601Y-150842771D02*
X160199506Y-150842771D01*
X160199506Y-150842771D02*
X160104268Y-150890390D01*
X160104268Y-150890390D02*
X160056649Y-150938009D01*
X160056649Y-150938009D02*
X160009030Y-151033247D01*
X160009030Y-151033247D02*
X160009030Y-151271342D01*
X160009030Y-151271342D02*
X160056649Y-151366580D01*
X160056649Y-151366580D02*
X160104268Y-151414200D01*
X160104268Y-151414200D02*
X160199506Y-151461819D01*
X160199506Y-151461819D02*
X160437601Y-151461819D01*
X160437601Y-151461819D02*
X160532839Y-151414200D01*
X160532839Y-151414200D02*
X160580458Y-151366580D01*
X135109030Y-123961819D02*
X135585220Y-123961819D01*
X135585220Y-123961819D02*
X135632839Y-124438009D01*
X135632839Y-124438009D02*
X135585220Y-124390390D01*
X135585220Y-124390390D02*
X135489982Y-124342771D01*
X135489982Y-124342771D02*
X135251887Y-124342771D01*
X135251887Y-124342771D02*
X135156649Y-124390390D01*
X135156649Y-124390390D02*
X135109030Y-124438009D01*
X135109030Y-124438009D02*
X135061411Y-124533247D01*
X135061411Y-124533247D02*
X135061411Y-124771342D01*
X135061411Y-124771342D02*
X135109030Y-124866580D01*
X135109030Y-124866580D02*
X135156649Y-124914200D01*
X135156649Y-124914200D02*
X135251887Y-124961819D01*
X135251887Y-124961819D02*
X135489982Y-124961819D01*
X135489982Y-124961819D02*
X135585220Y-124914200D01*
X135585220Y-124914200D02*
X135632839Y-124866580D01*
X125356649Y-94095152D02*
X125356649Y-94761819D01*
X125594744Y-93714200D02*
X125832839Y-94428485D01*
X125832839Y-94428485D02*
X125213792Y-94428485D01*
X124642363Y-93761819D02*
X124547125Y-93761819D01*
X124547125Y-93761819D02*
X124451887Y-93809438D01*
X124451887Y-93809438D02*
X124404268Y-93857057D01*
X124404268Y-93857057D02*
X124356649Y-93952295D01*
X124356649Y-93952295D02*
X124309030Y-94142771D01*
X124309030Y-94142771D02*
X124309030Y-94380866D01*
X124309030Y-94380866D02*
X124356649Y-94571342D01*
X124356649Y-94571342D02*
X124404268Y-94666580D01*
X124404268Y-94666580D02*
X124451887Y-94714200D01*
X124451887Y-94714200D02*
X124547125Y-94761819D01*
X124547125Y-94761819D02*
X124642363Y-94761819D01*
X124642363Y-94761819D02*
X124737601Y-94714200D01*
X124737601Y-94714200D02*
X124785220Y-94666580D01*
X124785220Y-94666580D02*
X124832839Y-94571342D01*
X124832839Y-94571342D02*
X124880458Y-94380866D01*
X124880458Y-94380866D02*
X124880458Y-94142771D01*
X124880458Y-94142771D02*
X124832839Y-93952295D01*
X124832839Y-93952295D02*
X124785220Y-93857057D01*
X124785220Y-93857057D02*
X124737601Y-93809438D01*
X124737601Y-93809438D02*
X124642363Y-93761819D01*
M02*
