%TF.GenerationSoftware,KiCad,Pcbnew,8.0.4-8.0.4-0~ubuntu24.04.1*%
%TF.CreationDate,2024-08-18T17:45:03-07:00*%
%TF.ProjectId,shadow_tracer,73686164-6f77-45f7-9472-616365722e6b,rev?*%
%TF.SameCoordinates,Original*%
%TF.FileFunction,Legend,Top*%
%TF.FilePolarity,Positive*%
%FSLAX46Y46*%
G04 Gerber Fmt 4.6, Leading zero omitted, Abs format (unit mm)*
G04 Created by KiCad (PCBNEW 8.0.4-8.0.4-0~ubuntu24.04.1) date 2024-08-18 17:45:03*
%MOMM*%
%LPD*%
G01*
G04 APERTURE LIST*
%ADD10C,0.150000*%
%ADD11C,0.499264*%
%ADD12C,0.120000*%
%ADD13C,0.152400*%
%ADD14C,0.200000*%
%ADD15C,0.441000*%
G04 APERTURE END LIST*
D10*
X125582588Y-104061819D02*
X125011160Y-104061819D01*
X125296874Y-104061819D02*
X125296874Y-103061819D01*
X125296874Y-103061819D02*
X125201636Y-103204676D01*
X125201636Y-103204676D02*
X125106398Y-103299914D01*
X125106398Y-103299914D02*
X125011160Y-103347533D01*
X160782588Y-104061819D02*
X160211160Y-104061819D01*
X160496874Y-104061819D02*
X160496874Y-103061819D01*
X160496874Y-103061819D02*
X160401636Y-103204676D01*
X160401636Y-103204676D02*
X160306398Y-103299914D01*
X160306398Y-103299914D02*
X160211160Y-103347533D01*
X161687350Y-103061819D02*
X161211160Y-103061819D01*
X161211160Y-103061819D02*
X161163541Y-103538009D01*
X161163541Y-103538009D02*
X161211160Y-103490390D01*
X161211160Y-103490390D02*
X161306398Y-103442771D01*
X161306398Y-103442771D02*
X161544493Y-103442771D01*
X161544493Y-103442771D02*
X161639731Y-103490390D01*
X161639731Y-103490390D02*
X161687350Y-103538009D01*
X161687350Y-103538009D02*
X161734969Y-103633247D01*
X161734969Y-103633247D02*
X161734969Y-103871342D01*
X161734969Y-103871342D02*
X161687350Y-103966580D01*
X161687350Y-103966580D02*
X161639731Y-104014200D01*
X161639731Y-104014200D02*
X161544493Y-104061819D01*
X161544493Y-104061819D02*
X161306398Y-104061819D01*
X161306398Y-104061819D02*
X161211160Y-104014200D01*
X161211160Y-104014200D02*
X161163541Y-103966580D01*
X173011160Y-103157057D02*
X173058779Y-103109438D01*
X173058779Y-103109438D02*
X173154017Y-103061819D01*
X173154017Y-103061819D02*
X173392112Y-103061819D01*
X173392112Y-103061819D02*
X173487350Y-103109438D01*
X173487350Y-103109438D02*
X173534969Y-103157057D01*
X173534969Y-103157057D02*
X173582588Y-103252295D01*
X173582588Y-103252295D02*
X173582588Y-103347533D01*
X173582588Y-103347533D02*
X173534969Y-103490390D01*
X173534969Y-103490390D02*
X172963541Y-104061819D01*
X172963541Y-104061819D02*
X173582588Y-104061819D01*
X174201636Y-103061819D02*
X174296874Y-103061819D01*
X174296874Y-103061819D02*
X174392112Y-103109438D01*
X174392112Y-103109438D02*
X174439731Y-103157057D01*
X174439731Y-103157057D02*
X174487350Y-103252295D01*
X174487350Y-103252295D02*
X174534969Y-103442771D01*
X174534969Y-103442771D02*
X174534969Y-103680866D01*
X174534969Y-103680866D02*
X174487350Y-103871342D01*
X174487350Y-103871342D02*
X174439731Y-103966580D01*
X174439731Y-103966580D02*
X174392112Y-104014200D01*
X174392112Y-104014200D02*
X174296874Y-104061819D01*
X174296874Y-104061819D02*
X174201636Y-104061819D01*
X174201636Y-104061819D02*
X174106398Y-104014200D01*
X174106398Y-104014200D02*
X174058779Y-103966580D01*
X174058779Y-103966580D02*
X174011160Y-103871342D01*
X174011160Y-103871342D02*
X173963541Y-103680866D01*
X173963541Y-103680866D02*
X173963541Y-103442771D01*
X173963541Y-103442771D02*
X174011160Y-103252295D01*
X174011160Y-103252295D02*
X174058779Y-103157057D01*
X174058779Y-103157057D02*
X174106398Y-103109438D01*
X174106398Y-103109438D02*
X174201636Y-103061819D01*
X148082588Y-104061819D02*
X147511160Y-104061819D01*
X147796874Y-104061819D02*
X147796874Y-103061819D01*
X147796874Y-103061819D02*
X147701636Y-103204676D01*
X147701636Y-103204676D02*
X147606398Y-103299914D01*
X147606398Y-103299914D02*
X147511160Y-103347533D01*
X148701636Y-103061819D02*
X148796874Y-103061819D01*
X148796874Y-103061819D02*
X148892112Y-103109438D01*
X148892112Y-103109438D02*
X148939731Y-103157057D01*
X148939731Y-103157057D02*
X148987350Y-103252295D01*
X148987350Y-103252295D02*
X149034969Y-103442771D01*
X149034969Y-103442771D02*
X149034969Y-103680866D01*
X149034969Y-103680866D02*
X148987350Y-103871342D01*
X148987350Y-103871342D02*
X148939731Y-103966580D01*
X148939731Y-103966580D02*
X148892112Y-104014200D01*
X148892112Y-104014200D02*
X148796874Y-104061819D01*
X148796874Y-104061819D02*
X148701636Y-104061819D01*
X148701636Y-104061819D02*
X148606398Y-104014200D01*
X148606398Y-104014200D02*
X148558779Y-103966580D01*
X148558779Y-103966580D02*
X148511160Y-103871342D01*
X148511160Y-103871342D02*
X148463541Y-103680866D01*
X148463541Y-103680866D02*
X148463541Y-103442771D01*
X148463541Y-103442771D02*
X148511160Y-103252295D01*
X148511160Y-103252295D02*
X148558779Y-103157057D01*
X148558779Y-103157057D02*
X148606398Y-103109438D01*
X148606398Y-103109438D02*
X148701636Y-103061819D01*
X135634969Y-103061819D02*
X135158779Y-103061819D01*
X135158779Y-103061819D02*
X135111160Y-103538009D01*
X135111160Y-103538009D02*
X135158779Y-103490390D01*
X135158779Y-103490390D02*
X135254017Y-103442771D01*
X135254017Y-103442771D02*
X135492112Y-103442771D01*
X135492112Y-103442771D02*
X135587350Y-103490390D01*
X135587350Y-103490390D02*
X135634969Y-103538009D01*
X135634969Y-103538009D02*
X135682588Y-103633247D01*
X135682588Y-103633247D02*
X135682588Y-103871342D01*
X135682588Y-103871342D02*
X135634969Y-103966580D01*
X135634969Y-103966580D02*
X135587350Y-104014200D01*
X135587350Y-104014200D02*
X135492112Y-104061819D01*
X135492112Y-104061819D02*
X135254017Y-104061819D01*
X135254017Y-104061819D02*
X135158779Y-104014200D01*
X135158779Y-104014200D02*
X135111160Y-103966580D01*
X172911160Y-93857057D02*
X172958779Y-93809438D01*
X172958779Y-93809438D02*
X173054017Y-93761819D01*
X173054017Y-93761819D02*
X173292112Y-93761819D01*
X173292112Y-93761819D02*
X173387350Y-93809438D01*
X173387350Y-93809438D02*
X173434969Y-93857057D01*
X173434969Y-93857057D02*
X173482588Y-93952295D01*
X173482588Y-93952295D02*
X173482588Y-94047533D01*
X173482588Y-94047533D02*
X173434969Y-94190390D01*
X173434969Y-94190390D02*
X172863541Y-94761819D01*
X172863541Y-94761819D02*
X173482588Y-94761819D01*
X174434969Y-94761819D02*
X173863541Y-94761819D01*
X174149255Y-94761819D02*
X174149255Y-93761819D01*
X174149255Y-93761819D02*
X174054017Y-93904676D01*
X174054017Y-93904676D02*
X173958779Y-93999914D01*
X173958779Y-93999914D02*
X173863541Y-94047533D01*
X137163541Y-93761819D02*
X137782588Y-93761819D01*
X137782588Y-93761819D02*
X137449255Y-94142771D01*
X137449255Y-94142771D02*
X137592112Y-94142771D01*
X137592112Y-94142771D02*
X137687350Y-94190390D01*
X137687350Y-94190390D02*
X137734969Y-94238009D01*
X137734969Y-94238009D02*
X137782588Y-94333247D01*
X137782588Y-94333247D02*
X137782588Y-94571342D01*
X137782588Y-94571342D02*
X137734969Y-94666580D01*
X137734969Y-94666580D02*
X137687350Y-94714200D01*
X137687350Y-94714200D02*
X137592112Y-94761819D01*
X137592112Y-94761819D02*
X137306398Y-94761819D01*
X137306398Y-94761819D02*
X137211160Y-94714200D01*
X137211160Y-94714200D02*
X137163541Y-94666580D01*
X138687350Y-93761819D02*
X138211160Y-93761819D01*
X138211160Y-93761819D02*
X138163541Y-94238009D01*
X138163541Y-94238009D02*
X138211160Y-94190390D01*
X138211160Y-94190390D02*
X138306398Y-94142771D01*
X138306398Y-94142771D02*
X138544493Y-94142771D01*
X138544493Y-94142771D02*
X138639731Y-94190390D01*
X138639731Y-94190390D02*
X138687350Y-94238009D01*
X138687350Y-94238009D02*
X138734969Y-94333247D01*
X138734969Y-94333247D02*
X138734969Y-94571342D01*
X138734969Y-94571342D02*
X138687350Y-94666580D01*
X138687350Y-94666580D02*
X138639731Y-94714200D01*
X138639731Y-94714200D02*
X138544493Y-94761819D01*
X138544493Y-94761819D02*
X138306398Y-94761819D01*
X138306398Y-94761819D02*
X138211160Y-94714200D01*
X138211160Y-94714200D02*
X138163541Y-94666580D01*
X149863541Y-93761819D02*
X150482588Y-93761819D01*
X150482588Y-93761819D02*
X150149255Y-94142771D01*
X150149255Y-94142771D02*
X150292112Y-94142771D01*
X150292112Y-94142771D02*
X150387350Y-94190390D01*
X150387350Y-94190390D02*
X150434969Y-94238009D01*
X150434969Y-94238009D02*
X150482588Y-94333247D01*
X150482588Y-94333247D02*
X150482588Y-94571342D01*
X150482588Y-94571342D02*
X150434969Y-94666580D01*
X150434969Y-94666580D02*
X150387350Y-94714200D01*
X150387350Y-94714200D02*
X150292112Y-94761819D01*
X150292112Y-94761819D02*
X150006398Y-94761819D01*
X150006398Y-94761819D02*
X149911160Y-94714200D01*
X149911160Y-94714200D02*
X149863541Y-94666580D01*
X151101636Y-93761819D02*
X151196874Y-93761819D01*
X151196874Y-93761819D02*
X151292112Y-93809438D01*
X151292112Y-93809438D02*
X151339731Y-93857057D01*
X151339731Y-93857057D02*
X151387350Y-93952295D01*
X151387350Y-93952295D02*
X151434969Y-94142771D01*
X151434969Y-94142771D02*
X151434969Y-94380866D01*
X151434969Y-94380866D02*
X151387350Y-94571342D01*
X151387350Y-94571342D02*
X151339731Y-94666580D01*
X151339731Y-94666580D02*
X151292112Y-94714200D01*
X151292112Y-94714200D02*
X151196874Y-94761819D01*
X151196874Y-94761819D02*
X151101636Y-94761819D01*
X151101636Y-94761819D02*
X151006398Y-94714200D01*
X151006398Y-94714200D02*
X150958779Y-94666580D01*
X150958779Y-94666580D02*
X150911160Y-94571342D01*
X150911160Y-94571342D02*
X150863541Y-94380866D01*
X150863541Y-94380866D02*
X150863541Y-94142771D01*
X150863541Y-94142771D02*
X150911160Y-93952295D01*
X150911160Y-93952295D02*
X150958779Y-93857057D01*
X150958779Y-93857057D02*
X151006398Y-93809438D01*
X151006398Y-93809438D02*
X151101636Y-93761819D01*
X162611160Y-93857057D02*
X162658779Y-93809438D01*
X162658779Y-93809438D02*
X162754017Y-93761819D01*
X162754017Y-93761819D02*
X162992112Y-93761819D01*
X162992112Y-93761819D02*
X163087350Y-93809438D01*
X163087350Y-93809438D02*
X163134969Y-93857057D01*
X163134969Y-93857057D02*
X163182588Y-93952295D01*
X163182588Y-93952295D02*
X163182588Y-94047533D01*
X163182588Y-94047533D02*
X163134969Y-94190390D01*
X163134969Y-94190390D02*
X162563541Y-94761819D01*
X162563541Y-94761819D02*
X163182588Y-94761819D01*
X164087350Y-93761819D02*
X163611160Y-93761819D01*
X163611160Y-93761819D02*
X163563541Y-94238009D01*
X163563541Y-94238009D02*
X163611160Y-94190390D01*
X163611160Y-94190390D02*
X163706398Y-94142771D01*
X163706398Y-94142771D02*
X163944493Y-94142771D01*
X163944493Y-94142771D02*
X164039731Y-94190390D01*
X164039731Y-94190390D02*
X164087350Y-94238009D01*
X164087350Y-94238009D02*
X164134969Y-94333247D01*
X164134969Y-94333247D02*
X164134969Y-94571342D01*
X164134969Y-94571342D02*
X164087350Y-94666580D01*
X164087350Y-94666580D02*
X164039731Y-94714200D01*
X164039731Y-94714200D02*
X163944493Y-94761819D01*
X163944493Y-94761819D02*
X163706398Y-94761819D01*
X163706398Y-94761819D02*
X163611160Y-94714200D01*
X163611160Y-94714200D02*
X163563541Y-94666580D01*
X124987350Y-105995152D02*
X124987350Y-106661819D01*
X124749255Y-105614200D02*
X124511160Y-106328485D01*
X124511160Y-106328485D02*
X125130207Y-106328485D01*
X125701636Y-105661819D02*
X125796874Y-105661819D01*
X125796874Y-105661819D02*
X125892112Y-105709438D01*
X125892112Y-105709438D02*
X125939731Y-105757057D01*
X125939731Y-105757057D02*
X125987350Y-105852295D01*
X125987350Y-105852295D02*
X126034969Y-106042771D01*
X126034969Y-106042771D02*
X126034969Y-106280866D01*
X126034969Y-106280866D02*
X125987350Y-106471342D01*
X125987350Y-106471342D02*
X125939731Y-106566580D01*
X125939731Y-106566580D02*
X125892112Y-106614200D01*
X125892112Y-106614200D02*
X125796874Y-106661819D01*
X125796874Y-106661819D02*
X125701636Y-106661819D01*
X125701636Y-106661819D02*
X125606398Y-106614200D01*
X125606398Y-106614200D02*
X125558779Y-106566580D01*
X125558779Y-106566580D02*
X125511160Y-106471342D01*
X125511160Y-106471342D02*
X125463541Y-106280866D01*
X125463541Y-106280866D02*
X125463541Y-106042771D01*
X125463541Y-106042771D02*
X125511160Y-105852295D01*
X125511160Y-105852295D02*
X125558779Y-105757057D01*
X125558779Y-105757057D02*
X125606398Y-105709438D01*
X125606398Y-105709438D02*
X125701636Y-105661819D01*
X173011160Y-105757057D02*
X173058779Y-105709438D01*
X173058779Y-105709438D02*
X173154017Y-105661819D01*
X173154017Y-105661819D02*
X173392112Y-105661819D01*
X173392112Y-105661819D02*
X173487350Y-105709438D01*
X173487350Y-105709438D02*
X173534969Y-105757057D01*
X173534969Y-105757057D02*
X173582588Y-105852295D01*
X173582588Y-105852295D02*
X173582588Y-105947533D01*
X173582588Y-105947533D02*
X173534969Y-106090390D01*
X173534969Y-106090390D02*
X172963541Y-106661819D01*
X172963541Y-106661819D02*
X173582588Y-106661819D01*
X174534969Y-106661819D02*
X173963541Y-106661819D01*
X174249255Y-106661819D02*
X174249255Y-105661819D01*
X174249255Y-105661819D02*
X174154017Y-105804676D01*
X174154017Y-105804676D02*
X174058779Y-105899914D01*
X174058779Y-105899914D02*
X173963541Y-105947533D01*
X137263541Y-105661819D02*
X137882588Y-105661819D01*
X137882588Y-105661819D02*
X137549255Y-106042771D01*
X137549255Y-106042771D02*
X137692112Y-106042771D01*
X137692112Y-106042771D02*
X137787350Y-106090390D01*
X137787350Y-106090390D02*
X137834969Y-106138009D01*
X137834969Y-106138009D02*
X137882588Y-106233247D01*
X137882588Y-106233247D02*
X137882588Y-106471342D01*
X137882588Y-106471342D02*
X137834969Y-106566580D01*
X137834969Y-106566580D02*
X137787350Y-106614200D01*
X137787350Y-106614200D02*
X137692112Y-106661819D01*
X137692112Y-106661819D02*
X137406398Y-106661819D01*
X137406398Y-106661819D02*
X137311160Y-106614200D01*
X137311160Y-106614200D02*
X137263541Y-106566580D01*
X138787350Y-105661819D02*
X138311160Y-105661819D01*
X138311160Y-105661819D02*
X138263541Y-106138009D01*
X138263541Y-106138009D02*
X138311160Y-106090390D01*
X138311160Y-106090390D02*
X138406398Y-106042771D01*
X138406398Y-106042771D02*
X138644493Y-106042771D01*
X138644493Y-106042771D02*
X138739731Y-106090390D01*
X138739731Y-106090390D02*
X138787350Y-106138009D01*
X138787350Y-106138009D02*
X138834969Y-106233247D01*
X138834969Y-106233247D02*
X138834969Y-106471342D01*
X138834969Y-106471342D02*
X138787350Y-106566580D01*
X138787350Y-106566580D02*
X138739731Y-106614200D01*
X138739731Y-106614200D02*
X138644493Y-106661819D01*
X138644493Y-106661819D02*
X138406398Y-106661819D01*
X138406398Y-106661819D02*
X138311160Y-106614200D01*
X138311160Y-106614200D02*
X138263541Y-106566580D01*
X149963541Y-105661819D02*
X150582588Y-105661819D01*
X150582588Y-105661819D02*
X150249255Y-106042771D01*
X150249255Y-106042771D02*
X150392112Y-106042771D01*
X150392112Y-106042771D02*
X150487350Y-106090390D01*
X150487350Y-106090390D02*
X150534969Y-106138009D01*
X150534969Y-106138009D02*
X150582588Y-106233247D01*
X150582588Y-106233247D02*
X150582588Y-106471342D01*
X150582588Y-106471342D02*
X150534969Y-106566580D01*
X150534969Y-106566580D02*
X150487350Y-106614200D01*
X150487350Y-106614200D02*
X150392112Y-106661819D01*
X150392112Y-106661819D02*
X150106398Y-106661819D01*
X150106398Y-106661819D02*
X150011160Y-106614200D01*
X150011160Y-106614200D02*
X149963541Y-106566580D01*
X151201636Y-105661819D02*
X151296874Y-105661819D01*
X151296874Y-105661819D02*
X151392112Y-105709438D01*
X151392112Y-105709438D02*
X151439731Y-105757057D01*
X151439731Y-105757057D02*
X151487350Y-105852295D01*
X151487350Y-105852295D02*
X151534969Y-106042771D01*
X151534969Y-106042771D02*
X151534969Y-106280866D01*
X151534969Y-106280866D02*
X151487350Y-106471342D01*
X151487350Y-106471342D02*
X151439731Y-106566580D01*
X151439731Y-106566580D02*
X151392112Y-106614200D01*
X151392112Y-106614200D02*
X151296874Y-106661819D01*
X151296874Y-106661819D02*
X151201636Y-106661819D01*
X151201636Y-106661819D02*
X151106398Y-106614200D01*
X151106398Y-106614200D02*
X151058779Y-106566580D01*
X151058779Y-106566580D02*
X151011160Y-106471342D01*
X151011160Y-106471342D02*
X150963541Y-106280866D01*
X150963541Y-106280866D02*
X150963541Y-106042771D01*
X150963541Y-106042771D02*
X151011160Y-105852295D01*
X151011160Y-105852295D02*
X151058779Y-105757057D01*
X151058779Y-105757057D02*
X151106398Y-105709438D01*
X151106398Y-105709438D02*
X151201636Y-105661819D01*
X162711160Y-105757057D02*
X162758779Y-105709438D01*
X162758779Y-105709438D02*
X162854017Y-105661819D01*
X162854017Y-105661819D02*
X163092112Y-105661819D01*
X163092112Y-105661819D02*
X163187350Y-105709438D01*
X163187350Y-105709438D02*
X163234969Y-105757057D01*
X163234969Y-105757057D02*
X163282588Y-105852295D01*
X163282588Y-105852295D02*
X163282588Y-105947533D01*
X163282588Y-105947533D02*
X163234969Y-106090390D01*
X163234969Y-106090390D02*
X162663541Y-106661819D01*
X162663541Y-106661819D02*
X163282588Y-106661819D01*
X164187350Y-105661819D02*
X163711160Y-105661819D01*
X163711160Y-105661819D02*
X163663541Y-106138009D01*
X163663541Y-106138009D02*
X163711160Y-106090390D01*
X163711160Y-106090390D02*
X163806398Y-106042771D01*
X163806398Y-106042771D02*
X164044493Y-106042771D01*
X164044493Y-106042771D02*
X164139731Y-106090390D01*
X164139731Y-106090390D02*
X164187350Y-106138009D01*
X164187350Y-106138009D02*
X164234969Y-106233247D01*
X164234969Y-106233247D02*
X164234969Y-106471342D01*
X164234969Y-106471342D02*
X164187350Y-106566580D01*
X164187350Y-106566580D02*
X164139731Y-106614200D01*
X164139731Y-106614200D02*
X164044493Y-106661819D01*
X164044493Y-106661819D02*
X163806398Y-106661819D01*
X163806398Y-106661819D02*
X163711160Y-106614200D01*
X163711160Y-106614200D02*
X163663541Y-106566580D01*
X147982588Y-132061819D02*
X147411160Y-132061819D01*
X147696874Y-132061819D02*
X147696874Y-131061819D01*
X147696874Y-131061819D02*
X147601636Y-131204676D01*
X147601636Y-131204676D02*
X147506398Y-131299914D01*
X147506398Y-131299914D02*
X147411160Y-131347533D01*
X148601636Y-131061819D02*
X148696874Y-131061819D01*
X148696874Y-131061819D02*
X148792112Y-131109438D01*
X148792112Y-131109438D02*
X148839731Y-131157057D01*
X148839731Y-131157057D02*
X148887350Y-131252295D01*
X148887350Y-131252295D02*
X148934969Y-131442771D01*
X148934969Y-131442771D02*
X148934969Y-131680866D01*
X148934969Y-131680866D02*
X148887350Y-131871342D01*
X148887350Y-131871342D02*
X148839731Y-131966580D01*
X148839731Y-131966580D02*
X148792112Y-132014200D01*
X148792112Y-132014200D02*
X148696874Y-132061819D01*
X148696874Y-132061819D02*
X148601636Y-132061819D01*
X148601636Y-132061819D02*
X148506398Y-132014200D01*
X148506398Y-132014200D02*
X148458779Y-131966580D01*
X148458779Y-131966580D02*
X148411160Y-131871342D01*
X148411160Y-131871342D02*
X148363541Y-131680866D01*
X148363541Y-131680866D02*
X148363541Y-131442771D01*
X148363541Y-131442771D02*
X148411160Y-131252295D01*
X148411160Y-131252295D02*
X148458779Y-131157057D01*
X148458779Y-131157057D02*
X148506398Y-131109438D01*
X148506398Y-131109438D02*
X148601636Y-131061819D01*
X172911160Y-131157057D02*
X172958779Y-131109438D01*
X172958779Y-131109438D02*
X173054017Y-131061819D01*
X173054017Y-131061819D02*
X173292112Y-131061819D01*
X173292112Y-131061819D02*
X173387350Y-131109438D01*
X173387350Y-131109438D02*
X173434969Y-131157057D01*
X173434969Y-131157057D02*
X173482588Y-131252295D01*
X173482588Y-131252295D02*
X173482588Y-131347533D01*
X173482588Y-131347533D02*
X173434969Y-131490390D01*
X173434969Y-131490390D02*
X172863541Y-132061819D01*
X172863541Y-132061819D02*
X173482588Y-132061819D01*
X174101636Y-131061819D02*
X174196874Y-131061819D01*
X174196874Y-131061819D02*
X174292112Y-131109438D01*
X174292112Y-131109438D02*
X174339731Y-131157057D01*
X174339731Y-131157057D02*
X174387350Y-131252295D01*
X174387350Y-131252295D02*
X174434969Y-131442771D01*
X174434969Y-131442771D02*
X174434969Y-131680866D01*
X174434969Y-131680866D02*
X174387350Y-131871342D01*
X174387350Y-131871342D02*
X174339731Y-131966580D01*
X174339731Y-131966580D02*
X174292112Y-132014200D01*
X174292112Y-132014200D02*
X174196874Y-132061819D01*
X174196874Y-132061819D02*
X174101636Y-132061819D01*
X174101636Y-132061819D02*
X174006398Y-132014200D01*
X174006398Y-132014200D02*
X173958779Y-131966580D01*
X173958779Y-131966580D02*
X173911160Y-131871342D01*
X173911160Y-131871342D02*
X173863541Y-131680866D01*
X173863541Y-131680866D02*
X173863541Y-131442771D01*
X173863541Y-131442771D02*
X173911160Y-131252295D01*
X173911160Y-131252295D02*
X173958779Y-131157057D01*
X173958779Y-131157057D02*
X174006398Y-131109438D01*
X174006398Y-131109438D02*
X174101636Y-131061819D01*
X135534969Y-131061819D02*
X135058779Y-131061819D01*
X135058779Y-131061819D02*
X135011160Y-131538009D01*
X135011160Y-131538009D02*
X135058779Y-131490390D01*
X135058779Y-131490390D02*
X135154017Y-131442771D01*
X135154017Y-131442771D02*
X135392112Y-131442771D01*
X135392112Y-131442771D02*
X135487350Y-131490390D01*
X135487350Y-131490390D02*
X135534969Y-131538009D01*
X135534969Y-131538009D02*
X135582588Y-131633247D01*
X135582588Y-131633247D02*
X135582588Y-131871342D01*
X135582588Y-131871342D02*
X135534969Y-131966580D01*
X135534969Y-131966580D02*
X135487350Y-132014200D01*
X135487350Y-132014200D02*
X135392112Y-132061819D01*
X135392112Y-132061819D02*
X135154017Y-132061819D01*
X135154017Y-132061819D02*
X135058779Y-132014200D01*
X135058779Y-132014200D02*
X135011160Y-131966580D01*
X125482588Y-132061819D02*
X124911160Y-132061819D01*
X125196874Y-132061819D02*
X125196874Y-131061819D01*
X125196874Y-131061819D02*
X125101636Y-131204676D01*
X125101636Y-131204676D02*
X125006398Y-131299914D01*
X125006398Y-131299914D02*
X124911160Y-131347533D01*
X160682588Y-132061819D02*
X160111160Y-132061819D01*
X160396874Y-132061819D02*
X160396874Y-131061819D01*
X160396874Y-131061819D02*
X160301636Y-131204676D01*
X160301636Y-131204676D02*
X160206398Y-131299914D01*
X160206398Y-131299914D02*
X160111160Y-131347533D01*
X161587350Y-131061819D02*
X161111160Y-131061819D01*
X161111160Y-131061819D02*
X161063541Y-131538009D01*
X161063541Y-131538009D02*
X161111160Y-131490390D01*
X161111160Y-131490390D02*
X161206398Y-131442771D01*
X161206398Y-131442771D02*
X161444493Y-131442771D01*
X161444493Y-131442771D02*
X161539731Y-131490390D01*
X161539731Y-131490390D02*
X161587350Y-131538009D01*
X161587350Y-131538009D02*
X161634969Y-131633247D01*
X161634969Y-131633247D02*
X161634969Y-131871342D01*
X161634969Y-131871342D02*
X161587350Y-131966580D01*
X161587350Y-131966580D02*
X161539731Y-132014200D01*
X161539731Y-132014200D02*
X161444493Y-132061819D01*
X161444493Y-132061819D02*
X161206398Y-132061819D01*
X161206398Y-132061819D02*
X161111160Y-132014200D01*
X161111160Y-132014200D02*
X161063541Y-131966580D01*
X126182588Y-158761819D02*
X125611160Y-158761819D01*
X125896874Y-158761819D02*
X125896874Y-157761819D01*
X125896874Y-157761819D02*
X125801636Y-157904676D01*
X125801636Y-157904676D02*
X125706398Y-157999914D01*
X125706398Y-157999914D02*
X125611160Y-158047533D01*
X135634969Y-157761819D02*
X135158779Y-157761819D01*
X135158779Y-157761819D02*
X135111160Y-158238009D01*
X135111160Y-158238009D02*
X135158779Y-158190390D01*
X135158779Y-158190390D02*
X135254017Y-158142771D01*
X135254017Y-158142771D02*
X135492112Y-158142771D01*
X135492112Y-158142771D02*
X135587350Y-158190390D01*
X135587350Y-158190390D02*
X135634969Y-158238009D01*
X135634969Y-158238009D02*
X135682588Y-158333247D01*
X135682588Y-158333247D02*
X135682588Y-158571342D01*
X135682588Y-158571342D02*
X135634969Y-158666580D01*
X135634969Y-158666580D02*
X135587350Y-158714200D01*
X135587350Y-158714200D02*
X135492112Y-158761819D01*
X135492112Y-158761819D02*
X135254017Y-158761819D01*
X135254017Y-158761819D02*
X135158779Y-158714200D01*
X135158779Y-158714200D02*
X135111160Y-158666580D01*
X147882588Y-158761819D02*
X147311160Y-158761819D01*
X147596874Y-158761819D02*
X147596874Y-157761819D01*
X147596874Y-157761819D02*
X147501636Y-157904676D01*
X147501636Y-157904676D02*
X147406398Y-157999914D01*
X147406398Y-157999914D02*
X147311160Y-158047533D01*
X148501636Y-157761819D02*
X148596874Y-157761819D01*
X148596874Y-157761819D02*
X148692112Y-157809438D01*
X148692112Y-157809438D02*
X148739731Y-157857057D01*
X148739731Y-157857057D02*
X148787350Y-157952295D01*
X148787350Y-157952295D02*
X148834969Y-158142771D01*
X148834969Y-158142771D02*
X148834969Y-158380866D01*
X148834969Y-158380866D02*
X148787350Y-158571342D01*
X148787350Y-158571342D02*
X148739731Y-158666580D01*
X148739731Y-158666580D02*
X148692112Y-158714200D01*
X148692112Y-158714200D02*
X148596874Y-158761819D01*
X148596874Y-158761819D02*
X148501636Y-158761819D01*
X148501636Y-158761819D02*
X148406398Y-158714200D01*
X148406398Y-158714200D02*
X148358779Y-158666580D01*
X148358779Y-158666580D02*
X148311160Y-158571342D01*
X148311160Y-158571342D02*
X148263541Y-158380866D01*
X148263541Y-158380866D02*
X148263541Y-158142771D01*
X148263541Y-158142771D02*
X148311160Y-157952295D01*
X148311160Y-157952295D02*
X148358779Y-157857057D01*
X148358779Y-157857057D02*
X148406398Y-157809438D01*
X148406398Y-157809438D02*
X148501636Y-157761819D01*
X160682588Y-158761819D02*
X160111160Y-158761819D01*
X160396874Y-158761819D02*
X160396874Y-157761819D01*
X160396874Y-157761819D02*
X160301636Y-157904676D01*
X160301636Y-157904676D02*
X160206398Y-157999914D01*
X160206398Y-157999914D02*
X160111160Y-158047533D01*
X161587350Y-157761819D02*
X161111160Y-157761819D01*
X161111160Y-157761819D02*
X161063541Y-158238009D01*
X161063541Y-158238009D02*
X161111160Y-158190390D01*
X161111160Y-158190390D02*
X161206398Y-158142771D01*
X161206398Y-158142771D02*
X161444493Y-158142771D01*
X161444493Y-158142771D02*
X161539731Y-158190390D01*
X161539731Y-158190390D02*
X161587350Y-158238009D01*
X161587350Y-158238009D02*
X161634969Y-158333247D01*
X161634969Y-158333247D02*
X161634969Y-158571342D01*
X161634969Y-158571342D02*
X161587350Y-158666580D01*
X161587350Y-158666580D02*
X161539731Y-158714200D01*
X161539731Y-158714200D02*
X161444493Y-158761819D01*
X161444493Y-158761819D02*
X161206398Y-158761819D01*
X161206398Y-158761819D02*
X161111160Y-158714200D01*
X161111160Y-158714200D02*
X161063541Y-158666580D01*
X171711160Y-157857057D02*
X171758779Y-157809438D01*
X171758779Y-157809438D02*
X171854017Y-157761819D01*
X171854017Y-157761819D02*
X172092112Y-157761819D01*
X172092112Y-157761819D02*
X172187350Y-157809438D01*
X172187350Y-157809438D02*
X172234969Y-157857057D01*
X172234969Y-157857057D02*
X172282588Y-157952295D01*
X172282588Y-157952295D02*
X172282588Y-158047533D01*
X172282588Y-158047533D02*
X172234969Y-158190390D01*
X172234969Y-158190390D02*
X171663541Y-158761819D01*
X171663541Y-158761819D02*
X172282588Y-158761819D01*
X172901636Y-157761819D02*
X172996874Y-157761819D01*
X172996874Y-157761819D02*
X173092112Y-157809438D01*
X173092112Y-157809438D02*
X173139731Y-157857057D01*
X173139731Y-157857057D02*
X173187350Y-157952295D01*
X173187350Y-157952295D02*
X173234969Y-158142771D01*
X173234969Y-158142771D02*
X173234969Y-158380866D01*
X173234969Y-158380866D02*
X173187350Y-158571342D01*
X173187350Y-158571342D02*
X173139731Y-158666580D01*
X173139731Y-158666580D02*
X173092112Y-158714200D01*
X173092112Y-158714200D02*
X172996874Y-158761819D01*
X172996874Y-158761819D02*
X172901636Y-158761819D01*
X172901636Y-158761819D02*
X172806398Y-158714200D01*
X172806398Y-158714200D02*
X172758779Y-158666580D01*
X172758779Y-158666580D02*
X172711160Y-158571342D01*
X172711160Y-158571342D02*
X172663541Y-158380866D01*
X172663541Y-158380866D02*
X172663541Y-158142771D01*
X172663541Y-158142771D02*
X172711160Y-157952295D01*
X172711160Y-157952295D02*
X172758779Y-157857057D01*
X172758779Y-157857057D02*
X172806398Y-157809438D01*
X172806398Y-157809438D02*
X172901636Y-157761819D01*
X172911160Y-132557057D02*
X172958779Y-132509438D01*
X172958779Y-132509438D02*
X173054017Y-132461819D01*
X173054017Y-132461819D02*
X173292112Y-132461819D01*
X173292112Y-132461819D02*
X173387350Y-132509438D01*
X173387350Y-132509438D02*
X173434969Y-132557057D01*
X173434969Y-132557057D02*
X173482588Y-132652295D01*
X173482588Y-132652295D02*
X173482588Y-132747533D01*
X173482588Y-132747533D02*
X173434969Y-132890390D01*
X173434969Y-132890390D02*
X172863541Y-133461819D01*
X172863541Y-133461819D02*
X173482588Y-133461819D01*
X174434969Y-133461819D02*
X173863541Y-133461819D01*
X174149255Y-133461819D02*
X174149255Y-132461819D01*
X174149255Y-132461819D02*
X174054017Y-132604676D01*
X174054017Y-132604676D02*
X173958779Y-132699914D01*
X173958779Y-132699914D02*
X173863541Y-132747533D01*
X162611160Y-132557057D02*
X162658779Y-132509438D01*
X162658779Y-132509438D02*
X162754017Y-132461819D01*
X162754017Y-132461819D02*
X162992112Y-132461819D01*
X162992112Y-132461819D02*
X163087350Y-132509438D01*
X163087350Y-132509438D02*
X163134969Y-132557057D01*
X163134969Y-132557057D02*
X163182588Y-132652295D01*
X163182588Y-132652295D02*
X163182588Y-132747533D01*
X163182588Y-132747533D02*
X163134969Y-132890390D01*
X163134969Y-132890390D02*
X162563541Y-133461819D01*
X162563541Y-133461819D02*
X163182588Y-133461819D01*
X164087350Y-132461819D02*
X163611160Y-132461819D01*
X163611160Y-132461819D02*
X163563541Y-132938009D01*
X163563541Y-132938009D02*
X163611160Y-132890390D01*
X163611160Y-132890390D02*
X163706398Y-132842771D01*
X163706398Y-132842771D02*
X163944493Y-132842771D01*
X163944493Y-132842771D02*
X164039731Y-132890390D01*
X164039731Y-132890390D02*
X164087350Y-132938009D01*
X164087350Y-132938009D02*
X164134969Y-133033247D01*
X164134969Y-133033247D02*
X164134969Y-133271342D01*
X164134969Y-133271342D02*
X164087350Y-133366580D01*
X164087350Y-133366580D02*
X164039731Y-133414200D01*
X164039731Y-133414200D02*
X163944493Y-133461819D01*
X163944493Y-133461819D02*
X163706398Y-133461819D01*
X163706398Y-133461819D02*
X163611160Y-133414200D01*
X163611160Y-133414200D02*
X163563541Y-133366580D01*
X149863541Y-132461819D02*
X150482588Y-132461819D01*
X150482588Y-132461819D02*
X150149255Y-132842771D01*
X150149255Y-132842771D02*
X150292112Y-132842771D01*
X150292112Y-132842771D02*
X150387350Y-132890390D01*
X150387350Y-132890390D02*
X150434969Y-132938009D01*
X150434969Y-132938009D02*
X150482588Y-133033247D01*
X150482588Y-133033247D02*
X150482588Y-133271342D01*
X150482588Y-133271342D02*
X150434969Y-133366580D01*
X150434969Y-133366580D02*
X150387350Y-133414200D01*
X150387350Y-133414200D02*
X150292112Y-133461819D01*
X150292112Y-133461819D02*
X150006398Y-133461819D01*
X150006398Y-133461819D02*
X149911160Y-133414200D01*
X149911160Y-133414200D02*
X149863541Y-133366580D01*
X151101636Y-132461819D02*
X151196874Y-132461819D01*
X151196874Y-132461819D02*
X151292112Y-132509438D01*
X151292112Y-132509438D02*
X151339731Y-132557057D01*
X151339731Y-132557057D02*
X151387350Y-132652295D01*
X151387350Y-132652295D02*
X151434969Y-132842771D01*
X151434969Y-132842771D02*
X151434969Y-133080866D01*
X151434969Y-133080866D02*
X151387350Y-133271342D01*
X151387350Y-133271342D02*
X151339731Y-133366580D01*
X151339731Y-133366580D02*
X151292112Y-133414200D01*
X151292112Y-133414200D02*
X151196874Y-133461819D01*
X151196874Y-133461819D02*
X151101636Y-133461819D01*
X151101636Y-133461819D02*
X151006398Y-133414200D01*
X151006398Y-133414200D02*
X150958779Y-133366580D01*
X150958779Y-133366580D02*
X150911160Y-133271342D01*
X150911160Y-133271342D02*
X150863541Y-133080866D01*
X150863541Y-133080866D02*
X150863541Y-132842771D01*
X150863541Y-132842771D02*
X150911160Y-132652295D01*
X150911160Y-132652295D02*
X150958779Y-132557057D01*
X150958779Y-132557057D02*
X151006398Y-132509438D01*
X151006398Y-132509438D02*
X151101636Y-132461819D01*
X137163541Y-132461819D02*
X137782588Y-132461819D01*
X137782588Y-132461819D02*
X137449255Y-132842771D01*
X137449255Y-132842771D02*
X137592112Y-132842771D01*
X137592112Y-132842771D02*
X137687350Y-132890390D01*
X137687350Y-132890390D02*
X137734969Y-132938009D01*
X137734969Y-132938009D02*
X137782588Y-133033247D01*
X137782588Y-133033247D02*
X137782588Y-133271342D01*
X137782588Y-133271342D02*
X137734969Y-133366580D01*
X137734969Y-133366580D02*
X137687350Y-133414200D01*
X137687350Y-133414200D02*
X137592112Y-133461819D01*
X137592112Y-133461819D02*
X137306398Y-133461819D01*
X137306398Y-133461819D02*
X137211160Y-133414200D01*
X137211160Y-133414200D02*
X137163541Y-133366580D01*
X138687350Y-132461819D02*
X138211160Y-132461819D01*
X138211160Y-132461819D02*
X138163541Y-132938009D01*
X138163541Y-132938009D02*
X138211160Y-132890390D01*
X138211160Y-132890390D02*
X138306398Y-132842771D01*
X138306398Y-132842771D02*
X138544493Y-132842771D01*
X138544493Y-132842771D02*
X138639731Y-132890390D01*
X138639731Y-132890390D02*
X138687350Y-132938009D01*
X138687350Y-132938009D02*
X138734969Y-133033247D01*
X138734969Y-133033247D02*
X138734969Y-133271342D01*
X138734969Y-133271342D02*
X138687350Y-133366580D01*
X138687350Y-133366580D02*
X138639731Y-133414200D01*
X138639731Y-133414200D02*
X138544493Y-133461819D01*
X138544493Y-133461819D02*
X138306398Y-133461819D01*
X138306398Y-133461819D02*
X138211160Y-133414200D01*
X138211160Y-133414200D02*
X138163541Y-133366580D01*
X124887350Y-132795152D02*
X124887350Y-133461819D01*
X124649255Y-132414200D02*
X124411160Y-133128485D01*
X124411160Y-133128485D02*
X125030207Y-133128485D01*
X125601636Y-132461819D02*
X125696874Y-132461819D01*
X125696874Y-132461819D02*
X125792112Y-132509438D01*
X125792112Y-132509438D02*
X125839731Y-132557057D01*
X125839731Y-132557057D02*
X125887350Y-132652295D01*
X125887350Y-132652295D02*
X125934969Y-132842771D01*
X125934969Y-132842771D02*
X125934969Y-133080866D01*
X125934969Y-133080866D02*
X125887350Y-133271342D01*
X125887350Y-133271342D02*
X125839731Y-133366580D01*
X125839731Y-133366580D02*
X125792112Y-133414200D01*
X125792112Y-133414200D02*
X125696874Y-133461819D01*
X125696874Y-133461819D02*
X125601636Y-133461819D01*
X125601636Y-133461819D02*
X125506398Y-133414200D01*
X125506398Y-133414200D02*
X125458779Y-133366580D01*
X125458779Y-133366580D02*
X125411160Y-133271342D01*
X125411160Y-133271342D02*
X125363541Y-133080866D01*
X125363541Y-133080866D02*
X125363541Y-132842771D01*
X125363541Y-132842771D02*
X125411160Y-132652295D01*
X125411160Y-132652295D02*
X125458779Y-132557057D01*
X125458779Y-132557057D02*
X125506398Y-132509438D01*
X125506398Y-132509438D02*
X125601636Y-132461819D01*
D11*
X122931632Y-126492000D02*
G75*
G02*
X122432368Y-126492000I-249632J0D01*
G01*
X122432368Y-126492000D02*
G75*
G02*
X122931632Y-126492000I249632J0D01*
G01*
X124201632Y-64262000D02*
G75*
G02*
X123702368Y-64262000I-249632J0D01*
G01*
X123702368Y-64262000D02*
G75*
G02*
X124201632Y-64262000I249632J0D01*
G01*
X122931632Y-153162000D02*
G75*
G02*
X122432368Y-153162000I-249632J0D01*
G01*
X122432368Y-153162000D02*
G75*
G02*
X122931632Y-153162000I249632J0D01*
G01*
X122931632Y-101092000D02*
G75*
G02*
X122432368Y-101092000I-249632J0D01*
G01*
X122432368Y-101092000D02*
G75*
G02*
X122931632Y-101092000I249632J0D01*
G01*
D10*
X124887350Y-94095152D02*
X124887350Y-94761819D01*
X124649255Y-93714200D02*
X124411160Y-94428485D01*
X124411160Y-94428485D02*
X125030207Y-94428485D01*
X125601636Y-93761819D02*
X125696874Y-93761819D01*
X125696874Y-93761819D02*
X125792112Y-93809438D01*
X125792112Y-93809438D02*
X125839731Y-93857057D01*
X125839731Y-93857057D02*
X125887350Y-93952295D01*
X125887350Y-93952295D02*
X125934969Y-94142771D01*
X125934969Y-94142771D02*
X125934969Y-94380866D01*
X125934969Y-94380866D02*
X125887350Y-94571342D01*
X125887350Y-94571342D02*
X125839731Y-94666580D01*
X125839731Y-94666580D02*
X125792112Y-94714200D01*
X125792112Y-94714200D02*
X125696874Y-94761819D01*
X125696874Y-94761819D02*
X125601636Y-94761819D01*
X125601636Y-94761819D02*
X125506398Y-94714200D01*
X125506398Y-94714200D02*
X125458779Y-94666580D01*
X125458779Y-94666580D02*
X125411160Y-94571342D01*
X125411160Y-94571342D02*
X125363541Y-94380866D01*
X125363541Y-94380866D02*
X125363541Y-94142771D01*
X125363541Y-94142771D02*
X125411160Y-93952295D01*
X125411160Y-93952295D02*
X125458779Y-93857057D01*
X125458779Y-93857057D02*
X125506398Y-93809438D01*
X125506398Y-93809438D02*
X125601636Y-93761819D01*
D12*
%TO.C,J9*%
X161992000Y-70552000D02*
X163322000Y-70552000D01*
X161992000Y-71882000D02*
X161992000Y-70552000D01*
X161992000Y-73152000D02*
X161992000Y-75752000D01*
X161992000Y-73152000D02*
X164652000Y-73152000D01*
X161992000Y-75752000D02*
X164652000Y-75752000D01*
X164652000Y-73152000D02*
X164652000Y-75752000D01*
%TO.C,J8*%
X157342000Y-70552000D02*
X158672000Y-70552000D01*
X157342000Y-71882000D02*
X157342000Y-70552000D01*
X157342000Y-73152000D02*
X157342000Y-75752000D01*
X157342000Y-73152000D02*
X160002000Y-73152000D01*
X157342000Y-75752000D02*
X160002000Y-75752000D01*
X160002000Y-73152000D02*
X160002000Y-75752000D01*
%TO.C,J7*%
X152692000Y-70552000D02*
X154022000Y-70552000D01*
X152692000Y-71882000D02*
X152692000Y-70552000D01*
X152692000Y-73152000D02*
X152692000Y-75752000D01*
X152692000Y-73152000D02*
X155352000Y-73152000D01*
X152692000Y-75752000D02*
X155352000Y-75752000D01*
X155352000Y-73152000D02*
X155352000Y-75752000D01*
%TO.C,J6*%
X122622000Y-156912000D02*
X123952000Y-156912000D01*
X122622000Y-158242000D02*
X122622000Y-156912000D01*
X122622000Y-159512000D02*
X122622000Y-162112000D01*
X122622000Y-159512000D02*
X125282000Y-159512000D01*
X122622000Y-162112000D02*
X125282000Y-162112000D01*
X125282000Y-159512000D02*
X125282000Y-162112000D01*
%TO.C,J5*%
X123892000Y-83252000D02*
X125222000Y-83252000D01*
X123892000Y-84582000D02*
X123892000Y-83252000D01*
X123892000Y-85852000D02*
X123892000Y-88452000D01*
X123892000Y-85852000D02*
X126552000Y-85852000D01*
X123892000Y-88452000D02*
X126552000Y-88452000D01*
X126552000Y-85852000D02*
X126552000Y-88452000D01*
%TO.C,J4*%
X173422000Y-156912000D02*
X174752000Y-156912000D01*
X173422000Y-158242000D02*
X173422000Y-156912000D01*
X173422000Y-159512000D02*
X173422000Y-162112000D01*
X173422000Y-159512000D02*
X176082000Y-159512000D01*
X173422000Y-162112000D02*
X176082000Y-162112000D01*
X176082000Y-159512000D02*
X176082000Y-162112000D01*
%TO.C,SOCKET2*%
X123832000Y-136482000D02*
X123832000Y-154602000D01*
X123832000Y-154602000D02*
X174872000Y-154602000D01*
X123892000Y-139482000D02*
X123892000Y-144542000D01*
X123892000Y-146542000D02*
X123892000Y-151602000D01*
X123892000Y-151602000D02*
X174812000Y-151602000D01*
X174812000Y-139482000D02*
X123892000Y-139482000D01*
X174812000Y-151602000D02*
X174812000Y-139482000D01*
X174872000Y-136482000D02*
X123832000Y-136482000D01*
X174872000Y-154602000D02*
X174872000Y-136482000D01*
X123892000Y-144542000D02*
G75*
G02*
X123892000Y-146542000I0J-1000000D01*
G01*
%TO.C,SOCKET1*%
X123897000Y-117877000D02*
G75*
G02*
X123897000Y-119877000I0J-1000000D01*
G01*
X174877000Y-127937000D02*
X174877000Y-109817000D01*
X174877000Y-109817000D02*
X123837000Y-109817000D01*
X174817000Y-124937000D02*
X174817000Y-112817000D01*
X174817000Y-112817000D02*
X123897000Y-112817000D01*
X123897000Y-124937000D02*
X174817000Y-124937000D01*
X123897000Y-119877000D02*
X123897000Y-124937000D01*
X123897000Y-112817000D02*
X123897000Y-117877000D01*
X123837000Y-127937000D02*
X174877000Y-127937000D01*
X123837000Y-109817000D02*
X123837000Y-127937000D01*
%TO.C,J1*%
X172152000Y-84582000D02*
X172152000Y-66742000D01*
X174812000Y-66742000D02*
X172152000Y-66742000D01*
X174812000Y-84582000D02*
X172152000Y-84582000D01*
X174812000Y-84582000D02*
X174812000Y-66742000D01*
X174812000Y-85852000D02*
X174812000Y-87182000D01*
X174812000Y-87182000D02*
X173482000Y-87182000D01*
%TO.C,J3*%
X123892000Y-97977000D02*
X123892000Y-96647000D01*
X125222000Y-97977000D02*
X123892000Y-97977000D01*
X126492000Y-95317000D02*
X174812000Y-95317000D01*
X126492000Y-97977000D02*
X126492000Y-95317000D01*
X126492000Y-97977000D02*
X174812000Y-97977000D01*
X174812000Y-97977000D02*
X174812000Y-95317000D01*
%TO.C,J_EXT2*%
X125162000Y-60392000D02*
X160842000Y-60392000D01*
X125162000Y-62992000D02*
X125162000Y-60392000D01*
X125162000Y-65592000D02*
X125162000Y-64262000D01*
X126492000Y-65592000D02*
X125162000Y-65592000D01*
X127762000Y-62992000D02*
X125162000Y-62992000D01*
X127762000Y-65592000D02*
X127762000Y-62992000D01*
X127762000Y-65592000D02*
X160842000Y-65592000D01*
X160842000Y-65592000D02*
X160842000Y-60392000D01*
D13*
%TO.C,J_EXT1*%
X133959600Y-69624611D02*
X133959600Y-72020557D01*
X134905548Y-69624611D02*
X133959600Y-69624611D01*
X144424400Y-69624611D02*
X143478452Y-69624611D01*
X144424400Y-72020557D02*
X144424400Y-69624611D01*
D14*
X135392000Y-73929611D02*
G75*
G02*
X135192000Y-73929611I-100000J0D01*
G01*
X135192000Y-73929611D02*
G75*
G02*
X135392000Y-73929611I100000J0D01*
G01*
%TO.C,CONN1*%
D15*
X125442500Y-162814000D02*
G75*
G02*
X125001500Y-162814000I-220500J0D01*
G01*
X125001500Y-162814000D02*
G75*
G02*
X125442500Y-162814000I220500J0D01*
G01*
D12*
%TO.C,J2*%
X123892000Y-102422000D02*
X123892000Y-101092000D01*
X125222000Y-102422000D02*
X123892000Y-102422000D01*
X126492000Y-99762000D02*
X174812000Y-99762000D01*
X126492000Y-102422000D02*
X126492000Y-99762000D01*
X126492000Y-102422000D02*
X174812000Y-102422000D01*
X174812000Y-102422000D02*
X174812000Y-99762000D01*
%TD*%
M02*
