M48
; DRILL file {KiCad 8.0.4-8.0.4-0~ubuntu24.04.1} date 2024-08-18T17:45:00-0700
; FORMAT={-:-/ absolute / inch / decimal}
; #@! TF.CreationDate,2024-08-18T17:45:00-07:00
; #@! TF.GenerationSoftware,Kicad,Pcbnew,8.0.4-8.0.4-0~ubuntu24.04.1
; #@! TF.FileFunction,Plated,1,2,PTH
FMAT,2
INCH
; #@! TA.AperFunction,Plated,PTH,ViaDrill
T1C0.0197
; #@! TA.AperFunction,Plated,PTH,ComponentDrill
T2C0.0315
; #@! TA.AperFunction,Plated,PTH,ComponentDrill
T3C0.0394
%
G90
G05
T1
X5.056Y-3.0189
X5.0678Y-2.6808
X5.115Y-3.0189
X5.1308Y-2.6808
X5.1702Y-3.0189
X5.1938Y-2.6808
X5.2253Y-3.0189
X5.2568Y-2.6808
X5.2804Y-3.0189
X5.3237Y-2.6808
X5.3355Y-3.0189
X5.3867Y-2.6808
X5.3867Y-3.0189
X5.4418Y-3.0189
X5.4536Y-2.6808
X5.493Y-3.0189
X5.5206Y-2.6808
X5.5481Y-3.0189
X5.5835Y-2.6808
X5.6032Y-3.0189
X5.6465Y-2.6808
X5.6623Y-3.0189
X5.7174Y-2.6808
X5.7174Y-3.0189
X5.7725Y-3.0189
X5.7883Y-2.6808
X5.8552Y-2.6808
T2
X4.93Y-5.43
X4.93Y-6.03
X4.9302Y-4.3802
X4.9302Y-4.9802
X5.03Y-5.43
X5.03Y-6.03
X5.0302Y-4.3802
X5.0302Y-4.9802
X5.13Y-5.43
X5.13Y-6.03
X5.1302Y-4.3802
X5.1302Y-4.9802
X5.23Y-5.43
X5.23Y-6.03
X5.2302Y-4.3802
X5.2302Y-4.9802
X5.33Y-5.43
X5.33Y-6.03
X5.3302Y-4.3802
X5.3302Y-4.9802
X5.43Y-5.43
X5.43Y-6.03
X5.4302Y-4.3802
X5.4302Y-4.9802
X5.53Y-5.43
X5.53Y-6.03
X5.5302Y-4.3802
X5.5302Y-4.9802
X5.63Y-5.43
X5.63Y-6.03
X5.6302Y-4.3802
X5.6302Y-4.9802
X5.73Y-5.43
X5.73Y-6.03
X5.7302Y-4.3802
X5.7302Y-4.9802
X5.83Y-5.43
X5.83Y-6.03
X5.8302Y-4.3802
X5.8302Y-4.9802
X5.93Y-5.43
X5.93Y-6.03
X5.9302Y-4.3802
X5.9302Y-4.9802
X6.03Y-5.43
X6.03Y-6.03
X6.0302Y-4.3802
X6.0302Y-4.9802
X6.13Y-5.43
X6.13Y-6.03
X6.1302Y-4.3802
X6.1302Y-4.9802
X6.23Y-5.43
X6.23Y-6.03
X6.2302Y-4.3802
X6.2302Y-4.9802
X6.33Y-5.43
X6.33Y-6.03
X6.3302Y-4.3802
X6.3302Y-4.9802
X6.43Y-5.43
X6.43Y-6.03
X6.4302Y-4.3802
X6.4302Y-4.9802
X6.53Y-5.43
X6.53Y-6.03
X6.5302Y-4.3802
X6.5302Y-4.9802
X6.63Y-5.43
X6.63Y-6.03
X6.6302Y-4.3802
X6.6302Y-4.9802
X6.73Y-5.43
X6.73Y-6.03
X6.7302Y-4.3802
X6.7302Y-4.9802
X6.83Y-5.43
X6.83Y-6.03
X6.8302Y-4.3802
X6.8302Y-4.9802
T3
X4.88Y-6.23
X4.88Y-6.33
X4.93Y-3.33
X4.93Y-3.43
X4.93Y-3.805
X4.93Y-3.98
X4.93Y-6.48
X4.93Y-6.58
X4.98Y-2.43
X4.98Y-2.53
X5.03Y-3.805
X5.03Y-3.98
X5.03Y-6.48
X5.03Y-6.58
X5.08Y-2.43
X5.08Y-2.53
X5.13Y-3.805
X5.13Y-3.98
X5.13Y-6.48
X5.13Y-6.58
X5.18Y-2.43
X5.18Y-2.53
X5.23Y-3.805
X5.23Y-3.98
X5.23Y-6.48
X5.23Y-6.58
X5.28Y-2.43
X5.28Y-2.53
X5.33Y-3.805
X5.33Y-3.98
X5.33Y-6.48
X5.33Y-6.58
X5.38Y-2.43
X5.38Y-2.53
X5.43Y-3.805
X5.43Y-3.98
X5.43Y-6.48
X5.43Y-6.58
X5.48Y-2.43
X5.48Y-2.53
X5.53Y-3.805
X5.53Y-3.98
X5.53Y-6.48
X5.53Y-6.58
X5.58Y-2.43
X5.58Y-2.53
X5.63Y-3.805
X5.63Y-3.98
X5.63Y-6.48
X5.63Y-6.58
X5.68Y-2.43
X5.68Y-2.53
X5.73Y-3.805
X5.73Y-3.98
X5.73Y-6.48
X5.73Y-6.58
X5.78Y-2.43
X5.78Y-2.53
X5.83Y-3.805
X5.83Y-3.98
X5.83Y-6.48
X5.83Y-6.58
X5.88Y-2.43
X5.88Y-2.53
X5.93Y-3.805
X5.93Y-3.98
X5.93Y-6.48
X5.93Y-6.58
X5.98Y-2.43
X5.98Y-2.53
X6.03Y-3.805
X6.03Y-3.98
X6.03Y-6.48
X6.03Y-6.58
X6.0639Y-2.83
X6.0639Y-2.93
X6.08Y-2.43
X6.08Y-2.53
X6.13Y-3.805
X6.13Y-3.98
X6.13Y-6.48
X6.13Y-6.58
X6.18Y-2.43
X6.18Y-2.53
X6.23Y-3.805
X6.23Y-3.98
X6.23Y-6.48
X6.23Y-6.58
X6.2469Y-2.83
X6.2469Y-2.93
X6.28Y-2.43
X6.28Y-2.53
X6.33Y-3.805
X6.33Y-3.98
X6.33Y-6.48
X6.33Y-6.58
X6.43Y-2.83
X6.43Y-2.93
X6.43Y-3.805
X6.43Y-3.98
X6.43Y-6.48
X6.43Y-6.58
X6.53Y-3.805
X6.53Y-3.98
X6.53Y-6.48
X6.53Y-6.58
X6.63Y-3.805
X6.63Y-3.98
X6.63Y-6.48
X6.63Y-6.58
X6.73Y-3.805
X6.73Y-3.98
X6.73Y-6.48
X6.73Y-6.58
X6.83Y-2.68
X6.83Y-2.78
X6.83Y-2.88
X6.83Y-2.98
X6.83Y-3.08
X6.83Y-3.18
X6.83Y-3.28
X6.83Y-3.38
X6.83Y-3.805
X6.83Y-3.98
X6.83Y-6.48
X6.83Y-6.58
X6.88Y-6.23
X6.88Y-6.33
M30
