%TF.GenerationSoftware,KiCad,Pcbnew,7.0.9-7.0.9~ubuntu22.04.1*%
%TF.CreationDate,2023-12-28T14:24:16-08:00*%
%TF.ProjectId,devel_gw1,64657665-6c5f-4677-9731-2e6b69636164,rev?*%
%TF.SameCoordinates,Original*%
%TF.FileFunction,Soldermask,Top*%
%TF.FilePolarity,Negative*%
%FSLAX46Y46*%
G04 Gerber Fmt 4.6, Leading zero omitted, Abs format (unit mm)*
G04 Created by KiCad (PCBNEW 7.0.9-7.0.9~ubuntu22.04.1) date 2023-12-28 14:24:16*
%MOMM*%
%LPD*%
G01*
G04 APERTURE LIST*
G04 Aperture macros list*
%AMRoundRect*
0 Rectangle with rounded corners*
0 $1 Rounding radius*
0 $2 $3 $4 $5 $6 $7 $8 $9 X,Y pos of 4 corners*
0 Add a 4 corners polygon primitive as box body*
4,1,4,$2,$3,$4,$5,$6,$7,$8,$9,$2,$3,0*
0 Add four circle primitives for the rounded corners*
1,1,$1+$1,$2,$3*
1,1,$1+$1,$4,$5*
1,1,$1+$1,$6,$7*
1,1,$1+$1,$8,$9*
0 Add four rect primitives between the rounded corners*
20,1,$1+$1,$2,$3,$4,$5,0*
20,1,$1+$1,$4,$5,$6,$7,0*
20,1,$1+$1,$6,$7,$8,$9,0*
20,1,$1+$1,$8,$9,$2,$3,0*%
G04 Aperture macros list end*
%ADD10RoundRect,0.075000X0.575000X-0.075000X0.575000X0.075000X-0.575000X0.075000X-0.575000X-0.075000X0*%
%ADD11RoundRect,0.400000X0.400000X-0.550000X0.400000X0.550000X-0.400000X0.550000X-0.400000X-0.550000X0*%
%ADD12RoundRect,0.150000X-0.825000X-0.150000X0.825000X-0.150000X0.825000X0.150000X-0.825000X0.150000X0*%
%ADD13RoundRect,0.160000X-0.160000X0.197500X-0.160000X-0.197500X0.160000X-0.197500X0.160000X0.197500X0*%
%ADD14RoundRect,0.150000X-0.150000X0.587500X-0.150000X-0.587500X0.150000X-0.587500X0.150000X0.587500X0*%
%ADD15R,1.700000X1.700000*%
%ADD16O,1.700000X1.700000*%
%ADD17RoundRect,0.150000X0.150000X-0.587500X0.150000X0.587500X-0.150000X0.587500X-0.150000X-0.587500X0*%
%ADD18RoundRect,0.250000X0.337500X0.475000X-0.337500X0.475000X-0.337500X-0.475000X0.337500X-0.475000X0*%
%ADD19RoundRect,0.155000X0.212500X0.155000X-0.212500X0.155000X-0.212500X-0.155000X0.212500X-0.155000X0*%
%ADD20RoundRect,0.155000X0.155000X-0.212500X0.155000X0.212500X-0.155000X0.212500X-0.155000X-0.212500X0*%
%ADD21RoundRect,0.160000X0.222500X0.160000X-0.222500X0.160000X-0.222500X-0.160000X0.222500X-0.160000X0*%
%ADD22RoundRect,0.160000X0.197500X0.160000X-0.197500X0.160000X-0.197500X-0.160000X0.197500X-0.160000X0*%
%ADD23RoundRect,0.237500X0.300000X0.237500X-0.300000X0.237500X-0.300000X-0.237500X0.300000X-0.237500X0*%
%ADD24R,0.340000X0.700000*%
%ADD25RoundRect,0.160000X-0.197500X-0.160000X0.197500X-0.160000X0.197500X0.160000X-0.197500X0.160000X0*%
%ADD26R,0.740000X2.400000*%
%ADD27RoundRect,0.250000X-0.475000X0.337500X-0.475000X-0.337500X0.475000X-0.337500X0.475000X0.337500X0*%
%ADD28RoundRect,0.155000X-0.212500X-0.155000X0.212500X-0.155000X0.212500X0.155000X-0.212500X0.155000X0*%
%ADD29R,1.100000X1.300000*%
%ADD30RoundRect,0.150000X0.512500X0.150000X-0.512500X0.150000X-0.512500X-0.150000X0.512500X-0.150000X0*%
%ADD31RoundRect,0.250001X0.849999X-0.462499X0.849999X0.462499X-0.849999X0.462499X-0.849999X-0.462499X0*%
%ADD32RoundRect,0.155000X-0.155000X0.212500X-0.155000X-0.212500X0.155000X-0.212500X0.155000X0.212500X0*%
%ADD33RoundRect,0.108600X-0.103400X1.423400X-0.103400X-1.423400X0.103400X-1.423400X0.103400X1.423400X0*%
%ADD34RoundRect,0.108600X-1.423400X-0.103400X1.423400X-0.103400X1.423400X0.103400X-1.423400X0.103400X0*%
%ADD35RoundRect,0.102000X-3.370000X3.370000X-3.370000X-3.370000X3.370000X-3.370000X3.370000X3.370000X0*%
%ADD36R,0.711200X0.355600*%
%ADD37R,0.558800X0.355600*%
%ADD38R,1.092200X0.406400*%
G04 APERTURE END LIST*
D10*
%TO.C,J_DISPLAY1*%
X159861000Y-90253000D03*
X159861000Y-89753000D03*
X159861000Y-89253000D03*
X159861000Y-88753000D03*
X159861000Y-88253000D03*
X159861000Y-87753000D03*
X159861000Y-87253000D03*
X159861000Y-86753000D03*
X159861000Y-86253000D03*
X159861000Y-85753000D03*
X159854714Y-85257280D03*
X159861000Y-84753000D03*
D11*
X162911000Y-92003000D03*
X162911000Y-83003000D03*
%TD*%
D12*
%TO.C,U7*%
X172400000Y-92690000D03*
X172400000Y-93960000D03*
X172400000Y-95230000D03*
X172400000Y-96500000D03*
X167450000Y-96500000D03*
X167450000Y-95230000D03*
X167450000Y-93960000D03*
X167450000Y-92690000D03*
%TD*%
D13*
%TO.C,R6*%
X136000000Y-95202500D03*
X136000000Y-96397500D03*
%TD*%
D14*
%TO.C,D14*%
X173416000Y-154510500D03*
X171516000Y-154510500D03*
X172466000Y-156385500D03*
%TD*%
D15*
%TO.C,JP1*%
X126500000Y-79900000D03*
D16*
X126500000Y-77360000D03*
%TD*%
D17*
%TO.C,D29*%
X151196000Y-115745500D03*
X153096000Y-115745500D03*
X152146000Y-113870500D03*
%TD*%
D14*
%TO.C,D74*%
X148016000Y-158574500D03*
X146116000Y-158574500D03*
X147066000Y-160449500D03*
%TD*%
D17*
%TO.C,D2*%
X161356000Y-119809500D03*
X163256000Y-119809500D03*
X162306000Y-117934500D03*
%TD*%
D18*
%TO.C,C5*%
X128317500Y-90050000D03*
X126242500Y-90050000D03*
%TD*%
D14*
%TO.C,Q16*%
X142936000Y-130126500D03*
X141036000Y-130126500D03*
X141986000Y-132001500D03*
%TD*%
D17*
%TO.C,D67*%
X171516000Y-127937500D03*
X173416000Y-127937500D03*
X172466000Y-126062500D03*
%TD*%
D19*
%TO.C,C1*%
X132567500Y-80600000D03*
X131432500Y-80600000D03*
%TD*%
D20*
%TO.C,C10*%
X132600000Y-106667500D03*
X132600000Y-105532500D03*
%TD*%
D17*
%TO.C,D4*%
X171516000Y-115745500D03*
X173416000Y-115745500D03*
X172466000Y-113870500D03*
%TD*%
D14*
%TO.C,D64*%
X132776000Y-146382500D03*
X130876000Y-146382500D03*
X131826000Y-148257500D03*
%TD*%
D21*
%TO.C,LED_DONE1*%
X126672500Y-91970000D03*
X125527500Y-91970000D03*
%TD*%
D14*
%TO.C,D76*%
X173416000Y-150446500D03*
X171516000Y-150446500D03*
X172466000Y-152321500D03*
%TD*%
D22*
%TO.C,R11*%
X172997500Y-98300000D03*
X171802500Y-98300000D03*
%TD*%
D14*
%TO.C,D20*%
X153096000Y-158574500D03*
X151196000Y-158574500D03*
X152146000Y-160449500D03*
%TD*%
D19*
%TO.C,C19*%
X148867500Y-78900000D03*
X147732500Y-78900000D03*
%TD*%
D14*
%TO.C,D28*%
X168336000Y-158574500D03*
X166436000Y-158574500D03*
X167386000Y-160449500D03*
%TD*%
D23*
%TO.C,C12*%
X137514500Y-84709000D03*
X135789500Y-84709000D03*
%TD*%
D17*
%TO.C,D79*%
X125796000Y-115745500D03*
X127696000Y-115745500D03*
X126746000Y-113870500D03*
%TD*%
D14*
%TO.C,D32*%
X137729000Y-154510500D03*
X135829000Y-154510500D03*
X136779000Y-156385500D03*
%TD*%
%TO.C,Q33*%
X173416000Y-130126500D03*
X171516000Y-130126500D03*
X172466000Y-132001500D03*
%TD*%
D24*
%TO.C,U6*%
X128551000Y-86733000D03*
X128051000Y-86733000D03*
X127551000Y-86733000D03*
X127551000Y-88233000D03*
X128051000Y-88233000D03*
X128551000Y-88233000D03*
%TD*%
D25*
%TO.C,R13*%
X164302500Y-78700000D03*
X165497500Y-78700000D03*
%TD*%
D26*
%TO.C,J_JTAG1*%
X138440000Y-88300000D03*
X138440000Y-92200000D03*
X137170000Y-88300000D03*
X137170000Y-92200000D03*
X135900000Y-88300000D03*
X135900000Y-92200000D03*
X134630000Y-88300000D03*
X134630000Y-92200000D03*
X133360000Y-88300000D03*
X133360000Y-92200000D03*
X132090000Y-88300000D03*
X132090000Y-92200000D03*
%TD*%
D25*
%TO.C,R16*%
X129002500Y-91800000D03*
X130197500Y-91800000D03*
%TD*%
D17*
%TO.C,D6*%
X161356000Y-115745500D03*
X163256000Y-115745500D03*
X162306000Y-113870500D03*
%TD*%
D14*
%TO.C,Q9*%
X153096000Y-130126500D03*
X151196000Y-130126500D03*
X152146000Y-132001500D03*
%TD*%
%TO.C,Q12*%
X127696000Y-130126500D03*
X125796000Y-130126500D03*
X126746000Y-132001500D03*
%TD*%
D27*
%TO.C,C7*%
X126210000Y-82662500D03*
X126210000Y-84737500D03*
%TD*%
D15*
%TO.C,J2*%
X138900000Y-109775000D03*
D16*
X138900000Y-107235000D03*
%TD*%
D14*
%TO.C,D52*%
X153096000Y-150446500D03*
X151196000Y-150446500D03*
X152146000Y-152321500D03*
%TD*%
D17*
%TO.C,D49*%
X135956000Y-127937500D03*
X137856000Y-127937500D03*
X136906000Y-126062500D03*
%TD*%
D14*
%TO.C,Q30*%
X153096000Y-134190500D03*
X151196000Y-134190500D03*
X152146000Y-136065500D03*
%TD*%
D28*
%TO.C,C2*%
X129132500Y-80600000D03*
X130267500Y-80600000D03*
%TD*%
D14*
%TO.C,Q23*%
X142936000Y-134190500D03*
X141036000Y-134190500D03*
X141986000Y-136065500D03*
%TD*%
D25*
%TO.C,R15*%
X125602500Y-105200000D03*
X126797500Y-105200000D03*
%TD*%
D14*
%TO.C,D26*%
X127696000Y-158574500D03*
X125796000Y-158574500D03*
X126746000Y-160449500D03*
%TD*%
D25*
%TO.C,R2*%
X158902500Y-78400000D03*
X160097500Y-78400000D03*
%TD*%
D14*
%TO.C,Q29*%
X158176000Y-138254500D03*
X156276000Y-138254500D03*
X157226000Y-140129500D03*
%TD*%
%TO.C,Q37*%
X173416000Y-138254500D03*
X171516000Y-138254500D03*
X172466000Y-140129500D03*
%TD*%
D17*
%TO.C,D31*%
X135956000Y-123873500D03*
X137856000Y-123873500D03*
X136906000Y-121998500D03*
%TD*%
D14*
%TO.C,Q3*%
X163256000Y-142318500D03*
X161356000Y-142318500D03*
X162306000Y-144193500D03*
%TD*%
%TO.C,Q22*%
X168336000Y-142318500D03*
X166436000Y-142318500D03*
X167386000Y-144193500D03*
%TD*%
D28*
%TO.C,C9*%
X153932500Y-96300000D03*
X155067500Y-96300000D03*
%TD*%
D14*
%TO.C,Q8*%
X132776000Y-138254500D03*
X130876000Y-138254500D03*
X131826000Y-140129500D03*
%TD*%
D29*
%TO.C,X1*%
X140875000Y-94750000D03*
X140875000Y-96850000D03*
X142525000Y-96850000D03*
X142525000Y-94750000D03*
%TD*%
D17*
%TO.C,D59*%
X156276000Y-119809500D03*
X158176000Y-119809500D03*
X157226000Y-117934500D03*
%TD*%
D30*
%TO.C,U3*%
X130702500Y-107650000D03*
X130702500Y-106700000D03*
X130702500Y-105750000D03*
X128427500Y-105750000D03*
X128427500Y-107650000D03*
%TD*%
D14*
%TO.C,Q25*%
X153096000Y-138254500D03*
X151196000Y-138254500D03*
X152146000Y-140129500D03*
%TD*%
D17*
%TO.C,D65*%
X146116000Y-119809500D03*
X148016000Y-119809500D03*
X147066000Y-117934500D03*
%TD*%
D14*
%TO.C,Q14*%
X153096000Y-142318500D03*
X151196000Y-142318500D03*
X152146000Y-144193500D03*
%TD*%
D17*
%TO.C,D73*%
X146116000Y-127937500D03*
X148016000Y-127937500D03*
X147066000Y-126062500D03*
%TD*%
D28*
%TO.C,C14*%
X170865000Y-91300000D03*
X172000000Y-91300000D03*
%TD*%
D14*
%TO.C,Q19*%
X142936000Y-142318500D03*
X141036000Y-142318500D03*
X141986000Y-144193500D03*
%TD*%
%TO.C,D68*%
X173416000Y-158574500D03*
X171516000Y-158574500D03*
X172466000Y-160449500D03*
%TD*%
D31*
%TO.C,L1*%
X130630000Y-85142500D03*
X130630000Y-82817500D03*
%TD*%
D32*
%TO.C,C21*%
X157700000Y-87632500D03*
X157700000Y-88767500D03*
%TD*%
D25*
%TO.C,R8*%
X164302500Y-80000000D03*
X165497500Y-80000000D03*
%TD*%
D14*
%TO.C,Q6*%
X173416000Y-134190500D03*
X171516000Y-134190500D03*
X172466000Y-136065500D03*
%TD*%
%TO.C,Q18*%
X163256000Y-134190500D03*
X161356000Y-134190500D03*
X162306000Y-136065500D03*
%TD*%
%TO.C,Q41*%
X127696000Y-138254500D03*
X125796000Y-138254500D03*
X126746000Y-140129500D03*
%TD*%
D32*
%TO.C,C11*%
X141800000Y-81632500D03*
X141800000Y-82767500D03*
%TD*%
D14*
%TO.C,Q1*%
X163256000Y-138254500D03*
X161356000Y-138254500D03*
X162306000Y-140129500D03*
%TD*%
%TO.C,Q21*%
X163256000Y-130126500D03*
X161356000Y-130126500D03*
X162306000Y-132001500D03*
%TD*%
%TO.C,D34*%
X142936000Y-158574500D03*
X141036000Y-158574500D03*
X141986000Y-160449500D03*
%TD*%
D20*
%TO.C,C20*%
X144100000Y-81567500D03*
X144100000Y-80432500D03*
%TD*%
D17*
%TO.C,D63*%
X130876000Y-115745500D03*
X132776000Y-115745500D03*
X131826000Y-113870500D03*
%TD*%
D14*
%TO.C,D42*%
X142936000Y-150446500D03*
X141036000Y-150446500D03*
X141986000Y-152321500D03*
%TD*%
%TO.C,Q7*%
X148016000Y-142318500D03*
X146116000Y-142318500D03*
X147066000Y-144193500D03*
%TD*%
%TO.C,Q20*%
X142936000Y-138254500D03*
X141036000Y-138254500D03*
X141986000Y-140129500D03*
%TD*%
D17*
%TO.C,D55*%
X125796000Y-123873500D03*
X127696000Y-123873500D03*
X126746000Y-121998500D03*
%TD*%
D14*
%TO.C,D70*%
X158176000Y-154510500D03*
X156276000Y-154510500D03*
X157226000Y-156385500D03*
%TD*%
%TO.C,Q11*%
X137856000Y-142318500D03*
X135956000Y-142318500D03*
X136906000Y-144193500D03*
%TD*%
%TO.C,Q38*%
X148016000Y-134190500D03*
X146116000Y-134190500D03*
X147066000Y-136065500D03*
%TD*%
D25*
%TO.C,R14*%
X125602500Y-106200000D03*
X126797500Y-106200000D03*
%TD*%
D17*
%TO.C,D69*%
X156276000Y-123873500D03*
X158176000Y-123873500D03*
X157226000Y-121998500D03*
%TD*%
D14*
%TO.C,D30*%
X153096000Y-146382500D03*
X151196000Y-146382500D03*
X152146000Y-148257500D03*
%TD*%
D28*
%TO.C,C3*%
X125617500Y-107900000D03*
X126752500Y-107900000D03*
%TD*%
D17*
%TO.C,D47*%
X141036000Y-123873500D03*
X142936000Y-123873500D03*
X141986000Y-121998500D03*
%TD*%
D28*
%TO.C,C15*%
X155532500Y-92900000D03*
X156667500Y-92900000D03*
%TD*%
D14*
%TO.C,Q39*%
X127696000Y-142318500D03*
X125796000Y-142318500D03*
X126746000Y-144193500D03*
%TD*%
D25*
%TO.C,R7*%
X171202500Y-111000000D03*
X172397500Y-111000000D03*
%TD*%
D17*
%TO.C,D15*%
X146116000Y-115745500D03*
X148016000Y-115745500D03*
X147066000Y-113870500D03*
%TD*%
%TO.C,D51*%
X151196000Y-119809500D03*
X153096000Y-119809500D03*
X152146000Y-117934500D03*
%TD*%
D28*
%TO.C,C23*%
X154932500Y-81600000D03*
X156067500Y-81600000D03*
%TD*%
D20*
%TO.C,C17*%
X140800000Y-93167500D03*
X140800000Y-92032500D03*
%TD*%
D17*
%TO.C,D37*%
X161356000Y-123873500D03*
X163256000Y-123873500D03*
X162306000Y-121998500D03*
%TD*%
D14*
%TO.C,Q32*%
X148016000Y-138254500D03*
X146116000Y-138254500D03*
X147066000Y-140129500D03*
%TD*%
%TO.C,Q28*%
X137856000Y-138254500D03*
X135956000Y-138254500D03*
X136906000Y-140129500D03*
%TD*%
%TO.C,D60*%
X158176000Y-150446500D03*
X156276000Y-150446500D03*
X157226000Y-152321500D03*
%TD*%
%TO.C,D44*%
X163256000Y-158574500D03*
X161356000Y-158574500D03*
X162306000Y-160449500D03*
%TD*%
%TO.C,D38*%
X163256000Y-154510500D03*
X161356000Y-154510500D03*
X162306000Y-156385500D03*
%TD*%
%TO.C,D46*%
X168336000Y-146382500D03*
X166436000Y-146382500D03*
X167386000Y-148257500D03*
%TD*%
%TO.C,D54*%
X168336000Y-154510500D03*
X166436000Y-154510500D03*
X167386000Y-156385500D03*
%TD*%
%TO.C,D9*%
X132776000Y-158574500D03*
X130876000Y-158574500D03*
X131826000Y-160449500D03*
%TD*%
%TO.C,Q26*%
X168336000Y-134190500D03*
X166436000Y-134190500D03*
X167386000Y-136065500D03*
%TD*%
%TO.C,Q35*%
X132776000Y-134190500D03*
X130876000Y-134190500D03*
X131826000Y-136065500D03*
%TD*%
%TO.C,D62*%
X153096000Y-154510500D03*
X151196000Y-154510500D03*
X152146000Y-156385500D03*
%TD*%
%TO.C,Q17*%
X168336000Y-138254500D03*
X166436000Y-138254500D03*
X167386000Y-140129500D03*
%TD*%
D17*
%TO.C,U2*%
X129850000Y-79037500D03*
X131750000Y-79037500D03*
X130800000Y-77162500D03*
%TD*%
D14*
%TO.C,Q34*%
X158176000Y-134190500D03*
X156276000Y-134190500D03*
X157226000Y-136065500D03*
%TD*%
D12*
%TO.C,U4*%
X167565000Y-78505000D03*
X167565000Y-79775000D03*
X167565000Y-81045000D03*
X167565000Y-82315000D03*
X172515000Y-82315000D03*
X172515000Y-81045000D03*
X172515000Y-79775000D03*
X172515000Y-78505000D03*
%TD*%
D33*
%TO.C,U1*%
X153425000Y-81845500D03*
X153025000Y-81845500D03*
X152625000Y-81845500D03*
X152225000Y-81845500D03*
X151825000Y-81845500D03*
X151425000Y-81845500D03*
X151025000Y-81845500D03*
X150625000Y-81845500D03*
X150225000Y-81845500D03*
X149825000Y-81845500D03*
X149425000Y-81845500D03*
X149025000Y-81845500D03*
X148625000Y-81845500D03*
X148225000Y-81845500D03*
X147825000Y-81845500D03*
X147425000Y-81845500D03*
X147025000Y-81845500D03*
X146625000Y-81845500D03*
X146225000Y-81845500D03*
X145825000Y-81845500D03*
X145425000Y-81845500D03*
X145025000Y-81845500D03*
D34*
X143290000Y-83580500D03*
X143290000Y-83980500D03*
X143290000Y-84380500D03*
X143290000Y-84780500D03*
X143290000Y-85180500D03*
X143290000Y-85580500D03*
X143290000Y-85980500D03*
X143290000Y-86380500D03*
X143290000Y-86780500D03*
X143290000Y-87180500D03*
X143290000Y-87580500D03*
X143290000Y-87980500D03*
X143290000Y-88380500D03*
X143290000Y-88780500D03*
X143290000Y-89180500D03*
X143290000Y-89580500D03*
X143290000Y-89980500D03*
X143290000Y-90380500D03*
X143290000Y-90780500D03*
X143290000Y-91180500D03*
X143290000Y-91580500D03*
X143290000Y-91980500D03*
D33*
X145025000Y-93715500D03*
X145425000Y-93715500D03*
X145825000Y-93715500D03*
X146225000Y-93715500D03*
X146625000Y-93715500D03*
X147025000Y-93715500D03*
X147425000Y-93715500D03*
X147825000Y-93715500D03*
X148225000Y-93715500D03*
X148625000Y-93715500D03*
X149025000Y-93715500D03*
X149425000Y-93715500D03*
X149825000Y-93715500D03*
X150225000Y-93715500D03*
X150625000Y-93715500D03*
X151025000Y-93715500D03*
X151425000Y-93715500D03*
X151825000Y-93715500D03*
X152225000Y-93715500D03*
X152625000Y-93715500D03*
X153025000Y-93715500D03*
X153425000Y-93715500D03*
D34*
X155160000Y-91980500D03*
X155160000Y-91580500D03*
X155160000Y-91180500D03*
X155160000Y-90780500D03*
X155160000Y-90380500D03*
X155160000Y-89980500D03*
X155160000Y-89580500D03*
X155160000Y-89180500D03*
X155160000Y-88780500D03*
X155160000Y-88380500D03*
X155160000Y-87980500D03*
X155160000Y-87580500D03*
X155160000Y-87180500D03*
X155160000Y-86780500D03*
X155160000Y-86380500D03*
X155160000Y-85980500D03*
X155160000Y-85580500D03*
X155160000Y-85180500D03*
X155160000Y-84780500D03*
X155160000Y-84380500D03*
X155160000Y-83980500D03*
X155160000Y-83580500D03*
D35*
X149225000Y-87780500D03*
%TD*%
D14*
%TO.C,D22*%
X158176000Y-146382500D03*
X156276000Y-146382500D03*
X157226000Y-148257500D03*
%TD*%
D17*
%TO.C,D13*%
X171516000Y-123873500D03*
X173416000Y-123873500D03*
X172466000Y-121998500D03*
%TD*%
%TO.C,D75*%
X171516000Y-119809500D03*
X173416000Y-119809500D03*
X172466000Y-117934500D03*
%TD*%
%TO.C,D33*%
X141036000Y-127937500D03*
X142936000Y-127937500D03*
X141986000Y-126062500D03*
%TD*%
D32*
%TO.C,C18*%
X144072500Y-94192500D03*
X144072500Y-95327500D03*
%TD*%
D14*
%TO.C,D5*%
X173416000Y-146382500D03*
X171516000Y-146382500D03*
X172466000Y-148257500D03*
%TD*%
%TO.C,D7*%
X163256000Y-146382500D03*
X161356000Y-146382500D03*
X162306000Y-148257500D03*
%TD*%
%TO.C,D12*%
X158176000Y-158574500D03*
X156276000Y-158574500D03*
X157226000Y-160449500D03*
%TD*%
D17*
%TO.C,D43*%
X161356000Y-127937500D03*
X163256000Y-127937500D03*
X162306000Y-126062500D03*
%TD*%
D14*
%TO.C,Q4*%
X132776000Y-130126500D03*
X130876000Y-130126500D03*
X131826000Y-132001500D03*
%TD*%
%TO.C,D18*%
X132776000Y-150446500D03*
X130876000Y-150446500D03*
X131826000Y-152321500D03*
%TD*%
D13*
%TO.C,R10*%
X173100000Y-90002500D03*
X173100000Y-91197500D03*
%TD*%
D22*
%TO.C,R3*%
X160097500Y-79500000D03*
X158902500Y-79500000D03*
%TD*%
D15*
%TO.C,JP4*%
X135000000Y-107225000D03*
D16*
X135000000Y-109765000D03*
%TD*%
D17*
%TO.C,D39*%
X141036000Y-115745500D03*
X142936000Y-115745500D03*
X141986000Y-113870500D03*
%TD*%
D14*
%TO.C,D80*%
X127696000Y-146382500D03*
X125796000Y-146382500D03*
X126746000Y-148257500D03*
%TD*%
D17*
%TO.C,D11*%
X156276000Y-127937500D03*
X158176000Y-127937500D03*
X157226000Y-126062500D03*
%TD*%
D14*
%TO.C,D48*%
X142936000Y-154510500D03*
X141036000Y-154510500D03*
X141986000Y-156385500D03*
%TD*%
%TO.C,Q24*%
X137856000Y-130126500D03*
X135956000Y-130126500D03*
X136906000Y-132001500D03*
%TD*%
%TO.C,Q15*%
X137856000Y-134190500D03*
X135956000Y-134190500D03*
X136906000Y-136065500D03*
%TD*%
D28*
%TO.C,C16*%
X164465000Y-81332500D03*
X165600000Y-81332500D03*
%TD*%
D32*
%TO.C,C13*%
X149900000Y-96032500D03*
X149900000Y-97167500D03*
%TD*%
D17*
%TO.C,D35*%
X166436000Y-119809500D03*
X168336000Y-119809500D03*
X167386000Y-117934500D03*
%TD*%
D15*
%TO.C,JP3*%
X135160000Y-82100000D03*
D16*
X137700000Y-82100000D03*
%TD*%
D17*
%TO.C,D77*%
X146116000Y-123873500D03*
X148016000Y-123873500D03*
X147066000Y-121998500D03*
%TD*%
D14*
%TO.C,Q2*%
X173416000Y-142318500D03*
X171516000Y-142318500D03*
X172466000Y-144193500D03*
%TD*%
%TO.C,D36*%
X168336000Y-150446500D03*
X166436000Y-150446500D03*
X167386000Y-152321500D03*
%TD*%
%TO.C,D50*%
X137856000Y-158574500D03*
X135956000Y-158574500D03*
X136906000Y-160449500D03*
%TD*%
%TO.C,D40*%
X142936000Y-146382500D03*
X141036000Y-146382500D03*
X141986000Y-148257500D03*
%TD*%
D17*
%TO.C,D21*%
X156276000Y-115745500D03*
X158176000Y-115745500D03*
X157226000Y-113870500D03*
%TD*%
D15*
%TO.C,JP2*%
X127025000Y-110400000D03*
D16*
X129565000Y-110400000D03*
%TD*%
D22*
%TO.C,R1*%
X126697500Y-93000000D03*
X125502500Y-93000000D03*
%TD*%
D14*
%TO.C,Q27*%
X127696000Y-134190500D03*
X125796000Y-134190500D03*
X126746000Y-136065500D03*
%TD*%
%TO.C,D56*%
X127696000Y-154510500D03*
X125796000Y-154510500D03*
X126746000Y-156385500D03*
%TD*%
D17*
%TO.C,D23*%
X135956000Y-115745500D03*
X137856000Y-115745500D03*
X136906000Y-113870500D03*
%TD*%
D27*
%TO.C,C8*%
X128197000Y-82962500D03*
X128197000Y-85037500D03*
%TD*%
D14*
%TO.C,D10*%
X127696000Y-150446500D03*
X125796000Y-150446500D03*
X126746000Y-152321500D03*
%TD*%
D15*
%TO.C,J_EXT2*%
X126190000Y-102430000D03*
D16*
X126190000Y-99890000D03*
X128730000Y-102430000D03*
X128730000Y-99890000D03*
X131270000Y-102430000D03*
X131270000Y-99890000D03*
X133810000Y-102430000D03*
X133810000Y-99890000D03*
X136350000Y-102430000D03*
X136350000Y-99890000D03*
X138890000Y-102430000D03*
X138890000Y-99890000D03*
X141430000Y-102430000D03*
X141430000Y-99890000D03*
X143970000Y-102430000D03*
X143970000Y-99890000D03*
X146510000Y-102430000D03*
X146510000Y-99890000D03*
X149050000Y-102430000D03*
X149050000Y-99890000D03*
X151590000Y-102430000D03*
X151590000Y-99890000D03*
X154130000Y-102430000D03*
X154130000Y-99890000D03*
X156670000Y-102430000D03*
X156670000Y-99890000D03*
X159210000Y-102430000D03*
X159210000Y-99890000D03*
%TD*%
D36*
%TO.C,J_EXT1*%
X172290889Y-108910000D03*
D37*
X169275879Y-108610000D03*
D36*
X172290889Y-108310001D03*
D37*
X169275879Y-108009999D03*
D36*
X172290889Y-107710000D03*
D37*
X169275879Y-107410000D03*
D36*
X172290889Y-107110001D03*
D37*
X169275879Y-106809999D03*
D36*
X172290889Y-106510000D03*
D37*
X169275879Y-106210000D03*
D36*
X172290889Y-105910001D03*
D37*
X169275879Y-105609999D03*
D36*
X172290889Y-105309999D03*
D37*
X169275879Y-105010000D03*
D36*
X172290889Y-104710001D03*
D37*
X169275879Y-104409999D03*
D36*
X172290889Y-104109999D03*
D37*
X169275879Y-103810000D03*
D36*
X172290889Y-103510000D03*
D37*
X169275879Y-103209999D03*
D36*
X172290889Y-102909999D03*
D37*
X169275879Y-102610000D03*
D36*
X172290889Y-102310000D03*
D37*
X169275879Y-102009998D03*
D36*
X172290889Y-101709999D03*
D37*
X169275879Y-101410000D03*
D36*
X172290889Y-101110000D03*
D38*
X171924200Y-109885002D03*
X171924200Y-100134998D03*
%TD*%
D28*
%TO.C,C22*%
X154400000Y-94100000D03*
X155535000Y-94100000D03*
%TD*%
D14*
%TO.C,D3*%
X163256000Y-150446500D03*
X161356000Y-150446500D03*
X162306000Y-152321500D03*
%TD*%
%TO.C,D72*%
X132776000Y-154510500D03*
X130876000Y-154510500D03*
X131826000Y-156385500D03*
%TD*%
%TO.C,Q5*%
X158176000Y-130126500D03*
X156276000Y-130126500D03*
X157226000Y-132001500D03*
%TD*%
%TO.C,D16*%
X148016000Y-146382500D03*
X146116000Y-146382500D03*
X147066000Y-148257500D03*
%TD*%
D13*
%TO.C,R4*%
X129702000Y-86631500D03*
X129702000Y-87826500D03*
%TD*%
%TO.C,R5*%
X129702000Y-88917500D03*
X129702000Y-90112500D03*
%TD*%
D17*
%TO.C,D53*%
X166436000Y-123873500D03*
X168336000Y-123873500D03*
X167386000Y-121998500D03*
%TD*%
D14*
%TO.C,D66*%
X148016000Y-150446500D03*
X146116000Y-150446500D03*
X147066000Y-152321500D03*
%TD*%
D17*
%TO.C,D41*%
X141036000Y-119809500D03*
X142936000Y-119809500D03*
X141986000Y-117934500D03*
%TD*%
D14*
%TO.C,Q36*%
X148016000Y-130126500D03*
X146116000Y-130126500D03*
X147066000Y-132001500D03*
%TD*%
D17*
%TO.C,D27*%
X166436000Y-127937500D03*
X168336000Y-127937500D03*
X167386000Y-126062500D03*
%TD*%
%TO.C,D17*%
X130876000Y-119809500D03*
X132776000Y-119809500D03*
X131826000Y-117934500D03*
%TD*%
D22*
%TO.C,R12*%
X152097500Y-97500000D03*
X150902500Y-97500000D03*
%TD*%
D14*
%TO.C,Q31*%
X132776000Y-142318500D03*
X130876000Y-142318500D03*
X131826000Y-144193500D03*
%TD*%
D17*
%TO.C,D19*%
X151196000Y-127937500D03*
X153096000Y-127937500D03*
X152146000Y-126062500D03*
%TD*%
D14*
%TO.C,D24*%
X137729000Y-146382500D03*
X135829000Y-146382500D03*
X136779000Y-148257500D03*
%TD*%
D17*
%TO.C,D57*%
X135956000Y-119809500D03*
X137856000Y-119809500D03*
X136906000Y-117934500D03*
%TD*%
D19*
%TO.C,C4*%
X136667500Y-86000000D03*
X135532500Y-86000000D03*
%TD*%
D25*
%TO.C,R9*%
X156302500Y-95500000D03*
X157497500Y-95500000D03*
%TD*%
D14*
%TO.C,Q10*%
X158176000Y-142318500D03*
X156276000Y-142318500D03*
X157226000Y-144193500D03*
%TD*%
%TO.C,D78*%
X148016000Y-154510500D03*
X146116000Y-154510500D03*
X147066000Y-156385500D03*
%TD*%
D15*
%TO.C,SOCKET1*%
X125222000Y-164592000D03*
D16*
X125222000Y-167132000D03*
X127762000Y-164592000D03*
X127762000Y-167132000D03*
X130302000Y-164592000D03*
X130302000Y-167132000D03*
X132842000Y-164592000D03*
X132842000Y-167132000D03*
X135382000Y-164592000D03*
X135382000Y-167132000D03*
X137922000Y-164592000D03*
X137922000Y-167132000D03*
X140462000Y-164592000D03*
X140462000Y-167132000D03*
X143002000Y-164592000D03*
X143002000Y-167132000D03*
X145542000Y-164592000D03*
X145542000Y-167132000D03*
X148082000Y-164592000D03*
X148082000Y-167132000D03*
X150622000Y-164592000D03*
X150622000Y-167132000D03*
X153162000Y-164592000D03*
X153162000Y-167132000D03*
X155702000Y-164592000D03*
X155702000Y-167132000D03*
X158242000Y-164592000D03*
X158242000Y-167132000D03*
X160782000Y-164592000D03*
X160782000Y-167132000D03*
X163322000Y-164592000D03*
X163322000Y-167132000D03*
X165862000Y-164592000D03*
X165862000Y-167132000D03*
X168402000Y-164592000D03*
X168402000Y-167132000D03*
X170942000Y-164592000D03*
X170942000Y-167132000D03*
X173482000Y-164592000D03*
X173482000Y-167132000D03*
%TD*%
D14*
%TO.C,D58*%
X137856000Y-150446500D03*
X135956000Y-150446500D03*
X136906000Y-152321500D03*
%TD*%
D17*
%TO.C,D45*%
X166436000Y-115745500D03*
X168336000Y-115745500D03*
X167386000Y-113870500D03*
%TD*%
D20*
%TO.C,C6*%
X126420000Y-88507500D03*
X126420000Y-87372500D03*
%TD*%
D17*
%TO.C,D8*%
X130876000Y-127937500D03*
X132776000Y-127937500D03*
X131826000Y-126062500D03*
%TD*%
%TO.C,D25*%
X125796000Y-127937500D03*
X127696000Y-127937500D03*
X126746000Y-126062500D03*
%TD*%
%TO.C,D71*%
X130876000Y-123873500D03*
X132776000Y-123873500D03*
X131826000Y-121998500D03*
%TD*%
%TO.C,D1*%
X125796000Y-119809500D03*
X127696000Y-119809500D03*
X126746000Y-117934500D03*
%TD*%
D14*
%TO.C,Q13*%
X168336000Y-130126500D03*
X166436000Y-130126500D03*
X167386000Y-132001500D03*
%TD*%
D17*
%TO.C,D61*%
X151196000Y-123873500D03*
X153096000Y-123873500D03*
X152146000Y-121998500D03*
%TD*%
D15*
%TO.C,J_DISPLAY2*%
X164100000Y-75400000D03*
D16*
X161560000Y-75400000D03*
X159020000Y-75400000D03*
X156480000Y-75400000D03*
X153940000Y-75400000D03*
X151400000Y-75400000D03*
X148860000Y-75400000D03*
X146320000Y-75400000D03*
X143780000Y-75400000D03*
X141240000Y-75400000D03*
X138700000Y-75400000D03*
X136160000Y-75400000D03*
%TD*%
M02*
