%TF.GenerationSoftware,KiCad,Pcbnew,7.0.9-7.0.9~ubuntu22.04.1*%
%TF.CreationDate,2024-01-04T11:40:04-08:00*%
%TF.ProjectId,devel_gw1,64657665-6c5f-4677-9731-2e6b69636164,rev?*%
%TF.SameCoordinates,Original*%
%TF.FileFunction,Legend,Top*%
%TF.FilePolarity,Positive*%
%FSLAX46Y46*%
G04 Gerber Fmt 4.6, Leading zero omitted, Abs format (unit mm)*
G04 Created by KiCad (PCBNEW 7.0.9-7.0.9~ubuntu22.04.1) date 2024-01-04 11:40:04*
%MOMM*%
%LPD*%
G01*
G04 APERTURE LIST*
%ADD10C,0.150000*%
%ADD11C,0.499264*%
%ADD12C,0.120000*%
%ADD13C,0.100000*%
%ADD14C,0.127000*%
%ADD15C,0.200000*%
%ADD16C,0.152400*%
%ADD17C,0.441000*%
G04 APERTURE END LIST*
D10*
X141936779Y-105469819D02*
X141936779Y-106279342D01*
X141936779Y-106279342D02*
X141984398Y-106374580D01*
X141984398Y-106374580D02*
X142032017Y-106422200D01*
X142032017Y-106422200D02*
X142127255Y-106469819D01*
X142127255Y-106469819D02*
X142317731Y-106469819D01*
X142317731Y-106469819D02*
X142412969Y-106422200D01*
X142412969Y-106422200D02*
X142460588Y-106374580D01*
X142460588Y-106374580D02*
X142508207Y-106279342D01*
X142508207Y-106279342D02*
X142508207Y-105469819D01*
X142984398Y-105803152D02*
X142984398Y-106469819D01*
X142984398Y-105898390D02*
X143032017Y-105850771D01*
X143032017Y-105850771D02*
X143127255Y-105803152D01*
X143127255Y-105803152D02*
X143270112Y-105803152D01*
X143270112Y-105803152D02*
X143365350Y-105850771D01*
X143365350Y-105850771D02*
X143412969Y-105946009D01*
X143412969Y-105946009D02*
X143412969Y-106469819D01*
X143889160Y-106469819D02*
X143889160Y-105469819D01*
X144936778Y-106374580D02*
X144889159Y-106422200D01*
X144889159Y-106422200D02*
X144746302Y-106469819D01*
X144746302Y-106469819D02*
X144651064Y-106469819D01*
X144651064Y-106469819D02*
X144508207Y-106422200D01*
X144508207Y-106422200D02*
X144412969Y-106326961D01*
X144412969Y-106326961D02*
X144365350Y-106231723D01*
X144365350Y-106231723D02*
X144317731Y-106041247D01*
X144317731Y-106041247D02*
X144317731Y-105898390D01*
X144317731Y-105898390D02*
X144365350Y-105707914D01*
X144365350Y-105707914D02*
X144412969Y-105612676D01*
X144412969Y-105612676D02*
X144508207Y-105517438D01*
X144508207Y-105517438D02*
X144651064Y-105469819D01*
X144651064Y-105469819D02*
X144746302Y-105469819D01*
X144746302Y-105469819D02*
X144889159Y-105517438D01*
X144889159Y-105517438D02*
X144936778Y-105565057D01*
X146555826Y-106469819D02*
X146555826Y-105469819D01*
X146555826Y-106422200D02*
X146460588Y-106469819D01*
X146460588Y-106469819D02*
X146270112Y-106469819D01*
X146270112Y-106469819D02*
X146174874Y-106422200D01*
X146174874Y-106422200D02*
X146127255Y-106374580D01*
X146127255Y-106374580D02*
X146079636Y-106279342D01*
X146079636Y-106279342D02*
X146079636Y-105993628D01*
X146079636Y-105993628D02*
X146127255Y-105898390D01*
X146127255Y-105898390D02*
X146174874Y-105850771D01*
X146174874Y-105850771D02*
X146270112Y-105803152D01*
X146270112Y-105803152D02*
X146460588Y-105803152D01*
X146460588Y-105803152D02*
X146555826Y-105850771D01*
X147412969Y-106422200D02*
X147317731Y-106469819D01*
X147317731Y-106469819D02*
X147127255Y-106469819D01*
X147127255Y-106469819D02*
X147032017Y-106422200D01*
X147032017Y-106422200D02*
X146984398Y-106326961D01*
X146984398Y-106326961D02*
X146984398Y-105946009D01*
X146984398Y-105946009D02*
X147032017Y-105850771D01*
X147032017Y-105850771D02*
X147127255Y-105803152D01*
X147127255Y-105803152D02*
X147317731Y-105803152D01*
X147317731Y-105803152D02*
X147412969Y-105850771D01*
X147412969Y-105850771D02*
X147460588Y-105946009D01*
X147460588Y-105946009D02*
X147460588Y-106041247D01*
X147460588Y-106041247D02*
X146984398Y-106136485D01*
X147793922Y-105803152D02*
X148032017Y-106469819D01*
X148032017Y-106469819D02*
X148270112Y-105803152D01*
X149032017Y-106422200D02*
X148936779Y-106469819D01*
X148936779Y-106469819D02*
X148746303Y-106469819D01*
X148746303Y-106469819D02*
X148651065Y-106422200D01*
X148651065Y-106422200D02*
X148603446Y-106326961D01*
X148603446Y-106326961D02*
X148603446Y-105946009D01*
X148603446Y-105946009D02*
X148651065Y-105850771D01*
X148651065Y-105850771D02*
X148746303Y-105803152D01*
X148746303Y-105803152D02*
X148936779Y-105803152D01*
X148936779Y-105803152D02*
X149032017Y-105850771D01*
X149032017Y-105850771D02*
X149079636Y-105946009D01*
X149079636Y-105946009D02*
X149079636Y-106041247D01*
X149079636Y-106041247D02*
X148603446Y-106136485D01*
X149651065Y-106469819D02*
X149555827Y-106422200D01*
X149555827Y-106422200D02*
X149508208Y-106326961D01*
X149508208Y-106326961D02*
X149508208Y-105469819D01*
X150174875Y-106469819D02*
X150079637Y-106422200D01*
X150079637Y-106422200D02*
X150032018Y-106374580D01*
X150032018Y-106374580D02*
X149984399Y-106279342D01*
X149984399Y-106279342D02*
X149984399Y-105993628D01*
X149984399Y-105993628D02*
X150032018Y-105898390D01*
X150032018Y-105898390D02*
X150079637Y-105850771D01*
X150079637Y-105850771D02*
X150174875Y-105803152D01*
X150174875Y-105803152D02*
X150317732Y-105803152D01*
X150317732Y-105803152D02*
X150412970Y-105850771D01*
X150412970Y-105850771D02*
X150460589Y-105898390D01*
X150460589Y-105898390D02*
X150508208Y-105993628D01*
X150508208Y-105993628D02*
X150508208Y-106279342D01*
X150508208Y-106279342D02*
X150460589Y-106374580D01*
X150460589Y-106374580D02*
X150412970Y-106422200D01*
X150412970Y-106422200D02*
X150317732Y-106469819D01*
X150317732Y-106469819D02*
X150174875Y-106469819D01*
X150936780Y-105803152D02*
X150936780Y-106803152D01*
X150936780Y-105850771D02*
X151032018Y-105803152D01*
X151032018Y-105803152D02*
X151222494Y-105803152D01*
X151222494Y-105803152D02*
X151317732Y-105850771D01*
X151317732Y-105850771D02*
X151365351Y-105898390D01*
X151365351Y-105898390D02*
X151412970Y-105993628D01*
X151412970Y-105993628D02*
X151412970Y-106279342D01*
X151412970Y-106279342D02*
X151365351Y-106374580D01*
X151365351Y-106374580D02*
X151317732Y-106422200D01*
X151317732Y-106422200D02*
X151222494Y-106469819D01*
X151222494Y-106469819D02*
X151032018Y-106469819D01*
X151032018Y-106469819D02*
X150936780Y-106422200D01*
X151841542Y-106469819D02*
X151841542Y-105803152D01*
X151841542Y-105898390D02*
X151889161Y-105850771D01*
X151889161Y-105850771D02*
X151984399Y-105803152D01*
X151984399Y-105803152D02*
X152127256Y-105803152D01*
X152127256Y-105803152D02*
X152222494Y-105850771D01*
X152222494Y-105850771D02*
X152270113Y-105946009D01*
X152270113Y-105946009D02*
X152270113Y-106469819D01*
X152270113Y-105946009D02*
X152317732Y-105850771D01*
X152317732Y-105850771D02*
X152412970Y-105803152D01*
X152412970Y-105803152D02*
X152555827Y-105803152D01*
X152555827Y-105803152D02*
X152651066Y-105850771D01*
X152651066Y-105850771D02*
X152698685Y-105946009D01*
X152698685Y-105946009D02*
X152698685Y-106469819D01*
X153555827Y-106422200D02*
X153460589Y-106469819D01*
X153460589Y-106469819D02*
X153270113Y-106469819D01*
X153270113Y-106469819D02*
X153174875Y-106422200D01*
X153174875Y-106422200D02*
X153127256Y-106326961D01*
X153127256Y-106326961D02*
X153127256Y-105946009D01*
X153127256Y-105946009D02*
X153174875Y-105850771D01*
X153174875Y-105850771D02*
X153270113Y-105803152D01*
X153270113Y-105803152D02*
X153460589Y-105803152D01*
X153460589Y-105803152D02*
X153555827Y-105850771D01*
X153555827Y-105850771D02*
X153603446Y-105946009D01*
X153603446Y-105946009D02*
X153603446Y-106041247D01*
X153603446Y-106041247D02*
X153127256Y-106136485D01*
X154032018Y-105803152D02*
X154032018Y-106469819D01*
X154032018Y-105898390D02*
X154079637Y-105850771D01*
X154079637Y-105850771D02*
X154174875Y-105803152D01*
X154174875Y-105803152D02*
X154317732Y-105803152D01*
X154317732Y-105803152D02*
X154412970Y-105850771D01*
X154412970Y-105850771D02*
X154460589Y-105946009D01*
X154460589Y-105946009D02*
X154460589Y-106469819D01*
X154793923Y-105803152D02*
X155174875Y-105803152D01*
X154936780Y-105469819D02*
X154936780Y-106326961D01*
X154936780Y-106326961D02*
X154984399Y-106422200D01*
X154984399Y-106422200D02*
X155079637Y-106469819D01*
X155079637Y-106469819D02*
X155174875Y-106469819D01*
X156270114Y-106469819D02*
X156270114Y-105469819D01*
X156270114Y-105850771D02*
X156365352Y-105803152D01*
X156365352Y-105803152D02*
X156555828Y-105803152D01*
X156555828Y-105803152D02*
X156651066Y-105850771D01*
X156651066Y-105850771D02*
X156698685Y-105898390D01*
X156698685Y-105898390D02*
X156746304Y-105993628D01*
X156746304Y-105993628D02*
X156746304Y-106279342D01*
X156746304Y-106279342D02*
X156698685Y-106374580D01*
X156698685Y-106374580D02*
X156651066Y-106422200D01*
X156651066Y-106422200D02*
X156555828Y-106469819D01*
X156555828Y-106469819D02*
X156365352Y-106469819D01*
X156365352Y-106469819D02*
X156270114Y-106422200D01*
X157317733Y-106469819D02*
X157222495Y-106422200D01*
X157222495Y-106422200D02*
X157174876Y-106374580D01*
X157174876Y-106374580D02*
X157127257Y-106279342D01*
X157127257Y-106279342D02*
X157127257Y-105993628D01*
X157127257Y-105993628D02*
X157174876Y-105898390D01*
X157174876Y-105898390D02*
X157222495Y-105850771D01*
X157222495Y-105850771D02*
X157317733Y-105803152D01*
X157317733Y-105803152D02*
X157460590Y-105803152D01*
X157460590Y-105803152D02*
X157555828Y-105850771D01*
X157555828Y-105850771D02*
X157603447Y-105898390D01*
X157603447Y-105898390D02*
X157651066Y-105993628D01*
X157651066Y-105993628D02*
X157651066Y-106279342D01*
X157651066Y-106279342D02*
X157603447Y-106374580D01*
X157603447Y-106374580D02*
X157555828Y-106422200D01*
X157555828Y-106422200D02*
X157460590Y-106469819D01*
X157460590Y-106469819D02*
X157317733Y-106469819D01*
X158508209Y-106469819D02*
X158508209Y-105946009D01*
X158508209Y-105946009D02*
X158460590Y-105850771D01*
X158460590Y-105850771D02*
X158365352Y-105803152D01*
X158365352Y-105803152D02*
X158174876Y-105803152D01*
X158174876Y-105803152D02*
X158079638Y-105850771D01*
X158508209Y-106422200D02*
X158412971Y-106469819D01*
X158412971Y-106469819D02*
X158174876Y-106469819D01*
X158174876Y-106469819D02*
X158079638Y-106422200D01*
X158079638Y-106422200D02*
X158032019Y-106326961D01*
X158032019Y-106326961D02*
X158032019Y-106231723D01*
X158032019Y-106231723D02*
X158079638Y-106136485D01*
X158079638Y-106136485D02*
X158174876Y-106088866D01*
X158174876Y-106088866D02*
X158412971Y-106088866D01*
X158412971Y-106088866D02*
X158508209Y-106041247D01*
X158984400Y-106469819D02*
X158984400Y-105803152D01*
X158984400Y-105993628D02*
X159032019Y-105898390D01*
X159032019Y-105898390D02*
X159079638Y-105850771D01*
X159079638Y-105850771D02*
X159174876Y-105803152D01*
X159174876Y-105803152D02*
X159270114Y-105803152D01*
X160032019Y-106469819D02*
X160032019Y-105469819D01*
X160032019Y-106422200D02*
X159936781Y-106469819D01*
X159936781Y-106469819D02*
X159746305Y-106469819D01*
X159746305Y-106469819D02*
X159651067Y-106422200D01*
X159651067Y-106422200D02*
X159603448Y-106374580D01*
X159603448Y-106374580D02*
X159555829Y-106279342D01*
X159555829Y-106279342D02*
X159555829Y-105993628D01*
X159555829Y-105993628D02*
X159603448Y-105898390D01*
X159603448Y-105898390D02*
X159651067Y-105850771D01*
X159651067Y-105850771D02*
X159746305Y-105803152D01*
X159746305Y-105803152D02*
X159936781Y-105803152D01*
X159936781Y-105803152D02*
X160032019Y-105850771D01*
X142022493Y-109740771D02*
X141974874Y-109693152D01*
X141974874Y-109693152D02*
X141879636Y-109550295D01*
X141879636Y-109550295D02*
X141832017Y-109455057D01*
X141832017Y-109455057D02*
X141784398Y-109312200D01*
X141784398Y-109312200D02*
X141736779Y-109074104D01*
X141736779Y-109074104D02*
X141736779Y-108883628D01*
X141736779Y-108883628D02*
X141784398Y-108645533D01*
X141784398Y-108645533D02*
X141832017Y-108502676D01*
X141832017Y-108502676D02*
X141879636Y-108407438D01*
X141879636Y-108407438D02*
X141974874Y-108264580D01*
X141974874Y-108264580D02*
X142022493Y-108216961D01*
X142974874Y-109264580D02*
X142927255Y-109312200D01*
X142927255Y-109312200D02*
X142784398Y-109359819D01*
X142784398Y-109359819D02*
X142689160Y-109359819D01*
X142689160Y-109359819D02*
X142546303Y-109312200D01*
X142546303Y-109312200D02*
X142451065Y-109216961D01*
X142451065Y-109216961D02*
X142403446Y-109121723D01*
X142403446Y-109121723D02*
X142355827Y-108931247D01*
X142355827Y-108931247D02*
X142355827Y-108788390D01*
X142355827Y-108788390D02*
X142403446Y-108597914D01*
X142403446Y-108597914D02*
X142451065Y-108502676D01*
X142451065Y-108502676D02*
X142546303Y-108407438D01*
X142546303Y-108407438D02*
X142689160Y-108359819D01*
X142689160Y-108359819D02*
X142784398Y-108359819D01*
X142784398Y-108359819D02*
X142927255Y-108407438D01*
X142927255Y-108407438D02*
X142974874Y-108455057D01*
X143308208Y-109740771D02*
X143355827Y-109693152D01*
X143355827Y-109693152D02*
X143451065Y-109550295D01*
X143451065Y-109550295D02*
X143498684Y-109455057D01*
X143498684Y-109455057D02*
X143546303Y-109312200D01*
X143546303Y-109312200D02*
X143593922Y-109074104D01*
X143593922Y-109074104D02*
X143593922Y-108883628D01*
X143593922Y-108883628D02*
X143546303Y-108645533D01*
X143546303Y-108645533D02*
X143498684Y-108502676D01*
X143498684Y-108502676D02*
X143451065Y-108407438D01*
X143451065Y-108407438D02*
X143355827Y-108264580D01*
X143355827Y-108264580D02*
X143308208Y-108216961D01*
X144784399Y-108455057D02*
X144832018Y-108407438D01*
X144832018Y-108407438D02*
X144927256Y-108359819D01*
X144927256Y-108359819D02*
X145165351Y-108359819D01*
X145165351Y-108359819D02*
X145260589Y-108407438D01*
X145260589Y-108407438D02*
X145308208Y-108455057D01*
X145308208Y-108455057D02*
X145355827Y-108550295D01*
X145355827Y-108550295D02*
X145355827Y-108645533D01*
X145355827Y-108645533D02*
X145308208Y-108788390D01*
X145308208Y-108788390D02*
X144736780Y-109359819D01*
X144736780Y-109359819D02*
X145355827Y-109359819D01*
X145974875Y-108359819D02*
X146070113Y-108359819D01*
X146070113Y-108359819D02*
X146165351Y-108407438D01*
X146165351Y-108407438D02*
X146212970Y-108455057D01*
X146212970Y-108455057D02*
X146260589Y-108550295D01*
X146260589Y-108550295D02*
X146308208Y-108740771D01*
X146308208Y-108740771D02*
X146308208Y-108978866D01*
X146308208Y-108978866D02*
X146260589Y-109169342D01*
X146260589Y-109169342D02*
X146212970Y-109264580D01*
X146212970Y-109264580D02*
X146165351Y-109312200D01*
X146165351Y-109312200D02*
X146070113Y-109359819D01*
X146070113Y-109359819D02*
X145974875Y-109359819D01*
X145974875Y-109359819D02*
X145879637Y-109312200D01*
X145879637Y-109312200D02*
X145832018Y-109264580D01*
X145832018Y-109264580D02*
X145784399Y-109169342D01*
X145784399Y-109169342D02*
X145736780Y-108978866D01*
X145736780Y-108978866D02*
X145736780Y-108740771D01*
X145736780Y-108740771D02*
X145784399Y-108550295D01*
X145784399Y-108550295D02*
X145832018Y-108455057D01*
X145832018Y-108455057D02*
X145879637Y-108407438D01*
X145879637Y-108407438D02*
X145974875Y-108359819D01*
X146689161Y-108455057D02*
X146736780Y-108407438D01*
X146736780Y-108407438D02*
X146832018Y-108359819D01*
X146832018Y-108359819D02*
X147070113Y-108359819D01*
X147070113Y-108359819D02*
X147165351Y-108407438D01*
X147165351Y-108407438D02*
X147212970Y-108455057D01*
X147212970Y-108455057D02*
X147260589Y-108550295D01*
X147260589Y-108550295D02*
X147260589Y-108645533D01*
X147260589Y-108645533D02*
X147212970Y-108788390D01*
X147212970Y-108788390D02*
X146641542Y-109359819D01*
X146641542Y-109359819D02*
X147260589Y-109359819D01*
X148117732Y-108693152D02*
X148117732Y-109359819D01*
X147879637Y-108312200D02*
X147641542Y-109026485D01*
X147641542Y-109026485D02*
X148260589Y-109026485D01*
X149355828Y-109074104D02*
X149832018Y-109074104D01*
X149260590Y-109359819D02*
X149593923Y-108359819D01*
X149593923Y-108359819D02*
X149927256Y-109359819D01*
X150260590Y-108693152D02*
X150260590Y-109359819D01*
X150260590Y-108788390D02*
X150308209Y-108740771D01*
X150308209Y-108740771D02*
X150403447Y-108693152D01*
X150403447Y-108693152D02*
X150546304Y-108693152D01*
X150546304Y-108693152D02*
X150641542Y-108740771D01*
X150641542Y-108740771D02*
X150689161Y-108836009D01*
X150689161Y-108836009D02*
X150689161Y-109359819D01*
X151593923Y-109359819D02*
X151593923Y-108359819D01*
X151593923Y-109312200D02*
X151498685Y-109359819D01*
X151498685Y-109359819D02*
X151308209Y-109359819D01*
X151308209Y-109359819D02*
X151212971Y-109312200D01*
X151212971Y-109312200D02*
X151165352Y-109264580D01*
X151165352Y-109264580D02*
X151117733Y-109169342D01*
X151117733Y-109169342D02*
X151117733Y-108883628D01*
X151117733Y-108883628D02*
X151165352Y-108788390D01*
X151165352Y-108788390D02*
X151212971Y-108740771D01*
X151212971Y-108740771D02*
X151308209Y-108693152D01*
X151308209Y-108693152D02*
X151498685Y-108693152D01*
X151498685Y-108693152D02*
X151593923Y-108740771D01*
X152070114Y-109359819D02*
X152070114Y-108693152D01*
X152070114Y-108883628D02*
X152117733Y-108788390D01*
X152117733Y-108788390D02*
X152165352Y-108740771D01*
X152165352Y-108740771D02*
X152260590Y-108693152D01*
X152260590Y-108693152D02*
X152355828Y-108693152D01*
X153117733Y-109359819D02*
X153117733Y-108836009D01*
X153117733Y-108836009D02*
X153070114Y-108740771D01*
X153070114Y-108740771D02*
X152974876Y-108693152D01*
X152974876Y-108693152D02*
X152784400Y-108693152D01*
X152784400Y-108693152D02*
X152689162Y-108740771D01*
X153117733Y-109312200D02*
X153022495Y-109359819D01*
X153022495Y-109359819D02*
X152784400Y-109359819D01*
X152784400Y-109359819D02*
X152689162Y-109312200D01*
X152689162Y-109312200D02*
X152641543Y-109216961D01*
X152641543Y-109216961D02*
X152641543Y-109121723D01*
X152641543Y-109121723D02*
X152689162Y-109026485D01*
X152689162Y-109026485D02*
X152784400Y-108978866D01*
X152784400Y-108978866D02*
X153022495Y-108978866D01*
X153022495Y-108978866D02*
X153117733Y-108931247D01*
X153546305Y-109312200D02*
X153641543Y-109359819D01*
X153641543Y-109359819D02*
X153832019Y-109359819D01*
X153832019Y-109359819D02*
X153927257Y-109312200D01*
X153927257Y-109312200D02*
X153974876Y-109216961D01*
X153974876Y-109216961D02*
X153974876Y-109169342D01*
X153974876Y-109169342D02*
X153927257Y-109074104D01*
X153927257Y-109074104D02*
X153832019Y-109026485D01*
X153832019Y-109026485D02*
X153689162Y-109026485D01*
X153689162Y-109026485D02*
X153593924Y-108978866D01*
X153593924Y-108978866D02*
X153546305Y-108883628D01*
X153546305Y-108883628D02*
X153546305Y-108836009D01*
X153546305Y-108836009D02*
X153593924Y-108740771D01*
X153593924Y-108740771D02*
X153689162Y-108693152D01*
X153689162Y-108693152D02*
X153832019Y-108693152D01*
X153832019Y-108693152D02*
X153927257Y-108740771D01*
X155022496Y-108359819D02*
X155593924Y-108359819D01*
X155308210Y-109359819D02*
X155308210Y-108359819D01*
X156355829Y-109359819D02*
X156355829Y-108836009D01*
X156355829Y-108836009D02*
X156308210Y-108740771D01*
X156308210Y-108740771D02*
X156212972Y-108693152D01*
X156212972Y-108693152D02*
X156022496Y-108693152D01*
X156022496Y-108693152D02*
X155927258Y-108740771D01*
X156355829Y-109312200D02*
X156260591Y-109359819D01*
X156260591Y-109359819D02*
X156022496Y-109359819D01*
X156022496Y-109359819D02*
X155927258Y-109312200D01*
X155927258Y-109312200D02*
X155879639Y-109216961D01*
X155879639Y-109216961D02*
X155879639Y-109121723D01*
X155879639Y-109121723D02*
X155927258Y-109026485D01*
X155927258Y-109026485D02*
X156022496Y-108978866D01*
X156022496Y-108978866D02*
X156260591Y-108978866D01*
X156260591Y-108978866D02*
X156355829Y-108931247D01*
X156832020Y-108693152D02*
X156832020Y-109359819D01*
X156832020Y-108788390D02*
X156879639Y-108740771D01*
X156879639Y-108740771D02*
X156974877Y-108693152D01*
X156974877Y-108693152D02*
X157117734Y-108693152D01*
X157117734Y-108693152D02*
X157212972Y-108740771D01*
X157212972Y-108740771D02*
X157260591Y-108836009D01*
X157260591Y-108836009D02*
X157260591Y-109359819D01*
X157593925Y-108693152D02*
X157974877Y-108693152D01*
X157736782Y-108359819D02*
X157736782Y-109216961D01*
X157736782Y-109216961D02*
X157784401Y-109312200D01*
X157784401Y-109312200D02*
X157879639Y-109359819D01*
X157879639Y-109359819D02*
X157974877Y-109359819D01*
X158451068Y-109359819D02*
X158355830Y-109312200D01*
X158355830Y-109312200D02*
X158308211Y-109264580D01*
X158308211Y-109264580D02*
X158260592Y-109169342D01*
X158260592Y-109169342D02*
X158260592Y-108883628D01*
X158260592Y-108883628D02*
X158308211Y-108788390D01*
X158308211Y-108788390D02*
X158355830Y-108740771D01*
X158355830Y-108740771D02*
X158451068Y-108693152D01*
X158451068Y-108693152D02*
X158593925Y-108693152D01*
X158593925Y-108693152D02*
X158689163Y-108740771D01*
X158689163Y-108740771D02*
X158736782Y-108788390D01*
X158736782Y-108788390D02*
X158784401Y-108883628D01*
X158784401Y-108883628D02*
X158784401Y-109169342D01*
X158784401Y-109169342D02*
X158736782Y-109264580D01*
X158736782Y-109264580D02*
X158689163Y-109312200D01*
X158689163Y-109312200D02*
X158593925Y-109359819D01*
X158593925Y-109359819D02*
X158451068Y-109359819D01*
X159165354Y-109312200D02*
X159260592Y-109359819D01*
X159260592Y-109359819D02*
X159451068Y-109359819D01*
X159451068Y-109359819D02*
X159546306Y-109312200D01*
X159546306Y-109312200D02*
X159593925Y-109216961D01*
X159593925Y-109216961D02*
X159593925Y-109169342D01*
X159593925Y-109169342D02*
X159546306Y-109074104D01*
X159546306Y-109074104D02*
X159451068Y-109026485D01*
X159451068Y-109026485D02*
X159308211Y-109026485D01*
X159308211Y-109026485D02*
X159212973Y-108978866D01*
X159212973Y-108978866D02*
X159165354Y-108883628D01*
X159165354Y-108883628D02*
X159165354Y-108836009D01*
X159165354Y-108836009D02*
X159212973Y-108740771D01*
X159212973Y-108740771D02*
X159308211Y-108693152D01*
X159308211Y-108693152D02*
X159451068Y-108693152D01*
X159451068Y-108693152D02*
X159546306Y-108740771D01*
X161593926Y-109359819D02*
X161546307Y-109359819D01*
X161546307Y-109359819D02*
X161451068Y-109312200D01*
X161451068Y-109312200D02*
X161308211Y-109169342D01*
X161308211Y-109169342D02*
X161070116Y-108883628D01*
X161070116Y-108883628D02*
X160974878Y-108740771D01*
X160974878Y-108740771D02*
X160927259Y-108597914D01*
X160927259Y-108597914D02*
X160927259Y-108502676D01*
X160927259Y-108502676D02*
X160974878Y-108407438D01*
X160974878Y-108407438D02*
X161070116Y-108359819D01*
X161070116Y-108359819D02*
X161117735Y-108359819D01*
X161117735Y-108359819D02*
X161212973Y-108407438D01*
X161212973Y-108407438D02*
X161260592Y-108502676D01*
X161260592Y-108502676D02*
X161260592Y-108550295D01*
X161260592Y-108550295D02*
X161212973Y-108645533D01*
X161212973Y-108645533D02*
X161165354Y-108693152D01*
X161165354Y-108693152D02*
X160879640Y-108883628D01*
X160879640Y-108883628D02*
X160832021Y-108931247D01*
X160832021Y-108931247D02*
X160784402Y-109026485D01*
X160784402Y-109026485D02*
X160784402Y-109169342D01*
X160784402Y-109169342D02*
X160832021Y-109264580D01*
X160832021Y-109264580D02*
X160879640Y-109312200D01*
X160879640Y-109312200D02*
X160974878Y-109359819D01*
X160974878Y-109359819D02*
X161117735Y-109359819D01*
X161117735Y-109359819D02*
X161212973Y-109312200D01*
X161212973Y-109312200D02*
X161260592Y-109264580D01*
X161260592Y-109264580D02*
X161403449Y-109074104D01*
X161403449Y-109074104D02*
X161451068Y-108931247D01*
X161451068Y-108931247D02*
X161451068Y-108836009D01*
X141736779Y-110969819D02*
X141736779Y-109969819D01*
X141736779Y-109969819D02*
X142070112Y-110684104D01*
X142070112Y-110684104D02*
X142403445Y-109969819D01*
X142403445Y-109969819D02*
X142403445Y-110969819D01*
X143022493Y-110969819D02*
X142927255Y-110922200D01*
X142927255Y-110922200D02*
X142879636Y-110874580D01*
X142879636Y-110874580D02*
X142832017Y-110779342D01*
X142832017Y-110779342D02*
X142832017Y-110493628D01*
X142832017Y-110493628D02*
X142879636Y-110398390D01*
X142879636Y-110398390D02*
X142927255Y-110350771D01*
X142927255Y-110350771D02*
X143022493Y-110303152D01*
X143022493Y-110303152D02*
X143165350Y-110303152D01*
X143165350Y-110303152D02*
X143260588Y-110350771D01*
X143260588Y-110350771D02*
X143308207Y-110398390D01*
X143308207Y-110398390D02*
X143355826Y-110493628D01*
X143355826Y-110493628D02*
X143355826Y-110779342D01*
X143355826Y-110779342D02*
X143308207Y-110874580D01*
X143308207Y-110874580D02*
X143260588Y-110922200D01*
X143260588Y-110922200D02*
X143165350Y-110969819D01*
X143165350Y-110969819D02*
X143022493Y-110969819D01*
X144212969Y-110969819D02*
X144212969Y-109969819D01*
X144212969Y-110922200D02*
X144117731Y-110969819D01*
X144117731Y-110969819D02*
X143927255Y-110969819D01*
X143927255Y-110969819D02*
X143832017Y-110922200D01*
X143832017Y-110922200D02*
X143784398Y-110874580D01*
X143784398Y-110874580D02*
X143736779Y-110779342D01*
X143736779Y-110779342D02*
X143736779Y-110493628D01*
X143736779Y-110493628D02*
X143784398Y-110398390D01*
X143784398Y-110398390D02*
X143832017Y-110350771D01*
X143832017Y-110350771D02*
X143927255Y-110303152D01*
X143927255Y-110303152D02*
X144117731Y-110303152D01*
X144117731Y-110303152D02*
X144212969Y-110350771D01*
X145117731Y-110303152D02*
X145117731Y-110969819D01*
X144689160Y-110303152D02*
X144689160Y-110826961D01*
X144689160Y-110826961D02*
X144736779Y-110922200D01*
X144736779Y-110922200D02*
X144832017Y-110969819D01*
X144832017Y-110969819D02*
X144974874Y-110969819D01*
X144974874Y-110969819D02*
X145070112Y-110922200D01*
X145070112Y-110922200D02*
X145117731Y-110874580D01*
X145736779Y-110969819D02*
X145641541Y-110922200D01*
X145641541Y-110922200D02*
X145593922Y-110826961D01*
X145593922Y-110826961D02*
X145593922Y-109969819D01*
X146546303Y-110969819D02*
X146546303Y-110446009D01*
X146546303Y-110446009D02*
X146498684Y-110350771D01*
X146498684Y-110350771D02*
X146403446Y-110303152D01*
X146403446Y-110303152D02*
X146212970Y-110303152D01*
X146212970Y-110303152D02*
X146117732Y-110350771D01*
X146546303Y-110922200D02*
X146451065Y-110969819D01*
X146451065Y-110969819D02*
X146212970Y-110969819D01*
X146212970Y-110969819D02*
X146117732Y-110922200D01*
X146117732Y-110922200D02*
X146070113Y-110826961D01*
X146070113Y-110826961D02*
X146070113Y-110731723D01*
X146070113Y-110731723D02*
X146117732Y-110636485D01*
X146117732Y-110636485D02*
X146212970Y-110588866D01*
X146212970Y-110588866D02*
X146451065Y-110588866D01*
X146451065Y-110588866D02*
X146546303Y-110541247D01*
X147022494Y-110969819D02*
X147022494Y-110303152D01*
X147022494Y-110493628D02*
X147070113Y-110398390D01*
X147070113Y-110398390D02*
X147117732Y-110350771D01*
X147117732Y-110350771D02*
X147212970Y-110303152D01*
X147212970Y-110303152D02*
X147308208Y-110303152D01*
X148974875Y-110874580D02*
X148927256Y-110922200D01*
X148927256Y-110922200D02*
X148784399Y-110969819D01*
X148784399Y-110969819D02*
X148689161Y-110969819D01*
X148689161Y-110969819D02*
X148546304Y-110922200D01*
X148546304Y-110922200D02*
X148451066Y-110826961D01*
X148451066Y-110826961D02*
X148403447Y-110731723D01*
X148403447Y-110731723D02*
X148355828Y-110541247D01*
X148355828Y-110541247D02*
X148355828Y-110398390D01*
X148355828Y-110398390D02*
X148403447Y-110207914D01*
X148403447Y-110207914D02*
X148451066Y-110112676D01*
X148451066Y-110112676D02*
X148546304Y-110017438D01*
X148546304Y-110017438D02*
X148689161Y-109969819D01*
X148689161Y-109969819D02*
X148784399Y-109969819D01*
X148784399Y-109969819D02*
X148927256Y-110017438D01*
X148927256Y-110017438D02*
X148974875Y-110065057D01*
X149403447Y-110969819D02*
X149403447Y-110303152D01*
X149403447Y-109969819D02*
X149355828Y-110017438D01*
X149355828Y-110017438D02*
X149403447Y-110065057D01*
X149403447Y-110065057D02*
X149451066Y-110017438D01*
X149451066Y-110017438D02*
X149403447Y-109969819D01*
X149403447Y-109969819D02*
X149403447Y-110065057D01*
X149879637Y-110969819D02*
X149879637Y-110303152D01*
X149879637Y-110493628D02*
X149927256Y-110398390D01*
X149927256Y-110398390D02*
X149974875Y-110350771D01*
X149974875Y-110350771D02*
X150070113Y-110303152D01*
X150070113Y-110303152D02*
X150165351Y-110303152D01*
X150927256Y-110922200D02*
X150832018Y-110969819D01*
X150832018Y-110969819D02*
X150641542Y-110969819D01*
X150641542Y-110969819D02*
X150546304Y-110922200D01*
X150546304Y-110922200D02*
X150498685Y-110874580D01*
X150498685Y-110874580D02*
X150451066Y-110779342D01*
X150451066Y-110779342D02*
X150451066Y-110493628D01*
X150451066Y-110493628D02*
X150498685Y-110398390D01*
X150498685Y-110398390D02*
X150546304Y-110350771D01*
X150546304Y-110350771D02*
X150641542Y-110303152D01*
X150641542Y-110303152D02*
X150832018Y-110303152D01*
X150832018Y-110303152D02*
X150927256Y-110350771D01*
X151784399Y-110303152D02*
X151784399Y-110969819D01*
X151355828Y-110303152D02*
X151355828Y-110826961D01*
X151355828Y-110826961D02*
X151403447Y-110922200D01*
X151403447Y-110922200D02*
X151498685Y-110969819D01*
X151498685Y-110969819D02*
X151641542Y-110969819D01*
X151641542Y-110969819D02*
X151736780Y-110922200D01*
X151736780Y-110922200D02*
X151784399Y-110874580D01*
X152260590Y-110969819D02*
X152260590Y-110303152D01*
X152260590Y-109969819D02*
X152212971Y-110017438D01*
X152212971Y-110017438D02*
X152260590Y-110065057D01*
X152260590Y-110065057D02*
X152308209Y-110017438D01*
X152308209Y-110017438D02*
X152260590Y-109969819D01*
X152260590Y-109969819D02*
X152260590Y-110065057D01*
X152593923Y-110303152D02*
X152974875Y-110303152D01*
X152736780Y-109969819D02*
X152736780Y-110826961D01*
X152736780Y-110826961D02*
X152784399Y-110922200D01*
X152784399Y-110922200D02*
X152879637Y-110969819D01*
X152879637Y-110969819D02*
X152974875Y-110969819D01*
X153260590Y-110922200D02*
X153355828Y-110969819D01*
X153355828Y-110969819D02*
X153546304Y-110969819D01*
X153546304Y-110969819D02*
X153641542Y-110922200D01*
X153641542Y-110922200D02*
X153689161Y-110826961D01*
X153689161Y-110826961D02*
X153689161Y-110779342D01*
X153689161Y-110779342D02*
X153641542Y-110684104D01*
X153641542Y-110684104D02*
X153546304Y-110636485D01*
X153546304Y-110636485D02*
X153403447Y-110636485D01*
X153403447Y-110636485D02*
X153308209Y-110588866D01*
X153308209Y-110588866D02*
X153260590Y-110493628D01*
X153260590Y-110493628D02*
X153260590Y-110446009D01*
X153260590Y-110446009D02*
X153308209Y-110350771D01*
X153308209Y-110350771D02*
X153403447Y-110303152D01*
X153403447Y-110303152D02*
X153546304Y-110303152D01*
X153546304Y-110303152D02*
X153641542Y-110350771D01*
D11*
X127049632Y-104100000D02*
G75*
G03*
X127049632Y-104100000I-249632J0D01*
G01*
X166749632Y-75400000D02*
G75*
G03*
X166749632Y-75400000I-249632J0D01*
G01*
X139949632Y-87500000D02*
G75*
G03*
X139949632Y-87500000I-249632J0D01*
G01*
D10*
X138566666Y-111559819D02*
X138566666Y-112274104D01*
X138566666Y-112274104D02*
X138519047Y-112416961D01*
X138519047Y-112416961D02*
X138423809Y-112512200D01*
X138423809Y-112512200D02*
X138280952Y-112559819D01*
X138280952Y-112559819D02*
X138185714Y-112559819D01*
X138995238Y-111655057D02*
X139042857Y-111607438D01*
X139042857Y-111607438D02*
X139138095Y-111559819D01*
X139138095Y-111559819D02*
X139376190Y-111559819D01*
X139376190Y-111559819D02*
X139471428Y-111607438D01*
X139471428Y-111607438D02*
X139519047Y-111655057D01*
X139519047Y-111655057D02*
X139566666Y-111750295D01*
X139566666Y-111750295D02*
X139566666Y-111845533D01*
X139566666Y-111845533D02*
X139519047Y-111988390D01*
X139519047Y-111988390D02*
X138947619Y-112559819D01*
X138947619Y-112559819D02*
X139566666Y-112559819D01*
D12*
%TO.C,R6*%
X136380000Y-95632379D02*
X136380000Y-95967621D01*
X135620000Y-95632379D02*
X135620000Y-95967621D01*
%TO.C,D14*%
X174026000Y-155448000D02*
X174026000Y-153773000D01*
X174026000Y-155448000D02*
X174026000Y-156098000D01*
X170906000Y-155448000D02*
X170906000Y-154798000D01*
X170906000Y-155448000D02*
X170906000Y-156098000D01*
%TO.C,JP1*%
X127830000Y-81230000D02*
X126500000Y-81230000D01*
X127830000Y-79900000D02*
X127830000Y-81230000D01*
X127830000Y-78630000D02*
X127830000Y-76030000D01*
X127830000Y-78630000D02*
X125170000Y-78630000D01*
X127830000Y-76030000D02*
X125170000Y-76030000D01*
X125170000Y-78630000D02*
X125170000Y-76030000D01*
%TO.C,D29*%
X150586000Y-114808000D02*
X150586000Y-116483000D01*
X150586000Y-114808000D02*
X150586000Y-114158000D01*
X153706000Y-114808000D02*
X153706000Y-115458000D01*
X153706000Y-114808000D02*
X153706000Y-114158000D01*
%TO.C,D74*%
X148626000Y-159512000D02*
X148626000Y-157837000D01*
X148626000Y-159512000D02*
X148626000Y-160162000D01*
X145506000Y-159512000D02*
X145506000Y-158862000D01*
X145506000Y-159512000D02*
X145506000Y-160162000D01*
%TO.C,D2*%
X160746000Y-118872000D02*
X160746000Y-120547000D01*
X160746000Y-118872000D02*
X160746000Y-118222000D01*
X163866000Y-118872000D02*
X163866000Y-119522000D01*
X163866000Y-118872000D02*
X163866000Y-118222000D01*
%TO.C,C5*%
X127541252Y-90785000D02*
X127018748Y-90785000D01*
X127541252Y-89315000D02*
X127018748Y-89315000D01*
%TO.C,Q16*%
X143546000Y-131064000D02*
X143546000Y-129389000D01*
X143546000Y-131064000D02*
X143546000Y-131714000D01*
X140426000Y-131064000D02*
X140426000Y-130414000D01*
X140426000Y-131064000D02*
X140426000Y-131714000D01*
%TO.C,D67*%
X170906000Y-127000000D02*
X170906000Y-128675000D01*
X170906000Y-127000000D02*
X170906000Y-126350000D01*
X174026000Y-127000000D02*
X174026000Y-127650000D01*
X174026000Y-127000000D02*
X174026000Y-126350000D01*
%TO.C,C1*%
X132115835Y-80960000D02*
X131884165Y-80960000D01*
X132115835Y-80240000D02*
X131884165Y-80240000D01*
%TO.C,C10*%
X132240000Y-106215835D02*
X132240000Y-105984165D01*
X132960000Y-106215835D02*
X132960000Y-105984165D01*
%TO.C,D4*%
X170906000Y-114808000D02*
X170906000Y-116483000D01*
X170906000Y-114808000D02*
X170906000Y-114158000D01*
X174026000Y-114808000D02*
X174026000Y-115458000D01*
X174026000Y-114808000D02*
X174026000Y-114158000D01*
%TO.C,D64*%
X133386000Y-147320000D02*
X133386000Y-145645000D01*
X133386000Y-147320000D02*
X133386000Y-147970000D01*
X130266000Y-147320000D02*
X130266000Y-146670000D01*
X130266000Y-147320000D02*
X130266000Y-147970000D01*
D13*
%TO.C,LED_DONE1*%
X127415000Y-91970000D02*
G75*
G03*
X127415000Y-91970000I-50000J0D01*
G01*
D12*
%TO.C,D76*%
X174026000Y-151384000D02*
X174026000Y-149709000D01*
X174026000Y-151384000D02*
X174026000Y-152034000D01*
X170906000Y-151384000D02*
X170906000Y-150734000D01*
X170906000Y-151384000D02*
X170906000Y-152034000D01*
%TO.C,R11*%
X172567621Y-98680000D02*
X172232379Y-98680000D01*
X172567621Y-97920000D02*
X172232379Y-97920000D01*
%TO.C,D20*%
X153706000Y-159512000D02*
X153706000Y-157837000D01*
X153706000Y-159512000D02*
X153706000Y-160162000D01*
X150586000Y-159512000D02*
X150586000Y-158862000D01*
X150586000Y-159512000D02*
X150586000Y-160162000D01*
%TO.C,C19*%
X148415835Y-79260000D02*
X148184165Y-79260000D01*
X148415835Y-78540000D02*
X148184165Y-78540000D01*
%TO.C,D28*%
X168946000Y-159512000D02*
X168946000Y-157837000D01*
X168946000Y-159512000D02*
X168946000Y-160162000D01*
X165826000Y-159512000D02*
X165826000Y-158862000D01*
X165826000Y-159512000D02*
X165826000Y-160162000D01*
%TO.C,C12*%
X136761252Y-86035000D02*
X136238748Y-86035000D01*
X136761252Y-84565000D02*
X136238748Y-84565000D01*
%TO.C,D79*%
X125186000Y-114808000D02*
X125186000Y-116483000D01*
X125186000Y-114808000D02*
X125186000Y-114158000D01*
X128306000Y-114808000D02*
X128306000Y-115458000D01*
X128306000Y-114808000D02*
X128306000Y-114158000D01*
%TO.C,D32*%
X138339000Y-155448000D02*
X138339000Y-153773000D01*
X138339000Y-155448000D02*
X138339000Y-156098000D01*
X135219000Y-155448000D02*
X135219000Y-154798000D01*
X135219000Y-155448000D02*
X135219000Y-156098000D01*
%TO.C,Q33*%
X174026000Y-131064000D02*
X174026000Y-129389000D01*
X174026000Y-131064000D02*
X174026000Y-131714000D01*
X170906000Y-131064000D02*
X170906000Y-130414000D01*
X170906000Y-131064000D02*
X170906000Y-131714000D01*
%TO.C,U6*%
X128951000Y-86583000D02*
X128951000Y-88133000D01*
X127151000Y-88133000D02*
X127151000Y-86833000D01*
%TO.C,R13*%
X164732379Y-78320000D02*
X165067621Y-78320000D01*
X164732379Y-79080000D02*
X165067621Y-79080000D01*
%TO.C,J_JTAG1*%
X139070000Y-87160000D02*
X139070000Y-88485000D01*
X139135000Y-88485000D02*
X139070000Y-88485000D01*
X139135000Y-88485000D02*
X139135000Y-92015000D01*
X131460000Y-88485000D02*
X131395000Y-88485000D01*
X131395000Y-88485000D02*
X131395000Y-92015000D01*
X139135000Y-92015000D02*
X139070000Y-92015000D01*
X131460000Y-92015000D02*
X131395000Y-92015000D01*
%TO.C,R16*%
X152765121Y-78780000D02*
X152429879Y-78780000D01*
X152765121Y-78020000D02*
X152429879Y-78020000D01*
%TO.C,D6*%
X160746000Y-114808000D02*
X160746000Y-116483000D01*
X160746000Y-114808000D02*
X160746000Y-114158000D01*
X163866000Y-114808000D02*
X163866000Y-115458000D01*
X163866000Y-114808000D02*
X163866000Y-114158000D01*
%TO.C,Q9*%
X153706000Y-131064000D02*
X153706000Y-129389000D01*
X153706000Y-131064000D02*
X153706000Y-131714000D01*
X150586000Y-131064000D02*
X150586000Y-130414000D01*
X150586000Y-131064000D02*
X150586000Y-131714000D01*
%TO.C,Q12*%
X128306000Y-131064000D02*
X128306000Y-129389000D01*
X128306000Y-131064000D02*
X128306000Y-131714000D01*
X125186000Y-131064000D02*
X125186000Y-130414000D01*
X125186000Y-131064000D02*
X125186000Y-131714000D01*
%TO.C,C7*%
X126935000Y-83738748D02*
X126935000Y-84261252D01*
X125465000Y-83738748D02*
X125465000Y-84261252D01*
%TO.C,J2*%
X140230000Y-111105000D02*
X138900000Y-111105000D01*
X140230000Y-109775000D02*
X140230000Y-111105000D01*
X140230000Y-108505000D02*
X140230000Y-105905000D01*
X140230000Y-108505000D02*
X137570000Y-108505000D01*
X140230000Y-105905000D02*
X137570000Y-105905000D01*
X137570000Y-108505000D02*
X137570000Y-105905000D01*
%TO.C,D52*%
X153706000Y-151384000D02*
X153706000Y-149709000D01*
X153706000Y-151384000D02*
X153706000Y-152034000D01*
X150586000Y-151384000D02*
X150586000Y-150734000D01*
X150586000Y-151384000D02*
X150586000Y-152034000D01*
%TO.C,D49*%
X135346000Y-127000000D02*
X135346000Y-128675000D01*
X135346000Y-127000000D02*
X135346000Y-126350000D01*
X138466000Y-127000000D02*
X138466000Y-127650000D01*
X138466000Y-127000000D02*
X138466000Y-126350000D01*
%TO.C,Q30*%
X153706000Y-135128000D02*
X153706000Y-133453000D01*
X153706000Y-135128000D02*
X153706000Y-135778000D01*
X150586000Y-135128000D02*
X150586000Y-134478000D01*
X150586000Y-135128000D02*
X150586000Y-135778000D01*
%TO.C,C2*%
X129584165Y-80240000D02*
X129815835Y-80240000D01*
X129584165Y-80960000D02*
X129815835Y-80960000D01*
%TO.C,Q23*%
X143546000Y-135128000D02*
X143546000Y-133453000D01*
X143546000Y-135128000D02*
X143546000Y-135778000D01*
X140426000Y-135128000D02*
X140426000Y-134478000D01*
X140426000Y-135128000D02*
X140426000Y-135778000D01*
%TO.C,R15*%
X126032379Y-104820000D02*
X126367621Y-104820000D01*
X126032379Y-105580000D02*
X126367621Y-105580000D01*
%TO.C,D26*%
X128306000Y-159512000D02*
X128306000Y-157837000D01*
X128306000Y-159512000D02*
X128306000Y-160162000D01*
X125186000Y-159512000D02*
X125186000Y-158862000D01*
X125186000Y-159512000D02*
X125186000Y-160162000D01*
%TO.C,R2*%
X159332379Y-78020000D02*
X159667621Y-78020000D01*
X159332379Y-78780000D02*
X159667621Y-78780000D01*
%TO.C,Q29*%
X158786000Y-139192000D02*
X158786000Y-137517000D01*
X158786000Y-139192000D02*
X158786000Y-139842000D01*
X155666000Y-139192000D02*
X155666000Y-138542000D01*
X155666000Y-139192000D02*
X155666000Y-139842000D01*
%TO.C,Q37*%
X174026000Y-139192000D02*
X174026000Y-137517000D01*
X174026000Y-139192000D02*
X174026000Y-139842000D01*
X170906000Y-139192000D02*
X170906000Y-138542000D01*
X170906000Y-139192000D02*
X170906000Y-139842000D01*
%TO.C,D31*%
X135346000Y-122936000D02*
X135346000Y-124611000D01*
X135346000Y-122936000D02*
X135346000Y-122286000D01*
X138466000Y-122936000D02*
X138466000Y-123586000D01*
X138466000Y-122936000D02*
X138466000Y-122286000D01*
%TO.C,Q3*%
X163866000Y-143256000D02*
X163866000Y-141581000D01*
X163866000Y-143256000D02*
X163866000Y-143906000D01*
X160746000Y-143256000D02*
X160746000Y-142606000D01*
X160746000Y-143256000D02*
X160746000Y-143906000D01*
%TO.C,Q22*%
X168946000Y-143256000D02*
X168946000Y-141581000D01*
X168946000Y-143256000D02*
X168946000Y-143906000D01*
X165826000Y-143256000D02*
X165826000Y-142606000D01*
X165826000Y-143256000D02*
X165826000Y-143906000D01*
%TO.C,C9*%
X154384165Y-95940000D02*
X154615835Y-95940000D01*
X154384165Y-96660000D02*
X154615835Y-96660000D01*
%TO.C,Q8*%
X133386000Y-139192000D02*
X133386000Y-137517000D01*
X133386000Y-139192000D02*
X133386000Y-139842000D01*
X130266000Y-139192000D02*
X130266000Y-138542000D01*
X130266000Y-139192000D02*
X130266000Y-139842000D01*
%TO.C,X1*%
X143275000Y-93900000D02*
X140125000Y-93900000D01*
X140125000Y-93900000D02*
X140125000Y-97700000D01*
%TO.C,D59*%
X155666000Y-118872000D02*
X155666000Y-120547000D01*
X155666000Y-118872000D02*
X155666000Y-118222000D01*
X158786000Y-118872000D02*
X158786000Y-119522000D01*
X158786000Y-118872000D02*
X158786000Y-118222000D01*
%TO.C,U3*%
X129565000Y-108260000D02*
X131365000Y-108260000D01*
X129565000Y-108260000D02*
X128765000Y-108260000D01*
X129565000Y-105140000D02*
X130365000Y-105140000D01*
X129565000Y-105140000D02*
X128765000Y-105140000D01*
%TO.C,Q25*%
X153706000Y-139192000D02*
X153706000Y-137517000D01*
X153706000Y-139192000D02*
X153706000Y-139842000D01*
X150586000Y-139192000D02*
X150586000Y-138542000D01*
X150586000Y-139192000D02*
X150586000Y-139842000D01*
%TO.C,D65*%
X145506000Y-118872000D02*
X145506000Y-120547000D01*
X145506000Y-118872000D02*
X145506000Y-118222000D01*
X148626000Y-118872000D02*
X148626000Y-119522000D01*
X148626000Y-118872000D02*
X148626000Y-118222000D01*
%TO.C,Q14*%
X153706000Y-143256000D02*
X153706000Y-141581000D01*
X153706000Y-143256000D02*
X153706000Y-143906000D01*
X150586000Y-143256000D02*
X150586000Y-142606000D01*
X150586000Y-143256000D02*
X150586000Y-143906000D01*
%TO.C,D73*%
X145506000Y-127000000D02*
X145506000Y-128675000D01*
X145506000Y-127000000D02*
X145506000Y-126350000D01*
X148626000Y-127000000D02*
X148626000Y-127650000D01*
X148626000Y-127000000D02*
X148626000Y-126350000D01*
%TO.C,C14*%
X171316665Y-90940000D02*
X171548335Y-90940000D01*
X171316665Y-91660000D02*
X171548335Y-91660000D01*
%TO.C,Q19*%
X143546000Y-143256000D02*
X143546000Y-141581000D01*
X143546000Y-143256000D02*
X143546000Y-143906000D01*
X140426000Y-143256000D02*
X140426000Y-142606000D01*
X140426000Y-143256000D02*
X140426000Y-143906000D01*
%TO.C,D68*%
X174026000Y-159512000D02*
X174026000Y-157837000D01*
X174026000Y-159512000D02*
X174026000Y-160162000D01*
X170906000Y-159512000D02*
X170906000Y-158862000D01*
X170906000Y-159512000D02*
X170906000Y-160162000D01*
%TO.C,L1*%
X129520000Y-84241252D02*
X129520000Y-83718748D01*
X131740000Y-84241252D02*
X131740000Y-83718748D01*
%TO.C,C21*%
X158060000Y-88084165D02*
X158060000Y-88315835D01*
X157340000Y-88084165D02*
X157340000Y-88315835D01*
%TO.C,R8*%
X164732379Y-79620000D02*
X165067621Y-79620000D01*
X164732379Y-80380000D02*
X165067621Y-80380000D01*
%TO.C,U7*%
X169925000Y-92035000D02*
X166475000Y-92035000D01*
X169925000Y-92035000D02*
X171875000Y-92035000D01*
X169925000Y-97155000D02*
X167975000Y-97155000D01*
X169925000Y-97155000D02*
X171875000Y-97155000D01*
%TO.C,Q6*%
X174026000Y-135128000D02*
X174026000Y-133453000D01*
X174026000Y-135128000D02*
X174026000Y-135778000D01*
X170906000Y-135128000D02*
X170906000Y-134478000D01*
X170906000Y-135128000D02*
X170906000Y-135778000D01*
%TO.C,Q18*%
X163866000Y-135128000D02*
X163866000Y-133453000D01*
X163866000Y-135128000D02*
X163866000Y-135778000D01*
X160746000Y-135128000D02*
X160746000Y-134478000D01*
X160746000Y-135128000D02*
X160746000Y-135778000D01*
%TO.C,Q41*%
X128306000Y-139192000D02*
X128306000Y-137517000D01*
X128306000Y-139192000D02*
X128306000Y-139842000D01*
X125186000Y-139192000D02*
X125186000Y-138542000D01*
X125186000Y-139192000D02*
X125186000Y-139842000D01*
%TO.C,C11*%
X142160000Y-82084165D02*
X142160000Y-82315835D01*
X141440000Y-82084165D02*
X141440000Y-82315835D01*
%TO.C,Q1*%
X163866000Y-139192000D02*
X163866000Y-137517000D01*
X163866000Y-139192000D02*
X163866000Y-139842000D01*
X160746000Y-139192000D02*
X160746000Y-138542000D01*
X160746000Y-139192000D02*
X160746000Y-139842000D01*
%TO.C,Q21*%
X163866000Y-131064000D02*
X163866000Y-129389000D01*
X163866000Y-131064000D02*
X163866000Y-131714000D01*
X160746000Y-131064000D02*
X160746000Y-130414000D01*
X160746000Y-131064000D02*
X160746000Y-131714000D01*
%TO.C,D34*%
X143546000Y-159512000D02*
X143546000Y-157837000D01*
X143546000Y-159512000D02*
X143546000Y-160162000D01*
X140426000Y-159512000D02*
X140426000Y-158862000D01*
X140426000Y-159512000D02*
X140426000Y-160162000D01*
%TO.C,C20*%
X143740000Y-81115835D02*
X143740000Y-80884165D01*
X144460000Y-81115835D02*
X144460000Y-80884165D01*
%TO.C,D63*%
X130266000Y-114808000D02*
X130266000Y-116483000D01*
X130266000Y-114808000D02*
X130266000Y-114158000D01*
X133386000Y-114808000D02*
X133386000Y-115458000D01*
X133386000Y-114808000D02*
X133386000Y-114158000D01*
%TO.C,D42*%
X143546000Y-151384000D02*
X143546000Y-149709000D01*
X143546000Y-151384000D02*
X143546000Y-152034000D01*
X140426000Y-151384000D02*
X140426000Y-150734000D01*
X140426000Y-151384000D02*
X140426000Y-152034000D01*
%TO.C,Q7*%
X148626000Y-143256000D02*
X148626000Y-141581000D01*
X148626000Y-143256000D02*
X148626000Y-143906000D01*
X145506000Y-143256000D02*
X145506000Y-142606000D01*
X145506000Y-143256000D02*
X145506000Y-143906000D01*
%TO.C,Q20*%
X143546000Y-139192000D02*
X143546000Y-137517000D01*
X143546000Y-139192000D02*
X143546000Y-139842000D01*
X140426000Y-139192000D02*
X140426000Y-138542000D01*
X140426000Y-139192000D02*
X140426000Y-139842000D01*
%TO.C,D55*%
X125186000Y-122936000D02*
X125186000Y-124611000D01*
X125186000Y-122936000D02*
X125186000Y-122286000D01*
X128306000Y-122936000D02*
X128306000Y-123586000D01*
X128306000Y-122936000D02*
X128306000Y-122286000D01*
%TO.C,D70*%
X158786000Y-155448000D02*
X158786000Y-153773000D01*
X158786000Y-155448000D02*
X158786000Y-156098000D01*
X155666000Y-155448000D02*
X155666000Y-154798000D01*
X155666000Y-155448000D02*
X155666000Y-156098000D01*
%TO.C,Q11*%
X138466000Y-143256000D02*
X138466000Y-141581000D01*
X138466000Y-143256000D02*
X138466000Y-143906000D01*
X135346000Y-143256000D02*
X135346000Y-142606000D01*
X135346000Y-143256000D02*
X135346000Y-143906000D01*
%TO.C,Q38*%
X148626000Y-135128000D02*
X148626000Y-133453000D01*
X148626000Y-135128000D02*
X148626000Y-135778000D01*
X145506000Y-135128000D02*
X145506000Y-134478000D01*
X145506000Y-135128000D02*
X145506000Y-135778000D01*
%TO.C,R14*%
X126032379Y-105820000D02*
X126367621Y-105820000D01*
X126032379Y-106580000D02*
X126367621Y-106580000D01*
%TO.C,D69*%
X155666000Y-122936000D02*
X155666000Y-124611000D01*
X155666000Y-122936000D02*
X155666000Y-122286000D01*
X158786000Y-122936000D02*
X158786000Y-123586000D01*
X158786000Y-122936000D02*
X158786000Y-122286000D01*
%TO.C,D30*%
X153706000Y-147320000D02*
X153706000Y-145645000D01*
X153706000Y-147320000D02*
X153706000Y-147970000D01*
X150586000Y-147320000D02*
X150586000Y-146670000D01*
X150586000Y-147320000D02*
X150586000Y-147970000D01*
%TO.C,C3*%
X126069165Y-107540000D02*
X126300835Y-107540000D01*
X126069165Y-108260000D02*
X126300835Y-108260000D01*
%TO.C,D47*%
X140426000Y-122936000D02*
X140426000Y-124611000D01*
X140426000Y-122936000D02*
X140426000Y-122286000D01*
X143546000Y-122936000D02*
X143546000Y-123586000D01*
X143546000Y-122936000D02*
X143546000Y-122286000D01*
%TO.C,C15*%
X155984165Y-92540000D02*
X156215835Y-92540000D01*
X155984165Y-93260000D02*
X156215835Y-93260000D01*
%TO.C,Q39*%
X128306000Y-143256000D02*
X128306000Y-141581000D01*
X128306000Y-143256000D02*
X128306000Y-143906000D01*
X125186000Y-143256000D02*
X125186000Y-142606000D01*
X125186000Y-143256000D02*
X125186000Y-143906000D01*
%TO.C,R7*%
X171632379Y-110620000D02*
X171967621Y-110620000D01*
X171632379Y-111380000D02*
X171967621Y-111380000D01*
%TO.C,D15*%
X145506000Y-114808000D02*
X145506000Y-116483000D01*
X145506000Y-114808000D02*
X145506000Y-114158000D01*
X148626000Y-114808000D02*
X148626000Y-115458000D01*
X148626000Y-114808000D02*
X148626000Y-114158000D01*
%TO.C,D51*%
X150586000Y-118872000D02*
X150586000Y-120547000D01*
X150586000Y-118872000D02*
X150586000Y-118222000D01*
X153706000Y-118872000D02*
X153706000Y-119522000D01*
X153706000Y-118872000D02*
X153706000Y-118222000D01*
%TO.C,C23*%
X155384165Y-81240000D02*
X155615835Y-81240000D01*
X155384165Y-81960000D02*
X155615835Y-81960000D01*
%TO.C,C17*%
X140440000Y-92715835D02*
X140440000Y-92484165D01*
X141160000Y-92715835D02*
X141160000Y-92484165D01*
%TO.C,D37*%
X160746000Y-122936000D02*
X160746000Y-124611000D01*
X160746000Y-122936000D02*
X160746000Y-122286000D01*
X163866000Y-122936000D02*
X163866000Y-123586000D01*
X163866000Y-122936000D02*
X163866000Y-122286000D01*
%TO.C,Q32*%
X148626000Y-139192000D02*
X148626000Y-137517000D01*
X148626000Y-139192000D02*
X148626000Y-139842000D01*
X145506000Y-139192000D02*
X145506000Y-138542000D01*
X145506000Y-139192000D02*
X145506000Y-139842000D01*
%TO.C,Q28*%
X138466000Y-139192000D02*
X138466000Y-137517000D01*
X138466000Y-139192000D02*
X138466000Y-139842000D01*
X135346000Y-139192000D02*
X135346000Y-138542000D01*
X135346000Y-139192000D02*
X135346000Y-139842000D01*
%TO.C,D60*%
X158786000Y-151384000D02*
X158786000Y-149709000D01*
X158786000Y-151384000D02*
X158786000Y-152034000D01*
X155666000Y-151384000D02*
X155666000Y-150734000D01*
X155666000Y-151384000D02*
X155666000Y-152034000D01*
%TO.C,D44*%
X163866000Y-159512000D02*
X163866000Y-157837000D01*
X163866000Y-159512000D02*
X163866000Y-160162000D01*
X160746000Y-159512000D02*
X160746000Y-158862000D01*
X160746000Y-159512000D02*
X160746000Y-160162000D01*
%TO.C,D38*%
X163866000Y-155448000D02*
X163866000Y-153773000D01*
X163866000Y-155448000D02*
X163866000Y-156098000D01*
X160746000Y-155448000D02*
X160746000Y-154798000D01*
X160746000Y-155448000D02*
X160746000Y-156098000D01*
%TO.C,D46*%
X168946000Y-147320000D02*
X168946000Y-145645000D01*
X168946000Y-147320000D02*
X168946000Y-147970000D01*
X165826000Y-147320000D02*
X165826000Y-146670000D01*
X165826000Y-147320000D02*
X165826000Y-147970000D01*
%TO.C,D54*%
X168946000Y-155448000D02*
X168946000Y-153773000D01*
X168946000Y-155448000D02*
X168946000Y-156098000D01*
X165826000Y-155448000D02*
X165826000Y-154798000D01*
X165826000Y-155448000D02*
X165826000Y-156098000D01*
%TO.C,D9*%
X133386000Y-159512000D02*
X133386000Y-157837000D01*
X133386000Y-159512000D02*
X133386000Y-160162000D01*
X130266000Y-159512000D02*
X130266000Y-158862000D01*
X130266000Y-159512000D02*
X130266000Y-160162000D01*
%TO.C,Q26*%
X168946000Y-135128000D02*
X168946000Y-133453000D01*
X168946000Y-135128000D02*
X168946000Y-135778000D01*
X165826000Y-135128000D02*
X165826000Y-134478000D01*
X165826000Y-135128000D02*
X165826000Y-135778000D01*
%TO.C,Q35*%
X133386000Y-135128000D02*
X133386000Y-133453000D01*
X133386000Y-135128000D02*
X133386000Y-135778000D01*
X130266000Y-135128000D02*
X130266000Y-134478000D01*
X130266000Y-135128000D02*
X130266000Y-135778000D01*
%TO.C,D62*%
X153706000Y-155448000D02*
X153706000Y-153773000D01*
X153706000Y-155448000D02*
X153706000Y-156098000D01*
X150586000Y-155448000D02*
X150586000Y-154798000D01*
X150586000Y-155448000D02*
X150586000Y-156098000D01*
%TO.C,Q17*%
X168946000Y-139192000D02*
X168946000Y-137517000D01*
X168946000Y-139192000D02*
X168946000Y-139842000D01*
X165826000Y-139192000D02*
X165826000Y-138542000D01*
X165826000Y-139192000D02*
X165826000Y-139842000D01*
%TO.C,U2*%
X129240000Y-78100000D02*
X129240000Y-79775000D01*
X129240000Y-78100000D02*
X129240000Y-77450000D01*
X132360000Y-78100000D02*
X132360000Y-78750000D01*
X132360000Y-78100000D02*
X132360000Y-77450000D01*
%TO.C,Q34*%
X158786000Y-135128000D02*
X158786000Y-133453000D01*
X158786000Y-135128000D02*
X158786000Y-135778000D01*
X155666000Y-135128000D02*
X155666000Y-134478000D01*
X155666000Y-135128000D02*
X155666000Y-135778000D01*
%TO.C,U4*%
X170040000Y-77850000D02*
X166590000Y-77850000D01*
X170040000Y-77850000D02*
X171990000Y-77850000D01*
X170040000Y-82970000D02*
X168090000Y-82970000D01*
X170040000Y-82970000D02*
X171990000Y-82970000D01*
D14*
%TO.C,U1*%
X155225000Y-82780500D02*
X154855000Y-82780500D01*
X155225000Y-82780500D02*
X155225000Y-83150500D01*
X144225000Y-82780500D02*
X144595000Y-82780500D01*
X144225000Y-82780500D02*
X144225000Y-83150500D01*
X154225000Y-92780500D02*
X154225000Y-92410500D01*
X154225000Y-92780500D02*
X153855000Y-92780500D01*
X144225000Y-92780500D02*
X144225000Y-92410500D01*
X144225000Y-92780500D02*
X144595000Y-92780500D01*
D15*
X154151000Y-82065500D02*
G75*
G03*
X154151000Y-82065500I-100000J0D01*
G01*
D12*
%TO.C,D22*%
X158786000Y-147320000D02*
X158786000Y-145645000D01*
X158786000Y-147320000D02*
X158786000Y-147970000D01*
X155666000Y-147320000D02*
X155666000Y-146670000D01*
X155666000Y-147320000D02*
X155666000Y-147970000D01*
%TO.C,D13*%
X170906000Y-122936000D02*
X170906000Y-124611000D01*
X170906000Y-122936000D02*
X170906000Y-122286000D01*
X174026000Y-122936000D02*
X174026000Y-123586000D01*
X174026000Y-122936000D02*
X174026000Y-122286000D01*
%TO.C,D75*%
X170906000Y-118872000D02*
X170906000Y-120547000D01*
X170906000Y-118872000D02*
X170906000Y-118222000D01*
X174026000Y-118872000D02*
X174026000Y-119522000D01*
X174026000Y-118872000D02*
X174026000Y-118222000D01*
%TO.C,D33*%
X140426000Y-127000000D02*
X140426000Y-128675000D01*
X140426000Y-127000000D02*
X140426000Y-126350000D01*
X143546000Y-127000000D02*
X143546000Y-127650000D01*
X143546000Y-127000000D02*
X143546000Y-126350000D01*
%TO.C,C18*%
X144432500Y-94644165D02*
X144432500Y-94875835D01*
X143712500Y-94644165D02*
X143712500Y-94875835D01*
%TO.C,D5*%
X174026000Y-147320000D02*
X174026000Y-145645000D01*
X174026000Y-147320000D02*
X174026000Y-147970000D01*
X170906000Y-147320000D02*
X170906000Y-146670000D01*
X170906000Y-147320000D02*
X170906000Y-147970000D01*
%TO.C,D7*%
X163866000Y-147320000D02*
X163866000Y-145645000D01*
X163866000Y-147320000D02*
X163866000Y-147970000D01*
X160746000Y-147320000D02*
X160746000Y-146670000D01*
X160746000Y-147320000D02*
X160746000Y-147970000D01*
%TO.C,J_DISPLAY3*%
X160000000Y-92600000D02*
X162000000Y-92600000D01*
X160000000Y-92600000D02*
X160000000Y-90600000D01*
X165100000Y-92600000D02*
X164100000Y-92600000D01*
X165100000Y-92600000D02*
X165100000Y-82400000D01*
X165800000Y-92300000D02*
X165100000Y-92300000D01*
X158800000Y-90450000D02*
X159100000Y-90250000D01*
X159100000Y-90250000D02*
X158800000Y-90050000D01*
X158800000Y-90050000D02*
X158800000Y-90450000D01*
X165100000Y-82700000D02*
X165800000Y-82700000D01*
X165800000Y-82700000D02*
X165800000Y-92300000D01*
X160000000Y-82400000D02*
X160000000Y-84400000D01*
X162000000Y-82400000D02*
X160000000Y-82400000D01*
X165100000Y-82400000D02*
X164100000Y-82400000D01*
%TO.C,D12*%
X158786000Y-159512000D02*
X158786000Y-157837000D01*
X158786000Y-159512000D02*
X158786000Y-160162000D01*
X155666000Y-159512000D02*
X155666000Y-158862000D01*
X155666000Y-159512000D02*
X155666000Y-160162000D01*
%TO.C,D43*%
X160746000Y-127000000D02*
X160746000Y-128675000D01*
X160746000Y-127000000D02*
X160746000Y-126350000D01*
X163866000Y-127000000D02*
X163866000Y-127650000D01*
X163866000Y-127000000D02*
X163866000Y-126350000D01*
%TO.C,Q4*%
X133386000Y-131064000D02*
X133386000Y-129389000D01*
X133386000Y-131064000D02*
X133386000Y-131714000D01*
X130266000Y-131064000D02*
X130266000Y-130414000D01*
X130266000Y-131064000D02*
X130266000Y-131714000D01*
%TO.C,D18*%
X133386000Y-151384000D02*
X133386000Y-149709000D01*
X133386000Y-151384000D02*
X133386000Y-152034000D01*
X130266000Y-151384000D02*
X130266000Y-150734000D01*
X130266000Y-151384000D02*
X130266000Y-152034000D01*
%TO.C,R10*%
X170432379Y-76620000D02*
X170767621Y-76620000D01*
X170432379Y-77380000D02*
X170767621Y-77380000D01*
%TO.C,R3*%
X159667621Y-79880000D02*
X159332379Y-79880000D01*
X159667621Y-79120000D02*
X159332379Y-79120000D01*
%TO.C,JP4*%
X133670000Y-105895000D02*
X135000000Y-105895000D01*
X133670000Y-107225000D02*
X133670000Y-105895000D01*
X133670000Y-108495000D02*
X133670000Y-111095000D01*
X133670000Y-108495000D02*
X136330000Y-108495000D01*
X133670000Y-111095000D02*
X136330000Y-111095000D01*
X136330000Y-108495000D02*
X136330000Y-111095000D01*
%TO.C,D39*%
X140426000Y-114808000D02*
X140426000Y-116483000D01*
X140426000Y-114808000D02*
X140426000Y-114158000D01*
X143546000Y-114808000D02*
X143546000Y-115458000D01*
X143546000Y-114808000D02*
X143546000Y-114158000D01*
%TO.C,D80*%
X128306000Y-147320000D02*
X128306000Y-145645000D01*
X128306000Y-147320000D02*
X128306000Y-147970000D01*
X125186000Y-147320000D02*
X125186000Y-146670000D01*
X125186000Y-147320000D02*
X125186000Y-147970000D01*
%TO.C,D11*%
X155666000Y-127000000D02*
X155666000Y-128675000D01*
X155666000Y-127000000D02*
X155666000Y-126350000D01*
X158786000Y-127000000D02*
X158786000Y-127650000D01*
X158786000Y-127000000D02*
X158786000Y-126350000D01*
%TO.C,D48*%
X143546000Y-155448000D02*
X143546000Y-153773000D01*
X143546000Y-155448000D02*
X143546000Y-156098000D01*
X140426000Y-155448000D02*
X140426000Y-154798000D01*
X140426000Y-155448000D02*
X140426000Y-156098000D01*
%TO.C,Q24*%
X138466000Y-131064000D02*
X138466000Y-129389000D01*
X138466000Y-131064000D02*
X138466000Y-131714000D01*
X135346000Y-131064000D02*
X135346000Y-130414000D01*
X135346000Y-131064000D02*
X135346000Y-131714000D01*
%TO.C,Q15*%
X138466000Y-135128000D02*
X138466000Y-133453000D01*
X138466000Y-135128000D02*
X138466000Y-135778000D01*
X135346000Y-135128000D02*
X135346000Y-134478000D01*
X135346000Y-135128000D02*
X135346000Y-135778000D01*
%TO.C,C16*%
X164916665Y-80972500D02*
X165148335Y-80972500D01*
X164916665Y-81692500D02*
X165148335Y-81692500D01*
%TO.C,C13*%
X150260000Y-96484165D02*
X150260000Y-96715835D01*
X149540000Y-96484165D02*
X149540000Y-96715835D01*
%TO.C,D35*%
X165826000Y-118872000D02*
X165826000Y-120547000D01*
X165826000Y-118872000D02*
X165826000Y-118222000D01*
X168946000Y-118872000D02*
X168946000Y-119522000D01*
X168946000Y-118872000D02*
X168946000Y-118222000D01*
%TO.C,JP3*%
X133830000Y-83430000D02*
X133830000Y-82100000D01*
X135160000Y-83430000D02*
X133830000Y-83430000D01*
X136430000Y-83430000D02*
X139030000Y-83430000D01*
X136430000Y-83430000D02*
X136430000Y-80770000D01*
X139030000Y-83430000D02*
X139030000Y-80770000D01*
X136430000Y-80770000D02*
X139030000Y-80770000D01*
%TO.C,D77*%
X145506000Y-122936000D02*
X145506000Y-124611000D01*
X145506000Y-122936000D02*
X145506000Y-122286000D01*
X148626000Y-122936000D02*
X148626000Y-123586000D01*
X148626000Y-122936000D02*
X148626000Y-122286000D01*
%TO.C,Q2*%
X174026000Y-143256000D02*
X174026000Y-141581000D01*
X174026000Y-143256000D02*
X174026000Y-143906000D01*
X170906000Y-143256000D02*
X170906000Y-142606000D01*
X170906000Y-143256000D02*
X170906000Y-143906000D01*
%TO.C,D36*%
X168946000Y-151384000D02*
X168946000Y-149709000D01*
X168946000Y-151384000D02*
X168946000Y-152034000D01*
X165826000Y-151384000D02*
X165826000Y-150734000D01*
X165826000Y-151384000D02*
X165826000Y-152034000D01*
%TO.C,D50*%
X138466000Y-159512000D02*
X138466000Y-157837000D01*
X138466000Y-159512000D02*
X138466000Y-160162000D01*
X135346000Y-159512000D02*
X135346000Y-158862000D01*
X135346000Y-159512000D02*
X135346000Y-160162000D01*
%TO.C,D40*%
X143546000Y-147320000D02*
X143546000Y-145645000D01*
X143546000Y-147320000D02*
X143546000Y-147970000D01*
X140426000Y-147320000D02*
X140426000Y-146670000D01*
X140426000Y-147320000D02*
X140426000Y-147970000D01*
%TO.C,D21*%
X155666000Y-114808000D02*
X155666000Y-116483000D01*
X155666000Y-114808000D02*
X155666000Y-114158000D01*
X158786000Y-114808000D02*
X158786000Y-115458000D01*
X158786000Y-114808000D02*
X158786000Y-114158000D01*
%TO.C,JP2*%
X125695000Y-111730000D02*
X125695000Y-110400000D01*
X127025000Y-111730000D02*
X125695000Y-111730000D01*
X128295000Y-111730000D02*
X130895000Y-111730000D01*
X128295000Y-111730000D02*
X128295000Y-109070000D01*
X130895000Y-111730000D02*
X130895000Y-109070000D01*
X128295000Y-109070000D02*
X130895000Y-109070000D01*
%TO.C,R1*%
X126267621Y-93380000D02*
X125932379Y-93380000D01*
X126267621Y-92620000D02*
X125932379Y-92620000D01*
%TO.C,Q27*%
X128306000Y-135128000D02*
X128306000Y-133453000D01*
X128306000Y-135128000D02*
X128306000Y-135778000D01*
X125186000Y-135128000D02*
X125186000Y-134478000D01*
X125186000Y-135128000D02*
X125186000Y-135778000D01*
%TO.C,D56*%
X128306000Y-155448000D02*
X128306000Y-153773000D01*
X128306000Y-155448000D02*
X128306000Y-156098000D01*
X125186000Y-155448000D02*
X125186000Y-154798000D01*
X125186000Y-155448000D02*
X125186000Y-156098000D01*
%TO.C,D23*%
X135346000Y-114808000D02*
X135346000Y-116483000D01*
X135346000Y-114808000D02*
X135346000Y-114158000D01*
X138466000Y-114808000D02*
X138466000Y-115458000D01*
X138466000Y-114808000D02*
X138466000Y-114158000D01*
%TO.C,C8*%
X128932000Y-83738748D02*
X128932000Y-84261252D01*
X127462000Y-83738748D02*
X127462000Y-84261252D01*
%TO.C,D10*%
X128306000Y-151384000D02*
X128306000Y-149709000D01*
X128306000Y-151384000D02*
X128306000Y-152034000D01*
X125186000Y-151384000D02*
X125186000Y-150734000D01*
X125186000Y-151384000D02*
X125186000Y-152034000D01*
%TO.C,J_EXT2*%
X124860000Y-103760000D02*
X124860000Y-102430000D01*
X126190000Y-103760000D02*
X124860000Y-103760000D01*
X127460000Y-103760000D02*
X160540000Y-103760000D01*
X127460000Y-103760000D02*
X127460000Y-101160000D01*
X160540000Y-103760000D02*
X160540000Y-98560000D01*
X124860000Y-101160000D02*
X124860000Y-98560000D01*
X127460000Y-101160000D02*
X124860000Y-101160000D01*
X124860000Y-98560000D02*
X160540000Y-98560000D01*
D16*
%TO.C,J_EXT1*%
X168763500Y-110242400D02*
X171159446Y-110242400D01*
X168763500Y-109296452D02*
X168763500Y-110242400D01*
X168763500Y-99777600D02*
X168763500Y-100723548D01*
X171159446Y-99777600D02*
X168763500Y-99777600D01*
D15*
X173168500Y-108910000D02*
G75*
G03*
X173168500Y-108910000I-100000J0D01*
G01*
D12*
%TO.C,C22*%
X154851665Y-93740000D02*
X155083335Y-93740000D01*
X154851665Y-94460000D02*
X155083335Y-94460000D01*
%TO.C,D3*%
X163866000Y-151384000D02*
X163866000Y-149709000D01*
X163866000Y-151384000D02*
X163866000Y-152034000D01*
X160746000Y-151384000D02*
X160746000Y-150734000D01*
X160746000Y-151384000D02*
X160746000Y-152034000D01*
%TO.C,D72*%
X133386000Y-155448000D02*
X133386000Y-153773000D01*
X133386000Y-155448000D02*
X133386000Y-156098000D01*
X130266000Y-155448000D02*
X130266000Y-154798000D01*
X130266000Y-155448000D02*
X130266000Y-156098000D01*
%TO.C,Q5*%
X158786000Y-131064000D02*
X158786000Y-129389000D01*
X158786000Y-131064000D02*
X158786000Y-131714000D01*
X155666000Y-131064000D02*
X155666000Y-130414000D01*
X155666000Y-131064000D02*
X155666000Y-131714000D01*
%TO.C,D16*%
X148626000Y-147320000D02*
X148626000Y-145645000D01*
X148626000Y-147320000D02*
X148626000Y-147970000D01*
X145506000Y-147320000D02*
X145506000Y-146670000D01*
X145506000Y-147320000D02*
X145506000Y-147970000D01*
%TO.C,R4*%
X130082000Y-87061379D02*
X130082000Y-87396621D01*
X129322000Y-87061379D02*
X129322000Y-87396621D01*
%TO.C,R5*%
X130082000Y-89347379D02*
X130082000Y-89682621D01*
X129322000Y-89347379D02*
X129322000Y-89682621D01*
%TO.C,D53*%
X165826000Y-122936000D02*
X165826000Y-124611000D01*
X165826000Y-122936000D02*
X165826000Y-122286000D01*
X168946000Y-122936000D02*
X168946000Y-123586000D01*
X168946000Y-122936000D02*
X168946000Y-122286000D01*
%TO.C,D66*%
X148626000Y-151384000D02*
X148626000Y-149709000D01*
X148626000Y-151384000D02*
X148626000Y-152034000D01*
X145506000Y-151384000D02*
X145506000Y-150734000D01*
X145506000Y-151384000D02*
X145506000Y-152034000D01*
%TO.C,D41*%
X140426000Y-118872000D02*
X140426000Y-120547000D01*
X140426000Y-118872000D02*
X140426000Y-118222000D01*
X143546000Y-118872000D02*
X143546000Y-119522000D01*
X143546000Y-118872000D02*
X143546000Y-118222000D01*
%TO.C,Q36*%
X148626000Y-131064000D02*
X148626000Y-129389000D01*
X148626000Y-131064000D02*
X148626000Y-131714000D01*
X145506000Y-131064000D02*
X145506000Y-130414000D01*
X145506000Y-131064000D02*
X145506000Y-131714000D01*
%TO.C,D27*%
X165826000Y-127000000D02*
X165826000Y-128675000D01*
X165826000Y-127000000D02*
X165826000Y-126350000D01*
X168946000Y-127000000D02*
X168946000Y-127650000D01*
X168946000Y-127000000D02*
X168946000Y-126350000D01*
%TO.C,D17*%
X130266000Y-118872000D02*
X130266000Y-120547000D01*
X130266000Y-118872000D02*
X130266000Y-118222000D01*
X133386000Y-118872000D02*
X133386000Y-119522000D01*
X133386000Y-118872000D02*
X133386000Y-118222000D01*
%TO.C,R12*%
X151667621Y-97880000D02*
X151332379Y-97880000D01*
X151667621Y-97120000D02*
X151332379Y-97120000D01*
%TO.C,Q31*%
X133386000Y-143256000D02*
X133386000Y-141581000D01*
X133386000Y-143256000D02*
X133386000Y-143906000D01*
X130266000Y-143256000D02*
X130266000Y-142606000D01*
X130266000Y-143256000D02*
X130266000Y-143906000D01*
%TO.C,D19*%
X150586000Y-127000000D02*
X150586000Y-128675000D01*
X150586000Y-127000000D02*
X150586000Y-126350000D01*
X153706000Y-127000000D02*
X153706000Y-127650000D01*
X153706000Y-127000000D02*
X153706000Y-126350000D01*
%TO.C,D24*%
X138339000Y-147320000D02*
X138339000Y-145645000D01*
X138339000Y-147320000D02*
X138339000Y-147970000D01*
X135219000Y-147320000D02*
X135219000Y-146670000D01*
X135219000Y-147320000D02*
X135219000Y-147970000D01*
%TO.C,D57*%
X135346000Y-118872000D02*
X135346000Y-120547000D01*
X135346000Y-118872000D02*
X135346000Y-118222000D01*
X138466000Y-118872000D02*
X138466000Y-119522000D01*
X138466000Y-118872000D02*
X138466000Y-118222000D01*
%TO.C,C4*%
X141160000Y-82084165D02*
X141160000Y-82315835D01*
X140440000Y-82084165D02*
X140440000Y-82315835D01*
%TO.C,R9*%
X156732379Y-95120000D02*
X157067621Y-95120000D01*
X156732379Y-95880000D02*
X157067621Y-95880000D01*
%TO.C,Q10*%
X158786000Y-143256000D02*
X158786000Y-141581000D01*
X158786000Y-143256000D02*
X158786000Y-143906000D01*
X155666000Y-143256000D02*
X155666000Y-142606000D01*
X155666000Y-143256000D02*
X155666000Y-143906000D01*
%TO.C,D78*%
X148626000Y-155448000D02*
X148626000Y-153773000D01*
X148626000Y-155448000D02*
X148626000Y-156098000D01*
X145506000Y-155448000D02*
X145506000Y-154798000D01*
X145506000Y-155448000D02*
X145506000Y-156098000D01*
%TO.C,SOCKET1*%
D17*
X125442500Y-162814000D02*
G75*
G03*
X125442500Y-162814000I-220500J0D01*
G01*
D12*
%TO.C,D58*%
X138466000Y-151384000D02*
X138466000Y-149709000D01*
X138466000Y-151384000D02*
X138466000Y-152034000D01*
X135346000Y-151384000D02*
X135346000Y-150734000D01*
X135346000Y-151384000D02*
X135346000Y-152034000D01*
%TO.C,D45*%
X165826000Y-114808000D02*
X165826000Y-116483000D01*
X165826000Y-114808000D02*
X165826000Y-114158000D01*
X168946000Y-114808000D02*
X168946000Y-115458000D01*
X168946000Y-114808000D02*
X168946000Y-114158000D01*
%TO.C,C6*%
X126060000Y-88055835D02*
X126060000Y-87824165D01*
X126780000Y-88055835D02*
X126780000Y-87824165D01*
%TO.C,D8*%
X130266000Y-127000000D02*
X130266000Y-128675000D01*
X130266000Y-127000000D02*
X130266000Y-126350000D01*
X133386000Y-127000000D02*
X133386000Y-127650000D01*
X133386000Y-127000000D02*
X133386000Y-126350000D01*
%TO.C,D25*%
X125186000Y-127000000D02*
X125186000Y-128675000D01*
X125186000Y-127000000D02*
X125186000Y-126350000D01*
X128306000Y-127000000D02*
X128306000Y-127650000D01*
X128306000Y-127000000D02*
X128306000Y-126350000D01*
%TO.C,D71*%
X130266000Y-122936000D02*
X130266000Y-124611000D01*
X130266000Y-122936000D02*
X130266000Y-122286000D01*
X133386000Y-122936000D02*
X133386000Y-123586000D01*
X133386000Y-122936000D02*
X133386000Y-122286000D01*
%TO.C,D1*%
X125186000Y-118872000D02*
X125186000Y-120547000D01*
X125186000Y-118872000D02*
X125186000Y-118222000D01*
X128306000Y-118872000D02*
X128306000Y-119522000D01*
X128306000Y-118872000D02*
X128306000Y-118222000D01*
%TO.C,Q13*%
X168946000Y-131064000D02*
X168946000Y-129389000D01*
X168946000Y-131064000D02*
X168946000Y-131714000D01*
X165826000Y-131064000D02*
X165826000Y-130414000D01*
X165826000Y-131064000D02*
X165826000Y-131714000D01*
%TO.C,D61*%
X150586000Y-122936000D02*
X150586000Y-124611000D01*
X150586000Y-122936000D02*
X150586000Y-122286000D01*
X153706000Y-122936000D02*
X153706000Y-123586000D01*
X153706000Y-122936000D02*
X153706000Y-122286000D01*
%TO.C,J_DISPLAY2*%
X165430000Y-74070000D02*
X165430000Y-75400000D01*
X164100000Y-74070000D02*
X165430000Y-74070000D01*
X162830000Y-74070000D02*
X134830000Y-74070000D01*
X162830000Y-74070000D02*
X162830000Y-76730000D01*
X134830000Y-74070000D02*
X134830000Y-76730000D01*
X162830000Y-76730000D02*
X134830000Y-76730000D01*
%TD*%
M02*
