M48
; DRILL file {KiCad 7.0.9-7.0.9~ubuntu22.04.1} date Thu 04 Jan 2024 11:40:07 AM PST
; FORMAT={-:-/ absolute / inch / decimal}
; #@! TF.CreationDate,2024-01-04T11:40:07-08:00
; #@! TF.GenerationSoftware,Kicad,Pcbnew,7.0.9-7.0.9~ubuntu22.04.1
; #@! TF.FileFunction,Plated,1,2,PTH
FMAT,2
INCH
; #@! TA.AperFunction,Plated,PTH,ViaDrill
T1C0.0079
; #@! TA.AperFunction,Plated,PTH,ComponentDrill
T2C0.0394
%
G90
G05
T1
X4.9016Y-3.7244
X4.905Y-6.375
X4.9055Y-4.1299
X4.9094Y-4.2008
X4.9134Y-3.0591
X4.9134Y-3.6969
X4.9134Y-3.748
X4.9134Y-4.2992
X4.9134Y-4.4331
X4.9173Y-2.9331
X4.9291Y-4.374
X4.95Y-5.81
X4.95Y-5.97
X4.95Y-6.13
X4.95Y-6.29
X4.9528Y-3.7047
X4.9724Y-3.3937
X4.9882Y-4.2795
X5.0039Y-2.9409
X5.0039Y-3.4122
X5.0079Y-3.3504
X5.0079Y-3.5079
X5.0118Y-3.5551
X5.0157Y-3.6102
X5.025Y-3.73
X5.0276Y-3.2047
X5.03Y-5.17
X5.03Y-5.33
X5.03Y-5.49
X5.03Y-5.65
X5.03Y-5.72
X5.03Y-5.88
X5.03Y-6.04
X5.03Y-6.2
X5.0394Y-3.0827
X5.0414Y-3.5039
X5.0512Y-4.2913
X5.0646Y-3.4437
X5.065Y-3.725
X5.0709Y-4.4803
X5.0787Y-4.6417
X5.0866Y-4.7992
X5.0945Y-2.9134
X5.0945Y-3.0354
X5.0945Y-4.96
X5.0984Y-4.185
X5.1458Y-4.2717
X5.1496Y-3.1417
X5.1496Y-4.1162
X5.15Y-5.81
X5.15Y-5.97
X5.15Y-6.13
X5.15Y-6.29
X5.1575Y-4.315
X5.1732Y-3.7638
X5.1834Y-3.5491
X5.185Y-3.725
X5.1929Y-4.1535
X5.1929Y-4.2362
X5.2089Y-3.1336
X5.2165Y-4.3803
X5.22Y-4.475
X5.22Y-4.64
X5.22Y-4.8
X5.22Y-4.96
X5.2205Y-4.126
X5.23Y-5.17
X5.23Y-5.33
X5.23Y-5.49
X5.23Y-5.65
X5.23Y-5.72
X5.23Y-5.88
X5.23Y-6.04
X5.23Y-6.2
X5.2362Y-3.0433
X5.2378Y-4.4098
X5.2416Y-4.446
X5.2478Y-3.1297
X5.2519Y-4.3803
X5.252Y-3.1102
X5.2559Y-2.9094
X5.2598Y-4.1732
X5.2598Y-4.2205
X5.2717Y-3.1161
X5.2717Y-4.3583
X5.2819Y-4.4567
X5.2835Y-3.7953
X5.2855Y-3.5394
X5.2913Y-3.1161
X5.2913Y-4.0787
X5.295Y-3.74
X5.3071Y-3.311
X5.3094Y-4.4547
X5.311Y-3.5709
X5.311Y-3.6969
X5.315Y-3.1161
X5.315Y-3.4134
X5.315Y-3.8504
X5.3228Y-4.3898
X5.3252Y-4.439
X5.3268Y-3.8071
X5.3268Y-4.2717
X5.3307Y-3.0945
X5.3307Y-3.5354
X5.3346Y-3.1161
X5.3346Y-3.5669
X5.337Y-4.4232
X5.3425Y-4.1024
X5.35Y-5.81
X5.35Y-5.97
X5.35Y-6.13
X5.35Y-6.29
X5.3543Y-3.7165
X5.3622Y-3.063
X5.3661Y-4.4016
X5.3663Y-4.4407
X5.3701Y-3.4094
X5.3701Y-3.8543
X5.3819Y-3.748
X5.3858Y-3.5472
X5.3866Y-3.7126
X5.3878Y-4.3996
X5.3878Y-3.6929
X5.3898Y-4.185
X5.3898Y-4.2874
X5.3937Y-4.0787
X5.3937Y-4.3622
X5.3976Y-3.0906
X5.4113Y-4.4016
X5.4173Y-3.0827
X5.4173Y-3.5512
X5.4173Y-3.8937
X5.42Y-4.475
X5.42Y-4.64
X5.42Y-4.8
X5.42Y-4.96
X5.4252Y-3.311
X5.43Y-5.17
X5.43Y-5.33
X5.43Y-5.49
X5.43Y-5.65
X5.43Y-5.72
X5.43Y-5.88
X5.43Y-6.04
X5.43Y-6.2
X5.4331Y-3.7
X5.437Y-3.0748
X5.4409Y-3.0276
X5.4525Y-4.4014
X5.4546Y-4.4724
X5.4566Y-3.845
X5.4582Y-3.8646
X5.4604Y-3.0591
X5.4665Y-3.7756
X5.4665Y-3.7957
X5.4685Y-3.5669
X5.4724Y-3.0433
X5.4764Y-4.4016
X5.4815Y-3.4972
X5.4821Y-4.4862
X5.4843Y-3.3504
X5.4843Y-4.374
X5.4882Y-3.4173
X5.4909Y-3.5659
X5.4921Y-3.0433
X5.4921Y-3.5197
X5.4921Y-3.748
X5.4961Y-3.7953
X5.5079Y-3.0039
X5.5079Y-3.0276
X5.5118Y-2.9173
X5.5276Y-3.0276
X5.5283Y-3.4983
X5.5296Y-3.4243
X5.54Y-3.4409
X5.5414Y-3.4626
X5.5414Y-3.4833
X5.5433Y-3.0118
X5.5433Y-3.3346
X5.55Y-5.81
X5.55Y-5.97
X5.55Y-6.13
X5.55Y-6.29
X5.5512Y-3.3851
X5.5512Y-4.2992
X5.5551Y-3.4055
X5.5552Y-3.3503
X5.5591Y-3.7717
X5.5709Y-3.2913
X5.5709Y-3.3378
X5.5709Y-3.3693
X5.5748Y-3.0118
X5.5748Y-4.1378
X5.5752Y-3.6366
X5.5827Y-4.0945
X5.5945Y-4.185
X5.5984Y-3.9882
X5.5984Y-4.3937
X5.6063Y-3.2362
X5.6063Y-3.7717
X5.6102Y-3.2717
X5.62Y-4.475
X5.62Y-4.64
X5.62Y-4.8
X5.62Y-4.96
X5.63Y-5.17
X5.63Y-5.33
X5.63Y-5.49
X5.63Y-5.65
X5.63Y-5.72
X5.63Y-5.88
X5.63Y-6.04
X5.63Y-6.2
X5.6457Y-4.1339
X5.6535Y-3.8189
X5.6614Y-4.3031
X5.6693Y-4.1811
X5.6732Y-3.2677
X5.6732Y-4.0945
X5.6811Y-4.4449
X5.689Y-3.8189
X5.689Y-4.3937
X5.6929Y-3.252
X5.6941Y-3.6811
X5.6969Y-3.7717
X5.6969Y-3.8937
X5.7205Y-4.4449
X5.7227Y-3.7727
X5.7244Y-3.1575
X5.7248Y-3.7923
X5.7327Y-3.8114
X5.7362Y-4.3937
X5.748Y-3.9843
X5.75Y-5.81
X5.75Y-5.97
X5.75Y-6.13
X5.75Y-6.29
X5.752Y-4.122
X5.752Y-4.315
X5.7526Y-4.4843
X5.7677Y-4.1811
X5.7874Y-4.0827
X5.7874Y-4.2874
X5.7878Y-3.783
X5.8041Y-3.772
X5.811Y-2.9331
X5.82Y-4.64
X5.82Y-4.8
X5.82Y-4.96
X5.8228Y-3.1299
X5.8228Y-4.3937
X5.8228Y-4.4961
X5.8249Y-4.3286
X5.83Y-5.17
X5.83Y-5.33
X5.83Y-5.49
X5.83Y-5.65
X5.83Y-5.72
X5.83Y-5.88
X5.83Y-6.04
X5.83Y-6.2
X5.8343Y-3.7871
X5.839Y-3.811
X5.8424Y-4.4486
X5.8465Y-4.1102
X5.848Y-4.3016
X5.8504Y-4.4666
X5.8583Y-4.3937
X5.8622Y-3.1535
X5.8626Y-4.4961
X5.8661Y-4.1811
X5.8661Y-4.3228
X5.8693Y-4.4587
X5.874Y-4.0906
X5.878Y-4.2835
X5.9055Y-4.4666
X5.9075Y-4.3366
X5.9094Y-2.9331
X5.9128Y-3.7582
X5.9231Y-4.4566
X5.9291Y-4.0984
X5.937Y-3.811
X5.937Y-4.3583
X5.9409Y-4.2835
X5.95Y-5.81
X5.95Y-5.97
X5.95Y-6.13
X5.95Y-6.29
X5.9606Y-4.1811
X5.9685Y-4.0866
X5.9882Y-3.9843
X6.0118Y-2.9331
X6.02Y-3.7736
X6.02Y-4.64
X6.02Y-4.8
X6.02Y-4.96
X6.0236Y-4.3976
X6.0236Y-4.4961
X6.03Y-5.17
X6.03Y-5.33
X6.03Y-5.49
X6.03Y-5.65
X6.03Y-5.72
X6.03Y-5.88
X6.03Y-6.04
X6.03Y-6.2
X6.0315Y-3.1142
X6.0394Y-3.7638
X6.0551Y-3.0512
X6.0591Y-4.4587
X6.063Y-3.2283
X6.0669Y-3.6811
X6.0906Y-3.0512
X6.0906Y-3.7677
X6.0945Y-4.3543
X6.1102Y-2.9331
X6.1102Y-4.2835
X6.122Y-3.6356
X6.122Y-4.1929
X6.1378Y-3.8909
X6.1411Y-3.2588
X6.1457Y-3.189
X6.1457Y-3.8524
X6.15Y-5.81
X6.15Y-5.97
X6.15Y-6.13
X6.15Y-6.29
X6.1575Y-3.8028
X6.1614Y-3.689
X6.1669Y-3.2563
X6.1742Y-3.8523
X6.1759Y-3.4615
X6.1765Y-3.4418
X6.1767Y-3.4933
X6.1778Y-3.5145
X6.1807Y-3.5359
X6.1811Y-3.811
X6.1827Y-3.3685
X6.1872Y-3.5845
X6.1889Y-3.5552
X6.1912Y-3.608
X6.1929Y-3.248
X6.1929Y-3.689
X6.1929Y-4.3976
X6.1945Y-3.2994
X6.1969Y-3.0551
X6.1984Y-3.3528
X6.2008Y-3.1496
X6.2008Y-3.4107
X6.2008Y-3.8523
X6.2087Y-2.9331
X6.2087Y-3.8248
X6.2126Y-3.189
X6.22Y-4.64
X6.22Y-4.8
X6.22Y-4.96
X6.2205Y-3.0866
X6.2244Y-3.8116
X6.2244Y-4.4961
X6.23Y-5.17
X6.23Y-5.33
X6.23Y-5.49
X6.23Y-5.65
X6.23Y-5.72
X6.23Y-5.88
X6.23Y-6.04
X6.23Y-6.2
X6.2323Y-3.3425
X6.2342Y-3.3622
X6.2364Y-3.3837
X6.2402Y-3.7283
X6.2417Y-3.4214
X6.2437Y-3.6364
X6.2445Y-3.6168
X6.252Y-3.8071
X6.2638Y-3.0276
X6.2717Y-3.2559
X6.2795Y-3.1693
X6.2795Y-3.7677
X6.2819Y-4.4409
X6.2835Y-3.8071
X6.2913Y-3.315
X6.2992Y-4.1811
X6.3031Y-4.4055
X6.311Y-2.9331
X6.311Y-3.8071
X6.311Y-4.2835
X6.315Y-3.9016
X6.315Y-4.063
X6.3189Y-4.3504
X6.3228Y-3.1929
X6.3228Y-3.2559
X6.3268Y-4.4173
X6.35Y-5.81
X6.35Y-5.97
X6.35Y-6.13
X6.35Y-6.29
X6.3504Y-3.1535
X6.3543Y-3.5984
X6.3583Y-3.0669
X6.3622Y-3.2559
X6.3819Y-3.376
X6.3858Y-3.4331
X6.3858Y-3.4528
X6.3858Y-3.4724
X6.3858Y-3.5
X6.3858Y-3.5276
X6.3858Y-3.5512
X6.3915Y-3.3957
X6.3917Y-4.4252
X6.3937Y-3.0669
X6.4017Y-4.323
X6.4055Y-3.2047
X6.4055Y-3.3346
X6.4145Y-4.3643
X6.42Y-4.475
X6.42Y-4.64
X6.42Y-4.8
X6.42Y-4.96
X6.4213Y-4.3367
X6.4291Y-3.0394
X6.43Y-5.17
X6.43Y-5.33
X6.43Y-5.49
X6.43Y-5.65
X6.43Y-5.72
X6.43Y-5.88
X6.43Y-6.04
X6.43Y-6.2
X6.437Y-4.4291
X6.437Y-4.4961
X6.4411Y-4.3919
X6.4449Y-3.2047
X6.4508Y-3.3169
X6.4606Y-3.1772
X6.4606Y-3.5591
X6.4685Y-3.6654
X6.4724Y-3.3425
X6.4764Y-3.0551
X6.4764Y-3.4724
X6.4764Y-4.4567
X6.5118Y-3.5945
X6.5157Y-3.2953
X6.5157Y-4.0433
X6.5197Y-3.3425
X6.5197Y-3.7205
X6.5197Y-4.1929
X6.5236Y-3.9094
X6.5236Y-4.2953
X6.5276Y-3.7756
X6.5276Y-3.9921
X6.535Y-3.5394
X6.5472Y-3.2441
X6.55Y-5.81
X6.55Y-5.97
X6.55Y-6.13
X6.55Y-6.29
X6.5512Y-3.1614
X6.5567Y-4.0713
X6.5589Y-4.1832
X6.5646Y-4.0909
X6.5669Y-3.4291
X6.5764Y-4.1972
X6.5945Y-3.7756
X6.6001Y-4.1103
X6.6035Y-4.1555
X6.6157Y-4.2425
X6.6197Y-4.213
X6.62Y-4.475
X6.62Y-4.64
X6.62Y-4.8
X6.62Y-4.96
X6.622Y-3.3386
X6.626Y-3.2992
X6.626Y-3.9094
X6.626Y-3.9921
X6.6275Y-4.27
X6.6299Y-3.5354
X6.63Y-5.17
X6.63Y-5.33
X6.63Y-5.49
X6.63Y-5.65
X6.63Y-5.72
X6.63Y-5.88
X6.63Y-6.04
X6.63Y-6.2
X6.6339Y-3.1654
X6.6378Y-4.0575
X6.6378Y-4.1378
X6.6378Y-4.2047
X6.6477Y-3.6693
X6.6535Y-3.7858
X6.6555Y-3.7283
X6.6614Y-3.0591
X6.6673Y-3.6299
X6.6693Y-3.1732
X6.6752Y-3.656
X6.6772Y-2.9606
X6.685Y-3.7008
X6.685Y-3.7492
X6.689Y-3.0827
X6.689Y-3.1969
X6.689Y-3.7953
X6.6925Y-4.0667
X6.6929Y-3.2638
X6.6929Y-3.3465
X6.6929Y-4.3031
X6.6969Y-3.9882
X6.6984Y-3.3035
X6.7008Y-4.0315
X6.7047Y-4.1595
X6.7047Y-4.3858
X6.7056Y-4.0993
X6.7087Y-4.189
X6.7102Y-4.0752
X6.7165Y-3.622
X6.7205Y-3.8622
X6.722Y-4.2839
X6.7244Y-4.3268
X6.726Y-4.2366
X6.726Y-4.2642
X6.7283Y-4.0984
X6.7283Y-4.1654
X6.7283Y-4.189
X6.7402Y-3.0945
X6.7402Y-4.4961
X6.7441Y-4.3976
X6.7441Y-4.4685
X6.748Y-4.0079
X6.75Y-5.81
X6.75Y-5.97
X6.75Y-6.13
X6.75Y-6.29
X6.752Y-3.9724
X6.7638Y-4.64
X6.7638Y-4.8031
X6.7677Y-3.9173
X6.7677Y-4.96
X6.7717Y-3.563
X6.7717Y-3.8425
X6.7835Y-3.5118
X6.7874Y-3.063
X6.7913Y-3.622
X6.7953Y-4.5394
X6.811Y-3.3346
X6.83Y-5.17
X6.83Y-5.33
X6.83Y-5.49
X6.83Y-5.65
X6.83Y-5.72
X6.83Y-5.88
X6.83Y-6.04
X6.83Y-6.2
X6.8346Y-3.0039
X6.8346Y-3.1142
X6.8346Y-3.1654
X6.8346Y-3.2126
X6.8465Y-3.6181
X6.8504Y-3.7205
X6.8504Y-4.0039
T2
X4.93Y-6.48
X4.93Y-6.58
X4.9681Y-3.9327
X4.9681Y-4.0327
X4.9803Y-3.0457
X4.9803Y-3.1457
X5.001Y-4.3465
X5.03Y-6.48
X5.03Y-6.58
X5.0681Y-3.9327
X5.0681Y-4.0327
X5.101Y-4.3465
X5.13Y-6.48
X5.13Y-6.58
X5.1681Y-3.9327
X5.1681Y-4.0327
X5.23Y-6.48
X5.23Y-6.58
X5.2681Y-3.9327
X5.2681Y-4.0327
X5.315Y-4.2215
X5.315Y-4.3215
X5.3213Y-3.2323
X5.33Y-6.48
X5.33Y-6.58
X5.3606Y-2.9685
X5.3681Y-3.9327
X5.3681Y-4.0327
X5.4213Y-3.2323
X5.43Y-6.48
X5.43Y-6.58
X5.4606Y-2.9685
X5.4681Y-3.9327
X5.4681Y-4.0327
X5.4685Y-4.2219
X5.4685Y-4.3219
X5.53Y-6.48
X5.53Y-6.58
X5.5606Y-2.9685
X5.5681Y-3.9327
X5.5681Y-4.0327
X5.63Y-6.48
X5.63Y-6.58
X5.6606Y-2.9685
X5.6681Y-3.9327
X5.6681Y-4.0327
X5.73Y-6.48
X5.73Y-6.58
X5.7606Y-2.9685
X5.7681Y-3.9327
X5.7681Y-4.0327
X5.83Y-6.48
X5.83Y-6.58
X5.8606Y-2.9685
X5.8681Y-3.9327
X5.8681Y-4.0327
X5.93Y-6.48
X5.93Y-6.58
X5.9606Y-2.9685
X5.9681Y-3.9327
X5.9681Y-4.0327
X6.03Y-6.48
X6.03Y-6.58
X6.0606Y-2.9685
X6.0681Y-3.9327
X6.0681Y-4.0327
X6.13Y-6.48
X6.13Y-6.58
X6.1606Y-2.9685
X6.1681Y-3.9327
X6.1681Y-4.0327
X6.23Y-6.48
X6.23Y-6.58
X6.2606Y-2.9685
X6.2681Y-3.9327
X6.2681Y-4.0327
X6.33Y-6.48
X6.33Y-6.58
X6.3606Y-2.9685
X6.43Y-6.48
X6.43Y-6.58
X6.4606Y-2.9685
X6.53Y-6.48
X6.53Y-6.58
X6.63Y-6.48
X6.63Y-6.58
X6.73Y-6.48
X6.73Y-6.58
X6.83Y-6.48
X6.83Y-6.58
T0
M30
