M48
; DRILL file {KiCad 7.0.10-7.0.10~ubuntu22.04.1} date Thu 04 Jan 2024 11:44:50 AM PST
; FORMAT={-:-/ absolute / inch / decimal}
; #@! TF.CreationDate,2024-01-04T11:44:50-08:00
; #@! TF.GenerationSoftware,Kicad,Pcbnew,7.0.10-7.0.10~ubuntu22.04.1
; #@! TF.FileFunction,Plated,1,2,PTH
FMAT,2
INCH
; #@! TA.AperFunction,Plated,PTH,ComponentDrill
T1C0.0197
; #@! TA.AperFunction,Plated,PTH,ComponentDrill
T2C0.0394
%
G90
G05
T1
X4.925Y-3.4795
X4.925Y-4.0205
X5.025Y-3.4795
X5.025Y-4.0205
X5.125Y-3.4795
X5.125Y-4.0205
X5.225Y-3.4795
X5.225Y-4.0205
X5.325Y-3.4795
X5.325Y-4.0205
X5.425Y-3.4795
X5.425Y-4.0205
X5.525Y-3.4795
X5.525Y-4.0205
X5.625Y-3.4795
X5.625Y-4.0205
X5.725Y-3.4795
X5.725Y-4.0205
X5.825Y-3.4795
X5.825Y-4.0205
X5.925Y-3.4795
X5.925Y-4.0205
X6.025Y-3.4795
X6.025Y-4.0205
X6.125Y-3.4795
X6.125Y-4.0205
X6.225Y-3.4795
X6.225Y-4.0205
X6.325Y-3.4795
X6.325Y-4.0205
X6.425Y-3.4795
X6.425Y-4.0205
X6.525Y-3.4795
X6.525Y-4.0205
X6.625Y-3.4795
X6.625Y-4.0205
X6.725Y-3.4795
X6.725Y-4.0205
X6.825Y-3.4795
X6.825Y-4.0205
T2
X4.925Y-3.6045
X4.925Y-3.7045
X4.925Y-3.8045
X4.925Y-3.9045
X5.025Y-3.6045
X5.025Y-3.7045
X5.025Y-3.8045
X5.025Y-3.9045
X5.125Y-3.6045
X5.125Y-3.7045
X5.125Y-3.8045
X5.125Y-3.9045
X5.225Y-3.6045
X5.225Y-3.7045
X5.225Y-3.8045
X5.225Y-3.9045
X5.325Y-3.6045
X5.325Y-3.7045
X5.325Y-3.8045
X5.325Y-3.9045
X5.425Y-3.6045
X5.425Y-3.7045
X5.425Y-3.8045
X5.425Y-3.9045
X5.525Y-3.6045
X5.525Y-3.7045
X5.525Y-3.8045
X5.525Y-3.9045
X5.625Y-3.6045
X5.625Y-3.7045
X5.625Y-3.8045
X5.625Y-3.9045
X5.725Y-3.6045
X5.725Y-3.7045
X5.725Y-3.8045
X5.725Y-3.9045
X5.825Y-3.6045
X5.825Y-3.7045
X5.825Y-3.8045
X5.825Y-3.9045
X5.925Y-3.6045
X5.925Y-3.7045
X5.925Y-3.8045
X5.925Y-3.9045
X6.025Y-3.6045
X6.025Y-3.7045
X6.025Y-3.8045
X6.025Y-3.9045
X6.125Y-3.6045
X6.125Y-3.7045
X6.125Y-3.8045
X6.125Y-3.9045
X6.225Y-3.6045
X6.225Y-3.7045
X6.225Y-3.8045
X6.225Y-3.9045
X6.325Y-3.6045
X6.325Y-3.7045
X6.325Y-3.8045
X6.325Y-3.9045
X6.425Y-3.6045
X6.425Y-3.7045
X6.425Y-3.8045
X6.425Y-3.9045
X6.525Y-3.6045
X6.525Y-3.7045
X6.525Y-3.8045
X6.525Y-3.9045
X6.625Y-3.6045
X6.625Y-3.7045
X6.625Y-3.8045
X6.625Y-3.9045
X6.725Y-3.6045
X6.725Y-3.7045
X6.725Y-3.8045
X6.725Y-3.9045
X6.825Y-3.6045
X6.825Y-3.7045
X6.825Y-3.8045
X6.825Y-3.9045
M30
