%TF.GenerationSoftware,KiCad,Pcbnew,7.0.9-7.0.9~ubuntu22.04.1*%
%TF.CreationDate,2023-12-26T08:58:09-08:00*%
%TF.ProjectId,devel_adapter,64657665-6c5f-4616-9461-707465722e6b,rev?*%
%TF.SameCoordinates,Original*%
%TF.FileFunction,Legend,Top*%
%TF.FilePolarity,Positive*%
%FSLAX46Y46*%
G04 Gerber Fmt 4.6, Leading zero omitted, Abs format (unit mm)*
G04 Created by KiCad (PCBNEW 7.0.9-7.0.9~ubuntu22.04.1) date 2023-12-26 08:58:09*
%MOMM*%
%LPD*%
G01*
G04 APERTURE LIST*
%ADD10C,0.150000*%
%ADD11C,0.200000*%
G04 APERTURE END LIST*
D10*
X125447588Y-101178419D02*
X124876160Y-101178419D01*
X125161874Y-101178419D02*
X125161874Y-100178419D01*
X125161874Y-100178419D02*
X125066636Y-100321276D01*
X125066636Y-100321276D02*
X124971398Y-100416514D01*
X124971398Y-100416514D02*
X124876160Y-100464133D01*
X124844350Y-89742152D02*
X124844350Y-90408819D01*
X124606255Y-89361200D02*
X124368160Y-90075485D01*
X124368160Y-90075485D02*
X124987207Y-90075485D01*
X125558636Y-89408819D02*
X125653874Y-89408819D01*
X125653874Y-89408819D02*
X125749112Y-89456438D01*
X125749112Y-89456438D02*
X125796731Y-89504057D01*
X125796731Y-89504057D02*
X125844350Y-89599295D01*
X125844350Y-89599295D02*
X125891969Y-89789771D01*
X125891969Y-89789771D02*
X125891969Y-90027866D01*
X125891969Y-90027866D02*
X125844350Y-90218342D01*
X125844350Y-90218342D02*
X125796731Y-90313580D01*
X125796731Y-90313580D02*
X125749112Y-90361200D01*
X125749112Y-90361200D02*
X125653874Y-90408819D01*
X125653874Y-90408819D02*
X125558636Y-90408819D01*
X125558636Y-90408819D02*
X125463398Y-90361200D01*
X125463398Y-90361200D02*
X125415779Y-90313580D01*
X125415779Y-90313580D02*
X125368160Y-90218342D01*
X125368160Y-90218342D02*
X125320541Y-90027866D01*
X125320541Y-90027866D02*
X125320541Y-89789771D01*
X125320541Y-89789771D02*
X125368160Y-89599295D01*
X125368160Y-89599295D02*
X125415779Y-89504057D01*
X125415779Y-89504057D02*
X125463398Y-89456438D01*
X125463398Y-89456438D02*
X125558636Y-89408819D01*
X129400541Y-89408819D02*
X130019588Y-89408819D01*
X130019588Y-89408819D02*
X129686255Y-89789771D01*
X129686255Y-89789771D02*
X129829112Y-89789771D01*
X129829112Y-89789771D02*
X129924350Y-89837390D01*
X129924350Y-89837390D02*
X129971969Y-89885009D01*
X129971969Y-89885009D02*
X130019588Y-89980247D01*
X130019588Y-89980247D02*
X130019588Y-90218342D01*
X130019588Y-90218342D02*
X129971969Y-90313580D01*
X129971969Y-90313580D02*
X129924350Y-90361200D01*
X129924350Y-90361200D02*
X129829112Y-90408819D01*
X129829112Y-90408819D02*
X129543398Y-90408819D01*
X129543398Y-90408819D02*
X129448160Y-90361200D01*
X129448160Y-90361200D02*
X129400541Y-90313580D01*
X130591017Y-89837390D02*
X130495779Y-89789771D01*
X130495779Y-89789771D02*
X130448160Y-89742152D01*
X130448160Y-89742152D02*
X130400541Y-89646914D01*
X130400541Y-89646914D02*
X130400541Y-89599295D01*
X130400541Y-89599295D02*
X130448160Y-89504057D01*
X130448160Y-89504057D02*
X130495779Y-89456438D01*
X130495779Y-89456438D02*
X130591017Y-89408819D01*
X130591017Y-89408819D02*
X130781493Y-89408819D01*
X130781493Y-89408819D02*
X130876731Y-89456438D01*
X130876731Y-89456438D02*
X130924350Y-89504057D01*
X130924350Y-89504057D02*
X130971969Y-89599295D01*
X130971969Y-89599295D02*
X130971969Y-89646914D01*
X130971969Y-89646914D02*
X130924350Y-89742152D01*
X130924350Y-89742152D02*
X130876731Y-89789771D01*
X130876731Y-89789771D02*
X130781493Y-89837390D01*
X130781493Y-89837390D02*
X130591017Y-89837390D01*
X130591017Y-89837390D02*
X130495779Y-89885009D01*
X130495779Y-89885009D02*
X130448160Y-89932628D01*
X130448160Y-89932628D02*
X130400541Y-90027866D01*
X130400541Y-90027866D02*
X130400541Y-90218342D01*
X130400541Y-90218342D02*
X130448160Y-90313580D01*
X130448160Y-90313580D02*
X130495779Y-90361200D01*
X130495779Y-90361200D02*
X130591017Y-90408819D01*
X130591017Y-90408819D02*
X130781493Y-90408819D01*
X130781493Y-90408819D02*
X130876731Y-90361200D01*
X130876731Y-90361200D02*
X130924350Y-90313580D01*
X130924350Y-90313580D02*
X130971969Y-90218342D01*
X130971969Y-90218342D02*
X130971969Y-90027866D01*
X130971969Y-90027866D02*
X130924350Y-89932628D01*
X130924350Y-89932628D02*
X130876731Y-89885009D01*
X130876731Y-89885009D02*
X130781493Y-89837390D01*
X147180541Y-89408819D02*
X147799588Y-89408819D01*
X147799588Y-89408819D02*
X147466255Y-89789771D01*
X147466255Y-89789771D02*
X147609112Y-89789771D01*
X147609112Y-89789771D02*
X147704350Y-89837390D01*
X147704350Y-89837390D02*
X147751969Y-89885009D01*
X147751969Y-89885009D02*
X147799588Y-89980247D01*
X147799588Y-89980247D02*
X147799588Y-90218342D01*
X147799588Y-90218342D02*
X147751969Y-90313580D01*
X147751969Y-90313580D02*
X147704350Y-90361200D01*
X147704350Y-90361200D02*
X147609112Y-90408819D01*
X147609112Y-90408819D02*
X147323398Y-90408819D01*
X147323398Y-90408819D02*
X147228160Y-90361200D01*
X147228160Y-90361200D02*
X147180541Y-90313580D01*
X148751969Y-90408819D02*
X148180541Y-90408819D01*
X148466255Y-90408819D02*
X148466255Y-89408819D01*
X148466255Y-89408819D02*
X148371017Y-89551676D01*
X148371017Y-89551676D02*
X148275779Y-89646914D01*
X148275779Y-89646914D02*
X148180541Y-89694533D01*
X131940541Y-89408819D02*
X132559588Y-89408819D01*
X132559588Y-89408819D02*
X132226255Y-89789771D01*
X132226255Y-89789771D02*
X132369112Y-89789771D01*
X132369112Y-89789771D02*
X132464350Y-89837390D01*
X132464350Y-89837390D02*
X132511969Y-89885009D01*
X132511969Y-89885009D02*
X132559588Y-89980247D01*
X132559588Y-89980247D02*
X132559588Y-90218342D01*
X132559588Y-90218342D02*
X132511969Y-90313580D01*
X132511969Y-90313580D02*
X132464350Y-90361200D01*
X132464350Y-90361200D02*
X132369112Y-90408819D01*
X132369112Y-90408819D02*
X132083398Y-90408819D01*
X132083398Y-90408819D02*
X131988160Y-90361200D01*
X131988160Y-90361200D02*
X131940541Y-90313580D01*
X132892922Y-89408819D02*
X133559588Y-89408819D01*
X133559588Y-89408819D02*
X133131017Y-90408819D01*
X139560541Y-89408819D02*
X140179588Y-89408819D01*
X140179588Y-89408819D02*
X139846255Y-89789771D01*
X139846255Y-89789771D02*
X139989112Y-89789771D01*
X139989112Y-89789771D02*
X140084350Y-89837390D01*
X140084350Y-89837390D02*
X140131969Y-89885009D01*
X140131969Y-89885009D02*
X140179588Y-89980247D01*
X140179588Y-89980247D02*
X140179588Y-90218342D01*
X140179588Y-90218342D02*
X140131969Y-90313580D01*
X140131969Y-90313580D02*
X140084350Y-90361200D01*
X140084350Y-90361200D02*
X139989112Y-90408819D01*
X139989112Y-90408819D02*
X139703398Y-90408819D01*
X139703398Y-90408819D02*
X139608160Y-90361200D01*
X139608160Y-90361200D02*
X139560541Y-90313580D01*
X141036731Y-89742152D02*
X141036731Y-90408819D01*
X140798636Y-89361200D02*
X140560541Y-90075485D01*
X140560541Y-90075485D02*
X141179588Y-90075485D01*
X142100541Y-89408819D02*
X142719588Y-89408819D01*
X142719588Y-89408819D02*
X142386255Y-89789771D01*
X142386255Y-89789771D02*
X142529112Y-89789771D01*
X142529112Y-89789771D02*
X142624350Y-89837390D01*
X142624350Y-89837390D02*
X142671969Y-89885009D01*
X142671969Y-89885009D02*
X142719588Y-89980247D01*
X142719588Y-89980247D02*
X142719588Y-90218342D01*
X142719588Y-90218342D02*
X142671969Y-90313580D01*
X142671969Y-90313580D02*
X142624350Y-90361200D01*
X142624350Y-90361200D02*
X142529112Y-90408819D01*
X142529112Y-90408819D02*
X142243398Y-90408819D01*
X142243398Y-90408819D02*
X142148160Y-90361200D01*
X142148160Y-90361200D02*
X142100541Y-90313580D01*
X143052922Y-89408819D02*
X143671969Y-89408819D01*
X143671969Y-89408819D02*
X143338636Y-89789771D01*
X143338636Y-89789771D02*
X143481493Y-89789771D01*
X143481493Y-89789771D02*
X143576731Y-89837390D01*
X143576731Y-89837390D02*
X143624350Y-89885009D01*
X143624350Y-89885009D02*
X143671969Y-89980247D01*
X143671969Y-89980247D02*
X143671969Y-90218342D01*
X143671969Y-90218342D02*
X143624350Y-90313580D01*
X143624350Y-90313580D02*
X143576731Y-90361200D01*
X143576731Y-90361200D02*
X143481493Y-90408819D01*
X143481493Y-90408819D02*
X143195779Y-90408819D01*
X143195779Y-90408819D02*
X143100541Y-90361200D01*
X143100541Y-90361200D02*
X143052922Y-90313580D01*
X126860541Y-89408819D02*
X127479588Y-89408819D01*
X127479588Y-89408819D02*
X127146255Y-89789771D01*
X127146255Y-89789771D02*
X127289112Y-89789771D01*
X127289112Y-89789771D02*
X127384350Y-89837390D01*
X127384350Y-89837390D02*
X127431969Y-89885009D01*
X127431969Y-89885009D02*
X127479588Y-89980247D01*
X127479588Y-89980247D02*
X127479588Y-90218342D01*
X127479588Y-90218342D02*
X127431969Y-90313580D01*
X127431969Y-90313580D02*
X127384350Y-90361200D01*
X127384350Y-90361200D02*
X127289112Y-90408819D01*
X127289112Y-90408819D02*
X127003398Y-90408819D01*
X127003398Y-90408819D02*
X126908160Y-90361200D01*
X126908160Y-90361200D02*
X126860541Y-90313580D01*
X127955779Y-90408819D02*
X128146255Y-90408819D01*
X128146255Y-90408819D02*
X128241493Y-90361200D01*
X128241493Y-90361200D02*
X128289112Y-90313580D01*
X128289112Y-90313580D02*
X128384350Y-90170723D01*
X128384350Y-90170723D02*
X128431969Y-89980247D01*
X128431969Y-89980247D02*
X128431969Y-89599295D01*
X128431969Y-89599295D02*
X128384350Y-89504057D01*
X128384350Y-89504057D02*
X128336731Y-89456438D01*
X128336731Y-89456438D02*
X128241493Y-89408819D01*
X128241493Y-89408819D02*
X128051017Y-89408819D01*
X128051017Y-89408819D02*
X127955779Y-89456438D01*
X127955779Y-89456438D02*
X127908160Y-89504057D01*
X127908160Y-89504057D02*
X127860541Y-89599295D01*
X127860541Y-89599295D02*
X127860541Y-89837390D01*
X127860541Y-89837390D02*
X127908160Y-89932628D01*
X127908160Y-89932628D02*
X127955779Y-89980247D01*
X127955779Y-89980247D02*
X128051017Y-90027866D01*
X128051017Y-90027866D02*
X128241493Y-90027866D01*
X128241493Y-90027866D02*
X128336731Y-89980247D01*
X128336731Y-89980247D02*
X128384350Y-89932628D01*
X128384350Y-89932628D02*
X128431969Y-89837390D01*
X134480541Y-89408819D02*
X135099588Y-89408819D01*
X135099588Y-89408819D02*
X134766255Y-89789771D01*
X134766255Y-89789771D02*
X134909112Y-89789771D01*
X134909112Y-89789771D02*
X135004350Y-89837390D01*
X135004350Y-89837390D02*
X135051969Y-89885009D01*
X135051969Y-89885009D02*
X135099588Y-89980247D01*
X135099588Y-89980247D02*
X135099588Y-90218342D01*
X135099588Y-90218342D02*
X135051969Y-90313580D01*
X135051969Y-90313580D02*
X135004350Y-90361200D01*
X135004350Y-90361200D02*
X134909112Y-90408819D01*
X134909112Y-90408819D02*
X134623398Y-90408819D01*
X134623398Y-90408819D02*
X134528160Y-90361200D01*
X134528160Y-90361200D02*
X134480541Y-90313580D01*
X135956731Y-89408819D02*
X135766255Y-89408819D01*
X135766255Y-89408819D02*
X135671017Y-89456438D01*
X135671017Y-89456438D02*
X135623398Y-89504057D01*
X135623398Y-89504057D02*
X135528160Y-89646914D01*
X135528160Y-89646914D02*
X135480541Y-89837390D01*
X135480541Y-89837390D02*
X135480541Y-90218342D01*
X135480541Y-90218342D02*
X135528160Y-90313580D01*
X135528160Y-90313580D02*
X135575779Y-90361200D01*
X135575779Y-90361200D02*
X135671017Y-90408819D01*
X135671017Y-90408819D02*
X135861493Y-90408819D01*
X135861493Y-90408819D02*
X135956731Y-90361200D01*
X135956731Y-90361200D02*
X136004350Y-90313580D01*
X136004350Y-90313580D02*
X136051969Y-90218342D01*
X136051969Y-90218342D02*
X136051969Y-89980247D01*
X136051969Y-89980247D02*
X136004350Y-89885009D01*
X136004350Y-89885009D02*
X135956731Y-89837390D01*
X135956731Y-89837390D02*
X135861493Y-89789771D01*
X135861493Y-89789771D02*
X135671017Y-89789771D01*
X135671017Y-89789771D02*
X135575779Y-89837390D01*
X135575779Y-89837390D02*
X135528160Y-89885009D01*
X135528160Y-89885009D02*
X135480541Y-89980247D01*
X144640541Y-89408819D02*
X145259588Y-89408819D01*
X145259588Y-89408819D02*
X144926255Y-89789771D01*
X144926255Y-89789771D02*
X145069112Y-89789771D01*
X145069112Y-89789771D02*
X145164350Y-89837390D01*
X145164350Y-89837390D02*
X145211969Y-89885009D01*
X145211969Y-89885009D02*
X145259588Y-89980247D01*
X145259588Y-89980247D02*
X145259588Y-90218342D01*
X145259588Y-90218342D02*
X145211969Y-90313580D01*
X145211969Y-90313580D02*
X145164350Y-90361200D01*
X145164350Y-90361200D02*
X145069112Y-90408819D01*
X145069112Y-90408819D02*
X144783398Y-90408819D01*
X144783398Y-90408819D02*
X144688160Y-90361200D01*
X144688160Y-90361200D02*
X144640541Y-90313580D01*
X145640541Y-89504057D02*
X145688160Y-89456438D01*
X145688160Y-89456438D02*
X145783398Y-89408819D01*
X145783398Y-89408819D02*
X146021493Y-89408819D01*
X146021493Y-89408819D02*
X146116731Y-89456438D01*
X146116731Y-89456438D02*
X146164350Y-89504057D01*
X146164350Y-89504057D02*
X146211969Y-89599295D01*
X146211969Y-89599295D02*
X146211969Y-89694533D01*
X146211969Y-89694533D02*
X146164350Y-89837390D01*
X146164350Y-89837390D02*
X145592922Y-90408819D01*
X145592922Y-90408819D02*
X146211969Y-90408819D01*
X137020541Y-89408819D02*
X137639588Y-89408819D01*
X137639588Y-89408819D02*
X137306255Y-89789771D01*
X137306255Y-89789771D02*
X137449112Y-89789771D01*
X137449112Y-89789771D02*
X137544350Y-89837390D01*
X137544350Y-89837390D02*
X137591969Y-89885009D01*
X137591969Y-89885009D02*
X137639588Y-89980247D01*
X137639588Y-89980247D02*
X137639588Y-90218342D01*
X137639588Y-90218342D02*
X137591969Y-90313580D01*
X137591969Y-90313580D02*
X137544350Y-90361200D01*
X137544350Y-90361200D02*
X137449112Y-90408819D01*
X137449112Y-90408819D02*
X137163398Y-90408819D01*
X137163398Y-90408819D02*
X137068160Y-90361200D01*
X137068160Y-90361200D02*
X137020541Y-90313580D01*
X138544350Y-89408819D02*
X138068160Y-89408819D01*
X138068160Y-89408819D02*
X138020541Y-89885009D01*
X138020541Y-89885009D02*
X138068160Y-89837390D01*
X138068160Y-89837390D02*
X138163398Y-89789771D01*
X138163398Y-89789771D02*
X138401493Y-89789771D01*
X138401493Y-89789771D02*
X138496731Y-89837390D01*
X138496731Y-89837390D02*
X138544350Y-89885009D01*
X138544350Y-89885009D02*
X138591969Y-89980247D01*
X138591969Y-89980247D02*
X138591969Y-90218342D01*
X138591969Y-90218342D02*
X138544350Y-90313580D01*
X138544350Y-90313580D02*
X138496731Y-90361200D01*
X138496731Y-90361200D02*
X138401493Y-90408819D01*
X138401493Y-90408819D02*
X138163398Y-90408819D01*
X138163398Y-90408819D02*
X138068160Y-90361200D01*
X138068160Y-90361200D02*
X138020541Y-90313580D01*
X149720541Y-89408819D02*
X150339588Y-89408819D01*
X150339588Y-89408819D02*
X150006255Y-89789771D01*
X150006255Y-89789771D02*
X150149112Y-89789771D01*
X150149112Y-89789771D02*
X150244350Y-89837390D01*
X150244350Y-89837390D02*
X150291969Y-89885009D01*
X150291969Y-89885009D02*
X150339588Y-89980247D01*
X150339588Y-89980247D02*
X150339588Y-90218342D01*
X150339588Y-90218342D02*
X150291969Y-90313580D01*
X150291969Y-90313580D02*
X150244350Y-90361200D01*
X150244350Y-90361200D02*
X150149112Y-90408819D01*
X150149112Y-90408819D02*
X149863398Y-90408819D01*
X149863398Y-90408819D02*
X149768160Y-90361200D01*
X149768160Y-90361200D02*
X149720541Y-90313580D01*
X150958636Y-89408819D02*
X151053874Y-89408819D01*
X151053874Y-89408819D02*
X151149112Y-89456438D01*
X151149112Y-89456438D02*
X151196731Y-89504057D01*
X151196731Y-89504057D02*
X151244350Y-89599295D01*
X151244350Y-89599295D02*
X151291969Y-89789771D01*
X151291969Y-89789771D02*
X151291969Y-90027866D01*
X151291969Y-90027866D02*
X151244350Y-90218342D01*
X151244350Y-90218342D02*
X151196731Y-90313580D01*
X151196731Y-90313580D02*
X151149112Y-90361200D01*
X151149112Y-90361200D02*
X151053874Y-90408819D01*
X151053874Y-90408819D02*
X150958636Y-90408819D01*
X150958636Y-90408819D02*
X150863398Y-90361200D01*
X150863398Y-90361200D02*
X150815779Y-90313580D01*
X150815779Y-90313580D02*
X150768160Y-90218342D01*
X150768160Y-90218342D02*
X150720541Y-90027866D01*
X150720541Y-90027866D02*
X150720541Y-89789771D01*
X150720541Y-89789771D02*
X150768160Y-89599295D01*
X150768160Y-89599295D02*
X150815779Y-89504057D01*
X150815779Y-89504057D02*
X150863398Y-89456438D01*
X150863398Y-89456438D02*
X150958636Y-89408819D01*
X154848160Y-89504057D02*
X154895779Y-89456438D01*
X154895779Y-89456438D02*
X154991017Y-89408819D01*
X154991017Y-89408819D02*
X155229112Y-89408819D01*
X155229112Y-89408819D02*
X155324350Y-89456438D01*
X155324350Y-89456438D02*
X155371969Y-89504057D01*
X155371969Y-89504057D02*
X155419588Y-89599295D01*
X155419588Y-89599295D02*
X155419588Y-89694533D01*
X155419588Y-89694533D02*
X155371969Y-89837390D01*
X155371969Y-89837390D02*
X154800541Y-90408819D01*
X154800541Y-90408819D02*
X155419588Y-90408819D01*
X155991017Y-89837390D02*
X155895779Y-89789771D01*
X155895779Y-89789771D02*
X155848160Y-89742152D01*
X155848160Y-89742152D02*
X155800541Y-89646914D01*
X155800541Y-89646914D02*
X155800541Y-89599295D01*
X155800541Y-89599295D02*
X155848160Y-89504057D01*
X155848160Y-89504057D02*
X155895779Y-89456438D01*
X155895779Y-89456438D02*
X155991017Y-89408819D01*
X155991017Y-89408819D02*
X156181493Y-89408819D01*
X156181493Y-89408819D02*
X156276731Y-89456438D01*
X156276731Y-89456438D02*
X156324350Y-89504057D01*
X156324350Y-89504057D02*
X156371969Y-89599295D01*
X156371969Y-89599295D02*
X156371969Y-89646914D01*
X156371969Y-89646914D02*
X156324350Y-89742152D01*
X156324350Y-89742152D02*
X156276731Y-89789771D01*
X156276731Y-89789771D02*
X156181493Y-89837390D01*
X156181493Y-89837390D02*
X155991017Y-89837390D01*
X155991017Y-89837390D02*
X155895779Y-89885009D01*
X155895779Y-89885009D02*
X155848160Y-89932628D01*
X155848160Y-89932628D02*
X155800541Y-90027866D01*
X155800541Y-90027866D02*
X155800541Y-90218342D01*
X155800541Y-90218342D02*
X155848160Y-90313580D01*
X155848160Y-90313580D02*
X155895779Y-90361200D01*
X155895779Y-90361200D02*
X155991017Y-90408819D01*
X155991017Y-90408819D02*
X156181493Y-90408819D01*
X156181493Y-90408819D02*
X156276731Y-90361200D01*
X156276731Y-90361200D02*
X156324350Y-90313580D01*
X156324350Y-90313580D02*
X156371969Y-90218342D01*
X156371969Y-90218342D02*
X156371969Y-90027866D01*
X156371969Y-90027866D02*
X156324350Y-89932628D01*
X156324350Y-89932628D02*
X156276731Y-89885009D01*
X156276731Y-89885009D02*
X156181493Y-89837390D01*
X172628160Y-89504057D02*
X172675779Y-89456438D01*
X172675779Y-89456438D02*
X172771017Y-89408819D01*
X172771017Y-89408819D02*
X173009112Y-89408819D01*
X173009112Y-89408819D02*
X173104350Y-89456438D01*
X173104350Y-89456438D02*
X173151969Y-89504057D01*
X173151969Y-89504057D02*
X173199588Y-89599295D01*
X173199588Y-89599295D02*
X173199588Y-89694533D01*
X173199588Y-89694533D02*
X173151969Y-89837390D01*
X173151969Y-89837390D02*
X172580541Y-90408819D01*
X172580541Y-90408819D02*
X173199588Y-90408819D01*
X174151969Y-90408819D02*
X173580541Y-90408819D01*
X173866255Y-90408819D02*
X173866255Y-89408819D01*
X173866255Y-89408819D02*
X173771017Y-89551676D01*
X173771017Y-89551676D02*
X173675779Y-89646914D01*
X173675779Y-89646914D02*
X173580541Y-89694533D01*
X157388160Y-89504057D02*
X157435779Y-89456438D01*
X157435779Y-89456438D02*
X157531017Y-89408819D01*
X157531017Y-89408819D02*
X157769112Y-89408819D01*
X157769112Y-89408819D02*
X157864350Y-89456438D01*
X157864350Y-89456438D02*
X157911969Y-89504057D01*
X157911969Y-89504057D02*
X157959588Y-89599295D01*
X157959588Y-89599295D02*
X157959588Y-89694533D01*
X157959588Y-89694533D02*
X157911969Y-89837390D01*
X157911969Y-89837390D02*
X157340541Y-90408819D01*
X157340541Y-90408819D02*
X157959588Y-90408819D01*
X158292922Y-89408819D02*
X158959588Y-89408819D01*
X158959588Y-89408819D02*
X158531017Y-90408819D01*
X165008160Y-89504057D02*
X165055779Y-89456438D01*
X165055779Y-89456438D02*
X165151017Y-89408819D01*
X165151017Y-89408819D02*
X165389112Y-89408819D01*
X165389112Y-89408819D02*
X165484350Y-89456438D01*
X165484350Y-89456438D02*
X165531969Y-89504057D01*
X165531969Y-89504057D02*
X165579588Y-89599295D01*
X165579588Y-89599295D02*
X165579588Y-89694533D01*
X165579588Y-89694533D02*
X165531969Y-89837390D01*
X165531969Y-89837390D02*
X164960541Y-90408819D01*
X164960541Y-90408819D02*
X165579588Y-90408819D01*
X166436731Y-89742152D02*
X166436731Y-90408819D01*
X166198636Y-89361200D02*
X165960541Y-90075485D01*
X165960541Y-90075485D02*
X166579588Y-90075485D01*
X167548160Y-89504057D02*
X167595779Y-89456438D01*
X167595779Y-89456438D02*
X167691017Y-89408819D01*
X167691017Y-89408819D02*
X167929112Y-89408819D01*
X167929112Y-89408819D02*
X168024350Y-89456438D01*
X168024350Y-89456438D02*
X168071969Y-89504057D01*
X168071969Y-89504057D02*
X168119588Y-89599295D01*
X168119588Y-89599295D02*
X168119588Y-89694533D01*
X168119588Y-89694533D02*
X168071969Y-89837390D01*
X168071969Y-89837390D02*
X167500541Y-90408819D01*
X167500541Y-90408819D02*
X168119588Y-90408819D01*
X168452922Y-89408819D02*
X169071969Y-89408819D01*
X169071969Y-89408819D02*
X168738636Y-89789771D01*
X168738636Y-89789771D02*
X168881493Y-89789771D01*
X168881493Y-89789771D02*
X168976731Y-89837390D01*
X168976731Y-89837390D02*
X169024350Y-89885009D01*
X169024350Y-89885009D02*
X169071969Y-89980247D01*
X169071969Y-89980247D02*
X169071969Y-90218342D01*
X169071969Y-90218342D02*
X169024350Y-90313580D01*
X169024350Y-90313580D02*
X168976731Y-90361200D01*
X168976731Y-90361200D02*
X168881493Y-90408819D01*
X168881493Y-90408819D02*
X168595779Y-90408819D01*
X168595779Y-90408819D02*
X168500541Y-90361200D01*
X168500541Y-90361200D02*
X168452922Y-90313580D01*
X152308160Y-89504057D02*
X152355779Y-89456438D01*
X152355779Y-89456438D02*
X152451017Y-89408819D01*
X152451017Y-89408819D02*
X152689112Y-89408819D01*
X152689112Y-89408819D02*
X152784350Y-89456438D01*
X152784350Y-89456438D02*
X152831969Y-89504057D01*
X152831969Y-89504057D02*
X152879588Y-89599295D01*
X152879588Y-89599295D02*
X152879588Y-89694533D01*
X152879588Y-89694533D02*
X152831969Y-89837390D01*
X152831969Y-89837390D02*
X152260541Y-90408819D01*
X152260541Y-90408819D02*
X152879588Y-90408819D01*
X153355779Y-90408819D02*
X153546255Y-90408819D01*
X153546255Y-90408819D02*
X153641493Y-90361200D01*
X153641493Y-90361200D02*
X153689112Y-90313580D01*
X153689112Y-90313580D02*
X153784350Y-90170723D01*
X153784350Y-90170723D02*
X153831969Y-89980247D01*
X153831969Y-89980247D02*
X153831969Y-89599295D01*
X153831969Y-89599295D02*
X153784350Y-89504057D01*
X153784350Y-89504057D02*
X153736731Y-89456438D01*
X153736731Y-89456438D02*
X153641493Y-89408819D01*
X153641493Y-89408819D02*
X153451017Y-89408819D01*
X153451017Y-89408819D02*
X153355779Y-89456438D01*
X153355779Y-89456438D02*
X153308160Y-89504057D01*
X153308160Y-89504057D02*
X153260541Y-89599295D01*
X153260541Y-89599295D02*
X153260541Y-89837390D01*
X153260541Y-89837390D02*
X153308160Y-89932628D01*
X153308160Y-89932628D02*
X153355779Y-89980247D01*
X153355779Y-89980247D02*
X153451017Y-90027866D01*
X153451017Y-90027866D02*
X153641493Y-90027866D01*
X153641493Y-90027866D02*
X153736731Y-89980247D01*
X153736731Y-89980247D02*
X153784350Y-89932628D01*
X153784350Y-89932628D02*
X153831969Y-89837390D01*
X159928160Y-89504057D02*
X159975779Y-89456438D01*
X159975779Y-89456438D02*
X160071017Y-89408819D01*
X160071017Y-89408819D02*
X160309112Y-89408819D01*
X160309112Y-89408819D02*
X160404350Y-89456438D01*
X160404350Y-89456438D02*
X160451969Y-89504057D01*
X160451969Y-89504057D02*
X160499588Y-89599295D01*
X160499588Y-89599295D02*
X160499588Y-89694533D01*
X160499588Y-89694533D02*
X160451969Y-89837390D01*
X160451969Y-89837390D02*
X159880541Y-90408819D01*
X159880541Y-90408819D02*
X160499588Y-90408819D01*
X161356731Y-89408819D02*
X161166255Y-89408819D01*
X161166255Y-89408819D02*
X161071017Y-89456438D01*
X161071017Y-89456438D02*
X161023398Y-89504057D01*
X161023398Y-89504057D02*
X160928160Y-89646914D01*
X160928160Y-89646914D02*
X160880541Y-89837390D01*
X160880541Y-89837390D02*
X160880541Y-90218342D01*
X160880541Y-90218342D02*
X160928160Y-90313580D01*
X160928160Y-90313580D02*
X160975779Y-90361200D01*
X160975779Y-90361200D02*
X161071017Y-90408819D01*
X161071017Y-90408819D02*
X161261493Y-90408819D01*
X161261493Y-90408819D02*
X161356731Y-90361200D01*
X161356731Y-90361200D02*
X161404350Y-90313580D01*
X161404350Y-90313580D02*
X161451969Y-90218342D01*
X161451969Y-90218342D02*
X161451969Y-89980247D01*
X161451969Y-89980247D02*
X161404350Y-89885009D01*
X161404350Y-89885009D02*
X161356731Y-89837390D01*
X161356731Y-89837390D02*
X161261493Y-89789771D01*
X161261493Y-89789771D02*
X161071017Y-89789771D01*
X161071017Y-89789771D02*
X160975779Y-89837390D01*
X160975779Y-89837390D02*
X160928160Y-89885009D01*
X160928160Y-89885009D02*
X160880541Y-89980247D01*
X170088160Y-89504057D02*
X170135779Y-89456438D01*
X170135779Y-89456438D02*
X170231017Y-89408819D01*
X170231017Y-89408819D02*
X170469112Y-89408819D01*
X170469112Y-89408819D02*
X170564350Y-89456438D01*
X170564350Y-89456438D02*
X170611969Y-89504057D01*
X170611969Y-89504057D02*
X170659588Y-89599295D01*
X170659588Y-89599295D02*
X170659588Y-89694533D01*
X170659588Y-89694533D02*
X170611969Y-89837390D01*
X170611969Y-89837390D02*
X170040541Y-90408819D01*
X170040541Y-90408819D02*
X170659588Y-90408819D01*
X171040541Y-89504057D02*
X171088160Y-89456438D01*
X171088160Y-89456438D02*
X171183398Y-89408819D01*
X171183398Y-89408819D02*
X171421493Y-89408819D01*
X171421493Y-89408819D02*
X171516731Y-89456438D01*
X171516731Y-89456438D02*
X171564350Y-89504057D01*
X171564350Y-89504057D02*
X171611969Y-89599295D01*
X171611969Y-89599295D02*
X171611969Y-89694533D01*
X171611969Y-89694533D02*
X171564350Y-89837390D01*
X171564350Y-89837390D02*
X170992922Y-90408819D01*
X170992922Y-90408819D02*
X171611969Y-90408819D01*
X162468160Y-89504057D02*
X162515779Y-89456438D01*
X162515779Y-89456438D02*
X162611017Y-89408819D01*
X162611017Y-89408819D02*
X162849112Y-89408819D01*
X162849112Y-89408819D02*
X162944350Y-89456438D01*
X162944350Y-89456438D02*
X162991969Y-89504057D01*
X162991969Y-89504057D02*
X163039588Y-89599295D01*
X163039588Y-89599295D02*
X163039588Y-89694533D01*
X163039588Y-89694533D02*
X162991969Y-89837390D01*
X162991969Y-89837390D02*
X162420541Y-90408819D01*
X162420541Y-90408819D02*
X163039588Y-90408819D01*
X163944350Y-89408819D02*
X163468160Y-89408819D01*
X163468160Y-89408819D02*
X163420541Y-89885009D01*
X163420541Y-89885009D02*
X163468160Y-89837390D01*
X163468160Y-89837390D02*
X163563398Y-89789771D01*
X163563398Y-89789771D02*
X163801493Y-89789771D01*
X163801493Y-89789771D02*
X163896731Y-89837390D01*
X163896731Y-89837390D02*
X163944350Y-89885009D01*
X163944350Y-89885009D02*
X163991969Y-89980247D01*
X163991969Y-89980247D02*
X163991969Y-90218342D01*
X163991969Y-90218342D02*
X163944350Y-90313580D01*
X163944350Y-90313580D02*
X163896731Y-90361200D01*
X163896731Y-90361200D02*
X163801493Y-90408819D01*
X163801493Y-90408819D02*
X163563398Y-90408819D01*
X163563398Y-90408819D02*
X163468160Y-90361200D01*
X163468160Y-90361200D02*
X163420541Y-90313580D01*
X172628160Y-100273657D02*
X172675779Y-100226038D01*
X172675779Y-100226038D02*
X172771017Y-100178419D01*
X172771017Y-100178419D02*
X173009112Y-100178419D01*
X173009112Y-100178419D02*
X173104350Y-100226038D01*
X173104350Y-100226038D02*
X173151969Y-100273657D01*
X173151969Y-100273657D02*
X173199588Y-100368895D01*
X173199588Y-100368895D02*
X173199588Y-100464133D01*
X173199588Y-100464133D02*
X173151969Y-100606990D01*
X173151969Y-100606990D02*
X172580541Y-101178419D01*
X172580541Y-101178419D02*
X173199588Y-101178419D01*
X173818636Y-100178419D02*
X173913874Y-100178419D01*
X173913874Y-100178419D02*
X174009112Y-100226038D01*
X174009112Y-100226038D02*
X174056731Y-100273657D01*
X174056731Y-100273657D02*
X174104350Y-100368895D01*
X174104350Y-100368895D02*
X174151969Y-100559371D01*
X174151969Y-100559371D02*
X174151969Y-100797466D01*
X174151969Y-100797466D02*
X174104350Y-100987942D01*
X174104350Y-100987942D02*
X174056731Y-101083180D01*
X174056731Y-101083180D02*
X174009112Y-101130800D01*
X174009112Y-101130800D02*
X173913874Y-101178419D01*
X173913874Y-101178419D02*
X173818636Y-101178419D01*
X173818636Y-101178419D02*
X173723398Y-101130800D01*
X173723398Y-101130800D02*
X173675779Y-101083180D01*
X173675779Y-101083180D02*
X173628160Y-100987942D01*
X173628160Y-100987942D02*
X173580541Y-100797466D01*
X173580541Y-100797466D02*
X173580541Y-100559371D01*
X173580541Y-100559371D02*
X173628160Y-100368895D01*
X173628160Y-100368895D02*
X173675779Y-100273657D01*
X173675779Y-100273657D02*
X173723398Y-100226038D01*
X173723398Y-100226038D02*
X173818636Y-100178419D01*
X170659588Y-101178419D02*
X170088160Y-101178419D01*
X170373874Y-101178419D02*
X170373874Y-100178419D01*
X170373874Y-100178419D02*
X170278636Y-100321276D01*
X170278636Y-100321276D02*
X170183398Y-100416514D01*
X170183398Y-100416514D02*
X170088160Y-100464133D01*
X171135779Y-101178419D02*
X171326255Y-101178419D01*
X171326255Y-101178419D02*
X171421493Y-101130800D01*
X171421493Y-101130800D02*
X171469112Y-101083180D01*
X171469112Y-101083180D02*
X171564350Y-100940323D01*
X171564350Y-100940323D02*
X171611969Y-100749847D01*
X171611969Y-100749847D02*
X171611969Y-100368895D01*
X171611969Y-100368895D02*
X171564350Y-100273657D01*
X171564350Y-100273657D02*
X171516731Y-100226038D01*
X171516731Y-100226038D02*
X171421493Y-100178419D01*
X171421493Y-100178419D02*
X171231017Y-100178419D01*
X171231017Y-100178419D02*
X171135779Y-100226038D01*
X171135779Y-100226038D02*
X171088160Y-100273657D01*
X171088160Y-100273657D02*
X171040541Y-100368895D01*
X171040541Y-100368895D02*
X171040541Y-100606990D01*
X171040541Y-100606990D02*
X171088160Y-100702228D01*
X171088160Y-100702228D02*
X171135779Y-100749847D01*
X171135779Y-100749847D02*
X171231017Y-100797466D01*
X171231017Y-100797466D02*
X171421493Y-100797466D01*
X171421493Y-100797466D02*
X171516731Y-100749847D01*
X171516731Y-100749847D02*
X171564350Y-100702228D01*
X171564350Y-100702228D02*
X171611969Y-100606990D01*
X168119588Y-101178419D02*
X167548160Y-101178419D01*
X167833874Y-101178419D02*
X167833874Y-100178419D01*
X167833874Y-100178419D02*
X167738636Y-100321276D01*
X167738636Y-100321276D02*
X167643398Y-100416514D01*
X167643398Y-100416514D02*
X167548160Y-100464133D01*
X168691017Y-100606990D02*
X168595779Y-100559371D01*
X168595779Y-100559371D02*
X168548160Y-100511752D01*
X168548160Y-100511752D02*
X168500541Y-100416514D01*
X168500541Y-100416514D02*
X168500541Y-100368895D01*
X168500541Y-100368895D02*
X168548160Y-100273657D01*
X168548160Y-100273657D02*
X168595779Y-100226038D01*
X168595779Y-100226038D02*
X168691017Y-100178419D01*
X168691017Y-100178419D02*
X168881493Y-100178419D01*
X168881493Y-100178419D02*
X168976731Y-100226038D01*
X168976731Y-100226038D02*
X169024350Y-100273657D01*
X169024350Y-100273657D02*
X169071969Y-100368895D01*
X169071969Y-100368895D02*
X169071969Y-100416514D01*
X169071969Y-100416514D02*
X169024350Y-100511752D01*
X169024350Y-100511752D02*
X168976731Y-100559371D01*
X168976731Y-100559371D02*
X168881493Y-100606990D01*
X168881493Y-100606990D02*
X168691017Y-100606990D01*
X168691017Y-100606990D02*
X168595779Y-100654609D01*
X168595779Y-100654609D02*
X168548160Y-100702228D01*
X168548160Y-100702228D02*
X168500541Y-100797466D01*
X168500541Y-100797466D02*
X168500541Y-100987942D01*
X168500541Y-100987942D02*
X168548160Y-101083180D01*
X168548160Y-101083180D02*
X168595779Y-101130800D01*
X168595779Y-101130800D02*
X168691017Y-101178419D01*
X168691017Y-101178419D02*
X168881493Y-101178419D01*
X168881493Y-101178419D02*
X168976731Y-101130800D01*
X168976731Y-101130800D02*
X169024350Y-101083180D01*
X169024350Y-101083180D02*
X169071969Y-100987942D01*
X169071969Y-100987942D02*
X169071969Y-100797466D01*
X169071969Y-100797466D02*
X169024350Y-100702228D01*
X169024350Y-100702228D02*
X168976731Y-100654609D01*
X168976731Y-100654609D02*
X168881493Y-100606990D01*
X165579588Y-101178419D02*
X165008160Y-101178419D01*
X165293874Y-101178419D02*
X165293874Y-100178419D01*
X165293874Y-100178419D02*
X165198636Y-100321276D01*
X165198636Y-100321276D02*
X165103398Y-100416514D01*
X165103398Y-100416514D02*
X165008160Y-100464133D01*
X165912922Y-100178419D02*
X166579588Y-100178419D01*
X166579588Y-100178419D02*
X166151017Y-101178419D01*
X163039588Y-101178419D02*
X162468160Y-101178419D01*
X162753874Y-101178419D02*
X162753874Y-100178419D01*
X162753874Y-100178419D02*
X162658636Y-100321276D01*
X162658636Y-100321276D02*
X162563398Y-100416514D01*
X162563398Y-100416514D02*
X162468160Y-100464133D01*
X163896731Y-100178419D02*
X163706255Y-100178419D01*
X163706255Y-100178419D02*
X163611017Y-100226038D01*
X163611017Y-100226038D02*
X163563398Y-100273657D01*
X163563398Y-100273657D02*
X163468160Y-100416514D01*
X163468160Y-100416514D02*
X163420541Y-100606990D01*
X163420541Y-100606990D02*
X163420541Y-100987942D01*
X163420541Y-100987942D02*
X163468160Y-101083180D01*
X163468160Y-101083180D02*
X163515779Y-101130800D01*
X163515779Y-101130800D02*
X163611017Y-101178419D01*
X163611017Y-101178419D02*
X163801493Y-101178419D01*
X163801493Y-101178419D02*
X163896731Y-101130800D01*
X163896731Y-101130800D02*
X163944350Y-101083180D01*
X163944350Y-101083180D02*
X163991969Y-100987942D01*
X163991969Y-100987942D02*
X163991969Y-100749847D01*
X163991969Y-100749847D02*
X163944350Y-100654609D01*
X163944350Y-100654609D02*
X163896731Y-100606990D01*
X163896731Y-100606990D02*
X163801493Y-100559371D01*
X163801493Y-100559371D02*
X163611017Y-100559371D01*
X163611017Y-100559371D02*
X163515779Y-100606990D01*
X163515779Y-100606990D02*
X163468160Y-100654609D01*
X163468160Y-100654609D02*
X163420541Y-100749847D01*
X160499588Y-101178419D02*
X159928160Y-101178419D01*
X160213874Y-101178419D02*
X160213874Y-100178419D01*
X160213874Y-100178419D02*
X160118636Y-100321276D01*
X160118636Y-100321276D02*
X160023398Y-100416514D01*
X160023398Y-100416514D02*
X159928160Y-100464133D01*
X161404350Y-100178419D02*
X160928160Y-100178419D01*
X160928160Y-100178419D02*
X160880541Y-100654609D01*
X160880541Y-100654609D02*
X160928160Y-100606990D01*
X160928160Y-100606990D02*
X161023398Y-100559371D01*
X161023398Y-100559371D02*
X161261493Y-100559371D01*
X161261493Y-100559371D02*
X161356731Y-100606990D01*
X161356731Y-100606990D02*
X161404350Y-100654609D01*
X161404350Y-100654609D02*
X161451969Y-100749847D01*
X161451969Y-100749847D02*
X161451969Y-100987942D01*
X161451969Y-100987942D02*
X161404350Y-101083180D01*
X161404350Y-101083180D02*
X161356731Y-101130800D01*
X161356731Y-101130800D02*
X161261493Y-101178419D01*
X161261493Y-101178419D02*
X161023398Y-101178419D01*
X161023398Y-101178419D02*
X160928160Y-101130800D01*
X160928160Y-101130800D02*
X160880541Y-101083180D01*
X157959588Y-101178419D02*
X157388160Y-101178419D01*
X157673874Y-101178419D02*
X157673874Y-100178419D01*
X157673874Y-100178419D02*
X157578636Y-100321276D01*
X157578636Y-100321276D02*
X157483398Y-100416514D01*
X157483398Y-100416514D02*
X157388160Y-100464133D01*
X158816731Y-100511752D02*
X158816731Y-101178419D01*
X158578636Y-100130800D02*
X158340541Y-100845085D01*
X158340541Y-100845085D02*
X158959588Y-100845085D01*
X155419588Y-101178419D02*
X154848160Y-101178419D01*
X155133874Y-101178419D02*
X155133874Y-100178419D01*
X155133874Y-100178419D02*
X155038636Y-100321276D01*
X155038636Y-100321276D02*
X154943398Y-100416514D01*
X154943398Y-100416514D02*
X154848160Y-100464133D01*
X155752922Y-100178419D02*
X156371969Y-100178419D01*
X156371969Y-100178419D02*
X156038636Y-100559371D01*
X156038636Y-100559371D02*
X156181493Y-100559371D01*
X156181493Y-100559371D02*
X156276731Y-100606990D01*
X156276731Y-100606990D02*
X156324350Y-100654609D01*
X156324350Y-100654609D02*
X156371969Y-100749847D01*
X156371969Y-100749847D02*
X156371969Y-100987942D01*
X156371969Y-100987942D02*
X156324350Y-101083180D01*
X156324350Y-101083180D02*
X156276731Y-101130800D01*
X156276731Y-101130800D02*
X156181493Y-101178419D01*
X156181493Y-101178419D02*
X155895779Y-101178419D01*
X155895779Y-101178419D02*
X155800541Y-101130800D01*
X155800541Y-101130800D02*
X155752922Y-101083180D01*
X152879588Y-101178419D02*
X152308160Y-101178419D01*
X152593874Y-101178419D02*
X152593874Y-100178419D01*
X152593874Y-100178419D02*
X152498636Y-100321276D01*
X152498636Y-100321276D02*
X152403398Y-100416514D01*
X152403398Y-100416514D02*
X152308160Y-100464133D01*
X153260541Y-100273657D02*
X153308160Y-100226038D01*
X153308160Y-100226038D02*
X153403398Y-100178419D01*
X153403398Y-100178419D02*
X153641493Y-100178419D01*
X153641493Y-100178419D02*
X153736731Y-100226038D01*
X153736731Y-100226038D02*
X153784350Y-100273657D01*
X153784350Y-100273657D02*
X153831969Y-100368895D01*
X153831969Y-100368895D02*
X153831969Y-100464133D01*
X153831969Y-100464133D02*
X153784350Y-100606990D01*
X153784350Y-100606990D02*
X153212922Y-101178419D01*
X153212922Y-101178419D02*
X153831969Y-101178419D01*
X150339588Y-101178419D02*
X149768160Y-101178419D01*
X150053874Y-101178419D02*
X150053874Y-100178419D01*
X150053874Y-100178419D02*
X149958636Y-100321276D01*
X149958636Y-100321276D02*
X149863398Y-100416514D01*
X149863398Y-100416514D02*
X149768160Y-100464133D01*
X151291969Y-101178419D02*
X150720541Y-101178419D01*
X151006255Y-101178419D02*
X151006255Y-100178419D01*
X151006255Y-100178419D02*
X150911017Y-100321276D01*
X150911017Y-100321276D02*
X150815779Y-100416514D01*
X150815779Y-100416514D02*
X150720541Y-100464133D01*
X140068541Y-100178419D02*
X140735207Y-100178419D01*
X140735207Y-100178419D02*
X140306636Y-101178419D01*
X142846636Y-100606990D02*
X142751398Y-100559371D01*
X142751398Y-100559371D02*
X142703779Y-100511752D01*
X142703779Y-100511752D02*
X142656160Y-100416514D01*
X142656160Y-100416514D02*
X142656160Y-100368895D01*
X142656160Y-100368895D02*
X142703779Y-100273657D01*
X142703779Y-100273657D02*
X142751398Y-100226038D01*
X142751398Y-100226038D02*
X142846636Y-100178419D01*
X142846636Y-100178419D02*
X143037112Y-100178419D01*
X143037112Y-100178419D02*
X143132350Y-100226038D01*
X143132350Y-100226038D02*
X143179969Y-100273657D01*
X143179969Y-100273657D02*
X143227588Y-100368895D01*
X143227588Y-100368895D02*
X143227588Y-100416514D01*
X143227588Y-100416514D02*
X143179969Y-100511752D01*
X143179969Y-100511752D02*
X143132350Y-100559371D01*
X143132350Y-100559371D02*
X143037112Y-100606990D01*
X143037112Y-100606990D02*
X142846636Y-100606990D01*
X142846636Y-100606990D02*
X142751398Y-100654609D01*
X142751398Y-100654609D02*
X142703779Y-100702228D01*
X142703779Y-100702228D02*
X142656160Y-100797466D01*
X142656160Y-100797466D02*
X142656160Y-100987942D01*
X142656160Y-100987942D02*
X142703779Y-101083180D01*
X142703779Y-101083180D02*
X142751398Y-101130800D01*
X142751398Y-101130800D02*
X142846636Y-101178419D01*
X142846636Y-101178419D02*
X143037112Y-101178419D01*
X143037112Y-101178419D02*
X143132350Y-101130800D01*
X143132350Y-101130800D02*
X143179969Y-101083180D01*
X143179969Y-101083180D02*
X143227588Y-100987942D01*
X143227588Y-100987942D02*
X143227588Y-100797466D01*
X143227588Y-100797466D02*
X143179969Y-100702228D01*
X143179969Y-100702228D02*
X143132350Y-100654609D01*
X143132350Y-100654609D02*
X143037112Y-100606990D01*
X147799588Y-101178419D02*
X147228160Y-101178419D01*
X147513874Y-101178419D02*
X147513874Y-100178419D01*
X147513874Y-100178419D02*
X147418636Y-100321276D01*
X147418636Y-100321276D02*
X147323398Y-100416514D01*
X147323398Y-100416514D02*
X147228160Y-100464133D01*
X148418636Y-100178419D02*
X148513874Y-100178419D01*
X148513874Y-100178419D02*
X148609112Y-100226038D01*
X148609112Y-100226038D02*
X148656731Y-100273657D01*
X148656731Y-100273657D02*
X148704350Y-100368895D01*
X148704350Y-100368895D02*
X148751969Y-100559371D01*
X148751969Y-100559371D02*
X148751969Y-100797466D01*
X148751969Y-100797466D02*
X148704350Y-100987942D01*
X148704350Y-100987942D02*
X148656731Y-101083180D01*
X148656731Y-101083180D02*
X148609112Y-101130800D01*
X148609112Y-101130800D02*
X148513874Y-101178419D01*
X148513874Y-101178419D02*
X148418636Y-101178419D01*
X148418636Y-101178419D02*
X148323398Y-101130800D01*
X148323398Y-101130800D02*
X148275779Y-101083180D01*
X148275779Y-101083180D02*
X148228160Y-100987942D01*
X148228160Y-100987942D02*
X148180541Y-100797466D01*
X148180541Y-100797466D02*
X148180541Y-100559371D01*
X148180541Y-100559371D02*
X148228160Y-100368895D01*
X148228160Y-100368895D02*
X148275779Y-100273657D01*
X148275779Y-100273657D02*
X148323398Y-100226038D01*
X148323398Y-100226038D02*
X148418636Y-100178419D01*
X138052350Y-100178419D02*
X137861874Y-100178419D01*
X137861874Y-100178419D02*
X137766636Y-100226038D01*
X137766636Y-100226038D02*
X137719017Y-100273657D01*
X137719017Y-100273657D02*
X137623779Y-100416514D01*
X137623779Y-100416514D02*
X137576160Y-100606990D01*
X137576160Y-100606990D02*
X137576160Y-100987942D01*
X137576160Y-100987942D02*
X137623779Y-101083180D01*
X137623779Y-101083180D02*
X137671398Y-101130800D01*
X137671398Y-101130800D02*
X137766636Y-101178419D01*
X137766636Y-101178419D02*
X137957112Y-101178419D01*
X137957112Y-101178419D02*
X138052350Y-101130800D01*
X138052350Y-101130800D02*
X138099969Y-101083180D01*
X138099969Y-101083180D02*
X138147588Y-100987942D01*
X138147588Y-100987942D02*
X138147588Y-100749847D01*
X138147588Y-100749847D02*
X138099969Y-100654609D01*
X138099969Y-100654609D02*
X138052350Y-100606990D01*
X138052350Y-100606990D02*
X137957112Y-100559371D01*
X137957112Y-100559371D02*
X137766636Y-100559371D01*
X137766636Y-100559371D02*
X137671398Y-100606990D01*
X137671398Y-100606990D02*
X137623779Y-100654609D01*
X137623779Y-100654609D02*
X137576160Y-100749847D01*
X145291398Y-101178419D02*
X145481874Y-101178419D01*
X145481874Y-101178419D02*
X145577112Y-101130800D01*
X145577112Y-101130800D02*
X145624731Y-101083180D01*
X145624731Y-101083180D02*
X145719969Y-100940323D01*
X145719969Y-100940323D02*
X145767588Y-100749847D01*
X145767588Y-100749847D02*
X145767588Y-100368895D01*
X145767588Y-100368895D02*
X145719969Y-100273657D01*
X145719969Y-100273657D02*
X145672350Y-100226038D01*
X145672350Y-100226038D02*
X145577112Y-100178419D01*
X145577112Y-100178419D02*
X145386636Y-100178419D01*
X145386636Y-100178419D02*
X145291398Y-100226038D01*
X145291398Y-100226038D02*
X145243779Y-100273657D01*
X145243779Y-100273657D02*
X145196160Y-100368895D01*
X145196160Y-100368895D02*
X145196160Y-100606990D01*
X145196160Y-100606990D02*
X145243779Y-100702228D01*
X145243779Y-100702228D02*
X145291398Y-100749847D01*
X145291398Y-100749847D02*
X145386636Y-100797466D01*
X145386636Y-100797466D02*
X145577112Y-100797466D01*
X145577112Y-100797466D02*
X145672350Y-100749847D01*
X145672350Y-100749847D02*
X145719969Y-100702228D01*
X145719969Y-100702228D02*
X145767588Y-100606990D01*
X135559969Y-100178419D02*
X135083779Y-100178419D01*
X135083779Y-100178419D02*
X135036160Y-100654609D01*
X135036160Y-100654609D02*
X135083779Y-100606990D01*
X135083779Y-100606990D02*
X135179017Y-100559371D01*
X135179017Y-100559371D02*
X135417112Y-100559371D01*
X135417112Y-100559371D02*
X135512350Y-100606990D01*
X135512350Y-100606990D02*
X135559969Y-100654609D01*
X135559969Y-100654609D02*
X135607588Y-100749847D01*
X135607588Y-100749847D02*
X135607588Y-100987942D01*
X135607588Y-100987942D02*
X135559969Y-101083180D01*
X135559969Y-101083180D02*
X135512350Y-101130800D01*
X135512350Y-101130800D02*
X135417112Y-101178419D01*
X135417112Y-101178419D02*
X135179017Y-101178419D01*
X135179017Y-101178419D02*
X135083779Y-101130800D01*
X135083779Y-101130800D02*
X135036160Y-101083180D01*
X132972350Y-100511752D02*
X132972350Y-101178419D01*
X132734255Y-100130800D02*
X132496160Y-100845085D01*
X132496160Y-100845085D02*
X133115207Y-100845085D01*
X129908541Y-100178419D02*
X130527588Y-100178419D01*
X130527588Y-100178419D02*
X130194255Y-100559371D01*
X130194255Y-100559371D02*
X130337112Y-100559371D01*
X130337112Y-100559371D02*
X130432350Y-100606990D01*
X130432350Y-100606990D02*
X130479969Y-100654609D01*
X130479969Y-100654609D02*
X130527588Y-100749847D01*
X130527588Y-100749847D02*
X130527588Y-100987942D01*
X130527588Y-100987942D02*
X130479969Y-101083180D01*
X130479969Y-101083180D02*
X130432350Y-101130800D01*
X130432350Y-101130800D02*
X130337112Y-101178419D01*
X130337112Y-101178419D02*
X130051398Y-101178419D01*
X130051398Y-101178419D02*
X129956160Y-101130800D01*
X129956160Y-101130800D02*
X129908541Y-101083180D01*
X127416160Y-100273657D02*
X127463779Y-100226038D01*
X127463779Y-100226038D02*
X127559017Y-100178419D01*
X127559017Y-100178419D02*
X127797112Y-100178419D01*
X127797112Y-100178419D02*
X127892350Y-100226038D01*
X127892350Y-100226038D02*
X127939969Y-100273657D01*
X127939969Y-100273657D02*
X127987588Y-100368895D01*
X127987588Y-100368895D02*
X127987588Y-100464133D01*
X127987588Y-100464133D02*
X127939969Y-100606990D01*
X127939969Y-100606990D02*
X127368541Y-101178419D01*
X127368541Y-101178419D02*
X127987588Y-101178419D01*
D11*
%TO.C,SOCKET1*%
X126111000Y-102108000D02*
G75*
G03*
X126111000Y-102108000I-127000J0D01*
G01*
%TD*%
M02*
