%TF.GenerationSoftware,KiCad,Pcbnew,8.0.6-8.0.6-0~ubuntu24.04.1*%
%TF.CreationDate,2024-10-23T09:06:02-07:00*%
%TF.ProjectId,z80_sampler,7a38305f-7361-46d7-906c-65722e6b6963,1.0*%
%TF.SameCoordinates,Original*%
%TF.FileFunction,Soldermask,Top*%
%TF.FilePolarity,Negative*%
%FSLAX46Y46*%
G04 Gerber Fmt 4.6, Leading zero omitted, Abs format (unit mm)*
G04 Created by KiCad (PCBNEW 8.0.6-8.0.6-0~ubuntu24.04.1) date 2024-10-23 09:06:02*
%MOMM*%
%LPD*%
G01*
G04 APERTURE LIST*
G04 Aperture macros list*
%AMRoundRect*
0 Rectangle with rounded corners*
0 $1 Rounding radius*
0 $2 $3 $4 $5 $6 $7 $8 $9 X,Y pos of 4 corners*
0 Add a 4 corners polygon primitive as box body*
4,1,4,$2,$3,$4,$5,$6,$7,$8,$9,$2,$3,0*
0 Add four circle primitives for the rounded corners*
1,1,$1+$1,$2,$3*
1,1,$1+$1,$4,$5*
1,1,$1+$1,$6,$7*
1,1,$1+$1,$8,$9*
0 Add four rect primitives between the rounded corners*
20,1,$1+$1,$2,$3,$4,$5,0*
20,1,$1+$1,$4,$5,$6,$7,0*
20,1,$1+$1,$6,$7,$8,$9,0*
20,1,$1+$1,$8,$9,$2,$3,0*%
G04 Aperture macros list end*
%ADD10RoundRect,0.237500X0.250000X0.237500X-0.250000X0.237500X-0.250000X-0.237500X0.250000X-0.237500X0*%
%ADD11RoundRect,0.237500X-0.250000X-0.237500X0.250000X-0.237500X0.250000X0.237500X-0.250000X0.237500X0*%
%ADD12R,1.700000X1.700000*%
%ADD13O,1.700000X1.700000*%
%ADD14RoundRect,0.150000X-0.875000X-0.150000X0.875000X-0.150000X0.875000X0.150000X-0.875000X0.150000X0*%
%ADD15RoundRect,0.237500X0.300000X0.237500X-0.300000X0.237500X-0.300000X-0.237500X0.300000X-0.237500X0*%
%ADD16R,1.200000X1.200000*%
%ADD17R,1.500000X1.600000*%
%ADD18RoundRect,0.100000X-0.100000X0.650000X-0.100000X-0.650000X0.100000X-0.650000X0.100000X0.650000X0*%
%ADD19RoundRect,0.237500X0.237500X-0.250000X0.237500X0.250000X-0.237500X0.250000X-0.237500X-0.250000X0*%
%ADD20RoundRect,0.150000X-0.825000X-0.150000X0.825000X-0.150000X0.825000X0.150000X-0.825000X0.150000X0*%
%ADD21RoundRect,0.237500X-0.237500X0.300000X-0.237500X-0.300000X0.237500X-0.300000X0.237500X0.300000X0*%
G04 APERTURE END LIST*
D10*
%TO.C,R8*%
X70762500Y-24765000D03*
X68937500Y-24765000D03*
%TD*%
D11*
%TO.C,R9*%
X91797500Y-24765000D03*
X93622500Y-24765000D03*
%TD*%
D12*
%TO.C,JP8*%
X96520000Y-24760000D03*
D13*
X96520000Y-27300000D03*
%TD*%
D12*
%TO.C,CONN1*%
X45720000Y-20320000D03*
D13*
X43180000Y-20320000D03*
X45720000Y-22860000D03*
X43180000Y-22860000D03*
X45720000Y-25400000D03*
X43180000Y-25400000D03*
X45720000Y-27940000D03*
X43180000Y-27940000D03*
X45720000Y-30480000D03*
X43180000Y-30480000D03*
X45720000Y-33020000D03*
X43180000Y-33020000D03*
X45720000Y-35560000D03*
X43180000Y-35560000D03*
X45720000Y-38100000D03*
X43180000Y-38100000D03*
X45720000Y-40640000D03*
X43180000Y-40640000D03*
X45720000Y-43180000D03*
X43180000Y-43180000D03*
X45720000Y-45720000D03*
X43180000Y-45720000D03*
X45720000Y-48260000D03*
X43180000Y-48260000D03*
X45720000Y-50800000D03*
X43180000Y-50800000D03*
X45720000Y-53340000D03*
X43180000Y-53340000D03*
X45720000Y-55880000D03*
X43180000Y-55880000D03*
X45720000Y-58420000D03*
X43180000Y-58420000D03*
X45720000Y-60960000D03*
X43180000Y-60960000D03*
X45720000Y-63500000D03*
X43180000Y-63500000D03*
X45720000Y-66040000D03*
X43180000Y-66040000D03*
X45720000Y-68580000D03*
X43180000Y-68580000D03*
%TD*%
D12*
%TO.C,JP2*%
X92075000Y-43180000D03*
D13*
X89535000Y-43180000D03*
X86995000Y-43180000D03*
%TD*%
D14*
%TO.C,U6*%
X69645000Y-26965000D03*
X69645000Y-28235000D03*
X69645000Y-29505000D03*
X69645000Y-30775000D03*
X69645000Y-32045000D03*
X69645000Y-33315000D03*
X69645000Y-34585000D03*
X69645000Y-35855000D03*
X69645000Y-37125000D03*
X69645000Y-38395000D03*
X78945000Y-38395000D03*
X78945000Y-37125000D03*
X78945000Y-35855000D03*
X78945000Y-34585000D03*
X78945000Y-33315000D03*
X78945000Y-32045000D03*
X78945000Y-30775000D03*
X78945000Y-29505000D03*
X78945000Y-28235000D03*
X78945000Y-26965000D03*
%TD*%
D12*
%TO.C,JP5*%
X66675000Y-48260000D03*
D13*
X66675000Y-50800000D03*
%TD*%
D10*
%TO.C,R4*%
X82192500Y-59055000D03*
X80367500Y-59055000D03*
%TD*%
D15*
%TO.C,C3*%
X89355000Y-24765000D03*
X87630000Y-24765000D03*
%TD*%
D10*
%TO.C,R2*%
X82192500Y-62865000D03*
X80367500Y-62865000D03*
%TD*%
D15*
%TO.C,C6*%
X77632500Y-44450000D03*
X75907500Y-44450000D03*
%TD*%
D14*
%TO.C,U2*%
X84885000Y-51435000D03*
X84885000Y-52705000D03*
X84885000Y-53975000D03*
X84885000Y-55245000D03*
X84885000Y-56515000D03*
X84885000Y-57785000D03*
X84885000Y-59055000D03*
X84885000Y-60325000D03*
X84885000Y-61595000D03*
X84885000Y-62865000D03*
X94185000Y-62865000D03*
X94185000Y-61595000D03*
X94185000Y-60325000D03*
X94185000Y-59055000D03*
X94185000Y-57785000D03*
X94185000Y-56515000D03*
X94185000Y-55245000D03*
X94185000Y-53975000D03*
X94185000Y-52705000D03*
X94185000Y-51435000D03*
%TD*%
D12*
%TO.C,JP1*%
X53975000Y-51440000D03*
D13*
X53975000Y-48900000D03*
%TD*%
D12*
%TO.C,JP3*%
X92060000Y-46990000D03*
D13*
X89520000Y-46990000D03*
X86980000Y-46990000D03*
%TD*%
D16*
%TO.C,RV1*%
X55245000Y-43180000D03*
D17*
X58495000Y-44180000D03*
D16*
X55245000Y-45180000D03*
%TD*%
D12*
%TO.C,JP7*%
X61590000Y-33020000D03*
D13*
X64130000Y-33020000D03*
%TD*%
D15*
%TO.C,C4*%
X94615000Y-49530000D03*
X92890000Y-49530000D03*
%TD*%
D12*
%TO.C,CONN2*%
X101600000Y-20340000D03*
D13*
X104140000Y-20340000D03*
X101600000Y-22880000D03*
X104140000Y-22880000D03*
X101600000Y-25420000D03*
X104140000Y-25420000D03*
X101600000Y-27960000D03*
X104140000Y-27960000D03*
X101600000Y-30500000D03*
X104140000Y-30500000D03*
X101600000Y-33040000D03*
X104140000Y-33040000D03*
X101600000Y-35580000D03*
X104140000Y-35580000D03*
X101600000Y-38120000D03*
X104140000Y-38120000D03*
X101600000Y-40660000D03*
X104140000Y-40660000D03*
X101600000Y-43200000D03*
X104140000Y-43200000D03*
X101600000Y-45740000D03*
X104140000Y-45740000D03*
X101600000Y-48280000D03*
X104140000Y-48280000D03*
X101600000Y-50820000D03*
X104140000Y-50820000D03*
X101600000Y-53360000D03*
X104140000Y-53360000D03*
X101600000Y-55900000D03*
X104140000Y-55900000D03*
X101600000Y-58440000D03*
X104140000Y-58440000D03*
X101600000Y-60980000D03*
X104140000Y-60980000D03*
X101600000Y-63520000D03*
X104140000Y-63520000D03*
X101600000Y-66060000D03*
X104140000Y-66060000D03*
X101600000Y-68600000D03*
X104140000Y-68600000D03*
%TD*%
D11*
%TO.C,R5*%
X70142500Y-53340000D03*
X71967500Y-53340000D03*
%TD*%
D12*
%TO.C,JP6*%
X69215000Y-41275000D03*
D13*
X71755000Y-41275000D03*
%TD*%
D18*
%TO.C,U1*%
X96550000Y-41790000D03*
X95900000Y-41790000D03*
X95250000Y-41790000D03*
X95250000Y-44450000D03*
X96550000Y-44450000D03*
%TD*%
D15*
%TO.C,C5*%
X63500000Y-45720000D03*
X61775000Y-45720000D03*
%TD*%
D12*
%TO.C,JP4*%
X71055000Y-48255000D03*
D13*
X71055000Y-50795000D03*
%TD*%
D11*
%TO.C,R6*%
X65762500Y-53340000D03*
X67587500Y-53340000D03*
%TD*%
D14*
%TO.C,U7*%
X83615000Y-26965000D03*
X83615000Y-28235000D03*
X83615000Y-29505000D03*
X83615000Y-30775000D03*
X83615000Y-32045000D03*
X83615000Y-33315000D03*
X83615000Y-34585000D03*
X83615000Y-35855000D03*
X83615000Y-37125000D03*
X83615000Y-38395000D03*
X92915000Y-38395000D03*
X92915000Y-37125000D03*
X92915000Y-35855000D03*
X92915000Y-34585000D03*
X92915000Y-33315000D03*
X92915000Y-32045000D03*
X92915000Y-30775000D03*
X92915000Y-29505000D03*
X92915000Y-28235000D03*
X92915000Y-26965000D03*
%TD*%
D12*
%TO.C,TP1*%
X49530000Y-29210000D03*
%TD*%
D15*
%TO.C,C7*%
X96747500Y-46990000D03*
X95022500Y-46990000D03*
%TD*%
D19*
%TO.C,R7*%
X52705000Y-58975000D03*
X52705000Y-57150000D03*
%TD*%
D10*
%TO.C,R3*%
X82192500Y-60960000D03*
X80367500Y-60960000D03*
%TD*%
D20*
%TO.C,U3*%
X74295000Y-46355000D03*
X74295000Y-47625000D03*
X74295000Y-48895000D03*
X74295000Y-50165000D03*
X74295000Y-51435000D03*
X74295000Y-52705000D03*
X74295000Y-53975000D03*
X79245000Y-53975000D03*
X79245000Y-52705000D03*
X79245000Y-51435000D03*
X79245000Y-50165000D03*
X79245000Y-48895000D03*
X79245000Y-47625000D03*
X79245000Y-46355000D03*
%TD*%
%TO.C,U4*%
X57785000Y-47625000D03*
X57785000Y-48895000D03*
X57785000Y-50165000D03*
X57785000Y-51435000D03*
X57785000Y-52705000D03*
X57785000Y-53975000D03*
X57785000Y-55245000D03*
X62735000Y-55245000D03*
X62735000Y-53975000D03*
X62735000Y-52705000D03*
X62735000Y-51435000D03*
X62735000Y-50165000D03*
X62735000Y-48895000D03*
X62735000Y-47625000D03*
%TD*%
D12*
%TO.C,JP9*%
X60960000Y-59055000D03*
D13*
X58420000Y-59055000D03*
X55880000Y-59055000D03*
%TD*%
D11*
%TO.C,R1*%
X53062500Y-54610000D03*
X54887500Y-54610000D03*
%TD*%
D15*
%TO.C,C2*%
X75157500Y-24765000D03*
X73432500Y-24765000D03*
%TD*%
D21*
%TO.C,C1*%
X53340000Y-43587500D03*
X53340000Y-45312500D03*
%TD*%
M02*
