%TF.GenerationSoftware,KiCad,Pcbnew,8.0.6-8.0.6-0~ubuntu24.04.1*%
%TF.CreationDate,2024-10-23T09:06:02-07:00*%
%TF.ProjectId,z80_sampler,7a38305f-7361-46d7-906c-65722e6b6963,1.0*%
%TF.SameCoordinates,Original*%
%TF.FileFunction,Copper,L1,Top*%
%TF.FilePolarity,Positive*%
%FSLAX46Y46*%
G04 Gerber Fmt 4.6, Leading zero omitted, Abs format (unit mm)*
G04 Created by KiCad (PCBNEW 8.0.6-8.0.6-0~ubuntu24.04.1) date 2024-10-23 09:06:02*
%MOMM*%
%LPD*%
G01*
G04 APERTURE LIST*
G04 Aperture macros list*
%AMRoundRect*
0 Rectangle with rounded corners*
0 $1 Rounding radius*
0 $2 $3 $4 $5 $6 $7 $8 $9 X,Y pos of 4 corners*
0 Add a 4 corners polygon primitive as box body*
4,1,4,$2,$3,$4,$5,$6,$7,$8,$9,$2,$3,0*
0 Add four circle primitives for the rounded corners*
1,1,$1+$1,$2,$3*
1,1,$1+$1,$4,$5*
1,1,$1+$1,$6,$7*
1,1,$1+$1,$8,$9*
0 Add four rect primitives between the rounded corners*
20,1,$1+$1,$2,$3,$4,$5,0*
20,1,$1+$1,$4,$5,$6,$7,0*
20,1,$1+$1,$6,$7,$8,$9,0*
20,1,$1+$1,$8,$9,$2,$3,0*%
G04 Aperture macros list end*
%TA.AperFunction,SMDPad,CuDef*%
%ADD10RoundRect,0.237500X0.250000X0.237500X-0.250000X0.237500X-0.250000X-0.237500X0.250000X-0.237500X0*%
%TD*%
%TA.AperFunction,SMDPad,CuDef*%
%ADD11RoundRect,0.237500X-0.250000X-0.237500X0.250000X-0.237500X0.250000X0.237500X-0.250000X0.237500X0*%
%TD*%
%TA.AperFunction,ComponentPad*%
%ADD12R,1.700000X1.700000*%
%TD*%
%TA.AperFunction,ComponentPad*%
%ADD13O,1.700000X1.700000*%
%TD*%
%TA.AperFunction,SMDPad,CuDef*%
%ADD14RoundRect,0.150000X-0.875000X-0.150000X0.875000X-0.150000X0.875000X0.150000X-0.875000X0.150000X0*%
%TD*%
%TA.AperFunction,SMDPad,CuDef*%
%ADD15RoundRect,0.237500X0.300000X0.237500X-0.300000X0.237500X-0.300000X-0.237500X0.300000X-0.237500X0*%
%TD*%
%TA.AperFunction,SMDPad,CuDef*%
%ADD16R,1.200000X1.200000*%
%TD*%
%TA.AperFunction,SMDPad,CuDef*%
%ADD17R,1.500000X1.600000*%
%TD*%
%TA.AperFunction,SMDPad,CuDef*%
%ADD18RoundRect,0.100000X-0.100000X0.650000X-0.100000X-0.650000X0.100000X-0.650000X0.100000X0.650000X0*%
%TD*%
%TA.AperFunction,SMDPad,CuDef*%
%ADD19RoundRect,0.237500X0.237500X-0.250000X0.237500X0.250000X-0.237500X0.250000X-0.237500X-0.250000X0*%
%TD*%
%TA.AperFunction,SMDPad,CuDef*%
%ADD20RoundRect,0.150000X-0.825000X-0.150000X0.825000X-0.150000X0.825000X0.150000X-0.825000X0.150000X0*%
%TD*%
%TA.AperFunction,SMDPad,CuDef*%
%ADD21RoundRect,0.237500X-0.237500X0.300000X-0.237500X-0.300000X0.237500X-0.300000X0.237500X0.300000X0*%
%TD*%
%TA.AperFunction,ViaPad*%
%ADD22C,0.800000*%
%TD*%
%TA.AperFunction,Conductor*%
%ADD23C,0.300000*%
%TD*%
%TA.AperFunction,Conductor*%
%ADD24C,0.150000*%
%TD*%
G04 APERTURE END LIST*
D10*
%TO.P,R8,1*%
%TO.N,VCC*%
X70762500Y-24765000D03*
%TO.P,R8,2*%
%TO.N,Net-(JP7-B)*%
X68937500Y-24765000D03*
%TD*%
D11*
%TO.P,R9,1*%
%TO.N,Net-(JP8-B)*%
X91797500Y-24765000D03*
%TO.P,R9,2*%
%TO.N,GND*%
X93622500Y-24765000D03*
%TD*%
D12*
%TO.P,JP8,1,A*%
%TO.N,Net-(JP8-A)*%
X96520000Y-24760000D03*
D13*
%TO.P,JP8,2,B*%
%TO.N,Net-(JP8-B)*%
X96520000Y-27300000D03*
%TD*%
D12*
%TO.P,CONN1,1,Pin_1*%
%TO.N,/A11*%
X45720000Y-20320000D03*
D13*
%TO.P,CONN1,2,Pin_2*%
%TO.N,/A10*%
X43180000Y-20320000D03*
%TO.P,CONN1,3,Pin_3*%
%TO.N,/A12*%
X45720000Y-22860000D03*
%TO.P,CONN1,4,Pin_4*%
%TO.N,/A9*%
X43180000Y-22860000D03*
%TO.P,CONN1,5,Pin_5*%
%TO.N,/A13*%
X45720000Y-25400000D03*
%TO.P,CONN1,6,Pin_6*%
%TO.N,/A8*%
X43180000Y-25400000D03*
%TO.P,CONN1,7,Pin_7*%
%TO.N,/A14*%
X45720000Y-27940000D03*
%TO.P,CONN1,8,Pin_8*%
%TO.N,/A7*%
X43180000Y-27940000D03*
%TO.P,CONN1,9,Pin_9*%
%TO.N,/A15*%
X45720000Y-30480000D03*
%TO.P,CONN1,10,Pin_10*%
%TO.N,/A6*%
X43180000Y-30480000D03*
%TO.P,CONN1,11,Pin_11*%
%TO.N,/CLK*%
X45720000Y-33020000D03*
%TO.P,CONN1,12,Pin_12*%
%TO.N,/A5*%
X43180000Y-33020000D03*
%TO.P,CONN1,13,Pin_13*%
%TO.N,/HOST_D4*%
X45720000Y-35560000D03*
%TO.P,CONN1,14,Pin_14*%
%TO.N,/A4*%
X43180000Y-35560000D03*
%TO.P,CONN1,15,Pin_15*%
%TO.N,/HOST_D3*%
X45720000Y-38100000D03*
%TO.P,CONN1,16,Pin_16*%
%TO.N,/A3*%
X43180000Y-38100000D03*
%TO.P,CONN1,17,Pin_17*%
%TO.N,/HOST_D5*%
X45720000Y-40640000D03*
%TO.P,CONN1,18,Pin_18*%
%TO.N,/A2*%
X43180000Y-40640000D03*
%TO.P,CONN1,19,Pin_19*%
%TO.N,/HOST_D6*%
X45720000Y-43180000D03*
%TO.P,CONN1,20,Pin_20*%
%TO.N,/A1*%
X43180000Y-43180000D03*
%TO.P,CONN1,21,Pin_21*%
%TO.N,VCC*%
X45720000Y-45720000D03*
%TO.P,CONN1,22,Pin_22*%
%TO.N,/A0*%
X43180000Y-45720000D03*
%TO.P,CONN1,23,Pin_23*%
%TO.N,/HOST_D2*%
X45720000Y-48260000D03*
%TO.P,CONN1,24,Pin_24*%
%TO.N,GND*%
X43180000Y-48260000D03*
%TO.P,CONN1,25,Pin_25*%
%TO.N,/HOST_D7*%
X45720000Y-50800000D03*
%TO.P,CONN1,26,Pin_26*%
%TO.N,/REFSH_N*%
X43180000Y-50800000D03*
%TO.P,CONN1,27,Pin_27*%
%TO.N,/HOST_D0*%
X45720000Y-53340000D03*
%TO.P,CONN1,28,Pin_28*%
%TO.N,/M1_N*%
X43180000Y-53340000D03*
%TO.P,CONN1,29,Pin_29*%
%TO.N,/HOST_D1*%
X45720000Y-55880000D03*
%TO.P,CONN1,30,Pin_30*%
%TO.N,/HOST_RESET_N*%
X43180000Y-55880000D03*
%TO.P,CONN1,31,Pin_31*%
%TO.N,/HOST_INT_N*%
X45720000Y-58420000D03*
%TO.P,CONN1,32,Pin_32*%
%TO.N,/HOST_BUSREQ_N*%
X43180000Y-58420000D03*
%TO.P,CONN1,33,Pin_33*%
%TO.N,/HOST_NMI_N*%
X45720000Y-60960000D03*
%TO.P,CONN1,34,Pin_34*%
%TO.N,/HOST_WAIT_N*%
X43180000Y-60960000D03*
%TO.P,CONN1,35,Pin_35*%
%TO.N,/HALT_N*%
X45720000Y-63500000D03*
%TO.P,CONN1,36,Pin_36*%
%TO.N,/BUSAK_N*%
X43180000Y-63500000D03*
%TO.P,CONN1,37,Pin_37*%
%TO.N,/MREQ_N*%
X45720000Y-66040000D03*
%TO.P,CONN1,38,Pin_38*%
%TO.N,/WR_N*%
X43180000Y-66040000D03*
%TO.P,CONN1,39,Pin_39*%
%TO.N,/IORQ_N*%
X45720000Y-68580000D03*
%TO.P,CONN1,40,Pin_40*%
%TO.N,/RD_N*%
X43180000Y-68580000D03*
%TD*%
D12*
%TO.P,JP2,1,A*%
%TO.N,Net-(JP2-A)*%
X92075000Y-43180000D03*
D13*
%TO.P,JP2,2,C*%
%TO.N,/WAIT_N*%
X89535000Y-43180000D03*
%TO.P,JP2,3,B*%
%TO.N,/HOST_WAIT_N*%
X86995000Y-43180000D03*
%TD*%
D14*
%TO.P,U6,1,OE*%
%TO.N,Net-(JP7-B)*%
X69645000Y-26965000D03*
%TO.P,U6,2,D0*%
%TO.N,/HOST_D4*%
X69645000Y-28235000D03*
%TO.P,U6,3,D1*%
%TO.N,/HOST_D3*%
X69645000Y-29505000D03*
%TO.P,U6,4,D2*%
%TO.N,/HOST_D5*%
X69645000Y-30775000D03*
%TO.P,U6,5,D3*%
%TO.N,/HOST_D6*%
X69645000Y-32045000D03*
%TO.P,U6,6,D4*%
%TO.N,/HOST_D2*%
X69645000Y-33315000D03*
%TO.P,U6,7,D5*%
%TO.N,/HOST_D7*%
X69645000Y-34585000D03*
%TO.P,U6,8,D6*%
%TO.N,/HOST_D0*%
X69645000Y-35855000D03*
%TO.P,U6,9,D7*%
%TO.N,/HOST_D1*%
X69645000Y-37125000D03*
%TO.P,U6,10,GND*%
%TO.N,GND*%
X69645000Y-38395000D03*
%TO.P,U6,11,Cp*%
%TO.N,Net-(JP6-B)*%
X78945000Y-38395000D03*
%TO.P,U6,12,Q7*%
%TO.N,/D1*%
X78945000Y-37125000D03*
%TO.P,U6,13,Q6*%
%TO.N,/D0*%
X78945000Y-35855000D03*
%TO.P,U6,14,Q5*%
%TO.N,/D7*%
X78945000Y-34585000D03*
%TO.P,U6,15,Q4*%
%TO.N,/D2*%
X78945000Y-33315000D03*
%TO.P,U6,16,Q3*%
%TO.N,/D6*%
X78945000Y-32045000D03*
%TO.P,U6,17,Q2*%
%TO.N,/D5*%
X78945000Y-30775000D03*
%TO.P,U6,18,Q1*%
%TO.N,/D3*%
X78945000Y-29505000D03*
%TO.P,U6,19,Q0*%
%TO.N,/D4*%
X78945000Y-28235000D03*
%TO.P,U6,20,VCC*%
%TO.N,VCC*%
X78945000Y-26965000D03*
%TD*%
D12*
%TO.P,JP5,1,A*%
%TO.N,/RD_N*%
X66675000Y-48260000D03*
D13*
%TO.P,JP5,2,B*%
%TO.N,Net-(JP5-B)*%
X66675000Y-50800000D03*
%TD*%
D10*
%TO.P,R4,1*%
%TO.N,Net-(U2-D5)*%
X82192500Y-59055000D03*
%TO.P,R4,2*%
%TO.N,GND*%
X80367500Y-59055000D03*
%TD*%
D15*
%TO.P,C3,1*%
%TO.N,VCC*%
X89355000Y-24765000D03*
%TO.P,C3,2*%
%TO.N,GND*%
X87630000Y-24765000D03*
%TD*%
D10*
%TO.P,R2,1*%
%TO.N,Net-(U2-D7)*%
X82192500Y-62865000D03*
%TO.P,R2,2*%
%TO.N,GND*%
X80367500Y-62865000D03*
%TD*%
D15*
%TO.P,C6,1*%
%TO.N,VCC*%
X77632500Y-44450000D03*
%TO.P,C6,2*%
%TO.N,GND*%
X75907500Y-44450000D03*
%TD*%
D14*
%TO.P,U2,1,OE*%
%TO.N,GND*%
X84885000Y-51435000D03*
%TO.P,U2,2,D0*%
%TO.N,/HOST_INT_N*%
X84885000Y-52705000D03*
%TO.P,U2,3,D1*%
%TO.N,/HOST_BUSREQ_N*%
X84885000Y-53975000D03*
%TO.P,U2,4,D2*%
%TO.N,/HOST_NMI_N*%
X84885000Y-55245000D03*
%TO.P,U2,5,D3*%
%TO.N,/HOST_RESET_N*%
X84885000Y-56515000D03*
%TO.P,U2,6,D4*%
%TO.N,/HOST_WAIT_N*%
X84885000Y-57785000D03*
%TO.P,U2,7,D5*%
%TO.N,Net-(U2-D5)*%
X84885000Y-59055000D03*
%TO.P,U2,8,D6*%
%TO.N,Net-(U2-D6)*%
X84885000Y-60325000D03*
%TO.P,U2,9,D7*%
%TO.N,Net-(U2-D7)*%
X84885000Y-61595000D03*
%TO.P,U2,10,GND*%
%TO.N,GND*%
X84885000Y-62865000D03*
%TO.P,U2,11,Cp*%
%TO.N,Net-(JP9-C)*%
X94185000Y-62865000D03*
%TO.P,U2,12,Q7*%
%TO.N,unconnected-(U2-Q7-Pad12)*%
X94185000Y-61595000D03*
%TO.P,U2,13,Q6*%
%TO.N,unconnected-(U2-Q6-Pad13)*%
X94185000Y-60325000D03*
%TO.P,U2,14,Q5*%
%TO.N,unconnected-(U2-Q5-Pad14)*%
X94185000Y-59055000D03*
%TO.P,U2,15,Q4*%
%TO.N,Net-(U2-Q4)*%
X94185000Y-57785000D03*
%TO.P,U2,16,Q3*%
%TO.N,Net-(JP3-A)*%
X94185000Y-56515000D03*
%TO.P,U2,17,Q2*%
%TO.N,/NMI_N*%
X94185000Y-55245000D03*
%TO.P,U2,18,Q1*%
%TO.N,/BUSREQ_N*%
X94185000Y-53975000D03*
%TO.P,U2,19,Q0*%
%TO.N,/INT_N*%
X94185000Y-52705000D03*
%TO.P,U2,20,VCC*%
%TO.N,VCC*%
X94185000Y-51435000D03*
%TD*%
D12*
%TO.P,JP1,1,A*%
%TO.N,Net-(JP1-A)*%
X53975000Y-51440000D03*
D13*
%TO.P,JP1,2,B*%
%TO.N,VCC*%
X53975000Y-48900000D03*
%TD*%
D12*
%TO.P,JP3,1,A*%
%TO.N,Net-(JP3-A)*%
X92060000Y-46990000D03*
D13*
%TO.P,JP3,2,C*%
%TO.N,/RESET_N*%
X89520000Y-46990000D03*
%TO.P,JP3,3,B*%
%TO.N,/HOST_RESET_N*%
X86980000Y-46990000D03*
%TD*%
D16*
%TO.P,RV1,1,1*%
%TO.N,Net-(C1-Pad1)*%
X55245000Y-43180000D03*
D17*
%TO.P,RV1,2,2*%
%TO.N,/CLK_N*%
X58495000Y-44180000D03*
D16*
%TO.P,RV1,3,3*%
X55245000Y-45180000D03*
%TD*%
D12*
%TO.P,JP7,1,A*%
%TO.N,Net-(JP7-A)*%
X61590000Y-33020000D03*
D13*
%TO.P,JP7,2,B*%
%TO.N,Net-(JP7-B)*%
X64130000Y-33020000D03*
%TD*%
D15*
%TO.P,C4,1*%
%TO.N,VCC*%
X94615000Y-49530000D03*
%TO.P,C4,2*%
%TO.N,GND*%
X92890000Y-49530000D03*
%TD*%
D12*
%TO.P,CONN2,1,Pin_1*%
%TO.N,/A11*%
X101600000Y-20340000D03*
D13*
%TO.P,CONN2,2,Pin_2*%
%TO.N,/A10*%
X104140000Y-20340000D03*
%TO.P,CONN2,3,Pin_3*%
%TO.N,/A12*%
X101600000Y-22880000D03*
%TO.P,CONN2,4,Pin_4*%
%TO.N,/A9*%
X104140000Y-22880000D03*
%TO.P,CONN2,5,Pin_5*%
%TO.N,/A13*%
X101600000Y-25420000D03*
%TO.P,CONN2,6,Pin_6*%
%TO.N,/A8*%
X104140000Y-25420000D03*
%TO.P,CONN2,7,Pin_7*%
%TO.N,/A14*%
X101600000Y-27960000D03*
%TO.P,CONN2,8,Pin_8*%
%TO.N,/A7*%
X104140000Y-27960000D03*
%TO.P,CONN2,9,Pin_9*%
%TO.N,/A15*%
X101600000Y-30500000D03*
%TO.P,CONN2,10,Pin_10*%
%TO.N,/A6*%
X104140000Y-30500000D03*
%TO.P,CONN2,11,Pin_11*%
%TO.N,/CLK*%
X101600000Y-33040000D03*
%TO.P,CONN2,12,Pin_12*%
%TO.N,/A5*%
X104140000Y-33040000D03*
%TO.P,CONN2,13,Pin_13*%
%TO.N,/D4*%
X101600000Y-35580000D03*
%TO.P,CONN2,14,Pin_14*%
%TO.N,/A4*%
X104140000Y-35580000D03*
%TO.P,CONN2,15,Pin_15*%
%TO.N,/D3*%
X101600000Y-38120000D03*
%TO.P,CONN2,16,Pin_16*%
%TO.N,/A3*%
X104140000Y-38120000D03*
%TO.P,CONN2,17,Pin_17*%
%TO.N,/D5*%
X101600000Y-40660000D03*
%TO.P,CONN2,18,Pin_18*%
%TO.N,/A2*%
X104140000Y-40660000D03*
%TO.P,CONN2,19,Pin_19*%
%TO.N,/D6*%
X101600000Y-43200000D03*
%TO.P,CONN2,20,Pin_20*%
%TO.N,/A1*%
X104140000Y-43200000D03*
%TO.P,CONN2,21,Pin_21*%
%TO.N,VCC*%
X101600000Y-45740000D03*
%TO.P,CONN2,22,Pin_22*%
%TO.N,/A0*%
X104140000Y-45740000D03*
%TO.P,CONN2,23,Pin_23*%
%TO.N,/D2*%
X101600000Y-48280000D03*
%TO.P,CONN2,24,Pin_24*%
%TO.N,GND*%
X104140000Y-48280000D03*
%TO.P,CONN2,25,Pin_25*%
%TO.N,/D7*%
X101600000Y-50820000D03*
%TO.P,CONN2,26,Pin_26*%
%TO.N,/REFSH_N*%
X104140000Y-50820000D03*
%TO.P,CONN2,27,Pin_27*%
%TO.N,/D0*%
X101600000Y-53360000D03*
%TO.P,CONN2,28,Pin_28*%
%TO.N,/M1_N*%
X104140000Y-53360000D03*
%TO.P,CONN2,29,Pin_29*%
%TO.N,/D1*%
X101600000Y-55900000D03*
%TO.P,CONN2,30,Pin_30*%
%TO.N,/RESET_N*%
X104140000Y-55900000D03*
%TO.P,CONN2,31,Pin_31*%
%TO.N,/INT_N*%
X101600000Y-58440000D03*
%TO.P,CONN2,32,Pin_32*%
%TO.N,/BUSREQ_N*%
X104140000Y-58440000D03*
%TO.P,CONN2,33,Pin_33*%
%TO.N,/NMI_N*%
X101600000Y-60980000D03*
%TO.P,CONN2,34,Pin_34*%
%TO.N,/WAIT_N*%
X104140000Y-60980000D03*
%TO.P,CONN2,35,Pin_35*%
%TO.N,/HALT_N*%
X101600000Y-63520000D03*
%TO.P,CONN2,36,Pin_36*%
%TO.N,/BUSAK_N*%
X104140000Y-63520000D03*
%TO.P,CONN2,37,Pin_37*%
%TO.N,/MREQ_N*%
X101600000Y-66060000D03*
%TO.P,CONN2,38,Pin_38*%
%TO.N,/WR_N*%
X104140000Y-66060000D03*
%TO.P,CONN2,39,Pin_39*%
%TO.N,/IORQ_N*%
X101600000Y-68600000D03*
%TO.P,CONN2,40,Pin_40*%
%TO.N,/RD_N*%
X104140000Y-68600000D03*
%TD*%
D11*
%TO.P,R5,1*%
%TO.N,VCC*%
X70142500Y-53340000D03*
%TO.P,R5,2*%
%TO.N,Net-(JP4-B)*%
X71967500Y-53340000D03*
%TD*%
D12*
%TO.P,JP6,1,A*%
%TO.N,/CLK_2X*%
X69215000Y-41275000D03*
D13*
%TO.P,JP6,2,B*%
%TO.N,Net-(JP6-B)*%
X71755000Y-41275000D03*
%TD*%
D18*
%TO.P,U1,1*%
%TO.N,Net-(U2-Q4)*%
X96550000Y-41790000D03*
%TO.P,U1,2*%
%TO.N,/HOST_WAIT_N*%
X95900000Y-41790000D03*
%TO.P,U1,3,GND*%
%TO.N,GND*%
X95250000Y-41790000D03*
%TO.P,U1,4*%
%TO.N,Net-(JP2-A)*%
X95250000Y-44450000D03*
%TO.P,U1,5,VCC*%
%TO.N,VCC*%
X96550000Y-44450000D03*
%TD*%
D15*
%TO.P,C5,1*%
%TO.N,VCC*%
X63500000Y-45720000D03*
%TO.P,C5,2*%
%TO.N,GND*%
X61775000Y-45720000D03*
%TD*%
D12*
%TO.P,JP4,1,A*%
%TO.N,/RD_N*%
X71055000Y-48255000D03*
D13*
%TO.P,JP4,2,B*%
%TO.N,Net-(JP4-B)*%
X71055000Y-50795000D03*
%TD*%
D11*
%TO.P,R6,1*%
%TO.N,VCC*%
X65762500Y-53340000D03*
%TO.P,R6,2*%
%TO.N,Net-(JP5-B)*%
X67587500Y-53340000D03*
%TD*%
D14*
%TO.P,U7,1,A->B*%
%TO.N,Net-(JP5-B)*%
X83615000Y-26965000D03*
%TO.P,U7,2,A0*%
%TO.N,/D4*%
X83615000Y-28235000D03*
%TO.P,U7,3,A1*%
%TO.N,/D3*%
X83615000Y-29505000D03*
%TO.P,U7,4,A2*%
%TO.N,/D5*%
X83615000Y-30775000D03*
%TO.P,U7,5,A3*%
%TO.N,/D6*%
X83615000Y-32045000D03*
%TO.P,U7,6,A4*%
%TO.N,/D2*%
X83615000Y-33315000D03*
%TO.P,U7,7,A5*%
%TO.N,/D7*%
X83615000Y-34585000D03*
%TO.P,U7,8,A6*%
%TO.N,/D0*%
X83615000Y-35855000D03*
%TO.P,U7,9,A7*%
%TO.N,/D1*%
X83615000Y-37125000D03*
%TO.P,U7,10,GND*%
%TO.N,GND*%
X83615000Y-38395000D03*
%TO.P,U7,11,B7*%
%TO.N,/HOST_D1*%
X92915000Y-38395000D03*
%TO.P,U7,12,B6*%
%TO.N,/HOST_D0*%
X92915000Y-37125000D03*
%TO.P,U7,13,B5*%
%TO.N,/HOST_D7*%
X92915000Y-35855000D03*
%TO.P,U7,14,B4*%
%TO.N,/HOST_D2*%
X92915000Y-34585000D03*
%TO.P,U7,15,B3*%
%TO.N,/HOST_D6*%
X92915000Y-33315000D03*
%TO.P,U7,16,B2*%
%TO.N,/HOST_D5*%
X92915000Y-32045000D03*
%TO.P,U7,17,B1*%
%TO.N,/HOST_D3*%
X92915000Y-30775000D03*
%TO.P,U7,18,B0*%
%TO.N,/HOST_D4*%
X92915000Y-29505000D03*
%TO.P,U7,19,CE*%
%TO.N,Net-(JP8-B)*%
X92915000Y-28235000D03*
%TO.P,U7,20,VCC*%
%TO.N,VCC*%
X92915000Y-26965000D03*
%TD*%
D12*
%TO.P,TP1,1,1*%
%TO.N,/CLK*%
X49530000Y-29210000D03*
%TD*%
D15*
%TO.P,C7,1*%
%TO.N,VCC*%
X96747500Y-46990000D03*
%TO.P,C7,2*%
%TO.N,GND*%
X95022500Y-46990000D03*
%TD*%
D19*
%TO.P,R7,1*%
%TO.N,Net-(JP9-C)*%
X52705000Y-58975000D03*
%TO.P,R7,2*%
%TO.N,GND*%
X52705000Y-57150000D03*
%TD*%
D10*
%TO.P,R3,1*%
%TO.N,Net-(U2-D6)*%
X82192500Y-60960000D03*
%TO.P,R3,2*%
%TO.N,GND*%
X80367500Y-60960000D03*
%TD*%
D20*
%TO.P,U3,1*%
%TO.N,/MREQ_N*%
X74295000Y-46355000D03*
%TO.P,U3,2*%
%TO.N,/IORQ_N*%
X74295000Y-47625000D03*
%TO.P,U3,3*%
%TO.N,Net-(U3-Pad12)*%
X74295000Y-48895000D03*
%TO.P,U3,4*%
%TO.N,/BUSAK_N*%
X74295000Y-50165000D03*
%TO.P,U3,5*%
%TO.N,Net-(JP4-B)*%
X74295000Y-51435000D03*
%TO.P,U3,6*%
%TO.N,Net-(JP8-A)*%
X74295000Y-52705000D03*
%TO.P,U3,7,GND*%
%TO.N,GND*%
X74295000Y-53975000D03*
%TO.P,U3,8*%
%TO.N,Net-(JP7-A)*%
X79245000Y-53975000D03*
%TO.P,U3,9*%
%TO.N,VCC*%
X79245000Y-52705000D03*
%TO.P,U3,10*%
%TO.N,Net-(U3-Pad10)*%
X79245000Y-51435000D03*
%TO.P,U3,11*%
%TO.N,/BUSAK_N*%
X79245000Y-50165000D03*
%TO.P,U3,12*%
%TO.N,Net-(U3-Pad12)*%
X79245000Y-48895000D03*
%TO.P,U3,13*%
%TO.N,VCC*%
X79245000Y-47625000D03*
%TO.P,U3,14,VCC*%
X79245000Y-46355000D03*
%TD*%
%TO.P,U4,1*%
%TO.N,Net-(C1-Pad1)*%
X57785000Y-47625000D03*
%TO.P,U4,2*%
%TO.N,/CLK_N*%
X57785000Y-48895000D03*
%TO.P,U4,3*%
%TO.N,Net-(U4-Pad3)*%
X57785000Y-50165000D03*
%TO.P,U4,4*%
%TO.N,Net-(JP1-A)*%
X57785000Y-51435000D03*
%TO.P,U4,5*%
%TO.N,Net-(U4-Pad3)*%
X57785000Y-52705000D03*
%TO.P,U4,6*%
%TO.N,/CLK_2X*%
X57785000Y-53975000D03*
%TO.P,U4,7,GND*%
%TO.N,GND*%
X57785000Y-55245000D03*
%TO.P,U4,8*%
%TO.N,/CLK_N*%
X62735000Y-55245000D03*
%TO.P,U4,9*%
%TO.N,VCC*%
X62735000Y-53975000D03*
%TO.P,U4,10*%
%TO.N,/CLK*%
X62735000Y-52705000D03*
%TO.P,U4,11*%
%TO.N,Net-(U3-Pad10)*%
X62735000Y-51435000D03*
%TO.P,U4,12*%
%TO.N,VCC*%
X62735000Y-50165000D03*
%TO.P,U4,13*%
%TO.N,/RD_N*%
X62735000Y-48895000D03*
%TO.P,U4,14,VCC*%
%TO.N,VCC*%
X62735000Y-47625000D03*
%TD*%
D12*
%TO.P,JP9,1,A*%
%TO.N,/CLK_N*%
X60960000Y-59055000D03*
D13*
%TO.P,JP9,2,C*%
%TO.N,Net-(JP9-C)*%
X58420000Y-59055000D03*
%TO.P,JP9,3,B*%
%TO.N,/CLK_2X*%
X55880000Y-59055000D03*
%TD*%
D11*
%TO.P,R1,1*%
%TO.N,Net-(JP1-A)*%
X53062500Y-54610000D03*
%TO.P,R1,2*%
%TO.N,GND*%
X54887500Y-54610000D03*
%TD*%
D15*
%TO.P,C2,1*%
%TO.N,VCC*%
X75157500Y-24765000D03*
%TO.P,C2,2*%
%TO.N,GND*%
X73432500Y-24765000D03*
%TD*%
D21*
%TO.P,C1,1*%
%TO.N,Net-(C1-Pad1)*%
X53340000Y-43587500D03*
%TO.P,C1,2*%
%TO.N,GND*%
X53340000Y-45312500D03*
%TD*%
D22*
%TO.N,GND*%
X94615000Y-41656000D03*
X61722000Y-44704000D03*
X86360000Y-51435000D03*
X84963000Y-63707000D03*
X86487000Y-24765000D03*
X68072000Y-38354000D03*
X53467000Y-46355000D03*
X81915000Y-38481000D03*
X72263000Y-24765000D03*
X75819000Y-53975000D03*
X56134000Y-54737000D03*
X94133500Y-48286500D03*
X53594000Y-57150000D03*
X93599000Y-23749000D03*
X80367500Y-61976000D03*
X76454000Y-45847000D03*
%TO.N,VCC*%
X90424000Y-39914000D03*
X80010000Y-43688000D03*
X59436000Y-33909000D03*
X59436000Y-38279000D03*
X66294000Y-54610000D03*
X78567250Y-45384750D03*
X86741000Y-39878000D03*
X98205000Y-45593000D03*
X50292000Y-45339000D03*
X65151000Y-56388000D03*
%TO.N,/IORQ_N*%
X69596000Y-60071000D03*
X69342000Y-65231000D03*
%TO.N,/BUSAK_N*%
X65786000Y-59944000D03*
X65786000Y-63731000D03*
%TO.N,/MREQ_N*%
X67691000Y-59944000D03*
X67691000Y-64331000D03*
%TO.N,/CLK*%
X52324000Y-41402000D03*
X48431426Y-37255426D03*
%TO.N,/RD_N*%
X68834000Y-56678000D03*
X64008000Y-64931000D03*
X64008000Y-59944000D03*
X68834000Y-53910000D03*
%TO.N,Net-(JP5-B)*%
X64706266Y-34400000D03*
X63754000Y-39497000D03*
%TO.N,Net-(JP7-A)*%
X58115757Y-41960243D03*
%TO.N,Net-(U2-Q4)*%
X97917000Y-53340000D03*
X96139000Y-58039000D03*
%TO.N,Net-(JP8-A)*%
X57216050Y-33919000D03*
X57289834Y-39383800D03*
%TO.N,Net-(JP9-C)*%
X58420000Y-63131000D03*
%TD*%
D23*
%TO.N,GND*%
X56007000Y-54610000D02*
X56134000Y-54737000D01*
X52705000Y-57150000D02*
X53594000Y-57150000D01*
X53340000Y-45312500D02*
X53340000Y-46228000D01*
X75907500Y-44450000D02*
X75907500Y-45300500D01*
X94749000Y-41790000D02*
X94615000Y-41656000D01*
X54887500Y-54610000D02*
X56007000Y-54610000D01*
X94133500Y-48286500D02*
X92890000Y-49530000D01*
X84885000Y-62865000D02*
X84885000Y-63629000D01*
X80367500Y-59055000D02*
X80367500Y-61976000D01*
X93622500Y-24765000D02*
X93622500Y-23772500D01*
X87630000Y-24765000D02*
X86487000Y-24765000D01*
X84885000Y-63629000D02*
X84963000Y-63707000D01*
X73432500Y-24765000D02*
X72263000Y-24765000D01*
X61775000Y-45720000D02*
X61775000Y-44757000D01*
X95022500Y-46990000D02*
X95022500Y-47397500D01*
X74295000Y-53975000D02*
X75819000Y-53975000D01*
X93622500Y-23772500D02*
X93599000Y-23749000D01*
X82001000Y-38395000D02*
X81915000Y-38481000D01*
X83615000Y-38395000D02*
X82001000Y-38395000D01*
X75907500Y-45300500D02*
X76454000Y-45847000D01*
X56642000Y-55245000D02*
X56134000Y-54737000D01*
X95022500Y-47397500D02*
X94133500Y-48286500D01*
X68113000Y-38395000D02*
X68072000Y-38354000D01*
X95250000Y-41790000D02*
X94749000Y-41790000D01*
X80367500Y-61976000D02*
X80367500Y-62865000D01*
X53340000Y-46228000D02*
X53467000Y-46355000D01*
X69645000Y-38395000D02*
X68113000Y-38395000D01*
X61775000Y-44757000D02*
X61722000Y-44704000D01*
X84885000Y-51435000D02*
X86360000Y-51435000D01*
X57785000Y-55245000D02*
X56642000Y-55245000D01*
%TO.N,VCC*%
X70142500Y-53340000D02*
X69905000Y-53102500D01*
X88580000Y-25540000D02*
X89355000Y-24765000D01*
X66294000Y-54610000D02*
X69342000Y-54610000D01*
X59957000Y-23990000D02*
X69987500Y-23990000D01*
X72080000Y-49530000D02*
X72263000Y-49347000D01*
X86741000Y-39878000D02*
X86166942Y-40452058D01*
X66294000Y-54610000D02*
X65762500Y-54078500D01*
X79245000Y-46355000D02*
X79245000Y-46062500D01*
X63500000Y-46101000D02*
X62735000Y-46866000D01*
X79245000Y-52705000D02*
X80219999Y-52705000D01*
X59436000Y-24511000D02*
X59957000Y-23990000D01*
X65762500Y-54078500D02*
X65762500Y-53340000D01*
X94185000Y-50849000D02*
X94615000Y-50419000D01*
X98144500Y-45593000D02*
X96747500Y-46990000D01*
X92456000Y-41275000D02*
X94581000Y-43400000D01*
X69905000Y-50110000D02*
X70485000Y-49530000D01*
X69342000Y-54610000D02*
X70142500Y-53809500D01*
X96550000Y-44450000D02*
X97062000Y-44450000D01*
X70762500Y-24765000D02*
X71537500Y-23990000D01*
X78567250Y-45384750D02*
X77632500Y-44450000D01*
X91555000Y-26965000D02*
X92915000Y-26965000D01*
X79245000Y-47625000D02*
X79245000Y-46355000D01*
X63500000Y-45720000D02*
X63500000Y-46101000D01*
X74382500Y-23990000D02*
X75157500Y-24765000D01*
X86166942Y-40452058D02*
X83245942Y-40452058D01*
X94615000Y-49530000D02*
X96747500Y-47397500D01*
X70142500Y-53809500D02*
X70142500Y-53340000D01*
X96550000Y-44226000D02*
X96550000Y-44450000D01*
X65151000Y-56388000D02*
X65151000Y-55437594D01*
X94581000Y-43400000D02*
X95724000Y-43400000D01*
X65762500Y-52217501D02*
X63709999Y-50165000D01*
X91785000Y-41275000D02*
X92456000Y-41275000D01*
X81026000Y-51898999D02*
X81026000Y-48431001D01*
X90424000Y-39914000D02*
X91785000Y-41275000D01*
X80219999Y-47625000D02*
X79245000Y-47625000D01*
X69987500Y-23990000D02*
X70762500Y-24765000D01*
X65151000Y-55437594D02*
X63688406Y-53975000D01*
X97062000Y-44450000D02*
X98205000Y-45593000D01*
X80370000Y-25540000D02*
X88580000Y-25540000D01*
X98205000Y-45593000D02*
X98144500Y-45593000D01*
X65762500Y-53340000D02*
X65762500Y-52217501D01*
X72263000Y-49347000D02*
X72263000Y-43307000D01*
X70485000Y-49530000D02*
X72080000Y-49530000D01*
X83245942Y-40452058D02*
X80010000Y-43688000D01*
X80219999Y-52705000D02*
X81026000Y-51898999D01*
X94185000Y-51435000D02*
X94185000Y-50849000D01*
X78945000Y-26965000D02*
X80370000Y-25540000D01*
X63688406Y-53975000D02*
X62735000Y-53975000D01*
X71537500Y-23990000D02*
X74382500Y-23990000D01*
X89355000Y-24765000D02*
X91555000Y-26965000D01*
X96747500Y-47397500D02*
X96747500Y-46990000D01*
X62735000Y-46866000D02*
X62735000Y-47625000D01*
X59436000Y-33909000D02*
X59436000Y-24511000D01*
X95724000Y-43400000D02*
X96550000Y-44226000D01*
X63709999Y-50165000D02*
X62735000Y-50165000D01*
X75157500Y-24765000D02*
X76745000Y-24765000D01*
X69905000Y-53102500D02*
X69905000Y-50110000D01*
X94615000Y-50419000D02*
X94615000Y-49530000D01*
X79245000Y-46062500D02*
X78567250Y-45384750D01*
X81026000Y-48431001D02*
X80219999Y-47625000D01*
X96550000Y-46792500D02*
X96747500Y-46990000D01*
X76745000Y-24765000D02*
X78945000Y-26965000D01*
D24*
X77632500Y-44450000D02*
X77632500Y-44742500D01*
%TO.N,Net-(C1-Pad1)*%
X53747500Y-43180000D02*
X55245000Y-43180000D01*
X53340000Y-43587500D02*
X53747500Y-43180000D01*
X57785000Y-47625000D02*
X56040000Y-47625000D01*
X54040000Y-45625000D02*
X54040000Y-44287500D01*
X56040000Y-47625000D02*
X54040000Y-45625000D01*
X54040000Y-44287500D02*
X53340000Y-43587500D01*
%TO.N,Net-(JP1-A)*%
X53980000Y-51435000D02*
X53975000Y-51440000D01*
X57785000Y-51435000D02*
X53980000Y-51435000D01*
X53062500Y-54610000D02*
X53062500Y-52352500D01*
X53062500Y-52352500D02*
X53975000Y-51440000D01*
%TO.N,/HOST_WAIT_N*%
X82352264Y-57785000D02*
X84885000Y-57785000D01*
X89235000Y-39289000D02*
X86995000Y-41529000D01*
X95900000Y-40782000D02*
X94407000Y-39289000D01*
X95900000Y-41790000D02*
X95900000Y-40782000D01*
X86614000Y-57785000D02*
X84885000Y-57785000D01*
X94407000Y-39289000D02*
X89235000Y-39289000D01*
X88145000Y-56254000D02*
X86614000Y-57785000D01*
X76068344Y-62206000D02*
X79981344Y-58293000D01*
X86995000Y-43815000D02*
X88145000Y-44965000D01*
X44345000Y-62125000D02*
X47817264Y-62125000D01*
X47898264Y-62206000D02*
X76068344Y-62206000D01*
X79981344Y-58293000D02*
X81844264Y-58293000D01*
X43180000Y-60960000D02*
X44345000Y-62125000D01*
X86995000Y-41529000D02*
X86995000Y-43180000D01*
X86995000Y-43180000D02*
X86995000Y-43815000D01*
X81844264Y-58293000D02*
X82352264Y-57785000D01*
X47817264Y-62125000D02*
X47898264Y-62206000D01*
X88145000Y-44965000D02*
X88145000Y-56254000D01*
%TO.N,/WAIT_N*%
X99695000Y-62103000D02*
X103017000Y-62103000D01*
X89757132Y-57245132D02*
X96229016Y-57245132D01*
X88445000Y-44270000D02*
X88445000Y-55933000D01*
X98679000Y-59695116D02*
X98679000Y-61087000D01*
X98679000Y-61087000D02*
X99695000Y-62103000D01*
X103017000Y-62103000D02*
X104140000Y-60980000D01*
X88445000Y-55933000D02*
X89757132Y-57245132D01*
X89535000Y-43180000D02*
X88445000Y-44270000D01*
X96229016Y-57245132D02*
X98679000Y-59695116D01*
%TO.N,Net-(JP3-A)*%
X88745000Y-50305000D02*
X92060000Y-46990000D01*
X94185000Y-56515000D02*
X89916000Y-56515000D01*
X88745000Y-55344000D02*
X88745000Y-50305000D01*
X89916000Y-56515000D02*
X88745000Y-55344000D01*
%TO.N,/HOST_RESET_N*%
X43180000Y-55880000D02*
X44577000Y-57277000D01*
X87845000Y-54579999D02*
X85909999Y-56515000D01*
X72341208Y-61006000D02*
X76602208Y-56745000D01*
X86980000Y-46990000D02*
X87845000Y-47855000D01*
X51475720Y-61006000D02*
X72341208Y-61006000D01*
X47746720Y-57277000D02*
X51475720Y-61006000D01*
X79699056Y-56745000D02*
X82596000Y-53848056D01*
X82596000Y-51374000D02*
X86980000Y-46990000D01*
X44577000Y-57277000D02*
X47746720Y-57277000D01*
X85909999Y-56515000D02*
X84885000Y-56515000D01*
X82596000Y-53848056D02*
X82596000Y-51374000D01*
X76602208Y-56745000D02*
X79699056Y-56745000D01*
X87845000Y-47855000D02*
X87845000Y-54579999D01*
%TO.N,/RESET_N*%
X95764264Y-52180000D02*
X100907264Y-57323000D01*
X92202000Y-48641000D02*
X91694000Y-49149000D01*
X92559000Y-48641000D02*
X92202000Y-48641000D01*
X91694000Y-50723486D02*
X93150514Y-52180000D01*
X102717000Y-57323000D02*
X104140000Y-55900000D01*
X90595000Y-45915000D02*
X93135000Y-45915000D01*
X89520000Y-46990000D02*
X90595000Y-45915000D01*
X93523500Y-46303500D02*
X93523500Y-47676500D01*
X93150514Y-52180000D02*
X95764264Y-52180000D01*
X100907264Y-57323000D02*
X102717000Y-57323000D01*
X93523500Y-47676500D02*
X92559000Y-48641000D01*
X93135000Y-45915000D02*
X93523500Y-46303500D01*
X91694000Y-49149000D02*
X91694000Y-50723486D01*
%TO.N,/CLK_N*%
X57497000Y-45178000D02*
X58495000Y-44180000D01*
X61341000Y-55245000D02*
X62735000Y-55245000D01*
X58985000Y-46666000D02*
X57497000Y-45178000D01*
X60960000Y-59055000D02*
X60960000Y-58293000D01*
X57495000Y-45180000D02*
X57497000Y-45178000D01*
X60960000Y-58293000D02*
X62735000Y-56518000D01*
X55245000Y-45180000D02*
X57495000Y-45180000D01*
X62735000Y-56518000D02*
X62735000Y-55245000D01*
X58985000Y-48669999D02*
X58985000Y-46666000D01*
X59436000Y-49571001D02*
X59436000Y-53340000D01*
X58759999Y-48895000D02*
X57785000Y-48895000D01*
X58759999Y-48895000D02*
X59436000Y-49571001D01*
X59436000Y-53340000D02*
X61341000Y-55245000D01*
X58759999Y-48895000D02*
X58985000Y-48669999D01*
%TO.N,/HOST_INT_N*%
X72465472Y-61306000D02*
X50216528Y-61306000D01*
X76726472Y-57045000D02*
X72465472Y-61306000D01*
X84885000Y-52705000D02*
X83935000Y-52705000D01*
X50216528Y-61306000D02*
X47330528Y-58420000D01*
X83935000Y-52705000D02*
X83935000Y-52933320D01*
X79823320Y-57045000D02*
X76726472Y-57045000D01*
X83935000Y-52933320D02*
X79823320Y-57045000D01*
X47330528Y-58420000D02*
X45720000Y-58420000D01*
%TO.N,/BUSREQ_N*%
X95019264Y-53975000D02*
X100734264Y-59690000D01*
X94185000Y-53975000D02*
X95019264Y-53975000D01*
X102890000Y-59690000D02*
X104140000Y-58440000D01*
X100734264Y-59690000D02*
X102890000Y-59690000D01*
%TO.N,/INT_N*%
X94185000Y-52705000D02*
X95865000Y-52705000D01*
X95865000Y-52705000D02*
X101600000Y-58440000D01*
%TO.N,/HOST_NMI_N*%
X48317000Y-61906000D02*
X47371000Y-60960000D01*
X84885000Y-55245000D02*
X83947000Y-55245000D01*
X83947000Y-55245000D02*
X81199000Y-57993000D01*
X81199000Y-57993000D02*
X79857080Y-57993000D01*
X47371000Y-60960000D02*
X45720000Y-60960000D01*
X79857080Y-57993000D02*
X75944080Y-61906000D01*
X75944080Y-61906000D02*
X48317000Y-61906000D01*
%TO.N,/HOST_BUSREQ_N*%
X44450000Y-59690000D02*
X43180000Y-58420000D01*
X72589736Y-61606000D02*
X48865528Y-61606000D01*
X83439000Y-53975000D02*
X80069000Y-57345000D01*
X76850736Y-57345000D02*
X72589736Y-61606000D01*
X46949528Y-59690000D02*
X44450000Y-59690000D01*
X80069000Y-57345000D02*
X76850736Y-57345000D01*
X48865528Y-61606000D02*
X46949528Y-59690000D01*
X84885000Y-53975000D02*
X83439000Y-53975000D01*
%TO.N,/NMI_N*%
X94185000Y-55245000D02*
X95865000Y-55245000D01*
X95865000Y-55245000D02*
X101600000Y-60980000D01*
%TO.N,/IORQ_N*%
X81869000Y-47045250D02*
X78084750Y-43261000D01*
X73776000Y-56145000D02*
X79450528Y-56145000D01*
X72771000Y-47075999D02*
X73320001Y-47625000D01*
X81869000Y-53726528D02*
X81869000Y-47045250D01*
X69850000Y-60071000D02*
X73776000Y-56145000D01*
X72771000Y-45676736D02*
X72771000Y-47075999D01*
X69017000Y-65556000D02*
X63807264Y-65556000D01*
X74058208Y-68600000D02*
X101600000Y-68600000D01*
X61648264Y-67715000D02*
X46585000Y-67715000D01*
X79450528Y-56145000D02*
X81869000Y-53726528D01*
X69596000Y-60071000D02*
X69850000Y-60071000D01*
X69342000Y-65231000D02*
X69017000Y-65556000D01*
X69342000Y-65231000D02*
X70689208Y-65231000D01*
X46585000Y-67715000D02*
X45720000Y-68580000D01*
X73320001Y-47625000D02*
X74295000Y-47625000D01*
X63807264Y-65556000D02*
X61648264Y-67715000D01*
X75186736Y-43261000D02*
X72771000Y-45676736D01*
X70689208Y-65231000D02*
X74058208Y-68600000D01*
X78084750Y-43261000D02*
X75186736Y-43261000D01*
%TO.N,/BUSAK_N*%
X65786000Y-59944000D02*
X65786000Y-59436000D01*
X93213528Y-64685000D02*
X102975000Y-64685000D01*
X65786000Y-59436000D02*
X67899000Y-57323000D01*
X69804000Y-57323000D02*
X71582000Y-55545000D01*
X70985528Y-63406000D02*
X72811528Y-65232000D01*
X65461000Y-63406000D02*
X60007148Y-63406000D01*
X80271748Y-51960000D02*
X80542748Y-51689000D01*
X80542748Y-53721000D02*
X80271748Y-53450000D01*
X65786000Y-63731000D02*
X65461000Y-63406000D01*
X78342000Y-51960000D02*
X80271748Y-51960000D01*
X80542748Y-51689000D02*
X80542748Y-50487749D01*
X80542748Y-50487749D02*
X80219999Y-50165000D01*
X80542748Y-54204252D02*
X80542748Y-53721000D01*
X80219999Y-50165000D02*
X79245000Y-50165000D01*
X79202000Y-55545000D02*
X80542748Y-54204252D01*
X102975000Y-64685000D02*
X104140000Y-63520000D01*
X66111000Y-63406000D02*
X70985528Y-63406000D01*
X92666528Y-65232000D02*
X93213528Y-64685000D01*
X74295000Y-50165000D02*
X79245000Y-50165000D01*
X67899000Y-57323000D02*
X69804000Y-57323000D01*
X44323000Y-64643000D02*
X43180000Y-63500000D01*
X71582000Y-55545000D02*
X79202000Y-55545000D01*
X77724000Y-52832000D02*
X77724000Y-52578000D01*
X77724000Y-52578000D02*
X78342000Y-51960000D01*
X60007148Y-63406000D02*
X58770148Y-64643000D01*
X58770148Y-64643000D02*
X44323000Y-64643000D01*
X78342000Y-53450000D02*
X77724000Y-52832000D01*
X80271748Y-53450000D02*
X78342000Y-53450000D01*
X72811528Y-65232000D02*
X92666528Y-65232000D01*
X65786000Y-63731000D02*
X66111000Y-63406000D01*
%TO.N,Net-(U3-Pad10)*%
X76454000Y-52070000D02*
X77089000Y-51435000D01*
X64643000Y-53975000D02*
X66121000Y-55453000D01*
X77089000Y-51435000D02*
X79245000Y-51435000D01*
X72771000Y-53848000D02*
X72771000Y-52719514D01*
X66121000Y-55453000D02*
X70401208Y-55453000D01*
X71209208Y-54645000D02*
X71974000Y-54645000D01*
X63709999Y-51435000D02*
X64643000Y-52368001D01*
X70401208Y-55453000D02*
X71209208Y-54645000D01*
X64643000Y-52368001D02*
X64643000Y-53975000D01*
X73420514Y-52070000D02*
X76454000Y-52070000D01*
X62735000Y-51435000D02*
X63709999Y-51435000D01*
X72771000Y-52719514D02*
X73420514Y-52070000D01*
X71974000Y-54645000D02*
X72771000Y-53848000D01*
%TO.N,Net-(JP4-B)*%
X72385000Y-50795000D02*
X73025000Y-51435000D01*
X71967500Y-52492500D02*
X73025000Y-51435000D01*
X74295000Y-51435000D02*
X73025000Y-51435000D01*
X71967500Y-53340000D02*
X71967500Y-52492500D01*
X71055000Y-50795000D02*
X72385000Y-50795000D01*
%TO.N,/MREQ_N*%
X66169148Y-64656000D02*
X65402852Y-64656000D01*
X70104000Y-58420000D02*
X72679000Y-55845000D01*
X67691000Y-64331000D02*
X68016000Y-64006000D01*
X64752852Y-64006000D02*
X60255676Y-64006000D01*
X74295000Y-44577000D02*
X74295000Y-46355000D01*
X75311000Y-43561000D02*
X74295000Y-44577000D01*
X67691000Y-59944000D02*
X69215000Y-58420000D01*
X66494148Y-64331000D02*
X66169148Y-64656000D01*
X77960486Y-43561000D02*
X75311000Y-43561000D01*
X60255676Y-64006000D02*
X59018676Y-65243000D01*
X81569000Y-47169514D02*
X77960486Y-43561000D01*
X79326264Y-55845000D02*
X81569000Y-53602264D01*
X81569000Y-53602264D02*
X81569000Y-47169514D01*
X67691000Y-64331000D02*
X66494148Y-64331000D01*
X69215000Y-58420000D02*
X70104000Y-58420000D01*
X65402852Y-64656000D02*
X64752852Y-64006000D01*
X46517000Y-65243000D02*
X45720000Y-66040000D01*
X59018676Y-65243000D02*
X46517000Y-65243000D01*
X70737000Y-64006000D02*
X72791000Y-66060000D01*
X68016000Y-64006000D02*
X70737000Y-64006000D01*
X72679000Y-55845000D02*
X79326264Y-55845000D01*
X72791000Y-66060000D02*
X101600000Y-66060000D01*
%TO.N,Net-(U3-Pad12)*%
X79245000Y-48895000D02*
X74295000Y-48895000D01*
%TO.N,Net-(U4-Pad3)*%
X58674000Y-52705000D02*
X57785000Y-52705000D01*
X59055000Y-52324000D02*
X58674000Y-52705000D01*
X58759999Y-50165000D02*
X59055000Y-50460001D01*
X59055000Y-50460001D02*
X59055000Y-52324000D01*
X57785000Y-50165000D02*
X58759999Y-50165000D01*
%TO.N,/CLK*%
X49530000Y-29210000D02*
X56898000Y-21842000D01*
X41910000Y-34798000D02*
X42418000Y-34290000D01*
X48006000Y-36830000D02*
X42418000Y-36830000D01*
X60233000Y-43193602D02*
X60233000Y-51177999D01*
X98425000Y-23133376D02*
X98425000Y-29865000D01*
X42418000Y-34290000D02*
X44025736Y-34290000D01*
X52324000Y-41402000D02*
X52578000Y-41148000D01*
X41910000Y-36322000D02*
X41910000Y-34798000D01*
X58187398Y-41148000D02*
X60233000Y-43193602D01*
X44025736Y-34290000D02*
X45295736Y-33020000D01*
X97133624Y-21842000D02*
X98425000Y-23133376D01*
X45295736Y-33020000D02*
X45720000Y-33020000D01*
X45720000Y-33020000D02*
X49530000Y-29210000D01*
X61760001Y-52705000D02*
X62735000Y-52705000D01*
X60233000Y-51177999D02*
X61760001Y-52705000D01*
X52578000Y-41148000D02*
X58187398Y-41148000D01*
X42418000Y-36830000D02*
X41910000Y-36322000D01*
X56898000Y-21842000D02*
X97133624Y-21842000D01*
X98425000Y-29865000D02*
X101600000Y-33040000D01*
X48431426Y-37255426D02*
X48006000Y-36830000D01*
%TO.N,/CLK_2X*%
X52115584Y-37425000D02*
X65365000Y-37425000D01*
X49337132Y-40203452D02*
X52115584Y-37425000D01*
X55880000Y-59055000D02*
X54864000Y-58039000D01*
X65365000Y-37425000D02*
X69215000Y-41275000D01*
X55880000Y-59055000D02*
X58985000Y-55950000D01*
X58759999Y-53975000D02*
X57785000Y-53975000D01*
X49337132Y-55052132D02*
X49337132Y-40203452D01*
X58985000Y-55950000D02*
X58985000Y-54200001D01*
X54864000Y-58039000D02*
X52324000Y-58039000D01*
X52324000Y-58039000D02*
X49337132Y-55052132D01*
X58985000Y-54200001D02*
X58759999Y-53975000D01*
%TO.N,/HOST_D0*%
X73152000Y-36576000D02*
X72431000Y-35855000D01*
X48737132Y-50322868D02*
X48737132Y-39954924D01*
X45720000Y-53340000D02*
X48737132Y-50322868D01*
X87693500Y-36576000D02*
X73152000Y-36576000D01*
X66761000Y-35855000D02*
X69645000Y-35855000D01*
X88242500Y-37125000D02*
X87693500Y-36576000D01*
X92915000Y-37125000D02*
X88242500Y-37125000D01*
X51867056Y-36825000D02*
X65791000Y-36825000D01*
X48737132Y-39954924D02*
X51867056Y-36825000D01*
X65791000Y-36825000D02*
X66761000Y-35855000D01*
X72431000Y-35855000D02*
X69645000Y-35855000D01*
%TO.N,/HOST_D3*%
X66583000Y-31334000D02*
X68412000Y-29505000D01*
X66583000Y-33911680D02*
X66583000Y-31334000D01*
X73596500Y-30099000D02*
X87757000Y-30099000D01*
X51245736Y-35325000D02*
X65169680Y-35325000D01*
X45720000Y-38100000D02*
X48470736Y-38100000D01*
X88433000Y-30775000D02*
X92915000Y-30775000D01*
X87757000Y-30099000D02*
X88433000Y-30775000D01*
X69645000Y-29505000D02*
X73002500Y-29505000D01*
X48470736Y-38100000D02*
X51245736Y-35325000D01*
X73002500Y-29505000D02*
X73596500Y-30099000D01*
X65169680Y-35325000D02*
X66583000Y-33911680D01*
X68412000Y-29505000D02*
X69645000Y-29505000D01*
%TO.N,/HOST_D4*%
X65045416Y-35025000D02*
X51121472Y-35025000D01*
X50586472Y-35560000D02*
X45720000Y-35560000D01*
X87884000Y-28829000D02*
X88560000Y-29505000D01*
X66283000Y-30491000D02*
X66283000Y-33787416D01*
X72517000Y-28829000D02*
X87884000Y-28829000D01*
X88560000Y-29505000D02*
X92915000Y-29505000D01*
X69645000Y-28235000D02*
X71923000Y-28235000D01*
X69645000Y-28235000D02*
X68539000Y-28235000D01*
X51121472Y-35025000D02*
X50586472Y-35560000D01*
X68539000Y-28235000D02*
X66283000Y-30491000D01*
X66283000Y-33787416D02*
X65045416Y-35025000D01*
X71923000Y-28235000D02*
X72517000Y-28829000D01*
%TO.N,/HOST_D2*%
X69645000Y-33315000D02*
X72558000Y-33315000D01*
X87757000Y-33909000D02*
X88433000Y-34585000D01*
X72558000Y-33315000D02*
X73152000Y-33909000D01*
X88433000Y-34585000D02*
X92915000Y-34585000D01*
X73152000Y-33909000D02*
X87757000Y-33909000D01*
X45720000Y-48260000D02*
X48137132Y-45842868D01*
X65542472Y-36225000D02*
X68452472Y-33315000D01*
X48137132Y-39706396D02*
X51618528Y-36225000D01*
X68452472Y-33315000D02*
X69645000Y-33315000D01*
X48137132Y-45842868D02*
X48137132Y-39706396D01*
X51618528Y-36225000D02*
X65542472Y-36225000D01*
%TO.N,/D5*%
X96667472Y-31496000D02*
X99395000Y-34223528D01*
X99395000Y-34223528D02*
X99395000Y-38455000D01*
X78945000Y-30775000D02*
X83615000Y-30775000D01*
X87734500Y-30775000D02*
X88455500Y-31496000D01*
X99395000Y-38455000D02*
X101600000Y-40660000D01*
X83615000Y-30775000D02*
X87734500Y-30775000D01*
X88455500Y-31496000D02*
X96667472Y-31496000D01*
%TO.N,/HOST_D1*%
X88242500Y-38395000D02*
X92915000Y-38395000D01*
X51991320Y-37125000D02*
X49037132Y-40079188D01*
X72558000Y-37125000D02*
X73152000Y-37719000D01*
X69645000Y-37125000D02*
X51991320Y-37125000D01*
X87566500Y-37719000D02*
X88242500Y-38395000D01*
X69645000Y-37125000D02*
X72558000Y-37125000D01*
X73152000Y-37719000D02*
X87566500Y-37719000D01*
X49037132Y-52562868D02*
X45720000Y-55880000D01*
X49037132Y-40079188D02*
X49037132Y-52562868D01*
%TO.N,/D6*%
X78945000Y-32045000D02*
X83615000Y-32045000D01*
X87798000Y-32045000D02*
X88392000Y-32639000D01*
X83615000Y-32045000D02*
X87798000Y-32045000D01*
X99095000Y-34347792D02*
X99095000Y-40695000D01*
X99095000Y-40695000D02*
X101600000Y-43200000D01*
X97386208Y-32639000D02*
X99095000Y-34347792D01*
X88392000Y-32639000D02*
X97386208Y-32639000D01*
%TO.N,/D1*%
X99430000Y-42727056D02*
X99430000Y-53730000D01*
X87607500Y-37125000D02*
X88201500Y-37719000D01*
X97895000Y-41192056D02*
X99430000Y-42727056D01*
X78945000Y-37125000D02*
X83615000Y-37125000D01*
X96266000Y-37719000D02*
X97895000Y-39348000D01*
X99430000Y-53730000D02*
X101600000Y-55900000D01*
X83615000Y-37125000D02*
X87607500Y-37125000D01*
X97895000Y-39348000D02*
X97895000Y-41192056D01*
X88201500Y-37719000D02*
X96266000Y-37719000D01*
%TO.N,/D7*%
X100030000Y-49250000D02*
X100030000Y-42478528D01*
X101600000Y-50820000D02*
X100030000Y-49250000D01*
X88328500Y-35179000D02*
X87734500Y-34585000D01*
X78945000Y-34585000D02*
X83615000Y-34585000D01*
X96901000Y-35179000D02*
X88328500Y-35179000D01*
X87734500Y-34585000D02*
X83615000Y-34585000D01*
X100030000Y-42478528D02*
X98495000Y-40943528D01*
X98495000Y-40943528D02*
X98495000Y-36773000D01*
X98495000Y-36773000D02*
X96901000Y-35179000D01*
%TO.N,/HOST_D7*%
X65666736Y-36525000D02*
X67606736Y-34585000D01*
X73152000Y-35179000D02*
X87630000Y-35179000D01*
X69645000Y-34585000D02*
X72558000Y-34585000D01*
X88306000Y-35855000D02*
X92915000Y-35855000D01*
X67606736Y-34585000D02*
X69645000Y-34585000D01*
X48437132Y-39830660D02*
X51742792Y-36525000D01*
X45720000Y-50800000D02*
X48437132Y-48082868D01*
X72558000Y-34585000D02*
X73152000Y-35179000D01*
X87630000Y-35179000D02*
X88306000Y-35855000D01*
X51742792Y-36525000D02*
X65666736Y-36525000D01*
X48437132Y-48082868D02*
X48437132Y-39830660D01*
%TO.N,/D3*%
X99695000Y-36215000D02*
X101600000Y-38120000D01*
X95694736Y-30099000D02*
X99695000Y-34099264D01*
X78945000Y-29505000D02*
X83615000Y-29505000D01*
X99695000Y-34099264D02*
X99695000Y-36215000D01*
X83615000Y-29505000D02*
X87925000Y-29505000D01*
X87925000Y-29505000D02*
X88519000Y-30099000D01*
X88519000Y-30099000D02*
X95694736Y-30099000D01*
%TO.N,/HOST_D6*%
X87693500Y-32639000D02*
X88369500Y-33315000D01*
X47837132Y-39582132D02*
X47837132Y-41062868D01*
X73342500Y-32639000D02*
X87693500Y-32639000D01*
X51494264Y-35925000D02*
X47837132Y-39582132D01*
X67183000Y-33020000D02*
X67183000Y-34160208D01*
X47837132Y-41062868D02*
X45720000Y-43180000D01*
X68158000Y-32045000D02*
X67183000Y-33020000D01*
X88369500Y-33315000D02*
X92915000Y-33315000D01*
X69645000Y-32045000D02*
X72748500Y-32045000D01*
X65418208Y-35925000D02*
X51494264Y-35925000D01*
X67183000Y-34160208D02*
X65418208Y-35925000D01*
X72748500Y-32045000D02*
X73342500Y-32639000D01*
X69645000Y-32045000D02*
X68158000Y-32045000D01*
%TO.N,/D0*%
X99730000Y-51490000D02*
X101600000Y-53360000D01*
X78945000Y-35855000D02*
X83615000Y-35855000D01*
X99730000Y-42602792D02*
X99730000Y-51490000D01*
X98195000Y-37997000D02*
X98195000Y-41067792D01*
X87671000Y-35855000D02*
X88265000Y-36449000D01*
X88265000Y-36449000D02*
X96647000Y-36449000D01*
X96647000Y-36449000D02*
X98195000Y-37997000D01*
X83615000Y-35855000D02*
X87671000Y-35855000D01*
X98195000Y-41067792D02*
X99730000Y-42602792D01*
%TO.N,/D2*%
X97271000Y-34036000D02*
X98795000Y-35560000D01*
X98795000Y-35560000D02*
X98795000Y-40819264D01*
X83615000Y-33315000D02*
X87671000Y-33315000D01*
X100330000Y-42354264D02*
X100330000Y-47010000D01*
X98795000Y-40819264D02*
X100330000Y-42354264D01*
X87671000Y-33315000D02*
X88392000Y-34036000D01*
X78945000Y-33315000D02*
X83615000Y-33315000D01*
X88392000Y-34036000D02*
X97271000Y-34036000D01*
X100330000Y-47010000D02*
X101600000Y-48280000D01*
%TO.N,/D4*%
X87861500Y-28235000D02*
X88582500Y-28956000D01*
X78945000Y-28235000D02*
X83615000Y-28235000D01*
X83615000Y-28235000D02*
X87861500Y-28235000D01*
X88582500Y-28956000D02*
X94976000Y-28956000D01*
X94976000Y-28956000D02*
X101600000Y-35580000D01*
%TO.N,/HOST_D5*%
X69645000Y-30775000D02*
X72812000Y-30775000D01*
X46355000Y-40640000D02*
X51370000Y-35625000D01*
X72812000Y-30775000D02*
X73406000Y-31369000D01*
X65293944Y-35625000D02*
X66883000Y-34035944D01*
X45720000Y-40640000D02*
X46355000Y-40640000D01*
X51370000Y-35625000D02*
X65293944Y-35625000D01*
X66883000Y-32177000D02*
X68285000Y-30775000D01*
X66883000Y-34035944D02*
X66883000Y-32177000D01*
X73406000Y-31369000D02*
X87820500Y-31369000D01*
X68285000Y-30775000D02*
X69645000Y-30775000D01*
X88496500Y-32045000D02*
X92915000Y-32045000D01*
X87820500Y-31369000D02*
X88496500Y-32045000D01*
%TO.N,/HALT_N*%
X71109792Y-63106000D02*
X72935792Y-64932000D01*
X59882884Y-63106000D02*
X71109792Y-63106000D01*
X45720000Y-63500000D02*
X46276000Y-64056000D01*
X92542264Y-64932000D02*
X93954264Y-63520000D01*
X58932884Y-64056000D02*
X59882884Y-63106000D01*
X72935792Y-64932000D02*
X92542264Y-64932000D01*
X46276000Y-64056000D02*
X58932884Y-64056000D01*
X93954264Y-63520000D02*
X101600000Y-63520000D01*
%TO.N,/A9*%
X44450000Y-21590000D02*
X47244000Y-21590000D01*
X102850000Y-21590000D02*
X104140000Y-22880000D01*
X98252000Y-19142000D02*
X100700000Y-21590000D01*
X43180000Y-22860000D02*
X44450000Y-21590000D01*
X49692000Y-19142000D02*
X98252000Y-19142000D01*
X47244000Y-21590000D02*
X49692000Y-19142000D01*
X100700000Y-21590000D02*
X102850000Y-21590000D01*
%TO.N,/A4*%
X100965000Y-34290000D02*
X102850000Y-34290000D01*
X102850000Y-34290000D02*
X104140000Y-35580000D01*
X98125000Y-31450000D02*
X100965000Y-34290000D01*
X56916050Y-24701686D02*
X59475736Y-22142000D01*
X97009360Y-22142000D02*
X98125000Y-23257640D01*
X44450000Y-34290000D02*
X48514000Y-34290000D01*
X43180000Y-35560000D02*
X44450000Y-34290000D01*
X56916050Y-25887950D02*
X56916050Y-24701686D01*
X48514000Y-34290000D02*
X56916050Y-25887950D01*
X59475736Y-22142000D02*
X97009360Y-22142000D01*
X98125000Y-23257640D02*
X98125000Y-31450000D01*
%TO.N,/A3*%
X40548000Y-69631000D02*
X40548000Y-40732000D01*
X104140000Y-38120000D02*
X106437000Y-40417000D01*
X41462000Y-70545000D02*
X40548000Y-69631000D01*
X40548000Y-40732000D02*
X43180000Y-38100000D01*
X105500000Y-70545000D02*
X41462000Y-70545000D01*
X106437000Y-40417000D02*
X106437000Y-69608000D01*
X106437000Y-69608000D02*
X105500000Y-70545000D01*
%TO.N,/REFSH_N*%
X73184320Y-64332000D02*
X91158514Y-64332000D01*
X95423000Y-62403000D02*
X104237280Y-62403000D01*
X93260514Y-62230000D02*
X95250000Y-62230000D01*
X41805000Y-52175000D02*
X41805000Y-61105280D01*
X91158514Y-64332000D02*
X93260514Y-62230000D01*
X71358320Y-62506000D02*
X73184320Y-64332000D01*
X104237280Y-62403000D02*
X105215000Y-61425280D01*
X105215000Y-61425280D02*
X105215000Y-51895000D01*
X41805000Y-61105280D02*
X43124720Y-62425000D01*
X95250000Y-62230000D02*
X95423000Y-62403000D01*
X43180000Y-50800000D02*
X41805000Y-52175000D01*
X43124720Y-62425000D02*
X47693000Y-62425000D01*
X105215000Y-51895000D02*
X104140000Y-50820000D01*
X47774000Y-62506000D02*
X71358320Y-62506000D01*
X47693000Y-62425000D02*
X47774000Y-62506000D01*
%TO.N,/A8*%
X102850000Y-24130000D02*
X104140000Y-25420000D01*
X50748280Y-19742000D02*
X98003472Y-19742000D01*
X100965000Y-24130000D02*
X102850000Y-24130000D01*
X46360280Y-24130000D02*
X50748280Y-19742000D01*
X98003472Y-19742000D02*
X100525000Y-22263528D01*
X44450000Y-24130000D02*
X46360280Y-24130000D01*
X100525000Y-23690000D02*
X100965000Y-24130000D01*
X43180000Y-25400000D02*
X44450000Y-24130000D01*
X100525000Y-22263528D02*
X100525000Y-23690000D01*
%TO.N,/A2*%
X106137000Y-42657000D02*
X106137000Y-69483736D01*
X105375736Y-70245000D02*
X41586264Y-70245000D01*
X40848000Y-69506736D02*
X40848000Y-42972000D01*
X106137000Y-69483736D02*
X105375736Y-70245000D01*
X40848000Y-42972000D02*
X43180000Y-40640000D01*
X41586264Y-70245000D02*
X40848000Y-69506736D01*
X104140000Y-40660000D02*
X106137000Y-42657000D01*
%TO.N,/A13*%
X100225000Y-24152000D02*
X101493000Y-25420000D01*
X97879208Y-20042000D02*
X100225000Y-22387792D01*
X45720000Y-25400000D02*
X51078000Y-20042000D01*
X101493000Y-25420000D02*
X101600000Y-25420000D01*
X100225000Y-22387792D02*
X100225000Y-24152000D01*
X51078000Y-20042000D02*
X97879208Y-20042000D01*
%TO.N,/A6*%
X102850000Y-29210000D02*
X104140000Y-30500000D01*
X54864000Y-20942000D02*
X97506416Y-20942000D01*
X99325000Y-27800736D02*
X100734264Y-29210000D01*
X97506416Y-20942000D02*
X99325000Y-22760584D01*
X44450000Y-29210000D02*
X46596000Y-29210000D01*
X43180000Y-30480000D02*
X44450000Y-29210000D01*
X100734264Y-29210000D02*
X102850000Y-29210000D01*
X46596000Y-29210000D02*
X54864000Y-20942000D01*
X99325000Y-22760584D02*
X99325000Y-27800736D01*
%TO.N,/A10*%
X43180000Y-20320000D02*
X44958000Y-18542000D01*
X44958000Y-18542000D02*
X102342000Y-18542000D01*
X102342000Y-18542000D02*
X104140000Y-20340000D01*
%TO.N,/A1*%
X105837000Y-44897000D02*
X104140000Y-43200000D01*
X105251472Y-69945000D02*
X105837000Y-69359472D01*
X41148000Y-45212000D02*
X41148000Y-69382472D01*
X41148000Y-69382472D02*
X41710528Y-69945000D01*
X41710528Y-69945000D02*
X105251472Y-69945000D01*
X43180000Y-43180000D02*
X41148000Y-45212000D01*
X105837000Y-69359472D02*
X105837000Y-44897000D01*
%TO.N,/A11*%
X45720000Y-20320000D02*
X47198000Y-18842000D01*
X47198000Y-18842000D02*
X100102000Y-18842000D01*
X100102000Y-18842000D02*
X101600000Y-20340000D01*
%TO.N,/A7*%
X46482000Y-26670000D02*
X52810000Y-20342000D01*
X99925000Y-22512056D02*
X99925000Y-25884000D01*
X100711000Y-26670000D02*
X102850000Y-26670000D01*
X99925000Y-25884000D02*
X100711000Y-26670000D01*
X44450000Y-26670000D02*
X46482000Y-26670000D01*
X43180000Y-27940000D02*
X44450000Y-26670000D01*
X102850000Y-26670000D02*
X104140000Y-27960000D01*
X97754944Y-20342000D02*
X99925000Y-22512056D01*
X52810000Y-20342000D02*
X97754944Y-20342000D01*
%TO.N,/A12*%
X50027000Y-19442000D02*
X98127736Y-19442000D01*
X45720000Y-22860000D02*
X46609000Y-22860000D01*
X98127736Y-19442000D02*
X101565736Y-22880000D01*
X46609000Y-22860000D02*
X50027000Y-19442000D01*
X101565736Y-22880000D02*
X101600000Y-22880000D01*
%TO.N,/M1_N*%
X82169000Y-51308000D02*
X82169000Y-53850792D01*
X101997280Y-57023000D02*
X101031528Y-57023000D01*
X82169000Y-53850792D02*
X79574792Y-56445000D01*
X71501000Y-60706000D02*
X51599984Y-60706000D01*
X84992132Y-48484868D02*
X82169000Y-51308000D01*
X89027000Y-38989000D02*
X85060868Y-42955132D01*
X102675000Y-54825000D02*
X102675000Y-56345280D01*
X44912000Y-56977000D02*
X44450000Y-56515000D01*
X44450000Y-56515000D02*
X44450000Y-54610000D01*
X79574792Y-56445000D02*
X75762000Y-56445000D01*
X102675000Y-56345280D02*
X101997280Y-57023000D01*
X75762000Y-56445000D02*
X71501000Y-60706000D01*
X101031528Y-57023000D02*
X99130000Y-55121472D01*
X104140000Y-53360000D02*
X102675000Y-54825000D01*
X47870984Y-56977000D02*
X44912000Y-56977000D01*
X99130000Y-55121472D02*
X99130000Y-42869000D01*
X99130000Y-42869000D02*
X95250000Y-38989000D01*
X85060868Y-48484868D02*
X84992132Y-48484868D01*
X51599984Y-60706000D02*
X47870984Y-56977000D01*
X44450000Y-54610000D02*
X43180000Y-53340000D01*
X95250000Y-38989000D02*
X89027000Y-38989000D01*
X85060868Y-42955132D02*
X85060868Y-48484868D01*
%TO.N,/A15*%
X45720000Y-30480000D02*
X45750264Y-30480000D01*
X99025000Y-27925000D02*
X101600000Y-30500000D01*
X45750264Y-30480000D02*
X54988264Y-21242000D01*
X97382152Y-21242000D02*
X99025000Y-22884848D01*
X54988264Y-21242000D02*
X97382152Y-21242000D01*
X99025000Y-22884848D02*
X99025000Y-27925000D01*
%TO.N,/WR_N*%
X44255000Y-67115000D02*
X57570940Y-67115000D01*
X43180000Y-66040000D02*
X44255000Y-67115000D01*
X68790000Y-64306000D02*
X70612736Y-64306000D01*
X70612736Y-64306000D02*
X73489736Y-67183000D01*
X65278588Y-64956000D02*
X68140000Y-64956000D01*
X73489736Y-67183000D02*
X103017000Y-67183000D01*
X60379940Y-64306000D02*
X64628588Y-64306000D01*
X68140000Y-64956000D02*
X68790000Y-64306000D01*
X57570940Y-67115000D02*
X60379940Y-64306000D01*
X103017000Y-67183000D02*
X104140000Y-66060000D01*
X64628588Y-64306000D02*
X65278588Y-64956000D01*
%TO.N,/A0*%
X64877116Y-63706000D02*
X60131412Y-63706000D01*
X70861264Y-63706000D02*
X66694884Y-63706000D01*
X105537000Y-47137000D02*
X105537000Y-64389000D01*
X41505000Y-64111000D02*
X41505000Y-47395000D01*
X41505000Y-47395000D02*
X43180000Y-45720000D01*
X92790792Y-65532000D02*
X72687264Y-65532000D01*
X104140000Y-45740000D02*
X105537000Y-47137000D01*
X105537000Y-64389000D02*
X104941000Y-64985000D01*
X93337792Y-64985000D02*
X92790792Y-65532000D01*
X66694884Y-63706000D02*
X66044884Y-64356000D01*
X42337000Y-64943000D02*
X41505000Y-64111000D01*
X104941000Y-64985000D02*
X93337792Y-64985000D01*
X65527116Y-64356000D02*
X64877116Y-63706000D01*
X58894412Y-64943000D02*
X42337000Y-64943000D01*
X72687264Y-65532000D02*
X70861264Y-63706000D01*
X66044884Y-64356000D02*
X65527116Y-64356000D01*
X60131412Y-63706000D02*
X58894412Y-64943000D01*
%TO.N,/RD_N*%
X68264264Y-65256000D02*
X64333000Y-65256000D01*
X67528000Y-56678000D02*
X68834000Y-56678000D01*
X69728000Y-48255000D02*
X71055000Y-48255000D01*
X64008000Y-64931000D02*
X61524000Y-67415000D01*
X103023000Y-67483000D02*
X73365472Y-67483000D01*
X44345000Y-67415000D02*
X43180000Y-68580000D01*
X64008000Y-59944000D02*
X64262000Y-59944000D01*
X73365472Y-67483000D02*
X70488472Y-64606000D01*
X67691000Y-48260000D02*
X68707000Y-49276000D01*
X68707000Y-53783000D02*
X68834000Y-53910000D01*
X66675000Y-48260000D02*
X65659000Y-48260000D01*
X68707000Y-49276000D02*
X68707000Y-53783000D01*
X64262000Y-59944000D02*
X67528000Y-56678000D01*
X71050000Y-48260000D02*
X71055000Y-48255000D01*
X66675000Y-48260000D02*
X67691000Y-48260000D01*
X70488472Y-64606000D02*
X68914264Y-64606000D01*
X104140000Y-68600000D02*
X103023000Y-67483000D01*
X61524000Y-67415000D02*
X44345000Y-67415000D01*
X64333000Y-65256000D02*
X64008000Y-64931000D01*
X65024000Y-48895000D02*
X62735000Y-48895000D01*
X68707000Y-49276000D02*
X69728000Y-48255000D01*
X65659000Y-48260000D02*
X65024000Y-48895000D01*
X68914264Y-64606000D02*
X68264264Y-65256000D01*
%TO.N,/A5*%
X97257888Y-21542000D02*
X98725000Y-23009112D01*
X102850000Y-31750000D02*
X104140000Y-33040000D01*
X98725000Y-29740736D02*
X100734264Y-31750000D01*
X43180000Y-33020000D02*
X44450000Y-31750000D01*
X55112528Y-21542000D02*
X97257888Y-21542000D01*
X100734264Y-31750000D02*
X102850000Y-31750000D01*
X47307500Y-29347028D02*
X55112528Y-21542000D01*
X47307500Y-30543500D02*
X47307500Y-29347028D01*
X44450000Y-31750000D02*
X46101000Y-31750000D01*
X98725000Y-23009112D02*
X98725000Y-29740736D01*
X46101000Y-31750000D02*
X47307500Y-30543500D01*
%TO.N,/A14*%
X101493000Y-27960000D02*
X101600000Y-27960000D01*
X99625000Y-22636320D02*
X99625000Y-26092000D01*
X99625000Y-26092000D02*
X101493000Y-27960000D01*
X52954500Y-20642000D02*
X97630680Y-20642000D01*
X45720000Y-27940000D02*
X45720000Y-27876500D01*
X97630680Y-20642000D02*
X99625000Y-22636320D01*
X45720000Y-27876500D02*
X52954500Y-20642000D01*
%TO.N,Net-(U2-D7)*%
X83462500Y-61595000D02*
X82192500Y-62865000D01*
X84885000Y-61595000D02*
X83462500Y-61595000D01*
%TO.N,Net-(U2-D6)*%
X84885000Y-60325000D02*
X82827500Y-60325000D01*
X82827500Y-60325000D02*
X82192500Y-60960000D01*
%TO.N,Net-(U2-D5)*%
X84885000Y-59055000D02*
X82192500Y-59055000D01*
%TO.N,Net-(JP5-B)*%
X63754000Y-40894000D02*
X60833000Y-43815000D01*
X60833000Y-49149000D02*
X61104000Y-49420000D01*
X65295000Y-49420000D02*
X66675000Y-50800000D01*
X68776000Y-27490000D02*
X65983000Y-30283000D01*
X83615000Y-26965000D02*
X83090000Y-27490000D01*
X61104000Y-49420000D02*
X65295000Y-49420000D01*
X63754000Y-39497000D02*
X63754000Y-40894000D01*
X65983000Y-30283000D02*
X65983000Y-33663152D01*
X65246152Y-34400000D02*
X64706266Y-34400000D01*
X60833000Y-43815000D02*
X60833000Y-49149000D01*
X67587500Y-53340000D02*
X67587500Y-51712500D01*
X83090000Y-27490000D02*
X68776000Y-27490000D01*
X65983000Y-33663152D02*
X65246152Y-34400000D01*
X67587500Y-51712500D02*
X66675000Y-50800000D01*
%TO.N,Net-(JP7-A)*%
X59933000Y-43317866D02*
X59933000Y-52682486D01*
X61750514Y-54500000D02*
X63499486Y-54500000D01*
X59933000Y-52682486D02*
X61750514Y-54500000D01*
X63935000Y-54935514D02*
X63935000Y-56061000D01*
X70649736Y-56053000D02*
X71457736Y-55245000D01*
X64887000Y-57013000D02*
X65409884Y-57013000D01*
X58115757Y-41960243D02*
X58575377Y-41960243D01*
X77975000Y-55245000D02*
X79245000Y-53975000D01*
X66369884Y-56053000D02*
X70649736Y-56053000D01*
X58575377Y-41960243D02*
X59933000Y-43317866D01*
X63935000Y-56061000D02*
X64887000Y-57013000D01*
X63499486Y-54500000D02*
X63935000Y-54935514D01*
X71457736Y-55245000D02*
X77975000Y-55245000D01*
X65409884Y-57013000D02*
X66369884Y-56053000D01*
%TO.N,Net-(JP7-B)*%
X68620001Y-26965000D02*
X64130000Y-31455001D01*
X68937500Y-24765000D02*
X68937500Y-25376500D01*
X68937500Y-25376500D02*
X69645000Y-26084000D01*
X69645000Y-26965000D02*
X68620001Y-26965000D01*
X69645000Y-26084000D02*
X69645000Y-26965000D01*
X64130000Y-31455001D02*
X64130000Y-33020000D01*
%TO.N,Net-(U2-Q4)*%
X96139000Y-58039000D02*
X95885000Y-57785000D01*
X95885000Y-57785000D02*
X94185000Y-57785000D01*
X96550000Y-41790000D02*
X98830000Y-44070000D01*
X98830000Y-52427000D02*
X97917000Y-53340000D01*
X98830000Y-44070000D02*
X98830000Y-52427000D01*
%TO.N,Net-(JP2-A)*%
X93345000Y-44450000D02*
X95250000Y-44450000D01*
X92075000Y-43180000D02*
X93345000Y-44450000D01*
%TO.N,Net-(JP8-B)*%
X92583000Y-26162000D02*
X95382000Y-26162000D01*
X95585000Y-28235000D02*
X96520000Y-27300000D01*
X91797500Y-25376500D02*
X92583000Y-26162000D01*
X91797500Y-24765000D02*
X91797500Y-25376500D01*
X95382000Y-26162000D02*
X96520000Y-27300000D01*
X92915000Y-28235000D02*
X95585000Y-28235000D01*
%TO.N,Net-(JP8-A)*%
X65996736Y-55753000D02*
X70525472Y-55753000D01*
X70525472Y-55753000D02*
X71333472Y-54945000D01*
X72098264Y-54945000D02*
X73071000Y-53972264D01*
X57216050Y-33919000D02*
X57216050Y-24825950D01*
X63499486Y-51960000D02*
X64262000Y-52722514D01*
X73071000Y-53972264D02*
X73071000Y-52954001D01*
X73071000Y-52954001D02*
X73320001Y-52705000D01*
X57289834Y-39826172D02*
X60533000Y-43069338D01*
X64262000Y-52722514D02*
X64262000Y-54018264D01*
X61658000Y-51960000D02*
X63499486Y-51960000D01*
X57216050Y-24825950D02*
X59600000Y-22442000D01*
X59600000Y-22442000D02*
X94202000Y-22442000D01*
X73320001Y-52705000D02*
X74295000Y-52705000D01*
X64262000Y-54018264D02*
X65996736Y-55753000D01*
X71333472Y-54945000D02*
X72098264Y-54945000D01*
X60533000Y-50835000D02*
X61658000Y-51960000D01*
X94202000Y-22442000D02*
X96520000Y-24760000D01*
X57289834Y-39383800D02*
X57289834Y-39826172D01*
X60533000Y-43069338D02*
X60533000Y-50835000D01*
%TO.N,Net-(JP9-C)*%
X53860000Y-60130000D02*
X57345000Y-60130000D01*
X58420000Y-63131000D02*
X58745000Y-62806000D01*
X58745000Y-62806000D02*
X71234056Y-62806000D01*
X52705000Y-58975000D02*
X53860000Y-60130000D01*
X73060056Y-64632000D02*
X92418000Y-64632000D01*
X71234056Y-62806000D02*
X73060056Y-64632000D01*
X92418000Y-64632000D02*
X94185000Y-62865000D01*
X57345000Y-60130000D02*
X58420000Y-59055000D01*
%TO.N,Net-(JP6-B)*%
X71755000Y-41275000D02*
X74635000Y-38395000D01*
X74635000Y-38395000D02*
X78945000Y-38395000D01*
%TD*%
%TA.AperFunction,Conductor*%
%TO.N,VCC*%
G36*
X68400982Y-37470185D02*
G01*
X68434206Y-37506906D01*
X68436214Y-37505448D01*
X68441950Y-37513343D01*
X68497575Y-37568968D01*
X68531060Y-37630291D01*
X68526076Y-37699983D01*
X68484204Y-37755916D01*
X68418740Y-37780333D01*
X68352268Y-37766445D01*
X68304365Y-37741303D01*
X68150986Y-37703500D01*
X68150985Y-37703500D01*
X67993015Y-37703500D01*
X67993014Y-37703500D01*
X67839634Y-37741303D01*
X67699762Y-37814715D01*
X67581516Y-37919471D01*
X67491781Y-38049475D01*
X67491780Y-38049476D01*
X67435762Y-38197181D01*
X67416722Y-38353999D01*
X67416722Y-38354000D01*
X67435762Y-38510818D01*
X67470470Y-38602333D01*
X67491780Y-38658523D01*
X67581517Y-38788530D01*
X67699760Y-38893283D01*
X67699762Y-38893284D01*
X67839634Y-38966696D01*
X67993014Y-39004500D01*
X67993015Y-39004500D01*
X68150985Y-39004500D01*
X68304365Y-38966696D01*
X68444240Y-38893283D01*
X68444242Y-38893280D01*
X68450078Y-38890218D01*
X68518586Y-38876492D01*
X68563999Y-38889528D01*
X68615029Y-38915530D01*
X68644698Y-38930647D01*
X68738475Y-38945499D01*
X68738481Y-38945500D01*
X70551518Y-38945499D01*
X70645304Y-38930646D01*
X70758342Y-38873050D01*
X70848050Y-38783342D01*
X70905646Y-38670304D01*
X70905646Y-38670302D01*
X70905647Y-38670301D01*
X70920499Y-38576524D01*
X70920500Y-38576519D01*
X70920499Y-38213482D01*
X70905646Y-38119696D01*
X70848050Y-38006658D01*
X70848046Y-38006654D01*
X70848045Y-38006652D01*
X70758347Y-37916954D01*
X70758343Y-37916951D01*
X70758342Y-37916950D01*
X70740577Y-37907898D01*
X70667147Y-37870483D01*
X70616352Y-37822509D01*
X70599557Y-37754687D01*
X70622095Y-37688553D01*
X70667145Y-37649517D01*
X70758342Y-37603050D01*
X70801443Y-37559949D01*
X70848050Y-37513343D01*
X70853786Y-37505448D01*
X70856059Y-37507100D01*
X70893546Y-37467409D01*
X70956057Y-37450500D01*
X72371811Y-37450500D01*
X72438850Y-37470185D01*
X72459492Y-37486819D01*
X72952138Y-37979465D01*
X73026361Y-38022318D01*
X73109147Y-38044500D01*
X74225811Y-38044500D01*
X74292850Y-38064185D01*
X74338605Y-38116989D01*
X74348549Y-38186147D01*
X74319524Y-38249703D01*
X74313492Y-38256181D01*
X72330994Y-40238677D01*
X72269671Y-40272162D01*
X72199979Y-40267178D01*
X72198520Y-40266623D01*
X72057461Y-40211977D01*
X72057456Y-40211976D01*
X71856976Y-40174500D01*
X71653024Y-40174500D01*
X71452544Y-40211976D01*
X71452541Y-40211976D01*
X71452541Y-40211977D01*
X71262364Y-40285651D01*
X71262357Y-40285655D01*
X71088960Y-40393017D01*
X71088958Y-40393019D01*
X70938237Y-40530418D01*
X70815327Y-40693178D01*
X70724422Y-40875739D01*
X70724417Y-40875752D01*
X70668602Y-41071917D01*
X70649785Y-41274999D01*
X70649785Y-41275000D01*
X70668602Y-41478082D01*
X70724417Y-41674247D01*
X70724422Y-41674260D01*
X70815327Y-41856821D01*
X70938237Y-42019581D01*
X71088958Y-42156980D01*
X71088960Y-42156982D01*
X71151421Y-42195656D01*
X71262363Y-42264348D01*
X71452544Y-42338024D01*
X71653024Y-42375500D01*
X71653026Y-42375500D01*
X71856974Y-42375500D01*
X71856976Y-42375500D01*
X72057456Y-42338024D01*
X72247637Y-42264348D01*
X72421041Y-42156981D01*
X72571764Y-42019579D01*
X72694673Y-41856821D01*
X72785582Y-41674250D01*
X72841397Y-41478083D01*
X72860215Y-41275000D01*
X72841397Y-41071917D01*
X72785582Y-40875750D01*
X72779274Y-40863082D01*
X72768505Y-40841454D01*
X72756244Y-40772669D01*
X72783117Y-40708174D01*
X72791814Y-40698511D01*
X74733508Y-38756819D01*
X74794831Y-38723334D01*
X74821189Y-38720500D01*
X77633943Y-38720500D01*
X77700982Y-38740185D01*
X77734206Y-38776906D01*
X77736214Y-38775448D01*
X77741950Y-38783343D01*
X77831652Y-38873045D01*
X77831654Y-38873046D01*
X77831658Y-38873050D01*
X77934995Y-38925703D01*
X77944698Y-38930647D01*
X78038475Y-38945499D01*
X78038481Y-38945500D01*
X79851518Y-38945499D01*
X79945304Y-38930646D01*
X80058342Y-38873050D01*
X80148050Y-38783342D01*
X80205646Y-38670304D01*
X80205646Y-38670302D01*
X80205647Y-38670301D01*
X80220499Y-38576524D01*
X80220500Y-38576519D01*
X80220499Y-38213482D01*
X80217917Y-38197181D01*
X80216447Y-38187896D01*
X80225403Y-38118603D01*
X80270400Y-38065152D01*
X80337152Y-38044513D01*
X80338921Y-38044500D01*
X81205187Y-38044500D01*
X81272226Y-38064185D01*
X81317981Y-38116989D01*
X81327925Y-38186147D01*
X81321129Y-38212471D01*
X81278763Y-38324181D01*
X81259722Y-38480999D01*
X81259722Y-38481000D01*
X81278762Y-38637818D01*
X81323894Y-38756819D01*
X81334780Y-38785523D01*
X81424517Y-38915530D01*
X81542760Y-39020283D01*
X81542762Y-39020284D01*
X81682634Y-39093696D01*
X81836014Y-39131500D01*
X81836015Y-39131500D01*
X81993985Y-39131500D01*
X82147365Y-39093696D01*
X82182160Y-39075434D01*
X82287240Y-39020283D01*
X82405483Y-38915530D01*
X82405483Y-38915529D01*
X82407800Y-38913477D01*
X82471033Y-38883755D01*
X82540297Y-38892939D01*
X82546305Y-38895799D01*
X82614696Y-38930646D01*
X82614697Y-38930646D01*
X82614699Y-38930647D01*
X82614698Y-38930647D01*
X82708475Y-38945499D01*
X82708481Y-38945500D01*
X84521518Y-38945499D01*
X84615304Y-38930646D01*
X84728342Y-38873050D01*
X84818050Y-38783342D01*
X84875646Y-38670304D01*
X84875646Y-38670302D01*
X84875647Y-38670301D01*
X84890499Y-38576524D01*
X84890500Y-38576519D01*
X84890499Y-38213482D01*
X84887917Y-38197181D01*
X84886447Y-38187896D01*
X84895403Y-38118603D01*
X84940400Y-38065152D01*
X85007152Y-38044513D01*
X85008921Y-38044500D01*
X87380311Y-38044500D01*
X87447350Y-38064185D01*
X87467992Y-38080819D01*
X87982034Y-38594861D01*
X87982035Y-38594862D01*
X88042638Y-38655465D01*
X88042640Y-38655466D01*
X88042644Y-38655469D01*
X88113708Y-38696497D01*
X88116862Y-38698318D01*
X88199647Y-38720500D01*
X88285353Y-38720500D01*
X88535811Y-38720500D01*
X88602850Y-38740185D01*
X88648605Y-38792989D01*
X88658549Y-38862147D01*
X88629524Y-38925703D01*
X88623492Y-38932181D01*
X84800405Y-42755267D01*
X84800403Y-42755270D01*
X84757548Y-42829494D01*
X84750217Y-42856860D01*
X84735368Y-42912277D01*
X84735368Y-48229943D01*
X84715683Y-48296982D01*
X84699049Y-48317624D01*
X82406181Y-50610492D01*
X82344858Y-50643977D01*
X82275166Y-50638993D01*
X82219233Y-50597121D01*
X82194816Y-50531657D01*
X82194500Y-50522811D01*
X82194500Y-47098105D01*
X82194501Y-47098092D01*
X82194501Y-47002398D01*
X82191179Y-46989999D01*
X82172318Y-46919611D01*
X82141478Y-46866196D01*
X82129465Y-46845388D01*
X82129464Y-46845387D01*
X82129461Y-46845383D01*
X82064543Y-46780465D01*
X82064520Y-46780444D01*
X80175903Y-44891827D01*
X78284612Y-43000535D01*
X78243700Y-42976914D01*
X78210390Y-42957682D01*
X78158180Y-42943693D01*
X78127603Y-42935500D01*
X78127602Y-42935500D01*
X75237201Y-42935500D01*
X75237185Y-42935499D01*
X75229589Y-42935499D01*
X75143883Y-42935499D01*
X75113304Y-42943693D01*
X75061095Y-42957682D01*
X75061094Y-42957683D01*
X74986877Y-43000532D01*
X74986872Y-43000536D01*
X72510537Y-45476871D01*
X72510535Y-45476874D01*
X72467682Y-45551095D01*
X72466636Y-45555000D01*
X72457392Y-45589500D01*
X72457392Y-45589501D01*
X72457391Y-45589500D01*
X72445500Y-45633879D01*
X72445500Y-45633883D01*
X72445500Y-47033146D01*
X72445500Y-47118852D01*
X72453029Y-47146950D01*
X72467682Y-47201639D01*
X72476395Y-47216730D01*
X72510535Y-47275861D01*
X72510536Y-47275862D01*
X72510537Y-47275863D01*
X73046337Y-47811662D01*
X73079822Y-47872985D01*
X73081129Y-47879946D01*
X73084352Y-47900300D01*
X73084352Y-47900301D01*
X73090121Y-47911623D01*
X73141950Y-48013342D01*
X73141952Y-48013344D01*
X73141954Y-48013347D01*
X73231652Y-48103045D01*
X73231654Y-48103046D01*
X73231658Y-48103050D01*
X73322851Y-48149515D01*
X73373647Y-48197490D01*
X73390442Y-48265311D01*
X73367904Y-48331446D01*
X73322852Y-48370484D01*
X73231658Y-48416950D01*
X73231657Y-48416951D01*
X73231652Y-48416954D01*
X73141954Y-48506652D01*
X73141951Y-48506657D01*
X73141950Y-48506658D01*
X73127285Y-48535439D01*
X73084352Y-48619698D01*
X73069500Y-48713475D01*
X73069500Y-49076517D01*
X73078712Y-49134678D01*
X73084354Y-49170304D01*
X73141950Y-49283342D01*
X73141952Y-49283344D01*
X73141954Y-49283347D01*
X73231652Y-49373045D01*
X73231654Y-49373046D01*
X73231658Y-49373050D01*
X73322851Y-49419515D01*
X73373647Y-49467490D01*
X73390442Y-49535311D01*
X73367904Y-49601446D01*
X73322852Y-49640484D01*
X73231658Y-49686950D01*
X73231657Y-49686951D01*
X73231652Y-49686954D01*
X73141954Y-49776652D01*
X73141951Y-49776657D01*
X73141950Y-49776658D01*
X73134042Y-49792178D01*
X73084352Y-49889698D01*
X73069500Y-49983475D01*
X73069500Y-50346517D01*
X73080292Y-50414657D01*
X73084354Y-50440304D01*
X73141950Y-50553342D01*
X73141952Y-50553344D01*
X73141954Y-50553347D01*
X73231652Y-50643045D01*
X73231654Y-50643046D01*
X73231658Y-50643050D01*
X73322851Y-50689515D01*
X73373647Y-50737490D01*
X73390442Y-50805311D01*
X73367904Y-50871446D01*
X73322852Y-50910484D01*
X73231658Y-50956950D01*
X73231657Y-50956951D01*
X73231652Y-50956954D01*
X73207148Y-50981459D01*
X73145825Y-51014944D01*
X73076133Y-51009960D01*
X73031786Y-50981459D01*
X72584864Y-50534537D01*
X72584862Y-50534535D01*
X72537879Y-50507409D01*
X72510640Y-50491682D01*
X72469246Y-50480591D01*
X72427853Y-50469500D01*
X72427852Y-50469500D01*
X72199083Y-50469500D01*
X72132044Y-50449815D01*
X72088083Y-50400771D01*
X71994674Y-50213180D01*
X71871762Y-50050418D01*
X71721041Y-49913019D01*
X71721039Y-49913017D01*
X71547642Y-49805655D01*
X71547635Y-49805651D01*
X71395494Y-49746712D01*
X71357456Y-49731976D01*
X71156976Y-49694500D01*
X70953024Y-49694500D01*
X70752544Y-49731976D01*
X70752541Y-49731976D01*
X70752541Y-49731977D01*
X70562364Y-49805651D01*
X70562357Y-49805655D01*
X70388960Y-49913017D01*
X70388958Y-49913019D01*
X70238237Y-50050418D01*
X70115327Y-50213178D01*
X70024422Y-50395739D01*
X70024417Y-50395752D01*
X69968602Y-50591917D01*
X69949785Y-50794999D01*
X69949785Y-50795000D01*
X69968602Y-50998082D01*
X70024417Y-51194247D01*
X70024422Y-51194260D01*
X70115327Y-51376821D01*
X70238237Y-51539581D01*
X70388958Y-51676980D01*
X70388960Y-51676982D01*
X70466214Y-51724815D01*
X70562363Y-51784348D01*
X70752544Y-51858024D01*
X70953024Y-51895500D01*
X70953026Y-51895500D01*
X71156974Y-51895500D01*
X71156976Y-51895500D01*
X71357456Y-51858024D01*
X71547637Y-51784348D01*
X71721041Y-51676981D01*
X71871764Y-51539579D01*
X71994673Y-51376821D01*
X72085582Y-51194250D01*
X72085583Y-51194247D01*
X72087992Y-51189410D01*
X72135494Y-51138173D01*
X72203157Y-51120751D01*
X72269498Y-51142676D01*
X72286673Y-51157000D01*
X72476992Y-51347319D01*
X72510477Y-51408642D01*
X72505493Y-51478334D01*
X72476992Y-51522681D01*
X71707037Y-52292635D01*
X71707033Y-52292641D01*
X71664181Y-52366862D01*
X71664180Y-52366862D01*
X71656103Y-52397012D01*
X71642000Y-52449645D01*
X71642000Y-52523726D01*
X71622315Y-52590765D01*
X71569511Y-52636520D01*
X71561334Y-52639907D01*
X71481222Y-52669787D01*
X71368883Y-52753884D01*
X71292846Y-52855456D01*
X71236912Y-52897326D01*
X71167220Y-52902310D01*
X71105897Y-52868824D01*
X71075874Y-52820147D01*
X71065454Y-52788701D01*
X71065448Y-52788688D01*
X70974947Y-52641965D01*
X70974944Y-52641961D01*
X70853038Y-52520055D01*
X70853034Y-52520052D01*
X70706311Y-52429551D01*
X70706300Y-52429546D01*
X70542652Y-52375319D01*
X70441654Y-52365000D01*
X70392500Y-52365000D01*
X70392500Y-54314999D01*
X70441640Y-54314999D01*
X70441654Y-54314998D01*
X70542652Y-54304680D01*
X70706300Y-54250453D01*
X70706311Y-54250448D01*
X70853034Y-54159947D01*
X70853038Y-54159944D01*
X70974944Y-54038038D01*
X70974947Y-54038034D01*
X71065448Y-53891311D01*
X71065451Y-53891303D01*
X71075873Y-53859853D01*
X71115645Y-53802407D01*
X71180160Y-53775583D01*
X71248936Y-53787897D01*
X71292846Y-53824543D01*
X71361683Y-53916497D01*
X71368884Y-53926116D01*
X71408681Y-53955908D01*
X71467763Y-54000137D01*
X71481222Y-54010212D01*
X71555816Y-54038034D01*
X71612700Y-54059251D01*
X71670809Y-54065499D01*
X71670826Y-54065500D01*
X71793811Y-54065500D01*
X71860850Y-54085185D01*
X71906605Y-54137989D01*
X71916549Y-54207147D01*
X71887524Y-54270703D01*
X71881492Y-54277181D01*
X71875492Y-54283181D01*
X71814169Y-54316666D01*
X71787811Y-54319500D01*
X71259673Y-54319500D01*
X71259657Y-54319499D01*
X71252061Y-54319499D01*
X71166356Y-54319499D01*
X71129615Y-54329344D01*
X71083568Y-54341682D01*
X71083563Y-54341685D01*
X71009352Y-54384530D01*
X71009344Y-54384536D01*
X70302700Y-55091181D01*
X70241377Y-55124666D01*
X70215019Y-55127500D01*
X66307188Y-55127500D01*
X66240149Y-55107815D01*
X66219507Y-55091181D01*
X65612687Y-54484361D01*
X65548818Y-54420491D01*
X65515334Y-54359170D01*
X65512500Y-54332812D01*
X65512500Y-52365000D01*
X65512499Y-52364999D01*
X65463361Y-52365000D01*
X65463343Y-52365001D01*
X65362347Y-52375319D01*
X65198699Y-52429546D01*
X65198690Y-52429551D01*
X65157597Y-52454897D01*
X65090204Y-52473337D01*
X65023541Y-52452414D01*
X64978772Y-52398771D01*
X64968501Y-52349358D01*
X64968501Y-52325149D01*
X64966225Y-52316657D01*
X64946318Y-52242363D01*
X64946317Y-52242362D01*
X64946317Y-52242360D01*
X64937419Y-52226949D01*
X64937417Y-52226947D01*
X64903465Y-52168139D01*
X64842862Y-52107536D01*
X64842861Y-52107535D01*
X64838531Y-52103205D01*
X64838520Y-52103195D01*
X63983662Y-51248336D01*
X63950177Y-51187013D01*
X63948869Y-51180050D01*
X63945646Y-51159697D01*
X63945646Y-51159696D01*
X63888050Y-51046658D01*
X63888044Y-51046652D01*
X63882311Y-51038759D01*
X63885248Y-51036624D01*
X63860462Y-50991231D01*
X63865446Y-50921539D01*
X63907318Y-50865606D01*
X63918509Y-50858140D01*
X63961552Y-50832685D01*
X63961561Y-50832678D01*
X64077678Y-50716561D01*
X64077685Y-50716552D01*
X64161281Y-50575198D01*
X64207100Y-50417486D01*
X64207295Y-50415001D01*
X64207295Y-50415000D01*
X61262705Y-50415000D01*
X61262704Y-50415001D01*
X61262899Y-50417486D01*
X61308718Y-50575198D01*
X61392314Y-50716552D01*
X61392321Y-50716561D01*
X61508438Y-50832678D01*
X61508444Y-50832682D01*
X61551491Y-50858140D01*
X61599175Y-50909209D01*
X61611679Y-50977951D01*
X61586846Y-51038146D01*
X61587689Y-51038759D01*
X61585154Y-51042247D01*
X61585034Y-51042540D01*
X61584549Y-51043080D01*
X61581949Y-51046659D01*
X61532191Y-51144314D01*
X61484217Y-51195109D01*
X61416396Y-51211904D01*
X61350261Y-51189366D01*
X61334026Y-51175699D01*
X60894819Y-50736492D01*
X60861334Y-50675169D01*
X60858500Y-50648811D01*
X60858500Y-49852800D01*
X60878185Y-49785761D01*
X60930989Y-49740006D01*
X61000147Y-49730062D01*
X61014568Y-49733019D01*
X61061147Y-49745500D01*
X61146268Y-49745500D01*
X61213307Y-49765185D01*
X61259062Y-49817989D01*
X61269006Y-49887147D01*
X61265345Y-49904092D01*
X61262900Y-49912505D01*
X61262899Y-49912511D01*
X61262704Y-49914998D01*
X61262705Y-49915000D01*
X64207295Y-49915000D01*
X64207295Y-49914998D01*
X64207100Y-49912511D01*
X64207099Y-49912505D01*
X64204655Y-49904092D01*
X64204856Y-49834223D01*
X64242799Y-49775554D01*
X64306438Y-49746712D01*
X64323732Y-49745500D01*
X65108811Y-49745500D01*
X65175850Y-49765185D01*
X65196492Y-49781819D01*
X65638175Y-50223502D01*
X65671660Y-50284825D01*
X65666676Y-50354517D01*
X65661495Y-50366453D01*
X65646907Y-50395752D01*
X65644418Y-50400750D01*
X65640363Y-50415001D01*
X65588602Y-50596917D01*
X65569785Y-50799999D01*
X65569785Y-50800000D01*
X65588602Y-51003082D01*
X65644417Y-51199247D01*
X65644422Y-51199260D01*
X65735327Y-51381821D01*
X65858237Y-51544581D01*
X66008958Y-51681980D01*
X66008960Y-51681982D01*
X66089505Y-51731853D01*
X66182363Y-51789348D01*
X66372544Y-51863024D01*
X66573024Y-51900500D01*
X66573026Y-51900500D01*
X66776974Y-51900500D01*
X66776976Y-51900500D01*
X66977456Y-51863024D01*
X67093207Y-51818181D01*
X67162829Y-51812320D01*
X67224569Y-51845030D01*
X67258824Y-51905926D01*
X67262000Y-51933809D01*
X67262000Y-52523726D01*
X67242315Y-52590765D01*
X67189511Y-52636520D01*
X67181334Y-52639907D01*
X67101222Y-52669787D01*
X66988883Y-52753884D01*
X66912846Y-52855456D01*
X66856912Y-52897326D01*
X66787220Y-52902310D01*
X66725897Y-52868824D01*
X66695874Y-52820147D01*
X66685454Y-52788701D01*
X66685448Y-52788688D01*
X66594947Y-52641965D01*
X66594944Y-52641961D01*
X66473038Y-52520055D01*
X66473034Y-52520052D01*
X66326311Y-52429551D01*
X66326300Y-52429546D01*
X66162652Y-52375319D01*
X66061654Y-52365000D01*
X66012500Y-52365000D01*
X66012500Y-54314999D01*
X66061640Y-54314999D01*
X66061654Y-54314998D01*
X66162652Y-54304680D01*
X66326300Y-54250453D01*
X66326311Y-54250448D01*
X66473034Y-54159947D01*
X66473038Y-54159944D01*
X66594944Y-54038038D01*
X66594947Y-54038034D01*
X66685448Y-53891311D01*
X66685451Y-53891303D01*
X66695873Y-53859853D01*
X66735645Y-53802407D01*
X66800160Y-53775583D01*
X66868936Y-53787897D01*
X66912846Y-53824543D01*
X66981683Y-53916497D01*
X66988884Y-53926116D01*
X67028681Y-53955908D01*
X67087763Y-54000137D01*
X67101222Y-54010212D01*
X67175816Y-54038034D01*
X67232700Y-54059251D01*
X67290809Y-54065499D01*
X67290826Y-54065500D01*
X67884174Y-54065500D01*
X67884190Y-54065499D01*
X67910140Y-54062708D01*
X67942299Y-54059251D01*
X68048045Y-54019809D01*
X68117735Y-54014825D01*
X68179058Y-54048309D01*
X68207320Y-54092019D01*
X68253781Y-54214525D01*
X68288236Y-54264441D01*
X68343517Y-54344530D01*
X68461760Y-54449283D01*
X68461762Y-54449284D01*
X68601634Y-54522696D01*
X68755014Y-54560500D01*
X68755015Y-54560500D01*
X68912985Y-54560500D01*
X69066365Y-54522696D01*
X69080668Y-54515189D01*
X69206240Y-54449283D01*
X69324483Y-54344530D01*
X69379037Y-54265494D01*
X69433317Y-54221506D01*
X69502765Y-54213846D01*
X69546183Y-54230398D01*
X69578693Y-54250451D01*
X69742347Y-54304680D01*
X69843351Y-54314999D01*
X69892499Y-54314998D01*
X69892500Y-54314998D01*
X69892500Y-52365000D01*
X69892499Y-52364999D01*
X69843361Y-52365000D01*
X69843343Y-52365001D01*
X69742347Y-52375319D01*
X69578699Y-52429546D01*
X69578688Y-52429551D01*
X69431965Y-52520052D01*
X69431961Y-52520055D01*
X69310055Y-52641961D01*
X69310052Y-52641965D01*
X69262038Y-52719808D01*
X69210090Y-52766533D01*
X69141127Y-52777754D01*
X69077046Y-52749911D01*
X69038190Y-52691842D01*
X69032500Y-52654711D01*
X69032500Y-49462189D01*
X69052185Y-49395150D01*
X69068819Y-49374508D01*
X69742819Y-48700508D01*
X69804142Y-48667023D01*
X69873834Y-48672007D01*
X69929767Y-48713879D01*
X69954184Y-48779343D01*
X69954500Y-48788189D01*
X69954500Y-49129678D01*
X69969032Y-49202735D01*
X69969033Y-49202739D01*
X69969034Y-49202740D01*
X70024399Y-49285601D01*
X70101266Y-49336961D01*
X70107260Y-49340966D01*
X70107264Y-49340967D01*
X70180321Y-49355499D01*
X70180324Y-49355500D01*
X70180326Y-49355500D01*
X71929676Y-49355500D01*
X71929677Y-49355499D01*
X72002740Y-49340966D01*
X72085601Y-49285601D01*
X72140966Y-49202740D01*
X72155500Y-49129674D01*
X72155500Y-47380326D01*
X72155500Y-47380323D01*
X72155499Y-47380321D01*
X72140967Y-47307264D01*
X72140966Y-47307260D01*
X72120507Y-47276641D01*
X72085601Y-47224399D01*
X72018404Y-47179500D01*
X72002739Y-47169033D01*
X72002735Y-47169032D01*
X71929677Y-47154500D01*
X71929674Y-47154500D01*
X70180326Y-47154500D01*
X70180323Y-47154500D01*
X70107264Y-47169032D01*
X70107260Y-47169033D01*
X70024399Y-47224399D01*
X69969033Y-47307260D01*
X69969032Y-47307264D01*
X69954500Y-47380321D01*
X69954500Y-47805500D01*
X69934815Y-47872539D01*
X69882011Y-47918294D01*
X69830500Y-47929500D01*
X69685147Y-47929500D01*
X69602359Y-47951682D01*
X69528138Y-47994535D01*
X69528135Y-47994537D01*
X68794681Y-48727992D01*
X68733358Y-48761477D01*
X68663666Y-48756493D01*
X68619319Y-48727992D01*
X67890864Y-47999537D01*
X67890862Y-47999535D01*
X67864577Y-47984359D01*
X67837498Y-47968724D01*
X67789283Y-47918156D01*
X67775500Y-47861338D01*
X67775500Y-47385323D01*
X67775499Y-47385321D01*
X67760967Y-47312264D01*
X67760966Y-47312260D01*
X67746528Y-47290652D01*
X67705601Y-47229399D01*
X67622740Y-47174034D01*
X67622739Y-47174033D01*
X67622735Y-47174032D01*
X67549677Y-47159500D01*
X67549674Y-47159500D01*
X65800326Y-47159500D01*
X65800323Y-47159500D01*
X65727264Y-47174032D01*
X65727260Y-47174033D01*
X65644399Y-47229399D01*
X65589033Y-47312260D01*
X65589032Y-47312264D01*
X65574500Y-47385321D01*
X65574500Y-47861339D01*
X65554815Y-47928378D01*
X65512500Y-47968726D01*
X65459141Y-47999532D01*
X65459136Y-47999536D01*
X64925492Y-48533181D01*
X64864169Y-48566666D01*
X64837811Y-48569500D01*
X63996057Y-48569500D01*
X63929018Y-48549815D01*
X63895793Y-48513093D01*
X63893786Y-48514552D01*
X63882314Y-48498762D01*
X63885250Y-48496628D01*
X63860462Y-48451231D01*
X63865446Y-48381539D01*
X63907318Y-48325606D01*
X63918509Y-48318140D01*
X63961552Y-48292685D01*
X63961561Y-48292678D01*
X64077678Y-48176561D01*
X64077685Y-48176552D01*
X64161281Y-48035198D01*
X64207100Y-47877486D01*
X64207295Y-47875001D01*
X64207295Y-47875000D01*
X62609000Y-47875000D01*
X62541961Y-47855315D01*
X62496206Y-47802511D01*
X62485000Y-47751000D01*
X62485000Y-46825000D01*
X61844350Y-46825000D01*
X61807510Y-46827899D01*
X61807504Y-46827900D01*
X61649806Y-46873716D01*
X61649803Y-46873717D01*
X61508447Y-46957314D01*
X61508438Y-46957321D01*
X61392321Y-47073438D01*
X61392314Y-47073447D01*
X61389232Y-47078660D01*
X61338163Y-47126344D01*
X61269421Y-47138847D01*
X61204832Y-47112201D01*
X61164902Y-47054866D01*
X61158500Y-47015539D01*
X61158500Y-46538884D01*
X61178185Y-46471845D01*
X61230989Y-46426090D01*
X61300147Y-46416146D01*
X61325829Y-46422701D01*
X61355529Y-46433778D01*
X61370200Y-46439251D01*
X61428309Y-46445499D01*
X61428326Y-46445500D01*
X62121674Y-46445500D01*
X62121690Y-46445499D01*
X62179799Y-46439251D01*
X62182276Y-46438327D01*
X62311278Y-46390212D01*
X62354802Y-46357630D01*
X62400445Y-46323462D01*
X62465909Y-46299044D01*
X62534182Y-46313895D01*
X62580294Y-46357630D01*
X62617554Y-46418037D01*
X62739461Y-46539944D01*
X62739465Y-46539947D01*
X62886188Y-46630448D01*
X62886203Y-46630455D01*
X62915703Y-46640230D01*
X62973149Y-46680001D01*
X62999973Y-46744517D01*
X62987659Y-46813293D01*
X62985000Y-46816985D01*
X62985000Y-47375000D01*
X64207295Y-47375000D01*
X64207295Y-47374998D01*
X64207100Y-47372513D01*
X64161281Y-47214801D01*
X64077685Y-47073447D01*
X64077678Y-47073438D01*
X63961561Y-46957321D01*
X63961552Y-46957314D01*
X63891090Y-46915643D01*
X63843406Y-46864574D01*
X63830903Y-46795832D01*
X63857549Y-46731243D01*
X63914884Y-46691313D01*
X63941614Y-46685552D01*
X63950155Y-46684679D01*
X64113800Y-46630453D01*
X64113811Y-46630448D01*
X64260534Y-46539947D01*
X64260538Y-46539944D01*
X64382444Y-46418038D01*
X64382447Y-46418034D01*
X64472948Y-46271311D01*
X64472953Y-46271300D01*
X64527180Y-46107652D01*
X64537499Y-46006654D01*
X64537500Y-46006641D01*
X64537500Y-45970000D01*
X63374000Y-45970000D01*
X63306961Y-45950315D01*
X63261206Y-45897511D01*
X63250000Y-45846000D01*
X63250000Y-45470000D01*
X63750000Y-45470000D01*
X64537499Y-45470000D01*
X64537499Y-45433360D01*
X64537498Y-45433345D01*
X64527180Y-45332347D01*
X64472953Y-45168699D01*
X64472948Y-45168688D01*
X64382447Y-45021965D01*
X64382444Y-45021961D01*
X64260538Y-44900055D01*
X64260534Y-44900052D01*
X64113811Y-44809551D01*
X64113800Y-44809546D01*
X63950152Y-44755319D01*
X63849154Y-44745000D01*
X63750000Y-44745000D01*
X63750000Y-45470000D01*
X63250000Y-45470000D01*
X63250000Y-44744999D01*
X63150860Y-44745000D01*
X63150844Y-44745001D01*
X63049847Y-44755319D01*
X62886199Y-44809546D01*
X62886188Y-44809551D01*
X62739465Y-44900052D01*
X62739461Y-44900055D01*
X62617554Y-45021962D01*
X62580294Y-45082370D01*
X62528345Y-45129094D01*
X62459383Y-45140315D01*
X62400445Y-45116538D01*
X62366769Y-45091328D01*
X62324898Y-45035395D01*
X62319914Y-44965703D01*
X62325133Y-44948104D01*
X62358237Y-44860818D01*
X62377278Y-44704000D01*
X62373819Y-44675508D01*
X62358237Y-44547181D01*
X62327663Y-44466564D01*
X62302220Y-44399477D01*
X62212483Y-44269470D01*
X62094240Y-44164717D01*
X62094238Y-44164716D01*
X62094237Y-44164715D01*
X61954365Y-44091303D01*
X61800986Y-44053500D01*
X61800985Y-44053500D01*
X61643015Y-44053500D01*
X61643014Y-44053500D01*
X61489634Y-44091303D01*
X61343119Y-44168202D01*
X61342028Y-44166124D01*
X61286560Y-44184405D01*
X61218912Y-44166925D01*
X61171453Y-44115648D01*
X61158500Y-44060471D01*
X61158500Y-44001187D01*
X61178185Y-43934148D01*
X61194814Y-43913511D01*
X63943652Y-41164672D01*
X63943657Y-41164669D01*
X63953860Y-41154465D01*
X63953862Y-41154465D01*
X64014465Y-41093862D01*
X64045995Y-41039250D01*
X64057318Y-41019639D01*
X64079500Y-40936853D01*
X64079500Y-40851147D01*
X64079500Y-40133497D01*
X64099185Y-40066458D01*
X64121274Y-40040681D01*
X64126236Y-40036285D01*
X64126240Y-40036283D01*
X64244483Y-39931530D01*
X64334220Y-39801523D01*
X64390237Y-39653818D01*
X64409278Y-39497000D01*
X64390237Y-39340182D01*
X64334220Y-39192477D01*
X64244483Y-39062470D01*
X64126240Y-38957717D01*
X64126238Y-38957716D01*
X64126237Y-38957715D01*
X63986365Y-38884303D01*
X63832986Y-38846500D01*
X63832985Y-38846500D01*
X63675015Y-38846500D01*
X63675014Y-38846500D01*
X63521634Y-38884303D01*
X63381762Y-38957715D01*
X63263516Y-39062471D01*
X63173781Y-39192475D01*
X63173780Y-39192476D01*
X63117762Y-39340181D01*
X63098722Y-39496999D01*
X63098722Y-39497000D01*
X63117762Y-39653818D01*
X63173780Y-39801523D01*
X63173781Y-39801524D01*
X63263517Y-39931531D01*
X63298467Y-39962493D01*
X63381760Y-40036283D01*
X63381763Y-40036284D01*
X63386726Y-40040681D01*
X63423853Y-40099870D01*
X63428500Y-40133497D01*
X63428500Y-40707811D01*
X63408815Y-40774850D01*
X63392181Y-40795492D01*
X61070181Y-43117492D01*
X61008858Y-43150977D01*
X60939166Y-43145993D01*
X60883233Y-43104121D01*
X60858816Y-43038657D01*
X60858500Y-43029811D01*
X60858500Y-43026487D01*
X60858500Y-43026485D01*
X60836318Y-42943700D01*
X60836314Y-42943693D01*
X60793469Y-42869482D01*
X60793463Y-42869474D01*
X57837873Y-39913884D01*
X57804388Y-39852561D01*
X57809372Y-39782869D01*
X57823504Y-39755763D01*
X57831892Y-39743610D01*
X57870054Y-39688323D01*
X57926071Y-39540618D01*
X57945112Y-39383800D01*
X57926071Y-39226982D01*
X57870054Y-39079277D01*
X57780317Y-38949270D01*
X57662074Y-38844517D01*
X57662072Y-38844516D01*
X57662071Y-38844515D01*
X57522199Y-38771103D01*
X57368820Y-38733300D01*
X57368819Y-38733300D01*
X57210849Y-38733300D01*
X57210848Y-38733300D01*
X57057468Y-38771103D01*
X56917596Y-38844515D01*
X56881501Y-38876492D01*
X56803607Y-38945500D01*
X56799350Y-38949271D01*
X56709615Y-39079275D01*
X56709614Y-39079276D01*
X56653596Y-39226981D01*
X56634556Y-39383799D01*
X56634556Y-39383800D01*
X56653596Y-39540618D01*
X56695696Y-39651624D01*
X56709614Y-39688323D01*
X56799351Y-39818330D01*
X56917594Y-39923083D01*
X56960878Y-39945800D01*
X57010640Y-39993595D01*
X57029369Y-40026034D01*
X57029371Y-40026036D01*
X57614154Y-40610819D01*
X57647639Y-40672142D01*
X57642655Y-40741834D01*
X57600783Y-40797767D01*
X57535319Y-40822184D01*
X57526473Y-40822500D01*
X52650177Y-40822500D01*
X52592551Y-40808296D01*
X52556363Y-40789303D01*
X52402986Y-40751500D01*
X52402985Y-40751500D01*
X52245015Y-40751500D01*
X52245014Y-40751500D01*
X52091634Y-40789303D01*
X51951762Y-40862715D01*
X51833516Y-40967471D01*
X51743781Y-41097475D01*
X51743780Y-41097476D01*
X51687762Y-41245181D01*
X51668722Y-41401999D01*
X51668722Y-41402000D01*
X51687762Y-41558818D01*
X51729313Y-41668376D01*
X51743780Y-41706523D01*
X51833517Y-41836530D01*
X51951760Y-41941283D01*
X51951762Y-41941284D01*
X52091634Y-42014696D01*
X52245014Y-42052500D01*
X52245015Y-42052500D01*
X52402985Y-42052500D01*
X52556365Y-42014696D01*
X52594751Y-41994549D01*
X52696240Y-41941283D01*
X52814483Y-41836530D01*
X52904220Y-41706523D01*
X52960237Y-41558818D01*
X52960236Y-41558818D01*
X52962243Y-41553529D01*
X53004421Y-41497826D01*
X53070019Y-41473769D01*
X53078185Y-41473500D01*
X57426052Y-41473500D01*
X57493091Y-41493185D01*
X57538846Y-41545989D01*
X57548790Y-41615147D01*
X57537957Y-41648616D01*
X57538197Y-41648707D01*
X57536359Y-41653551D01*
X57535853Y-41655117D01*
X57535539Y-41655715D01*
X57479519Y-41803424D01*
X57460479Y-41960242D01*
X57460479Y-41960243D01*
X57479519Y-42117061D01*
X57534154Y-42261120D01*
X57535537Y-42264766D01*
X57625274Y-42394773D01*
X57743517Y-42499526D01*
X57743519Y-42499527D01*
X57883391Y-42572939D01*
X58036771Y-42610743D01*
X58036772Y-42610743D01*
X58194742Y-42610743D01*
X58348122Y-42572939D01*
X58487994Y-42499528D01*
X58487995Y-42499526D01*
X58487997Y-42499526D01*
X58488819Y-42498797D01*
X58489552Y-42498452D01*
X58494169Y-42495266D01*
X58494698Y-42496033D01*
X58552048Y-42469072D01*
X58621313Y-42478250D01*
X58658733Y-42503926D01*
X59072626Y-42917819D01*
X59106111Y-42979142D01*
X59101127Y-43048834D01*
X59059255Y-43104767D01*
X58993791Y-43129184D01*
X58984945Y-43129500D01*
X57720323Y-43129500D01*
X57647264Y-43144032D01*
X57647260Y-43144033D01*
X57564399Y-43199399D01*
X57509033Y-43282260D01*
X57509032Y-43282264D01*
X57494500Y-43355321D01*
X57494500Y-44668811D01*
X57474815Y-44735850D01*
X57458181Y-44756492D01*
X57396492Y-44818181D01*
X57335169Y-44851666D01*
X57308811Y-44854500D01*
X56219500Y-44854500D01*
X56152461Y-44834815D01*
X56106706Y-44782011D01*
X56095500Y-44730500D01*
X56095500Y-44555323D01*
X56095499Y-44555321D01*
X56080967Y-44482264D01*
X56080966Y-44482260D01*
X56070478Y-44466564D01*
X56025601Y-44399399D01*
X55942740Y-44344034D01*
X55942739Y-44344033D01*
X55942735Y-44344032D01*
X55869677Y-44329500D01*
X55869674Y-44329500D01*
X54620326Y-44329500D01*
X54620323Y-44329500D01*
X54547259Y-44344033D01*
X54536603Y-44348447D01*
X54467134Y-44355914D01*
X54404655Y-44324638D01*
X54369004Y-44264548D01*
X54366214Y-44250072D01*
X54365500Y-44244654D01*
X54365500Y-44244647D01*
X54343318Y-44161862D01*
X54343314Y-44161855D01*
X54340207Y-44154352D01*
X54341736Y-44153718D01*
X54327523Y-44095143D01*
X54350372Y-44029115D01*
X54405291Y-43985922D01*
X54474844Y-43979277D01*
X54520273Y-43997934D01*
X54547260Y-44015966D01*
X54547264Y-44015967D01*
X54620321Y-44030499D01*
X54620324Y-44030500D01*
X54620326Y-44030500D01*
X55869676Y-44030500D01*
X55869677Y-44030499D01*
X55942740Y-44015966D01*
X56025601Y-43960601D01*
X56080966Y-43877740D01*
X56095500Y-43804674D01*
X56095500Y-42555326D01*
X56095500Y-42555323D01*
X56095499Y-42555321D01*
X56080967Y-42482264D01*
X56080966Y-42482260D01*
X56063031Y-42455418D01*
X56025601Y-42399399D01*
X55942740Y-42344034D01*
X55942739Y-42344033D01*
X55942735Y-42344032D01*
X55869677Y-42329500D01*
X55869674Y-42329500D01*
X54620326Y-42329500D01*
X54620323Y-42329500D01*
X54547264Y-42344032D01*
X54547260Y-42344033D01*
X54464399Y-42399399D01*
X54409033Y-42482260D01*
X54409032Y-42482264D01*
X54394500Y-42555321D01*
X54394500Y-42730500D01*
X54374815Y-42797539D01*
X54322011Y-42843294D01*
X54270500Y-42854500D01*
X53835378Y-42854500D01*
X53792046Y-42846682D01*
X53761182Y-42835170D01*
X53682299Y-42805748D01*
X53624190Y-42799500D01*
X53624174Y-42799500D01*
X53055826Y-42799500D01*
X53055809Y-42799500D01*
X52997700Y-42805748D01*
X52866219Y-42854789D01*
X52753884Y-42938884D01*
X52669789Y-43051219D01*
X52620748Y-43182700D01*
X52614500Y-43240809D01*
X52614500Y-43934190D01*
X52620748Y-43992299D01*
X52669789Y-44123780D01*
X52698298Y-44161862D01*
X52753884Y-44236116D01*
X52866222Y-44320212D01*
X52878089Y-44324638D01*
X52902703Y-44333819D01*
X52958636Y-44375691D01*
X52983052Y-44441155D01*
X52968200Y-44509428D01*
X52918794Y-44558833D01*
X52902703Y-44566181D01*
X52866221Y-44579788D01*
X52753884Y-44663884D01*
X52669789Y-44776219D01*
X52620748Y-44907700D01*
X52614500Y-44965809D01*
X52614500Y-45659190D01*
X52620748Y-45717299D01*
X52653768Y-45805826D01*
X52669124Y-45846999D01*
X52669789Y-45848780D01*
X52690878Y-45876951D01*
X52753498Y-45960601D01*
X52753885Y-45961117D01*
X52769212Y-45972591D01*
X52809053Y-46002415D01*
X52850924Y-46058347D01*
X52855908Y-46128039D01*
X52850685Y-46145650D01*
X52830763Y-46198180D01*
X52830762Y-46198185D01*
X52811722Y-46354999D01*
X52811722Y-46355000D01*
X52830762Y-46511818D01*
X52883613Y-46651173D01*
X52886780Y-46659523D01*
X52976517Y-46789530D01*
X53094760Y-46894283D01*
X53094762Y-46894284D01*
X53234634Y-46967696D01*
X53388014Y-47005500D01*
X53388015Y-47005500D01*
X53545985Y-47005500D01*
X53699365Y-46967696D01*
X53739346Y-46946712D01*
X53839240Y-46894283D01*
X53957483Y-46789530D01*
X54047220Y-46659523D01*
X54103237Y-46511818D01*
X54111871Y-46440709D01*
X54139493Y-46376532D01*
X54197427Y-46337475D01*
X54267280Y-46335940D01*
X54322648Y-46367975D01*
X55840138Y-47885465D01*
X55914361Y-47928318D01*
X55997147Y-47950500D01*
X56082853Y-47950500D01*
X56523943Y-47950500D01*
X56590982Y-47970185D01*
X56624206Y-48006906D01*
X56626214Y-48005448D01*
X56631950Y-48013343D01*
X56721652Y-48103045D01*
X56721654Y-48103046D01*
X56721658Y-48103050D01*
X56812851Y-48149515D01*
X56863647Y-48197490D01*
X56880442Y-48265311D01*
X56857904Y-48331446D01*
X56812852Y-48370484D01*
X56721658Y-48416950D01*
X56721657Y-48416951D01*
X56721652Y-48416954D01*
X56631954Y-48506652D01*
X56631951Y-48506657D01*
X56631950Y-48506658D01*
X56617285Y-48535439D01*
X56574352Y-48619698D01*
X56559500Y-48713475D01*
X56559500Y-49076517D01*
X56568712Y-49134678D01*
X56574354Y-49170304D01*
X56631950Y-49283342D01*
X56631952Y-49283344D01*
X56631954Y-49283347D01*
X56721652Y-49373045D01*
X56721654Y-49373046D01*
X56721658Y-49373050D01*
X56812851Y-49419515D01*
X56863647Y-49467490D01*
X56880442Y-49535311D01*
X56857904Y-49601446D01*
X56812852Y-49640484D01*
X56721658Y-49686950D01*
X56721657Y-49686951D01*
X56721652Y-49686954D01*
X56631954Y-49776652D01*
X56631951Y-49776657D01*
X56631950Y-49776658D01*
X56624042Y-49792178D01*
X56574352Y-49889698D01*
X56559500Y-49983475D01*
X56559500Y-50346517D01*
X56570292Y-50414657D01*
X56574354Y-50440304D01*
X56631950Y-50553342D01*
X56631952Y-50553344D01*
X56631954Y-50553347D01*
X56721652Y-50643045D01*
X56721654Y-50643046D01*
X56721658Y-50643050D01*
X56812851Y-50689515D01*
X56863647Y-50737490D01*
X56880442Y-50805311D01*
X56857904Y-50871446D01*
X56812852Y-50910484D01*
X56721658Y-50956950D01*
X56721657Y-50956951D01*
X56721652Y-50956954D01*
X56631950Y-51046657D01*
X56626214Y-51054552D01*
X56623940Y-51052899D01*
X56586454Y-51092591D01*
X56523943Y-51109500D01*
X55199500Y-51109500D01*
X55132461Y-51089815D01*
X55086706Y-51037011D01*
X55075500Y-50985500D01*
X55075500Y-50565323D01*
X55075499Y-50565321D01*
X55060967Y-50492264D01*
X55060966Y-50492260D01*
X55059790Y-50490500D01*
X55005601Y-50409399D01*
X54922740Y-50354034D01*
X54922739Y-50354033D01*
X54922735Y-50354032D01*
X54849677Y-50339500D01*
X54849674Y-50339500D01*
X54641682Y-50339500D01*
X54574643Y-50319815D01*
X54528888Y-50267011D01*
X54518944Y-50197853D01*
X54547969Y-50134297D01*
X54589277Y-50103118D01*
X54652578Y-50073600D01*
X54846082Y-49938105D01*
X55013105Y-49771082D01*
X55148600Y-49577578D01*
X55248429Y-49363492D01*
X55248432Y-49363486D01*
X55305636Y-49150000D01*
X54408012Y-49150000D01*
X54440925Y-49092993D01*
X54475000Y-48965826D01*
X54475000Y-48834174D01*
X54440925Y-48707007D01*
X54408012Y-48650000D01*
X55305636Y-48650000D01*
X55305635Y-48649999D01*
X55248432Y-48436513D01*
X55248429Y-48436507D01*
X55148600Y-48222422D01*
X55148599Y-48222420D01*
X55013113Y-48028926D01*
X55013108Y-48028920D01*
X54846082Y-47861894D01*
X54652578Y-47726399D01*
X54438492Y-47626570D01*
X54438486Y-47626567D01*
X54225000Y-47569364D01*
X54225000Y-48466988D01*
X54167993Y-48434075D01*
X54040826Y-48400000D01*
X53909174Y-48400000D01*
X53782007Y-48434075D01*
X53725000Y-48466988D01*
X53725000Y-47569364D01*
X53724999Y-47569364D01*
X53511513Y-47626567D01*
X53511507Y-47626570D01*
X53297422Y-47726399D01*
X53297420Y-47726400D01*
X53103926Y-47861886D01*
X53103920Y-47861891D01*
X52936891Y-48028920D01*
X52936886Y-48028926D01*
X52801400Y-48222420D01*
X52801399Y-48222422D01*
X52701570Y-48436507D01*
X52701567Y-48436513D01*
X52644364Y-48649999D01*
X52644364Y-48650000D01*
X53541988Y-48650000D01*
X53509075Y-48707007D01*
X53475000Y-48834174D01*
X53475000Y-48965826D01*
X53509075Y-49092993D01*
X53541988Y-49150000D01*
X52644364Y-49150000D01*
X52701567Y-49363486D01*
X52701570Y-49363492D01*
X52801399Y-49577578D01*
X52936894Y-49771082D01*
X53103917Y-49938105D01*
X53297421Y-50073600D01*
X53360723Y-50103118D01*
X53413162Y-50149290D01*
X53432314Y-50216484D01*
X53412098Y-50283365D01*
X53358933Y-50328700D01*
X53308318Y-50339500D01*
X53100323Y-50339500D01*
X53027264Y-50354032D01*
X53027260Y-50354033D01*
X52944399Y-50409399D01*
X52889033Y-50492260D01*
X52889032Y-50492264D01*
X52874500Y-50565321D01*
X52874500Y-52028811D01*
X52854815Y-52095850D01*
X52838181Y-52116492D01*
X52802037Y-52152635D01*
X52802035Y-52152638D01*
X52759182Y-52226861D01*
X52740395Y-52296976D01*
X52740395Y-52296977D01*
X52737000Y-52309646D01*
X52737000Y-53793726D01*
X52717315Y-53860765D01*
X52664511Y-53906520D01*
X52656334Y-53909907D01*
X52576222Y-53939787D01*
X52463884Y-54023884D01*
X52379789Y-54136219D01*
X52330748Y-54267700D01*
X52324500Y-54325809D01*
X52324500Y-54894190D01*
X52330748Y-54952299D01*
X52362741Y-55038073D01*
X52375320Y-55071800D01*
X52379789Y-55083780D01*
X52391553Y-55099494D01*
X52463884Y-55196116D01*
X52520736Y-55238675D01*
X52570973Y-55276283D01*
X52576222Y-55280212D01*
X52650382Y-55307872D01*
X52707700Y-55329251D01*
X52765809Y-55335499D01*
X52765826Y-55335500D01*
X53359174Y-55335500D01*
X53359190Y-55335499D01*
X53417299Y-55329251D01*
X53417465Y-55329189D01*
X53548778Y-55280212D01*
X53661116Y-55196116D01*
X53745212Y-55083778D01*
X53794251Y-54952299D01*
X53795127Y-54944149D01*
X53800499Y-54894190D01*
X53800500Y-54894173D01*
X53800500Y-54325826D01*
X53800499Y-54325809D01*
X53794251Y-54267700D01*
X53777021Y-54221506D01*
X53745212Y-54136222D01*
X53736289Y-54124303D01*
X53721524Y-54104579D01*
X53661116Y-54023884D01*
X53548778Y-53939788D01*
X53548776Y-53939787D01*
X53548778Y-53939787D01*
X53468666Y-53909907D01*
X53412732Y-53868036D01*
X53388316Y-53802571D01*
X53388000Y-53793726D01*
X53388000Y-52664500D01*
X53407685Y-52597461D01*
X53460489Y-52551706D01*
X53512000Y-52540500D01*
X54849676Y-52540500D01*
X54849677Y-52540499D01*
X54922740Y-52525966D01*
X55005601Y-52470601D01*
X55060966Y-52387740D01*
X55075500Y-52314674D01*
X55075500Y-51884500D01*
X55095185Y-51817461D01*
X55147989Y-51771706D01*
X55199500Y-51760500D01*
X56523943Y-51760500D01*
X56590982Y-51780185D01*
X56624206Y-51816906D01*
X56626214Y-51815448D01*
X56631950Y-51823343D01*
X56721652Y-51913045D01*
X56721654Y-51913046D01*
X56721658Y-51913050D01*
X56812851Y-51959515D01*
X56863647Y-52007490D01*
X56880442Y-52075311D01*
X56857904Y-52141446D01*
X56812852Y-52180484D01*
X56721658Y-52226950D01*
X56721657Y-52226951D01*
X56721652Y-52226954D01*
X56631954Y-52316652D01*
X56631951Y-52316657D01*
X56631950Y-52316658D01*
X56614630Y-52350651D01*
X56574352Y-52429698D01*
X56559500Y-52523475D01*
X56559500Y-52886517D01*
X56567229Y-52935315D01*
X56574354Y-52980304D01*
X56631950Y-53093342D01*
X56631952Y-53093344D01*
X56631954Y-53093347D01*
X56721652Y-53183045D01*
X56721654Y-53183046D01*
X56721658Y-53183050D01*
X56812851Y-53229515D01*
X56863647Y-53277490D01*
X56880442Y-53345311D01*
X56857904Y-53411446D01*
X56812852Y-53450484D01*
X56721658Y-53496950D01*
X56721657Y-53496951D01*
X56721652Y-53496954D01*
X56631954Y-53586652D01*
X56631951Y-53586657D01*
X56631950Y-53586658D01*
X56622361Y-53605477D01*
X56574352Y-53699698D01*
X56559500Y-53793475D01*
X56559500Y-54020548D01*
X56539815Y-54087587D01*
X56487011Y-54133342D01*
X56417853Y-54143286D01*
X56377874Y-54130344D01*
X56366365Y-54124303D01*
X56212986Y-54086500D01*
X56212985Y-54086500D01*
X56055015Y-54086500D01*
X56055014Y-54086500D01*
X55901636Y-54124303D01*
X55844255Y-54154419D01*
X55766371Y-54195296D01*
X55708747Y-54209500D01*
X55683639Y-54209500D01*
X55616600Y-54189815D01*
X55576122Y-54143101D01*
X55574463Y-54144007D01*
X55570212Y-54136222D01*
X55561214Y-54124202D01*
X55486116Y-54023884D01*
X55376494Y-53941821D01*
X55373780Y-53939789D01*
X55373778Y-53939788D01*
X55337119Y-53926115D01*
X55242299Y-53890748D01*
X55184190Y-53884500D01*
X55184174Y-53884500D01*
X54590826Y-53884500D01*
X54590809Y-53884500D01*
X54532700Y-53890748D01*
X54401219Y-53939789D01*
X54288884Y-54023884D01*
X54204789Y-54136219D01*
X54155748Y-54267700D01*
X54149500Y-54325809D01*
X54149500Y-54894190D01*
X54155748Y-54952299D01*
X54187741Y-55038073D01*
X54200320Y-55071800D01*
X54204789Y-55083780D01*
X54216553Y-55099494D01*
X54288884Y-55196116D01*
X54345736Y-55238675D01*
X54395973Y-55276283D01*
X54401222Y-55280212D01*
X54475382Y-55307872D01*
X54532700Y-55329251D01*
X54590809Y-55335499D01*
X54590826Y-55335500D01*
X55184174Y-55335500D01*
X55184190Y-55335499D01*
X55242299Y-55329251D01*
X55242465Y-55329189D01*
X55373778Y-55280212D01*
X55486116Y-55196116D01*
X55486118Y-55196112D01*
X55490550Y-55191681D01*
X55551871Y-55158193D01*
X55621563Y-55163174D01*
X55660461Y-55186542D01*
X55761759Y-55276282D01*
X55761761Y-55276284D01*
X55901634Y-55349696D01*
X56055014Y-55387500D01*
X56166745Y-55387500D01*
X56233784Y-55407185D01*
X56254426Y-55423819D01*
X56321519Y-55490912D01*
X56321520Y-55490913D01*
X56396087Y-55565480D01*
X56487413Y-55618207D01*
X56589273Y-55645500D01*
X56592746Y-55645500D01*
X56595567Y-55646328D01*
X56597333Y-55646561D01*
X56597296Y-55646836D01*
X56659785Y-55665185D01*
X56680428Y-55681820D01*
X56721653Y-55723046D01*
X56721655Y-55723047D01*
X56721658Y-55723050D01*
X56834696Y-55780646D01*
X56834698Y-55780647D01*
X56928475Y-55795499D01*
X56928481Y-55795500D01*
X58379811Y-55795499D01*
X58446850Y-55815184D01*
X58492605Y-55867987D01*
X58502549Y-55937146D01*
X58473524Y-56000702D01*
X58467492Y-56007180D01*
X56455994Y-58018677D01*
X56394671Y-58052162D01*
X56324979Y-58047178D01*
X56323520Y-58046623D01*
X56182461Y-57991977D01*
X56182456Y-57991976D01*
X55981976Y-57954500D01*
X55778024Y-57954500D01*
X55577544Y-57991976D01*
X55577542Y-57991976D01*
X55577540Y-57991977D01*
X55436480Y-58046624D01*
X55366856Y-58052486D01*
X55305116Y-58019776D01*
X55304005Y-58018678D01*
X55063864Y-57778537D01*
X55063862Y-57778535D01*
X55004301Y-57744147D01*
X54989640Y-57735682D01*
X54948246Y-57724591D01*
X54906853Y-57713500D01*
X54906852Y-57713500D01*
X54231724Y-57713500D01*
X54164685Y-57693815D01*
X54118930Y-57641011D01*
X54108986Y-57571853D01*
X54129674Y-57519061D01*
X54174216Y-57454529D01*
X54174216Y-57454528D01*
X54174220Y-57454523D01*
X54230237Y-57306818D01*
X54249278Y-57150000D01*
X54231290Y-57001850D01*
X54230237Y-56993181D01*
X54202343Y-56919632D01*
X54174220Y-56845477D01*
X54084483Y-56715470D01*
X53966240Y-56610717D01*
X53966238Y-56610716D01*
X53966237Y-56610715D01*
X53826365Y-56537303D01*
X53672986Y-56499500D01*
X53672985Y-56499500D01*
X53515015Y-56499500D01*
X53361635Y-56537304D01*
X53361634Y-56537304D01*
X53354353Y-56539099D01*
X53353731Y-56536579D01*
X53296370Y-56540982D01*
X53247786Y-56518947D01*
X53178780Y-56467289D01*
X53178778Y-56467288D01*
X53152144Y-56457354D01*
X53047299Y-56418248D01*
X52989190Y-56412000D01*
X52989174Y-56412000D01*
X52420826Y-56412000D01*
X52420809Y-56412000D01*
X52362700Y-56418248D01*
X52231219Y-56467289D01*
X52118884Y-56551384D01*
X52034789Y-56663719D01*
X51985748Y-56795200D01*
X51979500Y-56853309D01*
X51979500Y-56934811D01*
X51959815Y-57001850D01*
X51907011Y-57047605D01*
X51837853Y-57057549D01*
X51774297Y-57028524D01*
X51767819Y-57022492D01*
X49698951Y-54953624D01*
X49665466Y-54892301D01*
X49662632Y-54865943D01*
X49662632Y-40389640D01*
X49682317Y-40322601D01*
X49698951Y-40301959D01*
X52214091Y-37786819D01*
X52275414Y-37753334D01*
X52301772Y-37750500D01*
X65178811Y-37750500D01*
X65245850Y-37770185D01*
X65266492Y-37786819D01*
X68078181Y-40598508D01*
X68111666Y-40659831D01*
X68114500Y-40686189D01*
X68114500Y-42149678D01*
X68129032Y-42222735D01*
X68129033Y-42222739D01*
X68147405Y-42250235D01*
X68184399Y-42305601D01*
X68241918Y-42344033D01*
X68267260Y-42360966D01*
X68267264Y-42360967D01*
X68340321Y-42375499D01*
X68340324Y-42375500D01*
X68340326Y-42375500D01*
X70089676Y-42375500D01*
X70089677Y-42375499D01*
X70162740Y-42360966D01*
X70245601Y-42305601D01*
X70300966Y-42222740D01*
X70315500Y-42149674D01*
X70315500Y-40400326D01*
X70315500Y-40400323D01*
X70315499Y-40400321D01*
X70300967Y-40327264D01*
X70300966Y-40327260D01*
X70297853Y-40322601D01*
X70245601Y-40244399D01*
X70162740Y-40189034D01*
X70162739Y-40189033D01*
X70162735Y-40189032D01*
X70089677Y-40174500D01*
X70089674Y-40174500D01*
X68626189Y-40174500D01*
X68559150Y-40154815D01*
X68538508Y-40138181D01*
X66062508Y-37662181D01*
X66029023Y-37600858D01*
X66034007Y-37531166D01*
X66075879Y-37475233D01*
X66141343Y-37450816D01*
X66150189Y-37450500D01*
X68333943Y-37450500D01*
X68400982Y-37470185D01*
G37*
%TD.AperFunction*%
%TA.AperFunction,Conductor*%
G36*
X64417316Y-54633956D02*
G01*
X64419429Y-54636020D01*
X65785301Y-56001892D01*
X65818786Y-56063215D01*
X65813802Y-56132907D01*
X65785301Y-56177254D01*
X65311376Y-56651181D01*
X65250053Y-56684666D01*
X65223695Y-56687500D01*
X65073189Y-56687500D01*
X65006150Y-56667815D01*
X64985508Y-56651181D01*
X64296819Y-55962492D01*
X64263334Y-55901169D01*
X64260500Y-55874811D01*
X64260500Y-54892663D01*
X64260500Y-54892661D01*
X64256962Y-54879457D01*
X64238318Y-54809875D01*
X64224361Y-54785702D01*
X64207888Y-54717803D01*
X64230739Y-54651776D01*
X64285660Y-54608584D01*
X64355213Y-54601941D01*
X64417316Y-54633956D01*
G37*
%TD.AperFunction*%
%TA.AperFunction,Conductor*%
G36*
X77825539Y-44219685D02*
G01*
X77871294Y-44272489D01*
X77882500Y-44324000D01*
X77882500Y-45424999D01*
X77981640Y-45424999D01*
X77981647Y-45424998D01*
X78000463Y-45423076D01*
X78069156Y-45435844D01*
X78120042Y-45483724D01*
X78136964Y-45551513D01*
X78114550Y-45617690D01*
X78076190Y-45653166D01*
X78018444Y-45687317D01*
X78018438Y-45687321D01*
X77902321Y-45803438D01*
X77902314Y-45803447D01*
X77818718Y-45944801D01*
X77772899Y-46102513D01*
X77772704Y-46104998D01*
X77772705Y-46105000D01*
X78995000Y-46105000D01*
X78995000Y-45555000D01*
X78368130Y-45555000D01*
X78301091Y-45535315D01*
X78255336Y-45482511D01*
X78245392Y-45413353D01*
X78274417Y-45349797D01*
X78303032Y-45325462D01*
X78393037Y-45269945D01*
X78514944Y-45148038D01*
X78514947Y-45148034D01*
X78605448Y-45001311D01*
X78605454Y-45001298D01*
X78625599Y-44940505D01*
X78665371Y-44883060D01*
X78729887Y-44856236D01*
X78798663Y-44868551D01*
X78830986Y-44891827D01*
X79458681Y-45519522D01*
X79492166Y-45580845D01*
X79495000Y-45607203D01*
X79495000Y-47375000D01*
X80717295Y-47375000D01*
X80717295Y-47374998D01*
X80717100Y-47372513D01*
X80671281Y-47214801D01*
X80587685Y-47073447D01*
X80582900Y-47067278D01*
X80585252Y-47065453D01*
X80558445Y-47016405D01*
X80563402Y-46946712D01*
X80584465Y-46913936D01*
X80582900Y-46912722D01*
X80587682Y-46906555D01*
X80602197Y-46882013D01*
X80653266Y-46834329D01*
X80722007Y-46821825D01*
X80786597Y-46848469D01*
X80796611Y-46857452D01*
X81207181Y-47268022D01*
X81240666Y-47329345D01*
X81243500Y-47355703D01*
X81243500Y-53416075D01*
X81223815Y-53483114D01*
X81207185Y-53503751D01*
X81124285Y-53586652D01*
X81054888Y-53656049D01*
X80993565Y-53689533D01*
X80923873Y-53684549D01*
X80867940Y-53642677D01*
X80847431Y-53600455D01*
X80846066Y-53595362D01*
X80846066Y-53595361D01*
X80803213Y-53521138D01*
X80637466Y-53355391D01*
X80603981Y-53294068D01*
X80608965Y-53224376D01*
X80618416Y-53204588D01*
X80671281Y-53115199D01*
X80717100Y-52957486D01*
X80717295Y-52955001D01*
X80717295Y-52955000D01*
X79119000Y-52955000D01*
X79051961Y-52935315D01*
X79006206Y-52882511D01*
X78995000Y-52831000D01*
X78995000Y-52579000D01*
X79014685Y-52511961D01*
X79067489Y-52466206D01*
X79119000Y-52455000D01*
X80717295Y-52455000D01*
X80717295Y-52454998D01*
X80717100Y-52452513D01*
X80671282Y-52294803D01*
X80618415Y-52205411D01*
X80601232Y-52137687D01*
X80623392Y-52071424D01*
X80637460Y-52054614D01*
X80803213Y-51888862D01*
X80846066Y-51814639D01*
X80868248Y-51731853D01*
X80868248Y-51646147D01*
X80868248Y-50444896D01*
X80867018Y-50440304D01*
X80846066Y-50362110D01*
X80803213Y-50287887D01*
X80493662Y-49978336D01*
X80460177Y-49917013D01*
X80458869Y-49910050D01*
X80455646Y-49889697D01*
X80455646Y-49889696D01*
X80398050Y-49776658D01*
X80398046Y-49776654D01*
X80398045Y-49776652D01*
X80308347Y-49686954D01*
X80308343Y-49686951D01*
X80308342Y-49686950D01*
X80295615Y-49680465D01*
X80217147Y-49640483D01*
X80166352Y-49592509D01*
X80149557Y-49524687D01*
X80172095Y-49458553D01*
X80217145Y-49419517D01*
X80308342Y-49373050D01*
X80398050Y-49283342D01*
X80455646Y-49170304D01*
X80455646Y-49170302D01*
X80455647Y-49170301D01*
X80470499Y-49076524D01*
X80470500Y-49076519D01*
X80470499Y-48713482D01*
X80455646Y-48619696D01*
X80398050Y-48506658D01*
X80398044Y-48506652D01*
X80392311Y-48498759D01*
X80395248Y-48496624D01*
X80370462Y-48451231D01*
X80375446Y-48381539D01*
X80417318Y-48325606D01*
X80428509Y-48318140D01*
X80471552Y-48292685D01*
X80471561Y-48292678D01*
X80587678Y-48176561D01*
X80587685Y-48176552D01*
X80671281Y-48035198D01*
X80717100Y-47877486D01*
X80717295Y-47875001D01*
X80717295Y-47875000D01*
X77772705Y-47875000D01*
X77772704Y-47875001D01*
X77772899Y-47877486D01*
X77818718Y-48035198D01*
X77902314Y-48176552D01*
X77902321Y-48176561D01*
X78018438Y-48292678D01*
X78018444Y-48292682D01*
X78061491Y-48318140D01*
X78109175Y-48369209D01*
X78121679Y-48437951D01*
X78096844Y-48498150D01*
X78097686Y-48498762D01*
X78095155Y-48502244D01*
X78095034Y-48502540D01*
X78094544Y-48503086D01*
X78086214Y-48514552D01*
X78083940Y-48512899D01*
X78046454Y-48552591D01*
X77983943Y-48569500D01*
X75556057Y-48569500D01*
X75489018Y-48549815D01*
X75455793Y-48513093D01*
X75453786Y-48514552D01*
X75448050Y-48506657D01*
X75358347Y-48416954D01*
X75358343Y-48416951D01*
X75358342Y-48416950D01*
X75325076Y-48400000D01*
X75267147Y-48370483D01*
X75216352Y-48322509D01*
X75199557Y-48254687D01*
X75222095Y-48188553D01*
X75267145Y-48149517D01*
X75358342Y-48103050D01*
X75448050Y-48013342D01*
X75505646Y-47900304D01*
X75505646Y-47900302D01*
X75505647Y-47900301D01*
X75519957Y-47809947D01*
X75520500Y-47806519D01*
X75520499Y-47443482D01*
X75505646Y-47349696D01*
X75448050Y-47236658D01*
X75448046Y-47236654D01*
X75448045Y-47236652D01*
X75358347Y-47146954D01*
X75358343Y-47146951D01*
X75358342Y-47146950D01*
X75317901Y-47126344D01*
X75267147Y-47100483D01*
X75216352Y-47052509D01*
X75199557Y-46984687D01*
X75222095Y-46918553D01*
X75267145Y-46879517D01*
X75358342Y-46833050D01*
X75448050Y-46743342D01*
X75505646Y-46630304D01*
X75505646Y-46630302D01*
X75505647Y-46630301D01*
X75509654Y-46605001D01*
X77772704Y-46605001D01*
X77772899Y-46607486D01*
X77818718Y-46765198D01*
X77902314Y-46906552D01*
X77907100Y-46912722D01*
X77904753Y-46914542D01*
X77931564Y-46963642D01*
X77926580Y-47033334D01*
X77905541Y-47066069D01*
X77907100Y-47067278D01*
X77902314Y-47073447D01*
X77818718Y-47214801D01*
X77772899Y-47372513D01*
X77772704Y-47374998D01*
X77772705Y-47375000D01*
X78995000Y-47375000D01*
X78995000Y-46605000D01*
X77772705Y-46605000D01*
X77772704Y-46605001D01*
X75509654Y-46605001D01*
X75517343Y-46556454D01*
X75520500Y-46536519D01*
X75520499Y-46173482D01*
X75505646Y-46079696D01*
X75448050Y-45966658D01*
X75448046Y-45966654D01*
X75448045Y-45966652D01*
X75358347Y-45876954D01*
X75358344Y-45876952D01*
X75358342Y-45876950D01*
X75281517Y-45837805D01*
X75245301Y-45819352D01*
X75151524Y-45804500D01*
X75151519Y-45804500D01*
X74744500Y-45804500D01*
X74677461Y-45784815D01*
X74631706Y-45732011D01*
X74620500Y-45680500D01*
X74620500Y-44763189D01*
X74640185Y-44696150D01*
X74656819Y-44675508D01*
X74907819Y-44424508D01*
X74969142Y-44391023D01*
X75038834Y-44396007D01*
X75094767Y-44437879D01*
X75119184Y-44503343D01*
X75119500Y-44512189D01*
X75119500Y-44734190D01*
X75125748Y-44792299D01*
X75174789Y-44923780D01*
X75192988Y-44948090D01*
X75258884Y-45036116D01*
X75371222Y-45120212D01*
X75426334Y-45140767D01*
X75482266Y-45182636D01*
X75506684Y-45248101D01*
X75507000Y-45256948D01*
X75507000Y-45353227D01*
X75513558Y-45377701D01*
X75534293Y-45455089D01*
X75560656Y-45500750D01*
X75587020Y-45546413D01*
X75587022Y-45546415D01*
X75765653Y-45725046D01*
X75799138Y-45786369D01*
X75801068Y-45827669D01*
X75798722Y-45846995D01*
X75798722Y-45847000D01*
X75817762Y-46003818D01*
X75861161Y-46118249D01*
X75873780Y-46151523D01*
X75963517Y-46281530D01*
X76081760Y-46386283D01*
X76081762Y-46386284D01*
X76221634Y-46459696D01*
X76375014Y-46497500D01*
X76375015Y-46497500D01*
X76532985Y-46497500D01*
X76686365Y-46459696D01*
X76726392Y-46438688D01*
X76826240Y-46386283D01*
X76944483Y-46281530D01*
X77034220Y-46151523D01*
X77090237Y-46003818D01*
X77109278Y-45847000D01*
X77109277Y-45846995D01*
X77090237Y-45690182D01*
X77078477Y-45659174D01*
X77049026Y-45581519D01*
X77043660Y-45511860D01*
X77076807Y-45450353D01*
X77137945Y-45416532D01*
X77177572Y-45414193D01*
X77283351Y-45424999D01*
X77382500Y-45424998D01*
X77382500Y-44324000D01*
X77402185Y-44256961D01*
X77454989Y-44211206D01*
X77506500Y-44200000D01*
X77758500Y-44200000D01*
X77825539Y-44219685D01*
G37*
%TD.AperFunction*%
%TA.AperFunction,Conductor*%
G36*
X94287850Y-39634185D02*
G01*
X94308492Y-39650819D01*
X95235492Y-40577819D01*
X95268977Y-40639142D01*
X95263993Y-40708834D01*
X95222121Y-40764767D01*
X95156657Y-40789184D01*
X95147811Y-40789500D01*
X95116739Y-40789500D01*
X95048608Y-40799426D01*
X94943514Y-40850803D01*
X94860800Y-40933517D01*
X94855392Y-40944580D01*
X94808261Y-40996160D01*
X94740726Y-41014071D01*
X94714323Y-41010512D01*
X94693986Y-41005500D01*
X94693985Y-41005500D01*
X94536015Y-41005500D01*
X94536014Y-41005500D01*
X94382634Y-41043303D01*
X94242762Y-41116715D01*
X94242760Y-41116717D01*
X94130131Y-41216497D01*
X94124516Y-41221471D01*
X94034781Y-41351475D01*
X94034780Y-41351476D01*
X93978762Y-41499181D01*
X93959722Y-41655999D01*
X93959722Y-41656000D01*
X93978762Y-41812818D01*
X94034389Y-41959492D01*
X94034780Y-41960523D01*
X94124517Y-42090530D01*
X94242760Y-42195283D01*
X94242762Y-42195284D01*
X94382634Y-42268696D01*
X94536014Y-42306500D01*
X94675500Y-42306500D01*
X94742539Y-42326185D01*
X94788294Y-42378989D01*
X94799500Y-42430500D01*
X94799500Y-42473260D01*
X94809426Y-42541391D01*
X94860803Y-42646485D01*
X94943514Y-42729196D01*
X94943515Y-42729196D01*
X94943517Y-42729198D01*
X95048607Y-42780573D01*
X95082673Y-42785536D01*
X95116739Y-42790500D01*
X95116740Y-42790500D01*
X95383261Y-42790500D01*
X95405971Y-42787191D01*
X95451393Y-42780573D01*
X95520541Y-42746768D01*
X95589413Y-42735010D01*
X95629458Y-42746768D01*
X95698607Y-42780573D01*
X95732673Y-42785536D01*
X95766739Y-42790500D01*
X95766740Y-42790500D01*
X96033261Y-42790500D01*
X96055971Y-42787191D01*
X96101393Y-42780573D01*
X96170541Y-42746768D01*
X96239413Y-42735010D01*
X96279458Y-42746768D01*
X96348607Y-42780573D01*
X96382673Y-42785536D01*
X96416739Y-42790500D01*
X96416740Y-42790500D01*
X96683261Y-42790500D01*
X96705971Y-42787191D01*
X96751393Y-42780573D01*
X96856483Y-42729198D01*
X96856486Y-42729195D01*
X96864847Y-42723227D01*
X96865915Y-42724723D01*
X96916308Y-42697202D01*
X96986001Y-42702180D01*
X97030358Y-42730685D01*
X98468181Y-44168508D01*
X98501666Y-44229831D01*
X98504500Y-44256189D01*
X98504500Y-52240810D01*
X98484815Y-52307849D01*
X98468181Y-52328491D01*
X98134638Y-52662033D01*
X98073315Y-52695518D01*
X98017284Y-52694749D01*
X97995987Y-52689500D01*
X97995985Y-52689500D01*
X97838015Y-52689500D01*
X97838014Y-52689500D01*
X97684634Y-52727303D01*
X97544762Y-52800715D01*
X97522828Y-52820147D01*
X97447909Y-52886519D01*
X97426516Y-52905471D01*
X97336781Y-53035475D01*
X97336780Y-53035476D01*
X97334200Y-53042280D01*
X97292020Y-53097982D01*
X97226422Y-53122037D01*
X97158232Y-53106809D01*
X97130578Y-53085987D01*
X95964128Y-51919537D01*
X95964126Y-51919535D01*
X95923619Y-51896148D01*
X95889904Y-51876682D01*
X95851183Y-51866307D01*
X95807117Y-51854500D01*
X95807116Y-51854500D01*
X95799267Y-51852397D01*
X95799603Y-51851141D01*
X95743331Y-51826244D01*
X95704863Y-51767918D01*
X95704035Y-51698053D01*
X95704344Y-51696974D01*
X95707099Y-51687490D01*
X95707100Y-51687488D01*
X95707295Y-51685001D01*
X95707295Y-51685000D01*
X94059000Y-51685000D01*
X93991961Y-51665315D01*
X93946206Y-51612511D01*
X93935000Y-51561000D01*
X93935000Y-51309000D01*
X93954685Y-51241961D01*
X94007489Y-51196206D01*
X94059000Y-51185000D01*
X95707295Y-51185000D01*
X95707295Y-51184998D01*
X95707100Y-51182513D01*
X95661281Y-51024801D01*
X95577685Y-50883447D01*
X95577678Y-50883438D01*
X95461561Y-50767321D01*
X95461552Y-50767314D01*
X95320196Y-50683717D01*
X95320193Y-50683715D01*
X95258248Y-50665719D01*
X95199362Y-50628113D01*
X95170156Y-50564640D01*
X95179902Y-50495454D01*
X95225506Y-50442519D01*
X95227746Y-50441105D01*
X95375534Y-50349947D01*
X95375538Y-50349944D01*
X95497444Y-50228038D01*
X95497447Y-50228034D01*
X95587948Y-50081311D01*
X95587953Y-50081300D01*
X95642180Y-49917652D01*
X95652499Y-49816654D01*
X95652500Y-49816641D01*
X95652500Y-49780000D01*
X94489000Y-49780000D01*
X94421961Y-49760315D01*
X94376206Y-49707511D01*
X94365000Y-49656000D01*
X94365000Y-49404000D01*
X94384685Y-49336961D01*
X94437489Y-49291206D01*
X94489000Y-49280000D01*
X95652499Y-49280000D01*
X95652499Y-49243360D01*
X95652498Y-49243345D01*
X95642180Y-49142347D01*
X95587953Y-48978699D01*
X95587948Y-48978688D01*
X95497447Y-48831965D01*
X95497444Y-48831961D01*
X95375538Y-48710055D01*
X95375534Y-48710052D01*
X95228811Y-48619551D01*
X95228800Y-48619546D01*
X95065152Y-48565319D01*
X94964154Y-48555000D01*
X94896144Y-48555000D01*
X94829105Y-48535315D01*
X94783350Y-48482511D01*
X94773048Y-48416054D01*
X94781735Y-48344501D01*
X94788778Y-48286500D01*
X94786431Y-48267171D01*
X94797891Y-48198249D01*
X94821843Y-48164548D01*
X95234574Y-47751819D01*
X95295897Y-47718334D01*
X95322255Y-47715500D01*
X95369174Y-47715500D01*
X95369190Y-47715499D01*
X95427299Y-47709251D01*
X95558778Y-47660212D01*
X95647945Y-47593462D01*
X95713409Y-47569044D01*
X95781682Y-47583895D01*
X95827794Y-47627630D01*
X95865054Y-47688037D01*
X95986961Y-47809944D01*
X95986965Y-47809947D01*
X96133688Y-47900448D01*
X96133699Y-47900453D01*
X96297347Y-47954680D01*
X96398351Y-47964999D01*
X96997500Y-47964999D01*
X97096640Y-47964999D01*
X97096654Y-47964998D01*
X97197652Y-47954680D01*
X97361300Y-47900453D01*
X97361311Y-47900448D01*
X97508034Y-47809947D01*
X97508038Y-47809944D01*
X97629944Y-47688038D01*
X97629947Y-47688034D01*
X97720448Y-47541311D01*
X97720453Y-47541300D01*
X97774680Y-47377652D01*
X97784999Y-47276654D01*
X97785000Y-47276641D01*
X97785000Y-47240000D01*
X96997500Y-47240000D01*
X96997500Y-47964999D01*
X96398351Y-47964999D01*
X96497500Y-47964998D01*
X96497500Y-46740000D01*
X96997500Y-46740000D01*
X97784999Y-46740000D01*
X97784999Y-46703360D01*
X97784998Y-46703345D01*
X97774680Y-46602347D01*
X97720453Y-46438699D01*
X97720448Y-46438688D01*
X97629947Y-46291965D01*
X97629944Y-46291961D01*
X97508038Y-46170055D01*
X97508034Y-46170052D01*
X97361311Y-46079551D01*
X97361300Y-46079546D01*
X97197652Y-46025319D01*
X97096654Y-46015000D01*
X96997500Y-46015000D01*
X96997500Y-46740000D01*
X96497500Y-46740000D01*
X96497500Y-46014999D01*
X96398360Y-46015000D01*
X96398344Y-46015001D01*
X96297347Y-46025319D01*
X96133699Y-46079546D01*
X96133688Y-46079551D01*
X95986965Y-46170052D01*
X95986961Y-46170055D01*
X95865054Y-46291962D01*
X95827794Y-46352370D01*
X95775845Y-46399094D01*
X95706883Y-46410315D01*
X95647945Y-46386538D01*
X95558782Y-46319790D01*
X95558779Y-46319789D01*
X95558778Y-46319788D01*
X95514484Y-46303267D01*
X95427299Y-46270748D01*
X95369190Y-46264500D01*
X95369174Y-46264500D01*
X94675826Y-46264500D01*
X94675809Y-46264500D01*
X94617700Y-46270748D01*
X94486219Y-46319789D01*
X94373884Y-46403884D01*
X94289789Y-46516219D01*
X94240748Y-46647700D01*
X94234500Y-46705809D01*
X94234500Y-47274190D01*
X94240749Y-47332300D01*
X94240749Y-47332301D01*
X94289115Y-47461977D01*
X94294099Y-47531669D01*
X94260621Y-47592985D01*
X94253929Y-47599676D01*
X94192611Y-47633164D01*
X94166244Y-47636000D01*
X94054514Y-47636000D01*
X94002674Y-47648777D01*
X93932872Y-47645707D01*
X93875810Y-47605387D01*
X93849605Y-47540618D01*
X93849000Y-47528380D01*
X93849000Y-46260649D01*
X93849000Y-46260647D01*
X93833685Y-46203492D01*
X93832860Y-46200411D01*
X93832858Y-46200406D01*
X93832262Y-46198182D01*
X93826818Y-46177861D01*
X93783965Y-46103638D01*
X93334862Y-45654535D01*
X93297750Y-45633108D01*
X93260640Y-45611682D01*
X93208359Y-45597674D01*
X93177853Y-45589500D01*
X93177852Y-45589500D01*
X90645465Y-45589500D01*
X90645449Y-45589499D01*
X90637853Y-45589499D01*
X90552148Y-45589499D01*
X90510755Y-45600590D01*
X90469360Y-45611682D01*
X90469355Y-45611685D01*
X90395144Y-45654530D01*
X90395136Y-45654536D01*
X90334533Y-45715140D01*
X90095994Y-45953678D01*
X90034671Y-45987163D01*
X89964979Y-45982179D01*
X89963557Y-45981638D01*
X89822456Y-45926976D01*
X89621976Y-45889500D01*
X89418024Y-45889500D01*
X89217544Y-45926976D01*
X89217541Y-45926976D01*
X89217541Y-45926977D01*
X89027364Y-46000651D01*
X89027357Y-46000655D01*
X88959777Y-46042499D01*
X88892416Y-46061054D01*
X88825717Y-46040246D01*
X88780856Y-45986681D01*
X88770500Y-45937072D01*
X88770500Y-44456188D01*
X88790185Y-44389149D01*
X88806813Y-44368512D01*
X88959007Y-44216318D01*
X89020327Y-44182836D01*
X89090018Y-44187820D01*
X89091411Y-44188349D01*
X89232544Y-44243024D01*
X89433024Y-44280500D01*
X89433026Y-44280500D01*
X89636974Y-44280500D01*
X89636976Y-44280500D01*
X89837456Y-44243024D01*
X90027637Y-44169348D01*
X90201041Y-44061981D01*
X90351764Y-43924579D01*
X90474673Y-43761821D01*
X90565582Y-43579250D01*
X90621397Y-43383083D01*
X90640215Y-43180000D01*
X90621397Y-42976917D01*
X90565582Y-42780750D01*
X90542806Y-42735010D01*
X90496398Y-42641809D01*
X90474673Y-42598179D01*
X90351764Y-42435421D01*
X90351762Y-42435418D01*
X90209051Y-42305321D01*
X90974500Y-42305321D01*
X90974500Y-44054678D01*
X90989032Y-44127735D01*
X90989033Y-44127739D01*
X91000140Y-44144362D01*
X91044399Y-44210601D01*
X91113783Y-44256961D01*
X91127260Y-44265966D01*
X91127264Y-44265967D01*
X91200321Y-44280499D01*
X91200324Y-44280500D01*
X91200326Y-44280500D01*
X92663811Y-44280500D01*
X92730850Y-44300185D01*
X92751492Y-44316819D01*
X93145138Y-44710465D01*
X93186231Y-44734190D01*
X93214748Y-44750655D01*
X93219361Y-44753318D01*
X93302147Y-44775500D01*
X93387853Y-44775500D01*
X94675500Y-44775500D01*
X94742539Y-44795185D01*
X94788294Y-44847989D01*
X94799500Y-44899500D01*
X94799500Y-45133260D01*
X94809426Y-45201391D01*
X94860803Y-45306485D01*
X94943514Y-45389196D01*
X94943515Y-45389196D01*
X94943517Y-45389198D01*
X95048607Y-45440573D01*
X95082673Y-45445536D01*
X95116739Y-45450500D01*
X95116740Y-45450500D01*
X95383261Y-45450500D01*
X95405971Y-45447191D01*
X95451393Y-45440573D01*
X95556483Y-45389198D01*
X95639198Y-45306483D01*
X95652101Y-45280088D01*
X95699226Y-45228508D01*
X95766760Y-45210592D01*
X95833259Y-45232031D01*
X95877610Y-45286020D01*
X95878062Y-45287096D01*
X95925900Y-45402587D01*
X96022075Y-45527924D01*
X96147414Y-45624100D01*
X96293366Y-45684555D01*
X96293372Y-45684557D01*
X96349998Y-45692011D01*
X96350000Y-45692010D01*
X96750000Y-45692010D01*
X96750001Y-45692011D01*
X96806627Y-45684557D01*
X96806633Y-45684555D01*
X96952585Y-45624100D01*
X97077924Y-45527924D01*
X97174100Y-45402586D01*
X97234554Y-45256634D01*
X97234555Y-45256630D01*
X97249999Y-45139330D01*
X97250000Y-45139316D01*
X97250000Y-44650000D01*
X96750000Y-44650000D01*
X96750000Y-45692010D01*
X96350000Y-45692010D01*
X96350000Y-44250000D01*
X96750000Y-44250000D01*
X97249999Y-44250000D01*
X97249999Y-43760675D01*
X97234557Y-43643371D01*
X97234555Y-43643366D01*
X97174100Y-43497414D01*
X97077924Y-43372075D01*
X96952586Y-43275899D01*
X96806631Y-43215444D01*
X96750000Y-43207987D01*
X96750000Y-44250000D01*
X96350000Y-44250000D01*
X96350000Y-43207987D01*
X96293368Y-43215444D01*
X96147413Y-43275899D01*
X96022075Y-43372075D01*
X95925899Y-43497413D01*
X95878063Y-43612903D01*
X95834222Y-43667307D01*
X95767928Y-43689372D01*
X95700229Y-43672093D01*
X95652618Y-43620956D01*
X95652102Y-43619911D01*
X95639199Y-43593517D01*
X95556485Y-43510803D01*
X95545637Y-43505500D01*
X95451393Y-43459427D01*
X95451391Y-43459426D01*
X95383261Y-43449500D01*
X95383260Y-43449500D01*
X95116740Y-43449500D01*
X95116739Y-43449500D01*
X95048608Y-43459426D01*
X94943514Y-43510803D01*
X94860803Y-43593514D01*
X94809426Y-43698608D01*
X94799500Y-43766739D01*
X94799500Y-44000500D01*
X94779815Y-44067539D01*
X94727011Y-44113294D01*
X94675500Y-44124500D01*
X93531189Y-44124500D01*
X93464150Y-44104815D01*
X93443508Y-44088181D01*
X93211819Y-43856492D01*
X93178334Y-43795169D01*
X93175500Y-43768811D01*
X93175500Y-42305323D01*
X93175499Y-42305321D01*
X93160967Y-42232264D01*
X93160966Y-42232260D01*
X93146528Y-42210652D01*
X93105601Y-42149399D01*
X93022740Y-42094034D01*
X93022739Y-42094033D01*
X93022735Y-42094032D01*
X92949677Y-42079500D01*
X92949674Y-42079500D01*
X91200326Y-42079500D01*
X91200323Y-42079500D01*
X91127264Y-42094032D01*
X91127260Y-42094033D01*
X91044399Y-42149399D01*
X90989033Y-42232260D01*
X90989032Y-42232264D01*
X90974500Y-42305321D01*
X90209051Y-42305321D01*
X90201041Y-42298019D01*
X90201039Y-42298017D01*
X90027642Y-42190655D01*
X90027639Y-42190653D01*
X90027637Y-42190652D01*
X90027636Y-42190651D01*
X90027635Y-42190651D01*
X89837675Y-42117061D01*
X89837456Y-42116976D01*
X89636976Y-42079500D01*
X89433024Y-42079500D01*
X89232544Y-42116976D01*
X89232541Y-42116976D01*
X89232541Y-42116977D01*
X89042364Y-42190651D01*
X89042357Y-42190655D01*
X88868960Y-42298017D01*
X88868958Y-42298019D01*
X88718237Y-42435418D01*
X88595327Y-42598178D01*
X88504422Y-42780739D01*
X88504417Y-42780752D01*
X88448602Y-42976917D01*
X88429785Y-43179999D01*
X88429785Y-43180000D01*
X88448602Y-43383082D01*
X88504418Y-43579250D01*
X88521495Y-43613547D01*
X88533754Y-43682333D01*
X88506879Y-43746827D01*
X88498175Y-43756497D01*
X88184534Y-44070139D01*
X88184533Y-44070141D01*
X88141682Y-44144360D01*
X88139097Y-44154010D01*
X88139096Y-44154013D01*
X88121827Y-44218459D01*
X88085462Y-44278119D01*
X88022615Y-44308647D01*
X87953239Y-44300352D01*
X87914372Y-44274045D01*
X87774457Y-44134130D01*
X87740972Y-44072807D01*
X87745956Y-44003115D01*
X87778598Y-43954812D01*
X87811764Y-43924579D01*
X87934673Y-43761821D01*
X88025582Y-43579250D01*
X88081397Y-43383083D01*
X88100215Y-43180000D01*
X88081397Y-42976917D01*
X88025582Y-42780750D01*
X88002806Y-42735010D01*
X87956398Y-42641809D01*
X87934673Y-42598179D01*
X87811764Y-42435421D01*
X87811762Y-42435418D01*
X87661041Y-42298019D01*
X87661039Y-42298017D01*
X87487640Y-42190653D01*
X87487625Y-42190646D01*
X87399706Y-42156586D01*
X87344304Y-42114014D01*
X87320714Y-42048247D01*
X87320500Y-42040960D01*
X87320500Y-41715189D01*
X87340185Y-41648150D01*
X87356819Y-41627508D01*
X89333508Y-39650819D01*
X89394831Y-39617334D01*
X89421189Y-39614500D01*
X94220811Y-39614500D01*
X94287850Y-39634185D01*
G37*
%TD.AperFunction*%
%TA.AperFunction,Conductor*%
G36*
X47730966Y-41731874D02*
G01*
X47786899Y-41773746D01*
X47811316Y-41839210D01*
X47811632Y-41848056D01*
X47811632Y-45656678D01*
X47791947Y-45723717D01*
X47775313Y-45744359D01*
X47191220Y-46328452D01*
X47129897Y-46361937D01*
X47060205Y-46356953D01*
X47004272Y-46315081D01*
X46979855Y-46249617D01*
X46991159Y-46188361D01*
X46993432Y-46183486D01*
X47050636Y-45970000D01*
X46153012Y-45970000D01*
X46185925Y-45912993D01*
X46220000Y-45785826D01*
X46220000Y-45654174D01*
X46185925Y-45527007D01*
X46153012Y-45470000D01*
X47050636Y-45470000D01*
X47050635Y-45469999D01*
X46993432Y-45256513D01*
X46993429Y-45256507D01*
X46893600Y-45042422D01*
X46893599Y-45042420D01*
X46758113Y-44848926D01*
X46758108Y-44848920D01*
X46591082Y-44681894D01*
X46397578Y-44546399D01*
X46183492Y-44446570D01*
X46183477Y-44446564D01*
X46144414Y-44436097D01*
X46084754Y-44399732D01*
X46054226Y-44336885D01*
X46062521Y-44267509D01*
X46107007Y-44213632D01*
X46131710Y-44200698D01*
X46212637Y-44169348D01*
X46386041Y-44061981D01*
X46536764Y-43924579D01*
X46659673Y-43761821D01*
X46750582Y-43579250D01*
X46806397Y-43383083D01*
X46825215Y-43180000D01*
X46806397Y-42976917D01*
X46750582Y-42780750D01*
X46733505Y-42746454D01*
X46721244Y-42677669D01*
X46748117Y-42613174D01*
X46756814Y-42603511D01*
X47599951Y-41760375D01*
X47661274Y-41726890D01*
X47730966Y-41731874D01*
G37*
%TD.AperFunction*%
%TA.AperFunction,Conductor*%
G36*
X94082850Y-22787185D02*
G01*
X94103492Y-22803819D01*
X95383181Y-24083508D01*
X95416666Y-24144831D01*
X95419500Y-24171189D01*
X95419500Y-25634678D01*
X95430168Y-25688309D01*
X95423941Y-25757900D01*
X95381078Y-25813078D01*
X95315188Y-25836322D01*
X95308551Y-25836500D01*
X92769188Y-25836500D01*
X92702149Y-25816815D01*
X92681507Y-25800181D01*
X92516000Y-25634674D01*
X92401959Y-25520632D01*
X92368475Y-25459311D01*
X92373459Y-25389619D01*
X92392735Y-25359664D01*
X92390801Y-25358216D01*
X92418977Y-25320577D01*
X92480212Y-25238778D01*
X92529251Y-25107299D01*
X92535499Y-25049190D01*
X92535500Y-25049173D01*
X92535500Y-24480826D01*
X92535499Y-24480809D01*
X92884500Y-24480809D01*
X92884500Y-25049190D01*
X92890748Y-25107299D01*
X92939789Y-25238780D01*
X92954521Y-25258459D01*
X93023884Y-25351116D01*
X93136222Y-25435212D01*
X93218296Y-25465824D01*
X93267700Y-25484251D01*
X93325809Y-25490499D01*
X93325826Y-25490500D01*
X93919174Y-25490500D01*
X93919190Y-25490499D01*
X93977299Y-25484251D01*
X94108778Y-25435212D01*
X94221116Y-25351116D01*
X94305212Y-25238778D01*
X94354251Y-25107299D01*
X94360499Y-25049190D01*
X94360500Y-25049173D01*
X94360500Y-24480826D01*
X94360499Y-24480809D01*
X94354251Y-24422700D01*
X94329737Y-24356976D01*
X94305212Y-24291222D01*
X94221116Y-24178884D01*
X94221114Y-24178882D01*
X94221113Y-24178881D01*
X94214845Y-24172613D01*
X94217020Y-24170437D01*
X94184313Y-24126735D01*
X94179337Y-24057043D01*
X94184551Y-24039465D01*
X94235237Y-23905818D01*
X94254278Y-23749000D01*
X94245176Y-23674033D01*
X94235237Y-23592181D01*
X94213992Y-23536164D01*
X94179220Y-23444477D01*
X94089483Y-23314470D01*
X93971240Y-23209717D01*
X93971238Y-23209716D01*
X93971237Y-23209715D01*
X93831365Y-23136303D01*
X93677986Y-23098500D01*
X93677985Y-23098500D01*
X93520015Y-23098500D01*
X93520014Y-23098500D01*
X93366634Y-23136303D01*
X93226762Y-23209715D01*
X93108516Y-23314471D01*
X93018781Y-23444475D01*
X93018780Y-23444476D01*
X92962762Y-23592181D01*
X92943722Y-23748999D01*
X92943722Y-23749000D01*
X92962762Y-23905818D01*
X93018780Y-24053523D01*
X93022267Y-24060167D01*
X93019746Y-24061489D01*
X93037483Y-24115267D01*
X93020019Y-24182919D01*
X93012817Y-24193667D01*
X92939789Y-24291219D01*
X92890748Y-24422700D01*
X92884500Y-24480809D01*
X92535499Y-24480809D01*
X92529251Y-24422700D01*
X92504737Y-24356976D01*
X92480212Y-24291222D01*
X92396116Y-24178884D01*
X92311442Y-24115497D01*
X92283780Y-24094789D01*
X92283778Y-24094788D01*
X92253535Y-24083508D01*
X92152299Y-24045748D01*
X92094190Y-24039500D01*
X92094174Y-24039500D01*
X91500826Y-24039500D01*
X91500809Y-24039500D01*
X91442700Y-24045748D01*
X91311219Y-24094789D01*
X91198884Y-24178884D01*
X91114789Y-24291219D01*
X91065748Y-24422700D01*
X91059500Y-24480809D01*
X91059500Y-25049190D01*
X91065748Y-25107299D01*
X91114789Y-25238780D01*
X91129521Y-25258459D01*
X91198884Y-25351116D01*
X91311222Y-25435212D01*
X91442701Y-25484251D01*
X91449970Y-25486962D01*
X91449073Y-25489366D01*
X91498949Y-25517752D01*
X91517123Y-25541873D01*
X91537035Y-25576362D01*
X91537036Y-25576363D01*
X91537037Y-25576364D01*
X91937299Y-25976626D01*
X91970784Y-26037949D01*
X91965800Y-26107641D01*
X91923928Y-26163574D01*
X91884213Y-26183383D01*
X91779806Y-26213716D01*
X91779803Y-26213717D01*
X91638447Y-26297314D01*
X91638438Y-26297321D01*
X91522321Y-26413438D01*
X91522314Y-26413447D01*
X91438718Y-26554801D01*
X91392899Y-26712513D01*
X91392704Y-26714998D01*
X91392705Y-26715000D01*
X94437295Y-26715000D01*
X94437295Y-26714998D01*
X94437100Y-26712511D01*
X94437099Y-26712505D01*
X94417805Y-26646095D01*
X94418004Y-26576226D01*
X94455946Y-26517556D01*
X94519584Y-26488712D01*
X94536881Y-26487500D01*
X95195811Y-26487500D01*
X95262850Y-26507185D01*
X95283492Y-26523819D01*
X95483175Y-26723502D01*
X95516660Y-26784825D01*
X95511676Y-26854517D01*
X95506495Y-26866453D01*
X95489419Y-26900747D01*
X95433602Y-27096917D01*
X95414785Y-27299999D01*
X95414785Y-27300000D01*
X95433602Y-27503082D01*
X95470478Y-27632685D01*
X95485221Y-27684501D01*
X95489419Y-27699253D01*
X95489419Y-27699255D01*
X95504843Y-27730229D01*
X95517104Y-27799014D01*
X95490231Y-27863509D01*
X95432755Y-27903237D01*
X95393843Y-27909500D01*
X94226057Y-27909500D01*
X94159018Y-27889815D01*
X94125793Y-27853093D01*
X94123786Y-27854552D01*
X94112314Y-27838762D01*
X94115250Y-27836628D01*
X94090462Y-27791231D01*
X94095446Y-27721539D01*
X94137318Y-27665606D01*
X94148509Y-27658140D01*
X94191552Y-27632685D01*
X94191561Y-27632678D01*
X94307678Y-27516561D01*
X94307685Y-27516552D01*
X94391281Y-27375198D01*
X94437100Y-27217486D01*
X94437295Y-27215001D01*
X94437295Y-27215000D01*
X91392705Y-27215000D01*
X91392704Y-27215001D01*
X91392899Y-27217486D01*
X91438718Y-27375198D01*
X91522314Y-27516552D01*
X91522321Y-27516561D01*
X91638438Y-27632678D01*
X91638444Y-27632682D01*
X91681491Y-27658140D01*
X91729175Y-27709209D01*
X91741679Y-27777951D01*
X91716846Y-27838146D01*
X91717689Y-27838759D01*
X91715154Y-27842247D01*
X91715034Y-27842540D01*
X91714549Y-27843080D01*
X91711951Y-27846657D01*
X91711950Y-27846658D01*
X91692751Y-27884337D01*
X91654352Y-27959698D01*
X91639500Y-28053475D01*
X91639500Y-28416517D01*
X91650680Y-28487103D01*
X91641724Y-28556397D01*
X91596727Y-28609848D01*
X91529976Y-28630487D01*
X91528206Y-28630500D01*
X88768689Y-28630500D01*
X88701650Y-28610815D01*
X88681008Y-28594181D01*
X88061364Y-27974537D01*
X88061362Y-27974535D01*
X88024250Y-27953108D01*
X87987140Y-27931682D01*
X87945746Y-27920591D01*
X87904353Y-27909500D01*
X87904352Y-27909500D01*
X84926057Y-27909500D01*
X84859018Y-27889815D01*
X84825793Y-27853093D01*
X84823786Y-27854552D01*
X84818050Y-27846657D01*
X84728347Y-27756954D01*
X84728343Y-27756951D01*
X84728342Y-27756950D01*
X84725599Y-27755552D01*
X84637147Y-27710483D01*
X84586352Y-27662509D01*
X84569557Y-27594687D01*
X84592095Y-27528553D01*
X84637145Y-27489517D01*
X84728342Y-27443050D01*
X84818050Y-27353342D01*
X84875646Y-27240304D01*
X84875646Y-27240302D01*
X84875647Y-27240301D01*
X84890499Y-27146524D01*
X84890500Y-27146519D01*
X84890499Y-26783482D01*
X84875646Y-26689696D01*
X84818050Y-26576658D01*
X84818046Y-26576654D01*
X84818045Y-26576652D01*
X84728347Y-26486954D01*
X84728344Y-26486952D01*
X84728342Y-26486950D01*
X84651517Y-26447805D01*
X84615301Y-26429352D01*
X84521524Y-26414500D01*
X82708482Y-26414500D01*
X82627519Y-26427323D01*
X82614696Y-26429354D01*
X82501658Y-26486950D01*
X82501657Y-26486951D01*
X82501652Y-26486954D01*
X82411954Y-26576652D01*
X82411951Y-26576657D01*
X82411950Y-26576658D01*
X82400653Y-26598829D01*
X82354352Y-26689698D01*
X82339500Y-26783475D01*
X82339500Y-26783480D01*
X82339500Y-26783481D01*
X82339500Y-26964565D01*
X82339501Y-27040500D01*
X82319817Y-27107539D01*
X82267013Y-27153294D01*
X82215501Y-27164500D01*
X71044500Y-27164500D01*
X70977461Y-27144815D01*
X70931706Y-27092011D01*
X70920500Y-27040500D01*
X70920499Y-26783482D01*
X70919684Y-26778335D01*
X70909653Y-26714998D01*
X77422704Y-26714998D01*
X77422705Y-26715000D01*
X78695000Y-26715000D01*
X79195000Y-26715000D01*
X80467295Y-26715000D01*
X80467295Y-26714998D01*
X80467100Y-26712513D01*
X80421281Y-26554801D01*
X80337685Y-26413447D01*
X80337678Y-26413438D01*
X80221561Y-26297321D01*
X80221552Y-26297314D01*
X80080196Y-26213717D01*
X80080193Y-26213716D01*
X79922495Y-26167900D01*
X79922489Y-26167899D01*
X79885649Y-26165000D01*
X79195000Y-26165000D01*
X79195000Y-26715000D01*
X78695000Y-26715000D01*
X78695000Y-26165000D01*
X78004350Y-26165000D01*
X77967510Y-26167899D01*
X77967504Y-26167900D01*
X77809806Y-26213716D01*
X77809803Y-26213717D01*
X77668447Y-26297314D01*
X77668438Y-26297321D01*
X77552321Y-26413438D01*
X77552314Y-26413447D01*
X77468718Y-26554801D01*
X77422899Y-26712513D01*
X77422704Y-26714998D01*
X70909653Y-26714998D01*
X70905646Y-26689696D01*
X70848050Y-26576658D01*
X70848046Y-26576654D01*
X70848045Y-26576652D01*
X70758347Y-26486954D01*
X70758344Y-26486952D01*
X70758342Y-26486950D01*
X70681517Y-26447805D01*
X70645301Y-26429352D01*
X70551524Y-26414500D01*
X70551519Y-26414500D01*
X70094500Y-26414500D01*
X70027461Y-26394815D01*
X69981706Y-26342011D01*
X69970500Y-26290500D01*
X69970500Y-26041148D01*
X69970500Y-26041147D01*
X69962057Y-26009638D01*
X69948318Y-25958361D01*
X69905465Y-25884138D01*
X69541961Y-25520634D01*
X69508476Y-25459311D01*
X69513460Y-25389619D01*
X69532719Y-25359651D01*
X69530801Y-25358216D01*
X69558977Y-25320577D01*
X69612153Y-25249542D01*
X69668086Y-25207673D01*
X69737777Y-25202689D01*
X69799100Y-25236174D01*
X69829125Y-25284850D01*
X69839547Y-25316302D01*
X69839551Y-25316311D01*
X69930052Y-25463034D01*
X69930055Y-25463038D01*
X70051961Y-25584944D01*
X70051965Y-25584947D01*
X70198688Y-25675448D01*
X70198699Y-25675453D01*
X70362347Y-25729680D01*
X70463351Y-25739999D01*
X70512499Y-25739998D01*
X70512500Y-25739998D01*
X70512500Y-23790000D01*
X71012500Y-23790000D01*
X71012500Y-25739999D01*
X71061640Y-25739999D01*
X71061654Y-25739998D01*
X71162652Y-25729680D01*
X71326300Y-25675453D01*
X71326311Y-25675448D01*
X71473034Y-25584947D01*
X71473038Y-25584944D01*
X71594943Y-25463039D01*
X71685389Y-25316405D01*
X71737337Y-25269680D01*
X71806300Y-25258459D01*
X71870382Y-25286302D01*
X71873135Y-25288669D01*
X71890760Y-25304283D01*
X71890762Y-25304284D01*
X72030634Y-25377696D01*
X72184014Y-25415500D01*
X72184015Y-25415500D01*
X72341985Y-25415500D01*
X72495365Y-25377696D01*
X72623220Y-25310591D01*
X72691727Y-25296866D01*
X72756780Y-25322358D01*
X72780108Y-25346072D01*
X72783884Y-25351116D01*
X72896222Y-25435212D01*
X72978296Y-25465824D01*
X73027700Y-25484251D01*
X73085809Y-25490499D01*
X73085826Y-25490500D01*
X73779174Y-25490500D01*
X73779190Y-25490499D01*
X73837299Y-25484251D01*
X73968778Y-25435212D01*
X74057945Y-25368462D01*
X74123409Y-25344044D01*
X74191682Y-25358895D01*
X74237794Y-25402630D01*
X74275054Y-25463037D01*
X74396961Y-25584944D01*
X74396965Y-25584947D01*
X74543688Y-25675448D01*
X74543699Y-25675453D01*
X74707347Y-25729680D01*
X74808351Y-25739999D01*
X75407500Y-25739999D01*
X75506640Y-25739999D01*
X75506654Y-25739998D01*
X75607652Y-25729680D01*
X75771300Y-25675453D01*
X75771311Y-25675448D01*
X75918034Y-25584947D01*
X75918038Y-25584944D01*
X76039944Y-25463038D01*
X76039947Y-25463034D01*
X76130448Y-25316311D01*
X76130453Y-25316300D01*
X76184680Y-25152652D01*
X76194999Y-25051654D01*
X76195000Y-25051641D01*
X76195000Y-25015000D01*
X75407500Y-25015000D01*
X75407500Y-25739999D01*
X74808351Y-25739999D01*
X74907500Y-25739998D01*
X74907500Y-24764999D01*
X85831722Y-24764999D01*
X85831722Y-24765000D01*
X85850762Y-24921818D01*
X85895965Y-25041007D01*
X85906780Y-25069523D01*
X85996517Y-25199530D01*
X86114760Y-25304283D01*
X86114762Y-25304284D01*
X86254634Y-25377696D01*
X86408014Y-25415500D01*
X86408015Y-25415500D01*
X86565985Y-25415500D01*
X86719365Y-25377696D01*
X86828195Y-25320576D01*
X86896701Y-25306851D01*
X86961755Y-25332343D01*
X86974579Y-25345378D01*
X86975113Y-25344845D01*
X86981381Y-25351113D01*
X86981382Y-25351114D01*
X86981384Y-25351116D01*
X87093722Y-25435212D01*
X87175796Y-25465824D01*
X87225200Y-25484251D01*
X87283309Y-25490499D01*
X87283326Y-25490500D01*
X87976674Y-25490500D01*
X87976690Y-25490499D01*
X88034799Y-25484251D01*
X88166278Y-25435212D01*
X88255445Y-25368462D01*
X88320909Y-25344044D01*
X88389182Y-25358895D01*
X88435294Y-25402630D01*
X88472554Y-25463037D01*
X88594461Y-25584944D01*
X88594465Y-25584947D01*
X88741188Y-25675448D01*
X88741199Y-25675453D01*
X88904847Y-25729680D01*
X89005851Y-25739999D01*
X89605000Y-25739999D01*
X89704140Y-25739999D01*
X89704154Y-25739998D01*
X89805152Y-25729680D01*
X89968800Y-25675453D01*
X89968811Y-25675448D01*
X90115534Y-25584947D01*
X90115538Y-25584944D01*
X90237444Y-25463038D01*
X90237447Y-25463034D01*
X90327948Y-25316311D01*
X90327953Y-25316300D01*
X90382180Y-25152652D01*
X90392499Y-25051654D01*
X90392500Y-25051641D01*
X90392500Y-25015000D01*
X89605000Y-25015000D01*
X89605000Y-25739999D01*
X89005851Y-25739999D01*
X89105000Y-25739998D01*
X89105000Y-24515000D01*
X89605000Y-24515000D01*
X90392499Y-24515000D01*
X90392499Y-24478360D01*
X90392498Y-24478345D01*
X90382180Y-24377347D01*
X90327953Y-24213699D01*
X90327948Y-24213688D01*
X90237447Y-24066965D01*
X90237444Y-24066961D01*
X90115538Y-23945055D01*
X90115534Y-23945052D01*
X89968811Y-23854551D01*
X89968800Y-23854546D01*
X89805152Y-23800319D01*
X89704154Y-23790000D01*
X89605000Y-23790000D01*
X89605000Y-24515000D01*
X89105000Y-24515000D01*
X89105000Y-23789999D01*
X89005860Y-23790000D01*
X89005844Y-23790001D01*
X88904847Y-23800319D01*
X88741199Y-23854546D01*
X88741188Y-23854551D01*
X88594465Y-23945052D01*
X88594461Y-23945055D01*
X88472554Y-24066962D01*
X88435294Y-24127370D01*
X88383345Y-24174094D01*
X88314383Y-24185315D01*
X88255445Y-24161538D01*
X88166282Y-24094790D01*
X88166279Y-24094789D01*
X88166278Y-24094788D01*
X88121984Y-24078267D01*
X88034799Y-24045748D01*
X87976690Y-24039500D01*
X87976674Y-24039500D01*
X87283326Y-24039500D01*
X87283309Y-24039500D01*
X87225200Y-24045748D01*
X87093719Y-24094789D01*
X86981383Y-24178885D01*
X86975110Y-24185158D01*
X86972965Y-24183013D01*
X86929144Y-24215811D01*
X86859452Y-24220790D01*
X86828194Y-24209422D01*
X86719365Y-24152303D01*
X86565986Y-24114500D01*
X86565985Y-24114500D01*
X86408015Y-24114500D01*
X86408014Y-24114500D01*
X86254634Y-24152303D01*
X86114762Y-24225715D01*
X85996516Y-24330471D01*
X85906781Y-24460475D01*
X85906780Y-24460476D01*
X85850762Y-24608181D01*
X85831722Y-24764999D01*
X74907500Y-24764999D01*
X74907500Y-24515000D01*
X75407500Y-24515000D01*
X76194999Y-24515000D01*
X76194999Y-24478360D01*
X76194998Y-24478345D01*
X76184680Y-24377347D01*
X76130453Y-24213699D01*
X76130448Y-24213688D01*
X76039947Y-24066965D01*
X76039944Y-24066961D01*
X75918038Y-23945055D01*
X75918034Y-23945052D01*
X75771311Y-23854551D01*
X75771300Y-23854546D01*
X75607652Y-23800319D01*
X75506654Y-23790000D01*
X75407500Y-23790000D01*
X75407500Y-24515000D01*
X74907500Y-24515000D01*
X74907500Y-23789999D01*
X74808360Y-23790000D01*
X74808344Y-23790001D01*
X74707347Y-23800319D01*
X74543699Y-23854546D01*
X74543688Y-23854551D01*
X74396965Y-23945052D01*
X74396961Y-23945055D01*
X74275054Y-24066962D01*
X74237794Y-24127370D01*
X74185845Y-24174094D01*
X74116883Y-24185315D01*
X74057945Y-24161538D01*
X73968782Y-24094790D01*
X73968779Y-24094789D01*
X73968778Y-24094788D01*
X73924484Y-24078267D01*
X73837299Y-24045748D01*
X73779190Y-24039500D01*
X73779174Y-24039500D01*
X73085826Y-24039500D01*
X73085809Y-24039500D01*
X73027700Y-24045748D01*
X72896219Y-24094789D01*
X72783883Y-24178885D01*
X72783882Y-24178886D01*
X72780110Y-24183925D01*
X72724175Y-24225794D01*
X72654483Y-24230776D01*
X72623219Y-24219407D01*
X72495365Y-24152303D01*
X72341986Y-24114500D01*
X72341985Y-24114500D01*
X72184015Y-24114500D01*
X72184014Y-24114500D01*
X72030634Y-24152303D01*
X71890761Y-24225715D01*
X71890759Y-24225716D01*
X71873152Y-24241315D01*
X71809919Y-24271034D01*
X71740655Y-24261849D01*
X71687353Y-24216675D01*
X71685390Y-24213594D01*
X71594947Y-24066965D01*
X71594944Y-24066961D01*
X71473038Y-23945055D01*
X71473034Y-23945052D01*
X71326311Y-23854551D01*
X71326300Y-23854546D01*
X71162652Y-23800319D01*
X71061654Y-23790000D01*
X71012500Y-23790000D01*
X70512500Y-23790000D01*
X70512499Y-23789999D01*
X70463361Y-23790000D01*
X70463343Y-23790001D01*
X70362347Y-23800319D01*
X70198699Y-23854546D01*
X70198688Y-23854551D01*
X70051965Y-23945052D01*
X70051961Y-23945055D01*
X69930055Y-24066961D01*
X69930052Y-24066965D01*
X69839551Y-24213688D01*
X69839545Y-24213703D01*
X69829124Y-24245150D01*
X69789351Y-24302594D01*
X69724835Y-24329416D01*
X69656059Y-24317100D01*
X69612153Y-24280455D01*
X69558977Y-24209422D01*
X69536116Y-24178884D01*
X69451442Y-24115497D01*
X69423780Y-24094789D01*
X69423778Y-24094788D01*
X69393535Y-24083508D01*
X69292299Y-24045748D01*
X69234190Y-24039500D01*
X69234174Y-24039500D01*
X68640826Y-24039500D01*
X68640809Y-24039500D01*
X68582700Y-24045748D01*
X68451219Y-24094789D01*
X68338884Y-24178884D01*
X68254789Y-24291219D01*
X68205748Y-24422700D01*
X68199500Y-24480809D01*
X68199500Y-25049190D01*
X68205748Y-25107299D01*
X68254789Y-25238780D01*
X68269521Y-25258459D01*
X68338884Y-25351116D01*
X68451222Y-25435212D01*
X68582701Y-25484251D01*
X68589970Y-25486962D01*
X68589073Y-25489366D01*
X68638949Y-25517752D01*
X68657123Y-25541873D01*
X68677035Y-25576362D01*
X68677037Y-25576364D01*
X69283181Y-26182508D01*
X69316666Y-26243831D01*
X69319500Y-26270189D01*
X69319500Y-26290500D01*
X69299815Y-26357539D01*
X69247011Y-26403294D01*
X69195500Y-26414500D01*
X68738482Y-26414500D01*
X68657519Y-26427323D01*
X68644696Y-26429354D01*
X68531658Y-26486950D01*
X68531657Y-26486951D01*
X68531652Y-26486954D01*
X68441954Y-26576652D01*
X68441951Y-26576657D01*
X68441950Y-26576658D01*
X68430653Y-26598829D01*
X68384352Y-26689698D01*
X68381129Y-26710053D01*
X68351199Y-26773187D01*
X68346337Y-26778335D01*
X63869537Y-31255136D01*
X63869533Y-31255142D01*
X63826682Y-31329361D01*
X63825257Y-31334679D01*
X63812583Y-31381981D01*
X63804500Y-31412148D01*
X63804500Y-31880960D01*
X63784815Y-31947999D01*
X63732011Y-31993754D01*
X63725294Y-31996586D01*
X63637374Y-32030646D01*
X63637359Y-32030653D01*
X63463960Y-32138017D01*
X63463958Y-32138019D01*
X63313237Y-32275418D01*
X63190327Y-32438178D01*
X63099422Y-32620739D01*
X63099417Y-32620752D01*
X63043602Y-32816917D01*
X63024785Y-33019999D01*
X63024785Y-33020000D01*
X63043602Y-33223082D01*
X63099417Y-33419247D01*
X63099422Y-33419260D01*
X63190327Y-33601821D01*
X63313237Y-33764581D01*
X63463958Y-33901980D01*
X63463960Y-33901982D01*
X63532932Y-33944687D01*
X63637363Y-34009348D01*
X63827544Y-34083024D01*
X63969332Y-34109528D01*
X64031612Y-34141196D01*
X64066885Y-34201509D01*
X64069642Y-34246363D01*
X64051253Y-34397819D01*
X64050988Y-34400000D01*
X64069257Y-34550464D01*
X64070483Y-34560553D01*
X64059023Y-34629477D01*
X64012119Y-34681263D01*
X63947387Y-34699500D01*
X57631778Y-34699500D01*
X57564739Y-34679815D01*
X57518984Y-34627011D01*
X57509040Y-34557853D01*
X57538065Y-34494297D01*
X57574151Y-34465704D01*
X57576275Y-34464588D01*
X57588290Y-34458283D01*
X57706533Y-34353530D01*
X57796270Y-34223523D01*
X57852287Y-34075818D01*
X57871328Y-33919000D01*
X57869262Y-33901980D01*
X57852287Y-33762181D01*
X57817084Y-33669359D01*
X57796270Y-33614477D01*
X57706533Y-33484470D01*
X57588290Y-33379717D01*
X57588289Y-33379716D01*
X57583323Y-33375317D01*
X57546196Y-33316127D01*
X57541550Y-33282501D01*
X57541550Y-32145321D01*
X60489500Y-32145321D01*
X60489500Y-33894678D01*
X60504032Y-33967735D01*
X60504033Y-33967739D01*
X60504034Y-33967740D01*
X60559399Y-34050601D01*
X60637854Y-34103022D01*
X60642260Y-34105966D01*
X60642264Y-34105967D01*
X60715321Y-34120499D01*
X60715324Y-34120500D01*
X60715326Y-34120500D01*
X62464676Y-34120500D01*
X62464677Y-34120499D01*
X62537740Y-34105966D01*
X62620601Y-34050601D01*
X62675966Y-33967740D01*
X62690500Y-33894674D01*
X62690500Y-32145326D01*
X62690500Y-32145323D01*
X62690499Y-32145321D01*
X62675967Y-32072264D01*
X62675966Y-32072260D01*
X62661528Y-32050652D01*
X62620601Y-31989399D01*
X62565235Y-31952405D01*
X62537739Y-31934033D01*
X62537735Y-31934032D01*
X62464677Y-31919500D01*
X62464674Y-31919500D01*
X60715326Y-31919500D01*
X60715323Y-31919500D01*
X60642264Y-31934032D01*
X60642260Y-31934033D01*
X60559399Y-31989399D01*
X60504033Y-32072260D01*
X60504032Y-32072264D01*
X60489500Y-32145321D01*
X57541550Y-32145321D01*
X57541550Y-25012139D01*
X57561235Y-24945100D01*
X57577869Y-24924458D01*
X59698508Y-22803819D01*
X59759831Y-22770334D01*
X59786189Y-22767500D01*
X94015811Y-22767500D01*
X94082850Y-22787185D01*
G37*
%TD.AperFunction*%
%TD*%
M02*
