M48
; DRILL file {KiCad 8.0.6-8.0.6-0~ubuntu24.04.1} date 2024-10-23T09:05:59-0700
; FORMAT={-:-/ absolute / inch / decimal}
; #@! TF.CreationDate,2024-10-23T09:05:59-07:00
; #@! TF.GenerationSoftware,Kicad,Pcbnew,8.0.6-8.0.6-0~ubuntu24.04.1
; #@! TF.FileFunction,Plated,1,2,PTH
FMAT,2
INCH
; #@! TA.AperFunction,Plated,PTH,ViaDrill
T1C0.0197
; #@! TA.AperFunction,Plated,PTH,ComponentDrill
T2C0.0394
%
G90
G05
T1
X1.9067Y-1.4667
X1.98Y-1.785
X2.06Y-1.63
X2.105Y-1.825
X2.11Y-2.25
X2.21Y-2.155
X2.2526Y-1.3354
X2.2555Y-1.5505
X2.288Y-1.652
X2.3Y-2.4855
X2.34Y-1.335
X2.34Y-1.507
X2.43Y-1.76
X2.51Y-1.555
X2.52Y-2.36
X2.52Y-2.5563
X2.5475Y-1.3543
X2.565Y-2.22
X2.59Y-2.36
X2.59Y-2.5091
X2.61Y-2.15
X2.665Y-2.36
X2.665Y-2.5327
X2.68Y-1.51
X2.71Y-2.1224
X2.71Y-2.2314
X2.73Y-2.5681
X2.74Y-2.365
X2.845Y-0.975
X2.985Y-2.125
X3.01Y-1.805
X3.0932Y-1.7868
X3.15Y-1.72
X3.1641Y-2.44
X3.225Y-1.515
X3.345Y-2.5081
X3.4Y-2.025
X3.405Y-0.975
X3.415Y-1.57
X3.56Y-1.5714
X3.685Y-0.935
X3.706Y-1.901
X3.725Y-1.64
X3.785Y-2.285
X3.855Y-2.1
X3.8663Y-1.795
T2
X1.7Y-0.8
X1.7Y-0.9
X1.7Y-1.0
X1.7Y-1.1
X1.7Y-1.2
X1.7Y-1.3
X1.7Y-1.4
X1.7Y-1.5
X1.7Y-1.6
X1.7Y-1.7
X1.7Y-1.8
X1.7Y-1.9
X1.7Y-2.0
X1.7Y-2.1
X1.7Y-2.2
X1.7Y-2.3
X1.7Y-2.4
X1.7Y-2.5
X1.7Y-2.6
X1.7Y-2.7
X1.8Y-0.8
X1.8Y-0.9
X1.8Y-1.0
X1.8Y-1.1
X1.8Y-1.2
X1.8Y-1.3
X1.8Y-1.4
X1.8Y-1.5
X1.8Y-1.6
X1.8Y-1.7
X1.8Y-1.8
X1.8Y-1.9
X1.8Y-2.0
X1.8Y-2.1
X1.8Y-2.2
X1.8Y-2.3
X1.8Y-2.4
X1.8Y-2.5
X1.8Y-2.6
X1.8Y-2.7
X1.95Y-1.15
X2.125Y-1.9252
X2.125Y-2.0252
X2.2Y-2.325
X2.3Y-2.325
X2.4Y-2.325
X2.4248Y-1.3
X2.5248Y-1.3
X2.625Y-1.9
X2.625Y-2.0
X2.725Y-1.625
X2.7974Y-1.8998
X2.7974Y-1.9998
X2.825Y-1.625
X3.4244Y-1.85
X3.425Y-1.7
X3.5244Y-1.85
X3.525Y-1.7
X3.6244Y-1.85
X3.625Y-1.7
X3.8Y-0.9748
X3.8Y-1.0748
X4.0Y-0.8008
X4.0Y-0.9008
X4.0Y-1.0008
X4.0Y-1.1008
X4.0Y-1.2008
X4.0Y-1.3008
X4.0Y-1.4008
X4.0Y-1.5008
X4.0Y-1.6008
X4.0Y-1.7008
X4.0Y-1.8008
X4.0Y-1.9008
X4.0Y-2.0008
X4.0Y-2.1008
X4.0Y-2.2008
X4.0Y-2.3008
X4.0Y-2.4008
X4.0Y-2.5008
X4.0Y-2.6008
X4.0Y-2.7008
X4.1Y-0.8008
X4.1Y-0.9008
X4.1Y-1.0008
X4.1Y-1.1008
X4.1Y-1.2008
X4.1Y-1.3008
X4.1Y-1.4008
X4.1Y-1.5008
X4.1Y-1.6008
X4.1Y-1.7008
X4.1Y-1.8008
X4.1Y-1.9008
X4.1Y-2.0008
X4.1Y-2.1008
X4.1Y-2.2008
X4.1Y-2.3008
X4.1Y-2.4008
X4.1Y-2.5008
X4.1Y-2.6008
X4.1Y-2.7008
M30
