%TF.GenerationSoftware,KiCad,Pcbnew,8.0.6-8.0.6-0~ubuntu24.04.1*%
%TF.CreationDate,2024-10-23T09:06:02-07:00*%
%TF.ProjectId,z80_sampler,7a38305f-7361-46d7-906c-65722e6b6963,1.0*%
%TF.SameCoordinates,Original*%
%TF.FileFunction,Copper,L2,Bot*%
%TF.FilePolarity,Positive*%
%FSLAX46Y46*%
G04 Gerber Fmt 4.6, Leading zero omitted, Abs format (unit mm)*
G04 Created by KiCad (PCBNEW 8.0.6-8.0.6-0~ubuntu24.04.1) date 2024-10-23 09:06:02*
%MOMM*%
%LPD*%
G01*
G04 APERTURE LIST*
%TA.AperFunction,ComponentPad*%
%ADD10R,1.700000X1.700000*%
%TD*%
%TA.AperFunction,ComponentPad*%
%ADD11O,1.700000X1.700000*%
%TD*%
%TA.AperFunction,ViaPad*%
%ADD12C,0.800000*%
%TD*%
%TA.AperFunction,Conductor*%
%ADD13C,2.000000*%
%TD*%
%TA.AperFunction,Conductor*%
%ADD14C,0.300000*%
%TD*%
%TA.AperFunction,Conductor*%
%ADD15C,1.000000*%
%TD*%
%TA.AperFunction,Conductor*%
%ADD16C,0.150000*%
%TD*%
G04 APERTURE END LIST*
D10*
%TO.P,JP8,1,A*%
%TO.N,Net-(JP8-A)*%
X96520000Y-24760000D03*
D11*
%TO.P,JP8,2,B*%
%TO.N,Net-(JP8-B)*%
X96520000Y-27300000D03*
%TD*%
D10*
%TO.P,CONN1,1,Pin_1*%
%TO.N,/A11*%
X45720000Y-20320000D03*
D11*
%TO.P,CONN1,2,Pin_2*%
%TO.N,/A10*%
X43180000Y-20320000D03*
%TO.P,CONN1,3,Pin_3*%
%TO.N,/A12*%
X45720000Y-22860000D03*
%TO.P,CONN1,4,Pin_4*%
%TO.N,/A9*%
X43180000Y-22860000D03*
%TO.P,CONN1,5,Pin_5*%
%TO.N,/A13*%
X45720000Y-25400000D03*
%TO.P,CONN1,6,Pin_6*%
%TO.N,/A8*%
X43180000Y-25400000D03*
%TO.P,CONN1,7,Pin_7*%
%TO.N,/A14*%
X45720000Y-27940000D03*
%TO.P,CONN1,8,Pin_8*%
%TO.N,/A7*%
X43180000Y-27940000D03*
%TO.P,CONN1,9,Pin_9*%
%TO.N,/A15*%
X45720000Y-30480000D03*
%TO.P,CONN1,10,Pin_10*%
%TO.N,/A6*%
X43180000Y-30480000D03*
%TO.P,CONN1,11,Pin_11*%
%TO.N,/CLK*%
X45720000Y-33020000D03*
%TO.P,CONN1,12,Pin_12*%
%TO.N,/A5*%
X43180000Y-33020000D03*
%TO.P,CONN1,13,Pin_13*%
%TO.N,/HOST_D4*%
X45720000Y-35560000D03*
%TO.P,CONN1,14,Pin_14*%
%TO.N,/A4*%
X43180000Y-35560000D03*
%TO.P,CONN1,15,Pin_15*%
%TO.N,/HOST_D3*%
X45720000Y-38100000D03*
%TO.P,CONN1,16,Pin_16*%
%TO.N,/A3*%
X43180000Y-38100000D03*
%TO.P,CONN1,17,Pin_17*%
%TO.N,/HOST_D5*%
X45720000Y-40640000D03*
%TO.P,CONN1,18,Pin_18*%
%TO.N,/A2*%
X43180000Y-40640000D03*
%TO.P,CONN1,19,Pin_19*%
%TO.N,/HOST_D6*%
X45720000Y-43180000D03*
%TO.P,CONN1,20,Pin_20*%
%TO.N,/A1*%
X43180000Y-43180000D03*
%TO.P,CONN1,21,Pin_21*%
%TO.N,VCC*%
X45720000Y-45720000D03*
%TO.P,CONN1,22,Pin_22*%
%TO.N,/A0*%
X43180000Y-45720000D03*
%TO.P,CONN1,23,Pin_23*%
%TO.N,/HOST_D2*%
X45720000Y-48260000D03*
%TO.P,CONN1,24,Pin_24*%
%TO.N,GND*%
X43180000Y-48260000D03*
%TO.P,CONN1,25,Pin_25*%
%TO.N,/HOST_D7*%
X45720000Y-50800000D03*
%TO.P,CONN1,26,Pin_26*%
%TO.N,/REFSH_N*%
X43180000Y-50800000D03*
%TO.P,CONN1,27,Pin_27*%
%TO.N,/HOST_D0*%
X45720000Y-53340000D03*
%TO.P,CONN1,28,Pin_28*%
%TO.N,/M1_N*%
X43180000Y-53340000D03*
%TO.P,CONN1,29,Pin_29*%
%TO.N,/HOST_D1*%
X45720000Y-55880000D03*
%TO.P,CONN1,30,Pin_30*%
%TO.N,/HOST_RESET_N*%
X43180000Y-55880000D03*
%TO.P,CONN1,31,Pin_31*%
%TO.N,/HOST_INT_N*%
X45720000Y-58420000D03*
%TO.P,CONN1,32,Pin_32*%
%TO.N,/HOST_BUSREQ_N*%
X43180000Y-58420000D03*
%TO.P,CONN1,33,Pin_33*%
%TO.N,/HOST_NMI_N*%
X45720000Y-60960000D03*
%TO.P,CONN1,34,Pin_34*%
%TO.N,/HOST_WAIT_N*%
X43180000Y-60960000D03*
%TO.P,CONN1,35,Pin_35*%
%TO.N,/HALT_N*%
X45720000Y-63500000D03*
%TO.P,CONN1,36,Pin_36*%
%TO.N,/BUSAK_N*%
X43180000Y-63500000D03*
%TO.P,CONN1,37,Pin_37*%
%TO.N,/MREQ_N*%
X45720000Y-66040000D03*
%TO.P,CONN1,38,Pin_38*%
%TO.N,/WR_N*%
X43180000Y-66040000D03*
%TO.P,CONN1,39,Pin_39*%
%TO.N,/IORQ_N*%
X45720000Y-68580000D03*
%TO.P,CONN1,40,Pin_40*%
%TO.N,/RD_N*%
X43180000Y-68580000D03*
%TD*%
D10*
%TO.P,JP2,1,A*%
%TO.N,Net-(JP2-A)*%
X92075000Y-43180000D03*
D11*
%TO.P,JP2,2,C*%
%TO.N,/WAIT_N*%
X89535000Y-43180000D03*
%TO.P,JP2,3,B*%
%TO.N,/HOST_WAIT_N*%
X86995000Y-43180000D03*
%TD*%
D10*
%TO.P,JP5,1,A*%
%TO.N,/RD_N*%
X66675000Y-48260000D03*
D11*
%TO.P,JP5,2,B*%
%TO.N,Net-(JP5-B)*%
X66675000Y-50800000D03*
%TD*%
D10*
%TO.P,JP1,1,A*%
%TO.N,Net-(JP1-A)*%
X53975000Y-51440000D03*
D11*
%TO.P,JP1,2,B*%
%TO.N,VCC*%
X53975000Y-48900000D03*
%TD*%
D10*
%TO.P,JP3,1,A*%
%TO.N,Net-(JP3-A)*%
X92060000Y-46990000D03*
D11*
%TO.P,JP3,2,C*%
%TO.N,/RESET_N*%
X89520000Y-46990000D03*
%TO.P,JP3,3,B*%
%TO.N,/HOST_RESET_N*%
X86980000Y-46990000D03*
%TD*%
D10*
%TO.P,JP7,1,A*%
%TO.N,Net-(JP7-A)*%
X61590000Y-33020000D03*
D11*
%TO.P,JP7,2,B*%
%TO.N,Net-(JP7-B)*%
X64130000Y-33020000D03*
%TD*%
D10*
%TO.P,CONN2,1,Pin_1*%
%TO.N,/A11*%
X101600000Y-20340000D03*
D11*
%TO.P,CONN2,2,Pin_2*%
%TO.N,/A10*%
X104140000Y-20340000D03*
%TO.P,CONN2,3,Pin_3*%
%TO.N,/A12*%
X101600000Y-22880000D03*
%TO.P,CONN2,4,Pin_4*%
%TO.N,/A9*%
X104140000Y-22880000D03*
%TO.P,CONN2,5,Pin_5*%
%TO.N,/A13*%
X101600000Y-25420000D03*
%TO.P,CONN2,6,Pin_6*%
%TO.N,/A8*%
X104140000Y-25420000D03*
%TO.P,CONN2,7,Pin_7*%
%TO.N,/A14*%
X101600000Y-27960000D03*
%TO.P,CONN2,8,Pin_8*%
%TO.N,/A7*%
X104140000Y-27960000D03*
%TO.P,CONN2,9,Pin_9*%
%TO.N,/A15*%
X101600000Y-30500000D03*
%TO.P,CONN2,10,Pin_10*%
%TO.N,/A6*%
X104140000Y-30500000D03*
%TO.P,CONN2,11,Pin_11*%
%TO.N,/CLK*%
X101600000Y-33040000D03*
%TO.P,CONN2,12,Pin_12*%
%TO.N,/A5*%
X104140000Y-33040000D03*
%TO.P,CONN2,13,Pin_13*%
%TO.N,/D4*%
X101600000Y-35580000D03*
%TO.P,CONN2,14,Pin_14*%
%TO.N,/A4*%
X104140000Y-35580000D03*
%TO.P,CONN2,15,Pin_15*%
%TO.N,/D3*%
X101600000Y-38120000D03*
%TO.P,CONN2,16,Pin_16*%
%TO.N,/A3*%
X104140000Y-38120000D03*
%TO.P,CONN2,17,Pin_17*%
%TO.N,/D5*%
X101600000Y-40660000D03*
%TO.P,CONN2,18,Pin_18*%
%TO.N,/A2*%
X104140000Y-40660000D03*
%TO.P,CONN2,19,Pin_19*%
%TO.N,/D6*%
X101600000Y-43200000D03*
%TO.P,CONN2,20,Pin_20*%
%TO.N,/A1*%
X104140000Y-43200000D03*
%TO.P,CONN2,21,Pin_21*%
%TO.N,VCC*%
X101600000Y-45740000D03*
%TO.P,CONN2,22,Pin_22*%
%TO.N,/A0*%
X104140000Y-45740000D03*
%TO.P,CONN2,23,Pin_23*%
%TO.N,/D2*%
X101600000Y-48280000D03*
%TO.P,CONN2,24,Pin_24*%
%TO.N,GND*%
X104140000Y-48280000D03*
%TO.P,CONN2,25,Pin_25*%
%TO.N,/D7*%
X101600000Y-50820000D03*
%TO.P,CONN2,26,Pin_26*%
%TO.N,/REFSH_N*%
X104140000Y-50820000D03*
%TO.P,CONN2,27,Pin_27*%
%TO.N,/D0*%
X101600000Y-53360000D03*
%TO.P,CONN2,28,Pin_28*%
%TO.N,/M1_N*%
X104140000Y-53360000D03*
%TO.P,CONN2,29,Pin_29*%
%TO.N,/D1*%
X101600000Y-55900000D03*
%TO.P,CONN2,30,Pin_30*%
%TO.N,/RESET_N*%
X104140000Y-55900000D03*
%TO.P,CONN2,31,Pin_31*%
%TO.N,/INT_N*%
X101600000Y-58440000D03*
%TO.P,CONN2,32,Pin_32*%
%TO.N,/BUSREQ_N*%
X104140000Y-58440000D03*
%TO.P,CONN2,33,Pin_33*%
%TO.N,/NMI_N*%
X101600000Y-60980000D03*
%TO.P,CONN2,34,Pin_34*%
%TO.N,/WAIT_N*%
X104140000Y-60980000D03*
%TO.P,CONN2,35,Pin_35*%
%TO.N,/HALT_N*%
X101600000Y-63520000D03*
%TO.P,CONN2,36,Pin_36*%
%TO.N,/BUSAK_N*%
X104140000Y-63520000D03*
%TO.P,CONN2,37,Pin_37*%
%TO.N,/MREQ_N*%
X101600000Y-66060000D03*
%TO.P,CONN2,38,Pin_38*%
%TO.N,/WR_N*%
X104140000Y-66060000D03*
%TO.P,CONN2,39,Pin_39*%
%TO.N,/IORQ_N*%
X101600000Y-68600000D03*
%TO.P,CONN2,40,Pin_40*%
%TO.N,/RD_N*%
X104140000Y-68600000D03*
%TD*%
D10*
%TO.P,JP6,1,A*%
%TO.N,/CLK_2X*%
X69215000Y-41275000D03*
D11*
%TO.P,JP6,2,B*%
%TO.N,Net-(JP6-B)*%
X71755000Y-41275000D03*
%TD*%
D10*
%TO.P,JP4,1,A*%
%TO.N,/RD_N*%
X71055000Y-48255000D03*
D11*
%TO.P,JP4,2,B*%
%TO.N,Net-(JP4-B)*%
X71055000Y-50795000D03*
%TD*%
D10*
%TO.P,TP1,1,1*%
%TO.N,/CLK*%
X49530000Y-29210000D03*
%TD*%
%TO.P,JP9,1,A*%
%TO.N,/CLK_N*%
X60960000Y-59055000D03*
D11*
%TO.P,JP9,2,C*%
%TO.N,Net-(JP9-C)*%
X58420000Y-59055000D03*
%TO.P,JP9,3,B*%
%TO.N,/CLK_2X*%
X55880000Y-59055000D03*
%TD*%
D12*
%TO.N,GND*%
X94615000Y-41656000D03*
X61722000Y-44704000D03*
X86360000Y-51435000D03*
X84963000Y-63707000D03*
X86487000Y-24765000D03*
X68072000Y-38354000D03*
X53467000Y-46355000D03*
X81915000Y-38481000D03*
X72263000Y-24765000D03*
X75819000Y-53975000D03*
X56134000Y-54737000D03*
X94133500Y-48286500D03*
X53594000Y-57150000D03*
X93599000Y-23749000D03*
X80367500Y-61976000D03*
X76454000Y-45847000D03*
%TO.N,VCC*%
X90424000Y-39914000D03*
X80010000Y-43688000D03*
X59436000Y-33909000D03*
X59436000Y-38279000D03*
X66294000Y-54610000D03*
X78567250Y-45384750D03*
X86741000Y-39878000D03*
X98205000Y-45593000D03*
X50292000Y-45339000D03*
X65151000Y-56388000D03*
%TO.N,/IORQ_N*%
X69596000Y-60071000D03*
X69342000Y-65231000D03*
%TO.N,/BUSAK_N*%
X65786000Y-59944000D03*
X65786000Y-63731000D03*
%TO.N,/MREQ_N*%
X67691000Y-59944000D03*
X67691000Y-64331000D03*
%TO.N,/CLK*%
X52324000Y-41402000D03*
X48431426Y-37255426D03*
%TO.N,/RD_N*%
X68834000Y-56678000D03*
X64008000Y-64931000D03*
X64008000Y-59944000D03*
X68834000Y-53910000D03*
%TO.N,Net-(JP5-B)*%
X64706266Y-34400000D03*
X63754000Y-39497000D03*
%TO.N,Net-(JP7-A)*%
X58115757Y-41960243D03*
%TO.N,Net-(U2-Q4)*%
X97917000Y-53340000D03*
X96139000Y-58039000D03*
%TO.N,Net-(JP8-A)*%
X57216050Y-33919000D03*
X57289834Y-39383800D03*
%TO.N,Net-(JP9-C)*%
X58420000Y-63131000D03*
%TD*%
D13*
%TO.N,VCC*%
X90388000Y-39878000D02*
X90424000Y-39914000D01*
D14*
X80010000Y-43942000D02*
X78567250Y-45384750D01*
X66294000Y-55245000D02*
X65151000Y-56388000D01*
D15*
X59436000Y-38279000D02*
X59436000Y-33909000D01*
D13*
X86741000Y-39878000D02*
X90388000Y-39878000D01*
D14*
X66294000Y-54610000D02*
X66294000Y-55245000D01*
D13*
X101600000Y-45740000D02*
X98352000Y-45740000D01*
D14*
X80010000Y-43688000D02*
X80010000Y-43942000D01*
X49911000Y-45720000D02*
X50292000Y-45339000D01*
X98352000Y-45740000D02*
X98205000Y-45593000D01*
D13*
X45720000Y-45720000D02*
X49911000Y-45720000D01*
D16*
%TO.N,/IORQ_N*%
X69342000Y-60325000D02*
X69596000Y-60071000D01*
X69342000Y-65231000D02*
X69342000Y-60325000D01*
%TO.N,/BUSAK_N*%
X65786000Y-63731000D02*
X65786000Y-59944000D01*
%TO.N,/MREQ_N*%
X67691000Y-64331000D02*
X67691000Y-59944000D01*
%TO.N,/CLK*%
X52324000Y-41402000D02*
X48431426Y-37509426D01*
X48431426Y-37509426D02*
X48431426Y-37255426D01*
%TO.N,/RD_N*%
X64008000Y-59944000D02*
X64008000Y-64931000D01*
X68834000Y-53910000D02*
X68834000Y-56678000D01*
%TO.N,Net-(JP5-B)*%
X64706266Y-34400000D02*
X64706266Y-38544734D01*
X64706266Y-38544734D02*
X63754000Y-39497000D01*
%TO.N,Net-(JP7-A)*%
X61590000Y-38486000D02*
X61590000Y-33020000D01*
X58115757Y-41960243D02*
X61590000Y-38486000D01*
%TO.N,Net-(U2-Q4)*%
X97917000Y-53340000D02*
X97917000Y-56261000D01*
X97917000Y-56261000D02*
X96139000Y-58039000D01*
%TO.N,Net-(JP8-A)*%
X57216050Y-39310016D02*
X57289834Y-39383800D01*
X57216050Y-33919000D02*
X57216050Y-39310016D01*
%TO.N,Net-(JP9-C)*%
X58420000Y-63131000D02*
X58420000Y-59055000D01*
%TD*%
%TA.AperFunction,Conductor*%
%TO.N,GND*%
G36*
X107392539Y-18300185D02*
G01*
X107438294Y-18352989D01*
X107449500Y-18404500D01*
X107449500Y-70495500D01*
X107429815Y-70562539D01*
X107377011Y-70608294D01*
X107325500Y-70619500D01*
X39994500Y-70619500D01*
X39927461Y-70599815D01*
X39881706Y-70547011D01*
X39870500Y-70495500D01*
X39870500Y-68579999D01*
X42074785Y-68579999D01*
X42074785Y-68580000D01*
X42093602Y-68783082D01*
X42149417Y-68979247D01*
X42149422Y-68979260D01*
X42240327Y-69161821D01*
X42363237Y-69324581D01*
X42513958Y-69461980D01*
X42513960Y-69461982D01*
X42613141Y-69523392D01*
X42687363Y-69569348D01*
X42877544Y-69643024D01*
X43078024Y-69680500D01*
X43078026Y-69680500D01*
X43281974Y-69680500D01*
X43281976Y-69680500D01*
X43482456Y-69643024D01*
X43672637Y-69569348D01*
X43846041Y-69461981D01*
X43996764Y-69324579D01*
X44119673Y-69161821D01*
X44210582Y-68979250D01*
X44266397Y-68783083D01*
X44285215Y-68580000D01*
X44285215Y-68579999D01*
X44614785Y-68579999D01*
X44614785Y-68580000D01*
X44633602Y-68783082D01*
X44689417Y-68979247D01*
X44689422Y-68979260D01*
X44780327Y-69161821D01*
X44903237Y-69324581D01*
X45053958Y-69461980D01*
X45053960Y-69461982D01*
X45153141Y-69523392D01*
X45227363Y-69569348D01*
X45417544Y-69643024D01*
X45618024Y-69680500D01*
X45618026Y-69680500D01*
X45821974Y-69680500D01*
X45821976Y-69680500D01*
X46022456Y-69643024D01*
X46212637Y-69569348D01*
X46386041Y-69461981D01*
X46536764Y-69324579D01*
X46659673Y-69161821D01*
X46750582Y-68979250D01*
X46806397Y-68783083D01*
X46823362Y-68599999D01*
X100494785Y-68599999D01*
X100494785Y-68600000D01*
X100513602Y-68803082D01*
X100569417Y-68999247D01*
X100569422Y-68999260D01*
X100660327Y-69181821D01*
X100783237Y-69344581D01*
X100933958Y-69481980D01*
X100933960Y-69481982D01*
X101033141Y-69543392D01*
X101107363Y-69589348D01*
X101297544Y-69663024D01*
X101498024Y-69700500D01*
X101498026Y-69700500D01*
X101701974Y-69700500D01*
X101701976Y-69700500D01*
X101902456Y-69663024D01*
X102092637Y-69589348D01*
X102266041Y-69481981D01*
X102416764Y-69344579D01*
X102539673Y-69181821D01*
X102630582Y-68999250D01*
X102686397Y-68803083D01*
X102705215Y-68600000D01*
X102705215Y-68599999D01*
X103034785Y-68599999D01*
X103034785Y-68600000D01*
X103053602Y-68803082D01*
X103109417Y-68999247D01*
X103109422Y-68999260D01*
X103200327Y-69181821D01*
X103323237Y-69344581D01*
X103473958Y-69481980D01*
X103473960Y-69481982D01*
X103573141Y-69543392D01*
X103647363Y-69589348D01*
X103837544Y-69663024D01*
X104038024Y-69700500D01*
X104038026Y-69700500D01*
X104241974Y-69700500D01*
X104241976Y-69700500D01*
X104442456Y-69663024D01*
X104632637Y-69589348D01*
X104806041Y-69481981D01*
X104956764Y-69344579D01*
X105079673Y-69181821D01*
X105170582Y-68999250D01*
X105226397Y-68803083D01*
X105245215Y-68600000D01*
X105226397Y-68396917D01*
X105170582Y-68200750D01*
X105160624Y-68180752D01*
X105126272Y-68111764D01*
X105079673Y-68018179D01*
X104956764Y-67855421D01*
X104956762Y-67855418D01*
X104806041Y-67718019D01*
X104806039Y-67718017D01*
X104632642Y-67610655D01*
X104632635Y-67610651D01*
X104537546Y-67573814D01*
X104442456Y-67536976D01*
X104241976Y-67499500D01*
X104038024Y-67499500D01*
X103837544Y-67536976D01*
X103837541Y-67536976D01*
X103837541Y-67536977D01*
X103647364Y-67610651D01*
X103647357Y-67610655D01*
X103473960Y-67718017D01*
X103473958Y-67718019D01*
X103323237Y-67855418D01*
X103200327Y-68018178D01*
X103109422Y-68200739D01*
X103109417Y-68200752D01*
X103053602Y-68396917D01*
X103034785Y-68599999D01*
X102705215Y-68599999D01*
X102686397Y-68396917D01*
X102630582Y-68200750D01*
X102620624Y-68180752D01*
X102586272Y-68111764D01*
X102539673Y-68018179D01*
X102416764Y-67855421D01*
X102416762Y-67855418D01*
X102266041Y-67718019D01*
X102266039Y-67718017D01*
X102092642Y-67610655D01*
X102092635Y-67610651D01*
X101997546Y-67573814D01*
X101902456Y-67536976D01*
X101701976Y-67499500D01*
X101498024Y-67499500D01*
X101297544Y-67536976D01*
X101297541Y-67536976D01*
X101297541Y-67536977D01*
X101107364Y-67610651D01*
X101107357Y-67610655D01*
X100933960Y-67718017D01*
X100933958Y-67718019D01*
X100783237Y-67855418D01*
X100660327Y-68018178D01*
X100569422Y-68200739D01*
X100569417Y-68200752D01*
X100513602Y-68396917D01*
X100494785Y-68599999D01*
X46823362Y-68599999D01*
X46825215Y-68580000D01*
X46806397Y-68376917D01*
X46750582Y-68180750D01*
X46659673Y-67998179D01*
X46536764Y-67835421D01*
X46536762Y-67835418D01*
X46386041Y-67698019D01*
X46386039Y-67698017D01*
X46212642Y-67590655D01*
X46212635Y-67590651D01*
X46074082Y-67536976D01*
X46022456Y-67516976D01*
X45821976Y-67479500D01*
X45618024Y-67479500D01*
X45417544Y-67516976D01*
X45417541Y-67516976D01*
X45417541Y-67516977D01*
X45227364Y-67590651D01*
X45227357Y-67590655D01*
X45053960Y-67698017D01*
X45053958Y-67698019D01*
X44903237Y-67835418D01*
X44780327Y-67998178D01*
X44689422Y-68180739D01*
X44689417Y-68180752D01*
X44633602Y-68376917D01*
X44614785Y-68579999D01*
X44285215Y-68579999D01*
X44266397Y-68376917D01*
X44210582Y-68180750D01*
X44119673Y-67998179D01*
X43996764Y-67835421D01*
X43996762Y-67835418D01*
X43846041Y-67698019D01*
X43846039Y-67698017D01*
X43672642Y-67590655D01*
X43672635Y-67590651D01*
X43534082Y-67536976D01*
X43482456Y-67516976D01*
X43281976Y-67479500D01*
X43078024Y-67479500D01*
X42877544Y-67516976D01*
X42877541Y-67516976D01*
X42877541Y-67516977D01*
X42687364Y-67590651D01*
X42687357Y-67590655D01*
X42513960Y-67698017D01*
X42513958Y-67698019D01*
X42363237Y-67835418D01*
X42240327Y-67998178D01*
X42149422Y-68180739D01*
X42149417Y-68180752D01*
X42093602Y-68376917D01*
X42074785Y-68579999D01*
X39870500Y-68579999D01*
X39870500Y-66039999D01*
X42074785Y-66039999D01*
X42074785Y-66040000D01*
X42093602Y-66243082D01*
X42149417Y-66439247D01*
X42149422Y-66439260D01*
X42240327Y-66621821D01*
X42363237Y-66784581D01*
X42513958Y-66921980D01*
X42513960Y-66921982D01*
X42613141Y-66983392D01*
X42687363Y-67029348D01*
X42877544Y-67103024D01*
X43078024Y-67140500D01*
X43078026Y-67140500D01*
X43281974Y-67140500D01*
X43281976Y-67140500D01*
X43482456Y-67103024D01*
X43672637Y-67029348D01*
X43846041Y-66921981D01*
X43996764Y-66784579D01*
X44119673Y-66621821D01*
X44210582Y-66439250D01*
X44266397Y-66243083D01*
X44285215Y-66040000D01*
X44285215Y-66039999D01*
X44614785Y-66039999D01*
X44614785Y-66040000D01*
X44633602Y-66243082D01*
X44689417Y-66439247D01*
X44689422Y-66439260D01*
X44780327Y-66621821D01*
X44903237Y-66784581D01*
X45053958Y-66921980D01*
X45053960Y-66921982D01*
X45153141Y-66983392D01*
X45227363Y-67029348D01*
X45417544Y-67103024D01*
X45618024Y-67140500D01*
X45618026Y-67140500D01*
X45821974Y-67140500D01*
X45821976Y-67140500D01*
X46022456Y-67103024D01*
X46212637Y-67029348D01*
X46386041Y-66921981D01*
X46536764Y-66784579D01*
X46659673Y-66621821D01*
X46750582Y-66439250D01*
X46806397Y-66243083D01*
X46823362Y-66059999D01*
X100494785Y-66059999D01*
X100494785Y-66060000D01*
X100513602Y-66263082D01*
X100569417Y-66459247D01*
X100569422Y-66459260D01*
X100660327Y-66641821D01*
X100783237Y-66804581D01*
X100933958Y-66941980D01*
X100933960Y-66941982D01*
X101033141Y-67003392D01*
X101107363Y-67049348D01*
X101297544Y-67123024D01*
X101498024Y-67160500D01*
X101498026Y-67160500D01*
X101701974Y-67160500D01*
X101701976Y-67160500D01*
X101902456Y-67123024D01*
X102092637Y-67049348D01*
X102266041Y-66941981D01*
X102416764Y-66804579D01*
X102539673Y-66641821D01*
X102630582Y-66459250D01*
X102686397Y-66263083D01*
X102705215Y-66060000D01*
X102705215Y-66059999D01*
X103034785Y-66059999D01*
X103034785Y-66060000D01*
X103053602Y-66263082D01*
X103109417Y-66459247D01*
X103109422Y-66459260D01*
X103200327Y-66641821D01*
X103323237Y-66804581D01*
X103473958Y-66941980D01*
X103473960Y-66941982D01*
X103573141Y-67003392D01*
X103647363Y-67049348D01*
X103837544Y-67123024D01*
X104038024Y-67160500D01*
X104038026Y-67160500D01*
X104241974Y-67160500D01*
X104241976Y-67160500D01*
X104442456Y-67123024D01*
X104632637Y-67049348D01*
X104806041Y-66941981D01*
X104956764Y-66804579D01*
X105079673Y-66641821D01*
X105170582Y-66459250D01*
X105226397Y-66263083D01*
X105245215Y-66060000D01*
X105226397Y-65856917D01*
X105170582Y-65660750D01*
X105160624Y-65640752D01*
X105108227Y-65535523D01*
X105079673Y-65478179D01*
X104956764Y-65315421D01*
X104956762Y-65315418D01*
X104806041Y-65178019D01*
X104806039Y-65178017D01*
X104632642Y-65070655D01*
X104632635Y-65070651D01*
X104537546Y-65033814D01*
X104442456Y-64996976D01*
X104241976Y-64959500D01*
X104038024Y-64959500D01*
X103837544Y-64996976D01*
X103837541Y-64996976D01*
X103837541Y-64996977D01*
X103647364Y-65070651D01*
X103647357Y-65070655D01*
X103473960Y-65178017D01*
X103473958Y-65178019D01*
X103323237Y-65315418D01*
X103200327Y-65478178D01*
X103109422Y-65660739D01*
X103109417Y-65660752D01*
X103053602Y-65856917D01*
X103034785Y-66059999D01*
X102705215Y-66059999D01*
X102686397Y-65856917D01*
X102630582Y-65660750D01*
X102620624Y-65640752D01*
X102568227Y-65535523D01*
X102539673Y-65478179D01*
X102416764Y-65315421D01*
X102416762Y-65315418D01*
X102266041Y-65178019D01*
X102266039Y-65178017D01*
X102092642Y-65070655D01*
X102092635Y-65070651D01*
X101997546Y-65033814D01*
X101902456Y-64996976D01*
X101701976Y-64959500D01*
X101498024Y-64959500D01*
X101297544Y-64996976D01*
X101297541Y-64996976D01*
X101297541Y-64996977D01*
X101107364Y-65070651D01*
X101107357Y-65070655D01*
X100933960Y-65178017D01*
X100933958Y-65178019D01*
X100783237Y-65315418D01*
X100660327Y-65478178D01*
X100569422Y-65660739D01*
X100569417Y-65660752D01*
X100513602Y-65856917D01*
X100494785Y-66059999D01*
X46823362Y-66059999D01*
X46825215Y-66040000D01*
X46806397Y-65836917D01*
X46750582Y-65640750D01*
X46659673Y-65458179D01*
X46536764Y-65295421D01*
X46536762Y-65295418D01*
X46386041Y-65158019D01*
X46386039Y-65158017D01*
X46212642Y-65050655D01*
X46212635Y-65050651D01*
X46074082Y-64996976D01*
X46022456Y-64976976D01*
X45821976Y-64939500D01*
X45618024Y-64939500D01*
X45417544Y-64976976D01*
X45417541Y-64976976D01*
X45417541Y-64976977D01*
X45227364Y-65050651D01*
X45227357Y-65050655D01*
X45053960Y-65158017D01*
X45053958Y-65158019D01*
X44903237Y-65295418D01*
X44780327Y-65458178D01*
X44689422Y-65640739D01*
X44689417Y-65640752D01*
X44633602Y-65836917D01*
X44614785Y-66039999D01*
X44285215Y-66039999D01*
X44266397Y-65836917D01*
X44210582Y-65640750D01*
X44119673Y-65458179D01*
X43996764Y-65295421D01*
X43996762Y-65295418D01*
X43846041Y-65158019D01*
X43846039Y-65158017D01*
X43672642Y-65050655D01*
X43672635Y-65050651D01*
X43534082Y-64996976D01*
X43482456Y-64976976D01*
X43281976Y-64939500D01*
X43078024Y-64939500D01*
X42877544Y-64976976D01*
X42877541Y-64976976D01*
X42877541Y-64976977D01*
X42687364Y-65050651D01*
X42687357Y-65050655D01*
X42513960Y-65158017D01*
X42513958Y-65158019D01*
X42363237Y-65295418D01*
X42240327Y-65458178D01*
X42149422Y-65640739D01*
X42149417Y-65640752D01*
X42093602Y-65836917D01*
X42074785Y-66039999D01*
X39870500Y-66039999D01*
X39870500Y-63499999D01*
X42074785Y-63499999D01*
X42074785Y-63500000D01*
X42093602Y-63703082D01*
X42149417Y-63899247D01*
X42149422Y-63899260D01*
X42240327Y-64081821D01*
X42363237Y-64244581D01*
X42513958Y-64381980D01*
X42513960Y-64381982D01*
X42613141Y-64443392D01*
X42687363Y-64489348D01*
X42877544Y-64563024D01*
X43078024Y-64600500D01*
X43078026Y-64600500D01*
X43281974Y-64600500D01*
X43281976Y-64600500D01*
X43482456Y-64563024D01*
X43672637Y-64489348D01*
X43846041Y-64381981D01*
X43996764Y-64244579D01*
X44119673Y-64081821D01*
X44210582Y-63899250D01*
X44266397Y-63703083D01*
X44285215Y-63500000D01*
X44285215Y-63499999D01*
X44614785Y-63499999D01*
X44614785Y-63500000D01*
X44633602Y-63703082D01*
X44689417Y-63899247D01*
X44689422Y-63899260D01*
X44780327Y-64081821D01*
X44903237Y-64244581D01*
X45053958Y-64381980D01*
X45053960Y-64381982D01*
X45153141Y-64443392D01*
X45227363Y-64489348D01*
X45417544Y-64563024D01*
X45618024Y-64600500D01*
X45618026Y-64600500D01*
X45821974Y-64600500D01*
X45821976Y-64600500D01*
X46022456Y-64563024D01*
X46212637Y-64489348D01*
X46386041Y-64381981D01*
X46536764Y-64244579D01*
X46659673Y-64081821D01*
X46750582Y-63899250D01*
X46806397Y-63703083D01*
X46825215Y-63500000D01*
X46819240Y-63435523D01*
X46806397Y-63296917D01*
X46803808Y-63287818D01*
X46750582Y-63100750D01*
X46747470Y-63094501D01*
X46687559Y-62974182D01*
X46659673Y-62918179D01*
X46536764Y-62755421D01*
X46536762Y-62755418D01*
X46386041Y-62618019D01*
X46386039Y-62618017D01*
X46212642Y-62510655D01*
X46212635Y-62510651D01*
X46074082Y-62456976D01*
X46022456Y-62436976D01*
X45821976Y-62399500D01*
X45618024Y-62399500D01*
X45417544Y-62436976D01*
X45417541Y-62436976D01*
X45417541Y-62436977D01*
X45227364Y-62510651D01*
X45227357Y-62510655D01*
X45053960Y-62618017D01*
X45053958Y-62618019D01*
X44903237Y-62755418D01*
X44780327Y-62918178D01*
X44689422Y-63100739D01*
X44689417Y-63100752D01*
X44633602Y-63296917D01*
X44614785Y-63499999D01*
X44285215Y-63499999D01*
X44279240Y-63435523D01*
X44266397Y-63296917D01*
X44263808Y-63287818D01*
X44210582Y-63100750D01*
X44207470Y-63094501D01*
X44147559Y-62974182D01*
X44119673Y-62918179D01*
X43996764Y-62755421D01*
X43996762Y-62755418D01*
X43846041Y-62618019D01*
X43846039Y-62618017D01*
X43672642Y-62510655D01*
X43672635Y-62510651D01*
X43534082Y-62456976D01*
X43482456Y-62436976D01*
X43281976Y-62399500D01*
X43078024Y-62399500D01*
X42877544Y-62436976D01*
X42877541Y-62436976D01*
X42877541Y-62436977D01*
X42687364Y-62510651D01*
X42687357Y-62510655D01*
X42513960Y-62618017D01*
X42513958Y-62618019D01*
X42363237Y-62755418D01*
X42240327Y-62918178D01*
X42149422Y-63100739D01*
X42149417Y-63100752D01*
X42093602Y-63296917D01*
X42074785Y-63499999D01*
X39870500Y-63499999D01*
X39870500Y-60959999D01*
X42074785Y-60959999D01*
X42074785Y-60960000D01*
X42093602Y-61163082D01*
X42149417Y-61359247D01*
X42149422Y-61359260D01*
X42240327Y-61541821D01*
X42363237Y-61704581D01*
X42513958Y-61841980D01*
X42513960Y-61841982D01*
X42613141Y-61903392D01*
X42687363Y-61949348D01*
X42877544Y-62023024D01*
X43078024Y-62060500D01*
X43078026Y-62060500D01*
X43281974Y-62060500D01*
X43281976Y-62060500D01*
X43482456Y-62023024D01*
X43672637Y-61949348D01*
X43846041Y-61841981D01*
X43996764Y-61704579D01*
X44119673Y-61541821D01*
X44210582Y-61359250D01*
X44266397Y-61163083D01*
X44285215Y-60960000D01*
X44285215Y-60959999D01*
X44614785Y-60959999D01*
X44614785Y-60960000D01*
X44633602Y-61163082D01*
X44689417Y-61359247D01*
X44689422Y-61359260D01*
X44780327Y-61541821D01*
X44903237Y-61704581D01*
X45053958Y-61841980D01*
X45053960Y-61841982D01*
X45153141Y-61903392D01*
X45227363Y-61949348D01*
X45417544Y-62023024D01*
X45618024Y-62060500D01*
X45618026Y-62060500D01*
X45821974Y-62060500D01*
X45821976Y-62060500D01*
X46022456Y-62023024D01*
X46212637Y-61949348D01*
X46386041Y-61841981D01*
X46536764Y-61704579D01*
X46659673Y-61541821D01*
X46750582Y-61359250D01*
X46806397Y-61163083D01*
X46825215Y-60960000D01*
X46806397Y-60756917D01*
X46750582Y-60560750D01*
X46659673Y-60378179D01*
X46561762Y-60248524D01*
X46536762Y-60215418D01*
X46386041Y-60078019D01*
X46386039Y-60078017D01*
X46212642Y-59970655D01*
X46212635Y-59970651D01*
X46066870Y-59914182D01*
X46022456Y-59896976D01*
X45821976Y-59859500D01*
X45618024Y-59859500D01*
X45417544Y-59896976D01*
X45417541Y-59896976D01*
X45417541Y-59896977D01*
X45227364Y-59970651D01*
X45227357Y-59970655D01*
X45053960Y-60078017D01*
X45053958Y-60078019D01*
X44903237Y-60215418D01*
X44780327Y-60378178D01*
X44689422Y-60560739D01*
X44689417Y-60560752D01*
X44633602Y-60756917D01*
X44614785Y-60959999D01*
X44285215Y-60959999D01*
X44266397Y-60756917D01*
X44210582Y-60560750D01*
X44119673Y-60378179D01*
X44021762Y-60248524D01*
X43996762Y-60215418D01*
X43846041Y-60078019D01*
X43846039Y-60078017D01*
X43672642Y-59970655D01*
X43672635Y-59970651D01*
X43526870Y-59914182D01*
X43482456Y-59896976D01*
X43281976Y-59859500D01*
X43078024Y-59859500D01*
X42877544Y-59896976D01*
X42877541Y-59896976D01*
X42877541Y-59896977D01*
X42687364Y-59970651D01*
X42687357Y-59970655D01*
X42513960Y-60078017D01*
X42513958Y-60078019D01*
X42363237Y-60215418D01*
X42240327Y-60378178D01*
X42149422Y-60560739D01*
X42149417Y-60560752D01*
X42093602Y-60756917D01*
X42074785Y-60959999D01*
X39870500Y-60959999D01*
X39870500Y-58419999D01*
X42074785Y-58419999D01*
X42074785Y-58420000D01*
X42093602Y-58623082D01*
X42149417Y-58819247D01*
X42149422Y-58819260D01*
X42240327Y-59001821D01*
X42363237Y-59164581D01*
X42513958Y-59301980D01*
X42513960Y-59301982D01*
X42561317Y-59331304D01*
X42687363Y-59409348D01*
X42877544Y-59483024D01*
X43078024Y-59520500D01*
X43078026Y-59520500D01*
X43281974Y-59520500D01*
X43281976Y-59520500D01*
X43482456Y-59483024D01*
X43672637Y-59409348D01*
X43846041Y-59301981D01*
X43996764Y-59164579D01*
X44119673Y-59001821D01*
X44210582Y-58819250D01*
X44266397Y-58623083D01*
X44285215Y-58420000D01*
X44285215Y-58419999D01*
X44614785Y-58419999D01*
X44614785Y-58420000D01*
X44633602Y-58623082D01*
X44689417Y-58819247D01*
X44689422Y-58819260D01*
X44780327Y-59001821D01*
X44903237Y-59164581D01*
X45053958Y-59301980D01*
X45053960Y-59301982D01*
X45101317Y-59331304D01*
X45227363Y-59409348D01*
X45417544Y-59483024D01*
X45618024Y-59520500D01*
X45618026Y-59520500D01*
X45821974Y-59520500D01*
X45821976Y-59520500D01*
X46022456Y-59483024D01*
X46212637Y-59409348D01*
X46386041Y-59301981D01*
X46536764Y-59164579D01*
X46619515Y-59054999D01*
X54774785Y-59054999D01*
X54774785Y-59055000D01*
X54793602Y-59258082D01*
X54849417Y-59454247D01*
X54849422Y-59454260D01*
X54940327Y-59636821D01*
X55063237Y-59799581D01*
X55213958Y-59936980D01*
X55213960Y-59936982D01*
X55268344Y-59970655D01*
X55387363Y-60044348D01*
X55577544Y-60118024D01*
X55778024Y-60155500D01*
X55778026Y-60155500D01*
X55981974Y-60155500D01*
X55981976Y-60155500D01*
X56182456Y-60118024D01*
X56372637Y-60044348D01*
X56546041Y-59936981D01*
X56696764Y-59799579D01*
X56819673Y-59636821D01*
X56910582Y-59454250D01*
X56966397Y-59258083D01*
X56985215Y-59055000D01*
X56985215Y-59054999D01*
X57314785Y-59054999D01*
X57314785Y-59055000D01*
X57333602Y-59258082D01*
X57389417Y-59454247D01*
X57389422Y-59454260D01*
X57480327Y-59636821D01*
X57603237Y-59799581D01*
X57753958Y-59936980D01*
X57753960Y-59936982D01*
X57808344Y-59970655D01*
X57927363Y-60044348D01*
X58015294Y-60078412D01*
X58070695Y-60120983D01*
X58094286Y-60186750D01*
X58094500Y-60194038D01*
X58094500Y-62494501D01*
X58074815Y-62561540D01*
X58052727Y-62587317D01*
X58047760Y-62591716D01*
X58047760Y-62591717D01*
X57929517Y-62696470D01*
X57929516Y-62696471D01*
X57839781Y-62826475D01*
X57839780Y-62826476D01*
X57783762Y-62974181D01*
X57764722Y-63130999D01*
X57764722Y-63131000D01*
X57783762Y-63287818D01*
X57836349Y-63426476D01*
X57839780Y-63435523D01*
X57929517Y-63565530D01*
X58047760Y-63670283D01*
X58047762Y-63670284D01*
X58187634Y-63743696D01*
X58341014Y-63781500D01*
X58341015Y-63781500D01*
X58498985Y-63781500D01*
X58652365Y-63743696D01*
X58691641Y-63723082D01*
X58792240Y-63670283D01*
X58910483Y-63565530D01*
X59000220Y-63435523D01*
X59056237Y-63287818D01*
X59075278Y-63131000D01*
X59074034Y-63120750D01*
X59056237Y-62974181D01*
X59034992Y-62918164D01*
X59000220Y-62826477D01*
X58910483Y-62696470D01*
X58792240Y-62591717D01*
X58792239Y-62591716D01*
X58787273Y-62587317D01*
X58750146Y-62528127D01*
X58745500Y-62494501D01*
X58745500Y-60194038D01*
X58765185Y-60126999D01*
X58817989Y-60081244D01*
X58824688Y-60078418D01*
X58912637Y-60044348D01*
X59086041Y-59936981D01*
X59236764Y-59799579D01*
X59359673Y-59636821D01*
X59450582Y-59454250D01*
X59506397Y-59258083D01*
X59525215Y-59055000D01*
X59506397Y-58851917D01*
X59450582Y-58655750D01*
X59448563Y-58651696D01*
X59406272Y-58566764D01*
X59359673Y-58473179D01*
X59261762Y-58343524D01*
X59236762Y-58310418D01*
X59094051Y-58180321D01*
X59859500Y-58180321D01*
X59859500Y-59929678D01*
X59874032Y-60002735D01*
X59874033Y-60002739D01*
X59874034Y-60002740D01*
X59929399Y-60085601D01*
X59982353Y-60120983D01*
X60012260Y-60140966D01*
X60012264Y-60140967D01*
X60085321Y-60155499D01*
X60085324Y-60155500D01*
X60085326Y-60155500D01*
X61834676Y-60155500D01*
X61834677Y-60155499D01*
X61907740Y-60140966D01*
X61990601Y-60085601D01*
X62045966Y-60002740D01*
X62057651Y-59943999D01*
X63352722Y-59943999D01*
X63352722Y-59944000D01*
X63371762Y-60100818D01*
X63427780Y-60248523D01*
X63427781Y-60248524D01*
X63517517Y-60378531D01*
X63567940Y-60423200D01*
X63635760Y-60483283D01*
X63635763Y-60483284D01*
X63640726Y-60487681D01*
X63677853Y-60546870D01*
X63682500Y-60580497D01*
X63682500Y-64294501D01*
X63662815Y-64361540D01*
X63640727Y-64387317D01*
X63635760Y-64391716D01*
X63635760Y-64391717D01*
X63624173Y-64401982D01*
X63517516Y-64496471D01*
X63427781Y-64626475D01*
X63427780Y-64626476D01*
X63371762Y-64774181D01*
X63352722Y-64930999D01*
X63352722Y-64931000D01*
X63371762Y-65087818D01*
X63426064Y-65230999D01*
X63427780Y-65235523D01*
X63517517Y-65365530D01*
X63635760Y-65470283D01*
X63635762Y-65470284D01*
X63775634Y-65543696D01*
X63929014Y-65581500D01*
X63929015Y-65581500D01*
X64086985Y-65581500D01*
X64240365Y-65543696D01*
X64255937Y-65535523D01*
X64380240Y-65470283D01*
X64498483Y-65365530D01*
X64588220Y-65235523D01*
X64589936Y-65230999D01*
X68686722Y-65230999D01*
X68686722Y-65231000D01*
X68705762Y-65387818D01*
X68737038Y-65470284D01*
X68761780Y-65535523D01*
X68851517Y-65665530D01*
X68969760Y-65770283D01*
X68969762Y-65770284D01*
X69109634Y-65843696D01*
X69263014Y-65881500D01*
X69263015Y-65881500D01*
X69420985Y-65881500D01*
X69574365Y-65843696D01*
X69587281Y-65836917D01*
X69714240Y-65770283D01*
X69832483Y-65665530D01*
X69922220Y-65535523D01*
X69978237Y-65387818D01*
X69997278Y-65231000D01*
X69978237Y-65074182D01*
X69976899Y-65070655D01*
X69941372Y-64976977D01*
X69922220Y-64926477D01*
X69832483Y-64796470D01*
X69714240Y-64691717D01*
X69714239Y-64691716D01*
X69709273Y-64687317D01*
X69672146Y-64628127D01*
X69667500Y-64594501D01*
X69667500Y-63519999D01*
X100494785Y-63519999D01*
X100494785Y-63520000D01*
X100513602Y-63723082D01*
X100569417Y-63919247D01*
X100569422Y-63919260D01*
X100660327Y-64101821D01*
X100783237Y-64264581D01*
X100933958Y-64401980D01*
X100933960Y-64401982D01*
X101033141Y-64463392D01*
X101107363Y-64509348D01*
X101297544Y-64583024D01*
X101498024Y-64620500D01*
X101498026Y-64620500D01*
X101701974Y-64620500D01*
X101701976Y-64620500D01*
X101902456Y-64583024D01*
X102092637Y-64509348D01*
X102266041Y-64401981D01*
X102416764Y-64264579D01*
X102539673Y-64101821D01*
X102630582Y-63919250D01*
X102686397Y-63723083D01*
X102705215Y-63520000D01*
X102705215Y-63519999D01*
X103034785Y-63519999D01*
X103034785Y-63520000D01*
X103053602Y-63723082D01*
X103109417Y-63919247D01*
X103109422Y-63919260D01*
X103200327Y-64101821D01*
X103323237Y-64264581D01*
X103473958Y-64401980D01*
X103473960Y-64401982D01*
X103573141Y-64463392D01*
X103647363Y-64509348D01*
X103837544Y-64583024D01*
X104038024Y-64620500D01*
X104038026Y-64620500D01*
X104241974Y-64620500D01*
X104241976Y-64620500D01*
X104442456Y-64583024D01*
X104632637Y-64509348D01*
X104806041Y-64401981D01*
X104956764Y-64264579D01*
X105079673Y-64101821D01*
X105170582Y-63919250D01*
X105226397Y-63723083D01*
X105245215Y-63520000D01*
X105226397Y-63316917D01*
X105170582Y-63120750D01*
X105160624Y-63100752D01*
X105097600Y-62974182D01*
X105079673Y-62938179D01*
X104956764Y-62775421D01*
X104956762Y-62775418D01*
X104806041Y-62638019D01*
X104806039Y-62638017D01*
X104632642Y-62530655D01*
X104632635Y-62530651D01*
X104537546Y-62493814D01*
X104442456Y-62456976D01*
X104241976Y-62419500D01*
X104038024Y-62419500D01*
X103837544Y-62456976D01*
X103837541Y-62456976D01*
X103837541Y-62456977D01*
X103647364Y-62530651D01*
X103647357Y-62530655D01*
X103473960Y-62638017D01*
X103473958Y-62638019D01*
X103323237Y-62775418D01*
X103200327Y-62938178D01*
X103109422Y-63120739D01*
X103109417Y-63120752D01*
X103053602Y-63316917D01*
X103034785Y-63519999D01*
X102705215Y-63519999D01*
X102686397Y-63316917D01*
X102630582Y-63120750D01*
X102620624Y-63100752D01*
X102557600Y-62974182D01*
X102539673Y-62938179D01*
X102416764Y-62775421D01*
X102416762Y-62775418D01*
X102266041Y-62638019D01*
X102266039Y-62638017D01*
X102092642Y-62530655D01*
X102092635Y-62530651D01*
X101997546Y-62493814D01*
X101902456Y-62456976D01*
X101701976Y-62419500D01*
X101498024Y-62419500D01*
X101297544Y-62456976D01*
X101297541Y-62456976D01*
X101297541Y-62456977D01*
X101107364Y-62530651D01*
X101107357Y-62530655D01*
X100933960Y-62638017D01*
X100933958Y-62638019D01*
X100783237Y-62775418D01*
X100660327Y-62938178D01*
X100569422Y-63120739D01*
X100569417Y-63120752D01*
X100513602Y-63316917D01*
X100494785Y-63519999D01*
X69667500Y-63519999D01*
X69667500Y-60979999D01*
X100494785Y-60979999D01*
X100494785Y-60980000D01*
X100513602Y-61183082D01*
X100569417Y-61379247D01*
X100569422Y-61379260D01*
X100660327Y-61561821D01*
X100783237Y-61724581D01*
X100933958Y-61861980D01*
X100933960Y-61861982D01*
X101033141Y-61923392D01*
X101107363Y-61969348D01*
X101297544Y-62043024D01*
X101498024Y-62080500D01*
X101498026Y-62080500D01*
X101701974Y-62080500D01*
X101701976Y-62080500D01*
X101902456Y-62043024D01*
X102092637Y-61969348D01*
X102266041Y-61861981D01*
X102416764Y-61724579D01*
X102539673Y-61561821D01*
X102630582Y-61379250D01*
X102686397Y-61183083D01*
X102705215Y-60980000D01*
X102705215Y-60979999D01*
X103034785Y-60979999D01*
X103034785Y-60980000D01*
X103053602Y-61183082D01*
X103109417Y-61379247D01*
X103109422Y-61379260D01*
X103200327Y-61561821D01*
X103323237Y-61724581D01*
X103473958Y-61861980D01*
X103473960Y-61861982D01*
X103573141Y-61923392D01*
X103647363Y-61969348D01*
X103837544Y-62043024D01*
X104038024Y-62080500D01*
X104038026Y-62080500D01*
X104241974Y-62080500D01*
X104241976Y-62080500D01*
X104442456Y-62043024D01*
X104632637Y-61969348D01*
X104806041Y-61861981D01*
X104956764Y-61724579D01*
X105079673Y-61561821D01*
X105170582Y-61379250D01*
X105226397Y-61183083D01*
X105245215Y-60980000D01*
X105226397Y-60776917D01*
X105170582Y-60580750D01*
X105160624Y-60560752D01*
X105122049Y-60483283D01*
X105079673Y-60398179D01*
X104956764Y-60235421D01*
X104956762Y-60235418D01*
X104806041Y-60098019D01*
X104806039Y-60098017D01*
X104632642Y-59990655D01*
X104632635Y-59990651D01*
X104494095Y-59936981D01*
X104442456Y-59916976D01*
X104241976Y-59879500D01*
X104038024Y-59879500D01*
X103837544Y-59916976D01*
X103837541Y-59916976D01*
X103837541Y-59916977D01*
X103647364Y-59990651D01*
X103647357Y-59990655D01*
X103473960Y-60098017D01*
X103473958Y-60098019D01*
X103323237Y-60235418D01*
X103200327Y-60398178D01*
X103109422Y-60580739D01*
X103109417Y-60580752D01*
X103053602Y-60776917D01*
X103034785Y-60979999D01*
X102705215Y-60979999D01*
X102686397Y-60776917D01*
X102630582Y-60580750D01*
X102620624Y-60560752D01*
X102582049Y-60483283D01*
X102539673Y-60398179D01*
X102416764Y-60235421D01*
X102416762Y-60235418D01*
X102266041Y-60098019D01*
X102266039Y-60098017D01*
X102092642Y-59990655D01*
X102092635Y-59990651D01*
X101954095Y-59936981D01*
X101902456Y-59916976D01*
X101701976Y-59879500D01*
X101498024Y-59879500D01*
X101297544Y-59916976D01*
X101297541Y-59916976D01*
X101297541Y-59916977D01*
X101107364Y-59990651D01*
X101107357Y-59990655D01*
X100933960Y-60098017D01*
X100933958Y-60098019D01*
X100783237Y-60235418D01*
X100660327Y-60398178D01*
X100569422Y-60580739D01*
X100569417Y-60580752D01*
X100513602Y-60776917D01*
X100494785Y-60979999D01*
X69667500Y-60979999D01*
X69667500Y-60820493D01*
X69687185Y-60753454D01*
X69739989Y-60707699D01*
X69761826Y-60700096D01*
X69828365Y-60683696D01*
X69968240Y-60610283D01*
X70086483Y-60505530D01*
X70176220Y-60375523D01*
X70232237Y-60227818D01*
X70251278Y-60071000D01*
X70248042Y-60044344D01*
X70232237Y-59914181D01*
X70210992Y-59858164D01*
X70176220Y-59766477D01*
X70086483Y-59636470D01*
X69968240Y-59531717D01*
X69968238Y-59531716D01*
X69968237Y-59531715D01*
X69828365Y-59458303D01*
X69674986Y-59420500D01*
X69674985Y-59420500D01*
X69517015Y-59420500D01*
X69517014Y-59420500D01*
X69363634Y-59458303D01*
X69223762Y-59531715D01*
X69105516Y-59636471D01*
X69015781Y-59766475D01*
X69015780Y-59766476D01*
X68959762Y-59914181D01*
X68940722Y-60070999D01*
X68940722Y-60071000D01*
X68959762Y-60227818D01*
X69008442Y-60356174D01*
X69016500Y-60400145D01*
X69016500Y-64594501D01*
X68996815Y-64661540D01*
X68974727Y-64687317D01*
X68969760Y-64691716D01*
X68969760Y-64691717D01*
X68876675Y-64774182D01*
X68851516Y-64796471D01*
X68761781Y-64926475D01*
X68761780Y-64926476D01*
X68705762Y-65074181D01*
X68686722Y-65230999D01*
X64589936Y-65230999D01*
X64644237Y-65087818D01*
X64663278Y-64931000D01*
X64644237Y-64774182D01*
X64588220Y-64626477D01*
X64498483Y-64496470D01*
X64380240Y-64391717D01*
X64380239Y-64391716D01*
X64375273Y-64387317D01*
X64338146Y-64328127D01*
X64333500Y-64294501D01*
X64333500Y-60580497D01*
X64353185Y-60513458D01*
X64375274Y-60487681D01*
X64380236Y-60483285D01*
X64380240Y-60483283D01*
X64498483Y-60378530D01*
X64588220Y-60248523D01*
X64644237Y-60100818D01*
X64663278Y-59944000D01*
X64663278Y-59943999D01*
X65130722Y-59943999D01*
X65130722Y-59944000D01*
X65149762Y-60100818D01*
X65205780Y-60248523D01*
X65205781Y-60248524D01*
X65295517Y-60378531D01*
X65345940Y-60423200D01*
X65413760Y-60483283D01*
X65413763Y-60483284D01*
X65418726Y-60487681D01*
X65455853Y-60546870D01*
X65460500Y-60580497D01*
X65460500Y-63094501D01*
X65440815Y-63161540D01*
X65418727Y-63187317D01*
X65295516Y-63296471D01*
X65205781Y-63426475D01*
X65205780Y-63426476D01*
X65149762Y-63574181D01*
X65130722Y-63730999D01*
X65130722Y-63731000D01*
X65149762Y-63887818D01*
X65202349Y-64026476D01*
X65205780Y-64035523D01*
X65295517Y-64165530D01*
X65413760Y-64270283D01*
X65413762Y-64270284D01*
X65553634Y-64343696D01*
X65707014Y-64381500D01*
X65707015Y-64381500D01*
X65864985Y-64381500D01*
X66018365Y-64343696D01*
X66048029Y-64328127D01*
X66158240Y-64270283D01*
X66276483Y-64165530D01*
X66366220Y-64035523D01*
X66422237Y-63887818D01*
X66441278Y-63731000D01*
X66422237Y-63574182D01*
X66366220Y-63426477D01*
X66276483Y-63296470D01*
X66158240Y-63191717D01*
X66158239Y-63191716D01*
X66153273Y-63187317D01*
X66116146Y-63128127D01*
X66111500Y-63094501D01*
X66111500Y-60580497D01*
X66131185Y-60513458D01*
X66153274Y-60487681D01*
X66158236Y-60483285D01*
X66158240Y-60483283D01*
X66276483Y-60378530D01*
X66366220Y-60248523D01*
X66422237Y-60100818D01*
X66441278Y-59944000D01*
X66441278Y-59943999D01*
X67035722Y-59943999D01*
X67035722Y-59944000D01*
X67054762Y-60100818D01*
X67110780Y-60248523D01*
X67110781Y-60248524D01*
X67200517Y-60378531D01*
X67250940Y-60423200D01*
X67318760Y-60483283D01*
X67318763Y-60483284D01*
X67323726Y-60487681D01*
X67360853Y-60546870D01*
X67365500Y-60580497D01*
X67365500Y-63694501D01*
X67345815Y-63761540D01*
X67323727Y-63787317D01*
X67200516Y-63896471D01*
X67110781Y-64026475D01*
X67110780Y-64026476D01*
X67054762Y-64174181D01*
X67035722Y-64330999D01*
X67035722Y-64331000D01*
X67054762Y-64487818D01*
X67107349Y-64626476D01*
X67110780Y-64635523D01*
X67200517Y-64765530D01*
X67318760Y-64870283D01*
X67318762Y-64870284D01*
X67458634Y-64943696D01*
X67612014Y-64981500D01*
X67612015Y-64981500D01*
X67769985Y-64981500D01*
X67923365Y-64943696D01*
X67947557Y-64930999D01*
X68063240Y-64870283D01*
X68181483Y-64765530D01*
X68271220Y-64635523D01*
X68327237Y-64487818D01*
X68346278Y-64331000D01*
X68327237Y-64174182D01*
X68271220Y-64026477D01*
X68181483Y-63896470D01*
X68063240Y-63791717D01*
X68063239Y-63791716D01*
X68058273Y-63787317D01*
X68021146Y-63728127D01*
X68016500Y-63694501D01*
X68016500Y-60580497D01*
X68036185Y-60513458D01*
X68058274Y-60487681D01*
X68063236Y-60483285D01*
X68063240Y-60483283D01*
X68181483Y-60378530D01*
X68271220Y-60248523D01*
X68327237Y-60100818D01*
X68346278Y-59944000D01*
X68342658Y-59914182D01*
X68327237Y-59787181D01*
X68305992Y-59731164D01*
X68271220Y-59639477D01*
X68181483Y-59509470D01*
X68063240Y-59404717D01*
X68063238Y-59404716D01*
X68063237Y-59404715D01*
X67923365Y-59331303D01*
X67769986Y-59293500D01*
X67769985Y-59293500D01*
X67612015Y-59293500D01*
X67612014Y-59293500D01*
X67458634Y-59331303D01*
X67318762Y-59404715D01*
X67200516Y-59509471D01*
X67110781Y-59639475D01*
X67110780Y-59639476D01*
X67054762Y-59787181D01*
X67035722Y-59943999D01*
X66441278Y-59943999D01*
X66437658Y-59914182D01*
X66422237Y-59787181D01*
X66400992Y-59731164D01*
X66366220Y-59639477D01*
X66276483Y-59509470D01*
X66158240Y-59404717D01*
X66158238Y-59404716D01*
X66158237Y-59404715D01*
X66018365Y-59331303D01*
X65864986Y-59293500D01*
X65864985Y-59293500D01*
X65707015Y-59293500D01*
X65707014Y-59293500D01*
X65553634Y-59331303D01*
X65413762Y-59404715D01*
X65295516Y-59509471D01*
X65205781Y-59639475D01*
X65205780Y-59639476D01*
X65149762Y-59787181D01*
X65130722Y-59943999D01*
X64663278Y-59943999D01*
X64659658Y-59914182D01*
X64644237Y-59787181D01*
X64622992Y-59731164D01*
X64588220Y-59639477D01*
X64498483Y-59509470D01*
X64380240Y-59404717D01*
X64380238Y-59404716D01*
X64380237Y-59404715D01*
X64240365Y-59331303D01*
X64086986Y-59293500D01*
X64086985Y-59293500D01*
X63929015Y-59293500D01*
X63929014Y-59293500D01*
X63775634Y-59331303D01*
X63635762Y-59404715D01*
X63517516Y-59509471D01*
X63427781Y-59639475D01*
X63427780Y-59639476D01*
X63371762Y-59787181D01*
X63352722Y-59943999D01*
X62057651Y-59943999D01*
X62060500Y-59929674D01*
X62060500Y-58180326D01*
X62060500Y-58180323D01*
X62060499Y-58180321D01*
X62045967Y-58107264D01*
X62045966Y-58107260D01*
X62000356Y-58038999D01*
X95483722Y-58038999D01*
X95483722Y-58039000D01*
X95502762Y-58195818D01*
X95546225Y-58310418D01*
X95558780Y-58343523D01*
X95648517Y-58473530D01*
X95766760Y-58578283D01*
X95766762Y-58578284D01*
X95906634Y-58651696D01*
X96060014Y-58689500D01*
X96060015Y-58689500D01*
X96217985Y-58689500D01*
X96371365Y-58651696D01*
X96387777Y-58643082D01*
X96511240Y-58578283D01*
X96629483Y-58473530D01*
X96652628Y-58439999D01*
X100494785Y-58439999D01*
X100494785Y-58440000D01*
X100513602Y-58643082D01*
X100569417Y-58839247D01*
X100569422Y-58839260D01*
X100660327Y-59021821D01*
X100783237Y-59184581D01*
X100933958Y-59321980D01*
X100933960Y-59321982D01*
X100949016Y-59331304D01*
X101107363Y-59429348D01*
X101297544Y-59503024D01*
X101498024Y-59540500D01*
X101498026Y-59540500D01*
X101701974Y-59540500D01*
X101701976Y-59540500D01*
X101902456Y-59503024D01*
X102092637Y-59429348D01*
X102266041Y-59321981D01*
X102416764Y-59184579D01*
X102539673Y-59021821D01*
X102630582Y-58839250D01*
X102686397Y-58643083D01*
X102705215Y-58440000D01*
X102705215Y-58439999D01*
X103034785Y-58439999D01*
X103034785Y-58440000D01*
X103053602Y-58643082D01*
X103109417Y-58839247D01*
X103109422Y-58839260D01*
X103200327Y-59021821D01*
X103323237Y-59184581D01*
X103473958Y-59321980D01*
X103473960Y-59321982D01*
X103489016Y-59331304D01*
X103647363Y-59429348D01*
X103837544Y-59503024D01*
X104038024Y-59540500D01*
X104038026Y-59540500D01*
X104241974Y-59540500D01*
X104241976Y-59540500D01*
X104442456Y-59503024D01*
X104632637Y-59429348D01*
X104806041Y-59321981D01*
X104956764Y-59184579D01*
X105079673Y-59021821D01*
X105170582Y-58839250D01*
X105226397Y-58643083D01*
X105245215Y-58440000D01*
X105226397Y-58236917D01*
X105170582Y-58040750D01*
X105169710Y-58038999D01*
X105126272Y-57951764D01*
X105079673Y-57858179D01*
X104956764Y-57695421D01*
X104956762Y-57695418D01*
X104806041Y-57558019D01*
X104806039Y-57558017D01*
X104632642Y-57450655D01*
X104632635Y-57450651D01*
X104472203Y-57388500D01*
X104442456Y-57376976D01*
X104241976Y-57339500D01*
X104038024Y-57339500D01*
X103837544Y-57376976D01*
X103837541Y-57376976D01*
X103837541Y-57376977D01*
X103647364Y-57450651D01*
X103647357Y-57450655D01*
X103473960Y-57558017D01*
X103473958Y-57558019D01*
X103323237Y-57695418D01*
X103200327Y-57858178D01*
X103109422Y-58040739D01*
X103109417Y-58040752D01*
X103053602Y-58236917D01*
X103034785Y-58439999D01*
X102705215Y-58439999D01*
X102686397Y-58236917D01*
X102630582Y-58040750D01*
X102629710Y-58038999D01*
X102586272Y-57951764D01*
X102539673Y-57858179D01*
X102416764Y-57695421D01*
X102416762Y-57695418D01*
X102266041Y-57558019D01*
X102266039Y-57558017D01*
X102092642Y-57450655D01*
X102092635Y-57450651D01*
X101932203Y-57388500D01*
X101902456Y-57376976D01*
X101701976Y-57339500D01*
X101498024Y-57339500D01*
X101297544Y-57376976D01*
X101297541Y-57376976D01*
X101297541Y-57376977D01*
X101107364Y-57450651D01*
X101107357Y-57450655D01*
X100933960Y-57558017D01*
X100933958Y-57558019D01*
X100783237Y-57695418D01*
X100660327Y-57858178D01*
X100569422Y-58040739D01*
X100569417Y-58040752D01*
X100513602Y-58236917D01*
X100494785Y-58439999D01*
X96652628Y-58439999D01*
X96719220Y-58343523D01*
X96775237Y-58195818D01*
X96794278Y-58039000D01*
X96788568Y-57991977D01*
X96780447Y-57925090D01*
X96791907Y-57856167D01*
X96815859Y-57822466D01*
X98106652Y-56531672D01*
X98106657Y-56531669D01*
X98116860Y-56521465D01*
X98116862Y-56521465D01*
X98177465Y-56460862D01*
X98219532Y-56388000D01*
X98219533Y-56388000D01*
X98219539Y-56387987D01*
X98220318Y-56386639D01*
X98242501Y-56303853D01*
X98242501Y-56218147D01*
X98242501Y-56210552D01*
X98242500Y-56210534D01*
X98242500Y-55899999D01*
X100494785Y-55899999D01*
X100494785Y-55900000D01*
X100513602Y-56103082D01*
X100569417Y-56299247D01*
X100569422Y-56299260D01*
X100660327Y-56481821D01*
X100783237Y-56644581D01*
X100933958Y-56781980D01*
X100933960Y-56781982D01*
X100999445Y-56822528D01*
X101107363Y-56889348D01*
X101297544Y-56963024D01*
X101498024Y-57000500D01*
X101498026Y-57000500D01*
X101701974Y-57000500D01*
X101701976Y-57000500D01*
X101902456Y-56963024D01*
X102092637Y-56889348D01*
X102266041Y-56781981D01*
X102416764Y-56644579D01*
X102539673Y-56481821D01*
X102630582Y-56299250D01*
X102686397Y-56103083D01*
X102705215Y-55900000D01*
X102705215Y-55899999D01*
X103034785Y-55899999D01*
X103034785Y-55900000D01*
X103053602Y-56103082D01*
X103109417Y-56299247D01*
X103109422Y-56299260D01*
X103200327Y-56481821D01*
X103323237Y-56644581D01*
X103473958Y-56781980D01*
X103473960Y-56781982D01*
X103539445Y-56822528D01*
X103647363Y-56889348D01*
X103837544Y-56963024D01*
X104038024Y-57000500D01*
X104038026Y-57000500D01*
X104241974Y-57000500D01*
X104241976Y-57000500D01*
X104442456Y-56963024D01*
X104632637Y-56889348D01*
X104806041Y-56781981D01*
X104956764Y-56644579D01*
X105079673Y-56481821D01*
X105170582Y-56299250D01*
X105226397Y-56103083D01*
X105245215Y-55900000D01*
X105233660Y-55775304D01*
X105226397Y-55696917D01*
X105220706Y-55676917D01*
X105170582Y-55500750D01*
X105165683Y-55490912D01*
X105120210Y-55399588D01*
X105079673Y-55318179D01*
X104956764Y-55155421D01*
X104956762Y-55155418D01*
X104806041Y-55018019D01*
X104806039Y-55018017D01*
X104632642Y-54910655D01*
X104632635Y-54910651D01*
X104537546Y-54873814D01*
X104442456Y-54836976D01*
X104241976Y-54799500D01*
X104038024Y-54799500D01*
X103837544Y-54836976D01*
X103837541Y-54836976D01*
X103837541Y-54836977D01*
X103647364Y-54910651D01*
X103647357Y-54910655D01*
X103473960Y-55018017D01*
X103473958Y-55018019D01*
X103323237Y-55155418D01*
X103200327Y-55318178D01*
X103109422Y-55500739D01*
X103109417Y-55500752D01*
X103053602Y-55696917D01*
X103034785Y-55899999D01*
X102705215Y-55899999D01*
X102693660Y-55775304D01*
X102686397Y-55696917D01*
X102680706Y-55676917D01*
X102630582Y-55500750D01*
X102625683Y-55490912D01*
X102580210Y-55399588D01*
X102539673Y-55318179D01*
X102416764Y-55155421D01*
X102416762Y-55155418D01*
X102266041Y-55018019D01*
X102266039Y-55018017D01*
X102092642Y-54910655D01*
X102092635Y-54910651D01*
X101997546Y-54873814D01*
X101902456Y-54836976D01*
X101701976Y-54799500D01*
X101498024Y-54799500D01*
X101297544Y-54836976D01*
X101297541Y-54836976D01*
X101297541Y-54836977D01*
X101107364Y-54910651D01*
X101107357Y-54910655D01*
X100933960Y-55018017D01*
X100933958Y-55018019D01*
X100783237Y-55155418D01*
X100660327Y-55318178D01*
X100569422Y-55500739D01*
X100569417Y-55500752D01*
X100513602Y-55696917D01*
X100494785Y-55899999D01*
X98242500Y-55899999D01*
X98242500Y-53976497D01*
X98262185Y-53909458D01*
X98284274Y-53883681D01*
X98289236Y-53879285D01*
X98289240Y-53879283D01*
X98407483Y-53774530D01*
X98497220Y-53644523D01*
X98553237Y-53496818D01*
X98569850Y-53359999D01*
X100494785Y-53359999D01*
X100494785Y-53360000D01*
X100513602Y-53563082D01*
X100569417Y-53759247D01*
X100569422Y-53759260D01*
X100660327Y-53941821D01*
X100783237Y-54104581D01*
X100933958Y-54241980D01*
X100933960Y-54241982D01*
X101033141Y-54303392D01*
X101107363Y-54349348D01*
X101297544Y-54423024D01*
X101498024Y-54460500D01*
X101498026Y-54460500D01*
X101701974Y-54460500D01*
X101701976Y-54460500D01*
X101902456Y-54423024D01*
X102092637Y-54349348D01*
X102266041Y-54241981D01*
X102416764Y-54104579D01*
X102539673Y-53941821D01*
X102630582Y-53759250D01*
X102686397Y-53563083D01*
X102705215Y-53360000D01*
X102705215Y-53359999D01*
X103034785Y-53359999D01*
X103034785Y-53360000D01*
X103053602Y-53563082D01*
X103109417Y-53759247D01*
X103109422Y-53759260D01*
X103200327Y-53941821D01*
X103323237Y-54104581D01*
X103473958Y-54241980D01*
X103473960Y-54241982D01*
X103573141Y-54303392D01*
X103647363Y-54349348D01*
X103837544Y-54423024D01*
X104038024Y-54460500D01*
X104038026Y-54460500D01*
X104241974Y-54460500D01*
X104241976Y-54460500D01*
X104442456Y-54423024D01*
X104632637Y-54349348D01*
X104806041Y-54241981D01*
X104956764Y-54104579D01*
X105079673Y-53941821D01*
X105170582Y-53759250D01*
X105226397Y-53563083D01*
X105245215Y-53360000D01*
X105239405Y-53297304D01*
X105226397Y-53156917D01*
X105191844Y-53035477D01*
X105170582Y-52960750D01*
X105160624Y-52940752D01*
X105126272Y-52871764D01*
X105079673Y-52778179D01*
X104956764Y-52615421D01*
X104956762Y-52615418D01*
X104806041Y-52478019D01*
X104806039Y-52478017D01*
X104632642Y-52370655D01*
X104632635Y-52370651D01*
X104488140Y-52314674D01*
X104442456Y-52296976D01*
X104241976Y-52259500D01*
X104038024Y-52259500D01*
X103837544Y-52296976D01*
X103837541Y-52296976D01*
X103837541Y-52296977D01*
X103647364Y-52370651D01*
X103647357Y-52370655D01*
X103473960Y-52478017D01*
X103473958Y-52478019D01*
X103323237Y-52615418D01*
X103200327Y-52778178D01*
X103109422Y-52960739D01*
X103109417Y-52960752D01*
X103053602Y-53156917D01*
X103034785Y-53359999D01*
X102705215Y-53359999D01*
X102699405Y-53297304D01*
X102686397Y-53156917D01*
X102651844Y-53035477D01*
X102630582Y-52960750D01*
X102620624Y-52940752D01*
X102586272Y-52871764D01*
X102539673Y-52778179D01*
X102416764Y-52615421D01*
X102416762Y-52615418D01*
X102266041Y-52478019D01*
X102266039Y-52478017D01*
X102092642Y-52370655D01*
X102092635Y-52370651D01*
X101948140Y-52314674D01*
X101902456Y-52296976D01*
X101701976Y-52259500D01*
X101498024Y-52259500D01*
X101297544Y-52296976D01*
X101297541Y-52296976D01*
X101297541Y-52296977D01*
X101107364Y-52370651D01*
X101107357Y-52370655D01*
X100933960Y-52478017D01*
X100933958Y-52478019D01*
X100783237Y-52615418D01*
X100660327Y-52778178D01*
X100569422Y-52960739D01*
X100569417Y-52960752D01*
X100513602Y-53156917D01*
X100494785Y-53359999D01*
X98569850Y-53359999D01*
X98572278Y-53340000D01*
X98553237Y-53183182D01*
X98497220Y-53035477D01*
X98407483Y-52905470D01*
X98289240Y-52800717D01*
X98289238Y-52800716D01*
X98289237Y-52800715D01*
X98149365Y-52727303D01*
X97995986Y-52689500D01*
X97995985Y-52689500D01*
X97838015Y-52689500D01*
X97838014Y-52689500D01*
X97684634Y-52727303D01*
X97544762Y-52800715D01*
X97426516Y-52905471D01*
X97336781Y-53035475D01*
X97336780Y-53035476D01*
X97280762Y-53183181D01*
X97261722Y-53339999D01*
X97261722Y-53340000D01*
X97280762Y-53496818D01*
X97336780Y-53644523D01*
X97336781Y-53644524D01*
X97426517Y-53774531D01*
X97476940Y-53819200D01*
X97544760Y-53879283D01*
X97544763Y-53879284D01*
X97549726Y-53883681D01*
X97586853Y-53942870D01*
X97591500Y-53976497D01*
X97591500Y-56074810D01*
X97571815Y-56141849D01*
X97555181Y-56162491D01*
X96356638Y-57361033D01*
X96295315Y-57394518D01*
X96239284Y-57393749D01*
X96217987Y-57388500D01*
X96217985Y-57388500D01*
X96060015Y-57388500D01*
X96060014Y-57388500D01*
X95906634Y-57426303D01*
X95766762Y-57499715D01*
X95648516Y-57604471D01*
X95558781Y-57734475D01*
X95558780Y-57734476D01*
X95502762Y-57882181D01*
X95483722Y-58038999D01*
X62000356Y-58038999D01*
X61990601Y-58024399D01*
X61907740Y-57969034D01*
X61907739Y-57969033D01*
X61907735Y-57969032D01*
X61834677Y-57954500D01*
X61834674Y-57954500D01*
X60085326Y-57954500D01*
X60085323Y-57954500D01*
X60012264Y-57969032D01*
X60012260Y-57969033D01*
X59929399Y-58024399D01*
X59874033Y-58107260D01*
X59874032Y-58107264D01*
X59859500Y-58180321D01*
X59094051Y-58180321D01*
X59086041Y-58173019D01*
X59086039Y-58173017D01*
X58912642Y-58065655D01*
X58912635Y-58065651D01*
X58796702Y-58020739D01*
X58722456Y-57991976D01*
X58521976Y-57954500D01*
X58318024Y-57954500D01*
X58117544Y-57991976D01*
X58117541Y-57991976D01*
X58117541Y-57991977D01*
X57927364Y-58065651D01*
X57927357Y-58065655D01*
X57753960Y-58173017D01*
X57753958Y-58173019D01*
X57603237Y-58310418D01*
X57480327Y-58473178D01*
X57389422Y-58655739D01*
X57389417Y-58655752D01*
X57333602Y-58851917D01*
X57314785Y-59054999D01*
X56985215Y-59054999D01*
X56966397Y-58851917D01*
X56910582Y-58655750D01*
X56908563Y-58651696D01*
X56866272Y-58566764D01*
X56819673Y-58473179D01*
X56721762Y-58343524D01*
X56696762Y-58310418D01*
X56546041Y-58173019D01*
X56546039Y-58173017D01*
X56372642Y-58065655D01*
X56372635Y-58065651D01*
X56256702Y-58020739D01*
X56182456Y-57991976D01*
X55981976Y-57954500D01*
X55778024Y-57954500D01*
X55577544Y-57991976D01*
X55577541Y-57991976D01*
X55577541Y-57991977D01*
X55387364Y-58065651D01*
X55387357Y-58065655D01*
X55213960Y-58173017D01*
X55213958Y-58173019D01*
X55063237Y-58310418D01*
X54940327Y-58473178D01*
X54849422Y-58655739D01*
X54849417Y-58655752D01*
X54793602Y-58851917D01*
X54774785Y-59054999D01*
X46619515Y-59054999D01*
X46659673Y-59001821D01*
X46750582Y-58819250D01*
X46806397Y-58623083D01*
X46825215Y-58420000D01*
X46806397Y-58216917D01*
X46750582Y-58020750D01*
X46736254Y-57991976D01*
X46702949Y-57925090D01*
X46659673Y-57838179D01*
X46581360Y-57734476D01*
X46536762Y-57675418D01*
X46386041Y-57538019D01*
X46386039Y-57538017D01*
X46212642Y-57430655D01*
X46212635Y-57430651D01*
X46032928Y-57361033D01*
X46022456Y-57356976D01*
X45821976Y-57319500D01*
X45618024Y-57319500D01*
X45417544Y-57356976D01*
X45417541Y-57356976D01*
X45417541Y-57356977D01*
X45227364Y-57430651D01*
X45227357Y-57430655D01*
X45053960Y-57538017D01*
X45053958Y-57538019D01*
X44903237Y-57675418D01*
X44780327Y-57838178D01*
X44689422Y-58020739D01*
X44689417Y-58020752D01*
X44633602Y-58216917D01*
X44614785Y-58419999D01*
X44285215Y-58419999D01*
X44266397Y-58216917D01*
X44210582Y-58020750D01*
X44196254Y-57991976D01*
X44162949Y-57925090D01*
X44119673Y-57838179D01*
X44041360Y-57734476D01*
X43996762Y-57675418D01*
X43846041Y-57538019D01*
X43846039Y-57538017D01*
X43672642Y-57430655D01*
X43672635Y-57430651D01*
X43492928Y-57361033D01*
X43482456Y-57356976D01*
X43281976Y-57319500D01*
X43078024Y-57319500D01*
X42877544Y-57356976D01*
X42877541Y-57356976D01*
X42877541Y-57356977D01*
X42687364Y-57430651D01*
X42687357Y-57430655D01*
X42513960Y-57538017D01*
X42513958Y-57538019D01*
X42363237Y-57675418D01*
X42240327Y-57838178D01*
X42149422Y-58020739D01*
X42149417Y-58020752D01*
X42093602Y-58216917D01*
X42074785Y-58419999D01*
X39870500Y-58419999D01*
X39870500Y-55879999D01*
X42074785Y-55879999D01*
X42074785Y-55880000D01*
X42093602Y-56083082D01*
X42149417Y-56279247D01*
X42149422Y-56279260D01*
X42240327Y-56461821D01*
X42363237Y-56624581D01*
X42513958Y-56761980D01*
X42513960Y-56761982D01*
X42611746Y-56822528D01*
X42687363Y-56869348D01*
X42877544Y-56943024D01*
X43078024Y-56980500D01*
X43078026Y-56980500D01*
X43281974Y-56980500D01*
X43281976Y-56980500D01*
X43482456Y-56943024D01*
X43672637Y-56869348D01*
X43846041Y-56761981D01*
X43996764Y-56624579D01*
X44119673Y-56461821D01*
X44210582Y-56279250D01*
X44266397Y-56083083D01*
X44285215Y-55880000D01*
X44285215Y-55879999D01*
X44614785Y-55879999D01*
X44614785Y-55880000D01*
X44633602Y-56083082D01*
X44689417Y-56279247D01*
X44689422Y-56279260D01*
X44780327Y-56461821D01*
X44903237Y-56624581D01*
X45053958Y-56761980D01*
X45053960Y-56761982D01*
X45151746Y-56822528D01*
X45227363Y-56869348D01*
X45417544Y-56943024D01*
X45618024Y-56980500D01*
X45618026Y-56980500D01*
X45821974Y-56980500D01*
X45821976Y-56980500D01*
X46022456Y-56943024D01*
X46212637Y-56869348D01*
X46386041Y-56761981D01*
X46536764Y-56624579D01*
X46659673Y-56461821D01*
X46696432Y-56387999D01*
X64495722Y-56387999D01*
X64495722Y-56388000D01*
X64514762Y-56544818D01*
X64545012Y-56624579D01*
X64570780Y-56692523D01*
X64660517Y-56822530D01*
X64778760Y-56927283D01*
X64778762Y-56927284D01*
X64918634Y-57000696D01*
X65072014Y-57038500D01*
X65072015Y-57038500D01*
X65229985Y-57038500D01*
X65383365Y-57000696D01*
X65417990Y-56982523D01*
X65523240Y-56927283D01*
X65641483Y-56822530D01*
X65731220Y-56692523D01*
X65787237Y-56544818D01*
X65806278Y-56388000D01*
X65803931Y-56368671D01*
X65815391Y-56299749D01*
X65839343Y-56266048D01*
X66614480Y-55490913D01*
X66667207Y-55399588D01*
X66694500Y-55297727D01*
X66694500Y-55192273D01*
X66694500Y-55180055D01*
X66714185Y-55113016D01*
X66736274Y-55087239D01*
X66784482Y-55044531D01*
X66802782Y-55018019D01*
X66874220Y-54914523D01*
X66930237Y-54766818D01*
X66949278Y-54610000D01*
X66941568Y-54546497D01*
X66930237Y-54453181D01*
X66890858Y-54349348D01*
X66874220Y-54305477D01*
X66784483Y-54175470D01*
X66666240Y-54070717D01*
X66666238Y-54070716D01*
X66666237Y-54070715D01*
X66526365Y-53997303D01*
X66372986Y-53959500D01*
X66372985Y-53959500D01*
X66215015Y-53959500D01*
X66215014Y-53959500D01*
X66061634Y-53997303D01*
X65921762Y-54070715D01*
X65803516Y-54175471D01*
X65713781Y-54305475D01*
X65713780Y-54305476D01*
X65657762Y-54453181D01*
X65638722Y-54609999D01*
X65638722Y-54610000D01*
X65657762Y-54766818D01*
X65704727Y-54890652D01*
X65713780Y-54914523D01*
X65785216Y-55018017D01*
X65795679Y-55033174D01*
X65817562Y-55099528D01*
X65800097Y-55167180D01*
X65781310Y-55191295D01*
X65271425Y-55701181D01*
X65210102Y-55734666D01*
X65183744Y-55737500D01*
X65072014Y-55737500D01*
X64918634Y-55775303D01*
X64778762Y-55848715D01*
X64660516Y-55953471D01*
X64570781Y-56083475D01*
X64570780Y-56083476D01*
X64514762Y-56231181D01*
X64495722Y-56387999D01*
X46696432Y-56387999D01*
X46750582Y-56279250D01*
X46806397Y-56083083D01*
X46825215Y-55880000D01*
X46812104Y-55738512D01*
X46806397Y-55676917D01*
X46756273Y-55500752D01*
X46750582Y-55480750D01*
X46659673Y-55298179D01*
X46536764Y-55135421D01*
X46536762Y-55135418D01*
X46386041Y-54998019D01*
X46386039Y-54998017D01*
X46212642Y-54890655D01*
X46212635Y-54890651D01*
X46074082Y-54836976D01*
X46022456Y-54816976D01*
X45821976Y-54779500D01*
X45618024Y-54779500D01*
X45417544Y-54816976D01*
X45417541Y-54816976D01*
X45417541Y-54816977D01*
X45227364Y-54890651D01*
X45227357Y-54890655D01*
X45053960Y-54998017D01*
X45053958Y-54998019D01*
X44903237Y-55135418D01*
X44780327Y-55298178D01*
X44689422Y-55480739D01*
X44689417Y-55480752D01*
X44633602Y-55676917D01*
X44614785Y-55879999D01*
X44285215Y-55879999D01*
X44272104Y-55738512D01*
X44266397Y-55676917D01*
X44216273Y-55500752D01*
X44210582Y-55480750D01*
X44119673Y-55298179D01*
X43996764Y-55135421D01*
X43996762Y-55135418D01*
X43846041Y-54998019D01*
X43846039Y-54998017D01*
X43672642Y-54890655D01*
X43672635Y-54890651D01*
X43534082Y-54836976D01*
X43482456Y-54816976D01*
X43281976Y-54779500D01*
X43078024Y-54779500D01*
X42877544Y-54816976D01*
X42877541Y-54816976D01*
X42877541Y-54816977D01*
X42687364Y-54890651D01*
X42687357Y-54890655D01*
X42513960Y-54998017D01*
X42513958Y-54998019D01*
X42363237Y-55135418D01*
X42240327Y-55298178D01*
X42149422Y-55480739D01*
X42149417Y-55480752D01*
X42093602Y-55676917D01*
X42074785Y-55879999D01*
X39870500Y-55879999D01*
X39870500Y-53339999D01*
X42074785Y-53339999D01*
X42074785Y-53340000D01*
X42093602Y-53543082D01*
X42149417Y-53739247D01*
X42149422Y-53739260D01*
X42240327Y-53921821D01*
X42363237Y-54084581D01*
X42513958Y-54221980D01*
X42513960Y-54221982D01*
X42613141Y-54283392D01*
X42687363Y-54329348D01*
X42877544Y-54403024D01*
X43078024Y-54440500D01*
X43078026Y-54440500D01*
X43281974Y-54440500D01*
X43281976Y-54440500D01*
X43482456Y-54403024D01*
X43672637Y-54329348D01*
X43846041Y-54221981D01*
X43996764Y-54084579D01*
X44119673Y-53921821D01*
X44210582Y-53739250D01*
X44266397Y-53543083D01*
X44285215Y-53340000D01*
X44285215Y-53339999D01*
X44614785Y-53339999D01*
X44614785Y-53340000D01*
X44633602Y-53543082D01*
X44689417Y-53739247D01*
X44689422Y-53739260D01*
X44780327Y-53921821D01*
X44903237Y-54084581D01*
X45053958Y-54221980D01*
X45053960Y-54221982D01*
X45153141Y-54283392D01*
X45227363Y-54329348D01*
X45417544Y-54403024D01*
X45618024Y-54440500D01*
X45618026Y-54440500D01*
X45821974Y-54440500D01*
X45821976Y-54440500D01*
X46022456Y-54403024D01*
X46212637Y-54329348D01*
X46386041Y-54221981D01*
X46536764Y-54084579D01*
X46659673Y-53921821D01*
X46665560Y-53909999D01*
X68178722Y-53909999D01*
X68178722Y-53910000D01*
X68197762Y-54066818D01*
X68253780Y-54214523D01*
X68253781Y-54214524D01*
X68343517Y-54344531D01*
X68393940Y-54389200D01*
X68461760Y-54449283D01*
X68461763Y-54449284D01*
X68466726Y-54453681D01*
X68503853Y-54512870D01*
X68508500Y-54546497D01*
X68508500Y-56041501D01*
X68488815Y-56108540D01*
X68466727Y-56134317D01*
X68461760Y-56138716D01*
X68461760Y-56138717D01*
X68343517Y-56243470D01*
X68343516Y-56243471D01*
X68253781Y-56373475D01*
X68253780Y-56373476D01*
X68197762Y-56521181D01*
X68178722Y-56677999D01*
X68178722Y-56678000D01*
X68197762Y-56834818D01*
X68238799Y-56943022D01*
X68253780Y-56982523D01*
X68343517Y-57112530D01*
X68461760Y-57217283D01*
X68461762Y-57217284D01*
X68601634Y-57290696D01*
X68755014Y-57328500D01*
X68755015Y-57328500D01*
X68912985Y-57328500D01*
X69066365Y-57290696D01*
X69206240Y-57217283D01*
X69324483Y-57112530D01*
X69414220Y-56982523D01*
X69470237Y-56834818D01*
X69489278Y-56678000D01*
X69470272Y-56521466D01*
X69470237Y-56521181D01*
X69447359Y-56460858D01*
X69414220Y-56373477D01*
X69324483Y-56243470D01*
X69206240Y-56138717D01*
X69206239Y-56138716D01*
X69201273Y-56134317D01*
X69164146Y-56075127D01*
X69159500Y-56041501D01*
X69159500Y-54546497D01*
X69179185Y-54479458D01*
X69201274Y-54453681D01*
X69206236Y-54449285D01*
X69206240Y-54449283D01*
X69324483Y-54344530D01*
X69414220Y-54214523D01*
X69470237Y-54066818D01*
X69489278Y-53910000D01*
X69470974Y-53759247D01*
X69470237Y-53753181D01*
X69448992Y-53697164D01*
X69414220Y-53605477D01*
X69324483Y-53475470D01*
X69206240Y-53370717D01*
X69206238Y-53370716D01*
X69206237Y-53370715D01*
X69066365Y-53297303D01*
X68912986Y-53259500D01*
X68912985Y-53259500D01*
X68755015Y-53259500D01*
X68755014Y-53259500D01*
X68601634Y-53297303D01*
X68461762Y-53370715D01*
X68343516Y-53475471D01*
X68253781Y-53605475D01*
X68253780Y-53605476D01*
X68197762Y-53753181D01*
X68178722Y-53909999D01*
X46665560Y-53909999D01*
X46750582Y-53739250D01*
X46806397Y-53543083D01*
X46825215Y-53340000D01*
X46806397Y-53136917D01*
X46750582Y-52940750D01*
X46733015Y-52905471D01*
X46680853Y-52800715D01*
X46659673Y-52758179D01*
X46536764Y-52595421D01*
X46536762Y-52595418D01*
X46386041Y-52458019D01*
X46386039Y-52458017D01*
X46212642Y-52350655D01*
X46212635Y-52350651D01*
X46074082Y-52296976D01*
X46022456Y-52276976D01*
X45821976Y-52239500D01*
X45618024Y-52239500D01*
X45417544Y-52276976D01*
X45417541Y-52276976D01*
X45417541Y-52276977D01*
X45227364Y-52350651D01*
X45227357Y-52350655D01*
X45053960Y-52458017D01*
X45053958Y-52458019D01*
X44903237Y-52595418D01*
X44780327Y-52758178D01*
X44689422Y-52940739D01*
X44689417Y-52940752D01*
X44633602Y-53136917D01*
X44614785Y-53339999D01*
X44285215Y-53339999D01*
X44266397Y-53136917D01*
X44210582Y-52940750D01*
X44193015Y-52905471D01*
X44140853Y-52800715D01*
X44119673Y-52758179D01*
X43996764Y-52595421D01*
X43996762Y-52595418D01*
X43846041Y-52458019D01*
X43846039Y-52458017D01*
X43672642Y-52350655D01*
X43672635Y-52350651D01*
X43534082Y-52296976D01*
X43482456Y-52276976D01*
X43281976Y-52239500D01*
X43078024Y-52239500D01*
X42877544Y-52276976D01*
X42877541Y-52276976D01*
X42877541Y-52276977D01*
X42687364Y-52350651D01*
X42687357Y-52350655D01*
X42513960Y-52458017D01*
X42513958Y-52458019D01*
X42363237Y-52595418D01*
X42240327Y-52758178D01*
X42149422Y-52940739D01*
X42149417Y-52940752D01*
X42093602Y-53136917D01*
X42074785Y-53339999D01*
X39870500Y-53339999D01*
X39870500Y-48009999D01*
X41849364Y-48009999D01*
X41849364Y-48010000D01*
X42746988Y-48010000D01*
X42714075Y-48067007D01*
X42680000Y-48194174D01*
X42680000Y-48325826D01*
X42714075Y-48452993D01*
X42746988Y-48510000D01*
X41849364Y-48510000D01*
X41906567Y-48723486D01*
X41906570Y-48723492D01*
X42006399Y-48937578D01*
X42141894Y-49131082D01*
X42308917Y-49298105D01*
X42502421Y-49433600D01*
X42716507Y-49533429D01*
X42716516Y-49533433D01*
X42755583Y-49543901D01*
X42815244Y-49580266D01*
X42845773Y-49643113D01*
X42837479Y-49712488D01*
X42792993Y-49766366D01*
X42768284Y-49779302D01*
X42687373Y-49810647D01*
X42687357Y-49810655D01*
X42513960Y-49918017D01*
X42513958Y-49918019D01*
X42363237Y-50055418D01*
X42240327Y-50218178D01*
X42149422Y-50400739D01*
X42149417Y-50400752D01*
X42093602Y-50596917D01*
X42074785Y-50799999D01*
X42074785Y-50800000D01*
X42093602Y-51003082D01*
X42149417Y-51199247D01*
X42149422Y-51199260D01*
X42240327Y-51381821D01*
X42363237Y-51544581D01*
X42513958Y-51681980D01*
X42513960Y-51681982D01*
X42613141Y-51743392D01*
X42687363Y-51789348D01*
X42877544Y-51863024D01*
X43078024Y-51900500D01*
X43078026Y-51900500D01*
X43281974Y-51900500D01*
X43281976Y-51900500D01*
X43482456Y-51863024D01*
X43672637Y-51789348D01*
X43846041Y-51681981D01*
X43996764Y-51544579D01*
X44119673Y-51381821D01*
X44210582Y-51199250D01*
X44266397Y-51003083D01*
X44285215Y-50800000D01*
X44285215Y-50799999D01*
X44614785Y-50799999D01*
X44614785Y-50800000D01*
X44633602Y-51003082D01*
X44689417Y-51199247D01*
X44689422Y-51199260D01*
X44780327Y-51381821D01*
X44903237Y-51544581D01*
X45053958Y-51681980D01*
X45053960Y-51681982D01*
X45153141Y-51743392D01*
X45227363Y-51789348D01*
X45417544Y-51863024D01*
X45618024Y-51900500D01*
X45618026Y-51900500D01*
X45821974Y-51900500D01*
X45821976Y-51900500D01*
X46022456Y-51863024D01*
X46212637Y-51789348D01*
X46386041Y-51681981D01*
X46536764Y-51544579D01*
X46659673Y-51381821D01*
X46750582Y-51199250D01*
X46806397Y-51003083D01*
X46825215Y-50800000D01*
X46806397Y-50596917D01*
X46797407Y-50565321D01*
X52874500Y-50565321D01*
X52874500Y-52314678D01*
X52889032Y-52387735D01*
X52889033Y-52387739D01*
X52889034Y-52387740D01*
X52944399Y-52470601D01*
X53027260Y-52525966D01*
X53027264Y-52525967D01*
X53100321Y-52540499D01*
X53100324Y-52540500D01*
X53100326Y-52540500D01*
X54849676Y-52540500D01*
X54849677Y-52540499D01*
X54922740Y-52525966D01*
X55005601Y-52470601D01*
X55060966Y-52387740D01*
X55075500Y-52314674D01*
X55075500Y-50799999D01*
X65569785Y-50799999D01*
X65569785Y-50800000D01*
X65588602Y-51003082D01*
X65644417Y-51199247D01*
X65644422Y-51199260D01*
X65735327Y-51381821D01*
X65858237Y-51544581D01*
X66008958Y-51681980D01*
X66008960Y-51681982D01*
X66108141Y-51743392D01*
X66182363Y-51789348D01*
X66372544Y-51863024D01*
X66573024Y-51900500D01*
X66573026Y-51900500D01*
X66776974Y-51900500D01*
X66776976Y-51900500D01*
X66977456Y-51863024D01*
X67167637Y-51789348D01*
X67341041Y-51681981D01*
X67491764Y-51544579D01*
X67614673Y-51381821D01*
X67705582Y-51199250D01*
X67761397Y-51003083D01*
X67780215Y-50800000D01*
X67779752Y-50794999D01*
X69949785Y-50794999D01*
X69949785Y-50795000D01*
X69968602Y-50998082D01*
X70024417Y-51194247D01*
X70024422Y-51194260D01*
X70115327Y-51376821D01*
X70238237Y-51539581D01*
X70388958Y-51676980D01*
X70388960Y-51676982D01*
X70429335Y-51701981D01*
X70562363Y-51784348D01*
X70752544Y-51858024D01*
X70953024Y-51895500D01*
X70953026Y-51895500D01*
X71156974Y-51895500D01*
X71156976Y-51895500D01*
X71357456Y-51858024D01*
X71547637Y-51784348D01*
X71721041Y-51676981D01*
X71871764Y-51539579D01*
X71994673Y-51376821D01*
X72085582Y-51194250D01*
X72141397Y-50998083D01*
X72157899Y-50819999D01*
X100494785Y-50819999D01*
X100494785Y-50820000D01*
X100513602Y-51023082D01*
X100569417Y-51219247D01*
X100569422Y-51219260D01*
X100660327Y-51401821D01*
X100783237Y-51564581D01*
X100933958Y-51701980D01*
X100933960Y-51701982D01*
X101033141Y-51763392D01*
X101107363Y-51809348D01*
X101297544Y-51883024D01*
X101498024Y-51920500D01*
X101498026Y-51920500D01*
X101701974Y-51920500D01*
X101701976Y-51920500D01*
X101902456Y-51883024D01*
X102092637Y-51809348D01*
X102266041Y-51701981D01*
X102416764Y-51564579D01*
X102539673Y-51401821D01*
X102630582Y-51219250D01*
X102686397Y-51023083D01*
X102705215Y-50820000D01*
X102702898Y-50795000D01*
X102686397Y-50616917D01*
X102671716Y-50565321D01*
X102630582Y-50420750D01*
X102620624Y-50400752D01*
X102586272Y-50331764D01*
X102539673Y-50238179D01*
X102416764Y-50075421D01*
X102416762Y-50075418D01*
X102266041Y-49938019D01*
X102266039Y-49938017D01*
X102092642Y-49830655D01*
X102092635Y-49830651D01*
X101960086Y-49779302D01*
X101902456Y-49756976D01*
X101701976Y-49719500D01*
X101498024Y-49719500D01*
X101297544Y-49756976D01*
X101297541Y-49756976D01*
X101297541Y-49756977D01*
X101107364Y-49830651D01*
X101107357Y-49830655D01*
X100933960Y-49938017D01*
X100933958Y-49938019D01*
X100783237Y-50075418D01*
X100660327Y-50238178D01*
X100569422Y-50420739D01*
X100569417Y-50420752D01*
X100513602Y-50616917D01*
X100494785Y-50819999D01*
X72157899Y-50819999D01*
X72160215Y-50795000D01*
X72141397Y-50591917D01*
X72085582Y-50395750D01*
X71994673Y-50213179D01*
X71871764Y-50050421D01*
X71871762Y-50050418D01*
X71721041Y-49913019D01*
X71721039Y-49913017D01*
X71547642Y-49805655D01*
X71547635Y-49805651D01*
X71370365Y-49736977D01*
X71357456Y-49731976D01*
X71156976Y-49694500D01*
X70953024Y-49694500D01*
X70752544Y-49731976D01*
X70752541Y-49731976D01*
X70752541Y-49731977D01*
X70562364Y-49805651D01*
X70562357Y-49805655D01*
X70388960Y-49913017D01*
X70388958Y-49913019D01*
X70238237Y-50050418D01*
X70115327Y-50213178D01*
X70024422Y-50395739D01*
X70024417Y-50395752D01*
X69968602Y-50591917D01*
X69949785Y-50794999D01*
X67779752Y-50794999D01*
X67761397Y-50596917D01*
X67705582Y-50400750D01*
X67703093Y-50395752D01*
X67661272Y-50311764D01*
X67614673Y-50218179D01*
X67491764Y-50055421D01*
X67491762Y-50055418D01*
X67341041Y-49918019D01*
X67341039Y-49918017D01*
X67167642Y-49810655D01*
X67167635Y-49810651D01*
X67028447Y-49756730D01*
X66977456Y-49736976D01*
X66776976Y-49699500D01*
X66573024Y-49699500D01*
X66372544Y-49736976D01*
X66372541Y-49736976D01*
X66372541Y-49736977D01*
X66182364Y-49810651D01*
X66182357Y-49810655D01*
X66008960Y-49918017D01*
X66008958Y-49918019D01*
X65858237Y-50055418D01*
X65735327Y-50218178D01*
X65644422Y-50400739D01*
X65644417Y-50400752D01*
X65588602Y-50596917D01*
X65569785Y-50799999D01*
X55075500Y-50799999D01*
X55075500Y-50565326D01*
X55075500Y-50565323D01*
X55075499Y-50565321D01*
X55060967Y-50492264D01*
X55060966Y-50492260D01*
X55005601Y-50409399D01*
X54922740Y-50354034D01*
X54922739Y-50354033D01*
X54922735Y-50354032D01*
X54849677Y-50339500D01*
X54849674Y-50339500D01*
X53100326Y-50339500D01*
X53100323Y-50339500D01*
X53027264Y-50354032D01*
X53027260Y-50354033D01*
X52944399Y-50409399D01*
X52889033Y-50492260D01*
X52889032Y-50492264D01*
X52874500Y-50565321D01*
X46797407Y-50565321D01*
X46750582Y-50400750D01*
X46748093Y-50395752D01*
X46706272Y-50311764D01*
X46659673Y-50218179D01*
X46536764Y-50055421D01*
X46536762Y-50055418D01*
X46386041Y-49918019D01*
X46386039Y-49918017D01*
X46212642Y-49810655D01*
X46212635Y-49810651D01*
X46073447Y-49756730D01*
X46022456Y-49736976D01*
X45821976Y-49699500D01*
X45618024Y-49699500D01*
X45417544Y-49736976D01*
X45417541Y-49736976D01*
X45417541Y-49736977D01*
X45227364Y-49810651D01*
X45227357Y-49810655D01*
X45053960Y-49918017D01*
X45053958Y-49918019D01*
X44903237Y-50055418D01*
X44780327Y-50218178D01*
X44689422Y-50400739D01*
X44689417Y-50400752D01*
X44633602Y-50596917D01*
X44614785Y-50799999D01*
X44285215Y-50799999D01*
X44266397Y-50596917D01*
X44210582Y-50400750D01*
X44208093Y-50395752D01*
X44166272Y-50311764D01*
X44119673Y-50218179D01*
X43996764Y-50055421D01*
X43996762Y-50055418D01*
X43846041Y-49918019D01*
X43846039Y-49918017D01*
X43672642Y-49810655D01*
X43672635Y-49810651D01*
X43609947Y-49786366D01*
X43591714Y-49779302D01*
X43536313Y-49736730D01*
X43512723Y-49670963D01*
X43528434Y-49602883D01*
X43578458Y-49554104D01*
X43604417Y-49543901D01*
X43643481Y-49533434D01*
X43643492Y-49533429D01*
X43857578Y-49433600D01*
X44051082Y-49298105D01*
X44218105Y-49131082D01*
X44353600Y-48937578D01*
X44453429Y-48723492D01*
X44453431Y-48723489D01*
X44462406Y-48689992D01*
X44498770Y-48630331D01*
X44561616Y-48599800D01*
X44630992Y-48608094D01*
X44684871Y-48652578D01*
X44693182Y-48666811D01*
X44780327Y-48841821D01*
X44903237Y-49004581D01*
X45053958Y-49141980D01*
X45053960Y-49141982D01*
X45152080Y-49202735D01*
X45227363Y-49249348D01*
X45417544Y-49323024D01*
X45618024Y-49360500D01*
X45618026Y-49360500D01*
X45821974Y-49360500D01*
X45821976Y-49360500D01*
X46022456Y-49323024D01*
X46212637Y-49249348D01*
X46386041Y-49141981D01*
X46536764Y-49004579D01*
X46615739Y-48899999D01*
X52869785Y-48899999D01*
X52869785Y-48900000D01*
X52888602Y-49103082D01*
X52944417Y-49299247D01*
X52944422Y-49299260D01*
X53035327Y-49481821D01*
X53158237Y-49644581D01*
X53308958Y-49781980D01*
X53308960Y-49781982D01*
X53387570Y-49830655D01*
X53482363Y-49889348D01*
X53672544Y-49963024D01*
X53873024Y-50000500D01*
X53873026Y-50000500D01*
X54076974Y-50000500D01*
X54076976Y-50000500D01*
X54277456Y-49963024D01*
X54467637Y-49889348D01*
X54641041Y-49781981D01*
X54791764Y-49644579D01*
X54914673Y-49481821D01*
X55005582Y-49299250D01*
X55061397Y-49103083D01*
X55080215Y-48900000D01*
X55061397Y-48696917D01*
X55005582Y-48500750D01*
X55004608Y-48498794D01*
X54928439Y-48345826D01*
X54914673Y-48318179D01*
X54791764Y-48155421D01*
X54791762Y-48155418D01*
X54641041Y-48018019D01*
X54641039Y-48018017D01*
X54467642Y-47910655D01*
X54467635Y-47910651D01*
X54367812Y-47871980D01*
X54277456Y-47836976D01*
X54076976Y-47799500D01*
X53873024Y-47799500D01*
X53672544Y-47836976D01*
X53672541Y-47836976D01*
X53672541Y-47836977D01*
X53482364Y-47910651D01*
X53482357Y-47910655D01*
X53308960Y-48018017D01*
X53308958Y-48018019D01*
X53158237Y-48155418D01*
X53035327Y-48318178D01*
X52944422Y-48500739D01*
X52944417Y-48500752D01*
X52888602Y-48696917D01*
X52869785Y-48899999D01*
X46615739Y-48899999D01*
X46659673Y-48841821D01*
X46750582Y-48659250D01*
X46806397Y-48463083D01*
X46825215Y-48260000D01*
X46819115Y-48194174D01*
X46806397Y-48056917D01*
X46793048Y-48010000D01*
X46750582Y-47860750D01*
X46750159Y-47859901D01*
X46700415Y-47760000D01*
X46659673Y-47678179D01*
X46536764Y-47515421D01*
X46536762Y-47515418D01*
X46394051Y-47385321D01*
X65574500Y-47385321D01*
X65574500Y-49134678D01*
X65589032Y-49207735D01*
X65589033Y-49207739D01*
X65589034Y-49207740D01*
X65644399Y-49290601D01*
X65719777Y-49340966D01*
X65727260Y-49345966D01*
X65727264Y-49345967D01*
X65800321Y-49360499D01*
X65800324Y-49360500D01*
X65800326Y-49360500D01*
X67549676Y-49360500D01*
X67549677Y-49360499D01*
X67622740Y-49345966D01*
X67705601Y-49290601D01*
X67760966Y-49207740D01*
X67775500Y-49134674D01*
X67775500Y-47385326D01*
X67775500Y-47385323D01*
X67775499Y-47385321D01*
X67774504Y-47380321D01*
X69954500Y-47380321D01*
X69954500Y-49129678D01*
X69969032Y-49202735D01*
X69969033Y-49202739D01*
X69969034Y-49202740D01*
X70024399Y-49285601D01*
X70107260Y-49340966D01*
X70107264Y-49340967D01*
X70180321Y-49355499D01*
X70180324Y-49355500D01*
X70180326Y-49355500D01*
X71929676Y-49355500D01*
X71929677Y-49355499D01*
X72002740Y-49340966D01*
X72085601Y-49285601D01*
X72140966Y-49202740D01*
X72155500Y-49129674D01*
X72155500Y-47380326D01*
X72155500Y-47380323D01*
X72155499Y-47380321D01*
X72140967Y-47307264D01*
X72140966Y-47307260D01*
X72129868Y-47290651D01*
X72085601Y-47224399D01*
X72014969Y-47177205D01*
X72002739Y-47169033D01*
X72002735Y-47169032D01*
X71929677Y-47154500D01*
X71929674Y-47154500D01*
X70180326Y-47154500D01*
X70180323Y-47154500D01*
X70107264Y-47169032D01*
X70107260Y-47169033D01*
X70024399Y-47224399D01*
X69969033Y-47307260D01*
X69969032Y-47307264D01*
X69954500Y-47380321D01*
X67774504Y-47380321D01*
X67760967Y-47312264D01*
X67760966Y-47312260D01*
X67746528Y-47290652D01*
X67705601Y-47229399D01*
X67622740Y-47174034D01*
X67622739Y-47174033D01*
X67622735Y-47174032D01*
X67549677Y-47159500D01*
X67549674Y-47159500D01*
X65800326Y-47159500D01*
X65800323Y-47159500D01*
X65727264Y-47174032D01*
X65727260Y-47174033D01*
X65644399Y-47229399D01*
X65589033Y-47312260D01*
X65589032Y-47312264D01*
X65574500Y-47385321D01*
X46394051Y-47385321D01*
X46386041Y-47378019D01*
X46386039Y-47378017D01*
X46212642Y-47270655D01*
X46212635Y-47270651D01*
X46056403Y-47210127D01*
X46001001Y-47167554D01*
X45977411Y-47101787D01*
X45993122Y-47033707D01*
X46037946Y-46989999D01*
X85874785Y-46989999D01*
X85874785Y-46990000D01*
X85893602Y-47193082D01*
X85949417Y-47389247D01*
X85949422Y-47389260D01*
X86040327Y-47571821D01*
X86163237Y-47734581D01*
X86313958Y-47871980D01*
X86313960Y-47871982D01*
X86376413Y-47910651D01*
X86487363Y-47979348D01*
X86677544Y-48053024D01*
X86878024Y-48090500D01*
X86878026Y-48090500D01*
X87081974Y-48090500D01*
X87081976Y-48090500D01*
X87282456Y-48053024D01*
X87472637Y-47979348D01*
X87646041Y-47871981D01*
X87796764Y-47734579D01*
X87919673Y-47571821D01*
X88010582Y-47389250D01*
X88066397Y-47193083D01*
X88085215Y-46990000D01*
X88085215Y-46989999D01*
X88414785Y-46989999D01*
X88414785Y-46990000D01*
X88433602Y-47193082D01*
X88489417Y-47389247D01*
X88489422Y-47389260D01*
X88580327Y-47571821D01*
X88703237Y-47734581D01*
X88853958Y-47871980D01*
X88853960Y-47871982D01*
X88916413Y-47910651D01*
X89027363Y-47979348D01*
X89217544Y-48053024D01*
X89418024Y-48090500D01*
X89418026Y-48090500D01*
X89621974Y-48090500D01*
X89621976Y-48090500D01*
X89822456Y-48053024D01*
X90012637Y-47979348D01*
X90186041Y-47871981D01*
X90336764Y-47734579D01*
X90459673Y-47571821D01*
X90550582Y-47389250D01*
X90606397Y-47193083D01*
X90625215Y-46990000D01*
X90618461Y-46917116D01*
X90606397Y-46786917D01*
X90584325Y-46709344D01*
X90550582Y-46590750D01*
X90532605Y-46554648D01*
X90497715Y-46484579D01*
X90459673Y-46408179D01*
X90336764Y-46245421D01*
X90336762Y-46245418D01*
X90194051Y-46115321D01*
X90959500Y-46115321D01*
X90959500Y-47864678D01*
X90974032Y-47937735D01*
X90974033Y-47937739D01*
X90992405Y-47965235D01*
X91029399Y-48020601D01*
X91083751Y-48056917D01*
X91112260Y-48075966D01*
X91112264Y-48075967D01*
X91185321Y-48090499D01*
X91185324Y-48090500D01*
X91185326Y-48090500D01*
X92934676Y-48090500D01*
X92934677Y-48090499D01*
X93007740Y-48075966D01*
X93090601Y-48020601D01*
X93145966Y-47937740D01*
X93160500Y-47864674D01*
X93160500Y-46115326D01*
X93160500Y-46115323D01*
X93160499Y-46115321D01*
X93145967Y-46042264D01*
X93145966Y-46042260D01*
X93139665Y-46032830D01*
X93090601Y-45959399D01*
X93035235Y-45922405D01*
X93007739Y-45904033D01*
X93007735Y-45904032D01*
X92934677Y-45889500D01*
X92934674Y-45889500D01*
X91185326Y-45889500D01*
X91185323Y-45889500D01*
X91112264Y-45904032D01*
X91112260Y-45904033D01*
X91029399Y-45959399D01*
X90974033Y-46042260D01*
X90974032Y-46042264D01*
X90959500Y-46115321D01*
X90194051Y-46115321D01*
X90186041Y-46108019D01*
X90186039Y-46108017D01*
X90012642Y-46000655D01*
X90012635Y-46000651D01*
X89864033Y-45943083D01*
X89822456Y-45926976D01*
X89621976Y-45889500D01*
X89418024Y-45889500D01*
X89217544Y-45926976D01*
X89217541Y-45926976D01*
X89217541Y-45926977D01*
X89027364Y-46000651D01*
X89027357Y-46000655D01*
X88853960Y-46108017D01*
X88853958Y-46108019D01*
X88703237Y-46245418D01*
X88580327Y-46408178D01*
X88489422Y-46590739D01*
X88489417Y-46590752D01*
X88433602Y-46786917D01*
X88414785Y-46989999D01*
X88085215Y-46989999D01*
X88078461Y-46917116D01*
X88066397Y-46786917D01*
X88044325Y-46709344D01*
X88010582Y-46590750D01*
X87992605Y-46554648D01*
X87957715Y-46484579D01*
X87919673Y-46408179D01*
X87796764Y-46245421D01*
X87796762Y-46245418D01*
X87646041Y-46108019D01*
X87646039Y-46108017D01*
X87472642Y-46000655D01*
X87472635Y-46000651D01*
X87324033Y-45943083D01*
X87282456Y-45926976D01*
X87081976Y-45889500D01*
X86878024Y-45889500D01*
X86677544Y-45926976D01*
X86677541Y-45926976D01*
X86677541Y-45926977D01*
X86487364Y-46000651D01*
X86487357Y-46000655D01*
X86313960Y-46108017D01*
X86313958Y-46108019D01*
X86163237Y-46245418D01*
X86040327Y-46408178D01*
X85949422Y-46590739D01*
X85949417Y-46590752D01*
X85893602Y-46786917D01*
X85874785Y-46989999D01*
X46037946Y-46989999D01*
X46043146Y-46984928D01*
X46101197Y-46970500D01*
X50009422Y-46970500D01*
X50203826Y-46939709D01*
X50211806Y-46937116D01*
X50391025Y-46878884D01*
X50566405Y-46789524D01*
X50725646Y-46673828D01*
X50864828Y-46534646D01*
X50980524Y-46375405D01*
X51069884Y-46200025D01*
X51130709Y-46012826D01*
X51133145Y-45997446D01*
X51161500Y-45818422D01*
X51161500Y-45621577D01*
X51130709Y-45427173D01*
X51116924Y-45384749D01*
X77911972Y-45384749D01*
X77911972Y-45384750D01*
X77931012Y-45541568D01*
X77987030Y-45689273D01*
X78076767Y-45819280D01*
X78195010Y-45924033D01*
X78195012Y-45924034D01*
X78334884Y-45997446D01*
X78488264Y-46035250D01*
X78488265Y-46035250D01*
X78646235Y-46035250D01*
X78799615Y-45997446D01*
X78828616Y-45982225D01*
X78939490Y-45924033D01*
X79057733Y-45819280D01*
X79147470Y-45689273D01*
X79165559Y-45641577D01*
X97101500Y-45641577D01*
X97101500Y-45838422D01*
X97132290Y-46032826D01*
X97193117Y-46220029D01*
X97282476Y-46395405D01*
X97398172Y-46554646D01*
X97537354Y-46693828D01*
X97696595Y-46809524D01*
X97718137Y-46820500D01*
X97871970Y-46898882D01*
X97871972Y-46898882D01*
X97871975Y-46898884D01*
X97972317Y-46931487D01*
X98059173Y-46959709D01*
X98253578Y-46990500D01*
X101218803Y-46990500D01*
X101285842Y-47010185D01*
X101331597Y-47062989D01*
X101341541Y-47132147D01*
X101312516Y-47195703D01*
X101263597Y-47230127D01*
X101107364Y-47290651D01*
X101107357Y-47290655D01*
X100933960Y-47398017D01*
X100933958Y-47398019D01*
X100783237Y-47535418D01*
X100660327Y-47698178D01*
X100569422Y-47880739D01*
X100569417Y-47880752D01*
X100513602Y-48076917D01*
X100494785Y-48279999D01*
X100494785Y-48280000D01*
X100513602Y-48483082D01*
X100569417Y-48679247D01*
X100569422Y-48679260D01*
X100660327Y-48861821D01*
X100783237Y-49024581D01*
X100933958Y-49161980D01*
X100933960Y-49161982D01*
X100999787Y-49202740D01*
X101107363Y-49269348D01*
X101297544Y-49343024D01*
X101498024Y-49380500D01*
X101498026Y-49380500D01*
X101701974Y-49380500D01*
X101701976Y-49380500D01*
X101902456Y-49343024D01*
X102092637Y-49269348D01*
X102266041Y-49161981D01*
X102416764Y-49024579D01*
X102539673Y-48861821D01*
X102623044Y-48694389D01*
X102626817Y-48686812D01*
X102674319Y-48635575D01*
X102741982Y-48618153D01*
X102808323Y-48640078D01*
X102852278Y-48694389D01*
X102857592Y-48709989D01*
X102866567Y-48743485D01*
X102866570Y-48743492D01*
X102966399Y-48957578D01*
X103101894Y-49151082D01*
X103268917Y-49318105D01*
X103462421Y-49453600D01*
X103676507Y-49553429D01*
X103676516Y-49553433D01*
X103715583Y-49563901D01*
X103775244Y-49600266D01*
X103805773Y-49663113D01*
X103797479Y-49732488D01*
X103752993Y-49786366D01*
X103728284Y-49799302D01*
X103647373Y-49830647D01*
X103647357Y-49830655D01*
X103473960Y-49938017D01*
X103473958Y-49938019D01*
X103323237Y-50075418D01*
X103200327Y-50238178D01*
X103109422Y-50420739D01*
X103109417Y-50420752D01*
X103053602Y-50616917D01*
X103034785Y-50819999D01*
X103034785Y-50820000D01*
X103053602Y-51023082D01*
X103109417Y-51219247D01*
X103109422Y-51219260D01*
X103200327Y-51401821D01*
X103323237Y-51564581D01*
X103473958Y-51701980D01*
X103473960Y-51701982D01*
X103573141Y-51763392D01*
X103647363Y-51809348D01*
X103837544Y-51883024D01*
X104038024Y-51920500D01*
X104038026Y-51920500D01*
X104241974Y-51920500D01*
X104241976Y-51920500D01*
X104442456Y-51883024D01*
X104632637Y-51809348D01*
X104806041Y-51701981D01*
X104956764Y-51564579D01*
X105079673Y-51401821D01*
X105170582Y-51219250D01*
X105226397Y-51023083D01*
X105245215Y-50820000D01*
X105242898Y-50795000D01*
X105226397Y-50616917D01*
X105211716Y-50565321D01*
X105170582Y-50420750D01*
X105160624Y-50400752D01*
X105126272Y-50331764D01*
X105079673Y-50238179D01*
X104956764Y-50075421D01*
X104956762Y-50075418D01*
X104806041Y-49938019D01*
X104806039Y-49938017D01*
X104632642Y-49830655D01*
X104632635Y-49830651D01*
X104568104Y-49805652D01*
X104551714Y-49799302D01*
X104496313Y-49756730D01*
X104472723Y-49690963D01*
X104488434Y-49622883D01*
X104538458Y-49574104D01*
X104564417Y-49563901D01*
X104603481Y-49553434D01*
X104603492Y-49553429D01*
X104817578Y-49453600D01*
X105011082Y-49318105D01*
X105178105Y-49151082D01*
X105313600Y-48957578D01*
X105413429Y-48743492D01*
X105413432Y-48743486D01*
X105470636Y-48530000D01*
X104573012Y-48530000D01*
X104605925Y-48472993D01*
X104640000Y-48345826D01*
X104640000Y-48214174D01*
X104605925Y-48087007D01*
X104573012Y-48030000D01*
X105470636Y-48030000D01*
X105470635Y-48029999D01*
X105413432Y-47816513D01*
X105413429Y-47816507D01*
X105313600Y-47602422D01*
X105313599Y-47602420D01*
X105178113Y-47408926D01*
X105178108Y-47408920D01*
X105011082Y-47241894D01*
X104817578Y-47106399D01*
X104603492Y-47006570D01*
X104603477Y-47006564D01*
X104564414Y-46996097D01*
X104504754Y-46959732D01*
X104474226Y-46896885D01*
X104482521Y-46827509D01*
X104527007Y-46773632D01*
X104551710Y-46760698D01*
X104632637Y-46729348D01*
X104806041Y-46621981D01*
X104956764Y-46484579D01*
X105079673Y-46321821D01*
X105170582Y-46139250D01*
X105226397Y-45943083D01*
X105245215Y-45740000D01*
X105226397Y-45536917D01*
X105170582Y-45340750D01*
X105160624Y-45320752D01*
X105114405Y-45227931D01*
X105079673Y-45158179D01*
X104956764Y-44995421D01*
X104956762Y-44995418D01*
X104806041Y-44858019D01*
X104806039Y-44858017D01*
X104632642Y-44750655D01*
X104632635Y-44750651D01*
X104496547Y-44697931D01*
X104442456Y-44676976D01*
X104241976Y-44639500D01*
X104038024Y-44639500D01*
X103837544Y-44676976D01*
X103837541Y-44676976D01*
X103837541Y-44676977D01*
X103647364Y-44750651D01*
X103647357Y-44750655D01*
X103473960Y-44858017D01*
X103473958Y-44858019D01*
X103323237Y-44995418D01*
X103200327Y-45158178D01*
X103109422Y-45340739D01*
X103109417Y-45340752D01*
X103066294Y-45492311D01*
X103029014Y-45551404D01*
X102965704Y-45580961D01*
X102896465Y-45571599D01*
X102843279Y-45526288D01*
X102824555Y-45477775D01*
X102819709Y-45447174D01*
X102758884Y-45259975D01*
X102758882Y-45259972D01*
X102758882Y-45259970D01*
X102669523Y-45084594D01*
X102666350Y-45080227D01*
X102553828Y-44925354D01*
X102414646Y-44786172D01*
X102255405Y-44670476D01*
X102194611Y-44639500D01*
X102080029Y-44581117D01*
X101892828Y-44520291D01*
X101862497Y-44515487D01*
X101799363Y-44485557D01*
X101762433Y-44426245D01*
X101763431Y-44356382D01*
X101802042Y-44298150D01*
X101859110Y-44271126D01*
X101902456Y-44263024D01*
X102092637Y-44189348D01*
X102266041Y-44081981D01*
X102416764Y-43944579D01*
X102539673Y-43781821D01*
X102630582Y-43599250D01*
X102686397Y-43403083D01*
X102705215Y-43200000D01*
X102705215Y-43199999D01*
X103034785Y-43199999D01*
X103034785Y-43200000D01*
X103053602Y-43403082D01*
X103109417Y-43599247D01*
X103109422Y-43599260D01*
X103200327Y-43781821D01*
X103323237Y-43944581D01*
X103473958Y-44081980D01*
X103473960Y-44081982D01*
X103539445Y-44122528D01*
X103647363Y-44189348D01*
X103837544Y-44263024D01*
X104038024Y-44300500D01*
X104038026Y-44300500D01*
X104241974Y-44300500D01*
X104241976Y-44300500D01*
X104442456Y-44263024D01*
X104632637Y-44189348D01*
X104806041Y-44081981D01*
X104956764Y-43944579D01*
X105079673Y-43781821D01*
X105170582Y-43599250D01*
X105226397Y-43403083D01*
X105245215Y-43200000D01*
X105233660Y-43075304D01*
X105226397Y-42996917D01*
X105220706Y-42976917D01*
X105170582Y-42800750D01*
X105160624Y-42780752D01*
X105126272Y-42711764D01*
X105079673Y-42618179D01*
X104956764Y-42455421D01*
X104956762Y-42455418D01*
X104806041Y-42318019D01*
X104806039Y-42318017D01*
X104632642Y-42210655D01*
X104632635Y-42210651D01*
X104494095Y-42156981D01*
X104442456Y-42136976D01*
X104241976Y-42099500D01*
X104038024Y-42099500D01*
X103837544Y-42136976D01*
X103837541Y-42136976D01*
X103837541Y-42136977D01*
X103647364Y-42210651D01*
X103647357Y-42210655D01*
X103473960Y-42318017D01*
X103473958Y-42318019D01*
X103323237Y-42455418D01*
X103200327Y-42618178D01*
X103109422Y-42800739D01*
X103109417Y-42800752D01*
X103053602Y-42996917D01*
X103034785Y-43199999D01*
X102705215Y-43199999D01*
X102693660Y-43075304D01*
X102686397Y-42996917D01*
X102680706Y-42976917D01*
X102630582Y-42800750D01*
X102620624Y-42780752D01*
X102586272Y-42711764D01*
X102539673Y-42618179D01*
X102416764Y-42455421D01*
X102416762Y-42455418D01*
X102266041Y-42318019D01*
X102266039Y-42318017D01*
X102092642Y-42210655D01*
X102092635Y-42210651D01*
X101954095Y-42156981D01*
X101902456Y-42136976D01*
X101701976Y-42099500D01*
X101498024Y-42099500D01*
X101297544Y-42136976D01*
X101297541Y-42136976D01*
X101297541Y-42136977D01*
X101107364Y-42210651D01*
X101107357Y-42210655D01*
X100933960Y-42318017D01*
X100933958Y-42318019D01*
X100783237Y-42455418D01*
X100660327Y-42618178D01*
X100569422Y-42800739D01*
X100569417Y-42800752D01*
X100513602Y-42996917D01*
X100494785Y-43199999D01*
X100494785Y-43200000D01*
X100513602Y-43403082D01*
X100569417Y-43599247D01*
X100569422Y-43599260D01*
X100660327Y-43781821D01*
X100783237Y-43944581D01*
X100933958Y-44081980D01*
X100933960Y-44081982D01*
X100999445Y-44122528D01*
X101107363Y-44189348D01*
X101205288Y-44227284D01*
X101263597Y-44249873D01*
X101318999Y-44292446D01*
X101342589Y-44358213D01*
X101326878Y-44426293D01*
X101276854Y-44475072D01*
X101218803Y-44489500D01*
X98253578Y-44489500D01*
X98059173Y-44520290D01*
X97871970Y-44581117D01*
X97696594Y-44670476D01*
X97613772Y-44730651D01*
X97537354Y-44786172D01*
X97537352Y-44786174D01*
X97537351Y-44786174D01*
X97398174Y-44925351D01*
X97398174Y-44925352D01*
X97398172Y-44925354D01*
X97380106Y-44950220D01*
X97282476Y-45084594D01*
X97193117Y-45259970D01*
X97132290Y-45447173D01*
X97101500Y-45641577D01*
X79165559Y-45641577D01*
X79203487Y-45541568D01*
X79222528Y-45384750D01*
X79220181Y-45365421D01*
X79231641Y-45296499D01*
X79255593Y-45262798D01*
X80185185Y-44333206D01*
X80235839Y-44304641D01*
X80235352Y-44303356D01*
X80242365Y-44300696D01*
X80276478Y-44282792D01*
X80382240Y-44227283D01*
X80500483Y-44122530D01*
X80590220Y-43992523D01*
X80646237Y-43844818D01*
X80665278Y-43688000D01*
X80652074Y-43579250D01*
X80646237Y-43531181D01*
X80624992Y-43475164D01*
X80590220Y-43383477D01*
X80500483Y-43253470D01*
X80417550Y-43179999D01*
X85889785Y-43179999D01*
X85889785Y-43180000D01*
X85908602Y-43383082D01*
X85964417Y-43579247D01*
X85964422Y-43579260D01*
X86055327Y-43761821D01*
X86178237Y-43924581D01*
X86328958Y-44061980D01*
X86328960Y-44061982D01*
X86426746Y-44122528D01*
X86502363Y-44169348D01*
X86692544Y-44243024D01*
X86893024Y-44280500D01*
X86893026Y-44280500D01*
X87096974Y-44280500D01*
X87096976Y-44280500D01*
X87297456Y-44243024D01*
X87487637Y-44169348D01*
X87661041Y-44061981D01*
X87811764Y-43924579D01*
X87934673Y-43761821D01*
X88025582Y-43579250D01*
X88081397Y-43383083D01*
X88100215Y-43180000D01*
X88100215Y-43179999D01*
X88429785Y-43179999D01*
X88429785Y-43180000D01*
X88448602Y-43383082D01*
X88504417Y-43579247D01*
X88504422Y-43579260D01*
X88595327Y-43761821D01*
X88718237Y-43924581D01*
X88868958Y-44061980D01*
X88868960Y-44061982D01*
X88966746Y-44122528D01*
X89042363Y-44169348D01*
X89232544Y-44243024D01*
X89433024Y-44280500D01*
X89433026Y-44280500D01*
X89636974Y-44280500D01*
X89636976Y-44280500D01*
X89837456Y-44243024D01*
X90027637Y-44169348D01*
X90201041Y-44061981D01*
X90351764Y-43924579D01*
X90474673Y-43761821D01*
X90565582Y-43579250D01*
X90621397Y-43383083D01*
X90640215Y-43180000D01*
X90621397Y-42976917D01*
X90565582Y-42780750D01*
X90474673Y-42598179D01*
X90351764Y-42435421D01*
X90351762Y-42435418D01*
X90209051Y-42305321D01*
X90974500Y-42305321D01*
X90974500Y-44054678D01*
X90989032Y-44127735D01*
X90989033Y-44127739D01*
X90989034Y-44127740D01*
X91044399Y-44210601D01*
X91122854Y-44263022D01*
X91127260Y-44265966D01*
X91127264Y-44265967D01*
X91200321Y-44280499D01*
X91200324Y-44280500D01*
X91200326Y-44280500D01*
X92949676Y-44280500D01*
X92949677Y-44280499D01*
X93022740Y-44265966D01*
X93105601Y-44210601D01*
X93160966Y-44127740D01*
X93175500Y-44054674D01*
X93175500Y-42305326D01*
X93175500Y-42305323D01*
X93175499Y-42305321D01*
X93160967Y-42232264D01*
X93160966Y-42232260D01*
X93146528Y-42210652D01*
X93105601Y-42149399D01*
X93022740Y-42094034D01*
X93022739Y-42094033D01*
X93022735Y-42094032D01*
X92949677Y-42079500D01*
X92949674Y-42079500D01*
X91200326Y-42079500D01*
X91200323Y-42079500D01*
X91127264Y-42094032D01*
X91127260Y-42094033D01*
X91044399Y-42149399D01*
X90989033Y-42232260D01*
X90989032Y-42232264D01*
X90974500Y-42305321D01*
X90209051Y-42305321D01*
X90201041Y-42298019D01*
X90201039Y-42298017D01*
X90027642Y-42190655D01*
X90027635Y-42190651D01*
X89837675Y-42117061D01*
X89837456Y-42116976D01*
X89636976Y-42079500D01*
X89433024Y-42079500D01*
X89232544Y-42116976D01*
X89232541Y-42116976D01*
X89232541Y-42116977D01*
X89042364Y-42190651D01*
X89042357Y-42190655D01*
X88868960Y-42298017D01*
X88868958Y-42298019D01*
X88718237Y-42435418D01*
X88595327Y-42598178D01*
X88504422Y-42780739D01*
X88504417Y-42780752D01*
X88448602Y-42976917D01*
X88429785Y-43179999D01*
X88100215Y-43179999D01*
X88081397Y-42976917D01*
X88025582Y-42780750D01*
X87934673Y-42598179D01*
X87811764Y-42435421D01*
X87811762Y-42435418D01*
X87661041Y-42298019D01*
X87661039Y-42298017D01*
X87487642Y-42190655D01*
X87487635Y-42190651D01*
X87297675Y-42117061D01*
X87297456Y-42116976D01*
X87096976Y-42079500D01*
X86893024Y-42079500D01*
X86692544Y-42116976D01*
X86692541Y-42116976D01*
X86692541Y-42116977D01*
X86502364Y-42190651D01*
X86502357Y-42190655D01*
X86328960Y-42298017D01*
X86328958Y-42298019D01*
X86178237Y-42435418D01*
X86055327Y-42598178D01*
X85964422Y-42780739D01*
X85964417Y-42780752D01*
X85908602Y-42976917D01*
X85889785Y-43179999D01*
X80417550Y-43179999D01*
X80382240Y-43148717D01*
X80382238Y-43148716D01*
X80382237Y-43148715D01*
X80242365Y-43075303D01*
X80088986Y-43037500D01*
X80088985Y-43037500D01*
X79931015Y-43037500D01*
X79931014Y-43037500D01*
X79777634Y-43075303D01*
X79637762Y-43148715D01*
X79519516Y-43253471D01*
X79429781Y-43383475D01*
X79429780Y-43383476D01*
X79373762Y-43531181D01*
X79354722Y-43687999D01*
X79354722Y-43688000D01*
X79373762Y-43844814D01*
X79373763Y-43844820D01*
X79391260Y-43890954D01*
X79396627Y-43960617D01*
X79363479Y-44022124D01*
X79362999Y-44022606D01*
X78687675Y-44697931D01*
X78626352Y-44731416D01*
X78599994Y-44734250D01*
X78488264Y-44734250D01*
X78334884Y-44772053D01*
X78195012Y-44845465D01*
X78127414Y-44905351D01*
X78104838Y-44925352D01*
X78076766Y-44950221D01*
X77987031Y-45080225D01*
X77987030Y-45080226D01*
X77931012Y-45227931D01*
X77911972Y-45384749D01*
X51116924Y-45384749D01*
X51096130Y-45320752D01*
X51069884Y-45239975D01*
X51069882Y-45239972D01*
X51069882Y-45239970D01*
X50990714Y-45084594D01*
X50980524Y-45064595D01*
X50864828Y-44905354D01*
X50725646Y-44766172D01*
X50566405Y-44650476D01*
X50505611Y-44619500D01*
X50391029Y-44561117D01*
X50203826Y-44500290D01*
X50009422Y-44469500D01*
X50009417Y-44469500D01*
X46101197Y-44469500D01*
X46034158Y-44449815D01*
X45988403Y-44397011D01*
X45978459Y-44327853D01*
X46007484Y-44264297D01*
X46056403Y-44229873D01*
X46065246Y-44226447D01*
X46212637Y-44169348D01*
X46386041Y-44061981D01*
X46536764Y-43924579D01*
X46659673Y-43761821D01*
X46750582Y-43579250D01*
X46806397Y-43383083D01*
X46825215Y-43180000D01*
X46806397Y-42976917D01*
X46750582Y-42780750D01*
X46659673Y-42598179D01*
X46536764Y-42435421D01*
X46536762Y-42435418D01*
X46386041Y-42298019D01*
X46386039Y-42298017D01*
X46212642Y-42190655D01*
X46212635Y-42190651D01*
X46022675Y-42117061D01*
X46022456Y-42116976D01*
X45821976Y-42079500D01*
X45618024Y-42079500D01*
X45417544Y-42116976D01*
X45417541Y-42116976D01*
X45417541Y-42116977D01*
X45227364Y-42190651D01*
X45227357Y-42190655D01*
X45053960Y-42298017D01*
X45053958Y-42298019D01*
X44903237Y-42435418D01*
X44780327Y-42598178D01*
X44689422Y-42780739D01*
X44689417Y-42780752D01*
X44633602Y-42976917D01*
X44614785Y-43179999D01*
X44614785Y-43180000D01*
X44633602Y-43383082D01*
X44689417Y-43579247D01*
X44689422Y-43579260D01*
X44780327Y-43761821D01*
X44903237Y-43924581D01*
X45053958Y-44061980D01*
X45053960Y-44061982D01*
X45151746Y-44122528D01*
X45227363Y-44169348D01*
X45333850Y-44210601D01*
X45417538Y-44243022D01*
X45417544Y-44243024D01*
X45460889Y-44251126D01*
X45523167Y-44282792D01*
X45558441Y-44343104D01*
X45555508Y-44412912D01*
X45515299Y-44470053D01*
X45457502Y-44495487D01*
X45427171Y-44500291D01*
X45239970Y-44561117D01*
X45064594Y-44650476D01*
X44999279Y-44697931D01*
X44905354Y-44766172D01*
X44905352Y-44766174D01*
X44905351Y-44766174D01*
X44766174Y-44905351D01*
X44766174Y-44905352D01*
X44766172Y-44905354D01*
X44751643Y-44925352D01*
X44650476Y-45064594D01*
X44561117Y-45239970D01*
X44500291Y-45427172D01*
X44495444Y-45457775D01*
X44465514Y-45520909D01*
X44406202Y-45557840D01*
X44336340Y-45556842D01*
X44278107Y-45518232D01*
X44253705Y-45472311D01*
X44246553Y-45447174D01*
X44210582Y-45320750D01*
X44202982Y-45305488D01*
X44164364Y-45227931D01*
X44119673Y-45138179D01*
X43996764Y-44975421D01*
X43996762Y-44975418D01*
X43846041Y-44838019D01*
X43846039Y-44838017D01*
X43672642Y-44730655D01*
X43672635Y-44730651D01*
X43534082Y-44676976D01*
X43482456Y-44656976D01*
X43281976Y-44619500D01*
X43078024Y-44619500D01*
X42877544Y-44656976D01*
X42877541Y-44656976D01*
X42877541Y-44656977D01*
X42687364Y-44730651D01*
X42687357Y-44730655D01*
X42513960Y-44838017D01*
X42513958Y-44838019D01*
X42363237Y-44975418D01*
X42240327Y-45138178D01*
X42149422Y-45320739D01*
X42149417Y-45320752D01*
X42093602Y-45516917D01*
X42074785Y-45719999D01*
X42074785Y-45720000D01*
X42093602Y-45923082D01*
X42149417Y-46119247D01*
X42149422Y-46119260D01*
X42240327Y-46301821D01*
X42363237Y-46464581D01*
X42513958Y-46601980D01*
X42513960Y-46601982D01*
X42613141Y-46663392D01*
X42687363Y-46709348D01*
X42768283Y-46740696D01*
X42823685Y-46783269D01*
X42847276Y-46849035D01*
X42831565Y-46917116D01*
X42781542Y-46965895D01*
X42755586Y-46976097D01*
X42716519Y-46986565D01*
X42716507Y-46986570D01*
X42502422Y-47086399D01*
X42502420Y-47086400D01*
X42308926Y-47221886D01*
X42308920Y-47221891D01*
X42141891Y-47388920D01*
X42141886Y-47388926D01*
X42006400Y-47582420D01*
X42006399Y-47582422D01*
X41906570Y-47796507D01*
X41906567Y-47796513D01*
X41849364Y-48009999D01*
X39870500Y-48009999D01*
X39870500Y-43179999D01*
X42074785Y-43179999D01*
X42074785Y-43180000D01*
X42093602Y-43383082D01*
X42149417Y-43579247D01*
X42149422Y-43579260D01*
X42240327Y-43761821D01*
X42363237Y-43924581D01*
X42513958Y-44061980D01*
X42513960Y-44061982D01*
X42611746Y-44122528D01*
X42687363Y-44169348D01*
X42877544Y-44243024D01*
X43078024Y-44280500D01*
X43078026Y-44280500D01*
X43281974Y-44280500D01*
X43281976Y-44280500D01*
X43482456Y-44243024D01*
X43672637Y-44169348D01*
X43846041Y-44061981D01*
X43996764Y-43924579D01*
X44119673Y-43761821D01*
X44210582Y-43579250D01*
X44266397Y-43383083D01*
X44285215Y-43180000D01*
X44266397Y-42976917D01*
X44210582Y-42780750D01*
X44119673Y-42598179D01*
X43996764Y-42435421D01*
X43996762Y-42435418D01*
X43846041Y-42298019D01*
X43846039Y-42298017D01*
X43672642Y-42190655D01*
X43672635Y-42190651D01*
X43482675Y-42117061D01*
X43482456Y-42116976D01*
X43281976Y-42079500D01*
X43078024Y-42079500D01*
X42877544Y-42116976D01*
X42877541Y-42116976D01*
X42877541Y-42116977D01*
X42687364Y-42190651D01*
X42687357Y-42190655D01*
X42513960Y-42298017D01*
X42513958Y-42298019D01*
X42363237Y-42435418D01*
X42240327Y-42598178D01*
X42149422Y-42780739D01*
X42149417Y-42780752D01*
X42093602Y-42976917D01*
X42074785Y-43179999D01*
X39870500Y-43179999D01*
X39870500Y-40639999D01*
X42074785Y-40639999D01*
X42074785Y-40640000D01*
X42093602Y-40843082D01*
X42149417Y-41039247D01*
X42149422Y-41039260D01*
X42240327Y-41221821D01*
X42363237Y-41384581D01*
X42513958Y-41521980D01*
X42513960Y-41521982D01*
X42573453Y-41558818D01*
X42687363Y-41629348D01*
X42877544Y-41703024D01*
X43078024Y-41740500D01*
X43078026Y-41740500D01*
X43281974Y-41740500D01*
X43281976Y-41740500D01*
X43482456Y-41703024D01*
X43672637Y-41629348D01*
X43846041Y-41521981D01*
X43996764Y-41384579D01*
X44119673Y-41221821D01*
X44210582Y-41039250D01*
X44266397Y-40843083D01*
X44285215Y-40640000D01*
X44285215Y-40639999D01*
X44614785Y-40639999D01*
X44614785Y-40640000D01*
X44633602Y-40843082D01*
X44689417Y-41039247D01*
X44689422Y-41039260D01*
X44780327Y-41221821D01*
X44903237Y-41384581D01*
X45053958Y-41521980D01*
X45053960Y-41521982D01*
X45113453Y-41558818D01*
X45227363Y-41629348D01*
X45417544Y-41703024D01*
X45618024Y-41740500D01*
X45618026Y-41740500D01*
X45821974Y-41740500D01*
X45821976Y-41740500D01*
X46022456Y-41703024D01*
X46212637Y-41629348D01*
X46386041Y-41521981D01*
X46536764Y-41384579D01*
X46659673Y-41221821D01*
X46750582Y-41039250D01*
X46806397Y-40843083D01*
X46825215Y-40640000D01*
X46806397Y-40436917D01*
X46750582Y-40240750D01*
X46736254Y-40211976D01*
X46685325Y-40109696D01*
X46659673Y-40058179D01*
X46557654Y-39923084D01*
X46536762Y-39895418D01*
X46386041Y-39758019D01*
X46386039Y-39758017D01*
X46212642Y-39650655D01*
X46212635Y-39650651D01*
X46074082Y-39596976D01*
X46022456Y-39576976D01*
X45821976Y-39539500D01*
X45618024Y-39539500D01*
X45417544Y-39576976D01*
X45417541Y-39576976D01*
X45417541Y-39576977D01*
X45227364Y-39650651D01*
X45227357Y-39650655D01*
X45053960Y-39758017D01*
X45053958Y-39758019D01*
X44903237Y-39895418D01*
X44780327Y-40058178D01*
X44689422Y-40240739D01*
X44689417Y-40240752D01*
X44633602Y-40436917D01*
X44614785Y-40639999D01*
X44285215Y-40639999D01*
X44266397Y-40436917D01*
X44210582Y-40240750D01*
X44196254Y-40211976D01*
X44145325Y-40109696D01*
X44119673Y-40058179D01*
X44017654Y-39923084D01*
X43996762Y-39895418D01*
X43846041Y-39758019D01*
X43846039Y-39758017D01*
X43672642Y-39650655D01*
X43672635Y-39650651D01*
X43534082Y-39596976D01*
X43482456Y-39576976D01*
X43281976Y-39539500D01*
X43078024Y-39539500D01*
X42877544Y-39576976D01*
X42877541Y-39576976D01*
X42877541Y-39576977D01*
X42687364Y-39650651D01*
X42687357Y-39650655D01*
X42513960Y-39758017D01*
X42513958Y-39758019D01*
X42363237Y-39895418D01*
X42240327Y-40058178D01*
X42149422Y-40240739D01*
X42149417Y-40240752D01*
X42093602Y-40436917D01*
X42074785Y-40639999D01*
X39870500Y-40639999D01*
X39870500Y-38099999D01*
X42074785Y-38099999D01*
X42074785Y-38100000D01*
X42093602Y-38303082D01*
X42149417Y-38499247D01*
X42149422Y-38499260D01*
X42240327Y-38681821D01*
X42363237Y-38844581D01*
X42513958Y-38981980D01*
X42513960Y-38981982D01*
X42590705Y-39029500D01*
X42687363Y-39089348D01*
X42877544Y-39163024D01*
X43078024Y-39200500D01*
X43078026Y-39200500D01*
X43281974Y-39200500D01*
X43281976Y-39200500D01*
X43482456Y-39163024D01*
X43672637Y-39089348D01*
X43846041Y-38981981D01*
X43996764Y-38844579D01*
X44119673Y-38681821D01*
X44210582Y-38499250D01*
X44266397Y-38303083D01*
X44285215Y-38100000D01*
X44285215Y-38099999D01*
X44614785Y-38099999D01*
X44614785Y-38100000D01*
X44633602Y-38303082D01*
X44689417Y-38499247D01*
X44689422Y-38499260D01*
X44780327Y-38681821D01*
X44903237Y-38844581D01*
X45053958Y-38981980D01*
X45053960Y-38981982D01*
X45130705Y-39029500D01*
X45227363Y-39089348D01*
X45417544Y-39163024D01*
X45618024Y-39200500D01*
X45618026Y-39200500D01*
X45821974Y-39200500D01*
X45821976Y-39200500D01*
X46022456Y-39163024D01*
X46212637Y-39089348D01*
X46386041Y-38981981D01*
X46536764Y-38844579D01*
X46659673Y-38681821D01*
X46750582Y-38499250D01*
X46806397Y-38303083D01*
X46825215Y-38100000D01*
X46806397Y-37896917D01*
X46750582Y-37700750D01*
X46745207Y-37689956D01*
X46680472Y-37559949D01*
X46659673Y-37518179D01*
X46536764Y-37355421D01*
X46536762Y-37355418D01*
X46427074Y-37255425D01*
X47776148Y-37255425D01*
X47776148Y-37255426D01*
X47795188Y-37412244D01*
X47842949Y-37538178D01*
X47851206Y-37559949D01*
X47940943Y-37689956D01*
X48059186Y-37794709D01*
X48059188Y-37794710D01*
X48199060Y-37868122D01*
X48249773Y-37880621D01*
X48338994Y-37902611D01*
X48397000Y-37935327D01*
X51647137Y-41185464D01*
X51680622Y-41246787D01*
X51682552Y-41288091D01*
X51668722Y-41401999D01*
X51668722Y-41402000D01*
X51687762Y-41558818D01*
X51724513Y-41655720D01*
X51743780Y-41706523D01*
X51833517Y-41836530D01*
X51951760Y-41941283D01*
X51951762Y-41941284D01*
X52091634Y-42014696D01*
X52245014Y-42052500D01*
X52245015Y-42052500D01*
X52402985Y-42052500D01*
X52556365Y-42014696D01*
X52660117Y-41960242D01*
X57460479Y-41960242D01*
X57460479Y-41960243D01*
X57479519Y-42117061D01*
X57535377Y-42264344D01*
X57535537Y-42264766D01*
X57625274Y-42394773D01*
X57743517Y-42499526D01*
X57743519Y-42499527D01*
X57883391Y-42572939D01*
X58036771Y-42610743D01*
X58036772Y-42610743D01*
X58194742Y-42610743D01*
X58348122Y-42572939D01*
X58487997Y-42499526D01*
X58606240Y-42394773D01*
X58695977Y-42264766D01*
X58751994Y-42117061D01*
X58771035Y-41960243D01*
X58757204Y-41846333D01*
X58768664Y-41777410D01*
X58792616Y-41743709D01*
X60136004Y-40400321D01*
X68114500Y-40400321D01*
X68114500Y-42149678D01*
X68129032Y-42222735D01*
X68129033Y-42222739D01*
X68147405Y-42250235D01*
X68184399Y-42305601D01*
X68267260Y-42360966D01*
X68267264Y-42360967D01*
X68340321Y-42375499D01*
X68340324Y-42375500D01*
X68340326Y-42375500D01*
X70089676Y-42375500D01*
X70089677Y-42375499D01*
X70162740Y-42360966D01*
X70245601Y-42305601D01*
X70300966Y-42222740D01*
X70315500Y-42149674D01*
X70315500Y-41274999D01*
X70649785Y-41274999D01*
X70649785Y-41275000D01*
X70668602Y-41478082D01*
X70724417Y-41674247D01*
X70724422Y-41674260D01*
X70815327Y-41856821D01*
X70938237Y-42019581D01*
X71088958Y-42156980D01*
X71088960Y-42156982D01*
X71143344Y-42190655D01*
X71262363Y-42264348D01*
X71452544Y-42338024D01*
X71653024Y-42375500D01*
X71653026Y-42375500D01*
X71856974Y-42375500D01*
X71856976Y-42375500D01*
X72057456Y-42338024D01*
X72247637Y-42264348D01*
X72421041Y-42156981D01*
X72571764Y-42019579D01*
X72694673Y-41856821D01*
X72785582Y-41674250D01*
X72841397Y-41478083D01*
X72860215Y-41275000D01*
X72851918Y-41185464D01*
X72841397Y-41071917D01*
X72831429Y-41036884D01*
X72785582Y-40875750D01*
X72781640Y-40867834D01*
X72710036Y-40724033D01*
X72694673Y-40693179D01*
X72601203Y-40569405D01*
X72571762Y-40530418D01*
X72421041Y-40393019D01*
X72421039Y-40393017D01*
X72247642Y-40285655D01*
X72247635Y-40285651D01*
X72131702Y-40240739D01*
X72057456Y-40211976D01*
X71856976Y-40174500D01*
X71653024Y-40174500D01*
X71452544Y-40211976D01*
X71452541Y-40211976D01*
X71452541Y-40211977D01*
X71262364Y-40285651D01*
X71262357Y-40285655D01*
X71088960Y-40393017D01*
X71088958Y-40393019D01*
X70938237Y-40530418D01*
X70815327Y-40693178D01*
X70724422Y-40875739D01*
X70724417Y-40875752D01*
X70668602Y-41071917D01*
X70649785Y-41274999D01*
X70315500Y-41274999D01*
X70315500Y-40400326D01*
X70315500Y-40400323D01*
X70315499Y-40400321D01*
X70300967Y-40327264D01*
X70300966Y-40327260D01*
X70245601Y-40244399D01*
X70162740Y-40189034D01*
X70162739Y-40189033D01*
X70162735Y-40189032D01*
X70089677Y-40174500D01*
X70089674Y-40174500D01*
X68340326Y-40174500D01*
X68340323Y-40174500D01*
X68267264Y-40189032D01*
X68267260Y-40189033D01*
X68184399Y-40244399D01*
X68129033Y-40327260D01*
X68129032Y-40327264D01*
X68114500Y-40400321D01*
X60136004Y-40400321D01*
X61779652Y-38756672D01*
X61779657Y-38756669D01*
X61789860Y-38746465D01*
X61789862Y-38746465D01*
X61850465Y-38685862D01*
X61893318Y-38611638D01*
X61896861Y-38598416D01*
X61915501Y-38528852D01*
X61915501Y-38443147D01*
X61915501Y-38435552D01*
X61915500Y-38435534D01*
X61915500Y-34244500D01*
X61935185Y-34177461D01*
X61987989Y-34131706D01*
X62039500Y-34120500D01*
X62464676Y-34120500D01*
X62464677Y-34120499D01*
X62537740Y-34105966D01*
X62620601Y-34050601D01*
X62675966Y-33967740D01*
X62690500Y-33894674D01*
X62690500Y-33019999D01*
X63024785Y-33019999D01*
X63024785Y-33020000D01*
X63043602Y-33223082D01*
X63099417Y-33419247D01*
X63099422Y-33419260D01*
X63190327Y-33601821D01*
X63313237Y-33764581D01*
X63463958Y-33901980D01*
X63463960Y-33901982D01*
X63563141Y-33963392D01*
X63637363Y-34009348D01*
X63827544Y-34083024D01*
X63969332Y-34109528D01*
X64031612Y-34141196D01*
X64066885Y-34201509D01*
X64069642Y-34246363D01*
X64050988Y-34399999D01*
X64050988Y-34400000D01*
X64070028Y-34556818D01*
X64126046Y-34704523D01*
X64126047Y-34704524D01*
X64215783Y-34834531D01*
X64266206Y-34879200D01*
X64334026Y-34939283D01*
X64334029Y-34939284D01*
X64338992Y-34943681D01*
X64376119Y-35002870D01*
X64380766Y-35036497D01*
X64380766Y-38358544D01*
X64361081Y-38425583D01*
X64344447Y-38446225D01*
X63971638Y-38819033D01*
X63910315Y-38852518D01*
X63854284Y-38851749D01*
X63832987Y-38846500D01*
X63832985Y-38846500D01*
X63675015Y-38846500D01*
X63675014Y-38846500D01*
X63521634Y-38884303D01*
X63381762Y-38957715D01*
X63263516Y-39062471D01*
X63173781Y-39192475D01*
X63173780Y-39192476D01*
X63117762Y-39340181D01*
X63098722Y-39496999D01*
X63098722Y-39497000D01*
X63117762Y-39653818D01*
X63130849Y-39688324D01*
X63173780Y-39801523D01*
X63263517Y-39931530D01*
X63381760Y-40036283D01*
X63381762Y-40036284D01*
X63521634Y-40109696D01*
X63675014Y-40147500D01*
X63675015Y-40147500D01*
X63832985Y-40147500D01*
X63986365Y-40109696D01*
X64126240Y-40036283D01*
X64244483Y-39931530D01*
X64334220Y-39801523D01*
X64342543Y-39779577D01*
X85490500Y-39779577D01*
X85490500Y-39976422D01*
X85521290Y-40170826D01*
X85582117Y-40358029D01*
X85669954Y-40530418D01*
X85671476Y-40533405D01*
X85787172Y-40692646D01*
X85926354Y-40831828D01*
X86085595Y-40947524D01*
X86168455Y-40989743D01*
X86260970Y-41036882D01*
X86260972Y-41036882D01*
X86260975Y-41036884D01*
X86329801Y-41059247D01*
X86448173Y-41097709D01*
X86642578Y-41128500D01*
X86642583Y-41128500D01*
X90095502Y-41128500D01*
X90126236Y-41133368D01*
X90126428Y-41132570D01*
X90131165Y-41133706D01*
X90131174Y-41133709D01*
X90231333Y-41149572D01*
X90325579Y-41164500D01*
X90325584Y-41164500D01*
X90522422Y-41164500D01*
X90716827Y-41133709D01*
X90720332Y-41132570D01*
X90904026Y-41072884D01*
X91079405Y-40983524D01*
X91238646Y-40867829D01*
X91377829Y-40728646D01*
X91427704Y-40659999D01*
X100494785Y-40659999D01*
X100494785Y-40660000D01*
X100513602Y-40863082D01*
X100569417Y-41059247D01*
X100569422Y-41059260D01*
X100660327Y-41241821D01*
X100783237Y-41404581D01*
X100933958Y-41541980D01*
X100933960Y-41541982D01*
X101033141Y-41603392D01*
X101107363Y-41649348D01*
X101297544Y-41723024D01*
X101498024Y-41760500D01*
X101498026Y-41760500D01*
X101701974Y-41760500D01*
X101701976Y-41760500D01*
X101902456Y-41723024D01*
X102092637Y-41649348D01*
X102266041Y-41541981D01*
X102416764Y-41404579D01*
X102539673Y-41241821D01*
X102630582Y-41059250D01*
X102686397Y-40863083D01*
X102705215Y-40660000D01*
X102705215Y-40659999D01*
X103034785Y-40659999D01*
X103034785Y-40660000D01*
X103053602Y-40863082D01*
X103109417Y-41059247D01*
X103109422Y-41059260D01*
X103200327Y-41241821D01*
X103323237Y-41404581D01*
X103473958Y-41541980D01*
X103473960Y-41541982D01*
X103573141Y-41603392D01*
X103647363Y-41649348D01*
X103837544Y-41723024D01*
X104038024Y-41760500D01*
X104038026Y-41760500D01*
X104241974Y-41760500D01*
X104241976Y-41760500D01*
X104442456Y-41723024D01*
X104632637Y-41649348D01*
X104806041Y-41541981D01*
X104956764Y-41404579D01*
X105079673Y-41241821D01*
X105170582Y-41059250D01*
X105226397Y-40863083D01*
X105245215Y-40660000D01*
X105226397Y-40456917D01*
X105170582Y-40260750D01*
X105162440Y-40244399D01*
X105125805Y-40170826D01*
X105079673Y-40078179D01*
X104968929Y-39931530D01*
X104956762Y-39915418D01*
X104806041Y-39778019D01*
X104806039Y-39778017D01*
X104632642Y-39670655D01*
X104632635Y-39670651D01*
X104537546Y-39633814D01*
X104442456Y-39596976D01*
X104241976Y-39559500D01*
X104038024Y-39559500D01*
X103837544Y-39596976D01*
X103837541Y-39596976D01*
X103837541Y-39596977D01*
X103647364Y-39670651D01*
X103647357Y-39670655D01*
X103473960Y-39778017D01*
X103473958Y-39778019D01*
X103323237Y-39915418D01*
X103200327Y-40078178D01*
X103109422Y-40260739D01*
X103109417Y-40260752D01*
X103053602Y-40456917D01*
X103034785Y-40659999D01*
X102705215Y-40659999D01*
X102686397Y-40456917D01*
X102630582Y-40260750D01*
X102622440Y-40244399D01*
X102585805Y-40170826D01*
X102539673Y-40078179D01*
X102428929Y-39931530D01*
X102416762Y-39915418D01*
X102266041Y-39778019D01*
X102266039Y-39778017D01*
X102092642Y-39670655D01*
X102092635Y-39670651D01*
X101997546Y-39633814D01*
X101902456Y-39596976D01*
X101701976Y-39559500D01*
X101498024Y-39559500D01*
X101297544Y-39596976D01*
X101297541Y-39596976D01*
X101297541Y-39596977D01*
X101107364Y-39670651D01*
X101107357Y-39670655D01*
X100933960Y-39778017D01*
X100933958Y-39778019D01*
X100783237Y-39915418D01*
X100660327Y-40078178D01*
X100569422Y-40260739D01*
X100569417Y-40260752D01*
X100513602Y-40456917D01*
X100494785Y-40659999D01*
X91427704Y-40659999D01*
X91493524Y-40569405D01*
X91582884Y-40394026D01*
X91643709Y-40206827D01*
X91649411Y-40170826D01*
X91674500Y-40012422D01*
X91674500Y-39815578D01*
X91643709Y-39621173D01*
X91582882Y-39433969D01*
X91493523Y-39258594D01*
X91377829Y-39099355D01*
X91202646Y-38924172D01*
X91043405Y-38808476D01*
X90989991Y-38781260D01*
X90868030Y-38719117D01*
X90680826Y-38658290D01*
X90486422Y-38627500D01*
X90486417Y-38627500D01*
X86642583Y-38627500D01*
X86642578Y-38627500D01*
X86448173Y-38658290D01*
X86260970Y-38719117D01*
X86085594Y-38808476D01*
X86003014Y-38868475D01*
X85926354Y-38924172D01*
X85926352Y-38924174D01*
X85926351Y-38924174D01*
X85787174Y-39063351D01*
X85787174Y-39063352D01*
X85787172Y-39063354D01*
X85768289Y-39089344D01*
X85671476Y-39222594D01*
X85582117Y-39397970D01*
X85521290Y-39585173D01*
X85490500Y-39779577D01*
X64342543Y-39779577D01*
X64390237Y-39653818D01*
X64409278Y-39497000D01*
X64395447Y-39383090D01*
X64406907Y-39314167D01*
X64430859Y-39280466D01*
X64966731Y-38744596D01*
X64984667Y-38713530D01*
X65009584Y-38670372D01*
X65031766Y-38587587D01*
X65031766Y-38119999D01*
X100494785Y-38119999D01*
X100494785Y-38120000D01*
X100513602Y-38323082D01*
X100569417Y-38519247D01*
X100569422Y-38519260D01*
X100660327Y-38701821D01*
X100783237Y-38864581D01*
X100933958Y-39001980D01*
X100933960Y-39001982D01*
X101031652Y-39062470D01*
X101107363Y-39109348D01*
X101297544Y-39183024D01*
X101498024Y-39220500D01*
X101498026Y-39220500D01*
X101701974Y-39220500D01*
X101701976Y-39220500D01*
X101902456Y-39183024D01*
X102092637Y-39109348D01*
X102266041Y-39001981D01*
X102395128Y-38884303D01*
X102416762Y-38864581D01*
X102416764Y-38864579D01*
X102539673Y-38701821D01*
X102630582Y-38519250D01*
X102686397Y-38323083D01*
X102705215Y-38120000D01*
X102705215Y-38119999D01*
X103034785Y-38119999D01*
X103034785Y-38120000D01*
X103053602Y-38323082D01*
X103109417Y-38519247D01*
X103109422Y-38519260D01*
X103200327Y-38701821D01*
X103323237Y-38864581D01*
X103473958Y-39001980D01*
X103473960Y-39001982D01*
X103571652Y-39062470D01*
X103647363Y-39109348D01*
X103837544Y-39183024D01*
X104038024Y-39220500D01*
X104038026Y-39220500D01*
X104241974Y-39220500D01*
X104241976Y-39220500D01*
X104442456Y-39183024D01*
X104632637Y-39109348D01*
X104806041Y-39001981D01*
X104935128Y-38884303D01*
X104956762Y-38864581D01*
X104956764Y-38864579D01*
X105079673Y-38701821D01*
X105170582Y-38519250D01*
X105226397Y-38323083D01*
X105245215Y-38120000D01*
X105226397Y-37916917D01*
X105170582Y-37720750D01*
X105160624Y-37700752D01*
X105110949Y-37600990D01*
X105079673Y-37538179D01*
X105020704Y-37460091D01*
X104956762Y-37375418D01*
X104806041Y-37238019D01*
X104806039Y-37238017D01*
X104632642Y-37130655D01*
X104632635Y-37130651D01*
X104537546Y-37093814D01*
X104442456Y-37056976D01*
X104241976Y-37019500D01*
X104038024Y-37019500D01*
X103837544Y-37056976D01*
X103837541Y-37056976D01*
X103837541Y-37056977D01*
X103647364Y-37130651D01*
X103647357Y-37130655D01*
X103473960Y-37238017D01*
X103473958Y-37238019D01*
X103323237Y-37375418D01*
X103200327Y-37538178D01*
X103109422Y-37720739D01*
X103109417Y-37720752D01*
X103053602Y-37916917D01*
X103034785Y-38119999D01*
X102705215Y-38119999D01*
X102686397Y-37916917D01*
X102630582Y-37720750D01*
X102620624Y-37700752D01*
X102570949Y-37600990D01*
X102539673Y-37538179D01*
X102480704Y-37460091D01*
X102416762Y-37375418D01*
X102266041Y-37238019D01*
X102266039Y-37238017D01*
X102092642Y-37130655D01*
X102092635Y-37130651D01*
X101997546Y-37093814D01*
X101902456Y-37056976D01*
X101701976Y-37019500D01*
X101498024Y-37019500D01*
X101297544Y-37056976D01*
X101297541Y-37056976D01*
X101297541Y-37056977D01*
X101107364Y-37130651D01*
X101107357Y-37130655D01*
X100933960Y-37238017D01*
X100933958Y-37238019D01*
X100783237Y-37375418D01*
X100660327Y-37538178D01*
X100569422Y-37720739D01*
X100569417Y-37720752D01*
X100513602Y-37916917D01*
X100494785Y-38119999D01*
X65031766Y-38119999D01*
X65031766Y-35579999D01*
X100494785Y-35579999D01*
X100494785Y-35580000D01*
X100513602Y-35783082D01*
X100569417Y-35979247D01*
X100569422Y-35979260D01*
X100660327Y-36161821D01*
X100783237Y-36324581D01*
X100933958Y-36461980D01*
X100933960Y-36461982D01*
X101033141Y-36523392D01*
X101107363Y-36569348D01*
X101297544Y-36643024D01*
X101498024Y-36680500D01*
X101498026Y-36680500D01*
X101701974Y-36680500D01*
X101701976Y-36680500D01*
X101902456Y-36643024D01*
X102092637Y-36569348D01*
X102266041Y-36461981D01*
X102416764Y-36324579D01*
X102539673Y-36161821D01*
X102630582Y-35979250D01*
X102686397Y-35783083D01*
X102705215Y-35580000D01*
X102705215Y-35579999D01*
X103034785Y-35579999D01*
X103034785Y-35580000D01*
X103053602Y-35783082D01*
X103109417Y-35979247D01*
X103109422Y-35979260D01*
X103200327Y-36161821D01*
X103323237Y-36324581D01*
X103473958Y-36461980D01*
X103473960Y-36461982D01*
X103573141Y-36523392D01*
X103647363Y-36569348D01*
X103837544Y-36643024D01*
X104038024Y-36680500D01*
X104038026Y-36680500D01*
X104241974Y-36680500D01*
X104241976Y-36680500D01*
X104442456Y-36643024D01*
X104632637Y-36569348D01*
X104806041Y-36461981D01*
X104956764Y-36324579D01*
X105079673Y-36161821D01*
X105170582Y-35979250D01*
X105226397Y-35783083D01*
X105245215Y-35580000D01*
X105226397Y-35376917D01*
X105170582Y-35180750D01*
X105160624Y-35160752D01*
X105098753Y-35036497D01*
X105079673Y-34998179D01*
X104956764Y-34835421D01*
X104956762Y-34835418D01*
X104806041Y-34698019D01*
X104806039Y-34698017D01*
X104632642Y-34590655D01*
X104632635Y-34590651D01*
X104537546Y-34553814D01*
X104442456Y-34516976D01*
X104241976Y-34479500D01*
X104038024Y-34479500D01*
X103837544Y-34516976D01*
X103837541Y-34516976D01*
X103837541Y-34516977D01*
X103647364Y-34590651D01*
X103647357Y-34590655D01*
X103473960Y-34698017D01*
X103473958Y-34698019D01*
X103323237Y-34835418D01*
X103200327Y-34998178D01*
X103109422Y-35180739D01*
X103109417Y-35180752D01*
X103053602Y-35376917D01*
X103034785Y-35579999D01*
X102705215Y-35579999D01*
X102686397Y-35376917D01*
X102630582Y-35180750D01*
X102620624Y-35160752D01*
X102558753Y-35036497D01*
X102539673Y-34998179D01*
X102416764Y-34835421D01*
X102416762Y-34835418D01*
X102266041Y-34698019D01*
X102266039Y-34698017D01*
X102092642Y-34590655D01*
X102092635Y-34590651D01*
X101997546Y-34553814D01*
X101902456Y-34516976D01*
X101701976Y-34479500D01*
X101498024Y-34479500D01*
X101297544Y-34516976D01*
X101297541Y-34516976D01*
X101297541Y-34516977D01*
X101107364Y-34590651D01*
X101107357Y-34590655D01*
X100933960Y-34698017D01*
X100933958Y-34698019D01*
X100783237Y-34835418D01*
X100660327Y-34998178D01*
X100569422Y-35180739D01*
X100569417Y-35180752D01*
X100513602Y-35376917D01*
X100494785Y-35579999D01*
X65031766Y-35579999D01*
X65031766Y-35036497D01*
X65051451Y-34969458D01*
X65073540Y-34943681D01*
X65078502Y-34939285D01*
X65078506Y-34939283D01*
X65196749Y-34834530D01*
X65286486Y-34704523D01*
X65342503Y-34556818D01*
X65361544Y-34400000D01*
X65342503Y-34243182D01*
X65335047Y-34223523D01*
X65303441Y-34140185D01*
X65286486Y-34095477D01*
X65196749Y-33965470D01*
X65078506Y-33860717D01*
X65061553Y-33851819D01*
X65011343Y-33803236D01*
X64995368Y-33735217D01*
X65018703Y-33669359D01*
X65020198Y-33667335D01*
X65069673Y-33601821D01*
X65160582Y-33419250D01*
X65216397Y-33223083D01*
X65233362Y-33039999D01*
X100494785Y-33039999D01*
X100494785Y-33040000D01*
X100513602Y-33243082D01*
X100569417Y-33439247D01*
X100569422Y-33439260D01*
X100660327Y-33621821D01*
X100783237Y-33784581D01*
X100933958Y-33921980D01*
X100933960Y-33921982D01*
X101004196Y-33965470D01*
X101107363Y-34029348D01*
X101297544Y-34103024D01*
X101498024Y-34140500D01*
X101498026Y-34140500D01*
X101701974Y-34140500D01*
X101701976Y-34140500D01*
X101902456Y-34103024D01*
X102092637Y-34029348D01*
X102266041Y-33921981D01*
X102416764Y-33784579D01*
X102539673Y-33621821D01*
X102630582Y-33439250D01*
X102686397Y-33243083D01*
X102705215Y-33040000D01*
X102705215Y-33039999D01*
X103034785Y-33039999D01*
X103034785Y-33040000D01*
X103053602Y-33243082D01*
X103109417Y-33439247D01*
X103109422Y-33439260D01*
X103200327Y-33621821D01*
X103323237Y-33784581D01*
X103473958Y-33921980D01*
X103473960Y-33921982D01*
X103544196Y-33965470D01*
X103647363Y-34029348D01*
X103837544Y-34103024D01*
X104038024Y-34140500D01*
X104038026Y-34140500D01*
X104241974Y-34140500D01*
X104241976Y-34140500D01*
X104442456Y-34103024D01*
X104632637Y-34029348D01*
X104806041Y-33921981D01*
X104956764Y-33784579D01*
X105079673Y-33621821D01*
X105170582Y-33439250D01*
X105226397Y-33243083D01*
X105245215Y-33040000D01*
X105226397Y-32836917D01*
X105170582Y-32640750D01*
X105160624Y-32620752D01*
X105126272Y-32551764D01*
X105079673Y-32458179D01*
X104956764Y-32295421D01*
X104956762Y-32295418D01*
X104806041Y-32158019D01*
X104806039Y-32158017D01*
X104632642Y-32050655D01*
X104632635Y-32050651D01*
X104537546Y-32013814D01*
X104442456Y-31976976D01*
X104241976Y-31939500D01*
X104038024Y-31939500D01*
X103837544Y-31976976D01*
X103837541Y-31976976D01*
X103837541Y-31976977D01*
X103647364Y-32050651D01*
X103647357Y-32050655D01*
X103473960Y-32158017D01*
X103473958Y-32158019D01*
X103323237Y-32295418D01*
X103200327Y-32458178D01*
X103109422Y-32640739D01*
X103109417Y-32640752D01*
X103053602Y-32836917D01*
X103034785Y-33039999D01*
X102705215Y-33039999D01*
X102686397Y-32836917D01*
X102630582Y-32640750D01*
X102620624Y-32620752D01*
X102586272Y-32551764D01*
X102539673Y-32458179D01*
X102416764Y-32295421D01*
X102416762Y-32295418D01*
X102266041Y-32158019D01*
X102266039Y-32158017D01*
X102092642Y-32050655D01*
X102092635Y-32050651D01*
X101997546Y-32013814D01*
X101902456Y-31976976D01*
X101701976Y-31939500D01*
X101498024Y-31939500D01*
X101297544Y-31976976D01*
X101297541Y-31976976D01*
X101297541Y-31976977D01*
X101107364Y-32050651D01*
X101107357Y-32050655D01*
X100933960Y-32158017D01*
X100933958Y-32158019D01*
X100783237Y-32295418D01*
X100660327Y-32458178D01*
X100569422Y-32640739D01*
X100569417Y-32640752D01*
X100513602Y-32836917D01*
X100494785Y-33039999D01*
X65233362Y-33039999D01*
X65235215Y-33020000D01*
X65216397Y-32816917D01*
X65160582Y-32620750D01*
X65069673Y-32438179D01*
X64946764Y-32275421D01*
X64946762Y-32275418D01*
X64796041Y-32138019D01*
X64796039Y-32138017D01*
X64622642Y-32030655D01*
X64622635Y-32030651D01*
X64484082Y-31976976D01*
X64432456Y-31956976D01*
X64231976Y-31919500D01*
X64028024Y-31919500D01*
X63827544Y-31956976D01*
X63827541Y-31956976D01*
X63827541Y-31956977D01*
X63637364Y-32030651D01*
X63637357Y-32030655D01*
X63463960Y-32138017D01*
X63463958Y-32138019D01*
X63313237Y-32275418D01*
X63190327Y-32438178D01*
X63099422Y-32620739D01*
X63099417Y-32620752D01*
X63043602Y-32816917D01*
X63024785Y-33019999D01*
X62690500Y-33019999D01*
X62690500Y-32145326D01*
X62690500Y-32145323D01*
X62690499Y-32145321D01*
X62675967Y-32072264D01*
X62675966Y-32072260D01*
X62661528Y-32050652D01*
X62620601Y-31989399D01*
X62537740Y-31934034D01*
X62537739Y-31934033D01*
X62537735Y-31934032D01*
X62464677Y-31919500D01*
X62464674Y-31919500D01*
X60715326Y-31919500D01*
X60715323Y-31919500D01*
X60642264Y-31934032D01*
X60642260Y-31934033D01*
X60559399Y-31989399D01*
X60504033Y-32072260D01*
X60504032Y-32072264D01*
X60489500Y-32145321D01*
X60489500Y-33894678D01*
X60504032Y-33967735D01*
X60504033Y-33967739D01*
X60504034Y-33967740D01*
X60559399Y-34050601D01*
X60626562Y-34095477D01*
X60642260Y-34105966D01*
X60642264Y-34105967D01*
X60715321Y-34120499D01*
X60715324Y-34120500D01*
X60715326Y-34120500D01*
X61140500Y-34120500D01*
X61207539Y-34140185D01*
X61253294Y-34192989D01*
X61264500Y-34244500D01*
X61264500Y-38299810D01*
X61244815Y-38366849D01*
X61228181Y-38387491D01*
X58333395Y-41282276D01*
X58272072Y-41315761D01*
X58216041Y-41314992D01*
X58194744Y-41309743D01*
X58194742Y-41309743D01*
X58036772Y-41309743D01*
X58036771Y-41309743D01*
X57883391Y-41347546D01*
X57743519Y-41420958D01*
X57743517Y-41420960D01*
X57629486Y-41521982D01*
X57625273Y-41525714D01*
X57535538Y-41655718D01*
X57535537Y-41655719D01*
X57479519Y-41803424D01*
X57460479Y-41960242D01*
X52660117Y-41960242D01*
X52696240Y-41941283D01*
X52814483Y-41836530D01*
X52904220Y-41706523D01*
X52960237Y-41558818D01*
X52979278Y-41402000D01*
X52968714Y-41314992D01*
X52960237Y-41245181D01*
X52917961Y-41133709D01*
X52904220Y-41097477D01*
X52814483Y-40967470D01*
X52696240Y-40862717D01*
X52696238Y-40862716D01*
X52696237Y-40862715D01*
X52556365Y-40789303D01*
X52402986Y-40751500D01*
X52402985Y-40751500D01*
X52245015Y-40751500D01*
X52223712Y-40756750D01*
X52153910Y-40753678D01*
X52106360Y-40724033D01*
X49049261Y-37666934D01*
X49015776Y-37605611D01*
X49020760Y-37535919D01*
X49020838Y-37535710D01*
X49067663Y-37412244D01*
X49086704Y-37255426D01*
X49084591Y-37238019D01*
X49067663Y-37098607D01*
X49030076Y-36999500D01*
X49011646Y-36950903D01*
X48921909Y-36820896D01*
X48803666Y-36716143D01*
X48803664Y-36716142D01*
X48803663Y-36716141D01*
X48663791Y-36642729D01*
X48510412Y-36604926D01*
X48510411Y-36604926D01*
X48352441Y-36604926D01*
X48352440Y-36604926D01*
X48199060Y-36642729D01*
X48059188Y-36716141D01*
X47940942Y-36820897D01*
X47851207Y-36950901D01*
X47851206Y-36950902D01*
X47795188Y-37098607D01*
X47776148Y-37255425D01*
X46427074Y-37255425D01*
X46386041Y-37218019D01*
X46386039Y-37218017D01*
X46212642Y-37110655D01*
X46212635Y-37110651D01*
X46074082Y-37056976D01*
X46022456Y-37036976D01*
X45821976Y-36999500D01*
X45618024Y-36999500D01*
X45417544Y-37036976D01*
X45417541Y-37036976D01*
X45417541Y-37036977D01*
X45227364Y-37110651D01*
X45227357Y-37110655D01*
X45053960Y-37218017D01*
X45053958Y-37218019D01*
X44903237Y-37355418D01*
X44780327Y-37518178D01*
X44689422Y-37700739D01*
X44689417Y-37700752D01*
X44633602Y-37896917D01*
X44614785Y-38099999D01*
X44285215Y-38099999D01*
X44266397Y-37896917D01*
X44210582Y-37700750D01*
X44205207Y-37689956D01*
X44140472Y-37559949D01*
X44119673Y-37518179D01*
X43996764Y-37355421D01*
X43996762Y-37355418D01*
X43846041Y-37218019D01*
X43846039Y-37218017D01*
X43672642Y-37110655D01*
X43672635Y-37110651D01*
X43534082Y-37056976D01*
X43482456Y-37036976D01*
X43281976Y-36999500D01*
X43078024Y-36999500D01*
X42877544Y-37036976D01*
X42877541Y-37036976D01*
X42877541Y-37036977D01*
X42687364Y-37110651D01*
X42687357Y-37110655D01*
X42513960Y-37218017D01*
X42513958Y-37218019D01*
X42363237Y-37355418D01*
X42240327Y-37518178D01*
X42149422Y-37700739D01*
X42149417Y-37700752D01*
X42093602Y-37896917D01*
X42074785Y-38099999D01*
X39870500Y-38099999D01*
X39870500Y-35559999D01*
X42074785Y-35559999D01*
X42074785Y-35560000D01*
X42093602Y-35763082D01*
X42149417Y-35959247D01*
X42149422Y-35959260D01*
X42240327Y-36141821D01*
X42363237Y-36304581D01*
X42513958Y-36441980D01*
X42513960Y-36441982D01*
X42613141Y-36503392D01*
X42687363Y-36549348D01*
X42877544Y-36623024D01*
X43078024Y-36660500D01*
X43078026Y-36660500D01*
X43281974Y-36660500D01*
X43281976Y-36660500D01*
X43482456Y-36623024D01*
X43672637Y-36549348D01*
X43846041Y-36441981D01*
X43996764Y-36304579D01*
X44119673Y-36141821D01*
X44210582Y-35959250D01*
X44266397Y-35763083D01*
X44285215Y-35560000D01*
X44285215Y-35559999D01*
X44614785Y-35559999D01*
X44614785Y-35560000D01*
X44633602Y-35763082D01*
X44689417Y-35959247D01*
X44689422Y-35959260D01*
X44780327Y-36141821D01*
X44903237Y-36304581D01*
X45053958Y-36441980D01*
X45053960Y-36441982D01*
X45153141Y-36503392D01*
X45227363Y-36549348D01*
X45417544Y-36623024D01*
X45618024Y-36660500D01*
X45618026Y-36660500D01*
X45821974Y-36660500D01*
X45821976Y-36660500D01*
X46022456Y-36623024D01*
X46212637Y-36549348D01*
X46386041Y-36441981D01*
X46536764Y-36304579D01*
X46659673Y-36141821D01*
X46750582Y-35959250D01*
X46806397Y-35763083D01*
X46825215Y-35560000D01*
X46806397Y-35356917D01*
X46750582Y-35160750D01*
X46659673Y-34978179D01*
X46551195Y-34834531D01*
X46536762Y-34815418D01*
X46386041Y-34678019D01*
X46386039Y-34678017D01*
X46212642Y-34570655D01*
X46212635Y-34570651D01*
X46074082Y-34516976D01*
X46022456Y-34496976D01*
X45821976Y-34459500D01*
X45618024Y-34459500D01*
X45417544Y-34496976D01*
X45417541Y-34496976D01*
X45417541Y-34496977D01*
X45227364Y-34570651D01*
X45227357Y-34570655D01*
X45053960Y-34678017D01*
X45053958Y-34678019D01*
X44903237Y-34815418D01*
X44780327Y-34978178D01*
X44689422Y-35160739D01*
X44689417Y-35160752D01*
X44633602Y-35356917D01*
X44614785Y-35559999D01*
X44285215Y-35559999D01*
X44266397Y-35356917D01*
X44210582Y-35160750D01*
X44119673Y-34978179D01*
X44011195Y-34834531D01*
X43996762Y-34815418D01*
X43846041Y-34678019D01*
X43846039Y-34678017D01*
X43672642Y-34570655D01*
X43672635Y-34570651D01*
X43534082Y-34516976D01*
X43482456Y-34496976D01*
X43281976Y-34459500D01*
X43078024Y-34459500D01*
X42877544Y-34496976D01*
X42877541Y-34496976D01*
X42877541Y-34496977D01*
X42687364Y-34570651D01*
X42687357Y-34570655D01*
X42513960Y-34678017D01*
X42513958Y-34678019D01*
X42363237Y-34815418D01*
X42240327Y-34978178D01*
X42149422Y-35160739D01*
X42149417Y-35160752D01*
X42093602Y-35356917D01*
X42074785Y-35559999D01*
X39870500Y-35559999D01*
X39870500Y-33019999D01*
X42074785Y-33019999D01*
X42074785Y-33020000D01*
X42093602Y-33223082D01*
X42149417Y-33419247D01*
X42149422Y-33419260D01*
X42240327Y-33601821D01*
X42363237Y-33764581D01*
X42513958Y-33901980D01*
X42513960Y-33901982D01*
X42613141Y-33963392D01*
X42687363Y-34009348D01*
X42877544Y-34083024D01*
X43078024Y-34120500D01*
X43078026Y-34120500D01*
X43281974Y-34120500D01*
X43281976Y-34120500D01*
X43482456Y-34083024D01*
X43672637Y-34009348D01*
X43846041Y-33901981D01*
X43996764Y-33764579D01*
X44119673Y-33601821D01*
X44210582Y-33419250D01*
X44266397Y-33223083D01*
X44285215Y-33020000D01*
X44285215Y-33019999D01*
X44614785Y-33019999D01*
X44614785Y-33020000D01*
X44633602Y-33223082D01*
X44689417Y-33419247D01*
X44689422Y-33419260D01*
X44780327Y-33601821D01*
X44903237Y-33764581D01*
X45053958Y-33901980D01*
X45053960Y-33901982D01*
X45153141Y-33963392D01*
X45227363Y-34009348D01*
X45417544Y-34083024D01*
X45618024Y-34120500D01*
X45618026Y-34120500D01*
X45821974Y-34120500D01*
X45821976Y-34120500D01*
X46022456Y-34083024D01*
X46212637Y-34009348D01*
X46358556Y-33918999D01*
X56560772Y-33918999D01*
X56560772Y-33919000D01*
X56579812Y-34075818D01*
X56635830Y-34223523D01*
X56635831Y-34223524D01*
X56725567Y-34353531D01*
X56775990Y-34398200D01*
X56843810Y-34458283D01*
X56843813Y-34458284D01*
X56848776Y-34462681D01*
X56885903Y-34521870D01*
X56890550Y-34555497D01*
X56890550Y-38812667D01*
X56870865Y-38879706D01*
X56848777Y-38905482D01*
X56799352Y-38949268D01*
X56709615Y-39079275D01*
X56709614Y-39079276D01*
X56653596Y-39226981D01*
X56634556Y-39383799D01*
X56634556Y-39383800D01*
X56653596Y-39540618D01*
X56695327Y-39650651D01*
X56709614Y-39688323D01*
X56799351Y-39818330D01*
X56917594Y-39923083D01*
X56917596Y-39923084D01*
X57057468Y-39996496D01*
X57210848Y-40034300D01*
X57210849Y-40034300D01*
X57368819Y-40034300D01*
X57522199Y-39996496D01*
X57560456Y-39976417D01*
X57662074Y-39923083D01*
X57780317Y-39818330D01*
X57870054Y-39688323D01*
X57926071Y-39540618D01*
X57945112Y-39383800D01*
X57929910Y-39258595D01*
X57926071Y-39226981D01*
X57881458Y-39109348D01*
X57870054Y-39079277D01*
X57780317Y-38949270D01*
X57662074Y-38844517D01*
X57662072Y-38844516D01*
X57662071Y-38844515D01*
X57662069Y-38844514D01*
X57607923Y-38816095D01*
X57557711Y-38767510D01*
X57541550Y-38706299D01*
X57541550Y-38352920D01*
X58685499Y-38352920D01*
X58714340Y-38497907D01*
X58714343Y-38497917D01*
X58770912Y-38634488D01*
X58770919Y-38634501D01*
X58853048Y-38757415D01*
X58853051Y-38757419D01*
X58957580Y-38861948D01*
X58957584Y-38861951D01*
X59080498Y-38944080D01*
X59080511Y-38944087D01*
X59171999Y-38981982D01*
X59217087Y-39000658D01*
X59217091Y-39000658D01*
X59217092Y-39000659D01*
X59362079Y-39029500D01*
X59362082Y-39029500D01*
X59509920Y-39029500D01*
X59607462Y-39010096D01*
X59654913Y-39000658D01*
X59760547Y-38956902D01*
X59791488Y-38944087D01*
X59791488Y-38944086D01*
X59791495Y-38944084D01*
X59914416Y-38861951D01*
X60018951Y-38757416D01*
X60101084Y-38634495D01*
X60157658Y-38497913D01*
X60186500Y-38352918D01*
X60186500Y-33835082D01*
X60186500Y-33835079D01*
X60157659Y-33690092D01*
X60157658Y-33690091D01*
X60157658Y-33690087D01*
X60148218Y-33667296D01*
X60101087Y-33553511D01*
X60101080Y-33553498D01*
X60018951Y-33430584D01*
X60018948Y-33430580D01*
X59914419Y-33326051D01*
X59914415Y-33326048D01*
X59791501Y-33243919D01*
X59791488Y-33243912D01*
X59654917Y-33187343D01*
X59654907Y-33187340D01*
X59509920Y-33158500D01*
X59509918Y-33158500D01*
X59362082Y-33158500D01*
X59362080Y-33158500D01*
X59217092Y-33187340D01*
X59217082Y-33187343D01*
X59080511Y-33243912D01*
X59080498Y-33243919D01*
X58957584Y-33326048D01*
X58957580Y-33326051D01*
X58853051Y-33430580D01*
X58853048Y-33430584D01*
X58770919Y-33553498D01*
X58770912Y-33553511D01*
X58714343Y-33690082D01*
X58714340Y-33690092D01*
X58685500Y-33835079D01*
X58685500Y-33835082D01*
X58685500Y-38352918D01*
X58685500Y-38352920D01*
X58685499Y-38352920D01*
X57541550Y-38352920D01*
X57541550Y-34555497D01*
X57561235Y-34488458D01*
X57583324Y-34462681D01*
X57588286Y-34458285D01*
X57588290Y-34458283D01*
X57706533Y-34353530D01*
X57796270Y-34223523D01*
X57852287Y-34075818D01*
X57871328Y-33919000D01*
X57869262Y-33901980D01*
X57852287Y-33762181D01*
X57817084Y-33669359D01*
X57796270Y-33614477D01*
X57706533Y-33484470D01*
X57588290Y-33379717D01*
X57588288Y-33379716D01*
X57588287Y-33379715D01*
X57448415Y-33306303D01*
X57295036Y-33268500D01*
X57295035Y-33268500D01*
X57137065Y-33268500D01*
X57137064Y-33268500D01*
X56983684Y-33306303D01*
X56843812Y-33379715D01*
X56725566Y-33484471D01*
X56635831Y-33614475D01*
X56635830Y-33614476D01*
X56579812Y-33762181D01*
X56560772Y-33918999D01*
X46358556Y-33918999D01*
X46386041Y-33901981D01*
X46536764Y-33764579D01*
X46659673Y-33601821D01*
X46750582Y-33419250D01*
X46806397Y-33223083D01*
X46825215Y-33020000D01*
X46806397Y-32816917D01*
X46750582Y-32620750D01*
X46659673Y-32438179D01*
X46536764Y-32275421D01*
X46536762Y-32275418D01*
X46386041Y-32138019D01*
X46386039Y-32138017D01*
X46212642Y-32030655D01*
X46212635Y-32030651D01*
X46074082Y-31976976D01*
X46022456Y-31956976D01*
X45821976Y-31919500D01*
X45618024Y-31919500D01*
X45417544Y-31956976D01*
X45417541Y-31956976D01*
X45417541Y-31956977D01*
X45227364Y-32030651D01*
X45227357Y-32030655D01*
X45053960Y-32138017D01*
X45053958Y-32138019D01*
X44903237Y-32275418D01*
X44780327Y-32438178D01*
X44689422Y-32620739D01*
X44689417Y-32620752D01*
X44633602Y-32816917D01*
X44614785Y-33019999D01*
X44285215Y-33019999D01*
X44266397Y-32816917D01*
X44210582Y-32620750D01*
X44119673Y-32438179D01*
X43996764Y-32275421D01*
X43996762Y-32275418D01*
X43846041Y-32138019D01*
X43846039Y-32138017D01*
X43672642Y-32030655D01*
X43672635Y-32030651D01*
X43534082Y-31976976D01*
X43482456Y-31956976D01*
X43281976Y-31919500D01*
X43078024Y-31919500D01*
X42877544Y-31956976D01*
X42877541Y-31956976D01*
X42877541Y-31956977D01*
X42687364Y-32030651D01*
X42687357Y-32030655D01*
X42513960Y-32138017D01*
X42513958Y-32138019D01*
X42363237Y-32275418D01*
X42240327Y-32438178D01*
X42149422Y-32620739D01*
X42149417Y-32620752D01*
X42093602Y-32816917D01*
X42074785Y-33019999D01*
X39870500Y-33019999D01*
X39870500Y-30479999D01*
X42074785Y-30479999D01*
X42074785Y-30480000D01*
X42093602Y-30683082D01*
X42149417Y-30879247D01*
X42149422Y-30879260D01*
X42240327Y-31061821D01*
X42363237Y-31224581D01*
X42513958Y-31361980D01*
X42513960Y-31361982D01*
X42613141Y-31423392D01*
X42687363Y-31469348D01*
X42877544Y-31543024D01*
X43078024Y-31580500D01*
X43078026Y-31580500D01*
X43281974Y-31580500D01*
X43281976Y-31580500D01*
X43482456Y-31543024D01*
X43672637Y-31469348D01*
X43846041Y-31361981D01*
X43996764Y-31224579D01*
X44119673Y-31061821D01*
X44210582Y-30879250D01*
X44266397Y-30683083D01*
X44285215Y-30480000D01*
X44285215Y-30479999D01*
X44614785Y-30479999D01*
X44614785Y-30480000D01*
X44633602Y-30683082D01*
X44689417Y-30879247D01*
X44689422Y-30879260D01*
X44780327Y-31061821D01*
X44903237Y-31224581D01*
X45053958Y-31361980D01*
X45053960Y-31361982D01*
X45153141Y-31423392D01*
X45227363Y-31469348D01*
X45417544Y-31543024D01*
X45618024Y-31580500D01*
X45618026Y-31580500D01*
X45821974Y-31580500D01*
X45821976Y-31580500D01*
X46022456Y-31543024D01*
X46212637Y-31469348D01*
X46386041Y-31361981D01*
X46536764Y-31224579D01*
X46659673Y-31061821D01*
X46750582Y-30879250D01*
X46806397Y-30683083D01*
X46823362Y-30499999D01*
X100494785Y-30499999D01*
X100494785Y-30500000D01*
X100513602Y-30703082D01*
X100569417Y-30899247D01*
X100569422Y-30899260D01*
X100660327Y-31081821D01*
X100783237Y-31244581D01*
X100933958Y-31381980D01*
X100933960Y-31381982D01*
X101033141Y-31443392D01*
X101107363Y-31489348D01*
X101297544Y-31563024D01*
X101498024Y-31600500D01*
X101498026Y-31600500D01*
X101701974Y-31600500D01*
X101701976Y-31600500D01*
X101902456Y-31563024D01*
X102092637Y-31489348D01*
X102266041Y-31381981D01*
X102416764Y-31244579D01*
X102539673Y-31081821D01*
X102630582Y-30899250D01*
X102686397Y-30703083D01*
X102705215Y-30500000D01*
X102705215Y-30499999D01*
X103034785Y-30499999D01*
X103034785Y-30500000D01*
X103053602Y-30703082D01*
X103109417Y-30899247D01*
X103109422Y-30899260D01*
X103200327Y-31081821D01*
X103323237Y-31244581D01*
X103473958Y-31381980D01*
X103473960Y-31381982D01*
X103573141Y-31443392D01*
X103647363Y-31489348D01*
X103837544Y-31563024D01*
X104038024Y-31600500D01*
X104038026Y-31600500D01*
X104241974Y-31600500D01*
X104241976Y-31600500D01*
X104442456Y-31563024D01*
X104632637Y-31489348D01*
X104806041Y-31381981D01*
X104956764Y-31244579D01*
X105079673Y-31081821D01*
X105170582Y-30899250D01*
X105226397Y-30703083D01*
X105245215Y-30500000D01*
X105226397Y-30296917D01*
X105170582Y-30100750D01*
X105162579Y-30084678D01*
X105126272Y-30011764D01*
X105079673Y-29918179D01*
X104956764Y-29755421D01*
X104956762Y-29755418D01*
X104806041Y-29618019D01*
X104806039Y-29618017D01*
X104632642Y-29510655D01*
X104632635Y-29510651D01*
X104537546Y-29473814D01*
X104442456Y-29436976D01*
X104241976Y-29399500D01*
X104038024Y-29399500D01*
X103837544Y-29436976D01*
X103837541Y-29436976D01*
X103837541Y-29436977D01*
X103647364Y-29510651D01*
X103647357Y-29510655D01*
X103473960Y-29618017D01*
X103473958Y-29618019D01*
X103323237Y-29755418D01*
X103200327Y-29918178D01*
X103109422Y-30100739D01*
X103109417Y-30100752D01*
X103053602Y-30296917D01*
X103034785Y-30499999D01*
X102705215Y-30499999D01*
X102686397Y-30296917D01*
X102630582Y-30100750D01*
X102622579Y-30084678D01*
X102586272Y-30011764D01*
X102539673Y-29918179D01*
X102416764Y-29755421D01*
X102416762Y-29755418D01*
X102266041Y-29618019D01*
X102266039Y-29618017D01*
X102092642Y-29510655D01*
X102092635Y-29510651D01*
X101997546Y-29473814D01*
X101902456Y-29436976D01*
X101701976Y-29399500D01*
X101498024Y-29399500D01*
X101297544Y-29436976D01*
X101297541Y-29436976D01*
X101297541Y-29436977D01*
X101107364Y-29510651D01*
X101107357Y-29510655D01*
X100933960Y-29618017D01*
X100933958Y-29618019D01*
X100783237Y-29755418D01*
X100660327Y-29918178D01*
X100569422Y-30100739D01*
X100569417Y-30100752D01*
X100513602Y-30296917D01*
X100494785Y-30499999D01*
X46823362Y-30499999D01*
X46825215Y-30480000D01*
X46806397Y-30276917D01*
X46750582Y-30080750D01*
X46659673Y-29898179D01*
X46536764Y-29735421D01*
X46536762Y-29735418D01*
X46386041Y-29598019D01*
X46386039Y-29598017D01*
X46212642Y-29490655D01*
X46212635Y-29490651D01*
X46074082Y-29436976D01*
X46022456Y-29416976D01*
X45821976Y-29379500D01*
X45618024Y-29379500D01*
X45417544Y-29416976D01*
X45417541Y-29416976D01*
X45417541Y-29416977D01*
X45227364Y-29490651D01*
X45227357Y-29490655D01*
X45053960Y-29598017D01*
X45053958Y-29598019D01*
X44903237Y-29735418D01*
X44780327Y-29898178D01*
X44689422Y-30080739D01*
X44689417Y-30080752D01*
X44633602Y-30276917D01*
X44614785Y-30479999D01*
X44285215Y-30479999D01*
X44266397Y-30276917D01*
X44210582Y-30080750D01*
X44119673Y-29898179D01*
X43996764Y-29735421D01*
X43996762Y-29735418D01*
X43846041Y-29598019D01*
X43846039Y-29598017D01*
X43672642Y-29490655D01*
X43672635Y-29490651D01*
X43534082Y-29436976D01*
X43482456Y-29416976D01*
X43281976Y-29379500D01*
X43078024Y-29379500D01*
X42877544Y-29416976D01*
X42877541Y-29416976D01*
X42877541Y-29416977D01*
X42687364Y-29490651D01*
X42687357Y-29490655D01*
X42513960Y-29598017D01*
X42513958Y-29598019D01*
X42363237Y-29735418D01*
X42240327Y-29898178D01*
X42149422Y-30080739D01*
X42149417Y-30080752D01*
X42093602Y-30276917D01*
X42074785Y-30479999D01*
X39870500Y-30479999D01*
X39870500Y-27939999D01*
X42074785Y-27939999D01*
X42074785Y-27940000D01*
X42093602Y-28143082D01*
X42149417Y-28339247D01*
X42149422Y-28339260D01*
X42240327Y-28521821D01*
X42363237Y-28684581D01*
X42513958Y-28821980D01*
X42513960Y-28821982D01*
X42613141Y-28883392D01*
X42687363Y-28929348D01*
X42877544Y-29003024D01*
X43078024Y-29040500D01*
X43078026Y-29040500D01*
X43281974Y-29040500D01*
X43281976Y-29040500D01*
X43482456Y-29003024D01*
X43672637Y-28929348D01*
X43846041Y-28821981D01*
X43996764Y-28684579D01*
X44119673Y-28521821D01*
X44210582Y-28339250D01*
X44266397Y-28143083D01*
X44285215Y-27940000D01*
X44285215Y-27939999D01*
X44614785Y-27939999D01*
X44614785Y-27940000D01*
X44633602Y-28143082D01*
X44689417Y-28339247D01*
X44689422Y-28339260D01*
X44780327Y-28521821D01*
X44903237Y-28684581D01*
X45053958Y-28821980D01*
X45053960Y-28821982D01*
X45153141Y-28883392D01*
X45227363Y-28929348D01*
X45417544Y-29003024D01*
X45618024Y-29040500D01*
X45618026Y-29040500D01*
X45821974Y-29040500D01*
X45821976Y-29040500D01*
X46022456Y-29003024D01*
X46212637Y-28929348D01*
X46386041Y-28821981D01*
X46536764Y-28684579D01*
X46659673Y-28521821D01*
X46750582Y-28339250D01*
X46751700Y-28335321D01*
X48429500Y-28335321D01*
X48429500Y-30084678D01*
X48444032Y-30157735D01*
X48444033Y-30157739D01*
X48444034Y-30157740D01*
X48499399Y-30240601D01*
X48553751Y-30276917D01*
X48582260Y-30295966D01*
X48582264Y-30295967D01*
X48655321Y-30310499D01*
X48655324Y-30310500D01*
X48655326Y-30310500D01*
X50404676Y-30310500D01*
X50404677Y-30310499D01*
X50477740Y-30295966D01*
X50560601Y-30240601D01*
X50615966Y-30157740D01*
X50630500Y-30084674D01*
X50630500Y-28335326D01*
X50630500Y-28335323D01*
X50630499Y-28335321D01*
X50615967Y-28262264D01*
X50615966Y-28262260D01*
X50560601Y-28179399D01*
X50477740Y-28124034D01*
X50477739Y-28124033D01*
X50477735Y-28124032D01*
X50404677Y-28109500D01*
X50404674Y-28109500D01*
X48655326Y-28109500D01*
X48655323Y-28109500D01*
X48582264Y-28124032D01*
X48582260Y-28124033D01*
X48499399Y-28179399D01*
X48444033Y-28262260D01*
X48444032Y-28262264D01*
X48429500Y-28335321D01*
X46751700Y-28335321D01*
X46806397Y-28143083D01*
X46825215Y-27940000D01*
X46806397Y-27736917D01*
X46750582Y-27540750D01*
X46659673Y-27358179D01*
X46615738Y-27299999D01*
X95414785Y-27299999D01*
X95414785Y-27300000D01*
X95433602Y-27503082D01*
X95489417Y-27699247D01*
X95489422Y-27699260D01*
X95580327Y-27881821D01*
X95703237Y-28044581D01*
X95853958Y-28181980D01*
X95853960Y-28181982D01*
X95953141Y-28243392D01*
X96027363Y-28289348D01*
X96217544Y-28363024D01*
X96418024Y-28400500D01*
X96418026Y-28400500D01*
X96621974Y-28400500D01*
X96621976Y-28400500D01*
X96822456Y-28363024D01*
X97012637Y-28289348D01*
X97186041Y-28181981D01*
X97336764Y-28044579D01*
X97400636Y-27959999D01*
X100494785Y-27959999D01*
X100494785Y-27960000D01*
X100513602Y-28163082D01*
X100569417Y-28359247D01*
X100569422Y-28359260D01*
X100660327Y-28541821D01*
X100783237Y-28704581D01*
X100933958Y-28841980D01*
X100933960Y-28841982D01*
X101033141Y-28903392D01*
X101107363Y-28949348D01*
X101297544Y-29023024D01*
X101498024Y-29060500D01*
X101498026Y-29060500D01*
X101701974Y-29060500D01*
X101701976Y-29060500D01*
X101902456Y-29023024D01*
X102092637Y-28949348D01*
X102266041Y-28841981D01*
X102416764Y-28704579D01*
X102539673Y-28541821D01*
X102630582Y-28359250D01*
X102686397Y-28163083D01*
X102705215Y-27960000D01*
X102705215Y-27959999D01*
X103034785Y-27959999D01*
X103034785Y-27960000D01*
X103053602Y-28163082D01*
X103109417Y-28359247D01*
X103109422Y-28359260D01*
X103200327Y-28541821D01*
X103323237Y-28704581D01*
X103473958Y-28841980D01*
X103473960Y-28841982D01*
X103573141Y-28903392D01*
X103647363Y-28949348D01*
X103837544Y-29023024D01*
X104038024Y-29060500D01*
X104038026Y-29060500D01*
X104241974Y-29060500D01*
X104241976Y-29060500D01*
X104442456Y-29023024D01*
X104632637Y-28949348D01*
X104806041Y-28841981D01*
X104956764Y-28704579D01*
X105079673Y-28541821D01*
X105170582Y-28359250D01*
X105226397Y-28163083D01*
X105245215Y-27960000D01*
X105226397Y-27756917D01*
X105170582Y-27560750D01*
X105160624Y-27540752D01*
X105126272Y-27471764D01*
X105079673Y-27378179D01*
X104956764Y-27215421D01*
X104956762Y-27215418D01*
X104806041Y-27078019D01*
X104806039Y-27078017D01*
X104632642Y-26970655D01*
X104632635Y-26970651D01*
X104452203Y-26900752D01*
X104442456Y-26896976D01*
X104241976Y-26859500D01*
X104038024Y-26859500D01*
X103837544Y-26896976D01*
X103837541Y-26896976D01*
X103837541Y-26896977D01*
X103647364Y-26970651D01*
X103647357Y-26970655D01*
X103473960Y-27078017D01*
X103473958Y-27078019D01*
X103323237Y-27215418D01*
X103200327Y-27378178D01*
X103109422Y-27560739D01*
X103109417Y-27560752D01*
X103053602Y-27756917D01*
X103034785Y-27959999D01*
X102705215Y-27959999D01*
X102686397Y-27756917D01*
X102630582Y-27560750D01*
X102620624Y-27540752D01*
X102586272Y-27471764D01*
X102539673Y-27378179D01*
X102416764Y-27215421D01*
X102416762Y-27215418D01*
X102266041Y-27078019D01*
X102266039Y-27078017D01*
X102092642Y-26970655D01*
X102092635Y-26970651D01*
X101912203Y-26900752D01*
X101902456Y-26896976D01*
X101701976Y-26859500D01*
X101498024Y-26859500D01*
X101297544Y-26896976D01*
X101297541Y-26896976D01*
X101297541Y-26896977D01*
X101107364Y-26970651D01*
X101107357Y-26970655D01*
X100933960Y-27078017D01*
X100933958Y-27078019D01*
X100783237Y-27215418D01*
X100660327Y-27378178D01*
X100569422Y-27560739D01*
X100569417Y-27560752D01*
X100513602Y-27756917D01*
X100494785Y-27959999D01*
X97400636Y-27959999D01*
X97459673Y-27881821D01*
X97550582Y-27699250D01*
X97606397Y-27503083D01*
X97625215Y-27300000D01*
X97617377Y-27215418D01*
X97606397Y-27096917D01*
X97570471Y-26970652D01*
X97550582Y-26900750D01*
X97548703Y-26896977D01*
X97506272Y-26811764D01*
X97459673Y-26718179D01*
X97336764Y-26555421D01*
X97336762Y-26555418D01*
X97186041Y-26418019D01*
X97186039Y-26418017D01*
X97012642Y-26310655D01*
X97012635Y-26310651D01*
X96917546Y-26273814D01*
X96822456Y-26236976D01*
X96621976Y-26199500D01*
X96418024Y-26199500D01*
X96217544Y-26236976D01*
X96217541Y-26236976D01*
X96217541Y-26236977D01*
X96027364Y-26310651D01*
X96027357Y-26310655D01*
X95853960Y-26418017D01*
X95853958Y-26418019D01*
X95703237Y-26555418D01*
X95580327Y-26718178D01*
X95489422Y-26900739D01*
X95489417Y-26900752D01*
X95433602Y-27096917D01*
X95414785Y-27299999D01*
X46615738Y-27299999D01*
X46536764Y-27195421D01*
X46536762Y-27195418D01*
X46386041Y-27058019D01*
X46386039Y-27058017D01*
X46212642Y-26950655D01*
X46212635Y-26950651D01*
X46074082Y-26896976D01*
X46022456Y-26876976D01*
X45821976Y-26839500D01*
X45618024Y-26839500D01*
X45417544Y-26876976D01*
X45417541Y-26876976D01*
X45417541Y-26876977D01*
X45227364Y-26950651D01*
X45227357Y-26950655D01*
X45053960Y-27058017D01*
X45053958Y-27058019D01*
X44903237Y-27195418D01*
X44780327Y-27358178D01*
X44689422Y-27540739D01*
X44689417Y-27540752D01*
X44633602Y-27736917D01*
X44614785Y-27939999D01*
X44285215Y-27939999D01*
X44266397Y-27736917D01*
X44210582Y-27540750D01*
X44119673Y-27358179D01*
X43996764Y-27195421D01*
X43996762Y-27195418D01*
X43846041Y-27058019D01*
X43846039Y-27058017D01*
X43672642Y-26950655D01*
X43672635Y-26950651D01*
X43534082Y-26896976D01*
X43482456Y-26876976D01*
X43281976Y-26839500D01*
X43078024Y-26839500D01*
X42877544Y-26876976D01*
X42877541Y-26876976D01*
X42877541Y-26876977D01*
X42687364Y-26950651D01*
X42687357Y-26950655D01*
X42513960Y-27058017D01*
X42513958Y-27058019D01*
X42363237Y-27195418D01*
X42240327Y-27358178D01*
X42149422Y-27540739D01*
X42149417Y-27540752D01*
X42093602Y-27736917D01*
X42074785Y-27939999D01*
X39870500Y-27939999D01*
X39870500Y-25399999D01*
X42074785Y-25399999D01*
X42074785Y-25400000D01*
X42093602Y-25603082D01*
X42149417Y-25799247D01*
X42149422Y-25799260D01*
X42240327Y-25981821D01*
X42363237Y-26144581D01*
X42513958Y-26281980D01*
X42513960Y-26281982D01*
X42560264Y-26310652D01*
X42687363Y-26389348D01*
X42877544Y-26463024D01*
X43078024Y-26500500D01*
X43078026Y-26500500D01*
X43281974Y-26500500D01*
X43281976Y-26500500D01*
X43482456Y-26463024D01*
X43672637Y-26389348D01*
X43846041Y-26281981D01*
X43996764Y-26144579D01*
X44119673Y-25981821D01*
X44210582Y-25799250D01*
X44266397Y-25603083D01*
X44285215Y-25400000D01*
X44285215Y-25399999D01*
X44614785Y-25399999D01*
X44614785Y-25400000D01*
X44633602Y-25603082D01*
X44689417Y-25799247D01*
X44689422Y-25799260D01*
X44780327Y-25981821D01*
X44903237Y-26144581D01*
X45053958Y-26281980D01*
X45053960Y-26281982D01*
X45100264Y-26310652D01*
X45227363Y-26389348D01*
X45417544Y-26463024D01*
X45618024Y-26500500D01*
X45618026Y-26500500D01*
X45821974Y-26500500D01*
X45821976Y-26500500D01*
X46022456Y-26463024D01*
X46212637Y-26389348D01*
X46386041Y-26281981D01*
X46536764Y-26144579D01*
X46659673Y-25981821D01*
X46750582Y-25799250D01*
X46806397Y-25603083D01*
X46825215Y-25400000D01*
X46806397Y-25196917D01*
X46750582Y-25000750D01*
X46659673Y-24818179D01*
X46536764Y-24655421D01*
X46536762Y-24655418D01*
X46386041Y-24518019D01*
X46386039Y-24518017D01*
X46212642Y-24410655D01*
X46212635Y-24410651D01*
X46074082Y-24356976D01*
X46022456Y-24336976D01*
X45821976Y-24299500D01*
X45618024Y-24299500D01*
X45417544Y-24336976D01*
X45417541Y-24336976D01*
X45417541Y-24336977D01*
X45227364Y-24410651D01*
X45227357Y-24410655D01*
X45053960Y-24518017D01*
X45053958Y-24518019D01*
X44903237Y-24655418D01*
X44780327Y-24818178D01*
X44689422Y-25000739D01*
X44689417Y-25000752D01*
X44633602Y-25196917D01*
X44614785Y-25399999D01*
X44285215Y-25399999D01*
X44266397Y-25196917D01*
X44210582Y-25000750D01*
X44119673Y-24818179D01*
X43996764Y-24655421D01*
X43996762Y-24655418D01*
X43846041Y-24518019D01*
X43846039Y-24518017D01*
X43672642Y-24410655D01*
X43672635Y-24410651D01*
X43534082Y-24356976D01*
X43482456Y-24336976D01*
X43281976Y-24299500D01*
X43078024Y-24299500D01*
X42877544Y-24336976D01*
X42877541Y-24336976D01*
X42877541Y-24336977D01*
X42687364Y-24410651D01*
X42687357Y-24410655D01*
X42513960Y-24518017D01*
X42513958Y-24518019D01*
X42363237Y-24655418D01*
X42240327Y-24818178D01*
X42149422Y-25000739D01*
X42149417Y-25000752D01*
X42093602Y-25196917D01*
X42074785Y-25399999D01*
X39870500Y-25399999D01*
X39870500Y-22859999D01*
X42074785Y-22859999D01*
X42074785Y-22860000D01*
X42093602Y-23063082D01*
X42149417Y-23259247D01*
X42149422Y-23259260D01*
X42240327Y-23441821D01*
X42363237Y-23604581D01*
X42513958Y-23741980D01*
X42513960Y-23741982D01*
X42613141Y-23803392D01*
X42687363Y-23849348D01*
X42877544Y-23923024D01*
X43078024Y-23960500D01*
X43078026Y-23960500D01*
X43281974Y-23960500D01*
X43281976Y-23960500D01*
X43482456Y-23923024D01*
X43672637Y-23849348D01*
X43846041Y-23741981D01*
X43996764Y-23604579D01*
X44119673Y-23441821D01*
X44210582Y-23259250D01*
X44266397Y-23063083D01*
X44285215Y-22860000D01*
X44285215Y-22859999D01*
X44614785Y-22859999D01*
X44614785Y-22860000D01*
X44633602Y-23063082D01*
X44689417Y-23259247D01*
X44689422Y-23259260D01*
X44780327Y-23441821D01*
X44903237Y-23604581D01*
X45053958Y-23741980D01*
X45053960Y-23741982D01*
X45153141Y-23803392D01*
X45227363Y-23849348D01*
X45417544Y-23923024D01*
X45618024Y-23960500D01*
X45618026Y-23960500D01*
X45821974Y-23960500D01*
X45821976Y-23960500D01*
X46022456Y-23923024D01*
X46119779Y-23885321D01*
X95419500Y-23885321D01*
X95419500Y-25634678D01*
X95434032Y-25707735D01*
X95434033Y-25707739D01*
X95434034Y-25707740D01*
X95489399Y-25790601D01*
X95572260Y-25845966D01*
X95572264Y-25845967D01*
X95645321Y-25860499D01*
X95645324Y-25860500D01*
X95645326Y-25860500D01*
X97394676Y-25860500D01*
X97394677Y-25860499D01*
X97467740Y-25845966D01*
X97550601Y-25790601D01*
X97605966Y-25707740D01*
X97620500Y-25634674D01*
X97620500Y-25419999D01*
X100494785Y-25419999D01*
X100494785Y-25420000D01*
X100513602Y-25623082D01*
X100569417Y-25819247D01*
X100569422Y-25819260D01*
X100660327Y-26001821D01*
X100783237Y-26164581D01*
X100933958Y-26301980D01*
X100933960Y-26301982D01*
X101033141Y-26363392D01*
X101107363Y-26409348D01*
X101297544Y-26483024D01*
X101498024Y-26520500D01*
X101498026Y-26520500D01*
X101701974Y-26520500D01*
X101701976Y-26520500D01*
X101902456Y-26483024D01*
X102092637Y-26409348D01*
X102266041Y-26301981D01*
X102416764Y-26164579D01*
X102539673Y-26001821D01*
X102630582Y-25819250D01*
X102686397Y-25623083D01*
X102705215Y-25420000D01*
X102705215Y-25419999D01*
X103034785Y-25419999D01*
X103034785Y-25420000D01*
X103053602Y-25623082D01*
X103109417Y-25819247D01*
X103109422Y-25819260D01*
X103200327Y-26001821D01*
X103323237Y-26164581D01*
X103473958Y-26301980D01*
X103473960Y-26301982D01*
X103573141Y-26363392D01*
X103647363Y-26409348D01*
X103837544Y-26483024D01*
X104038024Y-26520500D01*
X104038026Y-26520500D01*
X104241974Y-26520500D01*
X104241976Y-26520500D01*
X104442456Y-26483024D01*
X104632637Y-26409348D01*
X104806041Y-26301981D01*
X104956764Y-26164579D01*
X105079673Y-26001821D01*
X105170582Y-25819250D01*
X105226397Y-25623083D01*
X105245215Y-25420000D01*
X105226397Y-25216917D01*
X105170582Y-25020750D01*
X105160624Y-25000752D01*
X105126272Y-24931764D01*
X105079673Y-24838179D01*
X104956764Y-24675421D01*
X104956762Y-24675418D01*
X104806041Y-24538019D01*
X104806039Y-24538017D01*
X104632642Y-24430655D01*
X104632635Y-24430651D01*
X104537546Y-24393814D01*
X104442456Y-24356976D01*
X104241976Y-24319500D01*
X104038024Y-24319500D01*
X103837544Y-24356976D01*
X103837541Y-24356976D01*
X103837541Y-24356977D01*
X103647364Y-24430651D01*
X103647357Y-24430655D01*
X103473960Y-24538017D01*
X103473958Y-24538019D01*
X103323237Y-24675418D01*
X103200327Y-24838178D01*
X103109422Y-25020739D01*
X103109417Y-25020752D01*
X103053602Y-25216917D01*
X103034785Y-25419999D01*
X102705215Y-25419999D01*
X102686397Y-25216917D01*
X102630582Y-25020750D01*
X102620624Y-25000752D01*
X102586272Y-24931764D01*
X102539673Y-24838179D01*
X102416764Y-24675421D01*
X102416762Y-24675418D01*
X102266041Y-24538019D01*
X102266039Y-24538017D01*
X102092642Y-24430655D01*
X102092635Y-24430651D01*
X101997546Y-24393814D01*
X101902456Y-24356976D01*
X101701976Y-24319500D01*
X101498024Y-24319500D01*
X101297544Y-24356976D01*
X101297541Y-24356976D01*
X101297541Y-24356977D01*
X101107364Y-24430651D01*
X101107357Y-24430655D01*
X100933960Y-24538017D01*
X100933958Y-24538019D01*
X100783237Y-24675418D01*
X100660327Y-24838178D01*
X100569422Y-25020739D01*
X100569417Y-25020752D01*
X100513602Y-25216917D01*
X100494785Y-25419999D01*
X97620500Y-25419999D01*
X97620500Y-23885326D01*
X97620500Y-23885323D01*
X97620499Y-23885321D01*
X97605967Y-23812264D01*
X97605966Y-23812260D01*
X97550601Y-23729399D01*
X97467740Y-23674034D01*
X97467739Y-23674033D01*
X97467735Y-23674032D01*
X97394677Y-23659500D01*
X97394674Y-23659500D01*
X95645326Y-23659500D01*
X95645323Y-23659500D01*
X95572264Y-23674032D01*
X95572260Y-23674033D01*
X95489399Y-23729399D01*
X95434033Y-23812260D01*
X95434032Y-23812264D01*
X95419500Y-23885321D01*
X46119779Y-23885321D01*
X46212637Y-23849348D01*
X46386041Y-23741981D01*
X46536764Y-23604579D01*
X46659673Y-23441821D01*
X46750582Y-23259250D01*
X46806397Y-23063083D01*
X46823362Y-22879999D01*
X100494785Y-22879999D01*
X100494785Y-22880000D01*
X100513602Y-23083082D01*
X100569417Y-23279247D01*
X100569422Y-23279260D01*
X100660327Y-23461821D01*
X100783237Y-23624581D01*
X100933958Y-23761980D01*
X100933960Y-23761982D01*
X101015169Y-23812264D01*
X101107363Y-23869348D01*
X101297544Y-23943024D01*
X101498024Y-23980500D01*
X101498026Y-23980500D01*
X101701974Y-23980500D01*
X101701976Y-23980500D01*
X101902456Y-23943024D01*
X102092637Y-23869348D01*
X102266041Y-23761981D01*
X102416764Y-23624579D01*
X102539673Y-23461821D01*
X102630582Y-23279250D01*
X102686397Y-23083083D01*
X102705215Y-22880000D01*
X102705215Y-22879999D01*
X103034785Y-22879999D01*
X103034785Y-22880000D01*
X103053602Y-23083082D01*
X103109417Y-23279247D01*
X103109422Y-23279260D01*
X103200327Y-23461821D01*
X103323237Y-23624581D01*
X103473958Y-23761980D01*
X103473960Y-23761982D01*
X103555169Y-23812264D01*
X103647363Y-23869348D01*
X103837544Y-23943024D01*
X104038024Y-23980500D01*
X104038026Y-23980500D01*
X104241974Y-23980500D01*
X104241976Y-23980500D01*
X104442456Y-23943024D01*
X104632637Y-23869348D01*
X104806041Y-23761981D01*
X104956764Y-23624579D01*
X105079673Y-23461821D01*
X105170582Y-23279250D01*
X105226397Y-23083083D01*
X105245215Y-22880000D01*
X105226397Y-22676917D01*
X105170582Y-22480750D01*
X105160624Y-22460752D01*
X105126272Y-22391764D01*
X105079673Y-22298179D01*
X104956764Y-22135421D01*
X104956762Y-22135418D01*
X104806041Y-21998019D01*
X104806039Y-21998017D01*
X104632642Y-21890655D01*
X104632635Y-21890651D01*
X104537546Y-21853814D01*
X104442456Y-21816976D01*
X104241976Y-21779500D01*
X104038024Y-21779500D01*
X103837544Y-21816976D01*
X103837541Y-21816976D01*
X103837541Y-21816977D01*
X103647364Y-21890651D01*
X103647357Y-21890655D01*
X103473960Y-21998017D01*
X103473958Y-21998019D01*
X103323237Y-22135418D01*
X103200327Y-22298178D01*
X103109422Y-22480739D01*
X103109417Y-22480752D01*
X103053602Y-22676917D01*
X103034785Y-22879999D01*
X102705215Y-22879999D01*
X102686397Y-22676917D01*
X102630582Y-22480750D01*
X102620624Y-22460752D01*
X102586272Y-22391764D01*
X102539673Y-22298179D01*
X102416764Y-22135421D01*
X102416762Y-22135418D01*
X102266041Y-21998019D01*
X102266039Y-21998017D01*
X102092642Y-21890655D01*
X102092635Y-21890651D01*
X101997546Y-21853814D01*
X101902456Y-21816976D01*
X101701976Y-21779500D01*
X101498024Y-21779500D01*
X101297544Y-21816976D01*
X101297541Y-21816976D01*
X101297541Y-21816977D01*
X101107364Y-21890651D01*
X101107357Y-21890655D01*
X100933960Y-21998017D01*
X100933958Y-21998019D01*
X100783237Y-22135418D01*
X100660327Y-22298178D01*
X100569422Y-22480739D01*
X100569417Y-22480752D01*
X100513602Y-22676917D01*
X100494785Y-22879999D01*
X46823362Y-22879999D01*
X46825215Y-22860000D01*
X46806397Y-22656917D01*
X46750582Y-22460750D01*
X46659673Y-22278179D01*
X46536764Y-22115421D01*
X46536762Y-22115418D01*
X46386041Y-21978019D01*
X46386039Y-21978017D01*
X46212642Y-21870655D01*
X46212635Y-21870651D01*
X46074082Y-21816976D01*
X46022456Y-21796976D01*
X45821976Y-21759500D01*
X45618024Y-21759500D01*
X45417544Y-21796976D01*
X45417541Y-21796976D01*
X45417541Y-21796977D01*
X45227364Y-21870651D01*
X45227357Y-21870655D01*
X45053960Y-21978017D01*
X45053958Y-21978019D01*
X44903237Y-22115418D01*
X44780327Y-22278178D01*
X44689422Y-22460739D01*
X44689417Y-22460752D01*
X44633602Y-22656917D01*
X44614785Y-22859999D01*
X44285215Y-22859999D01*
X44266397Y-22656917D01*
X44210582Y-22460750D01*
X44119673Y-22278179D01*
X43996764Y-22115421D01*
X43996762Y-22115418D01*
X43846041Y-21978019D01*
X43846039Y-21978017D01*
X43672642Y-21870655D01*
X43672635Y-21870651D01*
X43534082Y-21816976D01*
X43482456Y-21796976D01*
X43281976Y-21759500D01*
X43078024Y-21759500D01*
X42877544Y-21796976D01*
X42877541Y-21796976D01*
X42877541Y-21796977D01*
X42687364Y-21870651D01*
X42687357Y-21870655D01*
X42513960Y-21978017D01*
X42513958Y-21978019D01*
X42363237Y-22115418D01*
X42240327Y-22278178D01*
X42149422Y-22460739D01*
X42149417Y-22460752D01*
X42093602Y-22656917D01*
X42074785Y-22859999D01*
X39870500Y-22859999D01*
X39870500Y-20319999D01*
X42074785Y-20319999D01*
X42074785Y-20320000D01*
X42093602Y-20523082D01*
X42149417Y-20719247D01*
X42149422Y-20719260D01*
X42240327Y-20901821D01*
X42363237Y-21064581D01*
X42513958Y-21201980D01*
X42513960Y-21201982D01*
X42613141Y-21263392D01*
X42687363Y-21309348D01*
X42877544Y-21383024D01*
X43078024Y-21420500D01*
X43078026Y-21420500D01*
X43281974Y-21420500D01*
X43281976Y-21420500D01*
X43482456Y-21383024D01*
X43672637Y-21309348D01*
X43846041Y-21201981D01*
X43996764Y-21064579D01*
X44119673Y-20901821D01*
X44210582Y-20719250D01*
X44266397Y-20523083D01*
X44285215Y-20320000D01*
X44266397Y-20116917D01*
X44210582Y-19920750D01*
X44119673Y-19738179D01*
X43996764Y-19575421D01*
X43996762Y-19575418D01*
X43854051Y-19445321D01*
X44619500Y-19445321D01*
X44619500Y-21194678D01*
X44634032Y-21267735D01*
X44634033Y-21267739D01*
X44634034Y-21267740D01*
X44689399Y-21350601D01*
X44767854Y-21403022D01*
X44772260Y-21405966D01*
X44772264Y-21405967D01*
X44845321Y-21420499D01*
X44845324Y-21420500D01*
X44845326Y-21420500D01*
X46594676Y-21420500D01*
X46594677Y-21420499D01*
X46667740Y-21405966D01*
X46750601Y-21350601D01*
X46805966Y-21267740D01*
X46820500Y-21194674D01*
X46820500Y-19465321D01*
X100499500Y-19465321D01*
X100499500Y-21214678D01*
X100514032Y-21287735D01*
X100514033Y-21287739D01*
X100514034Y-21287740D01*
X100569399Y-21370601D01*
X100652260Y-21425966D01*
X100652264Y-21425967D01*
X100725321Y-21440499D01*
X100725324Y-21440500D01*
X100725326Y-21440500D01*
X102474676Y-21440500D01*
X102474677Y-21440499D01*
X102547740Y-21425966D01*
X102630601Y-21370601D01*
X102685966Y-21287740D01*
X102700500Y-21214674D01*
X102700500Y-20339999D01*
X103034785Y-20339999D01*
X103034785Y-20340000D01*
X103053602Y-20543082D01*
X103109417Y-20739247D01*
X103109422Y-20739260D01*
X103200327Y-20921821D01*
X103323237Y-21084581D01*
X103473958Y-21221980D01*
X103473960Y-21221982D01*
X103547854Y-21267735D01*
X103647363Y-21329348D01*
X103837544Y-21403024D01*
X104038024Y-21440500D01*
X104038026Y-21440500D01*
X104241974Y-21440500D01*
X104241976Y-21440500D01*
X104442456Y-21403024D01*
X104632637Y-21329348D01*
X104806041Y-21221981D01*
X104956764Y-21084579D01*
X105079673Y-20921821D01*
X105170582Y-20739250D01*
X105226397Y-20543083D01*
X105245215Y-20340000D01*
X105226397Y-20136917D01*
X105170582Y-19940750D01*
X105160624Y-19920752D01*
X105126272Y-19851764D01*
X105079673Y-19758179D01*
X104956764Y-19595421D01*
X104956762Y-19595418D01*
X104806041Y-19458019D01*
X104806039Y-19458017D01*
X104632642Y-19350655D01*
X104632635Y-19350651D01*
X104526150Y-19309399D01*
X104442456Y-19276976D01*
X104241976Y-19239500D01*
X104038024Y-19239500D01*
X103837544Y-19276976D01*
X103837541Y-19276976D01*
X103837541Y-19276977D01*
X103647364Y-19350651D01*
X103647357Y-19350655D01*
X103473960Y-19458017D01*
X103473958Y-19458019D01*
X103323237Y-19595418D01*
X103200327Y-19758178D01*
X103109422Y-19940739D01*
X103109417Y-19940752D01*
X103053602Y-20136917D01*
X103034785Y-20339999D01*
X102700500Y-20339999D01*
X102700500Y-19465326D01*
X102700500Y-19465323D01*
X102700499Y-19465321D01*
X102685967Y-19392264D01*
X102685966Y-19392260D01*
X102672605Y-19372264D01*
X102630601Y-19309399D01*
X102552145Y-19256977D01*
X102547739Y-19254033D01*
X102547735Y-19254032D01*
X102474677Y-19239500D01*
X102474674Y-19239500D01*
X100725326Y-19239500D01*
X100725323Y-19239500D01*
X100652264Y-19254032D01*
X100652260Y-19254033D01*
X100569399Y-19309399D01*
X100514033Y-19392260D01*
X100514032Y-19392264D01*
X100499500Y-19465321D01*
X46820500Y-19465321D01*
X46820500Y-19445326D01*
X46820500Y-19445323D01*
X46820499Y-19445321D01*
X46805967Y-19372264D01*
X46805966Y-19372260D01*
X46791528Y-19350652D01*
X46750601Y-19289399D01*
X46667740Y-19234034D01*
X46667739Y-19234033D01*
X46667735Y-19234032D01*
X46594677Y-19219500D01*
X46594674Y-19219500D01*
X44845326Y-19219500D01*
X44845323Y-19219500D01*
X44772264Y-19234032D01*
X44772260Y-19234033D01*
X44689399Y-19289399D01*
X44634033Y-19372260D01*
X44634032Y-19372264D01*
X44619500Y-19445321D01*
X43854051Y-19445321D01*
X43846041Y-19438019D01*
X43846039Y-19438017D01*
X43672642Y-19330655D01*
X43672635Y-19330651D01*
X43534082Y-19276976D01*
X43482456Y-19256976D01*
X43281976Y-19219500D01*
X43078024Y-19219500D01*
X42877544Y-19256976D01*
X42877541Y-19256976D01*
X42877541Y-19256977D01*
X42687364Y-19330651D01*
X42687357Y-19330655D01*
X42513960Y-19438017D01*
X42513958Y-19438019D01*
X42363237Y-19575418D01*
X42240327Y-19738178D01*
X42149422Y-19920739D01*
X42149417Y-19920752D01*
X42093602Y-20116917D01*
X42074785Y-20319999D01*
X39870500Y-20319999D01*
X39870500Y-18404500D01*
X39890185Y-18337461D01*
X39942989Y-18291706D01*
X39994500Y-18280500D01*
X107325500Y-18280500D01*
X107392539Y-18300185D01*
G37*
%TD.AperFunction*%
%TD*%
M02*
