M48
; DRILL file {KiCad 8.0.4-8.0.4-0~ubuntu24.04.1} date 2024-08-19T10:46:07-0700
; FORMAT={-:-/ absolute / inch / decimal}
; #@! TF.CreationDate,2024-08-19T10:46:07-07:00
; #@! TF.GenerationSoftware,Kicad,Pcbnew,8.0.4-8.0.4-0~ubuntu24.04.1
; #@! TF.FileFunction,Plated,1,2,PTH
FMAT,2
INCH
; #@! TA.AperFunction,Plated,PTH,ComponentDrill
T1C0.0079
; #@! TA.AperFunction,Plated,PTH,ComponentDrill
T2C0.0315
%
G90
G05
T1
X1.5Y-1.2295
X1.5Y-1.7705
X1.6Y-1.2295
X1.6Y-1.7705
X1.7Y-1.2295
X1.7Y-1.7705
X1.8Y-1.2295
X1.8Y-1.7705
X1.9Y-1.2295
X1.9Y-1.7705
X2.0Y-1.2295
X2.0Y-1.7705
X2.1Y-1.2295
X2.1Y-1.7705
X2.2Y-1.2295
X2.2Y-1.7705
X2.3Y-1.2295
X2.3Y-1.7705
X2.4Y-1.2295
X2.4Y-1.7705
X2.5Y-1.2295
X2.5Y-1.7705
X2.6Y-1.2295
X2.6Y-1.7705
X2.7Y-1.2295
X2.7Y-1.7705
X2.8Y-1.2295
X2.8Y-1.7705
X2.9Y-1.2295
X2.9Y-1.7705
X3.0Y-1.2295
X3.0Y-1.7705
X3.1Y-1.2295
X3.1Y-1.7705
X3.2Y-1.2295
X3.2Y-1.7705
X3.3Y-1.2295
X3.3Y-1.7705
X3.4Y-1.2295
X3.4Y-1.7705
T2
X1.5002Y-1.2002
X1.5002Y-1.8002
X1.6002Y-1.2002
X1.6002Y-1.8002
X1.7002Y-1.2002
X1.7002Y-1.8002
X1.8002Y-1.2002
X1.8002Y-1.8002
X1.9002Y-1.2002
X1.9002Y-1.8002
X2.0002Y-1.2002
X2.0002Y-1.8002
X2.1002Y-1.2002
X2.1002Y-1.8002
X2.2002Y-1.2002
X2.2002Y-1.8002
X2.3002Y-1.2002
X2.3002Y-1.8002
X2.4002Y-1.2002
X2.4002Y-1.8002
X2.5002Y-1.2002
X2.5002Y-1.8002
X2.6002Y-1.2002
X2.6002Y-1.8002
X2.7002Y-1.2002
X2.7002Y-1.8002
X2.8002Y-1.2002
X2.8002Y-1.8002
X2.9002Y-1.2002
X2.9002Y-1.8002
X3.0002Y-1.2002
X3.0002Y-1.8002
X3.1002Y-1.2002
X3.1002Y-1.8002
X3.2002Y-1.2002
X3.2002Y-1.8002
X3.3002Y-1.2002
X3.3002Y-1.8002
X3.4002Y-1.2002
X3.4002Y-1.8002
M30
