%TF.GenerationSoftware,KiCad,Pcbnew,8.0.4-8.0.4-0~ubuntu24.04.1*%
%TF.CreationDate,2024-08-19T10:46:11-07:00*%
%TF.ProjectId,diode_upgrade,64696f64-655f-4757-9067-726164652e6b,1.0*%
%TF.SameCoordinates,Original*%
%TF.FileFunction,Soldermask,Top*%
%TF.FilePolarity,Negative*%
%FSLAX46Y46*%
G04 Gerber Fmt 4.6, Leading zero omitted, Abs format (unit mm)*
G04 Created by KiCad (PCBNEW 8.0.4-8.0.4-0~ubuntu24.04.1) date 2024-08-19 10:46:11*
%MOMM*%
%LPD*%
G01*
G04 APERTURE LIST*
G04 Aperture macros list*
%AMRoundRect*
0 Rectangle with rounded corners*
0 $1 Rounding radius*
0 $2 $3 $4 $5 $6 $7 $8 $9 X,Y pos of 4 corners*
0 Add a 4 corners polygon primitive as box body*
4,1,4,$2,$3,$4,$5,$6,$7,$8,$9,$2,$3,0*
0 Add four circle primitives for the rounded corners*
1,1,$1+$1,$2,$3*
1,1,$1+$1,$4,$5*
1,1,$1+$1,$6,$7*
1,1,$1+$1,$8,$9*
0 Add four rect primitives between the rounded corners*
20,1,$1+$1,$2,$3,$4,$5,0*
20,1,$1+$1,$4,$5,$6,$7,0*
20,1,$1+$1,$6,$7,$8,$9,0*
20,1,$1+$1,$8,$9,$2,$3,0*%
G04 Aperture macros list end*
%ADD10C,0.200000*%
%ADD11RoundRect,0.300000X-0.300000X0.800000X-0.300000X-0.800000X0.300000X-0.800000X0.300000X0.800000X0*%
%ADD12RoundRect,0.300000X0.300000X-0.800000X0.300000X0.800000X-0.300000X0.800000X-0.300000X-0.800000X0*%
%ADD13C,0.400000*%
%ADD14RoundRect,0.225000X0.225000X-0.400000X0.225000X0.400000X-0.225000X0.400000X-0.225000X-0.400000X0*%
%ADD15O,1.600000X2.400000*%
G04 APERTURE END LIST*
D10*
X37465000Y-37592000D02*
X86995000Y-37592000D01*
X86995000Y-38608000D01*
X37465000Y-38608000D01*
X37465000Y-37592000D01*
G36*
X37465000Y-37592000D02*
G01*
X86995000Y-37592000D01*
X86995000Y-38608000D01*
X37465000Y-38608000D01*
X37465000Y-37592000D01*
G37*
D11*
%TO.C,D40*%
X38100000Y-37102000D03*
X38100000Y-33002000D03*
%TD*%
%TO.C,D39*%
X40640000Y-37102000D03*
X40640000Y-33002000D03*
%TD*%
%TO.C,D38*%
X43180000Y-37102000D03*
X43180000Y-33002000D03*
%TD*%
%TO.C,D37*%
X45720000Y-37102000D03*
X45720000Y-33002000D03*
%TD*%
%TO.C,D36*%
X48260000Y-37102000D03*
X48260000Y-33002000D03*
%TD*%
%TO.C,D35*%
X50800000Y-37102000D03*
X50800000Y-33002000D03*
%TD*%
%TO.C,D34*%
X53340000Y-37102000D03*
X53340000Y-33002000D03*
%TD*%
%TO.C,D33*%
X55880000Y-37102000D03*
X55880000Y-33002000D03*
%TD*%
%TO.C,D32*%
X58420000Y-37102000D03*
X58420000Y-33002000D03*
%TD*%
%TO.C,D31*%
X60960000Y-37102000D03*
X60960000Y-33002000D03*
%TD*%
%TO.C,D30*%
X63500000Y-37102000D03*
X63500000Y-33002000D03*
%TD*%
%TO.C,D29*%
X66040000Y-37102000D03*
X66040000Y-33002000D03*
%TD*%
%TO.C,D28*%
X68580000Y-37102000D03*
X68580000Y-33002000D03*
%TD*%
%TO.C,D27*%
X71120000Y-37102000D03*
X71120000Y-33002000D03*
%TD*%
%TO.C,D26*%
X73660000Y-37102000D03*
X73660000Y-33002000D03*
%TD*%
%TO.C,D25*%
X76200000Y-37102000D03*
X76200000Y-33002000D03*
%TD*%
%TO.C,D24*%
X78740000Y-37102000D03*
X78740000Y-33002000D03*
%TD*%
%TO.C,D23*%
X81280000Y-37102000D03*
X81280000Y-33002000D03*
%TD*%
%TO.C,D22*%
X83820000Y-37102000D03*
X83820000Y-33002000D03*
%TD*%
%TO.C,D21*%
X86360000Y-37102000D03*
X86360000Y-33002000D03*
%TD*%
D12*
%TO.C,D20*%
X86360000Y-43198000D03*
X86360000Y-39098000D03*
%TD*%
%TO.C,D19*%
X83820000Y-39098000D03*
X83820000Y-43198000D03*
%TD*%
%TO.C,D18*%
X81280000Y-39098000D03*
X81280000Y-43198000D03*
%TD*%
%TO.C,D17*%
X78740000Y-39098000D03*
X78740000Y-43198000D03*
%TD*%
%TO.C,D16*%
X76200000Y-39098000D03*
X76200000Y-43198000D03*
%TD*%
%TO.C,D15*%
X73660000Y-39098000D03*
X73660000Y-43198000D03*
%TD*%
%TO.C,D14*%
X71120000Y-39098000D03*
X71120000Y-43198000D03*
%TD*%
%TO.C,D13*%
X68580000Y-39098000D03*
X68580000Y-43198000D03*
%TD*%
%TO.C,D12*%
X66040000Y-39098000D03*
X66040000Y-43198000D03*
%TD*%
%TO.C,D11*%
X63500000Y-39098000D03*
X63500000Y-43198000D03*
%TD*%
%TO.C,D10*%
X60960000Y-39098000D03*
X60960000Y-43198000D03*
%TD*%
%TO.C,D9*%
X58420000Y-39098000D03*
X58420000Y-43198000D03*
%TD*%
%TO.C,D8*%
X55880000Y-39098000D03*
X55880000Y-43198000D03*
%TD*%
%TO.C,D7*%
X53340000Y-39098000D03*
X53340000Y-43198000D03*
%TD*%
%TO.C,D6*%
X50800000Y-39098000D03*
X50800000Y-43198000D03*
%TD*%
%TO.C,D5*%
X48260000Y-39098000D03*
X48260000Y-43198000D03*
%TD*%
%TO.C,D4*%
X45720000Y-39098000D03*
X45720000Y-43198000D03*
%TD*%
%TO.C,D3*%
X43180000Y-39098000D03*
X43180000Y-43198000D03*
%TD*%
%TO.C,D2*%
X40640000Y-39098000D03*
X40640000Y-43198000D03*
%TD*%
%TO.C,D1*%
X38100000Y-39098000D03*
X38100000Y-43198000D03*
%TD*%
D13*
%TO.C,SOCKET1*%
X38100000Y-44970000D03*
D14*
X38100000Y-44845000D03*
D13*
X40640000Y-44970000D03*
D14*
X40640000Y-44845000D03*
D13*
X43180000Y-44970000D03*
D14*
X43180000Y-44845000D03*
D13*
X45720000Y-44970000D03*
D14*
X45720000Y-44845000D03*
D13*
X48260000Y-44970000D03*
D14*
X48260000Y-44845000D03*
D13*
X50800000Y-44970000D03*
D14*
X50800000Y-44845000D03*
D13*
X53340000Y-44970000D03*
D14*
X53340000Y-44845000D03*
D13*
X55880000Y-44970000D03*
D14*
X55880000Y-44845000D03*
D13*
X58420000Y-44970000D03*
D14*
X58420000Y-44845000D03*
D13*
X60960000Y-44970000D03*
D14*
X60960000Y-44845000D03*
D13*
X63500000Y-44970000D03*
D14*
X63500000Y-44845000D03*
D13*
X66040000Y-44970000D03*
D14*
X66040000Y-44845000D03*
D13*
X68580000Y-44970000D03*
D14*
X68580000Y-44845000D03*
D13*
X71120000Y-44970000D03*
D14*
X71120000Y-44845000D03*
D13*
X73660000Y-44970000D03*
D14*
X73660000Y-44845000D03*
D13*
X76200000Y-44970000D03*
D14*
X76200000Y-44845000D03*
D13*
X78740000Y-44970000D03*
D14*
X78740000Y-44845000D03*
D13*
X81280000Y-44970000D03*
D14*
X81280000Y-44845000D03*
D13*
X83820000Y-44970000D03*
D14*
X83820000Y-44845000D03*
D13*
X86360000Y-44970000D03*
D14*
X86360000Y-44845000D03*
X86360000Y-31355000D03*
D13*
X86360000Y-31230000D03*
D14*
X83820000Y-31355000D03*
D13*
X83820000Y-31230000D03*
D14*
X81280000Y-31355000D03*
D13*
X81280000Y-31230000D03*
D14*
X78740000Y-31355000D03*
D13*
X78740000Y-31230000D03*
D14*
X76200000Y-31355000D03*
D13*
X76200000Y-31230000D03*
D14*
X73660000Y-31355000D03*
D13*
X73660000Y-31230000D03*
D14*
X71120000Y-31355000D03*
D13*
X71120000Y-31230000D03*
D14*
X68580000Y-31355000D03*
D13*
X68580000Y-31230000D03*
D14*
X66040000Y-31355000D03*
D13*
X66040000Y-31230000D03*
D14*
X63500000Y-31355000D03*
D13*
X63500000Y-31230000D03*
D14*
X60960000Y-31355000D03*
D13*
X60960000Y-31230000D03*
D14*
X58420000Y-31355000D03*
D13*
X58420000Y-31230000D03*
D14*
X55880000Y-31355000D03*
D13*
X55880000Y-31230000D03*
D14*
X53340000Y-31355000D03*
D13*
X53340000Y-31230000D03*
D14*
X50800000Y-31355000D03*
D13*
X50800000Y-31230000D03*
D14*
X48260000Y-31355000D03*
D13*
X48260000Y-31230000D03*
D14*
X45720000Y-31355000D03*
D13*
X45720000Y-31230000D03*
D14*
X43180000Y-31355000D03*
D13*
X43180000Y-31230000D03*
D14*
X40640000Y-31355000D03*
D13*
X40640000Y-31230000D03*
D14*
X38100000Y-31355000D03*
D13*
X38100000Y-31230000D03*
%TD*%
D15*
%TO.C,SOCKET2*%
X38105000Y-45725000D03*
X40645000Y-45725000D03*
X43185000Y-45725000D03*
X45725000Y-45725000D03*
X48265000Y-45725000D03*
X50805000Y-45725000D03*
X53345000Y-45725000D03*
X55885000Y-45725000D03*
X58425000Y-45725000D03*
X60965000Y-45725000D03*
X63505000Y-45725000D03*
X66045000Y-45725000D03*
X68585000Y-45725000D03*
X71125000Y-45725000D03*
X73665000Y-45725000D03*
X76205000Y-45725000D03*
X78745000Y-45725000D03*
X81285000Y-45725000D03*
X83825000Y-45725000D03*
X86365000Y-45725000D03*
X86365000Y-30485000D03*
X83825000Y-30485000D03*
X81285000Y-30485000D03*
X78745000Y-30485000D03*
X76205000Y-30485000D03*
X73665000Y-30485000D03*
X71125000Y-30485000D03*
X68585000Y-30485000D03*
X66045000Y-30485000D03*
X63505000Y-30485000D03*
X60965000Y-30485000D03*
X58425000Y-30485000D03*
X55885000Y-30485000D03*
X53345000Y-30485000D03*
X50805000Y-30485000D03*
X48265000Y-30485000D03*
X45725000Y-30485000D03*
X43185000Y-30485000D03*
X40645000Y-30485000D03*
X38105000Y-30485000D03*
%TD*%
M02*
