%TF.GenerationSoftware,KiCad,Pcbnew,8.0.4-8.0.4-0~ubuntu24.04.1*%
%TF.CreationDate,2024-08-19T10:46:11-07:00*%
%TF.ProjectId,diode_upgrade,64696f64-655f-4757-9067-726164652e6b,1.0*%
%TF.SameCoordinates,Original*%
%TF.FileFunction,Copper,L2,Bot*%
%TF.FilePolarity,Positive*%
%FSLAX46Y46*%
G04 Gerber Fmt 4.6, Leading zero omitted, Abs format (unit mm)*
G04 Created by KiCad (PCBNEW 8.0.4-8.0.4-0~ubuntu24.04.1) date 2024-08-19 10:46:11*
%MOMM*%
%LPD*%
G01*
G04 APERTURE LIST*
G04 Aperture macros list*
%AMRoundRect*
0 Rectangle with rounded corners*
0 $1 Rounding radius*
0 $2 $3 $4 $5 $6 $7 $8 $9 X,Y pos of 4 corners*
0 Add a 4 corners polygon primitive as box body*
4,1,4,$2,$3,$4,$5,$6,$7,$8,$9,$2,$3,0*
0 Add four circle primitives for the rounded corners*
1,1,$1+$1,$2,$3*
1,1,$1+$1,$4,$5*
1,1,$1+$1,$6,$7*
1,1,$1+$1,$8,$9*
0 Add four rect primitives between the rounded corners*
20,1,$1+$1,$2,$3,$4,$5,0*
20,1,$1+$1,$4,$5,$6,$7,0*
20,1,$1+$1,$6,$7,$8,$9,0*
20,1,$1+$1,$8,$9,$2,$3,0*%
G04 Aperture macros list end*
%TA.AperFunction,Conductor*%
%ADD10C,0.200000*%
%TD*%
%TA.AperFunction,SMDPad,CuDef*%
%ADD11RoundRect,0.300000X0.300000X-0.800000X0.300000X0.800000X-0.300000X0.800000X-0.300000X-0.800000X0*%
%TD*%
%TA.AperFunction,SMDPad,CuDef*%
%ADD12RoundRect,0.300000X-0.300000X0.800000X-0.300000X-0.800000X0.300000X-0.800000X0.300000X0.800000X0*%
%TD*%
%TA.AperFunction,ComponentPad*%
%ADD13C,0.400000*%
%TD*%
%TA.AperFunction,SMDPad,CuDef*%
%ADD14RoundRect,0.225000X0.225000X-0.400000X0.225000X0.400000X-0.225000X0.400000X-0.225000X-0.400000X0*%
%TD*%
%TA.AperFunction,ComponentPad*%
%ADD15O,1.600000X2.400000*%
%TD*%
G04 APERTURE END LIST*
%TO.N,LINE*%
D10*
X37465000Y-37592000D02*
X86995000Y-37592000D01*
X86995000Y-38608000D01*
X37465000Y-38608000D01*
X37465000Y-37592000D01*
%TA.AperFunction,Conductor*%
G36*
X37465000Y-37592000D02*
G01*
X86995000Y-37592000D01*
X86995000Y-38608000D01*
X37465000Y-38608000D01*
X37465000Y-37592000D01*
G37*
%TD.AperFunction*%
%TD*%
D11*
%TO.P,D80,1,K*%
%TO.N,LINE*%
X38100000Y-37102000D03*
%TO.P,D80,2,A*%
%TO.N,/PIN40*%
X38100000Y-33002000D03*
%TD*%
%TO.P,D79,1,K*%
%TO.N,LINE*%
X40640000Y-37102000D03*
%TO.P,D79,2,A*%
%TO.N,/PIN39*%
X40640000Y-33002000D03*
%TD*%
%TO.P,D78,1,K*%
%TO.N,LINE*%
X43180000Y-37102000D03*
%TO.P,D78,2,A*%
%TO.N,/PIN38*%
X43180000Y-33002000D03*
%TD*%
%TO.P,D77,1,K*%
%TO.N,LINE*%
X45720000Y-37102000D03*
%TO.P,D77,2,A*%
%TO.N,/PIN37*%
X45720000Y-33002000D03*
%TD*%
%TO.P,D76,1,K*%
%TO.N,LINE*%
X48260000Y-37102000D03*
%TO.P,D76,2,A*%
%TO.N,/PIN36*%
X48260000Y-33002000D03*
%TD*%
%TO.P,D75,1,K*%
%TO.N,LINE*%
X50800000Y-37102000D03*
%TO.P,D75,2,A*%
%TO.N,/PIN35*%
X50800000Y-33002000D03*
%TD*%
%TO.P,D74,1,K*%
%TO.N,LINE*%
X53340000Y-37102000D03*
%TO.P,D74,2,A*%
%TO.N,/PIN34*%
X53340000Y-33002000D03*
%TD*%
%TO.P,D73,1,K*%
%TO.N,LINE*%
X55880000Y-37102000D03*
%TO.P,D73,2,A*%
%TO.N,/PIN33*%
X55880000Y-33002000D03*
%TD*%
%TO.P,D72,1,K*%
%TO.N,LINE*%
X58420000Y-37102000D03*
%TO.P,D72,2,A*%
%TO.N,/PIN32*%
X58420000Y-33002000D03*
%TD*%
%TO.P,D71,2,A*%
%TO.N,/PIN31*%
X60960000Y-33002000D03*
%TO.P,D71,1,K*%
%TO.N,LINE*%
X60960000Y-37102000D03*
%TD*%
%TO.P,D70,1,K*%
%TO.N,LINE*%
X63500000Y-37102000D03*
%TO.P,D70,2,A*%
%TO.N,/PIN30*%
X63500000Y-33002000D03*
%TD*%
%TO.P,D69,1,K*%
%TO.N,LINE*%
X66040000Y-37102000D03*
%TO.P,D69,2,A*%
%TO.N,/PIN29*%
X66040000Y-33002000D03*
%TD*%
%TO.P,D68,1,K*%
%TO.N,LINE*%
X68580000Y-37102000D03*
%TO.P,D68,2,A*%
%TO.N,/PIN28*%
X68580000Y-33002000D03*
%TD*%
%TO.P,D67,1,K*%
%TO.N,LINE*%
X71120000Y-37102000D03*
%TO.P,D67,2,A*%
%TO.N,/PIN27*%
X71120000Y-33002000D03*
%TD*%
%TO.P,D66,1,K*%
%TO.N,LINE*%
X73660000Y-37102000D03*
%TO.P,D66,2,A*%
%TO.N,/PIN26*%
X73660000Y-33002000D03*
%TD*%
%TO.P,D65,1,K*%
%TO.N,LINE*%
X76200000Y-37102000D03*
%TO.P,D65,2,A*%
%TO.N,/PIN25*%
X76200000Y-33002000D03*
%TD*%
%TO.P,D64,1,K*%
%TO.N,LINE*%
X78740000Y-37102000D03*
%TO.P,D64,2,A*%
%TO.N,/PIN24*%
X78740000Y-33002000D03*
%TD*%
%TO.P,D63,1,K*%
%TO.N,LINE*%
X81280000Y-37102000D03*
%TO.P,D63,2,A*%
%TO.N,/PIN23*%
X81280000Y-33002000D03*
%TD*%
%TO.P,D62,1,K*%
%TO.N,LINE*%
X83820000Y-37102000D03*
%TO.P,D62,2,A*%
%TO.N,/PIN22*%
X83820000Y-33002000D03*
%TD*%
D12*
%TO.P,D60,1,K*%
%TO.N,LINE*%
X86360000Y-39098000D03*
%TO.P,D60,2,A*%
%TO.N,/PIN20*%
X86360000Y-43198000D03*
%TD*%
%TO.P,D59,1,K*%
%TO.N,LINE*%
X83820000Y-39098000D03*
%TO.P,D59,2,A*%
%TO.N,/PIN19*%
X83820000Y-43198000D03*
%TD*%
%TO.P,D58,1,K*%
%TO.N,LINE*%
X81280000Y-39098000D03*
%TO.P,D58,2,A*%
%TO.N,/PIN18*%
X81280000Y-43198000D03*
%TD*%
%TO.P,D57,1,K*%
%TO.N,LINE*%
X78740000Y-39098000D03*
%TO.P,D57,2,A*%
%TO.N,/PIN17*%
X78740000Y-43198000D03*
%TD*%
%TO.P,D56,1,K*%
%TO.N,LINE*%
X76200000Y-39098000D03*
%TO.P,D56,2,A*%
%TO.N,/PIN16*%
X76200000Y-43198000D03*
%TD*%
%TO.P,D55,1,K*%
%TO.N,LINE*%
X73660000Y-39098000D03*
%TO.P,D55,2,A*%
%TO.N,/PIN15*%
X73660000Y-43198000D03*
%TD*%
%TO.P,D54,1,K*%
%TO.N,LINE*%
X71120000Y-39098000D03*
%TO.P,D54,2,A*%
%TO.N,/PIN14*%
X71120000Y-43198000D03*
%TD*%
%TO.P,D53,1,K*%
%TO.N,LINE*%
X68580000Y-39098000D03*
%TO.P,D53,2,A*%
%TO.N,/PIN13*%
X68580000Y-43198000D03*
%TD*%
%TO.P,D52,1,K*%
%TO.N,LINE*%
X66040000Y-39098000D03*
%TO.P,D52,2,A*%
%TO.N,/PIN12*%
X66040000Y-43198000D03*
%TD*%
%TO.P,D51,1,K*%
%TO.N,LINE*%
X63500000Y-39098000D03*
%TO.P,D51,2,A*%
%TO.N,/PIN11*%
X63500000Y-43198000D03*
%TD*%
%TO.P,D50,1,K*%
%TO.N,LINE*%
X60960000Y-39098000D03*
%TO.P,D50,2,A*%
%TO.N,/PIN10*%
X60960000Y-43198000D03*
%TD*%
%TO.P,D49,1,K*%
%TO.N,LINE*%
X58420000Y-39098000D03*
%TO.P,D49,2,A*%
%TO.N,/PIN9*%
X58420000Y-43198000D03*
%TD*%
%TO.P,D48,1,K*%
%TO.N,LINE*%
X55880000Y-39098000D03*
%TO.P,D48,2,A*%
%TO.N,/PIN8*%
X55880000Y-43198000D03*
%TD*%
%TO.P,D47,1,K*%
%TO.N,LINE*%
X53340000Y-39098000D03*
%TO.P,D47,2,A*%
%TO.N,/PIN7*%
X53340000Y-43198000D03*
%TD*%
%TO.P,D46,1,K*%
%TO.N,LINE*%
X50800000Y-39098000D03*
%TO.P,D46,2,A*%
%TO.N,/PIN6*%
X50800000Y-43198000D03*
%TD*%
%TO.P,D45,1,K*%
%TO.N,LINE*%
X48260000Y-39098000D03*
%TO.P,D45,2,A*%
%TO.N,/PIN5*%
X48260000Y-43198000D03*
%TD*%
%TO.P,D44,1,K*%
%TO.N,LINE*%
X45720000Y-39098000D03*
%TO.P,D44,2,A*%
%TO.N,/PIN4*%
X45720000Y-43198000D03*
%TD*%
%TO.P,D43,1,K*%
%TO.N,LINE*%
X43180000Y-39098000D03*
%TO.P,D43,2,A*%
%TO.N,/PIN3*%
X43180000Y-43198000D03*
%TD*%
%TO.P,D42,1,K*%
%TO.N,LINE*%
X40640000Y-39098000D03*
%TO.P,D42,2,A*%
%TO.N,/PIN2*%
X40640000Y-43198000D03*
%TD*%
%TO.P,D41,1,K*%
%TO.N,LINE*%
X38100000Y-39098000D03*
%TO.P,D41,2,A*%
%TO.N,/PIN1*%
X38100000Y-43198000D03*
%TD*%
D13*
%TO.P,SOCKET1,1,Pin_1*%
%TO.N,/PIN1*%
X38100000Y-44970000D03*
D14*
X38100000Y-44845000D03*
D13*
%TO.P,SOCKET1,2,Pin_2*%
%TO.N,/PIN2*%
X40640000Y-44970000D03*
D14*
X40640000Y-44845000D03*
D13*
%TO.P,SOCKET1,3,Pin_3*%
%TO.N,/PIN3*%
X43180000Y-44970000D03*
D14*
X43180000Y-44845000D03*
D13*
%TO.P,SOCKET1,4,Pin_4*%
%TO.N,/PIN4*%
X45720000Y-44970000D03*
D14*
X45720000Y-44845000D03*
D13*
%TO.P,SOCKET1,5,Pin_5*%
%TO.N,/PIN5*%
X48260000Y-44970000D03*
D14*
X48260000Y-44845000D03*
D13*
%TO.P,SOCKET1,6,Pin_6*%
%TO.N,/PIN6*%
X50800000Y-44970000D03*
D14*
X50800000Y-44845000D03*
D13*
%TO.P,SOCKET1,7,Pin_7*%
%TO.N,/PIN7*%
X53340000Y-44970000D03*
D14*
X53340000Y-44845000D03*
D13*
%TO.P,SOCKET1,8,Pin_8*%
%TO.N,/PIN8*%
X55880000Y-44970000D03*
D14*
X55880000Y-44845000D03*
D13*
%TO.P,SOCKET1,9,Pin_9*%
%TO.N,/PIN9*%
X58420000Y-44970000D03*
D14*
X58420000Y-44845000D03*
D13*
%TO.P,SOCKET1,10,Pin_10*%
%TO.N,/PIN10*%
X60960000Y-44970000D03*
D14*
X60960000Y-44845000D03*
D13*
%TO.P,SOCKET1,11,Pin_11*%
%TO.N,/PIN11*%
X63500000Y-44970000D03*
D14*
X63500000Y-44845000D03*
D13*
%TO.P,SOCKET1,12,Pin_12*%
%TO.N,/PIN12*%
X66040000Y-44970000D03*
D14*
X66040000Y-44845000D03*
D13*
%TO.P,SOCKET1,13,Pin_13*%
%TO.N,/PIN13*%
X68580000Y-44970000D03*
D14*
X68580000Y-44845000D03*
D13*
%TO.P,SOCKET1,14,Pin_14*%
%TO.N,/PIN14*%
X71120000Y-44970000D03*
D14*
X71120000Y-44845000D03*
D13*
%TO.P,SOCKET1,15,Pin_15*%
%TO.N,/PIN15*%
X73660000Y-44970000D03*
D14*
X73660000Y-44845000D03*
D13*
%TO.P,SOCKET1,16,Pin_16*%
%TO.N,/PIN16*%
X76200000Y-44970000D03*
D14*
X76200000Y-44845000D03*
D13*
%TO.P,SOCKET1,17,Pin_17*%
%TO.N,/PIN17*%
X78740000Y-44970000D03*
D14*
X78740000Y-44845000D03*
D13*
%TO.P,SOCKET1,18,Pin_18*%
%TO.N,/PIN18*%
X81280000Y-44970000D03*
D14*
X81280000Y-44845000D03*
D13*
%TO.P,SOCKET1,19,Pin_19*%
%TO.N,/PIN19*%
X83820000Y-44970000D03*
D14*
X83820000Y-44845000D03*
D13*
%TO.P,SOCKET1,20,Pin_20*%
%TO.N,/PIN20*%
X86360000Y-44970000D03*
D14*
X86360000Y-44845000D03*
%TO.P,SOCKET1,21,Pin_21*%
%TO.N,/PIN21*%
X86360000Y-31355000D03*
D13*
X86360000Y-31230000D03*
D14*
%TO.P,SOCKET1,22,Pin_22*%
%TO.N,/PIN22*%
X83820000Y-31355000D03*
D13*
X83820000Y-31230000D03*
D14*
%TO.P,SOCKET1,23,Pin_23*%
%TO.N,/PIN23*%
X81280000Y-31355000D03*
D13*
X81280000Y-31230000D03*
D14*
%TO.P,SOCKET1,24,Pin_24*%
%TO.N,/PIN24*%
X78740000Y-31355000D03*
D13*
X78740000Y-31230000D03*
D14*
%TO.P,SOCKET1,25,Pin_25*%
%TO.N,/PIN25*%
X76200000Y-31355000D03*
D13*
X76200000Y-31230000D03*
D14*
%TO.P,SOCKET1,26,Pin_26*%
%TO.N,/PIN26*%
X73660000Y-31355000D03*
D13*
X73660000Y-31230000D03*
D14*
%TO.P,SOCKET1,27,Pin_27*%
%TO.N,/PIN27*%
X71120000Y-31355000D03*
D13*
X71120000Y-31230000D03*
D14*
%TO.P,SOCKET1,28,Pin_28*%
%TO.N,/PIN28*%
X68580000Y-31355000D03*
D13*
X68580000Y-31230000D03*
D14*
%TO.P,SOCKET1,29,Pin_29*%
%TO.N,/PIN29*%
X66040000Y-31355000D03*
D13*
X66040000Y-31230000D03*
D14*
%TO.P,SOCKET1,30,Pin_30*%
%TO.N,/PIN30*%
X63500000Y-31355000D03*
D13*
X63500000Y-31230000D03*
D14*
%TO.P,SOCKET1,31,Pin_31*%
%TO.N,/PIN31*%
X60960000Y-31355000D03*
D13*
X60960000Y-31230000D03*
D14*
%TO.P,SOCKET1,32,Pin_32*%
%TO.N,/PIN32*%
X58420000Y-31355000D03*
D13*
X58420000Y-31230000D03*
D14*
%TO.P,SOCKET1,33,Pin_33*%
%TO.N,/PIN33*%
X55880000Y-31355000D03*
D13*
X55880000Y-31230000D03*
D14*
%TO.P,SOCKET1,34,Pin_34*%
%TO.N,/PIN34*%
X53340000Y-31355000D03*
D13*
X53340000Y-31230000D03*
D14*
%TO.P,SOCKET1,35,Pin_35*%
%TO.N,/PIN35*%
X50800000Y-31355000D03*
D13*
X50800000Y-31230000D03*
D14*
%TO.P,SOCKET1,36,Pin_36*%
%TO.N,/PIN36*%
X48260000Y-31355000D03*
D13*
X48260000Y-31230000D03*
D14*
%TO.P,SOCKET1,37,Pin_37*%
%TO.N,/PIN37*%
X45720000Y-31355000D03*
D13*
X45720000Y-31230000D03*
D14*
%TO.P,SOCKET1,38,Pin_38*%
%TO.N,/PIN38*%
X43180000Y-31355000D03*
D13*
X43180000Y-31230000D03*
D14*
%TO.P,SOCKET1,39,Pin_39*%
%TO.N,/PIN39*%
X40640000Y-31355000D03*
D13*
X40640000Y-31230000D03*
D14*
%TO.P,SOCKET1,40,Pin_40*%
%TO.N,/PIN40*%
X38100000Y-31355000D03*
D13*
X38100000Y-31230000D03*
%TD*%
D11*
%TO.P,D61,1,K*%
%TO.N,LINE*%
X86360000Y-37102000D03*
%TO.P,D61,2,A*%
%TO.N,/PIN21*%
X86360000Y-33002000D03*
%TD*%
D15*
%TO.P,SOCKET2,1,Pin_1*%
%TO.N,/PIN1*%
X38105000Y-45725000D03*
%TO.P,SOCKET2,2,Pin_2*%
%TO.N,/PIN2*%
X40645000Y-45725000D03*
%TO.P,SOCKET2,3,Pin_3*%
%TO.N,/PIN3*%
X43185000Y-45725000D03*
%TO.P,SOCKET2,4,Pin_4*%
%TO.N,/PIN4*%
X45725000Y-45725000D03*
%TO.P,SOCKET2,5,Pin_5*%
%TO.N,/PIN5*%
X48265000Y-45725000D03*
%TO.P,SOCKET2,6,Pin_6*%
%TO.N,/PIN6*%
X50805000Y-45725000D03*
%TO.P,SOCKET2,7,Pin_7*%
%TO.N,/PIN7*%
X53345000Y-45725000D03*
%TO.P,SOCKET2,8,Pin_8*%
%TO.N,/PIN8*%
X55885000Y-45725000D03*
%TO.P,SOCKET2,9,Pin_9*%
%TO.N,/PIN9*%
X58425000Y-45725000D03*
%TO.P,SOCKET2,10,Pin_10*%
%TO.N,/PIN10*%
X60965000Y-45725000D03*
%TO.P,SOCKET2,11,Pin_11*%
%TO.N,/PIN11*%
X63505000Y-45725000D03*
%TO.P,SOCKET2,12,Pin_12*%
%TO.N,/PIN12*%
X66045000Y-45725000D03*
%TO.P,SOCKET2,13,Pin_13*%
%TO.N,/PIN13*%
X68585000Y-45725000D03*
%TO.P,SOCKET2,14,Pin_14*%
%TO.N,/PIN14*%
X71125000Y-45725000D03*
%TO.P,SOCKET2,15,Pin_15*%
%TO.N,/PIN15*%
X73665000Y-45725000D03*
%TO.P,SOCKET2,16,Pin_16*%
%TO.N,/PIN16*%
X76205000Y-45725000D03*
%TO.P,SOCKET2,17,Pin_17*%
%TO.N,/PIN17*%
X78745000Y-45725000D03*
%TO.P,SOCKET2,18,Pin_18*%
%TO.N,/PIN18*%
X81285000Y-45725000D03*
%TO.P,SOCKET2,19,Pin_19*%
%TO.N,/PIN19*%
X83825000Y-45725000D03*
%TO.P,SOCKET2,20,Pin_20*%
%TO.N,/PIN20*%
X86365000Y-45725000D03*
%TO.P,SOCKET2,21,Pin_21*%
%TO.N,/PIN21*%
X86365000Y-30485000D03*
%TO.P,SOCKET2,22,Pin_22*%
%TO.N,/PIN22*%
X83825000Y-30485000D03*
%TO.P,SOCKET2,23,Pin_23*%
%TO.N,/PIN23*%
X81285000Y-30485000D03*
%TO.P,SOCKET2,24,Pin_24*%
%TO.N,/PIN24*%
X78745000Y-30485000D03*
%TO.P,SOCKET2,25,Pin_25*%
%TO.N,/PIN25*%
X76205000Y-30485000D03*
%TO.P,SOCKET2,26,Pin_26*%
%TO.N,/PIN26*%
X73665000Y-30485000D03*
%TO.P,SOCKET2,27,Pin_27*%
%TO.N,/PIN27*%
X71125000Y-30485000D03*
%TO.P,SOCKET2,28,Pin_28*%
%TO.N,/PIN28*%
X68585000Y-30485000D03*
%TO.P,SOCKET2,29,Pin_29*%
%TO.N,/PIN29*%
X66045000Y-30485000D03*
%TO.P,SOCKET2,30,Pin_30*%
%TO.N,/PIN30*%
X63505000Y-30485000D03*
%TO.P,SOCKET2,31,Pin_31*%
%TO.N,/PIN31*%
X60965000Y-30485000D03*
%TO.P,SOCKET2,32,Pin_32*%
%TO.N,/PIN32*%
X58425000Y-30485000D03*
%TO.P,SOCKET2,33,Pin_33*%
%TO.N,/PIN33*%
X55885000Y-30485000D03*
%TO.P,SOCKET2,34,Pin_34*%
%TO.N,/PIN34*%
X53345000Y-30485000D03*
%TO.P,SOCKET2,35,Pin_35*%
%TO.N,/PIN35*%
X50805000Y-30485000D03*
%TO.P,SOCKET2,36,Pin_36*%
%TO.N,/PIN36*%
X48265000Y-30485000D03*
%TO.P,SOCKET2,37,Pin_37*%
%TO.N,/PIN37*%
X45725000Y-30485000D03*
%TO.P,SOCKET2,38,Pin_38*%
%TO.N,/PIN38*%
X43185000Y-30485000D03*
%TO.P,SOCKET2,39,Pin_39*%
%TO.N,/PIN39*%
X40645000Y-30485000D03*
%TO.P,SOCKET2,40,Pin_40*%
%TO.N,/PIN40*%
X38105000Y-30485000D03*
%TD*%
M02*
