%TF.GenerationSoftware,KiCad,Pcbnew,8.0.1-8.0.1-1~ubuntu22.04.1*%
%TF.CreationDate,2024-05-05T11:37:54-07:00*%
%TF.ProjectId,unic_gw1,756e6963-5f67-4773-912e-6b696361645f,1.0*%
%TF.SameCoordinates,Original*%
%TF.FileFunction,Copper,L2,Inr*%
%TF.FilePolarity,Positive*%
%FSLAX46Y46*%
G04 Gerber Fmt 4.6, Leading zero omitted, Abs format (unit mm)*
G04 Created by KiCad (PCBNEW 8.0.1-8.0.1-1~ubuntu22.04.1) date 2024-05-05 11:37:54*
%MOMM*%
%LPD*%
G01*
G04 APERTURE LIST*
%ADD10C,0.150000*%
%TA.AperFunction,NonConductor*%
%ADD11C,0.150000*%
%TD*%
%TA.AperFunction,ViaPad*%
%ADD12C,0.400000*%
%TD*%
%TA.AperFunction,Conductor*%
%ADD13C,0.100000*%
%TD*%
%TA.AperFunction,Conductor*%
%ADD14C,0.400000*%
%TD*%
%TA.AperFunction,Conductor*%
%ADD15C,0.800000*%
%TD*%
%TA.AperFunction,Conductor*%
%ADD16C,1.000000*%
%TD*%
G04 APERTURE END LIST*
D10*
D11*
X55609279Y-41319931D02*
X55609279Y-42129454D01*
X55609279Y-42129454D02*
X55656898Y-42224692D01*
X55656898Y-42224692D02*
X55704517Y-42272312D01*
X55704517Y-42272312D02*
X55799755Y-42319931D01*
X55799755Y-42319931D02*
X55990231Y-42319931D01*
X55990231Y-42319931D02*
X56085469Y-42272312D01*
X56085469Y-42272312D02*
X56133088Y-42224692D01*
X56133088Y-42224692D02*
X56180707Y-42129454D01*
X56180707Y-42129454D02*
X56180707Y-41319931D01*
X56656898Y-41653264D02*
X56656898Y-42319931D01*
X56656898Y-41748502D02*
X56704517Y-41700883D01*
X56704517Y-41700883D02*
X56799755Y-41653264D01*
X56799755Y-41653264D02*
X56942612Y-41653264D01*
X56942612Y-41653264D02*
X57037850Y-41700883D01*
X57037850Y-41700883D02*
X57085469Y-41796121D01*
X57085469Y-41796121D02*
X57085469Y-42319931D01*
X57561660Y-42319931D02*
X57561660Y-41319931D01*
X58609278Y-42224692D02*
X58561659Y-42272312D01*
X58561659Y-42272312D02*
X58418802Y-42319931D01*
X58418802Y-42319931D02*
X58323564Y-42319931D01*
X58323564Y-42319931D02*
X58180707Y-42272312D01*
X58180707Y-42272312D02*
X58085469Y-42177073D01*
X58085469Y-42177073D02*
X58037850Y-42081835D01*
X58037850Y-42081835D02*
X57990231Y-41891359D01*
X57990231Y-41891359D02*
X57990231Y-41748502D01*
X57990231Y-41748502D02*
X58037850Y-41558026D01*
X58037850Y-41558026D02*
X58085469Y-41462788D01*
X58085469Y-41462788D02*
X58180707Y-41367550D01*
X58180707Y-41367550D02*
X58323564Y-41319931D01*
X58323564Y-41319931D02*
X58418802Y-41319931D01*
X58418802Y-41319931D02*
X58561659Y-41367550D01*
X58561659Y-41367550D02*
X58609278Y-41415169D01*
X59656898Y-41319931D02*
X59990231Y-42319931D01*
X59990231Y-42319931D02*
X60323564Y-41319931D01*
X61180707Y-42319931D02*
X60609279Y-42319931D01*
X60894993Y-42319931D02*
X60894993Y-41319931D01*
X60894993Y-41319931D02*
X60799755Y-41462788D01*
X60799755Y-41462788D02*
X60704517Y-41558026D01*
X60704517Y-41558026D02*
X60609279Y-41605645D01*
X61609279Y-42224692D02*
X61656898Y-42272312D01*
X61656898Y-42272312D02*
X61609279Y-42319931D01*
X61609279Y-42319931D02*
X61561660Y-42272312D01*
X61561660Y-42272312D02*
X61609279Y-42224692D01*
X61609279Y-42224692D02*
X61609279Y-42319931D01*
X62275945Y-41319931D02*
X62371183Y-41319931D01*
X62371183Y-41319931D02*
X62466421Y-41367550D01*
X62466421Y-41367550D02*
X62514040Y-41415169D01*
X62514040Y-41415169D02*
X62561659Y-41510407D01*
X62561659Y-41510407D02*
X62609278Y-41700883D01*
X62609278Y-41700883D02*
X62609278Y-41938978D01*
X62609278Y-41938978D02*
X62561659Y-42129454D01*
X62561659Y-42129454D02*
X62514040Y-42224692D01*
X62514040Y-42224692D02*
X62466421Y-42272312D01*
X62466421Y-42272312D02*
X62371183Y-42319931D01*
X62371183Y-42319931D02*
X62275945Y-42319931D01*
X62275945Y-42319931D02*
X62180707Y-42272312D01*
X62180707Y-42272312D02*
X62133088Y-42224692D01*
X62133088Y-42224692D02*
X62085469Y-42129454D01*
X62085469Y-42129454D02*
X62037850Y-41938978D01*
X62037850Y-41938978D02*
X62037850Y-41700883D01*
X62037850Y-41700883D02*
X62085469Y-41510407D01*
X62085469Y-41510407D02*
X62133088Y-41415169D01*
X62133088Y-41415169D02*
X62180707Y-41367550D01*
X62180707Y-41367550D02*
X62275945Y-41319931D01*
X56085469Y-43929875D02*
X55609279Y-43929875D01*
X55609279Y-43929875D02*
X55609279Y-42929875D01*
X56847374Y-43929875D02*
X56847374Y-43406065D01*
X56847374Y-43406065D02*
X56799755Y-43310827D01*
X56799755Y-43310827D02*
X56704517Y-43263208D01*
X56704517Y-43263208D02*
X56514041Y-43263208D01*
X56514041Y-43263208D02*
X56418803Y-43310827D01*
X56847374Y-43882256D02*
X56752136Y-43929875D01*
X56752136Y-43929875D02*
X56514041Y-43929875D01*
X56514041Y-43929875D02*
X56418803Y-43882256D01*
X56418803Y-43882256D02*
X56371184Y-43787017D01*
X56371184Y-43787017D02*
X56371184Y-43691779D01*
X56371184Y-43691779D02*
X56418803Y-43596541D01*
X56418803Y-43596541D02*
X56514041Y-43548922D01*
X56514041Y-43548922D02*
X56752136Y-43548922D01*
X56752136Y-43548922D02*
X56847374Y-43501303D01*
X57228327Y-43263208D02*
X57466422Y-43929875D01*
X57704517Y-43263208D02*
X57466422Y-43929875D01*
X57466422Y-43929875D02*
X57371184Y-44167970D01*
X57371184Y-44167970D02*
X57323565Y-44215589D01*
X57323565Y-44215589D02*
X57228327Y-44263208D01*
X58466422Y-43882256D02*
X58371184Y-43929875D01*
X58371184Y-43929875D02*
X58180708Y-43929875D01*
X58180708Y-43929875D02*
X58085470Y-43882256D01*
X58085470Y-43882256D02*
X58037851Y-43787017D01*
X58037851Y-43787017D02*
X58037851Y-43406065D01*
X58037851Y-43406065D02*
X58085470Y-43310827D01*
X58085470Y-43310827D02*
X58180708Y-43263208D01*
X58180708Y-43263208D02*
X58371184Y-43263208D01*
X58371184Y-43263208D02*
X58466422Y-43310827D01*
X58466422Y-43310827D02*
X58514041Y-43406065D01*
X58514041Y-43406065D02*
X58514041Y-43501303D01*
X58514041Y-43501303D02*
X58037851Y-43596541D01*
X58942613Y-43929875D02*
X58942613Y-43263208D01*
X58942613Y-43453684D02*
X58990232Y-43358446D01*
X58990232Y-43358446D02*
X59037851Y-43310827D01*
X59037851Y-43310827D02*
X59133089Y-43263208D01*
X59133089Y-43263208D02*
X59228327Y-43263208D01*
X60275947Y-43025113D02*
X60323566Y-42977494D01*
X60323566Y-42977494D02*
X60418804Y-42929875D01*
X60418804Y-42929875D02*
X60656899Y-42929875D01*
X60656899Y-42929875D02*
X60752137Y-42977494D01*
X60752137Y-42977494D02*
X60799756Y-43025113D01*
X60799756Y-43025113D02*
X60847375Y-43120351D01*
X60847375Y-43120351D02*
X60847375Y-43215589D01*
X60847375Y-43215589D02*
X60799756Y-43358446D01*
X60799756Y-43358446D02*
X60228328Y-43929875D01*
X60228328Y-43929875D02*
X60847375Y-43929875D01*
X62609280Y-43834636D02*
X62561661Y-43882256D01*
X62561661Y-43882256D02*
X62418804Y-43929875D01*
X62418804Y-43929875D02*
X62323566Y-43929875D01*
X62323566Y-43929875D02*
X62180709Y-43882256D01*
X62180709Y-43882256D02*
X62085471Y-43787017D01*
X62085471Y-43787017D02*
X62037852Y-43691779D01*
X62037852Y-43691779D02*
X61990233Y-43501303D01*
X61990233Y-43501303D02*
X61990233Y-43358446D01*
X61990233Y-43358446D02*
X62037852Y-43167970D01*
X62037852Y-43167970D02*
X62085471Y-43072732D01*
X62085471Y-43072732D02*
X62180709Y-42977494D01*
X62180709Y-42977494D02*
X62323566Y-42929875D01*
X62323566Y-42929875D02*
X62418804Y-42929875D01*
X62418804Y-42929875D02*
X62561661Y-42977494D01*
X62561661Y-42977494D02*
X62609280Y-43025113D01*
X63180709Y-43929875D02*
X63085471Y-43882256D01*
X63085471Y-43882256D02*
X63037852Y-43834636D01*
X63037852Y-43834636D02*
X62990233Y-43739398D01*
X62990233Y-43739398D02*
X62990233Y-43453684D01*
X62990233Y-43453684D02*
X63037852Y-43358446D01*
X63037852Y-43358446D02*
X63085471Y-43310827D01*
X63085471Y-43310827D02*
X63180709Y-43263208D01*
X63180709Y-43263208D02*
X63323566Y-43263208D01*
X63323566Y-43263208D02*
X63418804Y-43310827D01*
X63418804Y-43310827D02*
X63466423Y-43358446D01*
X63466423Y-43358446D02*
X63514042Y-43453684D01*
X63514042Y-43453684D02*
X63514042Y-43739398D01*
X63514042Y-43739398D02*
X63466423Y-43834636D01*
X63466423Y-43834636D02*
X63418804Y-43882256D01*
X63418804Y-43882256D02*
X63323566Y-43929875D01*
X63323566Y-43929875D02*
X63180709Y-43929875D01*
X63942614Y-43263208D02*
X63942614Y-44263208D01*
X63942614Y-43310827D02*
X64037852Y-43263208D01*
X64037852Y-43263208D02*
X64228328Y-43263208D01*
X64228328Y-43263208D02*
X64323566Y-43310827D01*
X64323566Y-43310827D02*
X64371185Y-43358446D01*
X64371185Y-43358446D02*
X64418804Y-43453684D01*
X64418804Y-43453684D02*
X64418804Y-43739398D01*
X64418804Y-43739398D02*
X64371185Y-43834636D01*
X64371185Y-43834636D02*
X64323566Y-43882256D01*
X64323566Y-43882256D02*
X64228328Y-43929875D01*
X64228328Y-43929875D02*
X64037852Y-43929875D01*
X64037852Y-43929875D02*
X63942614Y-43882256D01*
X64847376Y-43263208D02*
X64847376Y-44263208D01*
X64847376Y-43310827D02*
X64942614Y-43263208D01*
X64942614Y-43263208D02*
X65133090Y-43263208D01*
X65133090Y-43263208D02*
X65228328Y-43310827D01*
X65228328Y-43310827D02*
X65275947Y-43358446D01*
X65275947Y-43358446D02*
X65323566Y-43453684D01*
X65323566Y-43453684D02*
X65323566Y-43739398D01*
X65323566Y-43739398D02*
X65275947Y-43834636D01*
X65275947Y-43834636D02*
X65228328Y-43882256D01*
X65228328Y-43882256D02*
X65133090Y-43929875D01*
X65133090Y-43929875D02*
X64942614Y-43929875D01*
X64942614Y-43929875D02*
X64847376Y-43882256D01*
X66133090Y-43882256D02*
X66037852Y-43929875D01*
X66037852Y-43929875D02*
X65847376Y-43929875D01*
X65847376Y-43929875D02*
X65752138Y-43882256D01*
X65752138Y-43882256D02*
X65704519Y-43787017D01*
X65704519Y-43787017D02*
X65704519Y-43406065D01*
X65704519Y-43406065D02*
X65752138Y-43310827D01*
X65752138Y-43310827D02*
X65847376Y-43263208D01*
X65847376Y-43263208D02*
X66037852Y-43263208D01*
X66037852Y-43263208D02*
X66133090Y-43310827D01*
X66133090Y-43310827D02*
X66180709Y-43406065D01*
X66180709Y-43406065D02*
X66180709Y-43501303D01*
X66180709Y-43501303D02*
X65704519Y-43596541D01*
X66609281Y-43929875D02*
X66609281Y-43263208D01*
X66609281Y-43453684D02*
X66656900Y-43358446D01*
X66656900Y-43358446D02*
X66704519Y-43310827D01*
X66704519Y-43310827D02*
X66799757Y-43263208D01*
X66799757Y-43263208D02*
X66894995Y-43263208D01*
X55894993Y-45920771D02*
X55847374Y-45873152D01*
X55847374Y-45873152D02*
X55752136Y-45730295D01*
X55752136Y-45730295D02*
X55704517Y-45635057D01*
X55704517Y-45635057D02*
X55656898Y-45492200D01*
X55656898Y-45492200D02*
X55609279Y-45254104D01*
X55609279Y-45254104D02*
X55609279Y-45063628D01*
X55609279Y-45063628D02*
X55656898Y-44825533D01*
X55656898Y-44825533D02*
X55704517Y-44682676D01*
X55704517Y-44682676D02*
X55752136Y-44587438D01*
X55752136Y-44587438D02*
X55847374Y-44444580D01*
X55847374Y-44444580D02*
X55894993Y-44396961D01*
X56847374Y-45444580D02*
X56799755Y-45492200D01*
X56799755Y-45492200D02*
X56656898Y-45539819D01*
X56656898Y-45539819D02*
X56561660Y-45539819D01*
X56561660Y-45539819D02*
X56418803Y-45492200D01*
X56418803Y-45492200D02*
X56323565Y-45396961D01*
X56323565Y-45396961D02*
X56275946Y-45301723D01*
X56275946Y-45301723D02*
X56228327Y-45111247D01*
X56228327Y-45111247D02*
X56228327Y-44968390D01*
X56228327Y-44968390D02*
X56275946Y-44777914D01*
X56275946Y-44777914D02*
X56323565Y-44682676D01*
X56323565Y-44682676D02*
X56418803Y-44587438D01*
X56418803Y-44587438D02*
X56561660Y-44539819D01*
X56561660Y-44539819D02*
X56656898Y-44539819D01*
X56656898Y-44539819D02*
X56799755Y-44587438D01*
X56799755Y-44587438D02*
X56847374Y-44635057D01*
X57180708Y-45920771D02*
X57228327Y-45873152D01*
X57228327Y-45873152D02*
X57323565Y-45730295D01*
X57323565Y-45730295D02*
X57371184Y-45635057D01*
X57371184Y-45635057D02*
X57418803Y-45492200D01*
X57418803Y-45492200D02*
X57466422Y-45254104D01*
X57466422Y-45254104D02*
X57466422Y-45063628D01*
X57466422Y-45063628D02*
X57418803Y-44825533D01*
X57418803Y-44825533D02*
X57371184Y-44682676D01*
X57371184Y-44682676D02*
X57323565Y-44587438D01*
X57323565Y-44587438D02*
X57228327Y-44444580D01*
X57228327Y-44444580D02*
X57180708Y-44396961D01*
X58656899Y-44635057D02*
X58704518Y-44587438D01*
X58704518Y-44587438D02*
X58799756Y-44539819D01*
X58799756Y-44539819D02*
X59037851Y-44539819D01*
X59037851Y-44539819D02*
X59133089Y-44587438D01*
X59133089Y-44587438D02*
X59180708Y-44635057D01*
X59180708Y-44635057D02*
X59228327Y-44730295D01*
X59228327Y-44730295D02*
X59228327Y-44825533D01*
X59228327Y-44825533D02*
X59180708Y-44968390D01*
X59180708Y-44968390D02*
X58609280Y-45539819D01*
X58609280Y-45539819D02*
X59228327Y-45539819D01*
X59847375Y-44539819D02*
X59942613Y-44539819D01*
X59942613Y-44539819D02*
X60037851Y-44587438D01*
X60037851Y-44587438D02*
X60085470Y-44635057D01*
X60085470Y-44635057D02*
X60133089Y-44730295D01*
X60133089Y-44730295D02*
X60180708Y-44920771D01*
X60180708Y-44920771D02*
X60180708Y-45158866D01*
X60180708Y-45158866D02*
X60133089Y-45349342D01*
X60133089Y-45349342D02*
X60085470Y-45444580D01*
X60085470Y-45444580D02*
X60037851Y-45492200D01*
X60037851Y-45492200D02*
X59942613Y-45539819D01*
X59942613Y-45539819D02*
X59847375Y-45539819D01*
X59847375Y-45539819D02*
X59752137Y-45492200D01*
X59752137Y-45492200D02*
X59704518Y-45444580D01*
X59704518Y-45444580D02*
X59656899Y-45349342D01*
X59656899Y-45349342D02*
X59609280Y-45158866D01*
X59609280Y-45158866D02*
X59609280Y-44920771D01*
X59609280Y-44920771D02*
X59656899Y-44730295D01*
X59656899Y-44730295D02*
X59704518Y-44635057D01*
X59704518Y-44635057D02*
X59752137Y-44587438D01*
X59752137Y-44587438D02*
X59847375Y-44539819D01*
X60561661Y-44635057D02*
X60609280Y-44587438D01*
X60609280Y-44587438D02*
X60704518Y-44539819D01*
X60704518Y-44539819D02*
X60942613Y-44539819D01*
X60942613Y-44539819D02*
X61037851Y-44587438D01*
X61037851Y-44587438D02*
X61085470Y-44635057D01*
X61085470Y-44635057D02*
X61133089Y-44730295D01*
X61133089Y-44730295D02*
X61133089Y-44825533D01*
X61133089Y-44825533D02*
X61085470Y-44968390D01*
X61085470Y-44968390D02*
X60514042Y-45539819D01*
X60514042Y-45539819D02*
X61133089Y-45539819D01*
X61990232Y-44873152D02*
X61990232Y-45539819D01*
X61752137Y-44492200D02*
X61514042Y-45206485D01*
X61514042Y-45206485D02*
X62133089Y-45206485D01*
X63275947Y-45539819D02*
X63275947Y-44539819D01*
X63275947Y-44539819D02*
X63609280Y-45254104D01*
X63609280Y-45254104D02*
X63942613Y-44539819D01*
X63942613Y-44539819D02*
X63942613Y-45539819D01*
X64561661Y-45539819D02*
X64466423Y-45492200D01*
X64466423Y-45492200D02*
X64418804Y-45444580D01*
X64418804Y-45444580D02*
X64371185Y-45349342D01*
X64371185Y-45349342D02*
X64371185Y-45063628D01*
X64371185Y-45063628D02*
X64418804Y-44968390D01*
X64418804Y-44968390D02*
X64466423Y-44920771D01*
X64466423Y-44920771D02*
X64561661Y-44873152D01*
X64561661Y-44873152D02*
X64704518Y-44873152D01*
X64704518Y-44873152D02*
X64799756Y-44920771D01*
X64799756Y-44920771D02*
X64847375Y-44968390D01*
X64847375Y-44968390D02*
X64894994Y-45063628D01*
X64894994Y-45063628D02*
X64894994Y-45349342D01*
X64894994Y-45349342D02*
X64847375Y-45444580D01*
X64847375Y-45444580D02*
X64799756Y-45492200D01*
X64799756Y-45492200D02*
X64704518Y-45539819D01*
X64704518Y-45539819D02*
X64561661Y-45539819D01*
X65752137Y-45539819D02*
X65752137Y-44539819D01*
X65752137Y-45492200D02*
X65656899Y-45539819D01*
X65656899Y-45539819D02*
X65466423Y-45539819D01*
X65466423Y-45539819D02*
X65371185Y-45492200D01*
X65371185Y-45492200D02*
X65323566Y-45444580D01*
X65323566Y-45444580D02*
X65275947Y-45349342D01*
X65275947Y-45349342D02*
X65275947Y-45063628D01*
X65275947Y-45063628D02*
X65323566Y-44968390D01*
X65323566Y-44968390D02*
X65371185Y-44920771D01*
X65371185Y-44920771D02*
X65466423Y-44873152D01*
X65466423Y-44873152D02*
X65656899Y-44873152D01*
X65656899Y-44873152D02*
X65752137Y-44920771D01*
X66656899Y-44873152D02*
X66656899Y-45539819D01*
X66228328Y-44873152D02*
X66228328Y-45396961D01*
X66228328Y-45396961D02*
X66275947Y-45492200D01*
X66275947Y-45492200D02*
X66371185Y-45539819D01*
X66371185Y-45539819D02*
X66514042Y-45539819D01*
X66514042Y-45539819D02*
X66609280Y-45492200D01*
X66609280Y-45492200D02*
X66656899Y-45444580D01*
X67275947Y-45539819D02*
X67180709Y-45492200D01*
X67180709Y-45492200D02*
X67133090Y-45396961D01*
X67133090Y-45396961D02*
X67133090Y-44539819D01*
X68085471Y-45539819D02*
X68085471Y-45016009D01*
X68085471Y-45016009D02*
X68037852Y-44920771D01*
X68037852Y-44920771D02*
X67942614Y-44873152D01*
X67942614Y-44873152D02*
X67752138Y-44873152D01*
X67752138Y-44873152D02*
X67656900Y-44920771D01*
X68085471Y-45492200D02*
X67990233Y-45539819D01*
X67990233Y-45539819D02*
X67752138Y-45539819D01*
X67752138Y-45539819D02*
X67656900Y-45492200D01*
X67656900Y-45492200D02*
X67609281Y-45396961D01*
X67609281Y-45396961D02*
X67609281Y-45301723D01*
X67609281Y-45301723D02*
X67656900Y-45206485D01*
X67656900Y-45206485D02*
X67752138Y-45158866D01*
X67752138Y-45158866D02*
X67990233Y-45158866D01*
X67990233Y-45158866D02*
X68085471Y-45111247D01*
X68561662Y-45539819D02*
X68561662Y-44873152D01*
X68561662Y-45063628D02*
X68609281Y-44968390D01*
X68609281Y-44968390D02*
X68656900Y-44920771D01*
X68656900Y-44920771D02*
X68752138Y-44873152D01*
X68752138Y-44873152D02*
X68847376Y-44873152D01*
X70514043Y-45444580D02*
X70466424Y-45492200D01*
X70466424Y-45492200D02*
X70323567Y-45539819D01*
X70323567Y-45539819D02*
X70228329Y-45539819D01*
X70228329Y-45539819D02*
X70085472Y-45492200D01*
X70085472Y-45492200D02*
X69990234Y-45396961D01*
X69990234Y-45396961D02*
X69942615Y-45301723D01*
X69942615Y-45301723D02*
X69894996Y-45111247D01*
X69894996Y-45111247D02*
X69894996Y-44968390D01*
X69894996Y-44968390D02*
X69942615Y-44777914D01*
X69942615Y-44777914D02*
X69990234Y-44682676D01*
X69990234Y-44682676D02*
X70085472Y-44587438D01*
X70085472Y-44587438D02*
X70228329Y-44539819D01*
X70228329Y-44539819D02*
X70323567Y-44539819D01*
X70323567Y-44539819D02*
X70466424Y-44587438D01*
X70466424Y-44587438D02*
X70514043Y-44635057D01*
X70942615Y-45539819D02*
X70942615Y-44873152D01*
X70942615Y-44539819D02*
X70894996Y-44587438D01*
X70894996Y-44587438D02*
X70942615Y-44635057D01*
X70942615Y-44635057D02*
X70990234Y-44587438D01*
X70990234Y-44587438D02*
X70942615Y-44539819D01*
X70942615Y-44539819D02*
X70942615Y-44635057D01*
X71418805Y-45539819D02*
X71418805Y-44873152D01*
X71418805Y-45063628D02*
X71466424Y-44968390D01*
X71466424Y-44968390D02*
X71514043Y-44920771D01*
X71514043Y-44920771D02*
X71609281Y-44873152D01*
X71609281Y-44873152D02*
X71704519Y-44873152D01*
X72466424Y-45492200D02*
X72371186Y-45539819D01*
X72371186Y-45539819D02*
X72180710Y-45539819D01*
X72180710Y-45539819D02*
X72085472Y-45492200D01*
X72085472Y-45492200D02*
X72037853Y-45444580D01*
X72037853Y-45444580D02*
X71990234Y-45349342D01*
X71990234Y-45349342D02*
X71990234Y-45063628D01*
X71990234Y-45063628D02*
X72037853Y-44968390D01*
X72037853Y-44968390D02*
X72085472Y-44920771D01*
X72085472Y-44920771D02*
X72180710Y-44873152D01*
X72180710Y-44873152D02*
X72371186Y-44873152D01*
X72371186Y-44873152D02*
X72466424Y-44920771D01*
X73323567Y-44873152D02*
X73323567Y-45539819D01*
X72894996Y-44873152D02*
X72894996Y-45396961D01*
X72894996Y-45396961D02*
X72942615Y-45492200D01*
X72942615Y-45492200D02*
X73037853Y-45539819D01*
X73037853Y-45539819D02*
X73180710Y-45539819D01*
X73180710Y-45539819D02*
X73275948Y-45492200D01*
X73275948Y-45492200D02*
X73323567Y-45444580D01*
X73799758Y-45539819D02*
X73799758Y-44873152D01*
X73799758Y-44539819D02*
X73752139Y-44587438D01*
X73752139Y-44587438D02*
X73799758Y-44635057D01*
X73799758Y-44635057D02*
X73847377Y-44587438D01*
X73847377Y-44587438D02*
X73799758Y-44539819D01*
X73799758Y-44539819D02*
X73799758Y-44635057D01*
X74133091Y-44873152D02*
X74514043Y-44873152D01*
X74275948Y-44539819D02*
X74275948Y-45396961D01*
X74275948Y-45396961D02*
X74323567Y-45492200D01*
X74323567Y-45492200D02*
X74418805Y-45539819D01*
X74418805Y-45539819D02*
X74514043Y-45539819D01*
X74799758Y-45492200D02*
X74894996Y-45539819D01*
X74894996Y-45539819D02*
X75085472Y-45539819D01*
X75085472Y-45539819D02*
X75180710Y-45492200D01*
X75180710Y-45492200D02*
X75228329Y-45396961D01*
X75228329Y-45396961D02*
X75228329Y-45349342D01*
X75228329Y-45349342D02*
X75180710Y-45254104D01*
X75180710Y-45254104D02*
X75085472Y-45206485D01*
X75085472Y-45206485D02*
X74942615Y-45206485D01*
X74942615Y-45206485D02*
X74847377Y-45158866D01*
X74847377Y-45158866D02*
X74799758Y-45063628D01*
X74799758Y-45063628D02*
X74799758Y-45016009D01*
X74799758Y-45016009D02*
X74847377Y-44920771D01*
X74847377Y-44920771D02*
X74942615Y-44873152D01*
X74942615Y-44873152D02*
X75085472Y-44873152D01*
X75085472Y-44873152D02*
X75180710Y-44920771D01*
D12*
%TO.N,GND*%
X86637500Y-69390000D03*
X80237500Y-60110000D03*
X68247500Y-58230000D03*
X67620500Y-68520498D03*
X66377500Y-63730000D03*
X46677500Y-61550000D03*
X61677500Y-62150000D03*
X74177500Y-60150000D03*
X72937500Y-64710000D03*
X59330494Y-57139500D03*
X43387500Y-68900000D03*
X57627000Y-66650500D03*
X52537500Y-64259020D03*
X75377500Y-61750000D03*
X52606340Y-68820011D03*
X84977500Y-63840500D03*
X75277500Y-65950000D03*
X80357500Y-67249500D03*
X74007500Y-68680000D03*
X51007500Y-68820000D03*
X79877500Y-62850000D03*
X76777500Y-62650000D03*
X86607500Y-60140000D03*
X44722000Y-67940000D03*
X61107500Y-65960000D03*
X51827500Y-60590000D03*
X48733000Y-65750000D03*
X56637500Y-59000000D03*
X58123916Y-67971352D03*
X73357500Y-60190000D03*
X67854103Y-56990871D03*
X48577500Y-68950000D03*
X73077500Y-62959500D03*
X50012002Y-58603540D03*
X42581988Y-60140488D03*
X65077500Y-65050000D03*
X70906951Y-67500498D03*
%TO.N,LINE*%
X50227500Y-55851460D03*
X43577500Y-58360500D03*
%TO.N,+5V*%
X83777500Y-59610000D03*
X53904500Y-59906000D03*
X77347500Y-58410000D03*
X71075366Y-58372134D03*
X82377500Y-60150000D03*
X42446973Y-56840127D03*
X41177500Y-65450000D03*
X46987500Y-58490000D03*
X40727500Y-68850000D03*
X40438591Y-64911091D03*
%TO.N,+3V3*%
X54077500Y-64960000D03*
X57687500Y-67440000D03*
X76047500Y-69460000D03*
X53637500Y-68850000D03*
X64261353Y-68527623D03*
X66985500Y-68520498D03*
X70267500Y-67500498D03*
%TO.N,+1V2*%
X78772500Y-55830000D03*
X68457500Y-57710000D03*
X58707500Y-67830000D03*
X68647500Y-67810000D03*
X58078065Y-58136297D03*
X83677500Y-55870000D03*
%TD*%
D13*
%TO.N,+1V2*%
X83187500Y-55380000D02*
X79222500Y-55380000D01*
X83677500Y-55870000D02*
X83187500Y-55380000D01*
X79222500Y-55380000D02*
X78772500Y-55830000D01*
D14*
X59157500Y-67380000D02*
X58707500Y-67830000D01*
X68647500Y-67810000D02*
X68217500Y-67380000D01*
D15*
X59457500Y-67080000D02*
X59157500Y-67380000D01*
D16*
X63613871Y-57820000D02*
X63297574Y-58136297D01*
X63297574Y-58136297D02*
X58817500Y-58136297D01*
D13*
X67607500Y-57710000D02*
X67497500Y-57820000D01*
D15*
X67917500Y-67080000D02*
X59457500Y-67080000D01*
D14*
X58078065Y-58136297D02*
X58817500Y-58136297D01*
D16*
X67497500Y-57820000D02*
X63613871Y-57820000D01*
D15*
X68217500Y-67380000D02*
X67917500Y-67080000D01*
D14*
X68457500Y-57710000D02*
X67607500Y-57710000D01*
%TD*%
%TA.AperFunction,Conductor*%
%TO.N,GND*%
G36*
X88000539Y-55350185D02*
G01*
X88046294Y-55402989D01*
X88057500Y-55454500D01*
X88057500Y-56762148D01*
X88037815Y-56829187D01*
X87985011Y-56874942D01*
X87980953Y-56876709D01*
X87943411Y-56892260D01*
X87925601Y-56899637D01*
X87855136Y-56970102D01*
X87817000Y-57062170D01*
X87817000Y-58238936D01*
X87797315Y-58305975D01*
X87744511Y-58351730D01*
X87675353Y-58361674D01*
X87611797Y-58332649D01*
X87605319Y-58326617D01*
X87598103Y-58319401D01*
X87598101Y-58319400D01*
X87598101Y-58319399D01*
X87515240Y-58264034D01*
X87515239Y-58264033D01*
X87515238Y-58264033D01*
X87417502Y-58244592D01*
X87417498Y-58244592D01*
X87319761Y-58264033D01*
X87236899Y-58319399D01*
X87181533Y-58402261D01*
X87162092Y-58499997D01*
X87162092Y-58500002D01*
X87181533Y-58597738D01*
X87181533Y-58597739D01*
X87181534Y-58597740D01*
X87236899Y-58680601D01*
X87319760Y-58735966D01*
X87352340Y-58742446D01*
X87417498Y-58755408D01*
X87417500Y-58755408D01*
X87417502Y-58755408D01*
X87471121Y-58744742D01*
X87515240Y-58735966D01*
X87598101Y-58680601D01*
X87598103Y-58680597D01*
X87605319Y-58673383D01*
X87666642Y-58639898D01*
X87736334Y-58644882D01*
X87792267Y-58686754D01*
X87816684Y-58752218D01*
X87817000Y-58761064D01*
X87817000Y-62043742D01*
X87797315Y-62110781D01*
X87744511Y-62156536D01*
X87675353Y-62166480D01*
X87645549Y-62158304D01*
X87635237Y-62154032D01*
X87537502Y-62134592D01*
X87537498Y-62134592D01*
X87439761Y-62154033D01*
X87356899Y-62209399D01*
X87301533Y-62292261D01*
X87282092Y-62389997D01*
X87282092Y-62390002D01*
X87301533Y-62487738D01*
X87301533Y-62487739D01*
X87301534Y-62487740D01*
X87356899Y-62570601D01*
X87439760Y-62625966D01*
X87472340Y-62632446D01*
X87537498Y-62645408D01*
X87537500Y-62645408D01*
X87537502Y-62645408D01*
X87603254Y-62632328D01*
X87635240Y-62625966D01*
X87635245Y-62625962D01*
X87645544Y-62621697D01*
X87715013Y-62614227D01*
X87777493Y-62645500D01*
X87813147Y-62705588D01*
X87817000Y-62736257D01*
X87817000Y-64342246D01*
X87797315Y-64409285D01*
X87744511Y-64455040D01*
X87675353Y-64464984D01*
X87611797Y-64435959D01*
X87589898Y-64411137D01*
X87528601Y-64319399D01*
X87505604Y-64304033D01*
X87445740Y-64264034D01*
X87445739Y-64264033D01*
X87445738Y-64264033D01*
X87348002Y-64244592D01*
X87347998Y-64244592D01*
X87250261Y-64264033D01*
X87167399Y-64319399D01*
X87112033Y-64402261D01*
X87111871Y-64403077D01*
X87111025Y-64404692D01*
X87107360Y-64413543D01*
X87106567Y-64413214D01*
X87079486Y-64464988D01*
X87018770Y-64499562D01*
X86949000Y-64495821D01*
X86892328Y-64454955D01*
X86887152Y-64447775D01*
X86828102Y-64359400D01*
X86802429Y-64342246D01*
X86745240Y-64304034D01*
X86745239Y-64304033D01*
X86745238Y-64304033D01*
X86647502Y-64284592D01*
X86647500Y-64284592D01*
X86628791Y-64288313D01*
X86559199Y-64282084D01*
X86504023Y-64239220D01*
X86482985Y-64190886D01*
X86463466Y-64092761D01*
X86463466Y-64092760D01*
X86408101Y-64009899D01*
X86325240Y-63954534D01*
X86325239Y-63954533D01*
X86325238Y-63954533D01*
X86227502Y-63935092D01*
X86227498Y-63935092D01*
X86129761Y-63954533D01*
X86046899Y-64009899D01*
X85991533Y-64092761D01*
X85972092Y-64190497D01*
X85972092Y-64190502D01*
X85991533Y-64288238D01*
X85991533Y-64288239D01*
X85991534Y-64288240D01*
X86046899Y-64371101D01*
X86129760Y-64426466D01*
X86162340Y-64432946D01*
X86227498Y-64445908D01*
X86227499Y-64445908D01*
X86227499Y-64445907D01*
X86227500Y-64445908D01*
X86246205Y-64442187D01*
X86315795Y-64448413D01*
X86370973Y-64491275D01*
X86392014Y-64539612D01*
X86411533Y-64637738D01*
X86411533Y-64637739D01*
X86411534Y-64637740D01*
X86466899Y-64720601D01*
X86549760Y-64775966D01*
X86582340Y-64782446D01*
X86647498Y-64795408D01*
X86647500Y-64795408D01*
X86647502Y-64795408D01*
X86696370Y-64785687D01*
X86745240Y-64775966D01*
X86828101Y-64720601D01*
X86883466Y-64637740D01*
X86883626Y-64636931D01*
X86884466Y-64635326D01*
X86888140Y-64626457D01*
X86888932Y-64626785D01*
X86916006Y-64575019D01*
X86976719Y-64540440D01*
X87046488Y-64544174D01*
X87103164Y-64585036D01*
X87108347Y-64592223D01*
X87159914Y-64669399D01*
X87167399Y-64680601D01*
X87250260Y-64735966D01*
X87273039Y-64740497D01*
X87347998Y-64755408D01*
X87348000Y-64755408D01*
X87348002Y-64755408D01*
X87396870Y-64745687D01*
X87445740Y-64735966D01*
X87528601Y-64680601D01*
X87583966Y-64597740D01*
X87583966Y-64597739D01*
X87589897Y-64588863D01*
X87643509Y-64544057D01*
X87712834Y-64535350D01*
X87775862Y-64565504D01*
X87812582Y-64624947D01*
X87817000Y-64657753D01*
X87817000Y-68337829D01*
X87847241Y-68410837D01*
X87855136Y-68429897D01*
X87925603Y-68500364D01*
X87980952Y-68523290D01*
X88035356Y-68567131D01*
X88057421Y-68633425D01*
X88057500Y-68637851D01*
X88057500Y-69945500D01*
X88037815Y-70012539D01*
X87985011Y-70058294D01*
X87933500Y-70069500D01*
X76627000Y-70069500D01*
X76559961Y-70049815D01*
X76514206Y-69997011D01*
X76503000Y-69945500D01*
X76503000Y-69619828D01*
X77022000Y-69619828D01*
X77060136Y-69711897D01*
X77130603Y-69782364D01*
X77222672Y-69820500D01*
X77222674Y-69820500D01*
X77322326Y-69820500D01*
X77322328Y-69820500D01*
X77414397Y-69782364D01*
X77484864Y-69711897D01*
X77523000Y-69619828D01*
X79562000Y-69619828D01*
X79600136Y-69711897D01*
X79670603Y-69782364D01*
X79762672Y-69820500D01*
X79762674Y-69820500D01*
X79862326Y-69820500D01*
X79862328Y-69820500D01*
X79954397Y-69782364D01*
X80024864Y-69711897D01*
X80063000Y-69619828D01*
X82102000Y-69619828D01*
X82140136Y-69711897D01*
X82210603Y-69782364D01*
X82302672Y-69820500D01*
X82302674Y-69820500D01*
X82402326Y-69820500D01*
X82402328Y-69820500D01*
X82494397Y-69782364D01*
X82564864Y-69711897D01*
X82603000Y-69619828D01*
X84642000Y-69619828D01*
X84680136Y-69711897D01*
X84750603Y-69782364D01*
X84842672Y-69820500D01*
X84842674Y-69820500D01*
X84942326Y-69820500D01*
X84942328Y-69820500D01*
X85034397Y-69782364D01*
X85104864Y-69711897D01*
X85143000Y-69619828D01*
X87182000Y-69619828D01*
X87220136Y-69711897D01*
X87290603Y-69782364D01*
X87382672Y-69820500D01*
X87382674Y-69820500D01*
X87482326Y-69820500D01*
X87482328Y-69820500D01*
X87574397Y-69782364D01*
X87644864Y-69711897D01*
X87683000Y-69619828D01*
X87683000Y-69520172D01*
X87644864Y-69428103D01*
X87574397Y-69357636D01*
X87482329Y-69319500D01*
X87482328Y-69319500D01*
X87382672Y-69319500D01*
X87382670Y-69319500D01*
X87290602Y-69357636D01*
X87220136Y-69428102D01*
X87182000Y-69520170D01*
X87182000Y-69520172D01*
X87182000Y-69619828D01*
X85143000Y-69619828D01*
X85143000Y-69520172D01*
X85104864Y-69428103D01*
X85034397Y-69357636D01*
X84942329Y-69319500D01*
X84942328Y-69319500D01*
X84842672Y-69319500D01*
X84842670Y-69319500D01*
X84750602Y-69357636D01*
X84680136Y-69428102D01*
X84642000Y-69520170D01*
X84642000Y-69520172D01*
X84642000Y-69619828D01*
X82603000Y-69619828D01*
X82603000Y-69520172D01*
X82564864Y-69428103D01*
X82494397Y-69357636D01*
X82402329Y-69319500D01*
X82402328Y-69319500D01*
X82302672Y-69319500D01*
X82302670Y-69319500D01*
X82210602Y-69357636D01*
X82140136Y-69428102D01*
X82102000Y-69520170D01*
X82102000Y-69520172D01*
X82102000Y-69619828D01*
X80063000Y-69619828D01*
X80063000Y-69520172D01*
X80024864Y-69428103D01*
X79954397Y-69357636D01*
X79862329Y-69319500D01*
X79862328Y-69319500D01*
X79762672Y-69319500D01*
X79762670Y-69319500D01*
X79670602Y-69357636D01*
X79600136Y-69428102D01*
X79562000Y-69520170D01*
X79562000Y-69520172D01*
X79562000Y-69619828D01*
X77523000Y-69619828D01*
X77523000Y-69520172D01*
X77484864Y-69428103D01*
X77414397Y-69357636D01*
X77322329Y-69319500D01*
X77322328Y-69319500D01*
X77222672Y-69319500D01*
X77222670Y-69319500D01*
X77130602Y-69357636D01*
X77060136Y-69428102D01*
X77022000Y-69520170D01*
X77022000Y-69520172D01*
X77022000Y-69619828D01*
X76503000Y-69619828D01*
X76503000Y-69134008D01*
X76502999Y-69133991D01*
X76502288Y-69127381D01*
X76499446Y-69100945D01*
X76488240Y-69049434D01*
X76461067Y-68995149D01*
X76453813Y-68980657D01*
X76408063Y-68927860D01*
X76405938Y-68925523D01*
X76403080Y-68922379D01*
X76403079Y-68922378D01*
X76403077Y-68922376D01*
X76334354Y-68880486D01*
X76334348Y-68880483D01*
X76267312Y-68860799D01*
X76267302Y-68860797D01*
X76223503Y-68854500D01*
X76223500Y-68854500D01*
X74159885Y-68854500D01*
X74159867Y-68854500D01*
X74135556Y-68856415D01*
X74097232Y-68862485D01*
X74092969Y-68863508D01*
X74083451Y-68865400D01*
X74026901Y-68874357D01*
X73988107Y-68874357D01*
X73931528Y-68865397D01*
X73922004Y-68863503D01*
X73917748Y-68862481D01*
X73879451Y-68856416D01*
X73879444Y-68856415D01*
X73855132Y-68854500D01*
X73855115Y-68854500D01*
X72313272Y-68854500D01*
X72246233Y-68834815D01*
X72225591Y-68818181D01*
X71178914Y-67771504D01*
X71156731Y-67753099D01*
X71156732Y-67753099D01*
X71118945Y-67727260D01*
X71051106Y-67701404D01*
X71051102Y-67701403D01*
X71051101Y-67701403D01*
X70981807Y-67692449D01*
X70981805Y-67692449D01*
X70981798Y-67692448D01*
X70937560Y-67693081D01*
X70937548Y-67693082D01*
X70926339Y-67694857D01*
X70887556Y-67694856D01*
X70865337Y-67691336D01*
X70828445Y-67679350D01*
X70819342Y-67674712D01*
X70808400Y-67669136D01*
X70777014Y-67646333D01*
X70761117Y-67630436D01*
X70738313Y-67599050D01*
X70728097Y-67579000D01*
X70716109Y-67542104D01*
X70712609Y-67520002D01*
X77102092Y-67520002D01*
X77121533Y-67617738D01*
X77121533Y-67617739D01*
X77121534Y-67617740D01*
X77176899Y-67700601D01*
X77259760Y-67755966D01*
X77292340Y-67762446D01*
X77357498Y-67775408D01*
X77357500Y-67775408D01*
X77357502Y-67775408D01*
X77406370Y-67765687D01*
X77455240Y-67755966D01*
X77538101Y-67700601D01*
X77593466Y-67617740D01*
X77596551Y-67602231D01*
X78866698Y-67602231D01*
X78886139Y-67699967D01*
X78886139Y-67699968D01*
X78886140Y-67699969D01*
X78941505Y-67782830D01*
X79024366Y-67838195D01*
X79035949Y-67840499D01*
X79122104Y-67857637D01*
X79122106Y-67857637D01*
X79122108Y-67857637D01*
X79173867Y-67847341D01*
X79219846Y-67838195D01*
X79302707Y-67782830D01*
X79358072Y-67699969D01*
X79361564Y-67682413D01*
X81672092Y-67682413D01*
X81691533Y-67780149D01*
X81691533Y-67780150D01*
X81691534Y-67780151D01*
X81746899Y-67863012D01*
X81829760Y-67918377D01*
X81861397Y-67924670D01*
X81927498Y-67937819D01*
X81927500Y-67937819D01*
X81927502Y-67937819D01*
X81993603Y-67924670D01*
X82025240Y-67918377D01*
X82108101Y-67863012D01*
X82163466Y-67780151D01*
X82177188Y-67711166D01*
X82182908Y-67682413D01*
X82182908Y-67682408D01*
X82163466Y-67584672D01*
X82163466Y-67584671D01*
X82108101Y-67501810D01*
X82025240Y-67446445D01*
X82025239Y-67446444D01*
X82025238Y-67446444D01*
X81927502Y-67427003D01*
X81927498Y-67427003D01*
X81829761Y-67446444D01*
X81746899Y-67501810D01*
X81691533Y-67584672D01*
X81672092Y-67682408D01*
X81672092Y-67682413D01*
X79361564Y-67682413D01*
X79371828Y-67630816D01*
X79377514Y-67602231D01*
X79377514Y-67602226D01*
X79358072Y-67504490D01*
X79358072Y-67504489D01*
X79302707Y-67421628D01*
X79219846Y-67366263D01*
X79219845Y-67366262D01*
X79219844Y-67366262D01*
X79122108Y-67346821D01*
X79122104Y-67346821D01*
X79024367Y-67366262D01*
X78941505Y-67421628D01*
X78886139Y-67504490D01*
X78866698Y-67602226D01*
X78866698Y-67602231D01*
X77596551Y-67602231D01*
X77608511Y-67542104D01*
X77612908Y-67520002D01*
X77612908Y-67519997D01*
X77593466Y-67422261D01*
X77593466Y-67422260D01*
X77538101Y-67339399D01*
X77538099Y-67339397D01*
X77538098Y-67339396D01*
X77530824Y-67332122D01*
X77497339Y-67270799D01*
X77502323Y-67201107D01*
X77544195Y-67145174D01*
X77549600Y-67141348D01*
X77603101Y-67105601D01*
X77658466Y-67022740D01*
X77671223Y-66958607D01*
X77677908Y-66925002D01*
X77677908Y-66924997D01*
X77661684Y-66843440D01*
X77661000Y-66840002D01*
X83062092Y-66840002D01*
X83081533Y-66937738D01*
X83081533Y-66937739D01*
X83081534Y-66937740D01*
X83136899Y-67020601D01*
X83219760Y-67075966D01*
X83251402Y-67082260D01*
X83317498Y-67095408D01*
X83317500Y-67095408D01*
X83317502Y-67095408D01*
X83383598Y-67082260D01*
X83415240Y-67075966D01*
X83498101Y-67020601D01*
X83553466Y-66937740D01*
X83558983Y-66910002D01*
X85955428Y-66910002D01*
X85974869Y-67007738D01*
X85974869Y-67007739D01*
X85974870Y-67007740D01*
X86030235Y-67090601D01*
X86113096Y-67145966D01*
X86137795Y-67150879D01*
X86210834Y-67165408D01*
X86210836Y-67165408D01*
X86210838Y-67165408D01*
X86261109Y-67155408D01*
X86308576Y-67145966D01*
X86391437Y-67090601D01*
X86446802Y-67007740D01*
X86460726Y-66937740D01*
X86466244Y-66910002D01*
X86466244Y-66909997D01*
X86448424Y-66820413D01*
X86446802Y-66812260D01*
X86391437Y-66729399D01*
X86308576Y-66674034D01*
X86308575Y-66674033D01*
X86308574Y-66674033D01*
X86210838Y-66654592D01*
X86210834Y-66654592D01*
X86113097Y-66674033D01*
X86030235Y-66729399D01*
X85974869Y-66812261D01*
X85955428Y-66909997D01*
X85955428Y-66910002D01*
X83558983Y-66910002D01*
X83566670Y-66871359D01*
X83572908Y-66840002D01*
X83572908Y-66839997D01*
X83554151Y-66745704D01*
X83553466Y-66742260D01*
X83545233Y-66729939D01*
X83524356Y-66663262D01*
X83540076Y-66605960D01*
X83534680Y-66610807D01*
X83465710Y-66621983D01*
X83427003Y-66607546D01*
X83426523Y-66608707D01*
X83415239Y-66604033D01*
X83317502Y-66584592D01*
X83317498Y-66584592D01*
X83219761Y-66604033D01*
X83136899Y-66659399D01*
X83081533Y-66742261D01*
X83062092Y-66839997D01*
X83062092Y-66840002D01*
X77661000Y-66840002D01*
X77658466Y-66827260D01*
X77603101Y-66744399D01*
X77520240Y-66689034D01*
X77520239Y-66689033D01*
X77520238Y-66689033D01*
X77422502Y-66669592D01*
X77422498Y-66669592D01*
X77324761Y-66689033D01*
X77241899Y-66744399D01*
X77186533Y-66827261D01*
X77167092Y-66924997D01*
X77167092Y-66925002D01*
X77186533Y-67022738D01*
X77186533Y-67022739D01*
X77186534Y-67022740D01*
X77241899Y-67105601D01*
X77241900Y-67105601D01*
X77241901Y-67105603D01*
X77249175Y-67112877D01*
X77282660Y-67174200D01*
X77277676Y-67243892D01*
X77235804Y-67299825D01*
X77230386Y-67303659D01*
X77176900Y-67339397D01*
X77121533Y-67422261D01*
X77102092Y-67519997D01*
X77102092Y-67520002D01*
X70712609Y-67520002D01*
X70712592Y-67519895D01*
X70712592Y-67481097D01*
X70714368Y-67469891D01*
X70716219Y-67441124D01*
X70714911Y-67395369D01*
X70695953Y-67325289D01*
X70662468Y-67263966D01*
X70658287Y-67258381D01*
X70635950Y-67228541D01*
X70635934Y-67228523D01*
X70634262Y-67226851D01*
X70634234Y-67226824D01*
X70621322Y-67215279D01*
X70621311Y-67215270D01*
X70621307Y-67215266D01*
X70599710Y-67198024D01*
X70545138Y-67169952D01*
X70545135Y-67169951D01*
X70545136Y-67169951D01*
X70477918Y-67150879D01*
X70434058Y-67144981D01*
X70434056Y-67144981D01*
X70430616Y-67145012D01*
X70283032Y-67146359D01*
X70273172Y-67145629D01*
X70264600Y-67145629D01*
X70252469Y-67146638D01*
X70236759Y-67146782D01*
X70218903Y-67146946D01*
X70186607Y-67150640D01*
X70186603Y-67150640D01*
X70186602Y-67150641D01*
X70136260Y-67161825D01*
X70136258Y-67161825D01*
X70136257Y-67161826D01*
X70068187Y-67196074D01*
X70015399Y-67241785D01*
X70009896Y-67246784D01*
X69993148Y-67274240D01*
X69985708Y-67283699D01*
X69986141Y-67284014D01*
X69980405Y-67291909D01*
X69972585Y-67307254D01*
X69967989Y-67315483D01*
X69967984Y-67315490D01*
X69966659Y-67318484D01*
X69963760Y-67324577D01*
X69929999Y-67390836D01*
X69912631Y-67500495D01*
X69912631Y-67500500D01*
X69929998Y-67610156D01*
X69933015Y-67619438D01*
X69931480Y-67619936D01*
X69941881Y-67663287D01*
X69941749Y-68064518D01*
X69922042Y-68131551D01*
X69905430Y-68152158D01*
X69242397Y-68815191D01*
X69181074Y-68848676D01*
X69111382Y-68843692D01*
X69085826Y-68830613D01*
X69052254Y-68808181D01*
X69001132Y-68774023D01*
X69001131Y-68774022D01*
X69001130Y-68774022D01*
X68903394Y-68754581D01*
X68903390Y-68754581D01*
X68805653Y-68774022D01*
X68712636Y-68836173D01*
X68710943Y-68833639D01*
X68666339Y-68857988D01*
X68605065Y-68855796D01*
X68588049Y-68850800D01*
X68588035Y-68850797D01*
X68544236Y-68844500D01*
X68544233Y-68844500D01*
X67793273Y-68844500D01*
X67726234Y-68824815D01*
X67705592Y-68808181D01*
X67678382Y-68780971D01*
X67678376Y-68780966D01*
X67678372Y-68780962D01*
X67655190Y-68762687D01*
X67649670Y-68758335D01*
X67649667Y-68758333D01*
X67649664Y-68758331D01*
X67614601Y-68736845D01*
X67600305Y-68728084D01*
X67600301Y-68728082D01*
X67600296Y-68728079D01*
X67582342Y-68719802D01*
X67577971Y-68717681D01*
X67521951Y-68689138D01*
X67490564Y-68666334D01*
X67474664Y-68650434D01*
X67451865Y-68619055D01*
X67423293Y-68562984D01*
X67421180Y-68558626D01*
X67412917Y-68540697D01*
X67382667Y-68491333D01*
X67360036Y-68462626D01*
X67351152Y-68453742D01*
X67329533Y-68418461D01*
X67327431Y-68419533D01*
X67321105Y-68407118D01*
X67272595Y-68311911D01*
X67272591Y-68311907D01*
X67272590Y-68311905D01*
X67194092Y-68233407D01*
X67194089Y-68233405D01*
X67194087Y-68233403D01*
X67095161Y-68182998D01*
X67095159Y-68182997D01*
X67086466Y-68178568D01*
X67087535Y-68176468D01*
X67052256Y-68154846D01*
X66739591Y-67842181D01*
X66706106Y-67780858D01*
X66711090Y-67711166D01*
X66752962Y-67655233D01*
X66818426Y-67630816D01*
X66827272Y-67630500D01*
X67638113Y-67630500D01*
X67705152Y-67650185D01*
X67725794Y-67666819D01*
X67818619Y-67759644D01*
X67852104Y-67820967D01*
X67847120Y-67890659D01*
X67834042Y-67916213D01*
X67825002Y-67929743D01*
X67783563Y-67991761D01*
X67764122Y-68089497D01*
X67764122Y-68089502D01*
X67783563Y-68187238D01*
X67783563Y-68187239D01*
X67783564Y-68187240D01*
X67838929Y-68270101D01*
X67921790Y-68325466D01*
X67954370Y-68331946D01*
X68019528Y-68344908D01*
X68019530Y-68344908D01*
X68019532Y-68344908D01*
X68068400Y-68335187D01*
X68117270Y-68325466D01*
X68200131Y-68270101D01*
X68255496Y-68187240D01*
X68256697Y-68181200D01*
X68289080Y-68119289D01*
X68349795Y-68084712D01*
X68419564Y-68088450D01*
X68434607Y-68094902D01*
X68477298Y-68116653D01*
X68482992Y-68119744D01*
X68512212Y-68136614D01*
X68512216Y-68136616D01*
X68519720Y-68139724D01*
X68519651Y-68139888D01*
X68532822Y-68144943D01*
X68537839Y-68147500D01*
X68568117Y-68152295D01*
X68580790Y-68154989D01*
X68601356Y-68160500D01*
X68610158Y-68160500D01*
X68629556Y-68162026D01*
X68647500Y-68164869D01*
X68665443Y-68162026D01*
X68684842Y-68160500D01*
X68693642Y-68160500D01*
X68693644Y-68160500D01*
X68714209Y-68154989D01*
X68726882Y-68152295D01*
X68757161Y-68147500D01*
X68762181Y-68144941D01*
X68775345Y-68139889D01*
X68775277Y-68139725D01*
X68782785Y-68136614D01*
X68782788Y-68136614D01*
X68812014Y-68119739D01*
X68817670Y-68116668D01*
X68856087Y-68097095D01*
X68934595Y-68018587D01*
X68954168Y-67980170D01*
X68957239Y-67974514D01*
X68974114Y-67945288D01*
X68974114Y-67945285D01*
X68977225Y-67937777D01*
X68977389Y-67937845D01*
X68982441Y-67924681D01*
X68985000Y-67919661D01*
X68989795Y-67889382D01*
X68992489Y-67876709D01*
X68998000Y-67856144D01*
X68998000Y-67847341D01*
X68999527Y-67827941D01*
X69002369Y-67809999D01*
X69002369Y-67809998D01*
X68999527Y-67792055D01*
X68998000Y-67772657D01*
X68998000Y-67763858D01*
X68998000Y-67763856D01*
X68992489Y-67743290D01*
X68989794Y-67730611D01*
X68985000Y-67700339D01*
X68982443Y-67695322D01*
X68977388Y-67682151D01*
X68977224Y-67682220D01*
X68974116Y-67674716D01*
X68968795Y-67665499D01*
X68957244Y-67645492D01*
X68954153Y-67639799D01*
X68949382Y-67630436D01*
X68934595Y-67601413D01*
X68856087Y-67522905D01*
X68804319Y-67471137D01*
X68770834Y-67409814D01*
X68768000Y-67383456D01*
X68768000Y-67307528D01*
X68768000Y-67307526D01*
X68730484Y-67167515D01*
X68658010Y-67041985D01*
X68516027Y-66900002D01*
X76162092Y-66900002D01*
X76181533Y-66997738D01*
X76181533Y-66997739D01*
X76181534Y-66997740D01*
X76236899Y-67080601D01*
X76319760Y-67135966D01*
X76350100Y-67142001D01*
X76417498Y-67155408D01*
X76417500Y-67155408D01*
X76417502Y-67155408D01*
X76484900Y-67142001D01*
X76515240Y-67135966D01*
X76598101Y-67080601D01*
X76653466Y-66997740D01*
X76665672Y-66936376D01*
X76672908Y-66900002D01*
X76672908Y-66899997D01*
X76655455Y-66812260D01*
X76653466Y-66802260D01*
X76598101Y-66719399D01*
X76515240Y-66664034D01*
X76515239Y-66664033D01*
X76515238Y-66664033D01*
X76417502Y-66644592D01*
X76417498Y-66644592D01*
X76319761Y-66664033D01*
X76236899Y-66719399D01*
X76181533Y-66802261D01*
X76162092Y-66899997D01*
X76162092Y-66900002D01*
X68516027Y-66900002D01*
X68255515Y-66639490D01*
X68129985Y-66567016D01*
X68129980Y-66567014D01*
X68088747Y-66555965D01*
X68088747Y-66555966D01*
X68039360Y-66542733D01*
X67989975Y-66529500D01*
X59385025Y-66529500D01*
X59286253Y-66555966D01*
X59286252Y-66555965D01*
X59245019Y-66567014D01*
X59245014Y-66567016D01*
X59119486Y-66639489D01*
X59119483Y-66639491D01*
X58716991Y-67041983D01*
X58716989Y-67041986D01*
X58644516Y-67167514D01*
X58641170Y-67180002D01*
X58607000Y-67307526D01*
X58607000Y-67307528D01*
X58607000Y-67383456D01*
X58587315Y-67450495D01*
X58570681Y-67471137D01*
X58498913Y-67542905D01*
X58470324Y-67571494D01*
X58420404Y-67621413D01*
X58400845Y-67659800D01*
X58397750Y-67665499D01*
X58380890Y-67694703D01*
X58377779Y-67702215D01*
X58377616Y-67702147D01*
X58372567Y-67715299D01*
X58370001Y-67720335D01*
X58365204Y-67750616D01*
X58362507Y-67763300D01*
X58357002Y-67783847D01*
X58357001Y-67783858D01*
X58357001Y-67792651D01*
X58355474Y-67812050D01*
X58352631Y-67829999D01*
X58352631Y-67830000D01*
X58355474Y-67847948D01*
X58357001Y-67867348D01*
X58357001Y-67876142D01*
X58357002Y-67876151D01*
X58362507Y-67896699D01*
X58365204Y-67909384D01*
X58370000Y-67939662D01*
X58372562Y-67944689D01*
X58377615Y-67957852D01*
X58377778Y-67957785D01*
X58380884Y-67965285D01*
X58380886Y-67965288D01*
X58397755Y-67994508D01*
X58400836Y-68000183D01*
X58417231Y-68032358D01*
X58420407Y-68038591D01*
X58426141Y-68046483D01*
X58423245Y-68048586D01*
X58448121Y-68094142D01*
X58443137Y-68163834D01*
X58401265Y-68219767D01*
X58335801Y-68244184D01*
X58326955Y-68244500D01*
X58257808Y-68244500D01*
X58190769Y-68224815D01*
X58187818Y-68222859D01*
X58154212Y-68199880D01*
X58091078Y-68169955D01*
X58083695Y-68167673D01*
X58064026Y-68159690D01*
X58040100Y-68147499D01*
X58025364Y-68139990D01*
X57993979Y-68117187D01*
X57978082Y-68101290D01*
X57955278Y-68069904D01*
X57945062Y-68049854D01*
X57933074Y-68012957D01*
X57930595Y-67997304D01*
X57929556Y-67990748D01*
X57929556Y-67951961D01*
X57930613Y-67945287D01*
X57933074Y-67929739D01*
X57945064Y-67892841D01*
X57955273Y-67872805D01*
X57978076Y-67841419D01*
X58009947Y-67809548D01*
X58021184Y-67800198D01*
X58020901Y-67799840D01*
X58024116Y-67797295D01*
X58024115Y-67797295D01*
X58024122Y-67797291D01*
X58072141Y-67753846D01*
X58075121Y-67751077D01*
X58117016Y-67682347D01*
X58136701Y-67615308D01*
X58143000Y-67571497D01*
X58143000Y-67301362D01*
X58142109Y-67284739D01*
X58139943Y-67264592D01*
X58139275Y-67258380D01*
X58139274Y-67258378D01*
X58129929Y-67228534D01*
X58121145Y-67200481D01*
X58119803Y-67198024D01*
X58087663Y-67139163D01*
X58087658Y-67139155D01*
X58061142Y-67103733D01*
X58061133Y-67103723D01*
X58033376Y-67075966D01*
X57943774Y-66986364D01*
X57943759Y-66986350D01*
X57943748Y-66986340D01*
X57931410Y-66975257D01*
X57931383Y-66975234D01*
X57910750Y-66958607D01*
X57910745Y-66958604D01*
X57856988Y-66930484D01*
X57856987Y-66930483D01*
X57856982Y-66930481D01*
X57789954Y-66910800D01*
X57789940Y-66910797D01*
X57746141Y-66904500D01*
X57746138Y-66904500D01*
X57403272Y-66904500D01*
X57336233Y-66884815D01*
X57315591Y-66868181D01*
X56697412Y-66250002D01*
X72632092Y-66250002D01*
X72651533Y-66347738D01*
X72651533Y-66347739D01*
X72651534Y-66347740D01*
X72706899Y-66430601D01*
X72789760Y-66485966D01*
X72811518Y-66490294D01*
X72887498Y-66505408D01*
X72887500Y-66505408D01*
X72887502Y-66505408D01*
X72936370Y-66495687D01*
X72985240Y-66485966D01*
X73068101Y-66430601D01*
X73123466Y-66347740D01*
X73128984Y-66320002D01*
X83556594Y-66320002D01*
X83576035Y-66417738D01*
X83576035Y-66417739D01*
X83576036Y-66417740D01*
X83582718Y-66427740D01*
X83584268Y-66430060D01*
X83605145Y-66496738D01*
X83589425Y-66554036D01*
X83594819Y-66549192D01*
X83663789Y-66538016D01*
X83702498Y-66552453D01*
X83702979Y-66551293D01*
X83714262Y-66555966D01*
X83812000Y-66575408D01*
X83812002Y-66575408D01*
X83812004Y-66575408D01*
X83863818Y-66565101D01*
X83909742Y-66555966D01*
X83992603Y-66500601D01*
X84047968Y-66417740D01*
X84061892Y-66347740D01*
X84067410Y-66320002D01*
X84067410Y-66319997D01*
X84047968Y-66222261D01*
X84047968Y-66222260D01*
X84006369Y-66160002D01*
X85232092Y-66160002D01*
X85251533Y-66257738D01*
X85251533Y-66257739D01*
X85251534Y-66257740D01*
X85306899Y-66340601D01*
X85389760Y-66395966D01*
X85422340Y-66402446D01*
X85487498Y-66415408D01*
X85487500Y-66415408D01*
X85487502Y-66415408D01*
X85536370Y-66405687D01*
X85585240Y-66395966D01*
X85668101Y-66340601D01*
X85723466Y-66257740D01*
X85742908Y-66160000D01*
X85742908Y-66159997D01*
X85723466Y-66062261D01*
X85723466Y-66062260D01*
X85668101Y-65979399D01*
X85585240Y-65924034D01*
X85585239Y-65924033D01*
X85585238Y-65924033D01*
X85487502Y-65904592D01*
X85487498Y-65904592D01*
X85389761Y-65924033D01*
X85306899Y-65979399D01*
X85251533Y-66062261D01*
X85232092Y-66159997D01*
X85232092Y-66160002D01*
X84006369Y-66160002D01*
X83992603Y-66139399D01*
X83909742Y-66084034D01*
X83909741Y-66084033D01*
X83909740Y-66084033D01*
X83812004Y-66064592D01*
X83812000Y-66064592D01*
X83714263Y-66084033D01*
X83631401Y-66139399D01*
X83576035Y-66222261D01*
X83556594Y-66319997D01*
X83556594Y-66320002D01*
X73128984Y-66320002D01*
X73133187Y-66298870D01*
X73142908Y-66250002D01*
X73142908Y-66249997D01*
X73125006Y-66160002D01*
X73123466Y-66152260D01*
X73068101Y-66069399D01*
X72985240Y-66014034D01*
X72985239Y-66014033D01*
X72985238Y-66014033D01*
X72887455Y-65994582D01*
X72887386Y-65994614D01*
X72789761Y-66014033D01*
X72706899Y-66069399D01*
X72651533Y-66152261D01*
X72632092Y-66249997D01*
X72632092Y-66250002D01*
X56697412Y-66250002D01*
X56082865Y-65635455D01*
X69880056Y-65635455D01*
X69899497Y-65733191D01*
X69899497Y-65733192D01*
X69899498Y-65733193D01*
X69954863Y-65816054D01*
X70037724Y-65871419D01*
X70070304Y-65877899D01*
X70135462Y-65890861D01*
X70135464Y-65890861D01*
X70135466Y-65890861D01*
X70233200Y-65871420D01*
X70233200Y-65871419D01*
X70233204Y-65871419D01*
X70233206Y-65871417D01*
X70234377Y-65870933D01*
X70237148Y-65870634D01*
X70245182Y-65869037D01*
X70245324Y-65869755D01*
X70303846Y-65863463D01*
X70366326Y-65894736D01*
X70384934Y-65916603D01*
X70426897Y-65979406D01*
X70426898Y-65979406D01*
X70426899Y-65979408D01*
X70509760Y-66034773D01*
X70542340Y-66041253D01*
X70607498Y-66054215D01*
X70607500Y-66054215D01*
X70607502Y-66054215D01*
X70656370Y-66044494D01*
X70705240Y-66034773D01*
X70779619Y-65985074D01*
X70846293Y-65964198D01*
X70913673Y-65982682D01*
X70951609Y-66019287D01*
X70962265Y-66035235D01*
X71045126Y-66090600D01*
X71062385Y-66094033D01*
X71142864Y-66110042D01*
X71142866Y-66110042D01*
X71142868Y-66110042D01*
X71191736Y-66100321D01*
X71240606Y-66090600D01*
X71323467Y-66035235D01*
X71378832Y-65952374D01*
X71395032Y-65870933D01*
X71395221Y-65869982D01*
X75702092Y-65869982D01*
X75721533Y-65967718D01*
X75721533Y-65967719D01*
X75721534Y-65967720D01*
X75776899Y-66050581D01*
X75859760Y-66105946D01*
X75880352Y-66110042D01*
X75957498Y-66125388D01*
X75957500Y-66125388D01*
X75957502Y-66125388D01*
X76006370Y-66115667D01*
X76055240Y-66105946D01*
X76138101Y-66050581D01*
X76193466Y-65967720D01*
X76206023Y-65904592D01*
X76212908Y-65869982D01*
X76212908Y-65869977D01*
X76193466Y-65772241D01*
X76193466Y-65772240D01*
X76138101Y-65689379D01*
X76055240Y-65634014D01*
X76055239Y-65634013D01*
X76055238Y-65634013D01*
X75957502Y-65614572D01*
X75957498Y-65614572D01*
X75859761Y-65634013D01*
X75776899Y-65689379D01*
X75721533Y-65772241D01*
X75702092Y-65869977D01*
X75702092Y-65869982D01*
X71395221Y-65869982D01*
X71398274Y-65854636D01*
X71398274Y-65854631D01*
X71381885Y-65772241D01*
X71378832Y-65756894D01*
X71323467Y-65674033D01*
X71240606Y-65618668D01*
X71240605Y-65618667D01*
X71240604Y-65618667D01*
X71142868Y-65599226D01*
X71142864Y-65599226D01*
X71045127Y-65618667D01*
X70970748Y-65668365D01*
X70904070Y-65689242D01*
X70836690Y-65670757D01*
X70798756Y-65634152D01*
X70788102Y-65618207D01*
X70768604Y-65605179D01*
X70705240Y-65562841D01*
X70705239Y-65562840D01*
X70705238Y-65562840D01*
X70607502Y-65543399D01*
X70607498Y-65543399D01*
X70509759Y-65562840D01*
X70508575Y-65563331D01*
X70505789Y-65563630D01*
X70497782Y-65565223D01*
X70497639Y-65564505D01*
X70439105Y-65570794D01*
X70376628Y-65539515D01*
X70358030Y-65517659D01*
X70342892Y-65495002D01*
X72627092Y-65495002D01*
X72646533Y-65592738D01*
X72646533Y-65592739D01*
X72646534Y-65592740D01*
X72701899Y-65675601D01*
X72784760Y-65730966D01*
X72882500Y-65750408D01*
X72882500Y-65750407D01*
X72882542Y-65750416D01*
X72882608Y-65750386D01*
X72980240Y-65730966D01*
X73063101Y-65675601D01*
X73118466Y-65592740D01*
X73129412Y-65537713D01*
X73137908Y-65495002D01*
X73137908Y-65482787D01*
X73142461Y-65482787D01*
X73146467Y-65437487D01*
X73189272Y-65382265D01*
X73255137Y-65358952D01*
X73286091Y-65361149D01*
X73307500Y-65365408D01*
X73405240Y-65345966D01*
X73488101Y-65290601D01*
X73543466Y-65207740D01*
X73558284Y-65133246D01*
X73562908Y-65110002D01*
X73562908Y-65109997D01*
X73548326Y-65036695D01*
X73543466Y-65012260D01*
X73488504Y-64930002D01*
X74702092Y-64930002D01*
X74721533Y-65027738D01*
X74721533Y-65027739D01*
X74721534Y-65027740D01*
X74776899Y-65110601D01*
X74859760Y-65165966D01*
X74880025Y-65169997D01*
X74957498Y-65185408D01*
X74957500Y-65185408D01*
X74957502Y-65185408D01*
X75007184Y-65175525D01*
X75030023Y-65170982D01*
X77592092Y-65170982D01*
X77611533Y-65268718D01*
X77611533Y-65268719D01*
X77611534Y-65268720D01*
X77666899Y-65351581D01*
X77749760Y-65406946D01*
X77782340Y-65413426D01*
X77847498Y-65426388D01*
X77847500Y-65426388D01*
X77847502Y-65426388D01*
X77896370Y-65416667D01*
X77945240Y-65406946D01*
X78028101Y-65351581D01*
X78083466Y-65268720D01*
X78100038Y-65185408D01*
X78102908Y-65170982D01*
X78102908Y-65170977D01*
X78094757Y-65130002D01*
X80102092Y-65130002D01*
X80121533Y-65227738D01*
X80121533Y-65227739D01*
X80121534Y-65227740D01*
X80176899Y-65310601D01*
X80259760Y-65365966D01*
X80276084Y-65369213D01*
X80357498Y-65385408D01*
X80357500Y-65385408D01*
X80357502Y-65385408D01*
X80406370Y-65375687D01*
X80455240Y-65365966D01*
X80538101Y-65310601D01*
X80593466Y-65227740D01*
X80604756Y-65170982D01*
X80604951Y-65170002D01*
X83842092Y-65170002D01*
X83861533Y-65267738D01*
X83861533Y-65267739D01*
X83861534Y-65267740D01*
X83916899Y-65350601D01*
X83999760Y-65405966D01*
X84032340Y-65412446D01*
X84097498Y-65425408D01*
X84097500Y-65425408D01*
X84097502Y-65425408D01*
X84146370Y-65415687D01*
X84195240Y-65405966D01*
X84278101Y-65350601D01*
X84333466Y-65267740D01*
X84335005Y-65260002D01*
X84942092Y-65260002D01*
X84961533Y-65357738D01*
X84961533Y-65357739D01*
X84961534Y-65357740D01*
X85016899Y-65440601D01*
X85099760Y-65495966D01*
X85132340Y-65502446D01*
X85197498Y-65515408D01*
X85197500Y-65515408D01*
X85197502Y-65515408D01*
X85246370Y-65505687D01*
X85295240Y-65495966D01*
X85378101Y-65440601D01*
X85433466Y-65357740D01*
X85450626Y-65271473D01*
X85452908Y-65260002D01*
X85452908Y-65259997D01*
X85435201Y-65170982D01*
X85433466Y-65162260D01*
X85378101Y-65079399D01*
X85295240Y-65024034D01*
X85295239Y-65024033D01*
X85295238Y-65024033D01*
X85197502Y-65004592D01*
X85197498Y-65004592D01*
X85099761Y-65024033D01*
X85016899Y-65079399D01*
X84961533Y-65162261D01*
X84942092Y-65259997D01*
X84942092Y-65260002D01*
X84335005Y-65260002D01*
X84349843Y-65185408D01*
X84352908Y-65170002D01*
X84352908Y-65169997D01*
X84333466Y-65072261D01*
X84333466Y-65072260D01*
X84278101Y-64989399D01*
X84195240Y-64934034D01*
X84195239Y-64934033D01*
X84195238Y-64934033D01*
X84097502Y-64914592D01*
X84097498Y-64914592D01*
X83999761Y-64934033D01*
X83916899Y-64989399D01*
X83861533Y-65072261D01*
X83842092Y-65169997D01*
X83842092Y-65170002D01*
X80604951Y-65170002D01*
X80612908Y-65130002D01*
X80612908Y-65129997D01*
X80593466Y-65032261D01*
X80593466Y-65032260D01*
X80538101Y-64949399D01*
X80455240Y-64894034D01*
X80455239Y-64894033D01*
X80455238Y-64894033D01*
X80357502Y-64874592D01*
X80357498Y-64874592D01*
X80259761Y-64894033D01*
X80176899Y-64949399D01*
X80121533Y-65032261D01*
X80102092Y-65129997D01*
X80102092Y-65130002D01*
X78094757Y-65130002D01*
X78083466Y-65073241D01*
X78083466Y-65073240D01*
X78028101Y-64990379D01*
X77945240Y-64935014D01*
X77945239Y-64935013D01*
X77945238Y-64935013D01*
X77847502Y-64915572D01*
X77847498Y-64915572D01*
X77749761Y-64935013D01*
X77666899Y-64990379D01*
X77611533Y-65073241D01*
X77592092Y-65170977D01*
X77592092Y-65170982D01*
X75030023Y-65170982D01*
X75055240Y-65165966D01*
X75138101Y-65110601D01*
X75193466Y-65027740D01*
X75209380Y-64947738D01*
X75212908Y-64930002D01*
X75212908Y-64929997D01*
X75195508Y-64842528D01*
X75193466Y-64832260D01*
X75138101Y-64749399D01*
X75055240Y-64694034D01*
X75055239Y-64694033D01*
X75055238Y-64694033D01*
X74957502Y-64674592D01*
X74957498Y-64674592D01*
X74859761Y-64694033D01*
X74776899Y-64749399D01*
X74721533Y-64832261D01*
X74702092Y-64929997D01*
X74702092Y-64930002D01*
X73488504Y-64930002D01*
X73488101Y-64929399D01*
X73405240Y-64874034D01*
X73405239Y-64874033D01*
X73405238Y-64874033D01*
X73307502Y-64854592D01*
X73307498Y-64854592D01*
X73209761Y-64874033D01*
X73126899Y-64929399D01*
X73071533Y-65012261D01*
X73052092Y-65109997D01*
X73052092Y-65122213D01*
X73048072Y-65122213D01*
X73041590Y-65172182D01*
X72996568Y-65225612D01*
X72929806Y-65246220D01*
X72903904Y-65243849D01*
X72882502Y-65239592D01*
X72882498Y-65239592D01*
X72784761Y-65259033D01*
X72701899Y-65314399D01*
X72646533Y-65397261D01*
X72627092Y-65494997D01*
X72627092Y-65495002D01*
X70342892Y-65495002D01*
X70316065Y-65454852D01*
X70233204Y-65399487D01*
X70233203Y-65399486D01*
X70233202Y-65399486D01*
X70135466Y-65380045D01*
X70135462Y-65380045D01*
X70037725Y-65399486D01*
X69954863Y-65454852D01*
X69899497Y-65537714D01*
X69880056Y-65635450D01*
X69880056Y-65635455D01*
X56082865Y-65635455D01*
X55507912Y-65060502D01*
X68632107Y-65060502D01*
X68651548Y-65158238D01*
X68651548Y-65158239D01*
X68651549Y-65158240D01*
X68706914Y-65241101D01*
X68789775Y-65296466D01*
X68822355Y-65302946D01*
X68887513Y-65315908D01*
X68887515Y-65315908D01*
X68887517Y-65315908D01*
X68936385Y-65306187D01*
X68985255Y-65296466D01*
X69068116Y-65241101D01*
X69081994Y-65220329D01*
X69135603Y-65175525D01*
X69204928Y-65166816D01*
X69253983Y-65186116D01*
X69332117Y-65238323D01*
X69338497Y-65239592D01*
X69429855Y-65257765D01*
X69429857Y-65257765D01*
X69429859Y-65257765D01*
X69478727Y-65248044D01*
X69527597Y-65238323D01*
X69610458Y-65182958D01*
X69665823Y-65100097D01*
X69680216Y-65027740D01*
X69685265Y-65002359D01*
X69685265Y-65002354D01*
X69665823Y-64904618D01*
X69665823Y-64904617D01*
X69629331Y-64850002D01*
X70122092Y-64850002D01*
X70141533Y-64947738D01*
X70141533Y-64947739D01*
X70141534Y-64947740D01*
X70196899Y-65030601D01*
X70279760Y-65085966D01*
X70312340Y-65092446D01*
X70377498Y-65105408D01*
X70377500Y-65105408D01*
X70377502Y-65105408D01*
X70426370Y-65095687D01*
X70475240Y-65085966D01*
X70558101Y-65030601D01*
X70582634Y-64993882D01*
X70636242Y-64949080D01*
X70705567Y-64940370D01*
X70754624Y-64959671D01*
X70779760Y-64976466D01*
X70812340Y-64982946D01*
X70877498Y-64995908D01*
X70877500Y-64995908D01*
X70877502Y-64995908D01*
X70926370Y-64986187D01*
X70975240Y-64976466D01*
X71058101Y-64921101D01*
X71113466Y-64838240D01*
X71131138Y-64749399D01*
X71132908Y-64740502D01*
X71132908Y-64740497D01*
X71116448Y-64657753D01*
X71113466Y-64642760D01*
X71058101Y-64559899D01*
X70975240Y-64504534D01*
X70975239Y-64504533D01*
X70975238Y-64504533D01*
X70877502Y-64485092D01*
X70877498Y-64485092D01*
X70779761Y-64504533D01*
X70696897Y-64559900D01*
X70672366Y-64596615D01*
X70618754Y-64641421D01*
X70549429Y-64650128D01*
X70500374Y-64630828D01*
X70475240Y-64614034D01*
X70475239Y-64614033D01*
X70475238Y-64614033D01*
X70377502Y-64594592D01*
X70377498Y-64594592D01*
X70279761Y-64614033D01*
X70196899Y-64669399D01*
X70141533Y-64752261D01*
X70122092Y-64849997D01*
X70122092Y-64850002D01*
X69629331Y-64850002D01*
X69610458Y-64821756D01*
X69527597Y-64766391D01*
X69527596Y-64766390D01*
X69527595Y-64766390D01*
X69429859Y-64746949D01*
X69429855Y-64746949D01*
X69332118Y-64766390D01*
X69249254Y-64821757D01*
X69235376Y-64842528D01*
X69181764Y-64887332D01*
X69112438Y-64896039D01*
X69063386Y-64876739D01*
X68985255Y-64824534D01*
X68985254Y-64824533D01*
X68985253Y-64824533D01*
X68887517Y-64805092D01*
X68887513Y-64805092D01*
X68789776Y-64824533D01*
X68706914Y-64879899D01*
X68651548Y-64962761D01*
X68632107Y-65060497D01*
X68632107Y-65060502D01*
X55507912Y-65060502D01*
X55083789Y-64636379D01*
X55083783Y-64636373D01*
X55083774Y-64636364D01*
X55083760Y-64636351D01*
X55083748Y-64636340D01*
X55071410Y-64625257D01*
X55071383Y-64625234D01*
X55050750Y-64608607D01*
X55050745Y-64608604D01*
X54996982Y-64580481D01*
X54929954Y-64560800D01*
X54929940Y-64560797D01*
X54886141Y-64554500D01*
X54886138Y-64554500D01*
X53908862Y-64554500D01*
X53892254Y-64555390D01*
X53892245Y-64555390D01*
X53892239Y-64555391D01*
X53892233Y-64555391D01*
X53892202Y-64555394D01*
X53865880Y-64558224D01*
X53865878Y-64558225D01*
X53807983Y-64576354D01*
X53807973Y-64576358D01*
X53746663Y-64609836D01*
X53746655Y-64609841D01*
X53711233Y-64636357D01*
X53711215Y-64636373D01*
X53113879Y-65233710D01*
X53113840Y-65233751D01*
X53102757Y-65246089D01*
X53102734Y-65246116D01*
X53086107Y-65266749D01*
X53086104Y-65266754D01*
X53057981Y-65320517D01*
X53038300Y-65387545D01*
X53038297Y-65387559D01*
X53032000Y-65431358D01*
X53032000Y-69945500D01*
X53012315Y-70012539D01*
X52959511Y-70058294D01*
X52908000Y-70069500D01*
X41992000Y-70069500D01*
X41924961Y-70049815D01*
X41879206Y-69997011D01*
X41868000Y-69945500D01*
X41868000Y-69923997D01*
X41868000Y-69923993D01*
X41867975Y-69921218D01*
X41867896Y-69916792D01*
X41859963Y-69870460D01*
X41859960Y-69870453D01*
X41858819Y-69865895D01*
X41860503Y-69865473D01*
X41858264Y-69803058D01*
X41890735Y-69746025D01*
X41924864Y-69711897D01*
X41963000Y-69619828D01*
X44002000Y-69619828D01*
X44040136Y-69711897D01*
X44110603Y-69782364D01*
X44202672Y-69820500D01*
X44202674Y-69820500D01*
X44302326Y-69820500D01*
X44302328Y-69820500D01*
X44394397Y-69782364D01*
X44464864Y-69711897D01*
X44503000Y-69619828D01*
X46542000Y-69619828D01*
X46580136Y-69711897D01*
X46650603Y-69782364D01*
X46742672Y-69820500D01*
X46742674Y-69820500D01*
X46842326Y-69820500D01*
X46842328Y-69820500D01*
X46934397Y-69782364D01*
X47004864Y-69711897D01*
X47043000Y-69619828D01*
X49082000Y-69619828D01*
X49120136Y-69711897D01*
X49190603Y-69782364D01*
X49282672Y-69820500D01*
X49282674Y-69820500D01*
X49382326Y-69820500D01*
X49382328Y-69820500D01*
X49474397Y-69782364D01*
X49544864Y-69711897D01*
X49583000Y-69619828D01*
X51622000Y-69619828D01*
X51660136Y-69711897D01*
X51730603Y-69782364D01*
X51822672Y-69820500D01*
X51822674Y-69820500D01*
X51922326Y-69820500D01*
X51922328Y-69820500D01*
X52014397Y-69782364D01*
X52084864Y-69711897D01*
X52123000Y-69619828D01*
X52123000Y-69520172D01*
X52084864Y-69428103D01*
X52014397Y-69357636D01*
X51922329Y-69319500D01*
X51922328Y-69319500D01*
X51822672Y-69319500D01*
X51822670Y-69319500D01*
X51730602Y-69357636D01*
X51660136Y-69428102D01*
X51622000Y-69520170D01*
X51622000Y-69520172D01*
X51622000Y-69619828D01*
X49583000Y-69619828D01*
X49583000Y-69520172D01*
X49544864Y-69428103D01*
X49474397Y-69357636D01*
X49382329Y-69319500D01*
X49382328Y-69319500D01*
X49282672Y-69319500D01*
X49282670Y-69319500D01*
X49190602Y-69357636D01*
X49120136Y-69428102D01*
X49082000Y-69520170D01*
X49082000Y-69520172D01*
X49082000Y-69619828D01*
X47043000Y-69619828D01*
X47043000Y-69520172D01*
X47004864Y-69428103D01*
X46934397Y-69357636D01*
X46842329Y-69319500D01*
X46842328Y-69319500D01*
X46742672Y-69319500D01*
X46742670Y-69319500D01*
X46650602Y-69357636D01*
X46580136Y-69428102D01*
X46542000Y-69520170D01*
X46542000Y-69520172D01*
X46542000Y-69619828D01*
X44503000Y-69619828D01*
X44503000Y-69520172D01*
X44464864Y-69428103D01*
X44394397Y-69357636D01*
X44302329Y-69319500D01*
X44302328Y-69319500D01*
X44202672Y-69319500D01*
X44202670Y-69319500D01*
X44110602Y-69357636D01*
X44040136Y-69428102D01*
X44002000Y-69520170D01*
X44002000Y-69520172D01*
X44002000Y-69619828D01*
X41963000Y-69619828D01*
X41963000Y-69520172D01*
X41924864Y-69428103D01*
X41924862Y-69428101D01*
X41889863Y-69393101D01*
X41856378Y-69331778D01*
X41858568Y-69270483D01*
X41861701Y-69259817D01*
X41868000Y-69216006D01*
X41868000Y-68850002D01*
X45472092Y-68850002D01*
X45491533Y-68947738D01*
X45491533Y-68947739D01*
X45491534Y-68947740D01*
X45546899Y-69030601D01*
X45629760Y-69085966D01*
X45647019Y-69089399D01*
X45727498Y-69105408D01*
X45727500Y-69105408D01*
X45727502Y-69105408D01*
X45776370Y-69095687D01*
X45825240Y-69085966D01*
X45908101Y-69030601D01*
X45963466Y-68947740D01*
X45976844Y-68880484D01*
X45982908Y-68850002D01*
X45982908Y-68849997D01*
X45964674Y-68758333D01*
X45963466Y-68752260D01*
X45908101Y-68669399D01*
X45825240Y-68614034D01*
X45825239Y-68614033D01*
X45825238Y-68614033D01*
X45727502Y-68594592D01*
X45727498Y-68594592D01*
X45629761Y-68614033D01*
X45546899Y-68669399D01*
X45491533Y-68752261D01*
X45472092Y-68849997D01*
X45472092Y-68850002D01*
X41868000Y-68850002D01*
X41868000Y-67180002D01*
X44042092Y-67180002D01*
X44061533Y-67277738D01*
X44061533Y-67277739D01*
X44061534Y-67277740D01*
X44116899Y-67360601D01*
X44199760Y-67415966D01*
X44228224Y-67421628D01*
X44297498Y-67435408D01*
X44297500Y-67435408D01*
X44297502Y-67435408D01*
X44363598Y-67422260D01*
X44395240Y-67415966D01*
X44478101Y-67360601D01*
X44533466Y-67277740D01*
X44543594Y-67226824D01*
X44552908Y-67180002D01*
X44552908Y-67179997D01*
X44533466Y-67082261D01*
X44533466Y-67082260D01*
X44478101Y-66999399D01*
X44395240Y-66944034D01*
X44395239Y-66944033D01*
X44395238Y-66944033D01*
X44297502Y-66924592D01*
X44297498Y-66924592D01*
X44199761Y-66944033D01*
X44116899Y-66999399D01*
X44061533Y-67082261D01*
X44042092Y-67179997D01*
X44042092Y-67180002D01*
X41868000Y-67180002D01*
X41868000Y-66909063D01*
X45963031Y-66909063D01*
X45982472Y-67006799D01*
X45982472Y-67006800D01*
X45982473Y-67006801D01*
X46037838Y-67089662D01*
X46120699Y-67145027D01*
X46148917Y-67150640D01*
X46218437Y-67164469D01*
X46218439Y-67164469D01*
X46218441Y-67164469D01*
X46287961Y-67150640D01*
X46316179Y-67145027D01*
X46316180Y-67145025D01*
X46327462Y-67140354D01*
X46328144Y-67142001D01*
X46380818Y-67125503D01*
X46448199Y-67143982D01*
X46494894Y-67195957D01*
X46497604Y-67202032D01*
X46498859Y-67205063D01*
X46498860Y-67205065D01*
X46554225Y-67287926D01*
X46637086Y-67343291D01*
X46669666Y-67349771D01*
X46734824Y-67362733D01*
X46734826Y-67362733D01*
X46734828Y-67362733D01*
X46783696Y-67353012D01*
X46832566Y-67343291D01*
X46915427Y-67287926D01*
X46970792Y-67205065D01*
X46982705Y-67145174D01*
X46990234Y-67107327D01*
X46990234Y-67107322D01*
X46970792Y-67009586D01*
X46970792Y-67009585D01*
X46915427Y-66926724D01*
X46832566Y-66871359D01*
X46832565Y-66871358D01*
X46832564Y-66871358D01*
X46734828Y-66851917D01*
X46734824Y-66851917D01*
X46637086Y-66871358D01*
X46625803Y-66876032D01*
X46625121Y-66874386D01*
X46572429Y-66890882D01*
X46505050Y-66872394D01*
X46458362Y-66820413D01*
X46455658Y-66814349D01*
X46454406Y-66811327D01*
X46454405Y-66811321D01*
X46417292Y-66755777D01*
X49522092Y-66755777D01*
X49541533Y-66853513D01*
X49541533Y-66853514D01*
X49541534Y-66853515D01*
X49596899Y-66936376D01*
X49679760Y-66991741D01*
X49709919Y-66997740D01*
X49777498Y-67011183D01*
X49777500Y-67011183D01*
X49777502Y-67011183D01*
X49845081Y-66997740D01*
X49875240Y-66991741D01*
X49958101Y-66936376D01*
X49975615Y-66910162D01*
X50029224Y-66865360D01*
X50098549Y-66856651D01*
X50161577Y-66886805D01*
X50181815Y-66910160D01*
X50192601Y-66926303D01*
X50275462Y-66981668D01*
X50299055Y-66986361D01*
X50373200Y-67001110D01*
X50373202Y-67001110D01*
X50373204Y-67001110D01*
X50422072Y-66991389D01*
X50470942Y-66981668D01*
X50553803Y-66926303D01*
X50609168Y-66843442D01*
X50626606Y-66755777D01*
X50628610Y-66745704D01*
X50628610Y-66745699D01*
X50609168Y-66647963D01*
X50609168Y-66647962D01*
X50553803Y-66565101D01*
X50470942Y-66509736D01*
X50470941Y-66509735D01*
X50470940Y-66509735D01*
X50373204Y-66490294D01*
X50373200Y-66490294D01*
X50275463Y-66509735D01*
X50192599Y-66565102D01*
X50175086Y-66591313D01*
X50121474Y-66636117D01*
X50052148Y-66644824D01*
X49989121Y-66614669D01*
X49968887Y-66591317D01*
X49958101Y-66575174D01*
X49875240Y-66519809D01*
X49875239Y-66519808D01*
X49875238Y-66519808D01*
X49777502Y-66500367D01*
X49777498Y-66500367D01*
X49679761Y-66519808D01*
X49596899Y-66575174D01*
X49541533Y-66658036D01*
X49522092Y-66755772D01*
X49522092Y-66755777D01*
X46417292Y-66755777D01*
X46399040Y-66728460D01*
X46316179Y-66673095D01*
X46316178Y-66673094D01*
X46316177Y-66673094D01*
X46218441Y-66653653D01*
X46218437Y-66653653D01*
X46120700Y-66673094D01*
X46037838Y-66728460D01*
X45982472Y-66811322D01*
X45963031Y-66909058D01*
X45963031Y-66909063D01*
X41868000Y-66909063D01*
X41868000Y-66330002D01*
X46796594Y-66330002D01*
X46816035Y-66427738D01*
X46816035Y-66427739D01*
X46816036Y-66427740D01*
X46871401Y-66510601D01*
X46954262Y-66565966D01*
X46959531Y-66567014D01*
X47052000Y-66585408D01*
X47052002Y-66585408D01*
X47052004Y-66585408D01*
X47103456Y-66575173D01*
X47149742Y-66565966D01*
X47232603Y-66510601D01*
X47287968Y-66427740D01*
X47303882Y-66347738D01*
X47307410Y-66330002D01*
X47307410Y-66329997D01*
X47287968Y-66232261D01*
X47287968Y-66232260D01*
X47232603Y-66149399D01*
X47149742Y-66094034D01*
X47149741Y-66094033D01*
X47149740Y-66094033D01*
X47052004Y-66074592D01*
X47052000Y-66074592D01*
X46954263Y-66094033D01*
X46871401Y-66149399D01*
X46816035Y-66232261D01*
X46796594Y-66329997D01*
X46796594Y-66330002D01*
X41868000Y-66330002D01*
X41868000Y-65758561D01*
X41887685Y-65691522D01*
X41940489Y-65645767D01*
X41967810Y-65636943D01*
X41975240Y-65635466D01*
X42058101Y-65580101D01*
X42113466Y-65497240D01*
X42127560Y-65426388D01*
X42132908Y-65399502D01*
X42132908Y-65399497D01*
X42115980Y-65314399D01*
X42113466Y-65301760D01*
X42064137Y-65227933D01*
X42480715Y-65227933D01*
X42500156Y-65325669D01*
X42500156Y-65325670D01*
X42500157Y-65325671D01*
X42555522Y-65408532D01*
X42638383Y-65463897D01*
X42670963Y-65470377D01*
X42736121Y-65483339D01*
X42736123Y-65483339D01*
X42736125Y-65483339D01*
X42784993Y-65473618D01*
X42833863Y-65463897D01*
X42916724Y-65408532D01*
X42942994Y-65369215D01*
X44475769Y-65369215D01*
X44495210Y-65466951D01*
X44495210Y-65466952D01*
X44495211Y-65466953D01*
X44550576Y-65549814D01*
X44633437Y-65605179D01*
X44666017Y-65611659D01*
X44731175Y-65624621D01*
X44731177Y-65624621D01*
X44731179Y-65624621D01*
X44781696Y-65614572D01*
X44828917Y-65605179D01*
X44911778Y-65549814D01*
X44967143Y-65466953D01*
X44980560Y-65399502D01*
X44986585Y-65369215D01*
X44986585Y-65369210D01*
X44967143Y-65271474D01*
X44967143Y-65271473D01*
X44911778Y-65188612D01*
X44828917Y-65133247D01*
X44828916Y-65133246D01*
X44828915Y-65133246D01*
X44731179Y-65113805D01*
X44731175Y-65113805D01*
X44633438Y-65133246D01*
X44550576Y-65188612D01*
X44495210Y-65271474D01*
X44475769Y-65369210D01*
X44475769Y-65369215D01*
X42942994Y-65369215D01*
X42972089Y-65325671D01*
X42982870Y-65271473D01*
X42991531Y-65227933D01*
X42991531Y-65227928D01*
X42972089Y-65130192D01*
X42972089Y-65130191D01*
X42916724Y-65047330D01*
X42833863Y-64991965D01*
X42833862Y-64991964D01*
X42833861Y-64991964D01*
X42736125Y-64972523D01*
X42736121Y-64972523D01*
X42638384Y-64991964D01*
X42555522Y-65047330D01*
X42500156Y-65130192D01*
X42480715Y-65227928D01*
X42480715Y-65227933D01*
X42064137Y-65227933D01*
X42058101Y-65218899D01*
X41975240Y-65163534D01*
X41975239Y-65163533D01*
X41975238Y-65163533D01*
X41967807Y-65162055D01*
X41905896Y-65129669D01*
X41871323Y-65068953D01*
X41868000Y-65040438D01*
X41868000Y-63462002D01*
X45775092Y-63462002D01*
X45794533Y-63559738D01*
X45794533Y-63559739D01*
X45794534Y-63559740D01*
X45849899Y-63642601D01*
X45932760Y-63697966D01*
X45965340Y-63704446D01*
X46030498Y-63717408D01*
X46030500Y-63717408D01*
X46030502Y-63717408D01*
X46079370Y-63707687D01*
X46128240Y-63697966D01*
X46211101Y-63642601D01*
X46266466Y-63559740D01*
X46276187Y-63510870D01*
X46285908Y-63462002D01*
X46285908Y-63461997D01*
X46266466Y-63364261D01*
X46266466Y-63364260D01*
X46211101Y-63281399D01*
X46164111Y-63250002D01*
X55912092Y-63250002D01*
X55931533Y-63347738D01*
X55931533Y-63347739D01*
X55931534Y-63347740D01*
X55986899Y-63430601D01*
X56069760Y-63485966D01*
X56102340Y-63492446D01*
X56167498Y-63505408D01*
X56167500Y-63505408D01*
X56167502Y-63505408D01*
X56216370Y-63495687D01*
X56265240Y-63485966D01*
X56348101Y-63430601D01*
X56351056Y-63426177D01*
X56404667Y-63381372D01*
X56473992Y-63372663D01*
X56537020Y-63402817D01*
X56557259Y-63426173D01*
X56566899Y-63440601D01*
X56649760Y-63495966D01*
X56682340Y-63502446D01*
X56747498Y-63515408D01*
X56747500Y-63515408D01*
X56747502Y-63515408D01*
X56797773Y-63505408D01*
X56845240Y-63495966D01*
X56928101Y-63440601D01*
X56983466Y-63357740D01*
X56993187Y-63308870D01*
X57002908Y-63260002D01*
X57002908Y-63259997D01*
X56988326Y-63186695D01*
X56987480Y-63182442D01*
X68929812Y-63182442D01*
X68949253Y-63280178D01*
X68949253Y-63280179D01*
X68949254Y-63280180D01*
X69004619Y-63363041D01*
X69087480Y-63418406D01*
X69120060Y-63424886D01*
X69185218Y-63437848D01*
X69185220Y-63437848D01*
X69185222Y-63437848D01*
X69243893Y-63426177D01*
X69282960Y-63418406D01*
X69365821Y-63363041D01*
X69421186Y-63280180D01*
X69430907Y-63231310D01*
X69440628Y-63182442D01*
X69440628Y-63182437D01*
X69421186Y-63084701D01*
X69421186Y-63084700D01*
X69365821Y-63001839D01*
X69282960Y-62946474D01*
X69282959Y-62946473D01*
X69282958Y-62946473D01*
X69185222Y-62927032D01*
X69185218Y-62927032D01*
X69177299Y-62928607D01*
X69107707Y-62922378D01*
X69107017Y-62921842D01*
X69078499Y-62952474D01*
X69004619Y-63001838D01*
X68949253Y-63084701D01*
X68929812Y-63182437D01*
X68929812Y-63182442D01*
X56987480Y-63182442D01*
X56983466Y-63162260D01*
X56928101Y-63079399D01*
X56845240Y-63024034D01*
X56845239Y-63024033D01*
X56845238Y-63024033D01*
X56747502Y-63004592D01*
X56747498Y-63004592D01*
X56649761Y-63024033D01*
X56566897Y-63079400D01*
X56563938Y-63083829D01*
X56510323Y-63128631D01*
X56440998Y-63137334D01*
X56377972Y-63107176D01*
X56357737Y-63083821D01*
X56354783Y-63079400D01*
X56348101Y-63069399D01*
X56265240Y-63014034D01*
X56265239Y-63014033D01*
X56265238Y-63014033D01*
X56167502Y-62994592D01*
X56167498Y-62994592D01*
X56069761Y-63014033D01*
X55986899Y-63069399D01*
X55931533Y-63152261D01*
X55912092Y-63249997D01*
X55912092Y-63250002D01*
X46164111Y-63250002D01*
X46128240Y-63226034D01*
X46128239Y-63226033D01*
X46128238Y-63226033D01*
X46030502Y-63206592D01*
X46030498Y-63206592D01*
X45932761Y-63226033D01*
X45849899Y-63281399D01*
X45794533Y-63364261D01*
X45775092Y-63461997D01*
X45775092Y-63462002D01*
X41868000Y-63462002D01*
X41868000Y-62630010D01*
X55202100Y-62630010D01*
X55221541Y-62727746D01*
X55221541Y-62727747D01*
X55221542Y-62727748D01*
X55276907Y-62810609D01*
X55359768Y-62865974D01*
X55392348Y-62872454D01*
X55457506Y-62885416D01*
X55457508Y-62885416D01*
X55457510Y-62885416D01*
X55506378Y-62875695D01*
X55555248Y-62865974D01*
X55638109Y-62810609D01*
X55693474Y-62727748D01*
X55708040Y-62654522D01*
X55712916Y-62630010D01*
X55712916Y-62630005D01*
X55693474Y-62532269D01*
X55693474Y-62532268D01*
X55654490Y-62473924D01*
X68722092Y-62473924D01*
X68741533Y-62571660D01*
X68741533Y-62571661D01*
X68741534Y-62571662D01*
X68796899Y-62654523D01*
X68879760Y-62709888D01*
X68977500Y-62729330D01*
X68985416Y-62727755D01*
X69055005Y-62733981D01*
X69055699Y-62734520D01*
X69084218Y-62703889D01*
X69158101Y-62654523D01*
X69182633Y-62617807D01*
X69889897Y-62617807D01*
X69909338Y-62715543D01*
X69909338Y-62715544D01*
X69909339Y-62715545D01*
X69964704Y-62798406D01*
X70047565Y-62853771D01*
X70080145Y-62860251D01*
X70145303Y-62873213D01*
X70145305Y-62873213D01*
X70145307Y-62873213D01*
X70194175Y-62863492D01*
X70243045Y-62853771D01*
X70325906Y-62798406D01*
X70325906Y-62798404D01*
X70336061Y-62791620D01*
X70336747Y-62792647D01*
X70386867Y-62765276D01*
X70456559Y-62770257D01*
X70482120Y-62783337D01*
X70560138Y-62835466D01*
X70647246Y-62852793D01*
X70709157Y-62885177D01*
X70743731Y-62945893D01*
X70744673Y-62998601D01*
X70739614Y-63024034D01*
X70728602Y-63079399D01*
X70724603Y-63099502D01*
X70744044Y-63197238D01*
X70744044Y-63197239D01*
X70744045Y-63197240D01*
X70799410Y-63280101D01*
X70882271Y-63335466D01*
X70914851Y-63341946D01*
X70980009Y-63354908D01*
X70980011Y-63354908D01*
X70980013Y-63354908D01*
X71028881Y-63345187D01*
X71077751Y-63335466D01*
X71160612Y-63280101D01*
X71215977Y-63197240D01*
X71227893Y-63137334D01*
X71235419Y-63099502D01*
X71235419Y-63099497D01*
X71215993Y-63001839D01*
X71215977Y-63001760D01*
X71178037Y-62944978D01*
X78372089Y-62944978D01*
X78391530Y-63042714D01*
X78391530Y-63042715D01*
X78391531Y-63042716D01*
X78446896Y-63125577D01*
X78529757Y-63180942D01*
X78562337Y-63187422D01*
X78627495Y-63200384D01*
X78627497Y-63200384D01*
X78627499Y-63200384D01*
X78676367Y-63190663D01*
X78725237Y-63180942D01*
X78808098Y-63125577D01*
X78808099Y-63125575D01*
X78808607Y-63125236D01*
X78875285Y-63104358D01*
X78942665Y-63122843D01*
X78946388Y-63125235D01*
X78946898Y-63125575D01*
X78946899Y-63125577D01*
X79029760Y-63180942D01*
X79062340Y-63187422D01*
X79127498Y-63200384D01*
X79127500Y-63200384D01*
X79127502Y-63200384D01*
X79176370Y-63190663D01*
X79225240Y-63180942D01*
X79308101Y-63125577D01*
X79363466Y-63042716D01*
X79381417Y-62952474D01*
X79382908Y-62944978D01*
X79382908Y-62944973D01*
X79364016Y-62850002D01*
X84922092Y-62850002D01*
X84941533Y-62947738D01*
X84941533Y-62947739D01*
X84941534Y-62947740D01*
X84996899Y-63030601D01*
X85079760Y-63085966D01*
X85112340Y-63092446D01*
X85177498Y-63105408D01*
X85177500Y-63105408D01*
X85177502Y-63105408D01*
X85226370Y-63095687D01*
X85275240Y-63085966D01*
X85358101Y-63030601D01*
X85413466Y-62947740D01*
X85432158Y-62853771D01*
X85432908Y-62850002D01*
X85432908Y-62849997D01*
X85413466Y-62752261D01*
X85413466Y-62752260D01*
X85358101Y-62669399D01*
X85275240Y-62614034D01*
X85275239Y-62614033D01*
X85275238Y-62614033D01*
X85177502Y-62594592D01*
X85177498Y-62594592D01*
X85079761Y-62614033D01*
X84996899Y-62669399D01*
X84941533Y-62752261D01*
X84922092Y-62849997D01*
X84922092Y-62850002D01*
X79364016Y-62850002D01*
X79363466Y-62847237D01*
X79363466Y-62847236D01*
X79308101Y-62764375D01*
X79225240Y-62709010D01*
X79225239Y-62709009D01*
X79225238Y-62709009D01*
X79127502Y-62689568D01*
X79127498Y-62689568D01*
X79029760Y-62709009D01*
X79029759Y-62709009D01*
X78946387Y-62764716D01*
X78879710Y-62785593D01*
X78812330Y-62767108D01*
X78808608Y-62764716D01*
X78791231Y-62753105D01*
X78725237Y-62709010D01*
X78725236Y-62709009D01*
X78725235Y-62709009D01*
X78627499Y-62689568D01*
X78627495Y-62689568D01*
X78529758Y-62709009D01*
X78446896Y-62764375D01*
X78391530Y-62847237D01*
X78372089Y-62944973D01*
X78372089Y-62944978D01*
X71178037Y-62944978D01*
X71160612Y-62918899D01*
X71077751Y-62863534D01*
X71077750Y-62863533D01*
X71077749Y-62863533D01*
X70990641Y-62846206D01*
X70928730Y-62813821D01*
X70894156Y-62753105D01*
X70893216Y-62700397D01*
X70908022Y-62625966D01*
X70913286Y-62599500D01*
X70913286Y-62599497D01*
X70893844Y-62501761D01*
X70893844Y-62501760D01*
X70838479Y-62418899D01*
X70755618Y-62363534D01*
X70755617Y-62363533D01*
X70755616Y-62363533D01*
X70657880Y-62344092D01*
X70657876Y-62344092D01*
X70560139Y-62363533D01*
X70541207Y-62376183D01*
X70477277Y-62418899D01*
X70477276Y-62418900D01*
X70467122Y-62425685D01*
X70466436Y-62424659D01*
X70416301Y-62452031D01*
X70346609Y-62447042D01*
X70321060Y-62433966D01*
X70255259Y-62390000D01*
X70243045Y-62381839D01*
X70243044Y-62381838D01*
X70243043Y-62381838D01*
X70145307Y-62362397D01*
X70145303Y-62362397D01*
X70047566Y-62381838D01*
X69964704Y-62437204D01*
X69909338Y-62520066D01*
X69889897Y-62617802D01*
X69889897Y-62617807D01*
X69182633Y-62617807D01*
X69213466Y-62571662D01*
X69223729Y-62520065D01*
X69232908Y-62473924D01*
X69232908Y-62473919D01*
X69213466Y-62376183D01*
X69213466Y-62376182D01*
X69158101Y-62293321D01*
X69075240Y-62237956D01*
X69075239Y-62237955D01*
X69075238Y-62237955D01*
X68977502Y-62218514D01*
X68977498Y-62218514D01*
X68879761Y-62237955D01*
X68796899Y-62293321D01*
X68741533Y-62376183D01*
X68722092Y-62473919D01*
X68722092Y-62473924D01*
X55654490Y-62473924D01*
X55638109Y-62449407D01*
X55638107Y-62449405D01*
X55638106Y-62449404D01*
X55629473Y-62440771D01*
X55630382Y-62439861D01*
X55593870Y-62396174D01*
X55585161Y-62326849D01*
X55615315Y-62263822D01*
X55638670Y-62243583D01*
X55658101Y-62230601D01*
X55713466Y-62147740D01*
X55732908Y-62050000D01*
X55732908Y-62049997D01*
X55713466Y-61952261D01*
X55713466Y-61952260D01*
X55658101Y-61869399D01*
X55575240Y-61814034D01*
X55575239Y-61814033D01*
X55575238Y-61814033D01*
X55477502Y-61794592D01*
X55477498Y-61794592D01*
X55379761Y-61814033D01*
X55296899Y-61869399D01*
X55241533Y-61952261D01*
X55222092Y-62049997D01*
X55222092Y-62050002D01*
X55241533Y-62147738D01*
X55241533Y-62147739D01*
X55241534Y-62147740D01*
X55296899Y-62230601D01*
X55296900Y-62230601D01*
X55296901Y-62230603D01*
X55305535Y-62239237D01*
X55304625Y-62240146D01*
X55341136Y-62283830D01*
X55349846Y-62353155D01*
X55319694Y-62416183D01*
X55296336Y-62436424D01*
X55276908Y-62449405D01*
X55221541Y-62532269D01*
X55202100Y-62630005D01*
X55202100Y-62630010D01*
X41868000Y-62630010D01*
X41868000Y-61485305D01*
X56808117Y-61485305D01*
X56827558Y-61583041D01*
X56827558Y-61583042D01*
X56827559Y-61583043D01*
X56882924Y-61665904D01*
X56965785Y-61721269D01*
X56965787Y-61721269D01*
X56965788Y-61721270D01*
X56977068Y-61725943D01*
X56975743Y-61729140D01*
X57019480Y-61752011D01*
X57054062Y-61812722D01*
X57055006Y-61865445D01*
X57042592Y-61927855D01*
X57042592Y-61927860D01*
X57062033Y-62025596D01*
X57062033Y-62025597D01*
X57062034Y-62025598D01*
X57117399Y-62108459D01*
X57200260Y-62163824D01*
X57232840Y-62170304D01*
X57297998Y-62183266D01*
X57298000Y-62183266D01*
X57298002Y-62183266D01*
X57346870Y-62173545D01*
X57395740Y-62163824D01*
X57478601Y-62108459D01*
X57517660Y-62050002D01*
X72822092Y-62050002D01*
X72841533Y-62147738D01*
X72841533Y-62147739D01*
X72841534Y-62147740D01*
X72896899Y-62230601D01*
X72979760Y-62285966D01*
X73011402Y-62292260D01*
X73077498Y-62305408D01*
X73077500Y-62305408D01*
X73077502Y-62305408D01*
X73143598Y-62292260D01*
X73175240Y-62285966D01*
X73258101Y-62230601D01*
X73313466Y-62147740D01*
X73332908Y-62050000D01*
X73332908Y-62049997D01*
X73313466Y-61952261D01*
X73313466Y-61952260D01*
X73311957Y-61950002D01*
X86322092Y-61950002D01*
X86341533Y-62047738D01*
X86341533Y-62047739D01*
X86341534Y-62047740D01*
X86396899Y-62130601D01*
X86479760Y-62185966D01*
X86512340Y-62192446D01*
X86577498Y-62205408D01*
X86577500Y-62205408D01*
X86577502Y-62205408D01*
X86626370Y-62195687D01*
X86675240Y-62185966D01*
X86758101Y-62130601D01*
X86813466Y-62047740D01*
X86823187Y-61998870D01*
X86832908Y-61950002D01*
X86832908Y-61949997D01*
X86813466Y-61852261D01*
X86813466Y-61852260D01*
X86758101Y-61769399D01*
X86675240Y-61714034D01*
X86675239Y-61714033D01*
X86675238Y-61714033D01*
X86577502Y-61694592D01*
X86577498Y-61694592D01*
X86479761Y-61714033D01*
X86396899Y-61769399D01*
X86341533Y-61852261D01*
X86322092Y-61949997D01*
X86322092Y-61950002D01*
X73311957Y-61950002D01*
X73258101Y-61869399D01*
X73175240Y-61814034D01*
X73175239Y-61814033D01*
X73175238Y-61814033D01*
X73077502Y-61794592D01*
X73077498Y-61794592D01*
X72979761Y-61814033D01*
X72896899Y-61869399D01*
X72841533Y-61952261D01*
X72822092Y-62049997D01*
X72822092Y-62050002D01*
X57517660Y-62050002D01*
X57533966Y-62025598D01*
X57549004Y-61949997D01*
X57553408Y-61927860D01*
X57553408Y-61927855D01*
X57533966Y-61830119D01*
X57533966Y-61830118D01*
X57478601Y-61747257D01*
X57395740Y-61691892D01*
X57395738Y-61691891D01*
X57395736Y-61691890D01*
X57387653Y-61688542D01*
X70122092Y-61688542D01*
X70141533Y-61786278D01*
X70141533Y-61786279D01*
X70141534Y-61786280D01*
X70196899Y-61869141D01*
X70279760Y-61924506D01*
X70312340Y-61930986D01*
X70377498Y-61943948D01*
X70377500Y-61943948D01*
X70377502Y-61943948D01*
X70426370Y-61934227D01*
X70475240Y-61924506D01*
X70558101Y-61869141D01*
X70613466Y-61786280D01*
X70626118Y-61722677D01*
X70632908Y-61688542D01*
X70632908Y-61688537D01*
X70625242Y-61650002D01*
X76222092Y-61650002D01*
X76241533Y-61747738D01*
X76241533Y-61747739D01*
X76241534Y-61747740D01*
X76296899Y-61830601D01*
X76379760Y-61885966D01*
X76412340Y-61892446D01*
X76477498Y-61905408D01*
X76477500Y-61905408D01*
X76477502Y-61905408D01*
X76526370Y-61895687D01*
X76575240Y-61885966D01*
X76658101Y-61830601D01*
X76713466Y-61747740D01*
X76726140Y-61684023D01*
X76732908Y-61650002D01*
X76732908Y-61649997D01*
X76713466Y-61552261D01*
X76713466Y-61552260D01*
X76711957Y-61550002D01*
X79622092Y-61550002D01*
X79641533Y-61647738D01*
X79641533Y-61647739D01*
X79641534Y-61647740D01*
X79696899Y-61730601D01*
X79779760Y-61785966D01*
X79812340Y-61792446D01*
X79877498Y-61805408D01*
X79877500Y-61805408D01*
X79877502Y-61805408D01*
X79931875Y-61794592D01*
X79975240Y-61785966D01*
X80058101Y-61730601D01*
X80113466Y-61647740D01*
X80126336Y-61583041D01*
X80132908Y-61550002D01*
X80132908Y-61549997D01*
X80113466Y-61452261D01*
X80113466Y-61452260D01*
X80111957Y-61450002D01*
X81722092Y-61450002D01*
X81741533Y-61547738D01*
X81741533Y-61547739D01*
X81741534Y-61547740D01*
X81796899Y-61630601D01*
X81879760Y-61685966D01*
X81909552Y-61691892D01*
X81977498Y-61705408D01*
X81977500Y-61705408D01*
X81977502Y-61705408D01*
X82045448Y-61691892D01*
X82075240Y-61685966D01*
X82158101Y-61630601D01*
X82213466Y-61547740D01*
X82225886Y-61485300D01*
X82232908Y-61450002D01*
X82232908Y-61449997D01*
X82213466Y-61352261D01*
X82213466Y-61352260D01*
X82158101Y-61269399D01*
X82075240Y-61214034D01*
X82075239Y-61214033D01*
X82075238Y-61214033D01*
X81977502Y-61194592D01*
X81977498Y-61194592D01*
X81879761Y-61214033D01*
X81796899Y-61269399D01*
X81741533Y-61352261D01*
X81722092Y-61449997D01*
X81722092Y-61450002D01*
X80111957Y-61450002D01*
X80058101Y-61369399D01*
X79975240Y-61314034D01*
X79975239Y-61314033D01*
X79975238Y-61314033D01*
X79877502Y-61294592D01*
X79877498Y-61294592D01*
X79779761Y-61314033D01*
X79696899Y-61369399D01*
X79641533Y-61452261D01*
X79622092Y-61549997D01*
X79622092Y-61550002D01*
X76711957Y-61550002D01*
X76658101Y-61469399D01*
X76575240Y-61414034D01*
X76575239Y-61414033D01*
X76575238Y-61414033D01*
X76477502Y-61394592D01*
X76477498Y-61394592D01*
X76379761Y-61414033D01*
X76296899Y-61469399D01*
X76241533Y-61552261D01*
X76222092Y-61649997D01*
X76222092Y-61650002D01*
X70625242Y-61650002D01*
X70613466Y-61590801D01*
X70613466Y-61590800D01*
X70558101Y-61507939D01*
X70475240Y-61452574D01*
X70475239Y-61452573D01*
X70475238Y-61452573D01*
X70377502Y-61433132D01*
X70377498Y-61433132D01*
X70279761Y-61452573D01*
X70196899Y-61507939D01*
X70141533Y-61590801D01*
X70122092Y-61688537D01*
X70122092Y-61688542D01*
X57387653Y-61688542D01*
X57384457Y-61687218D01*
X57385780Y-61684023D01*
X57342026Y-61661132D01*
X57307456Y-61600413D01*
X57306518Y-61547716D01*
X57318933Y-61485303D01*
X57317201Y-61476596D01*
X57323428Y-61407005D01*
X57366290Y-61351827D01*
X57414623Y-61330787D01*
X57460864Y-61321590D01*
X57543725Y-61266225D01*
X57599090Y-61183364D01*
X57616668Y-61094997D01*
X57618532Y-61085626D01*
X57618532Y-61085621D01*
X57599090Y-60987885D01*
X57599090Y-60987884D01*
X57543725Y-60905023D01*
X57460864Y-60849658D01*
X57460863Y-60849657D01*
X57460862Y-60849657D01*
X57363126Y-60830216D01*
X57363122Y-60830216D01*
X57265385Y-60849657D01*
X57182523Y-60905023D01*
X57127157Y-60987885D01*
X57107716Y-61085621D01*
X57107716Y-61085625D01*
X57109448Y-61094334D01*
X57103219Y-61163925D01*
X57060354Y-61219101D01*
X57012022Y-61240139D01*
X56965786Y-61249336D01*
X56882924Y-61304702D01*
X56827558Y-61387564D01*
X56808117Y-61485300D01*
X56808117Y-61485305D01*
X41868000Y-61485305D01*
X41868000Y-60621264D01*
X46050830Y-60621264D01*
X46070271Y-60719000D01*
X46070271Y-60719001D01*
X46070272Y-60719002D01*
X46125637Y-60801863D01*
X46208498Y-60857228D01*
X46241078Y-60863708D01*
X46306236Y-60876670D01*
X46306238Y-60876670D01*
X46306240Y-60876670D01*
X46355108Y-60866949D01*
X46403978Y-60857228D01*
X46415541Y-60849502D01*
X49309476Y-60849502D01*
X49328917Y-60947238D01*
X49328917Y-60947239D01*
X49328918Y-60947240D01*
X49384283Y-61030101D01*
X49467144Y-61085466D01*
X49498097Y-61091623D01*
X49564882Y-61104908D01*
X49564884Y-61104908D01*
X49564886Y-61104908D01*
X49618042Y-61094334D01*
X49662624Y-61085466D01*
X49745485Y-61030101D01*
X49800850Y-60947240D01*
X49811014Y-60896145D01*
X49820292Y-60849502D01*
X49820292Y-60849497D01*
X49800850Y-60751761D01*
X49800850Y-60751760D01*
X49790370Y-60736075D01*
X50486018Y-60736075D01*
X50505459Y-60833811D01*
X50505459Y-60833812D01*
X50505460Y-60833813D01*
X50560825Y-60916674D01*
X50643686Y-60972039D01*
X50676266Y-60978519D01*
X50741424Y-60991481D01*
X50741426Y-60991481D01*
X50741428Y-60991481D01*
X50790296Y-60981760D01*
X50839166Y-60972039D01*
X50922027Y-60916674D01*
X50977392Y-60833813D01*
X50990999Y-60765408D01*
X50996834Y-60736075D01*
X50996834Y-60736070D01*
X50980433Y-60653620D01*
X50977392Y-60638333D01*
X50922027Y-60555472D01*
X50839166Y-60500107D01*
X50839165Y-60500106D01*
X50839164Y-60500106D01*
X50741428Y-60480665D01*
X50741424Y-60480665D01*
X50643687Y-60500106D01*
X50560825Y-60555472D01*
X50505459Y-60638334D01*
X50486018Y-60736070D01*
X50486018Y-60736075D01*
X49790370Y-60736075D01*
X49745485Y-60668899D01*
X49662624Y-60613534D01*
X49662623Y-60613533D01*
X49662622Y-60613533D01*
X49564886Y-60594092D01*
X49564882Y-60594092D01*
X49467145Y-60613533D01*
X49384283Y-60668899D01*
X49328917Y-60751761D01*
X49309476Y-60849497D01*
X49309476Y-60849502D01*
X46415541Y-60849502D01*
X46486839Y-60801863D01*
X46542204Y-60719002D01*
X46555208Y-60653626D01*
X46561646Y-60621264D01*
X46561646Y-60621259D01*
X46542204Y-60523523D01*
X46542204Y-60523522D01*
X46533170Y-60510002D01*
X48582092Y-60510002D01*
X48601533Y-60607738D01*
X48601533Y-60607739D01*
X48601534Y-60607740D01*
X48656899Y-60690601D01*
X48739760Y-60745966D01*
X48768888Y-60751760D01*
X48837498Y-60765408D01*
X48837500Y-60765408D01*
X48837502Y-60765408D01*
X48886370Y-60755687D01*
X48935240Y-60745966D01*
X49018101Y-60690601D01*
X49073466Y-60607740D01*
X49084952Y-60549997D01*
X49092908Y-60510002D01*
X49092908Y-60509997D01*
X49073466Y-60412261D01*
X49073466Y-60412260D01*
X49018101Y-60329399D01*
X48935240Y-60274034D01*
X48935239Y-60274033D01*
X48935238Y-60274033D01*
X48837502Y-60254592D01*
X48837498Y-60254592D01*
X48739761Y-60274033D01*
X48656899Y-60329399D01*
X48601533Y-60412261D01*
X48582092Y-60509997D01*
X48582092Y-60510002D01*
X46533170Y-60510002D01*
X46486839Y-60440661D01*
X46403978Y-60385296D01*
X46403977Y-60385295D01*
X46403976Y-60385295D01*
X46306240Y-60365854D01*
X46306236Y-60365854D01*
X46208499Y-60385295D01*
X46125637Y-60440661D01*
X46070271Y-60523523D01*
X46050830Y-60621259D01*
X46050830Y-60621264D01*
X41868000Y-60621264D01*
X41868000Y-60528689D01*
X41887685Y-60461650D01*
X41903737Y-60441592D01*
X42416099Y-59922400D01*
X42477199Y-59888511D01*
X42504359Y-59885500D01*
X45594202Y-59885500D01*
X45596088Y-59885373D01*
X45614961Y-59884108D01*
X45647772Y-59879688D01*
X45708740Y-59857871D01*
X45768181Y-59821149D01*
X45769553Y-59820002D01*
X46722092Y-59820002D01*
X46741533Y-59917738D01*
X46741533Y-59917739D01*
X46741534Y-59917740D01*
X46796899Y-60000601D01*
X46879760Y-60055966D01*
X46911402Y-60062260D01*
X46977498Y-60075408D01*
X46977500Y-60075408D01*
X46977502Y-60075408D01*
X47043598Y-60062260D01*
X47075240Y-60055966D01*
X47158101Y-60000601D01*
X47213466Y-59917740D01*
X47231311Y-59828028D01*
X47232908Y-59820002D01*
X47232908Y-59819997D01*
X47215976Y-59734879D01*
X47213466Y-59722260D01*
X47158101Y-59639399D01*
X47075240Y-59584034D01*
X47075239Y-59584033D01*
X47075238Y-59584033D01*
X47027750Y-59574587D01*
X46995374Y-59557651D01*
X46982250Y-59563646D01*
X46879761Y-59584033D01*
X46796899Y-59639399D01*
X46741533Y-59722261D01*
X46722092Y-59819997D01*
X46722092Y-59820002D01*
X45769553Y-59820002D01*
X45802140Y-59792765D01*
X46503506Y-59011879D01*
X46562943Y-58975161D01*
X46595572Y-58970741D01*
X46654400Y-58970658D01*
X46721465Y-58990248D01*
X46767295Y-59042987D01*
X46776190Y-59070467D01*
X46796533Y-59172738D01*
X46796533Y-59172739D01*
X46796534Y-59172740D01*
X46851899Y-59255601D01*
X46934760Y-59310966D01*
X46982251Y-59320412D01*
X47014624Y-59337346D01*
X47027750Y-59331353D01*
X47056004Y-59325732D01*
X47130240Y-59310966D01*
X47213101Y-59255601D01*
X47268466Y-59172740D01*
X47287908Y-59075000D01*
X47287907Y-59074999D01*
X47289022Y-59069398D01*
X47321406Y-59007487D01*
X47382122Y-58972913D01*
X47410462Y-58969589D01*
X49164923Y-58967109D01*
X49181436Y-58966206D01*
X49207619Y-58963372D01*
X49265409Y-58945254D01*
X49326732Y-58911769D01*
X49362164Y-58885245D01*
X50080989Y-58166418D01*
X50142310Y-58132935D01*
X50169522Y-58130104D01*
X51250871Y-58137603D01*
X51317772Y-58157752D01*
X51337733Y-58173960D01*
X52133475Y-58970451D01*
X52916674Y-59754388D01*
X52928964Y-59766689D01*
X52962421Y-59828028D01*
X52957403Y-59897717D01*
X52944346Y-59923217D01*
X52891533Y-60002260D01*
X52872092Y-60099997D01*
X52872092Y-60100002D01*
X52892962Y-60204925D01*
X52886735Y-60274517D01*
X52843871Y-60329694D01*
X52777982Y-60352938D01*
X52709985Y-60336870D01*
X52702463Y-60332224D01*
X52675240Y-60314034D01*
X52675239Y-60314033D01*
X52675238Y-60314033D01*
X52577502Y-60294592D01*
X52577498Y-60294592D01*
X52479761Y-60314033D01*
X52396899Y-60369399D01*
X52341533Y-60452261D01*
X52322092Y-60549997D01*
X52322092Y-60550002D01*
X52341533Y-60647738D01*
X52341533Y-60647739D01*
X52341534Y-60647740D01*
X52396899Y-60730601D01*
X52479760Y-60785966D01*
X52512340Y-60792446D01*
X52577498Y-60805408D01*
X52577500Y-60805408D01*
X52577502Y-60805408D01*
X52626370Y-60795687D01*
X52675240Y-60785966D01*
X52758101Y-60730601D01*
X52813466Y-60647740D01*
X52819170Y-60619067D01*
X69024226Y-60619067D01*
X69043667Y-60716803D01*
X69043667Y-60716804D01*
X69043668Y-60716805D01*
X69099033Y-60799666D01*
X69181894Y-60855031D01*
X69215120Y-60861640D01*
X69254587Y-60869491D01*
X69316498Y-60901876D01*
X69351072Y-60962591D01*
X69354396Y-60991108D01*
X69354396Y-60993887D01*
X69373837Y-61091623D01*
X69373837Y-61091624D01*
X69373838Y-61091625D01*
X69429203Y-61174486D01*
X69512064Y-61229851D01*
X69544644Y-61236331D01*
X69609802Y-61249293D01*
X69609804Y-61249293D01*
X69609806Y-61249293D01*
X69658674Y-61239572D01*
X69707544Y-61229851D01*
X69790405Y-61174486D01*
X69843514Y-61095002D01*
X85922092Y-61095002D01*
X85941533Y-61192738D01*
X85941533Y-61192739D01*
X85941534Y-61192740D01*
X85996899Y-61275601D01*
X86079760Y-61330966D01*
X86112340Y-61337446D01*
X86177498Y-61350408D01*
X86177500Y-61350408D01*
X86177502Y-61350408D01*
X86226370Y-61340687D01*
X86275240Y-61330966D01*
X86358101Y-61275601D01*
X86413466Y-61192740D01*
X86432908Y-61095000D01*
X86432908Y-61094997D01*
X86413466Y-60997261D01*
X86413466Y-60997260D01*
X86358101Y-60914399D01*
X86275240Y-60859034D01*
X86275239Y-60859033D01*
X86275238Y-60859033D01*
X86177502Y-60839592D01*
X86177498Y-60839592D01*
X86079761Y-60859033D01*
X85996899Y-60914399D01*
X85941533Y-60997261D01*
X85922092Y-61094997D01*
X85922092Y-61095002D01*
X69843514Y-61095002D01*
X69845770Y-61091625D01*
X69858008Y-61030100D01*
X69865212Y-60993887D01*
X69865212Y-60993882D01*
X69845770Y-60896146D01*
X69845770Y-60896145D01*
X69790405Y-60813284D01*
X69707544Y-60757919D01*
X69707543Y-60757918D01*
X69707542Y-60757918D01*
X69634850Y-60743458D01*
X69572939Y-60711072D01*
X69538365Y-60650356D01*
X69535042Y-60621841D01*
X69535042Y-60619062D01*
X69515782Y-60522240D01*
X69515600Y-60521325D01*
X69460235Y-60438464D01*
X69377374Y-60383099D01*
X69377373Y-60383098D01*
X69377372Y-60383098D01*
X69279636Y-60363657D01*
X69279632Y-60363657D01*
X69181895Y-60383098D01*
X69099033Y-60438464D01*
X69043667Y-60521326D01*
X69024226Y-60619062D01*
X69024226Y-60619067D01*
X52819170Y-60619067D01*
X52832908Y-60550000D01*
X52832908Y-60549999D01*
X52812037Y-60445075D01*
X52818264Y-60375483D01*
X52861127Y-60320306D01*
X52927017Y-60297061D01*
X52995014Y-60313129D01*
X53002516Y-60317762D01*
X53029760Y-60335966D01*
X53029762Y-60335966D01*
X53029763Y-60335967D01*
X53127498Y-60355408D01*
X53127500Y-60355408D01*
X53127502Y-60355408D01*
X53176370Y-60345687D01*
X53225240Y-60335966D01*
X53308101Y-60280601D01*
X53308105Y-60280594D01*
X53316740Y-60271962D01*
X53319801Y-60275023D01*
X53355229Y-60245333D01*
X53424542Y-60236529D01*
X53440258Y-60240115D01*
X53495984Y-60256709D01*
X53539770Y-60263175D01*
X54147766Y-60265491D01*
X54152434Y-60265509D01*
X54152434Y-60265508D01*
X54152436Y-60265509D01*
X54185794Y-60262019D01*
X54237777Y-60250814D01*
X54237781Y-60250811D01*
X54237784Y-60250811D01*
X54306834Y-60216328D01*
X54306840Y-60216325D01*
X54306840Y-60216324D01*
X54306842Y-60216324D01*
X54359646Y-60170569D01*
X54365121Y-60165591D01*
X54368528Y-60160002D01*
X56772092Y-60160002D01*
X56791533Y-60257738D01*
X56791533Y-60257739D01*
X56791534Y-60257740D01*
X56846899Y-60340601D01*
X56929760Y-60395966D01*
X56962340Y-60402446D01*
X57027498Y-60415408D01*
X57027500Y-60415408D01*
X57027502Y-60415408D01*
X57076370Y-60405687D01*
X57125240Y-60395966D01*
X57208101Y-60340601D01*
X57220998Y-60321298D01*
X57274605Y-60276495D01*
X57343930Y-60267785D01*
X57392986Y-60287085D01*
X57467640Y-60336966D01*
X57500220Y-60343446D01*
X57565378Y-60356408D01*
X57565380Y-60356408D01*
X57565382Y-60356408D01*
X57614250Y-60346687D01*
X57663120Y-60336966D01*
X57745981Y-60281601D01*
X57801346Y-60198740D01*
X57813133Y-60139483D01*
X57820788Y-60101002D01*
X57820788Y-60100997D01*
X57801346Y-60003261D01*
X57801346Y-60003260D01*
X57792153Y-59989502D01*
X69902092Y-59989502D01*
X69921533Y-60087238D01*
X69921533Y-60087239D01*
X69921534Y-60087240D01*
X69976899Y-60170101D01*
X70059760Y-60225466D01*
X70085377Y-60230561D01*
X70143532Y-60242130D01*
X70205443Y-60274515D01*
X70240017Y-60335231D01*
X70240958Y-60387938D01*
X70233686Y-60424497D01*
X70233686Y-60424502D01*
X70253127Y-60522238D01*
X70253127Y-60522239D01*
X70253128Y-60522240D01*
X70308493Y-60605101D01*
X70391354Y-60660466D01*
X70423934Y-60666946D01*
X70489092Y-60679908D01*
X70489094Y-60679908D01*
X70489096Y-60679908D01*
X70544439Y-60668899D01*
X70586834Y-60660466D01*
X70669695Y-60605101D01*
X70725060Y-60522240D01*
X70738980Y-60452260D01*
X70744502Y-60424502D01*
X70744502Y-60424497D01*
X70726146Y-60332218D01*
X70725060Y-60326760D01*
X70669695Y-60243899D01*
X70603997Y-60200002D01*
X76172092Y-60200002D01*
X76191533Y-60297738D01*
X76191533Y-60297739D01*
X76191534Y-60297740D01*
X76246899Y-60380601D01*
X76329760Y-60435966D01*
X76353363Y-60440661D01*
X76427498Y-60455408D01*
X76427500Y-60455408D01*
X76427502Y-60455408D01*
X76479447Y-60445075D01*
X76525240Y-60435966D01*
X76608101Y-60380601D01*
X76663466Y-60297740D01*
X76675642Y-60236529D01*
X76682908Y-60200002D01*
X76682908Y-60199997D01*
X76663466Y-60102261D01*
X76663466Y-60102260D01*
X76608101Y-60019399D01*
X76525240Y-59964034D01*
X76525239Y-59964033D01*
X76525238Y-59964033D01*
X76427502Y-59944592D01*
X76427498Y-59944592D01*
X76329761Y-59964033D01*
X76246899Y-60019399D01*
X76191533Y-60102261D01*
X76172092Y-60199997D01*
X76172092Y-60200002D01*
X70603997Y-60200002D01*
X70586834Y-60188534D01*
X70586833Y-60188533D01*
X70586832Y-60188533D01*
X70503060Y-60171869D01*
X70441149Y-60139483D01*
X70406575Y-60078767D01*
X70405635Y-60026062D01*
X70412908Y-59989500D01*
X70412907Y-59989498D01*
X70415291Y-59977519D01*
X70418679Y-59978193D01*
X70432593Y-59930810D01*
X70485397Y-59885055D01*
X70554555Y-59875111D01*
X70561080Y-59876228D01*
X70622827Y-59888511D01*
X70657499Y-59895408D01*
X70657500Y-59895408D01*
X70657502Y-59895408D01*
X70721195Y-59882738D01*
X70755240Y-59875966D01*
X70838101Y-59820601D01*
X70881932Y-59755002D01*
X72697092Y-59755002D01*
X72716533Y-59852738D01*
X72716533Y-59852739D01*
X72716534Y-59852740D01*
X72771899Y-59935601D01*
X72854760Y-59990966D01*
X72887340Y-59997446D01*
X72952498Y-60010408D01*
X72952500Y-60010408D01*
X72952502Y-60010408D01*
X73002773Y-60000408D01*
X73050240Y-59990966D01*
X73133101Y-59935601D01*
X73188466Y-59852740D01*
X73205583Y-59766689D01*
X73207908Y-59755002D01*
X73207908Y-59754997D01*
X73199080Y-59710618D01*
X76776976Y-59710618D01*
X76796417Y-59808354D01*
X76796417Y-59808355D01*
X76796418Y-59808356D01*
X76851783Y-59891217D01*
X76934644Y-59946582D01*
X76967224Y-59953062D01*
X77032382Y-59966024D01*
X77032384Y-59966024D01*
X77032386Y-59966024D01*
X77081254Y-59956303D01*
X77130124Y-59946582D01*
X77212985Y-59891217D01*
X77268350Y-59808356D01*
X77278071Y-59759486D01*
X77280952Y-59745002D01*
X78927092Y-59745002D01*
X78946533Y-59842738D01*
X78946533Y-59842739D01*
X78946534Y-59842740D01*
X79001899Y-59925601D01*
X79084760Y-59980966D01*
X79110123Y-59986011D01*
X79182498Y-60000408D01*
X79182500Y-60000408D01*
X79182502Y-60000408D01*
X79237352Y-59989497D01*
X79280240Y-59980966D01*
X79363101Y-59925601D01*
X79418466Y-59842740D01*
X79435525Y-59756980D01*
X79437908Y-59745002D01*
X79437908Y-59744997D01*
X79418466Y-59647261D01*
X79418466Y-59647260D01*
X79363101Y-59564399D01*
X79280240Y-59509034D01*
X79280239Y-59509033D01*
X79280238Y-59509033D01*
X79182502Y-59489592D01*
X79182498Y-59489592D01*
X79084761Y-59509033D01*
X79001899Y-59564399D01*
X78946533Y-59647261D01*
X78927092Y-59744997D01*
X78927092Y-59745002D01*
X77280952Y-59745002D01*
X77287792Y-59710618D01*
X77287792Y-59710613D01*
X77268350Y-59612877D01*
X77268350Y-59612876D01*
X77212985Y-59530015D01*
X77130124Y-59474650D01*
X77130123Y-59474649D01*
X77130122Y-59474649D01*
X77032386Y-59455208D01*
X77032382Y-59455208D01*
X76934645Y-59474649D01*
X76851783Y-59530015D01*
X76796417Y-59612877D01*
X76776976Y-59710613D01*
X76776976Y-59710618D01*
X73199080Y-59710618D01*
X73188466Y-59657261D01*
X73188466Y-59657260D01*
X73133101Y-59574399D01*
X73050240Y-59519034D01*
X73050239Y-59519033D01*
X73050238Y-59519033D01*
X72952502Y-59499592D01*
X72952498Y-59499592D01*
X72854761Y-59519033D01*
X72771899Y-59574399D01*
X72716533Y-59657261D01*
X72697092Y-59754997D01*
X72697092Y-59755002D01*
X70881932Y-59755002D01*
X70893466Y-59737740D01*
X70909475Y-59657260D01*
X70912908Y-59640002D01*
X70912908Y-59639997D01*
X70897720Y-59563646D01*
X70893466Y-59542260D01*
X70838101Y-59459399D01*
X70755240Y-59404034D01*
X70755239Y-59404033D01*
X70755238Y-59404033D01*
X70657502Y-59384592D01*
X70657498Y-59384592D01*
X70559761Y-59404033D01*
X70476899Y-59459399D01*
X70421533Y-59542261D01*
X70399709Y-59651978D01*
X70396320Y-59651304D01*
X70382407Y-59698689D01*
X70329603Y-59744444D01*
X70260445Y-59754388D01*
X70253901Y-59753267D01*
X70157502Y-59734092D01*
X70157498Y-59734092D01*
X70059761Y-59753533D01*
X69976899Y-59808899D01*
X69921533Y-59891761D01*
X69902092Y-59989497D01*
X69902092Y-59989502D01*
X57792153Y-59989502D01*
X57745981Y-59920399D01*
X57744484Y-59919399D01*
X57725739Y-59906874D01*
X57680934Y-59853262D01*
X57672227Y-59783937D01*
X57691526Y-59734885D01*
X57709677Y-59707721D01*
X57719715Y-59657261D01*
X57729119Y-59609983D01*
X57729119Y-59609978D01*
X57714537Y-59536676D01*
X57711422Y-59521016D01*
X68968109Y-59521016D01*
X68987550Y-59618752D01*
X68987550Y-59618753D01*
X68987551Y-59618754D01*
X69042916Y-59701615D01*
X69125777Y-59756980D01*
X69158357Y-59763460D01*
X69223515Y-59776422D01*
X69223517Y-59776422D01*
X69223519Y-59776422D01*
X69272447Y-59766689D01*
X69321257Y-59756980D01*
X69404118Y-59701615D01*
X69459483Y-59618754D01*
X69471929Y-59556183D01*
X69478925Y-59521016D01*
X69478925Y-59521011D01*
X69464343Y-59447709D01*
X69459483Y-59423274D01*
X69404118Y-59340413D01*
X69321257Y-59285048D01*
X69321256Y-59285047D01*
X69321255Y-59285047D01*
X69223519Y-59265606D01*
X69223515Y-59265606D01*
X69125778Y-59285047D01*
X69042916Y-59340413D01*
X68987550Y-59423275D01*
X68968109Y-59521011D01*
X68968109Y-59521016D01*
X57711422Y-59521016D01*
X57709677Y-59512241D01*
X57654312Y-59429380D01*
X57571451Y-59374015D01*
X57571450Y-59374014D01*
X57571449Y-59374014D01*
X57473713Y-59354573D01*
X57473709Y-59354573D01*
X57375972Y-59374014D01*
X57293110Y-59429380D01*
X57237744Y-59512242D01*
X57218303Y-59609978D01*
X57218303Y-59609983D01*
X57237744Y-59707720D01*
X57237744Y-59707721D01*
X57255363Y-59734090D01*
X57276240Y-59800768D01*
X57257754Y-59868148D01*
X57205775Y-59914837D01*
X57136804Y-59926012D01*
X57128069Y-59924596D01*
X57027502Y-59904592D01*
X57027498Y-59904592D01*
X56929761Y-59924033D01*
X56846899Y-59979399D01*
X56791533Y-60062261D01*
X56772092Y-60159997D01*
X56772092Y-60160002D01*
X54368528Y-60160002D01*
X54407016Y-60096861D01*
X54426701Y-60029822D01*
X54433000Y-59986011D01*
X54433000Y-59811593D01*
X54772952Y-59811593D01*
X54792393Y-59909329D01*
X54792393Y-59909330D01*
X54792394Y-59909331D01*
X54847759Y-59992192D01*
X54930620Y-60047557D01*
X54963200Y-60054037D01*
X55028358Y-60066999D01*
X55028360Y-60066999D01*
X55028362Y-60066999D01*
X55077230Y-60057278D01*
X55126100Y-60047557D01*
X55208961Y-59992192D01*
X55264326Y-59909331D01*
X55277572Y-59842740D01*
X55283768Y-59811593D01*
X55283768Y-59811588D01*
X55264326Y-59713852D01*
X55264326Y-59713851D01*
X55208961Y-59630990D01*
X55126100Y-59575625D01*
X55126099Y-59575624D01*
X55126098Y-59575624D01*
X55028362Y-59556183D01*
X55028358Y-59556183D01*
X54930621Y-59575624D01*
X54847759Y-59630990D01*
X54792393Y-59713852D01*
X54772952Y-59811588D01*
X54772952Y-59811593D01*
X54433000Y-59811593D01*
X54433000Y-58527102D01*
X55252592Y-58527102D01*
X55272033Y-58624838D01*
X55272033Y-58624839D01*
X55272034Y-58624840D01*
X55327399Y-58707701D01*
X55410260Y-58763066D01*
X55442840Y-58769546D01*
X55507998Y-58782508D01*
X55508000Y-58782508D01*
X55508002Y-58782508D01*
X55556870Y-58772787D01*
X55605740Y-58763066D01*
X55688601Y-58707701D01*
X55743966Y-58624840D01*
X55760463Y-58541906D01*
X55763408Y-58527102D01*
X55763408Y-58527097D01*
X55745125Y-58435188D01*
X55743966Y-58429360D01*
X55688601Y-58346499D01*
X55605740Y-58291134D01*
X55605739Y-58291133D01*
X55605738Y-58291133D01*
X55508002Y-58271692D01*
X55507998Y-58271692D01*
X55410261Y-58291133D01*
X55327399Y-58346499D01*
X55272033Y-58429361D01*
X55252592Y-58527097D01*
X55252592Y-58527102D01*
X54433000Y-58527102D01*
X54433000Y-58281378D01*
X54452685Y-58214339D01*
X54468382Y-58194643D01*
X54596914Y-58063321D01*
X55913370Y-56718289D01*
X55974329Y-56684150D01*
X56001923Y-56681026D01*
X59524337Y-56679458D01*
X59591385Y-56699113D01*
X59637163Y-56751896D01*
X59647138Y-56821050D01*
X59627495Y-56872346D01*
X59624581Y-56876709D01*
X59617530Y-56887261D01*
X59598089Y-56984997D01*
X59598089Y-56985002D01*
X59617530Y-57082738D01*
X59617530Y-57082739D01*
X59617531Y-57082740D01*
X59672896Y-57165601D01*
X59755757Y-57220966D01*
X59770487Y-57223896D01*
X59852349Y-57240180D01*
X59853082Y-57240563D01*
X59854645Y-57240180D01*
X59900191Y-57231119D01*
X59951237Y-57220966D01*
X60034098Y-57165601D01*
X60034099Y-57165599D01*
X60034357Y-57165427D01*
X60101035Y-57144549D01*
X60168415Y-57163034D01*
X60172138Y-57165426D01*
X60172398Y-57165599D01*
X60172399Y-57165601D01*
X60255260Y-57220966D01*
X60269990Y-57223896D01*
X60351852Y-57240180D01*
X60352585Y-57240563D01*
X60354148Y-57240180D01*
X60399694Y-57231119D01*
X60450740Y-57220966D01*
X60533601Y-57165601D01*
X60588966Y-57082740D01*
X60607213Y-56991009D01*
X60608408Y-56985002D01*
X60608408Y-56984999D01*
X60589961Y-56892261D01*
X60589868Y-56891794D01*
X60596095Y-56822203D01*
X60638958Y-56767026D01*
X60687291Y-56745986D01*
X60739020Y-56735697D01*
X60821881Y-56680332D01*
X60821882Y-56680329D01*
X60823783Y-56679060D01*
X60890461Y-56658182D01*
X60927554Y-56663169D01*
X60959451Y-56672520D01*
X61003264Y-56678800D01*
X61003269Y-56678799D01*
X61004839Y-56679025D01*
X61068407Y-56708023D01*
X61106207Y-56766784D01*
X61108862Y-56825962D01*
X61102092Y-56859997D01*
X61102092Y-56860002D01*
X61121533Y-56957738D01*
X61121533Y-56957739D01*
X61121534Y-56957740D01*
X61176899Y-57040601D01*
X61259760Y-57095966D01*
X61291402Y-57102260D01*
X61357498Y-57115408D01*
X61357500Y-57115408D01*
X61357502Y-57115408D01*
X61423598Y-57102260D01*
X61455240Y-57095966D01*
X61468018Y-57087427D01*
X61534696Y-57066550D01*
X61602076Y-57085035D01*
X61640011Y-57121639D01*
X61669377Y-57165590D01*
X61669385Y-57165601D01*
X61752246Y-57220966D01*
X61766976Y-57223896D01*
X61848838Y-57240180D01*
X61849571Y-57240563D01*
X61851134Y-57240180D01*
X61896680Y-57231119D01*
X61947726Y-57220966D01*
X62030587Y-57165601D01*
X62030588Y-57165599D01*
X62030846Y-57165427D01*
X62097524Y-57144549D01*
X62164904Y-57163034D01*
X62168627Y-57165426D01*
X62168887Y-57165599D01*
X62168888Y-57165601D01*
X62251749Y-57220966D01*
X62266479Y-57223896D01*
X62348341Y-57240180D01*
X62349074Y-57240563D01*
X62350637Y-57240180D01*
X62396183Y-57231119D01*
X62447229Y-57220966D01*
X62530090Y-57165601D01*
X62585455Y-57082740D01*
X62592088Y-57049392D01*
X62624471Y-56987483D01*
X62685187Y-56952908D01*
X62754956Y-56956647D01*
X62782594Y-56970481D01*
X62808591Y-56987851D01*
X62806480Y-56991009D01*
X62843997Y-57021233D01*
X62866071Y-57087524D01*
X62863769Y-57116158D01*
X62847092Y-57200001D01*
X62847092Y-57200002D01*
X62866533Y-57297739D01*
X62871207Y-57309023D01*
X62868678Y-57310070D01*
X62884182Y-57359584D01*
X62865697Y-57426964D01*
X62813718Y-57473654D01*
X62760202Y-57485797D01*
X62374828Y-57485797D01*
X62351417Y-57478922D01*
X62335202Y-57485303D01*
X62324150Y-57485797D01*
X61875325Y-57485797D01*
X61851914Y-57478922D01*
X61835699Y-57485303D01*
X61824647Y-57485797D01*
X60378339Y-57485797D01*
X60354928Y-57478922D01*
X60338713Y-57485303D01*
X60327661Y-57485797D01*
X59878836Y-57485797D01*
X59855425Y-57478922D01*
X59839210Y-57485303D01*
X59828158Y-57485797D01*
X58753429Y-57485797D01*
X58627761Y-57510794D01*
X58627755Y-57510796D01*
X58509375Y-57559830D01*
X58509366Y-57559835D01*
X58402831Y-57631020D01*
X58402827Y-57631023D01*
X58312223Y-57721627D01*
X58306170Y-57730688D01*
X58252558Y-57775493D01*
X58203068Y-57785797D01*
X58115407Y-57785797D01*
X58096008Y-57784270D01*
X58078065Y-57781428D01*
X58060122Y-57784270D01*
X58040723Y-57785797D01*
X58031916Y-57785797D01*
X58011364Y-57791304D01*
X57998679Y-57794000D01*
X57968406Y-57798796D01*
X57968400Y-57798798D01*
X57963372Y-57801360D01*
X57950215Y-57806411D01*
X57950283Y-57806574D01*
X57942774Y-57809684D01*
X57913566Y-57826546D01*
X57907869Y-57829639D01*
X57869477Y-57849201D01*
X57869477Y-57849202D01*
X57790970Y-57927709D01*
X57790969Y-57927709D01*
X57771407Y-57966101D01*
X57768314Y-57971798D01*
X57751452Y-58001006D01*
X57748342Y-58008515D01*
X57748179Y-58008447D01*
X57743128Y-58021604D01*
X57740566Y-58026632D01*
X57740564Y-58026638D01*
X57735768Y-58056911D01*
X57733072Y-58069596D01*
X57727565Y-58090148D01*
X57727565Y-58098954D01*
X57726038Y-58118352D01*
X57723196Y-58136295D01*
X57723196Y-58136296D01*
X57726038Y-58154238D01*
X57727565Y-58173638D01*
X57727565Y-58182443D01*
X57733072Y-58202995D01*
X57735770Y-58215687D01*
X57739076Y-58236560D01*
X57742092Y-58255595D01*
X57739517Y-58256002D01*
X57741092Y-58311303D01*
X57705006Y-58371132D01*
X57645361Y-58401385D01*
X57579261Y-58414533D01*
X57496399Y-58469899D01*
X57441033Y-58552761D01*
X57421592Y-58650497D01*
X57421592Y-58650502D01*
X57441033Y-58748238D01*
X57441033Y-58748239D01*
X57441034Y-58748240D01*
X57496399Y-58831101D01*
X57579260Y-58886466D01*
X57611840Y-58892946D01*
X57676998Y-58905908D01*
X57677000Y-58905908D01*
X57677002Y-58905908D01*
X57725870Y-58896187D01*
X57774740Y-58886466D01*
X57857601Y-58831101D01*
X57912966Y-58748240D01*
X57925197Y-58686754D01*
X57932408Y-58650502D01*
X57932408Y-58650499D01*
X57929655Y-58636659D01*
X57935882Y-58567067D01*
X57978745Y-58511890D01*
X58044635Y-58488645D01*
X58070669Y-58489994D01*
X58078065Y-58491166D01*
X58096008Y-58488323D01*
X58115407Y-58486797D01*
X58203068Y-58486797D01*
X58270107Y-58506482D01*
X58306170Y-58541906D01*
X58312223Y-58550966D01*
X58402827Y-58641570D01*
X58402831Y-58641573D01*
X58509366Y-58712758D01*
X58509372Y-58712761D01*
X58509373Y-58712762D01*
X58627756Y-58761798D01*
X58627760Y-58761798D01*
X58627761Y-58761799D01*
X58753428Y-58786797D01*
X58753431Y-58786797D01*
X63361645Y-58786797D01*
X63446189Y-58769979D01*
X63487318Y-58761798D01*
X63605701Y-58712762D01*
X63609306Y-58710353D01*
X63616705Y-58705410D01*
X63616707Y-58705409D01*
X63698884Y-58650500D01*
X63712243Y-58641574D01*
X63846999Y-58506817D01*
X63908320Y-58473334D01*
X63934679Y-58470500D01*
X67561571Y-58470500D01*
X67646115Y-58453682D01*
X67687244Y-58445501D01*
X67805627Y-58396465D01*
X67912169Y-58325276D01*
X68002776Y-58234669D01*
X68073965Y-58128127D01*
X68073969Y-58128116D01*
X68075072Y-58126055D01*
X68075942Y-58125169D01*
X68077350Y-58123062D01*
X68077749Y-58123328D01*
X68124031Y-58076207D01*
X68184435Y-58060500D01*
X68420158Y-58060500D01*
X68439556Y-58062026D01*
X68457500Y-58064869D01*
X68475443Y-58062026D01*
X68494842Y-58060500D01*
X68503642Y-58060500D01*
X68503644Y-58060500D01*
X68524209Y-58054989D01*
X68536882Y-58052295D01*
X68567161Y-58047500D01*
X68572181Y-58044941D01*
X68585341Y-58039891D01*
X68585273Y-58039727D01*
X68592780Y-58036617D01*
X68592782Y-58036615D01*
X68592788Y-58036614D01*
X68622016Y-58019737D01*
X68627685Y-58016661D01*
X68666087Y-57997095D01*
X68744595Y-57918587D01*
X68764161Y-57880185D01*
X68767237Y-57874516D01*
X68784114Y-57845288D01*
X68784115Y-57845282D01*
X68784117Y-57845280D01*
X68787227Y-57837773D01*
X68787391Y-57837841D01*
X68792441Y-57824681D01*
X68795000Y-57819661D01*
X68799795Y-57789382D01*
X68802489Y-57776709D01*
X68808000Y-57756144D01*
X68808000Y-57747341D01*
X68809527Y-57727941D01*
X68812369Y-57709999D01*
X68812369Y-57709998D01*
X68809527Y-57692055D01*
X68808000Y-57672657D01*
X68808000Y-57663858D01*
X68808000Y-57663856D01*
X68802489Y-57643290D01*
X68799794Y-57630611D01*
X68795000Y-57600339D01*
X68792443Y-57595322D01*
X68787390Y-57582155D01*
X68787225Y-57582224D01*
X68784115Y-57574717D01*
X68784114Y-57574712D01*
X68775522Y-57559830D01*
X68767251Y-57545504D01*
X68764152Y-57539797D01*
X68744596Y-57501415D01*
X68744595Y-57501413D01*
X68666087Y-57422905D01*
X68666084Y-57422903D01*
X68666082Y-57422902D01*
X68627684Y-57403336D01*
X68621981Y-57400240D01*
X68592791Y-57383387D01*
X68585282Y-57380277D01*
X68585349Y-57380113D01*
X68572191Y-57375062D01*
X68567163Y-57372500D01*
X68567164Y-57372500D01*
X68536890Y-57367705D01*
X68524198Y-57365007D01*
X68503646Y-57359500D01*
X68503644Y-57359500D01*
X68494842Y-57359500D01*
X68475443Y-57357973D01*
X68457500Y-57355131D01*
X68439557Y-57357973D01*
X68420158Y-57359500D01*
X68008308Y-57359500D01*
X67941269Y-57339815D01*
X67920627Y-57323181D01*
X67912172Y-57314726D01*
X67912168Y-57314723D01*
X67805633Y-57243538D01*
X67805624Y-57243533D01*
X67687244Y-57194499D01*
X67687239Y-57194497D01*
X67611171Y-57179366D01*
X67549261Y-57146980D01*
X67514687Y-57086264D01*
X67513747Y-57033557D01*
X67522411Y-56990000D01*
X67522411Y-56989997D01*
X67502969Y-56892261D01*
X67502969Y-56892260D01*
X67487263Y-56868754D01*
X67466387Y-56802079D01*
X67484872Y-56734699D01*
X67536851Y-56688009D01*
X67590308Y-56675866D01*
X68301725Y-56675549D01*
X68368770Y-56695204D01*
X68389458Y-56711868D01*
X68758595Y-57081005D01*
X69779941Y-58102351D01*
X69782920Y-58105251D01*
X69782951Y-58105280D01*
X69782965Y-58105294D01*
X69787723Y-58109805D01*
X69787731Y-58109812D01*
X69787738Y-58109818D01*
X69827602Y-58137235D01*
X69890630Y-58167390D01*
X69897380Y-58170424D01*
X69977120Y-58181406D01*
X69977127Y-58181405D01*
X69985109Y-58181453D01*
X70052030Y-58201537D01*
X70087472Y-58236560D01*
X70115673Y-58278767D01*
X70116899Y-58280601D01*
X70162587Y-58311128D01*
X70207392Y-58364739D01*
X70217380Y-58423070D01*
X70216516Y-58435149D01*
X70216514Y-58435182D01*
X70216514Y-58435188D01*
X70216162Y-58442580D01*
X70235139Y-58520803D01*
X70235139Y-58520804D01*
X70235140Y-58520805D01*
X70268620Y-58582121D01*
X70268625Y-58582128D01*
X70295141Y-58617550D01*
X70295147Y-58617556D01*
X70295148Y-58617558D01*
X70411226Y-58733636D01*
X70411233Y-58733642D01*
X70411251Y-58733659D01*
X70423589Y-58744742D01*
X70423605Y-58744755D01*
X70423611Y-58744761D01*
X70444253Y-58761395D01*
X70498012Y-58789516D01*
X70498014Y-58789516D01*
X70498017Y-58789518D01*
X70544311Y-58803111D01*
X70565051Y-58809201D01*
X70608862Y-58815500D01*
X70608865Y-58815500D01*
X71506138Y-58815500D01*
X71522761Y-58814609D01*
X71549119Y-58811775D01*
X71607019Y-58793645D01*
X71668342Y-58760160D01*
X71703774Y-58733636D01*
X72105590Y-58331818D01*
X72166913Y-58298334D01*
X72193271Y-58295500D01*
X72520030Y-58295500D01*
X72520037Y-58295500D01*
X72529931Y-58294480D01*
X72598633Y-58307189D01*
X72645741Y-58348936D01*
X72656806Y-58365496D01*
X72666899Y-58380601D01*
X72749760Y-58435966D01*
X72782340Y-58442446D01*
X72847498Y-58455408D01*
X72847500Y-58455408D01*
X72847502Y-58455408D01*
X72902694Y-58444429D01*
X72945240Y-58435966D01*
X73028101Y-58380601D01*
X73049442Y-58348660D01*
X73103052Y-58303856D01*
X73170194Y-58294814D01*
X73174963Y-58295500D01*
X75972281Y-58295500D01*
X76039320Y-58315185D01*
X76085075Y-58367989D01*
X76093898Y-58395308D01*
X76095089Y-58401295D01*
X76150454Y-58484156D01*
X76233315Y-58539521D01*
X76265895Y-58546001D01*
X76331053Y-58558963D01*
X76331055Y-58558963D01*
X76331057Y-58558963D01*
X76379925Y-58549242D01*
X76428795Y-58539521D01*
X76511656Y-58484156D01*
X76543906Y-58435888D01*
X76597517Y-58391085D01*
X76666842Y-58382377D01*
X76729870Y-58412531D01*
X76734689Y-58417099D01*
X76767589Y-58449999D01*
X76937589Y-58619999D01*
X77341226Y-59023636D01*
X77341240Y-59023649D01*
X77341251Y-59023659D01*
X77353589Y-59034742D01*
X77353605Y-59034755D01*
X77353611Y-59034761D01*
X77374253Y-59051395D01*
X77428012Y-59079516D01*
X77428014Y-59079516D01*
X77428017Y-59079518D01*
X77474311Y-59093111D01*
X77495051Y-59099201D01*
X77538862Y-59105500D01*
X80341728Y-59105500D01*
X80408767Y-59125185D01*
X80429409Y-59141819D01*
X81941226Y-60653636D01*
X81941233Y-60653642D01*
X81941251Y-60653659D01*
X81953589Y-60664742D01*
X81953616Y-60664765D01*
X81972407Y-60679908D01*
X81974253Y-60681395D01*
X82028012Y-60709516D01*
X82028014Y-60709516D01*
X82028017Y-60709518D01*
X82060317Y-60719002D01*
X82095051Y-60729201D01*
X82138862Y-60735500D01*
X82138865Y-60735500D01*
X83616138Y-60735500D01*
X83632761Y-60734609D01*
X83659119Y-60731775D01*
X83717019Y-60713645D01*
X83778342Y-60680160D01*
X83813774Y-60653636D01*
X84682408Y-59785002D01*
X85267092Y-59785002D01*
X85286533Y-59882738D01*
X85286533Y-59882739D01*
X85286534Y-59882740D01*
X85341899Y-59965601D01*
X85424760Y-60020966D01*
X85450359Y-60026058D01*
X85522498Y-60040408D01*
X85522500Y-60040408D01*
X85522502Y-60040408D01*
X85571370Y-60030687D01*
X85620240Y-60020966D01*
X85703101Y-59965601D01*
X85758466Y-59882740D01*
X85769349Y-59828028D01*
X85777908Y-59785002D01*
X85777908Y-59784997D01*
X85758466Y-59687261D01*
X85758466Y-59687260D01*
X85703101Y-59604399D01*
X85620240Y-59549034D01*
X85620239Y-59549033D01*
X85620238Y-59549033D01*
X85522502Y-59529592D01*
X85522498Y-59529592D01*
X85424761Y-59549033D01*
X85341899Y-59604399D01*
X85286533Y-59687261D01*
X85267092Y-59784997D01*
X85267092Y-59785002D01*
X84682408Y-59785002D01*
X84961136Y-59506274D01*
X84972261Y-59493889D01*
X84988895Y-59473247D01*
X85017016Y-59419488D01*
X85036701Y-59352449D01*
X85043000Y-59308638D01*
X85043000Y-56181922D01*
X85042975Y-56179147D01*
X85042896Y-56174721D01*
X85034963Y-56128389D01*
X85034961Y-56128385D01*
X85034688Y-56127292D01*
X85034704Y-56126879D01*
X85034169Y-56123752D01*
X85034834Y-56123638D01*
X85036584Y-56080002D01*
X86362092Y-56080002D01*
X86381533Y-56177738D01*
X86381533Y-56177739D01*
X86381534Y-56177740D01*
X86436899Y-56260601D01*
X86519760Y-56315966D01*
X86552340Y-56322446D01*
X86617498Y-56335408D01*
X86617500Y-56335408D01*
X86617502Y-56335408D01*
X86666370Y-56325687D01*
X86715240Y-56315966D01*
X86798101Y-56260601D01*
X86853466Y-56177740D01*
X86872908Y-56080000D01*
X86872908Y-56079997D01*
X86853466Y-55982261D01*
X86853466Y-55982260D01*
X86798101Y-55899399D01*
X86768812Y-55879829D01*
X87182000Y-55879829D01*
X87220136Y-55971897D01*
X87290603Y-56042364D01*
X87382672Y-56080500D01*
X87382674Y-56080500D01*
X87482326Y-56080500D01*
X87482328Y-56080500D01*
X87574397Y-56042364D01*
X87644864Y-55971897D01*
X87683000Y-55879828D01*
X87683000Y-55780172D01*
X87644864Y-55688103D01*
X87574397Y-55617636D01*
X87562903Y-55612875D01*
X87482329Y-55579500D01*
X87482328Y-55579500D01*
X87382672Y-55579500D01*
X87382670Y-55579500D01*
X87290602Y-55617636D01*
X87220136Y-55688102D01*
X87182000Y-55780170D01*
X87182000Y-55879829D01*
X86768812Y-55879829D01*
X86715240Y-55844034D01*
X86715239Y-55844033D01*
X86715238Y-55844033D01*
X86617502Y-55824592D01*
X86617498Y-55824592D01*
X86519761Y-55844033D01*
X86436899Y-55899399D01*
X86381533Y-55982261D01*
X86362092Y-56079997D01*
X86362092Y-56080002D01*
X85036584Y-56080002D01*
X85037487Y-56057479D01*
X85067287Y-56009473D01*
X85104864Y-55971897D01*
X85143000Y-55879828D01*
X85143000Y-55780172D01*
X85104864Y-55688103D01*
X85066469Y-55649708D01*
X85032984Y-55588385D01*
X85035174Y-55527088D01*
X85035822Y-55524882D01*
X85036701Y-55521888D01*
X85043000Y-55478077D01*
X85043000Y-55454500D01*
X85062685Y-55387461D01*
X85115489Y-55341706D01*
X85167000Y-55330500D01*
X87933500Y-55330500D01*
X88000539Y-55350185D01*
G37*
%TD.AperFunction*%
%TD*%
%TA.AperFunction,Conductor*%
%TO.N,LINE*%
G36*
X50425039Y-55350185D02*
G01*
X50470794Y-55402989D01*
X50482000Y-55454500D01*
X50482000Y-55794227D01*
X50462315Y-55861266D01*
X50448131Y-55878866D01*
X50448149Y-55878882D01*
X50448304Y-55879015D01*
X50448298Y-55879021D01*
X50448369Y-55879086D01*
X50446720Y-55880869D01*
X50430867Y-55899431D01*
X50408072Y-55930807D01*
X50395313Y-55951628D01*
X50394134Y-55953735D01*
X50393657Y-55953468D01*
X50373339Y-55981391D01*
X50357440Y-55997291D01*
X50329500Y-56017607D01*
X50329773Y-56018094D01*
X50327666Y-56019273D01*
X50306846Y-56032032D01*
X50306841Y-56032035D01*
X50275460Y-56054835D01*
X50256917Y-56070672D01*
X50256905Y-56070683D01*
X50228070Y-56099519D01*
X50207590Y-56119999D01*
X49856266Y-56471324D01*
X49539409Y-56788181D01*
X49478086Y-56821666D01*
X49451728Y-56824500D01*
X45418863Y-56824500D01*
X45402242Y-56825391D01*
X45375889Y-56828223D01*
X45317989Y-56846351D01*
X45256670Y-56879831D01*
X45256660Y-56879838D01*
X45219023Y-56908010D01*
X45153557Y-56932424D01*
X45120527Y-56930356D01*
X45017002Y-56909764D01*
X45016998Y-56909764D01*
X44919261Y-56929205D01*
X44836399Y-56984571D01*
X44781033Y-57067433D01*
X44761592Y-57165169D01*
X44761592Y-57165174D01*
X44781980Y-57267672D01*
X44775753Y-57337263D01*
X44748044Y-57379544D01*
X44407590Y-57719999D01*
X43840599Y-58286988D01*
X43837509Y-58290169D01*
X43832651Y-58295312D01*
X43805199Y-58335465D01*
X43775270Y-58398601D01*
X43773667Y-58402720D01*
X43773455Y-58402637D01*
X43767863Y-58416411D01*
X43754549Y-58442543D01*
X43754548Y-58442545D01*
X43750751Y-58449998D01*
X43746136Y-58459054D01*
X43723334Y-58490436D01*
X43707435Y-58506335D01*
X43676051Y-58529138D01*
X43656008Y-58539351D01*
X43619110Y-58551340D01*
X43596900Y-58554857D01*
X43558106Y-58554857D01*
X43503138Y-58546151D01*
X43493598Y-58544254D01*
X43486233Y-58542486D01*
X43447904Y-58536414D01*
X43423584Y-58534500D01*
X43423579Y-58534500D01*
X43187000Y-58534500D01*
X43119961Y-58514815D01*
X43074206Y-58462011D01*
X43063000Y-58410500D01*
X43063000Y-56760458D01*
X43082685Y-56693419D01*
X43118108Y-56657357D01*
X43188101Y-56610590D01*
X43243466Y-56527729D01*
X43255582Y-56466819D01*
X43262908Y-56429991D01*
X43262908Y-56429986D01*
X43246997Y-56350000D01*
X43243466Y-56332249D01*
X43188101Y-56249388D01*
X43188100Y-56249387D01*
X43118109Y-56202621D01*
X43073304Y-56149009D01*
X43063000Y-56099519D01*
X43063000Y-55879829D01*
X44002000Y-55879829D01*
X44032613Y-55953735D01*
X44040136Y-55971897D01*
X44110603Y-56042364D01*
X44202672Y-56080500D01*
X44202674Y-56080500D01*
X44302326Y-56080500D01*
X44302328Y-56080500D01*
X44394397Y-56042364D01*
X44464864Y-55971897D01*
X44503000Y-55879829D01*
X46542000Y-55879829D01*
X46572613Y-55953735D01*
X46580136Y-55971897D01*
X46650603Y-56042364D01*
X46742672Y-56080500D01*
X46742674Y-56080500D01*
X46842326Y-56080500D01*
X46842328Y-56080500D01*
X46934397Y-56042364D01*
X47004864Y-55971897D01*
X47043000Y-55879829D01*
X49082000Y-55879829D01*
X49112613Y-55953735D01*
X49120136Y-55971897D01*
X49190603Y-56042364D01*
X49282672Y-56080500D01*
X49282674Y-56080500D01*
X49382326Y-56080500D01*
X49382328Y-56080500D01*
X49474397Y-56042364D01*
X49544864Y-55971897D01*
X49583000Y-55879828D01*
X49583000Y-55780172D01*
X49544864Y-55688103D01*
X49474397Y-55617636D01*
X49382329Y-55579500D01*
X49382328Y-55579500D01*
X49282672Y-55579500D01*
X49282670Y-55579500D01*
X49190602Y-55617636D01*
X49120136Y-55688102D01*
X49082000Y-55780170D01*
X49082000Y-55879829D01*
X47043000Y-55879829D01*
X47043000Y-55879828D01*
X47043000Y-55780172D01*
X47004864Y-55688103D01*
X46934397Y-55617636D01*
X46842329Y-55579500D01*
X46842328Y-55579500D01*
X46742672Y-55579500D01*
X46742670Y-55579500D01*
X46650602Y-55617636D01*
X46580136Y-55688102D01*
X46542000Y-55780170D01*
X46542000Y-55879829D01*
X44503000Y-55879829D01*
X44503000Y-55879828D01*
X44503000Y-55780172D01*
X44464864Y-55688103D01*
X44394397Y-55617636D01*
X44302329Y-55579500D01*
X44302328Y-55579500D01*
X44202672Y-55579500D01*
X44202670Y-55579500D01*
X44110602Y-55617636D01*
X44040136Y-55688102D01*
X44002000Y-55780170D01*
X44002000Y-55879829D01*
X43063000Y-55879829D01*
X43063000Y-55454500D01*
X43082685Y-55387461D01*
X43135489Y-55341706D01*
X43187000Y-55330500D01*
X50358000Y-55330500D01*
X50425039Y-55350185D01*
G37*
%TD.AperFunction*%
%TD*%
%TA.AperFunction,Conductor*%
%TO.N,+3V3*%
G36*
X54953177Y-64729685D02*
G01*
X54973819Y-64746319D01*
X57287500Y-67060000D01*
X57746138Y-67060000D01*
X57813177Y-67079685D01*
X57833819Y-67096319D01*
X57951181Y-67213681D01*
X57984666Y-67275004D01*
X57987500Y-67301362D01*
X57987500Y-67571497D01*
X57967815Y-67638536D01*
X57919796Y-67681981D01*
X57915330Y-67684256D01*
X57915323Y-67684261D01*
X57836825Y-67762759D01*
X57836820Y-67762766D01*
X57786414Y-67861693D01*
X57769047Y-67971349D01*
X57769047Y-67971354D01*
X57786414Y-68081010D01*
X57836820Y-68179937D01*
X57836825Y-68179944D01*
X57915323Y-68258442D01*
X57915326Y-68258444D01*
X57915329Y-68258447D01*
X58014255Y-68308852D01*
X58024475Y-68310470D01*
X58087610Y-68340396D01*
X58092763Y-68345263D01*
X58147500Y-68400000D01*
X59277500Y-68400000D01*
X59971181Y-67706319D01*
X60032504Y-67672834D01*
X60058862Y-67670000D01*
X66296138Y-67670000D01*
X66363177Y-67689685D01*
X66383819Y-67706319D01*
X67250081Y-68572581D01*
X67280331Y-68621945D01*
X67282998Y-68630156D01*
X67297153Y-68657936D01*
X67333405Y-68729085D01*
X67333407Y-68729087D01*
X67333409Y-68729090D01*
X67411907Y-68807588D01*
X67411909Y-68807589D01*
X67411913Y-68807593D01*
X67510839Y-68857998D01*
X67510841Y-68857998D01*
X67519049Y-68860665D01*
X67568417Y-68890917D01*
X67677500Y-69000000D01*
X68544233Y-69000000D01*
X68611272Y-69019685D01*
X68657027Y-69072489D01*
X68665850Y-69099809D01*
X68667425Y-69107727D01*
X68667425Y-69107728D01*
X68667426Y-69107729D01*
X68722791Y-69190590D01*
X68805652Y-69245955D01*
X68827360Y-69250273D01*
X68903390Y-69265397D01*
X68903392Y-69265397D01*
X68903394Y-69265397D01*
X68952262Y-69255676D01*
X69001132Y-69245955D01*
X69083993Y-69190590D01*
X69139358Y-69107729D01*
X69139993Y-69104535D01*
X69140934Y-69099809D01*
X69173319Y-69037898D01*
X69234035Y-69003323D01*
X69262551Y-69000000D01*
X69277500Y-69000000D01*
X70097212Y-68180288D01*
X70097459Y-67426391D01*
X70117166Y-67359361D01*
X70169984Y-67313624D01*
X70220326Y-67302440D01*
X70435476Y-67300475D01*
X70502692Y-67319547D01*
X70524289Y-67336789D01*
X70525989Y-67338489D01*
X70559474Y-67399812D01*
X70560782Y-67445567D01*
X70552082Y-67500500D01*
X70569449Y-67610156D01*
X70619855Y-67709083D01*
X70619860Y-67709090D01*
X70698358Y-67787588D01*
X70698361Y-67787590D01*
X70698364Y-67787593D01*
X70797290Y-67837998D01*
X70797292Y-67837999D01*
X70906949Y-67855367D01*
X70906951Y-67855367D01*
X70906952Y-67855367D01*
X70961879Y-67846667D01*
X71031173Y-67855621D01*
X71068959Y-67881459D01*
X72197500Y-69010000D01*
X73855115Y-69010000D01*
X73893432Y-69016069D01*
X73897837Y-69017500D01*
X74007498Y-69034869D01*
X74007500Y-69034869D01*
X74007502Y-69034869D01*
X74117162Y-69017500D01*
X74121568Y-69016069D01*
X74159885Y-69010000D01*
X76223500Y-69010000D01*
X76290539Y-69029685D01*
X76336294Y-69082489D01*
X76347500Y-69134000D01*
X76347500Y-69945500D01*
X76327815Y-70012539D01*
X76275011Y-70058294D01*
X76223500Y-70069500D01*
X73343915Y-70069500D01*
X73276876Y-70049815D01*
X73231121Y-69997011D01*
X73221177Y-69927853D01*
X73240813Y-69876610D01*
X73273466Y-69827740D01*
X73273466Y-69827739D01*
X73292908Y-69730002D01*
X73292908Y-69729997D01*
X73273466Y-69632261D01*
X73273466Y-69632260D01*
X73265160Y-69619829D01*
X74482000Y-69619829D01*
X74508994Y-69684997D01*
X74520136Y-69711897D01*
X74590603Y-69782364D01*
X74682672Y-69820500D01*
X74682674Y-69820500D01*
X74782326Y-69820500D01*
X74782328Y-69820500D01*
X74874397Y-69782364D01*
X74944864Y-69711897D01*
X74983000Y-69619828D01*
X74983000Y-69520172D01*
X74944864Y-69428103D01*
X74874397Y-69357636D01*
X74782329Y-69319500D01*
X74782328Y-69319500D01*
X74682672Y-69319500D01*
X74682670Y-69319500D01*
X74590602Y-69357636D01*
X74520136Y-69428102D01*
X74482000Y-69520170D01*
X74482000Y-69619829D01*
X73265160Y-69619829D01*
X73218101Y-69549399D01*
X73135240Y-69494034D01*
X73135239Y-69494033D01*
X73135238Y-69494033D01*
X73037502Y-69474592D01*
X73037498Y-69474592D01*
X72939761Y-69494033D01*
X72856899Y-69549399D01*
X72801533Y-69632261D01*
X72782092Y-69729997D01*
X72782092Y-69730002D01*
X72801533Y-69827739D01*
X72801533Y-69827740D01*
X72834187Y-69876610D01*
X72855065Y-69943287D01*
X72836580Y-70010667D01*
X72784601Y-70057357D01*
X72731085Y-70069500D01*
X58163564Y-70069500D01*
X58096525Y-70049815D01*
X58050770Y-69997011D01*
X58040826Y-69927853D01*
X58063845Y-69877446D01*
X58061315Y-69875756D01*
X58068099Y-69865601D01*
X58068101Y-69865601D01*
X58123466Y-69782740D01*
X58142908Y-69685000D01*
X58142908Y-69684997D01*
X58129945Y-69619829D01*
X59242000Y-69619829D01*
X59268994Y-69684997D01*
X59280136Y-69711897D01*
X59350603Y-69782364D01*
X59442672Y-69820500D01*
X59442674Y-69820500D01*
X59542326Y-69820500D01*
X59542328Y-69820500D01*
X59634397Y-69782364D01*
X59704864Y-69711897D01*
X59743000Y-69619828D01*
X59743000Y-69520172D01*
X59704864Y-69428103D01*
X59634397Y-69357636D01*
X59542329Y-69319500D01*
X59542328Y-69319500D01*
X59442672Y-69319500D01*
X59442670Y-69319500D01*
X59350602Y-69357636D01*
X59280136Y-69428102D01*
X59242000Y-69520170D01*
X59242000Y-69619829D01*
X58129945Y-69619829D01*
X58123466Y-69587261D01*
X58123466Y-69587260D01*
X58068101Y-69504399D01*
X57985240Y-69449034D01*
X57985239Y-69449033D01*
X57985238Y-69449033D01*
X57887502Y-69429592D01*
X57887498Y-69429592D01*
X57789761Y-69449033D01*
X57706899Y-69504399D01*
X57651533Y-69587261D01*
X57632092Y-69684997D01*
X57632092Y-69685002D01*
X57651533Y-69782738D01*
X57651533Y-69782739D01*
X57651534Y-69782740D01*
X57706899Y-69865601D01*
X57706900Y-69865601D01*
X57713685Y-69875756D01*
X57710187Y-69878092D01*
X57732602Y-69919142D01*
X57727618Y-69988834D01*
X57685746Y-70044767D01*
X57620282Y-70069184D01*
X57611436Y-70069500D01*
X53311500Y-70069500D01*
X53244461Y-70049815D01*
X53198706Y-69997011D01*
X53187500Y-69945500D01*
X53187500Y-69619829D01*
X54162000Y-69619829D01*
X54188994Y-69684997D01*
X54200136Y-69711897D01*
X54270603Y-69782364D01*
X54362672Y-69820500D01*
X54362674Y-69820500D01*
X54462326Y-69820500D01*
X54462328Y-69820500D01*
X54554397Y-69782364D01*
X54624864Y-69711897D01*
X54663000Y-69619829D01*
X56702000Y-69619829D01*
X56728994Y-69684997D01*
X56740136Y-69711897D01*
X56810603Y-69782364D01*
X56902672Y-69820500D01*
X56902674Y-69820500D01*
X57002326Y-69820500D01*
X57002328Y-69820500D01*
X57094397Y-69782364D01*
X57164864Y-69711897D01*
X57203000Y-69619828D01*
X57203000Y-69520172D01*
X57164864Y-69428103D01*
X57094397Y-69357636D01*
X57002329Y-69319500D01*
X57002328Y-69319500D01*
X56902672Y-69319500D01*
X56902670Y-69319500D01*
X56810602Y-69357636D01*
X56740136Y-69428102D01*
X56702000Y-69520170D01*
X56702000Y-69619829D01*
X54663000Y-69619829D01*
X54663000Y-69619828D01*
X54663000Y-69520172D01*
X54624864Y-69428103D01*
X54554397Y-69357636D01*
X54462329Y-69319500D01*
X54462328Y-69319500D01*
X54362672Y-69319500D01*
X54362670Y-69319500D01*
X54270602Y-69357636D01*
X54200136Y-69428102D01*
X54162000Y-69520170D01*
X54162000Y-69619829D01*
X53187500Y-69619829D01*
X53187500Y-68585319D01*
X59714665Y-68585319D01*
X59734106Y-68683055D01*
X59734106Y-68683056D01*
X59734107Y-68683057D01*
X59789472Y-68765918D01*
X59872333Y-68821283D01*
X59904913Y-68827763D01*
X59970071Y-68840725D01*
X59970073Y-68840725D01*
X59970074Y-68840725D01*
X59994837Y-68835799D01*
X60018620Y-68831068D01*
X60088211Y-68837295D01*
X60143389Y-68880157D01*
X60166634Y-68946047D01*
X60150567Y-69014044D01*
X60111703Y-69055787D01*
X60061399Y-69089398D01*
X60006033Y-69172261D01*
X59986592Y-69269997D01*
X59986592Y-69270002D01*
X60006033Y-69367738D01*
X60006033Y-69367739D01*
X60006034Y-69367740D01*
X60061399Y-69450601D01*
X60144260Y-69505966D01*
X60176840Y-69512446D01*
X60241998Y-69525408D01*
X60242000Y-69525408D01*
X60242002Y-69525408D01*
X60290870Y-69515687D01*
X60339740Y-69505966D01*
X60416799Y-69454477D01*
X60483475Y-69433600D01*
X60550855Y-69452085D01*
X60588790Y-69488689D01*
X60628272Y-69547779D01*
X60628273Y-69547780D01*
X60711134Y-69603145D01*
X60743714Y-69609625D01*
X60808872Y-69622587D01*
X60808874Y-69622587D01*
X60808876Y-69622587D01*
X60822741Y-69619829D01*
X61782000Y-69619829D01*
X61808994Y-69684997D01*
X61820136Y-69711897D01*
X61890603Y-69782364D01*
X61982672Y-69820500D01*
X61982674Y-69820500D01*
X62082326Y-69820500D01*
X62082328Y-69820500D01*
X62174397Y-69782364D01*
X62244864Y-69711897D01*
X62283000Y-69619829D01*
X64322000Y-69619829D01*
X64348994Y-69684997D01*
X64360136Y-69711897D01*
X64430603Y-69782364D01*
X64522672Y-69820500D01*
X64522674Y-69820500D01*
X64622326Y-69820500D01*
X64622328Y-69820500D01*
X64714397Y-69782364D01*
X64784864Y-69711897D01*
X64823000Y-69619829D01*
X66862000Y-69619829D01*
X66888994Y-69684997D01*
X66900136Y-69711897D01*
X66970603Y-69782364D01*
X67062672Y-69820500D01*
X67062674Y-69820500D01*
X67162326Y-69820500D01*
X67162328Y-69820500D01*
X67254397Y-69782364D01*
X67324864Y-69711897D01*
X67363000Y-69619829D01*
X69402000Y-69619829D01*
X69428994Y-69684997D01*
X69440136Y-69711897D01*
X69510603Y-69782364D01*
X69602672Y-69820500D01*
X69602674Y-69820500D01*
X69702326Y-69820500D01*
X69702328Y-69820500D01*
X69794397Y-69782364D01*
X69864864Y-69711897D01*
X69903000Y-69619828D01*
X69903000Y-69520172D01*
X69864864Y-69428103D01*
X69836763Y-69400002D01*
X70292092Y-69400002D01*
X70311533Y-69497738D01*
X70311533Y-69497739D01*
X70311534Y-69497740D01*
X70366899Y-69580601D01*
X70449760Y-69635966D01*
X70482340Y-69642446D01*
X70547498Y-69655408D01*
X70547500Y-69655408D01*
X70547502Y-69655408D01*
X70596370Y-69645687D01*
X70645240Y-69635966D01*
X70669391Y-69619829D01*
X71942000Y-69619829D01*
X71968994Y-69684997D01*
X71980136Y-69711897D01*
X72050603Y-69782364D01*
X72142672Y-69820500D01*
X72142674Y-69820500D01*
X72242326Y-69820500D01*
X72242328Y-69820500D01*
X72334397Y-69782364D01*
X72404864Y-69711897D01*
X72443000Y-69619828D01*
X72443000Y-69520172D01*
X72404864Y-69428103D01*
X72334397Y-69357636D01*
X72242329Y-69319500D01*
X72242328Y-69319500D01*
X72142672Y-69319500D01*
X72142670Y-69319500D01*
X72050602Y-69357636D01*
X71980136Y-69428102D01*
X71942000Y-69520170D01*
X71942000Y-69619829D01*
X70669391Y-69619829D01*
X70728101Y-69580601D01*
X70783466Y-69497740D01*
X70802908Y-69400000D01*
X70802907Y-69399999D01*
X70805082Y-69389070D01*
X70837466Y-69327159D01*
X70898182Y-69292585D01*
X70902493Y-69291647D01*
X70993367Y-69273571D01*
X71076228Y-69218206D01*
X71131593Y-69135345D01*
X71145897Y-69063434D01*
X71151035Y-69037607D01*
X71151035Y-69037602D01*
X71132274Y-68943288D01*
X71131593Y-68939865D01*
X71076228Y-68857004D01*
X70993367Y-68801639D01*
X70993366Y-68801638D01*
X70993365Y-68801638D01*
X70895629Y-68782197D01*
X70895625Y-68782197D01*
X70797888Y-68801638D01*
X70715026Y-68857004D01*
X70659660Y-68939866D01*
X70638044Y-69048535D01*
X70605659Y-69110446D01*
X70544943Y-69145020D01*
X70540619Y-69145960D01*
X70449761Y-69164033D01*
X70366899Y-69219399D01*
X70311533Y-69302261D01*
X70292092Y-69399997D01*
X70292092Y-69400002D01*
X69836763Y-69400002D01*
X69794397Y-69357636D01*
X69702329Y-69319500D01*
X69702328Y-69319500D01*
X69602672Y-69319500D01*
X69602670Y-69319500D01*
X69510602Y-69357636D01*
X69440136Y-69428102D01*
X69402000Y-69520170D01*
X69402000Y-69619829D01*
X67363000Y-69619829D01*
X67363000Y-69619828D01*
X67363000Y-69520172D01*
X67324864Y-69428103D01*
X67254397Y-69357636D01*
X67162329Y-69319500D01*
X67162328Y-69319500D01*
X67062672Y-69319500D01*
X67062670Y-69319500D01*
X66970602Y-69357636D01*
X66900136Y-69428102D01*
X66862000Y-69520170D01*
X66862000Y-69619829D01*
X64823000Y-69619829D01*
X64823000Y-69619828D01*
X64823000Y-69520172D01*
X64784864Y-69428103D01*
X64714397Y-69357636D01*
X64622329Y-69319500D01*
X64622328Y-69319500D01*
X64522672Y-69319500D01*
X64522670Y-69319500D01*
X64430602Y-69357636D01*
X64360136Y-69428102D01*
X64322000Y-69520170D01*
X64322000Y-69619829D01*
X62283000Y-69619829D01*
X62283000Y-69619828D01*
X62283000Y-69520172D01*
X62244864Y-69428103D01*
X62174397Y-69357636D01*
X62082329Y-69319500D01*
X62082328Y-69319500D01*
X61982672Y-69319500D01*
X61982670Y-69319500D01*
X61890602Y-69357636D01*
X61820136Y-69428102D01*
X61782000Y-69520170D01*
X61782000Y-69619829D01*
X60822741Y-69619829D01*
X60857744Y-69612866D01*
X60906614Y-69603145D01*
X60989475Y-69547780D01*
X61028662Y-69489131D01*
X61082272Y-69444328D01*
X61151597Y-69435619D01*
X61179219Y-69443463D01*
X61185255Y-69445963D01*
X61185260Y-69445966D01*
X61185264Y-69445966D01*
X61185265Y-69445967D01*
X61282998Y-69465408D01*
X61283000Y-69465408D01*
X61283002Y-69465408D01*
X61337948Y-69454478D01*
X61380740Y-69445966D01*
X61463601Y-69390601D01*
X61518966Y-69307740D01*
X61533828Y-69233026D01*
X61538408Y-69210002D01*
X61538408Y-69209997D01*
X61518966Y-69112261D01*
X61518966Y-69112260D01*
X61463601Y-69029399D01*
X61380740Y-68974034D01*
X61380739Y-68974033D01*
X61380738Y-68974033D01*
X61283002Y-68954592D01*
X61282998Y-68954592D01*
X61185261Y-68974033D01*
X61175475Y-68980572D01*
X61116938Y-69019685D01*
X61102398Y-69029400D01*
X61063212Y-69088046D01*
X61009599Y-69132851D01*
X60940274Y-69141558D01*
X60912658Y-69133716D01*
X60906613Y-69131212D01*
X60808876Y-69111771D01*
X60808872Y-69111771D01*
X60743672Y-69124740D01*
X60674081Y-69118513D01*
X60618903Y-69075650D01*
X60595659Y-69009760D01*
X60611727Y-68941763D01*
X60635962Y-68915734D01*
X60634120Y-68913892D01*
X60642753Y-68905258D01*
X60642752Y-68905258D01*
X60642756Y-68905256D01*
X60698121Y-68822395D01*
X60710751Y-68758899D01*
X60717563Y-68724657D01*
X60717563Y-68724652D01*
X60698766Y-68630156D01*
X60698121Y-68626915D01*
X60642756Y-68544054D01*
X60591793Y-68510002D01*
X61812092Y-68510002D01*
X61831533Y-68607738D01*
X61831533Y-68607739D01*
X61831534Y-68607740D01*
X61886899Y-68690601D01*
X61969760Y-68745966D01*
X62002340Y-68752446D01*
X62067498Y-68765408D01*
X62067500Y-68765408D01*
X62067502Y-68765408D01*
X62122146Y-68754538D01*
X62165240Y-68745966D01*
X62215406Y-68712446D01*
X62282081Y-68691569D01*
X62349461Y-68710053D01*
X62374063Y-68733792D01*
X62375185Y-68732671D01*
X62383818Y-68741304D01*
X62383819Y-68741305D01*
X62383821Y-68741307D01*
X62466682Y-68796672D01*
X62499262Y-68803152D01*
X62564420Y-68816114D01*
X62575732Y-68816114D01*
X62642771Y-68835799D01*
X62688526Y-68888603D01*
X62697349Y-68915922D01*
X62710209Y-68980572D01*
X62710209Y-68980573D01*
X62710210Y-68980574D01*
X62765575Y-69063435D01*
X62848436Y-69118800D01*
X62874015Y-69123888D01*
X62946174Y-69138242D01*
X62946176Y-69138242D01*
X62946178Y-69138242D01*
X63043913Y-69118801D01*
X63043913Y-69118800D01*
X63043916Y-69118800D01*
X63083635Y-69092260D01*
X63150309Y-69071384D01*
X63217689Y-69089868D01*
X63255625Y-69126473D01*
X63288360Y-69175465D01*
X63288361Y-69175466D01*
X63371222Y-69230831D01*
X63382257Y-69233026D01*
X63468960Y-69250273D01*
X63468962Y-69250273D01*
X63468964Y-69250273D01*
X63517832Y-69240552D01*
X63566702Y-69230831D01*
X63649563Y-69175466D01*
X63704928Y-69092605D01*
X63717444Y-69029685D01*
X63724370Y-68994867D01*
X63724370Y-68994862D01*
X63704929Y-68897127D01*
X63704928Y-68897125D01*
X63687454Y-68870973D01*
X63666578Y-68804300D01*
X63685062Y-68736920D01*
X63721664Y-68698986D01*
X63742943Y-68684769D01*
X63798308Y-68601908D01*
X63810739Y-68539415D01*
X63814501Y-68520502D01*
X64542092Y-68520502D01*
X64561533Y-68618238D01*
X64561533Y-68618239D01*
X64561534Y-68618240D01*
X64616899Y-68701101D01*
X64699760Y-68756466D01*
X64731035Y-68762687D01*
X64797498Y-68775908D01*
X64797500Y-68775908D01*
X64797502Y-68775908D01*
X64863965Y-68762687D01*
X64895240Y-68756466D01*
X64895245Y-68756462D01*
X64897293Y-68755615D01*
X64902142Y-68755093D01*
X64907218Y-68754084D01*
X64907308Y-68754538D01*
X64966763Y-68748145D01*
X65029243Y-68779418D01*
X65064896Y-68839506D01*
X65066367Y-68894365D01*
X65060170Y-68925523D01*
X65056940Y-68941763D01*
X65056636Y-68943289D01*
X65056636Y-68943290D01*
X65076077Y-69041026D01*
X65076077Y-69041027D01*
X65076078Y-69041028D01*
X65131443Y-69123889D01*
X65214304Y-69179254D01*
X65246884Y-69185734D01*
X65312042Y-69198696D01*
X65312044Y-69198696D01*
X65312046Y-69198696D01*
X65409775Y-69179256D01*
X65409775Y-69179255D01*
X65409784Y-69179254D01*
X65409790Y-69179249D01*
X65411362Y-69178599D01*
X65415102Y-69178196D01*
X65421762Y-69176872D01*
X65421880Y-69177467D01*
X65480831Y-69171126D01*
X65543312Y-69202396D01*
X65561924Y-69224264D01*
X65603658Y-69286725D01*
X65686519Y-69342090D01*
X65719099Y-69348570D01*
X65784257Y-69361532D01*
X65784259Y-69361532D01*
X65784261Y-69361532D01*
X65833129Y-69351811D01*
X65881999Y-69342090D01*
X65964860Y-69286725D01*
X66020225Y-69203864D01*
X66033278Y-69138242D01*
X66039667Y-69106126D01*
X66039667Y-69106121D01*
X66020225Y-69008385D01*
X66020225Y-69008384D01*
X65964860Y-68925523D01*
X65881999Y-68870158D01*
X65881998Y-68870157D01*
X65881997Y-68870157D01*
X65772834Y-68848443D01*
X65710923Y-68816058D01*
X65676349Y-68755342D01*
X65678242Y-68720018D01*
X66220405Y-68720018D01*
X66239846Y-68817754D01*
X66239846Y-68817755D01*
X66239847Y-68817756D01*
X66295212Y-68900617D01*
X66378073Y-68955982D01*
X66410653Y-68962462D01*
X66475811Y-68975424D01*
X66475813Y-68975424D01*
X66475815Y-68975424D01*
X66524683Y-68965703D01*
X66573553Y-68955982D01*
X66656414Y-68900617D01*
X66711779Y-68817756D01*
X66724244Y-68755093D01*
X66731221Y-68720018D01*
X66731221Y-68720013D01*
X66711779Y-68622277D01*
X66711779Y-68622276D01*
X66656414Y-68539415D01*
X66573553Y-68484050D01*
X66573552Y-68484049D01*
X66573551Y-68484049D01*
X66475815Y-68464608D01*
X66475811Y-68464608D01*
X66378074Y-68484049D01*
X66295212Y-68539415D01*
X66239846Y-68622277D01*
X66220405Y-68720013D01*
X66220405Y-68720018D01*
X65678242Y-68720018D01*
X65680088Y-68685573D01*
X65693923Y-68657936D01*
X65744731Y-68581895D01*
X65744731Y-68581894D01*
X65764173Y-68484157D01*
X65764173Y-68484152D01*
X65744731Y-68386416D01*
X65744731Y-68386415D01*
X65689366Y-68303554D01*
X65606505Y-68248189D01*
X65606504Y-68248188D01*
X65606503Y-68248188D01*
X65508767Y-68228747D01*
X65508763Y-68228747D01*
X65411026Y-68248188D01*
X65328164Y-68303554D01*
X65272797Y-68386417D01*
X65270015Y-68400403D01*
X65237628Y-68462313D01*
X65176911Y-68496885D01*
X65107142Y-68493142D01*
X65050471Y-68452274D01*
X65033835Y-68423652D01*
X65033466Y-68422761D01*
X65033466Y-68422760D01*
X64978101Y-68339899D01*
X64895240Y-68284534D01*
X64895239Y-68284533D01*
X64895238Y-68284533D01*
X64797502Y-68265092D01*
X64797498Y-68265092D01*
X64699761Y-68284533D01*
X64616899Y-68339899D01*
X64561533Y-68422761D01*
X64542092Y-68520497D01*
X64542092Y-68520502D01*
X63814501Y-68520502D01*
X63817750Y-68504170D01*
X63817750Y-68504165D01*
X63798308Y-68406429D01*
X63798308Y-68406428D01*
X63742943Y-68323567D01*
X63660082Y-68268202D01*
X63660081Y-68268201D01*
X63660080Y-68268201D01*
X63562344Y-68248760D01*
X63562340Y-68248760D01*
X63464603Y-68268201D01*
X63381741Y-68323567D01*
X63326375Y-68406429D01*
X63306934Y-68504165D01*
X63306934Y-68504170D01*
X63321582Y-68577811D01*
X63315355Y-68647402D01*
X63272492Y-68702580D01*
X63206602Y-68725824D01*
X63138605Y-68709756D01*
X63131075Y-68705105D01*
X63126777Y-68702233D01*
X63043916Y-68646868D01*
X63043915Y-68646867D01*
X63043914Y-68646867D01*
X62946178Y-68627426D01*
X62934866Y-68627426D01*
X62867827Y-68607741D01*
X62822072Y-68554937D01*
X62813249Y-68527618D01*
X62801637Y-68469247D01*
X62800388Y-68462966D01*
X62745023Y-68380105D01*
X62662162Y-68324740D01*
X62662161Y-68324739D01*
X62662160Y-68324739D01*
X62564424Y-68305298D01*
X62564420Y-68305298D01*
X62466682Y-68324739D01*
X62466681Y-68324739D01*
X62416515Y-68358259D01*
X62349838Y-68379136D01*
X62282458Y-68360651D01*
X62257859Y-68336912D01*
X62256737Y-68338035D01*
X62248103Y-68329401D01*
X62248101Y-68329400D01*
X62248101Y-68329399D01*
X62165240Y-68274034D01*
X62165239Y-68274033D01*
X62165238Y-68274033D01*
X62067502Y-68254592D01*
X62067498Y-68254592D01*
X61969761Y-68274033D01*
X61886899Y-68329399D01*
X61831533Y-68412261D01*
X61812092Y-68509997D01*
X61812092Y-68510002D01*
X60591793Y-68510002D01*
X60559895Y-68488689D01*
X60559894Y-68488688D01*
X60559893Y-68488688D01*
X60462157Y-68469247D01*
X60462153Y-68469247D01*
X60364415Y-68488688D01*
X60364413Y-68488688D01*
X60358533Y-68492618D01*
X60291855Y-68513492D01*
X60224476Y-68495004D01*
X60186546Y-68458402D01*
X60150675Y-68404717D01*
X60144219Y-68400403D01*
X60067813Y-68349351D01*
X60067812Y-68349350D01*
X60067811Y-68349350D01*
X59970075Y-68329909D01*
X59970071Y-68329909D01*
X59872334Y-68349350D01*
X59789472Y-68404716D01*
X59734106Y-68487578D01*
X59714665Y-68585314D01*
X59714665Y-68585319D01*
X53187500Y-68585319D01*
X53187500Y-67840502D01*
X54202092Y-67840502D01*
X54221533Y-67938238D01*
X54221533Y-67938239D01*
X54221534Y-67938240D01*
X54276899Y-68021101D01*
X54359760Y-68076466D01*
X54376476Y-68079791D01*
X54457498Y-68095908D01*
X54457500Y-68095908D01*
X54457502Y-68095908D01*
X54506370Y-68086187D01*
X54555240Y-68076466D01*
X54638101Y-68021101D01*
X54693466Y-67938240D01*
X54704761Y-67881459D01*
X54712908Y-67840502D01*
X54712908Y-67840497D01*
X54697662Y-67763856D01*
X54693466Y-67742760D01*
X54638101Y-67659899D01*
X54555240Y-67604534D01*
X54555239Y-67604533D01*
X54555238Y-67604533D01*
X54457502Y-67585092D01*
X54457498Y-67585092D01*
X54359761Y-67604533D01*
X54276899Y-67659899D01*
X54221533Y-67742761D01*
X54202092Y-67840497D01*
X54202092Y-67840502D01*
X53187500Y-67840502D01*
X53187500Y-65431362D01*
X53207185Y-65364323D01*
X53223819Y-65343681D01*
X53821181Y-64746319D01*
X53882504Y-64712834D01*
X53908862Y-64710000D01*
X54886138Y-64710000D01*
X54953177Y-64729685D01*
G37*
%TD.AperFunction*%
%TD*%
%TA.AperFunction,Conductor*%
%TO.N,+5V*%
G36*
X40478124Y-55350185D02*
G01*
X40523879Y-55402989D01*
X40533823Y-55472147D01*
X40514187Y-55523390D01*
X40481533Y-55572259D01*
X40481533Y-55572260D01*
X40462092Y-55669997D01*
X40462092Y-55670002D01*
X40481533Y-55767738D01*
X40481533Y-55767739D01*
X40481534Y-55767740D01*
X40493339Y-55785408D01*
X40520812Y-55826524D01*
X40541689Y-55893201D01*
X40523204Y-55960581D01*
X40486601Y-55998515D01*
X40450284Y-56022781D01*
X40394917Y-56105645D01*
X40375476Y-56203381D01*
X40375476Y-56203386D01*
X40394917Y-56301122D01*
X40394917Y-56301123D01*
X40394918Y-56301124D01*
X40442076Y-56371703D01*
X40462954Y-56438379D01*
X40444469Y-56505759D01*
X40392490Y-56552449D01*
X40338974Y-56564592D01*
X40327498Y-56564592D01*
X40229761Y-56584033D01*
X40146899Y-56639399D01*
X40091533Y-56722261D01*
X40072092Y-56819997D01*
X40072092Y-56820002D01*
X40091533Y-56917738D01*
X40091533Y-56917739D01*
X40091534Y-56917740D01*
X40146899Y-57000601D01*
X40229760Y-57055966D01*
X40260949Y-57062170D01*
X40327498Y-57075408D01*
X40327500Y-57075408D01*
X40327502Y-57075408D01*
X40376370Y-57065687D01*
X40425240Y-57055966D01*
X40508101Y-57000601D01*
X40563466Y-56917740D01*
X40577927Y-56845040D01*
X40582908Y-56820002D01*
X40582908Y-56819997D01*
X40565919Y-56734592D01*
X40563466Y-56722260D01*
X40516307Y-56651680D01*
X40495430Y-56585005D01*
X40513915Y-56517625D01*
X40565894Y-56470935D01*
X40619410Y-56458792D01*
X40630886Y-56458792D01*
X40686455Y-56447738D01*
X40728624Y-56439350D01*
X40811485Y-56383985D01*
X40866850Y-56301124D01*
X40880529Y-56232355D01*
X40886292Y-56203386D01*
X40886292Y-56203381D01*
X40866850Y-56105644D01*
X40866850Y-56105643D01*
X40827572Y-56046859D01*
X40806694Y-55980182D01*
X40825179Y-55912802D01*
X40856994Y-55879829D01*
X41462000Y-55879829D01*
X41475658Y-55912802D01*
X41500136Y-55971897D01*
X41570603Y-56042364D01*
X41662672Y-56080500D01*
X41662674Y-56080500D01*
X41762326Y-56080500D01*
X41762328Y-56080500D01*
X41854397Y-56042364D01*
X41924864Y-55971897D01*
X41963000Y-55879828D01*
X41963000Y-55780172D01*
X41924864Y-55688103D01*
X41854397Y-55617636D01*
X41822906Y-55604592D01*
X41762329Y-55579500D01*
X41762328Y-55579500D01*
X41662672Y-55579500D01*
X41662670Y-55579500D01*
X41570602Y-55617636D01*
X41500136Y-55688102D01*
X41462000Y-55780170D01*
X41462000Y-55879829D01*
X40856994Y-55879829D01*
X40861781Y-55874868D01*
X40898101Y-55850601D01*
X40953466Y-55767740D01*
X40970425Y-55682482D01*
X40972908Y-55670002D01*
X40972908Y-55669997D01*
X40953466Y-55572260D01*
X40953466Y-55572259D01*
X40920813Y-55523390D01*
X40899935Y-55456713D01*
X40918420Y-55389333D01*
X40970399Y-55342643D01*
X41023915Y-55330500D01*
X42783500Y-55330500D01*
X42850539Y-55350185D01*
X42896294Y-55402989D01*
X42907500Y-55454500D01*
X42907500Y-56129253D01*
X42887815Y-56196292D01*
X42852391Y-56232355D01*
X42826899Y-56249387D01*
X42771533Y-56332250D01*
X42752092Y-56429986D01*
X42752092Y-56429991D01*
X42771533Y-56527727D01*
X42771533Y-56527728D01*
X42771534Y-56527729D01*
X42826899Y-56610590D01*
X42852389Y-56627622D01*
X42897195Y-56681231D01*
X42907500Y-56730724D01*
X42907500Y-58690000D01*
X43423579Y-58690000D01*
X43461902Y-58696071D01*
X43467837Y-58697999D01*
X43467839Y-58698000D01*
X43504392Y-58703789D01*
X43577498Y-58715369D01*
X43577500Y-58715369D01*
X43577502Y-58715369D01*
X43687158Y-58698001D01*
X43687159Y-58698000D01*
X43687161Y-58698000D01*
X43786087Y-58647595D01*
X43797680Y-58636002D01*
X44759092Y-58636002D01*
X44778533Y-58733738D01*
X44778533Y-58733739D01*
X44778534Y-58733740D01*
X44833899Y-58816601D01*
X44916760Y-58871966D01*
X44934064Y-58875408D01*
X45014498Y-58891408D01*
X45014500Y-58891408D01*
X45014502Y-58891408D01*
X45063370Y-58881687D01*
X45112240Y-58871966D01*
X45195101Y-58816601D01*
X45250466Y-58733740D01*
X45259471Y-58688465D01*
X45291855Y-58626558D01*
X45352570Y-58591983D01*
X45405278Y-58591042D01*
X45449990Y-58599935D01*
X45477499Y-58605408D01*
X45477500Y-58605408D01*
X45477502Y-58605408D01*
X45526370Y-58595687D01*
X45575240Y-58585966D01*
X45658101Y-58530601D01*
X45713466Y-58447740D01*
X45727619Y-58376588D01*
X45732908Y-58350002D01*
X45732908Y-58349997D01*
X45713466Y-58252261D01*
X45713466Y-58252260D01*
X45658101Y-58169399D01*
X45575240Y-58114034D01*
X45575239Y-58114033D01*
X45575238Y-58114033D01*
X45477502Y-58094592D01*
X45477498Y-58094592D01*
X45379761Y-58114033D01*
X45296899Y-58169399D01*
X45241533Y-58252261D01*
X45232528Y-58297532D01*
X45200143Y-58359443D01*
X45139427Y-58394017D01*
X45086720Y-58394957D01*
X45014502Y-58380592D01*
X45014498Y-58380592D01*
X44916761Y-58400033D01*
X44833899Y-58455399D01*
X44778533Y-58538261D01*
X44759092Y-58635997D01*
X44759092Y-58636002D01*
X43797680Y-58636002D01*
X43864595Y-58569087D01*
X43915000Y-58470161D01*
X43915784Y-58465207D01*
X43945711Y-58402073D01*
X43950542Y-58396957D01*
X44627497Y-57720002D01*
X46786594Y-57720002D01*
X46806035Y-57817738D01*
X46806035Y-57817739D01*
X46806036Y-57817740D01*
X46861401Y-57900601D01*
X46944262Y-57955966D01*
X46969680Y-57961022D01*
X47042000Y-57975408D01*
X47042002Y-57975408D01*
X47042004Y-57975408D01*
X47099187Y-57964033D01*
X47139742Y-57955966D01*
X47222603Y-57900601D01*
X47277968Y-57817740D01*
X47287689Y-57768870D01*
X47297410Y-57720002D01*
X47297410Y-57719997D01*
X47277968Y-57622261D01*
X47277968Y-57622260D01*
X47222603Y-57539399D01*
X47139742Y-57484034D01*
X47139741Y-57484033D01*
X47139740Y-57484033D01*
X47042004Y-57464592D01*
X47042000Y-57464592D01*
X46944263Y-57484033D01*
X46861401Y-57539399D01*
X46806035Y-57622261D01*
X46786594Y-57719997D01*
X46786594Y-57720002D01*
X44627497Y-57720002D01*
X44895001Y-57452498D01*
X44956320Y-57419016D01*
X45006870Y-57418565D01*
X45017000Y-57420580D01*
X45017000Y-57420579D01*
X45017001Y-57420580D01*
X45017002Y-57420580D01*
X45065870Y-57410859D01*
X45114740Y-57401138D01*
X45197601Y-57345773D01*
X45252966Y-57262912D01*
X45265588Y-57199458D01*
X45272408Y-57165174D01*
X45272408Y-57165172D01*
X45270393Y-57155043D01*
X45276619Y-57085454D01*
X45304328Y-57043171D01*
X45331185Y-57016315D01*
X45392509Y-56982833D01*
X45418863Y-56980000D01*
X49567500Y-56980000D01*
X50366866Y-56180633D01*
X50398244Y-56157836D01*
X50436087Y-56138555D01*
X50454640Y-56120002D01*
X73392092Y-56120002D01*
X73411533Y-56217738D01*
X73411533Y-56217739D01*
X73411534Y-56217740D01*
X73466899Y-56300601D01*
X73549760Y-56355966D01*
X73582340Y-56362446D01*
X73647498Y-56375408D01*
X73647500Y-56375408D01*
X73647502Y-56375408D01*
X73696370Y-56365687D01*
X73745240Y-56355966D01*
X73828101Y-56300601D01*
X73883466Y-56217740D01*
X73899218Y-56138552D01*
X73902908Y-56120002D01*
X73902908Y-56119997D01*
X73883570Y-56022783D01*
X73883466Y-56022260D01*
X73828101Y-55939399D01*
X73745240Y-55884034D01*
X73745239Y-55884033D01*
X73745238Y-55884033D01*
X73724103Y-55879829D01*
X74482000Y-55879829D01*
X74495658Y-55912802D01*
X74520136Y-55971897D01*
X74590603Y-56042364D01*
X74682672Y-56080500D01*
X74682674Y-56080500D01*
X74782326Y-56080500D01*
X74782328Y-56080500D01*
X74874397Y-56042364D01*
X74944864Y-55971897D01*
X74983000Y-55879829D01*
X77022000Y-55879829D01*
X77035658Y-55912802D01*
X77060136Y-55971897D01*
X77130603Y-56042364D01*
X77222672Y-56080500D01*
X77222674Y-56080500D01*
X77322326Y-56080500D01*
X77322328Y-56080500D01*
X77414397Y-56042364D01*
X77484864Y-55971897D01*
X77523000Y-55879828D01*
X77523000Y-55780172D01*
X77484864Y-55688103D01*
X77414397Y-55617636D01*
X77382906Y-55604592D01*
X77322329Y-55579500D01*
X77322328Y-55579500D01*
X77222672Y-55579500D01*
X77222670Y-55579500D01*
X77130602Y-55617636D01*
X77060136Y-55688102D01*
X77022000Y-55780170D01*
X77022000Y-55879829D01*
X74983000Y-55879829D01*
X74983000Y-55879828D01*
X74983000Y-55780172D01*
X74944864Y-55688103D01*
X74874397Y-55617636D01*
X74842906Y-55604592D01*
X74782329Y-55579500D01*
X74782328Y-55579500D01*
X74682672Y-55579500D01*
X74682670Y-55579500D01*
X74590602Y-55617636D01*
X74520136Y-55688102D01*
X74482000Y-55780170D01*
X74482000Y-55879829D01*
X73724103Y-55879829D01*
X73647502Y-55864592D01*
X73647498Y-55864592D01*
X73549761Y-55884033D01*
X73466899Y-55939399D01*
X73411533Y-56022261D01*
X73392092Y-56119997D01*
X73392092Y-56120002D01*
X50454640Y-56120002D01*
X50514595Y-56060047D01*
X50533876Y-56022205D01*
X50556675Y-55990824D01*
X50637500Y-55910000D01*
X50637500Y-55879829D01*
X51622000Y-55879829D01*
X51635658Y-55912802D01*
X51660136Y-55971897D01*
X51730603Y-56042364D01*
X51822672Y-56080500D01*
X51822674Y-56080500D01*
X51922326Y-56080500D01*
X51922328Y-56080500D01*
X52014397Y-56042364D01*
X52084864Y-55971897D01*
X52123000Y-55879829D01*
X54162000Y-55879829D01*
X54175658Y-55912802D01*
X54200136Y-55971897D01*
X54270603Y-56042364D01*
X54362672Y-56080500D01*
X54362674Y-56080500D01*
X54462326Y-56080500D01*
X54462328Y-56080500D01*
X54554397Y-56042364D01*
X54624864Y-55971897D01*
X54663000Y-55879829D01*
X56702000Y-55879829D01*
X56715658Y-55912802D01*
X56740136Y-55971897D01*
X56810603Y-56042364D01*
X56902672Y-56080500D01*
X56902674Y-56080500D01*
X57002326Y-56080500D01*
X57002328Y-56080500D01*
X57094397Y-56042364D01*
X57164864Y-55971897D01*
X57203000Y-55879829D01*
X59242000Y-55879829D01*
X59255658Y-55912802D01*
X59280136Y-55971897D01*
X59350603Y-56042364D01*
X59442672Y-56080500D01*
X59442674Y-56080500D01*
X59542326Y-56080500D01*
X59542328Y-56080500D01*
X59634397Y-56042364D01*
X59704864Y-55971897D01*
X59743000Y-55879829D01*
X61782000Y-55879829D01*
X61795658Y-55912802D01*
X61820136Y-55971897D01*
X61890603Y-56042364D01*
X61982672Y-56080500D01*
X61982674Y-56080500D01*
X62082326Y-56080500D01*
X62082328Y-56080500D01*
X62174397Y-56042364D01*
X62244864Y-55971897D01*
X62283000Y-55879829D01*
X64322000Y-55879829D01*
X64335658Y-55912802D01*
X64360136Y-55971897D01*
X64430603Y-56042364D01*
X64522672Y-56080500D01*
X64522674Y-56080500D01*
X64622326Y-56080500D01*
X64622328Y-56080500D01*
X64714397Y-56042364D01*
X64784864Y-55971897D01*
X64823000Y-55879829D01*
X66862000Y-55879829D01*
X66875658Y-55912802D01*
X66900136Y-55971897D01*
X66970603Y-56042364D01*
X67062672Y-56080500D01*
X67062674Y-56080500D01*
X67162326Y-56080500D01*
X67162328Y-56080500D01*
X67254397Y-56042364D01*
X67324864Y-55971897D01*
X67363000Y-55879829D01*
X69402000Y-55879829D01*
X69415658Y-55912802D01*
X69440136Y-55971897D01*
X69510603Y-56042364D01*
X69602672Y-56080500D01*
X69602674Y-56080500D01*
X69702326Y-56080500D01*
X69702328Y-56080500D01*
X69794397Y-56042364D01*
X69864864Y-55971897D01*
X69903000Y-55879829D01*
X71942000Y-55879829D01*
X71955658Y-55912802D01*
X71980136Y-55971897D01*
X72050603Y-56042364D01*
X72142672Y-56080500D01*
X72142674Y-56080500D01*
X72242326Y-56080500D01*
X72242328Y-56080500D01*
X72334397Y-56042364D01*
X72404864Y-55971897D01*
X72443000Y-55879828D01*
X72443000Y-55780172D01*
X72404864Y-55688103D01*
X72334397Y-55617636D01*
X72302906Y-55604592D01*
X72242329Y-55579500D01*
X72242328Y-55579500D01*
X72142672Y-55579500D01*
X72142670Y-55579500D01*
X72050602Y-55617636D01*
X71980136Y-55688102D01*
X71942000Y-55780170D01*
X71942000Y-55879829D01*
X69903000Y-55879829D01*
X69903000Y-55879828D01*
X69903000Y-55780172D01*
X69864864Y-55688103D01*
X69794397Y-55617636D01*
X69762906Y-55604592D01*
X69702329Y-55579500D01*
X69702328Y-55579500D01*
X69602672Y-55579500D01*
X69602670Y-55579500D01*
X69510602Y-55617636D01*
X69440136Y-55688102D01*
X69402000Y-55780170D01*
X69402000Y-55879829D01*
X67363000Y-55879829D01*
X67363000Y-55879828D01*
X67363000Y-55780172D01*
X67324864Y-55688103D01*
X67254397Y-55617636D01*
X67222906Y-55604592D01*
X67162329Y-55579500D01*
X67162328Y-55579500D01*
X67062672Y-55579500D01*
X67062670Y-55579500D01*
X66970602Y-55617636D01*
X66900136Y-55688102D01*
X66862000Y-55780170D01*
X66862000Y-55879829D01*
X64823000Y-55879829D01*
X64823000Y-55879828D01*
X64823000Y-55780172D01*
X64784864Y-55688103D01*
X64714397Y-55617636D01*
X64682906Y-55604592D01*
X64622329Y-55579500D01*
X64622328Y-55579500D01*
X64522672Y-55579500D01*
X64522670Y-55579500D01*
X64430602Y-55617636D01*
X64360136Y-55688102D01*
X64322000Y-55780170D01*
X64322000Y-55879829D01*
X62283000Y-55879829D01*
X62283000Y-55879828D01*
X62283000Y-55780172D01*
X62244864Y-55688103D01*
X62174397Y-55617636D01*
X62142906Y-55604592D01*
X62082329Y-55579500D01*
X62082328Y-55579500D01*
X61982672Y-55579500D01*
X61982670Y-55579500D01*
X61890602Y-55617636D01*
X61820136Y-55688102D01*
X61782000Y-55780170D01*
X61782000Y-55879829D01*
X59743000Y-55879829D01*
X59743000Y-55879828D01*
X59743000Y-55780172D01*
X59704864Y-55688103D01*
X59634397Y-55617636D01*
X59602906Y-55604592D01*
X59542329Y-55579500D01*
X59542328Y-55579500D01*
X59442672Y-55579500D01*
X59442670Y-55579500D01*
X59350602Y-55617636D01*
X59280136Y-55688102D01*
X59242000Y-55780170D01*
X59242000Y-55879829D01*
X57203000Y-55879829D01*
X57203000Y-55879828D01*
X57203000Y-55780172D01*
X57164864Y-55688103D01*
X57094397Y-55617636D01*
X57062906Y-55604592D01*
X57002329Y-55579500D01*
X57002328Y-55579500D01*
X56902672Y-55579500D01*
X56902670Y-55579500D01*
X56810602Y-55617636D01*
X56740136Y-55688102D01*
X56702000Y-55780170D01*
X56702000Y-55879829D01*
X54663000Y-55879829D01*
X54663000Y-55879828D01*
X54663000Y-55780172D01*
X54624864Y-55688103D01*
X54554397Y-55617636D01*
X54522906Y-55604592D01*
X54462329Y-55579500D01*
X54462328Y-55579500D01*
X54362672Y-55579500D01*
X54362670Y-55579500D01*
X54270602Y-55617636D01*
X54200136Y-55688102D01*
X54162000Y-55780170D01*
X54162000Y-55879829D01*
X52123000Y-55879829D01*
X52123000Y-55879828D01*
X52123000Y-55780172D01*
X52084864Y-55688103D01*
X52014397Y-55617636D01*
X51982906Y-55604592D01*
X51922329Y-55579500D01*
X51922328Y-55579500D01*
X51822672Y-55579500D01*
X51822670Y-55579500D01*
X51730602Y-55617636D01*
X51660136Y-55688102D01*
X51622000Y-55780170D01*
X51622000Y-55879829D01*
X50637500Y-55879829D01*
X50637500Y-55454500D01*
X50657185Y-55387461D01*
X50709989Y-55341706D01*
X50761500Y-55330500D01*
X60830681Y-55330500D01*
X60897720Y-55350185D01*
X60943475Y-55402989D01*
X60953419Y-55472147D01*
X60952298Y-55478692D01*
X60942092Y-55529999D01*
X60942092Y-55530002D01*
X60961533Y-55627738D01*
X60961533Y-55627739D01*
X60961534Y-55627740D01*
X61016899Y-55710601D01*
X61099760Y-55765966D01*
X61132340Y-55772446D01*
X61197498Y-55785408D01*
X61197500Y-55785408D01*
X61197502Y-55785408D01*
X61246370Y-55775687D01*
X61295240Y-55765966D01*
X61378101Y-55710601D01*
X61433466Y-55627740D01*
X61452908Y-55530000D01*
X61449717Y-55513960D01*
X61442702Y-55478692D01*
X61448929Y-55409100D01*
X61491792Y-55353923D01*
X61557681Y-55330678D01*
X61564319Y-55330500D01*
X63400681Y-55330500D01*
X63467720Y-55350185D01*
X63513475Y-55402989D01*
X63523419Y-55472147D01*
X63522298Y-55478692D01*
X63512092Y-55529999D01*
X63512092Y-55530002D01*
X63531533Y-55627738D01*
X63531533Y-55627739D01*
X63531534Y-55627740D01*
X63586899Y-55710601D01*
X63669760Y-55765966D01*
X63702340Y-55772446D01*
X63767498Y-55785408D01*
X63767500Y-55785408D01*
X63767502Y-55785408D01*
X63816370Y-55775687D01*
X63865240Y-55765966D01*
X63948101Y-55710601D01*
X64003466Y-55627740D01*
X64022908Y-55530000D01*
X64019717Y-55513960D01*
X64012702Y-55478692D01*
X64018929Y-55409100D01*
X64061792Y-55353923D01*
X64127681Y-55330678D01*
X64134319Y-55330500D01*
X78476955Y-55330500D01*
X78543994Y-55350185D01*
X78589749Y-55402989D01*
X78599693Y-55472147D01*
X78570668Y-55535703D01*
X78564636Y-55542181D01*
X78485409Y-55621407D01*
X78485404Y-55621414D01*
X78434998Y-55720341D01*
X78417631Y-55829997D01*
X78417631Y-55830002D01*
X78434998Y-55939658D01*
X78485404Y-56038585D01*
X78485409Y-56038592D01*
X78563907Y-56117090D01*
X78563910Y-56117092D01*
X78563913Y-56117095D01*
X78662839Y-56167500D01*
X78665964Y-56169092D01*
X78716761Y-56217066D01*
X78733556Y-56284887D01*
X78731288Y-56303767D01*
X78722092Y-56350001D01*
X78722092Y-56350002D01*
X78741533Y-56447738D01*
X78741533Y-56447739D01*
X78741534Y-56447740D01*
X78796899Y-56530601D01*
X78879760Y-56585966D01*
X78912340Y-56592446D01*
X78977498Y-56605408D01*
X78977500Y-56605408D01*
X78977502Y-56605408D01*
X79026370Y-56595687D01*
X79075240Y-56585966D01*
X79158101Y-56530601D01*
X79213466Y-56447740D01*
X79227854Y-56375408D01*
X79232908Y-56350002D01*
X79232908Y-56349997D01*
X79218326Y-56276695D01*
X79213466Y-56252260D01*
X79158101Y-56169399D01*
X79126506Y-56148288D01*
X79081703Y-56094676D01*
X79072996Y-56025351D01*
X79084912Y-55988897D01*
X79110000Y-55939661D01*
X79110042Y-55939399D01*
X79127369Y-55830002D01*
X79127369Y-55820240D01*
X79128871Y-55820240D01*
X79136452Y-55761548D01*
X79162291Y-55723757D01*
X79269232Y-55616818D01*
X79330555Y-55583334D01*
X79356912Y-55580500D01*
X79459128Y-55580500D01*
X79526167Y-55600185D01*
X79571922Y-55652989D01*
X79581866Y-55722147D01*
X79573690Y-55751948D01*
X79566863Y-55768432D01*
X79562000Y-55780172D01*
X79562000Y-55879829D01*
X79575658Y-55912802D01*
X79600136Y-55971897D01*
X79670603Y-56042364D01*
X79762672Y-56080500D01*
X79762674Y-56080500D01*
X79862326Y-56080500D01*
X79862328Y-56080500D01*
X79954397Y-56042364D01*
X80024864Y-55971897D01*
X80063000Y-55879828D01*
X80063000Y-55780172D01*
X80051310Y-55751951D01*
X80043842Y-55682484D01*
X80075116Y-55620005D01*
X80135205Y-55584352D01*
X80165872Y-55580500D01*
X80681242Y-55580500D01*
X80748281Y-55600185D01*
X80794036Y-55652989D01*
X80803980Y-55722147D01*
X80795804Y-55751951D01*
X80791532Y-55762262D01*
X80772092Y-55859997D01*
X80772092Y-55860002D01*
X80791533Y-55957738D01*
X80791533Y-55957739D01*
X80791534Y-55957740D01*
X80846899Y-56040601D01*
X80929760Y-56095966D01*
X80944611Y-56098920D01*
X81027498Y-56115408D01*
X81027500Y-56115408D01*
X81027502Y-56115408D01*
X81076591Y-56105643D01*
X81125240Y-56095966D01*
X81208101Y-56040601D01*
X81263466Y-55957740D01*
X81278127Y-55884034D01*
X81282908Y-55860002D01*
X81282908Y-55859997D01*
X81263467Y-55762262D01*
X81259196Y-55751951D01*
X81251728Y-55682482D01*
X81283004Y-55620003D01*
X81343093Y-55584351D01*
X81373758Y-55580500D01*
X81999128Y-55580500D01*
X82066167Y-55600185D01*
X82111922Y-55652989D01*
X82121866Y-55722147D01*
X82113690Y-55751948D01*
X82106863Y-55768432D01*
X82102000Y-55780172D01*
X82102000Y-55879829D01*
X82115658Y-55912802D01*
X82140136Y-55971897D01*
X82210603Y-56042364D01*
X82302672Y-56080500D01*
X82302674Y-56080500D01*
X82402326Y-56080500D01*
X82402328Y-56080500D01*
X82494397Y-56042364D01*
X82564864Y-55971897D01*
X82603000Y-55879828D01*
X82603000Y-55780172D01*
X82591310Y-55751951D01*
X82583842Y-55682484D01*
X82615116Y-55620005D01*
X82675205Y-55584352D01*
X82705872Y-55580500D01*
X83053088Y-55580500D01*
X83120127Y-55600185D01*
X83140769Y-55616819D01*
X83287706Y-55763756D01*
X83321191Y-55825079D01*
X83322197Y-55860242D01*
X83322631Y-55860242D01*
X83322631Y-55870002D01*
X83339998Y-55979658D01*
X83390404Y-56078585D01*
X83390409Y-56078592D01*
X83468907Y-56157090D01*
X83468910Y-56157092D01*
X83468913Y-56157095D01*
X83523423Y-56184869D01*
X83567841Y-56207501D01*
X83677498Y-56224869D01*
X83677500Y-56224869D01*
X83677502Y-56224869D01*
X83787158Y-56207501D01*
X83787159Y-56207500D01*
X83787161Y-56207500D01*
X83886087Y-56157095D01*
X83964595Y-56078587D01*
X84015000Y-55979661D01*
X84015000Y-55979659D01*
X84015001Y-55979658D01*
X84032369Y-55870002D01*
X84032369Y-55869997D01*
X84015001Y-55760341D01*
X83978194Y-55688103D01*
X83964595Y-55661413D01*
X83964592Y-55661410D01*
X83964590Y-55661407D01*
X83886092Y-55582909D01*
X83886088Y-55582906D01*
X83886087Y-55582905D01*
X83850915Y-55564984D01*
X83800120Y-55517011D01*
X83783324Y-55449190D01*
X83805861Y-55383055D01*
X83860576Y-55339603D01*
X83907210Y-55330500D01*
X84763500Y-55330500D01*
X84830539Y-55350185D01*
X84876294Y-55402989D01*
X84887500Y-55454500D01*
X84887500Y-55478077D01*
X84867815Y-55545116D01*
X84815011Y-55590871D01*
X84810956Y-55592636D01*
X84752576Y-55616819D01*
X84750601Y-55617637D01*
X84680136Y-55688102D01*
X84642000Y-55780170D01*
X84642000Y-55879829D01*
X84655658Y-55912802D01*
X84680136Y-55971897D01*
X84750603Y-56042364D01*
X84810952Y-56067361D01*
X84865356Y-56111202D01*
X84887421Y-56177496D01*
X84887500Y-56181922D01*
X84887500Y-59308638D01*
X84867815Y-59375677D01*
X84851181Y-59396319D01*
X83703819Y-60543681D01*
X83642496Y-60577166D01*
X83616138Y-60580000D01*
X82138862Y-60580000D01*
X82071823Y-60560315D01*
X82051181Y-60543681D01*
X80457500Y-58950000D01*
X77538862Y-58950000D01*
X77471823Y-58930315D01*
X77451181Y-58913681D01*
X76987502Y-58450002D01*
X80622092Y-58450002D01*
X80641533Y-58547738D01*
X80641533Y-58547739D01*
X80641534Y-58547740D01*
X80696899Y-58630601D01*
X80779760Y-58685966D01*
X80800040Y-58690000D01*
X80877498Y-58705408D01*
X80877500Y-58705408D01*
X80877502Y-58705408D01*
X80926370Y-58695687D01*
X80975240Y-58685966D01*
X81058101Y-58630601D01*
X81065183Y-58620002D01*
X83492092Y-58620002D01*
X83511533Y-58717738D01*
X83511533Y-58717739D01*
X83511534Y-58717740D01*
X83566899Y-58800601D01*
X83649760Y-58855966D01*
X83682340Y-58862446D01*
X83747498Y-58875408D01*
X83747500Y-58875408D01*
X83747502Y-58875408D01*
X83796370Y-58865687D01*
X83845240Y-58855966D01*
X83928101Y-58800601D01*
X83983466Y-58717740D01*
X83999725Y-58636002D01*
X84002908Y-58620002D01*
X84002908Y-58619997D01*
X83983466Y-58522261D01*
X83983466Y-58522260D01*
X83928101Y-58439399D01*
X83845240Y-58384034D01*
X83845239Y-58384033D01*
X83845238Y-58384033D01*
X83747502Y-58364592D01*
X83747498Y-58364592D01*
X83649761Y-58384033D01*
X83566899Y-58439399D01*
X83511533Y-58522261D01*
X83492092Y-58619997D01*
X83492092Y-58620002D01*
X81065183Y-58620002D01*
X81113466Y-58547740D01*
X81124180Y-58493879D01*
X81132908Y-58450002D01*
X81132908Y-58449997D01*
X81113466Y-58352261D01*
X81113466Y-58352260D01*
X81091912Y-58320002D01*
X82652092Y-58320002D01*
X82671533Y-58417738D01*
X82671533Y-58417739D01*
X82671534Y-58417740D01*
X82726899Y-58500601D01*
X82809760Y-58555966D01*
X82824827Y-58558963D01*
X82907498Y-58575408D01*
X82907500Y-58575408D01*
X82907502Y-58575408D01*
X82956370Y-58565687D01*
X83005240Y-58555966D01*
X83088101Y-58500601D01*
X83143466Y-58417740D01*
X83162908Y-58320000D01*
X83162908Y-58319997D01*
X83146868Y-58239362D01*
X83143466Y-58222260D01*
X83088101Y-58139399D01*
X83005240Y-58084034D01*
X83005239Y-58084033D01*
X83005238Y-58084033D01*
X82907502Y-58064592D01*
X82907498Y-58064592D01*
X82809761Y-58084033D01*
X82726899Y-58139399D01*
X82671533Y-58222261D01*
X82652092Y-58319997D01*
X82652092Y-58320002D01*
X81091912Y-58320002D01*
X81058101Y-58269399D01*
X80975240Y-58214034D01*
X80975239Y-58214033D01*
X80975238Y-58214033D01*
X80877502Y-58194592D01*
X80877498Y-58194592D01*
X80779761Y-58214033D01*
X80696899Y-58269399D01*
X80641533Y-58352261D01*
X80622092Y-58449997D01*
X80622092Y-58450002D01*
X76987502Y-58450002D01*
X76677500Y-58140000D01*
X76574783Y-58140000D01*
X76507744Y-58120315D01*
X76505894Y-58119103D01*
X76428794Y-58067588D01*
X76331057Y-58048147D01*
X76331053Y-58048147D01*
X76233315Y-58067588D01*
X76156216Y-58119103D01*
X76089539Y-58139980D01*
X76087327Y-58140000D01*
X73174963Y-58140000D01*
X73107924Y-58120315D01*
X73071861Y-58084891D01*
X73028101Y-58019399D01*
X72994720Y-57997095D01*
X72945240Y-57964034D01*
X72945239Y-57964033D01*
X72945238Y-57964033D01*
X72847502Y-57944592D01*
X72847498Y-57944592D01*
X72749761Y-57964033D01*
X72666898Y-58019399D01*
X72623139Y-58084891D01*
X72569527Y-58129696D01*
X72520037Y-58140000D01*
X72077499Y-58140000D01*
X71593819Y-58623681D01*
X71532496Y-58657166D01*
X71506138Y-58660000D01*
X70608862Y-58660000D01*
X70541823Y-58640315D01*
X70521181Y-58623681D01*
X70405103Y-58507603D01*
X70371618Y-58446280D01*
X70376602Y-58376588D01*
X70418474Y-58320655D01*
X70423878Y-58316831D01*
X70478101Y-58280601D01*
X70533466Y-58197740D01*
X70549108Y-58119103D01*
X70552908Y-58100002D01*
X70552908Y-58099997D01*
X70538315Y-58026636D01*
X70533466Y-58002260D01*
X70478101Y-57919399D01*
X70395240Y-57864034D01*
X70395239Y-57864033D01*
X70395238Y-57864033D01*
X70297502Y-57844592D01*
X70297498Y-57844592D01*
X70199761Y-57864033D01*
X70116898Y-57919399D01*
X70080679Y-57973606D01*
X70027067Y-58018411D01*
X69957742Y-58027118D01*
X69894714Y-57996963D01*
X69889896Y-57992396D01*
X68978508Y-57081008D01*
X81296904Y-57081008D01*
X81316345Y-57178744D01*
X81316345Y-57178745D01*
X81316346Y-57178746D01*
X81371711Y-57261607D01*
X81454572Y-57316972D01*
X81487152Y-57323452D01*
X81552310Y-57336414D01*
X81552312Y-57336414D01*
X81552314Y-57336414D01*
X81612890Y-57324364D01*
X81650052Y-57316972D01*
X81732913Y-57261607D01*
X81788278Y-57178746D01*
X81803836Y-57100532D01*
X81807720Y-57081008D01*
X81807720Y-57081003D01*
X81788621Y-56984989D01*
X81788278Y-56983266D01*
X81732913Y-56900405D01*
X81650052Y-56845040D01*
X81650051Y-56845039D01*
X81650050Y-56845039D01*
X81552314Y-56825598D01*
X81552310Y-56825598D01*
X81454573Y-56845039D01*
X81371711Y-56900405D01*
X81316345Y-56983267D01*
X81296904Y-57081003D01*
X81296904Y-57081008D01*
X68978508Y-57081008D01*
X68417499Y-56519999D01*
X63825016Y-56522044D01*
X63757968Y-56502389D01*
X63756071Y-56501147D01*
X63738927Y-56489692D01*
X63697457Y-56461983D01*
X63697456Y-56461982D01*
X63697455Y-56461982D01*
X63599719Y-56442541D01*
X63599715Y-56442541D01*
X63501977Y-56461982D01*
X63501976Y-56461982D01*
X63443062Y-56501347D01*
X63376385Y-56522224D01*
X63374228Y-56522244D01*
X63050637Y-56522388D01*
X63003133Y-56512950D01*
X62993919Y-56509133D01*
X62896179Y-56489692D01*
X62896175Y-56489692D01*
X62798436Y-56509133D01*
X62788886Y-56513089D01*
X62741493Y-56522526D01*
X61003195Y-56523300D01*
X60936147Y-56503645D01*
X60890369Y-56450862D01*
X60881523Y-56423496D01*
X60877246Y-56401991D01*
X60821881Y-56319130D01*
X60739020Y-56263765D01*
X60739019Y-56263764D01*
X60739018Y-56263764D01*
X60641282Y-56244323D01*
X60641278Y-56244323D01*
X60543541Y-56263764D01*
X60460679Y-56319130D01*
X60405313Y-56401992D01*
X60400972Y-56423816D01*
X60368585Y-56485726D01*
X60307869Y-56520299D01*
X60279410Y-56523622D01*
X55884403Y-56525579D01*
X55884401Y-56525580D01*
X54277500Y-58167360D01*
X54277500Y-59986011D01*
X54257815Y-60053050D01*
X54205011Y-60098805D01*
X54153028Y-60110010D01*
X53540362Y-60107676D01*
X53473398Y-60087736D01*
X53453112Y-60071317D01*
X53367886Y-59986011D01*
X53330369Y-59948458D01*
X53314990Y-59929709D01*
X53308103Y-59919402D01*
X53308101Y-59919399D01*
X53303475Y-59916308D01*
X53297929Y-59912602D01*
X53279100Y-59897141D01*
X51366663Y-57982903D01*
X50053700Y-57973799D01*
X49252209Y-58775290D01*
X49190886Y-58808775D01*
X49164703Y-58811609D01*
X46470952Y-58815417D01*
X46470950Y-58815418D01*
X45686453Y-59688858D01*
X45627012Y-59725580D01*
X45594201Y-59730000D01*
X42387500Y-59730000D01*
X41712500Y-60413999D01*
X41712500Y-65157935D01*
X41692815Y-65224974D01*
X41691603Y-65226825D01*
X41641533Y-65301761D01*
X41622092Y-65399497D01*
X41622092Y-65399502D01*
X41641533Y-65497238D01*
X41641533Y-65497239D01*
X41641534Y-65497240D01*
X41691602Y-65572174D01*
X41712480Y-65638850D01*
X41712500Y-65641063D01*
X41712500Y-69216006D01*
X41692815Y-69283045D01*
X41640011Y-69328800D01*
X41635953Y-69330567D01*
X41570602Y-69357636D01*
X41500136Y-69428102D01*
X41462000Y-69520170D01*
X41462000Y-69619829D01*
X41488995Y-69685000D01*
X41500136Y-69711897D01*
X41570603Y-69782364D01*
X41635952Y-69809432D01*
X41690356Y-69853273D01*
X41712421Y-69919567D01*
X41712500Y-69923993D01*
X41712500Y-69945500D01*
X41692815Y-70012539D01*
X41640011Y-70058294D01*
X41588500Y-70069500D01*
X38658000Y-70069500D01*
X38590961Y-70049815D01*
X38545206Y-69997011D01*
X38534000Y-69945500D01*
X38534000Y-69619829D01*
X38922000Y-69619829D01*
X38948995Y-69685000D01*
X38960136Y-69711897D01*
X39030603Y-69782364D01*
X39122672Y-69820500D01*
X39122674Y-69820500D01*
X39222326Y-69820500D01*
X39222328Y-69820500D01*
X39314397Y-69782364D01*
X39384864Y-69711897D01*
X39423000Y-69619828D01*
X39423000Y-69520172D01*
X39384864Y-69428103D01*
X39314397Y-69357636D01*
X39222329Y-69319500D01*
X39222328Y-69319500D01*
X39122672Y-69319500D01*
X39122670Y-69319500D01*
X39030602Y-69357636D01*
X38960136Y-69428102D01*
X38922000Y-69520170D01*
X38922000Y-69619829D01*
X38534000Y-69619829D01*
X38534000Y-68643443D01*
X38553685Y-68576404D01*
X38606489Y-68530649D01*
X38610526Y-68528890D01*
X38679397Y-68500364D01*
X38749864Y-68429897D01*
X38788000Y-68337828D01*
X38788000Y-67421859D01*
X38797066Y-67390981D01*
X38795591Y-67387232D01*
X39031052Y-67387232D01*
X39033617Y-67397668D01*
X39051533Y-67487738D01*
X39051533Y-67487739D01*
X39051534Y-67487740D01*
X39106899Y-67570601D01*
X39189760Y-67625966D01*
X39212554Y-67630500D01*
X39287498Y-67645408D01*
X39287500Y-67645408D01*
X39287502Y-67645408D01*
X39345595Y-67633852D01*
X39385240Y-67625966D01*
X39468101Y-67570601D01*
X39523466Y-67487740D01*
X39542908Y-67390000D01*
X39542908Y-67389997D01*
X39523466Y-67292261D01*
X39523466Y-67292260D01*
X39468101Y-67209399D01*
X39385240Y-67154034D01*
X39385239Y-67154033D01*
X39385238Y-67154033D01*
X39287502Y-67134592D01*
X39287498Y-67134592D01*
X39189761Y-67154033D01*
X39106899Y-67209399D01*
X39051533Y-67292261D01*
X39033617Y-67382331D01*
X39031052Y-67387232D01*
X38795591Y-67387232D01*
X38788494Y-67369192D01*
X38788000Y-67358140D01*
X38788000Y-64200002D01*
X39622092Y-64200002D01*
X39641533Y-64297738D01*
X39641533Y-64297739D01*
X39641534Y-64297740D01*
X39696899Y-64380601D01*
X39779760Y-64435966D01*
X39812340Y-64442446D01*
X39877498Y-64455408D01*
X39877500Y-64455408D01*
X39877502Y-64455408D01*
X39926370Y-64445687D01*
X39975240Y-64435966D01*
X40058101Y-64380601D01*
X40113466Y-64297740D01*
X40132908Y-64200000D01*
X40132908Y-64199997D01*
X40113466Y-64102261D01*
X40113466Y-64102260D01*
X40058101Y-64019399D01*
X39975240Y-63964034D01*
X39975239Y-63964033D01*
X39975238Y-63964033D01*
X39877502Y-63944592D01*
X39877498Y-63944592D01*
X39779761Y-63964033D01*
X39696899Y-64019399D01*
X39641533Y-64102261D01*
X39622092Y-64199997D01*
X39622092Y-64200002D01*
X38788000Y-64200002D01*
X38788000Y-62050002D01*
X39322092Y-62050002D01*
X39341533Y-62147738D01*
X39341533Y-62147739D01*
X39341534Y-62147740D01*
X39396899Y-62230601D01*
X39479760Y-62285966D01*
X39512340Y-62292446D01*
X39577498Y-62305408D01*
X39577500Y-62305408D01*
X39577502Y-62305408D01*
X39638264Y-62293321D01*
X39675240Y-62285966D01*
X39758101Y-62230601D01*
X39813466Y-62147740D01*
X39832908Y-62050000D01*
X39832908Y-62049997D01*
X39818326Y-61976695D01*
X39813466Y-61952260D01*
X39758101Y-61869399D01*
X39675240Y-61814034D01*
X39675239Y-61814033D01*
X39675238Y-61814033D01*
X39577502Y-61794592D01*
X39577498Y-61794592D01*
X39479761Y-61814033D01*
X39396899Y-61869399D01*
X39341533Y-61952261D01*
X39322092Y-62049997D01*
X39322092Y-62050002D01*
X38788000Y-62050002D01*
X38788000Y-60600043D01*
X38807685Y-60533004D01*
X38860489Y-60487249D01*
X38929647Y-60477305D01*
X38993203Y-60506330D01*
X39015072Y-60536660D01*
X39016883Y-60535451D01*
X39023667Y-60545605D01*
X39023668Y-60545606D01*
X39079033Y-60628467D01*
X39161894Y-60683832D01*
X39194474Y-60690312D01*
X39259632Y-60703274D01*
X39259634Y-60703274D01*
X39259636Y-60703274D01*
X39323344Y-60690601D01*
X39357374Y-60683832D01*
X39440235Y-60628467D01*
X39495600Y-60545606D01*
X39515042Y-60447866D01*
X39515042Y-60447863D01*
X39499434Y-60369399D01*
X39495600Y-60350126D01*
X39440235Y-60267265D01*
X39357374Y-60211900D01*
X39357373Y-60211899D01*
X39357372Y-60211899D01*
X39259636Y-60192458D01*
X39259632Y-60192458D01*
X39161895Y-60211899D01*
X39114003Y-60243899D01*
X39079033Y-60267265D01*
X39039281Y-60326760D01*
X39016883Y-60360281D01*
X39014196Y-60358485D01*
X38982717Y-60397546D01*
X38916423Y-60419609D01*
X38848724Y-60402328D01*
X38801115Y-60351190D01*
X38788000Y-60295688D01*
X38788000Y-58058764D01*
X39422092Y-58058764D01*
X39441533Y-58156500D01*
X39441533Y-58156501D01*
X39441534Y-58156502D01*
X39496899Y-58239363D01*
X39579760Y-58294728D01*
X39612340Y-58301208D01*
X39677498Y-58314170D01*
X39677500Y-58314170D01*
X39677502Y-58314170D01*
X39730864Y-58303555D01*
X39775240Y-58294728D01*
X39858101Y-58239363D01*
X39913466Y-58156502D01*
X39919632Y-58125502D01*
X40222092Y-58125502D01*
X40241533Y-58223238D01*
X40241533Y-58223239D01*
X40241534Y-58223240D01*
X40296899Y-58306101D01*
X40379760Y-58361466D01*
X40412340Y-58367946D01*
X40477498Y-58380908D01*
X40477500Y-58380908D01*
X40477502Y-58380908D01*
X40526370Y-58371187D01*
X40575240Y-58361466D01*
X40658101Y-58306101D01*
X40713466Y-58223240D01*
X40724581Y-58167360D01*
X40732908Y-58125502D01*
X40732908Y-58125497D01*
X40713466Y-58027761D01*
X40713466Y-58027760D01*
X40661511Y-57950002D01*
X42122092Y-57950002D01*
X42141533Y-58047738D01*
X42141533Y-58047739D01*
X42141534Y-58047740D01*
X42196899Y-58130601D01*
X42279760Y-58185966D01*
X42312340Y-58192446D01*
X42377498Y-58205408D01*
X42377500Y-58205408D01*
X42377502Y-58205408D01*
X42431875Y-58194592D01*
X42475240Y-58185966D01*
X42558101Y-58130601D01*
X42613466Y-58047740D01*
X42628174Y-57973799D01*
X42632908Y-57950002D01*
X42632908Y-57949997D01*
X42613466Y-57852261D01*
X42613466Y-57852260D01*
X42558101Y-57769399D01*
X42475240Y-57714034D01*
X42475239Y-57714033D01*
X42475238Y-57714033D01*
X42377502Y-57694592D01*
X42377498Y-57694592D01*
X42279761Y-57714033D01*
X42196899Y-57769399D01*
X42141533Y-57852261D01*
X42122092Y-57949997D01*
X42122092Y-57950002D01*
X40661511Y-57950002D01*
X40658101Y-57944899D01*
X40575240Y-57889534D01*
X40575239Y-57889533D01*
X40575238Y-57889533D01*
X40477502Y-57870092D01*
X40477498Y-57870092D01*
X40379761Y-57889533D01*
X40296899Y-57944899D01*
X40241533Y-58027761D01*
X40222092Y-58125497D01*
X40222092Y-58125502D01*
X39919632Y-58125502D01*
X39927881Y-58084033D01*
X39932908Y-58058764D01*
X39932908Y-58058759D01*
X39916328Y-57975408D01*
X39913466Y-57961022D01*
X39858101Y-57878161D01*
X39775240Y-57822796D01*
X39775239Y-57822795D01*
X39775238Y-57822795D01*
X39677502Y-57803354D01*
X39677498Y-57803354D01*
X39579761Y-57822795D01*
X39496899Y-57878161D01*
X39441533Y-57961023D01*
X39422092Y-58058759D01*
X39422092Y-58058764D01*
X38788000Y-58058764D01*
X38788000Y-57062173D01*
X38787999Y-57062170D01*
X38785429Y-57055966D01*
X38749864Y-56970103D01*
X38679397Y-56899636D01*
X38610546Y-56871117D01*
X38556143Y-56827275D01*
X38534079Y-56760981D01*
X38534000Y-56756556D01*
X38534000Y-55879829D01*
X38922000Y-55879829D01*
X38935658Y-55912802D01*
X38960136Y-55971897D01*
X39030603Y-56042364D01*
X39122672Y-56080500D01*
X39122674Y-56080500D01*
X39222326Y-56080500D01*
X39222328Y-56080500D01*
X39314397Y-56042364D01*
X39384864Y-55971897D01*
X39423000Y-55879828D01*
X39423000Y-55780172D01*
X39384864Y-55688103D01*
X39314397Y-55617636D01*
X39282906Y-55604592D01*
X39222329Y-55579500D01*
X39222328Y-55579500D01*
X39122672Y-55579500D01*
X39122670Y-55579500D01*
X39030602Y-55617636D01*
X38960136Y-55688102D01*
X38922000Y-55780170D01*
X38922000Y-55879829D01*
X38534000Y-55879829D01*
X38534000Y-55454500D01*
X38553685Y-55387461D01*
X38606489Y-55341706D01*
X38658000Y-55330500D01*
X40411085Y-55330500D01*
X40478124Y-55350185D01*
G37*
%TD.AperFunction*%
%TD*%
M02*
