%TF.GenerationSoftware,KiCad,Pcbnew,8.0.1-8.0.1-1~ubuntu22.04.1*%
%TF.CreationDate,2024-05-05T11:37:55-07:00*%
%TF.ProjectId,unic_gw1,756e6963-5f67-4773-912e-6b696361645f,1.0*%
%TF.SameCoordinates,Original*%
%TF.FileFunction,Soldermask,Top*%
%TF.FilePolarity,Negative*%
%FSLAX46Y46*%
G04 Gerber Fmt 4.6, Leading zero omitted, Abs format (unit mm)*
G04 Created by KiCad (PCBNEW 8.0.1-8.0.1-1~ubuntu22.04.1) date 2024-05-05 11:37:55*
%MOMM*%
%LPD*%
G01*
G04 APERTURE LIST*
G04 Aperture macros list*
%AMRoundRect*
0 Rectangle with rounded corners*
0 $1 Rounding radius*
0 $2 $3 $4 $5 $6 $7 $8 $9 X,Y pos of 4 corners*
0 Add a 4 corners polygon primitive as box body*
4,1,4,$2,$3,$4,$5,$6,$7,$8,$9,$2,$3,0*
0 Add four circle primitives for the rounded corners*
1,1,$1+$1,$2,$3*
1,1,$1+$1,$4,$5*
1,1,$1+$1,$6,$7*
1,1,$1+$1,$8,$9*
0 Add four rect primitives between the rounded corners*
20,1,$1+$1,$2,$3,$4,$5,0*
20,1,$1+$1,$4,$5,$6,$7,0*
20,1,$1+$1,$6,$7,$8,$9,0*
20,1,$1+$1,$8,$9,$2,$3,0*%
G04 Aperture macros list end*
%ADD10C,0.150000*%
%ADD11RoundRect,0.250000X0.337500X0.475000X-0.337500X0.475000X-0.337500X-0.475000X0.337500X-0.475000X0*%
%ADD12C,2.000000*%
%ADD13RoundRect,0.160000X-0.222500X-0.160000X0.222500X-0.160000X0.222500X0.160000X-0.222500X0.160000X0*%
%ADD14RoundRect,0.085000X-0.085000X0.265000X-0.085000X-0.265000X0.085000X-0.265000X0.085000X0.265000X0*%
%ADD15R,0.740000X2.400000*%
%ADD16RoundRect,0.160000X0.197500X0.160000X-0.197500X0.160000X-0.197500X-0.160000X0.197500X-0.160000X0*%
%ADD17RoundRect,0.250000X-0.475000X0.337500X-0.475000X-0.337500X0.475000X-0.337500X0.475000X0.337500X0*%
%ADD18RoundRect,0.250001X0.849999X-0.462499X0.849999X0.462499X-0.849999X0.462499X-0.849999X-0.462499X0*%
%ADD19C,1.000000*%
%ADD20RoundRect,0.155000X-0.155000X0.212500X-0.155000X-0.212500X0.155000X-0.212500X0.155000X0.212500X0*%
%ADD21RoundRect,0.155000X0.155000X-0.212500X0.155000X0.212500X-0.155000X0.212500X-0.155000X-0.212500X0*%
%ADD22RoundRect,0.155000X0.212500X0.155000X-0.212500X0.155000X-0.212500X-0.155000X0.212500X-0.155000X0*%
%ADD23C,0.400000*%
%ADD24RoundRect,0.225000X0.225000X-0.400000X0.225000X0.400000X-0.225000X0.400000X-0.225000X-0.400000X0*%
%ADD25RoundRect,0.006600X-0.103400X0.423400X-0.103400X-0.423400X0.103400X-0.423400X0.103400X0.423400X0*%
%ADD26RoundRect,0.006600X-0.423400X-0.103400X0.423400X-0.103400X0.423400X0.103400X-0.423400X0.103400X0*%
%ADD27R,6.740000X6.740000*%
%ADD28RoundRect,0.160000X-0.197500X-0.160000X0.197500X-0.160000X0.197500X0.160000X-0.197500X0.160000X0*%
%ADD29R,0.355600X0.711200*%
%ADD30R,0.355600X0.558800*%
%ADD31R,0.406400X1.092200*%
%ADD32RoundRect,0.160000X0.160000X-0.197500X0.160000X0.197500X-0.160000X0.197500X-0.160000X-0.197500X0*%
%ADD33RoundRect,0.075000X0.575000X-0.075000X0.575000X0.075000X-0.575000X0.075000X-0.575000X-0.075000X0*%
%ADD34RoundRect,0.400000X0.400000X-0.550000X0.400000X0.550000X-0.400000X0.550000X-0.400000X-0.550000X0*%
%ADD35RoundRect,0.155000X-0.212500X-0.155000X0.212500X-0.155000X0.212500X0.155000X-0.212500X0.155000X0*%
G04 APERTURE END LIST*
D10*
X55609279Y-41319931D02*
X55609279Y-42129454D01*
X55609279Y-42129454D02*
X55656898Y-42224692D01*
X55656898Y-42224692D02*
X55704517Y-42272312D01*
X55704517Y-42272312D02*
X55799755Y-42319931D01*
X55799755Y-42319931D02*
X55990231Y-42319931D01*
X55990231Y-42319931D02*
X56085469Y-42272312D01*
X56085469Y-42272312D02*
X56133088Y-42224692D01*
X56133088Y-42224692D02*
X56180707Y-42129454D01*
X56180707Y-42129454D02*
X56180707Y-41319931D01*
X56656898Y-41653264D02*
X56656898Y-42319931D01*
X56656898Y-41748502D02*
X56704517Y-41700883D01*
X56704517Y-41700883D02*
X56799755Y-41653264D01*
X56799755Y-41653264D02*
X56942612Y-41653264D01*
X56942612Y-41653264D02*
X57037850Y-41700883D01*
X57037850Y-41700883D02*
X57085469Y-41796121D01*
X57085469Y-41796121D02*
X57085469Y-42319931D01*
X57561660Y-42319931D02*
X57561660Y-41319931D01*
X58609278Y-42224692D02*
X58561659Y-42272312D01*
X58561659Y-42272312D02*
X58418802Y-42319931D01*
X58418802Y-42319931D02*
X58323564Y-42319931D01*
X58323564Y-42319931D02*
X58180707Y-42272312D01*
X58180707Y-42272312D02*
X58085469Y-42177073D01*
X58085469Y-42177073D02*
X58037850Y-42081835D01*
X58037850Y-42081835D02*
X57990231Y-41891359D01*
X57990231Y-41891359D02*
X57990231Y-41748502D01*
X57990231Y-41748502D02*
X58037850Y-41558026D01*
X58037850Y-41558026D02*
X58085469Y-41462788D01*
X58085469Y-41462788D02*
X58180707Y-41367550D01*
X58180707Y-41367550D02*
X58323564Y-41319931D01*
X58323564Y-41319931D02*
X58418802Y-41319931D01*
X58418802Y-41319931D02*
X58561659Y-41367550D01*
X58561659Y-41367550D02*
X58609278Y-41415169D01*
X59656898Y-41319931D02*
X59990231Y-42319931D01*
X59990231Y-42319931D02*
X60323564Y-41319931D01*
X61180707Y-42319931D02*
X60609279Y-42319931D01*
X60894993Y-42319931D02*
X60894993Y-41319931D01*
X60894993Y-41319931D02*
X60799755Y-41462788D01*
X60799755Y-41462788D02*
X60704517Y-41558026D01*
X60704517Y-41558026D02*
X60609279Y-41605645D01*
X61609279Y-42224692D02*
X61656898Y-42272312D01*
X61656898Y-42272312D02*
X61609279Y-42319931D01*
X61609279Y-42319931D02*
X61561660Y-42272312D01*
X61561660Y-42272312D02*
X61609279Y-42224692D01*
X61609279Y-42224692D02*
X61609279Y-42319931D01*
X62275945Y-41319931D02*
X62371183Y-41319931D01*
X62371183Y-41319931D02*
X62466421Y-41367550D01*
X62466421Y-41367550D02*
X62514040Y-41415169D01*
X62514040Y-41415169D02*
X62561659Y-41510407D01*
X62561659Y-41510407D02*
X62609278Y-41700883D01*
X62609278Y-41700883D02*
X62609278Y-41938978D01*
X62609278Y-41938978D02*
X62561659Y-42129454D01*
X62561659Y-42129454D02*
X62514040Y-42224692D01*
X62514040Y-42224692D02*
X62466421Y-42272312D01*
X62466421Y-42272312D02*
X62371183Y-42319931D01*
X62371183Y-42319931D02*
X62275945Y-42319931D01*
X62275945Y-42319931D02*
X62180707Y-42272312D01*
X62180707Y-42272312D02*
X62133088Y-42224692D01*
X62133088Y-42224692D02*
X62085469Y-42129454D01*
X62085469Y-42129454D02*
X62037850Y-41938978D01*
X62037850Y-41938978D02*
X62037850Y-41700883D01*
X62037850Y-41700883D02*
X62085469Y-41510407D01*
X62085469Y-41510407D02*
X62133088Y-41415169D01*
X62133088Y-41415169D02*
X62180707Y-41367550D01*
X62180707Y-41367550D02*
X62275945Y-41319931D01*
X55942612Y-43406065D02*
X55609279Y-43406065D01*
X55609279Y-43929875D02*
X55609279Y-42929875D01*
X55609279Y-42929875D02*
X56085469Y-42929875D01*
X56466422Y-43929875D02*
X56466422Y-43263208D01*
X56466422Y-43453684D02*
X56514041Y-43358446D01*
X56514041Y-43358446D02*
X56561660Y-43310827D01*
X56561660Y-43310827D02*
X56656898Y-43263208D01*
X56656898Y-43263208D02*
X56752136Y-43263208D01*
X57228327Y-43929875D02*
X57133089Y-43882256D01*
X57133089Y-43882256D02*
X57085470Y-43834636D01*
X57085470Y-43834636D02*
X57037851Y-43739398D01*
X57037851Y-43739398D02*
X57037851Y-43453684D01*
X57037851Y-43453684D02*
X57085470Y-43358446D01*
X57085470Y-43358446D02*
X57133089Y-43310827D01*
X57133089Y-43310827D02*
X57228327Y-43263208D01*
X57228327Y-43263208D02*
X57371184Y-43263208D01*
X57371184Y-43263208D02*
X57466422Y-43310827D01*
X57466422Y-43310827D02*
X57514041Y-43358446D01*
X57514041Y-43358446D02*
X57561660Y-43453684D01*
X57561660Y-43453684D02*
X57561660Y-43739398D01*
X57561660Y-43739398D02*
X57514041Y-43834636D01*
X57514041Y-43834636D02*
X57466422Y-43882256D01*
X57466422Y-43882256D02*
X57371184Y-43929875D01*
X57371184Y-43929875D02*
X57228327Y-43929875D01*
X57990232Y-43263208D02*
X57990232Y-43929875D01*
X57990232Y-43358446D02*
X58037851Y-43310827D01*
X58037851Y-43310827D02*
X58133089Y-43263208D01*
X58133089Y-43263208D02*
X58275946Y-43263208D01*
X58275946Y-43263208D02*
X58371184Y-43310827D01*
X58371184Y-43310827D02*
X58418803Y-43406065D01*
X58418803Y-43406065D02*
X58418803Y-43929875D01*
X58752137Y-43263208D02*
X59133089Y-43263208D01*
X58894994Y-42929875D02*
X58894994Y-43787017D01*
X58894994Y-43787017D02*
X58942613Y-43882256D01*
X58942613Y-43882256D02*
X59037851Y-43929875D01*
X59037851Y-43929875D02*
X59133089Y-43929875D01*
X60228328Y-43929875D02*
X60228328Y-42929875D01*
X60228328Y-42929875D02*
X60561661Y-43644160D01*
X60561661Y-43644160D02*
X60894994Y-42929875D01*
X60894994Y-42929875D02*
X60894994Y-43929875D01*
X61799756Y-43929875D02*
X61799756Y-43406065D01*
X61799756Y-43406065D02*
X61752137Y-43310827D01*
X61752137Y-43310827D02*
X61656899Y-43263208D01*
X61656899Y-43263208D02*
X61466423Y-43263208D01*
X61466423Y-43263208D02*
X61371185Y-43310827D01*
X61799756Y-43882256D02*
X61704518Y-43929875D01*
X61704518Y-43929875D02*
X61466423Y-43929875D01*
X61466423Y-43929875D02*
X61371185Y-43882256D01*
X61371185Y-43882256D02*
X61323566Y-43787017D01*
X61323566Y-43787017D02*
X61323566Y-43691779D01*
X61323566Y-43691779D02*
X61371185Y-43596541D01*
X61371185Y-43596541D02*
X61466423Y-43548922D01*
X61466423Y-43548922D02*
X61704518Y-43548922D01*
X61704518Y-43548922D02*
X61799756Y-43501303D01*
X62228328Y-43882256D02*
X62323566Y-43929875D01*
X62323566Y-43929875D02*
X62514042Y-43929875D01*
X62514042Y-43929875D02*
X62609280Y-43882256D01*
X62609280Y-43882256D02*
X62656899Y-43787017D01*
X62656899Y-43787017D02*
X62656899Y-43739398D01*
X62656899Y-43739398D02*
X62609280Y-43644160D01*
X62609280Y-43644160D02*
X62514042Y-43596541D01*
X62514042Y-43596541D02*
X62371185Y-43596541D01*
X62371185Y-43596541D02*
X62275947Y-43548922D01*
X62275947Y-43548922D02*
X62228328Y-43453684D01*
X62228328Y-43453684D02*
X62228328Y-43406065D01*
X62228328Y-43406065D02*
X62275947Y-43310827D01*
X62275947Y-43310827D02*
X62371185Y-43263208D01*
X62371185Y-43263208D02*
X62514042Y-43263208D01*
X62514042Y-43263208D02*
X62609280Y-43310827D01*
X63085471Y-43929875D02*
X63085471Y-42929875D01*
X63180709Y-43548922D02*
X63466423Y-43929875D01*
X63466423Y-43263208D02*
X63085471Y-43644160D01*
X55894993Y-45920771D02*
X55847374Y-45873152D01*
X55847374Y-45873152D02*
X55752136Y-45730295D01*
X55752136Y-45730295D02*
X55704517Y-45635057D01*
X55704517Y-45635057D02*
X55656898Y-45492200D01*
X55656898Y-45492200D02*
X55609279Y-45254104D01*
X55609279Y-45254104D02*
X55609279Y-45063628D01*
X55609279Y-45063628D02*
X55656898Y-44825533D01*
X55656898Y-44825533D02*
X55704517Y-44682676D01*
X55704517Y-44682676D02*
X55752136Y-44587438D01*
X55752136Y-44587438D02*
X55847374Y-44444580D01*
X55847374Y-44444580D02*
X55894993Y-44396961D01*
X56847374Y-45444580D02*
X56799755Y-45492200D01*
X56799755Y-45492200D02*
X56656898Y-45539819D01*
X56656898Y-45539819D02*
X56561660Y-45539819D01*
X56561660Y-45539819D02*
X56418803Y-45492200D01*
X56418803Y-45492200D02*
X56323565Y-45396961D01*
X56323565Y-45396961D02*
X56275946Y-45301723D01*
X56275946Y-45301723D02*
X56228327Y-45111247D01*
X56228327Y-45111247D02*
X56228327Y-44968390D01*
X56228327Y-44968390D02*
X56275946Y-44777914D01*
X56275946Y-44777914D02*
X56323565Y-44682676D01*
X56323565Y-44682676D02*
X56418803Y-44587438D01*
X56418803Y-44587438D02*
X56561660Y-44539819D01*
X56561660Y-44539819D02*
X56656898Y-44539819D01*
X56656898Y-44539819D02*
X56799755Y-44587438D01*
X56799755Y-44587438D02*
X56847374Y-44635057D01*
X57180708Y-45920771D02*
X57228327Y-45873152D01*
X57228327Y-45873152D02*
X57323565Y-45730295D01*
X57323565Y-45730295D02*
X57371184Y-45635057D01*
X57371184Y-45635057D02*
X57418803Y-45492200D01*
X57418803Y-45492200D02*
X57466422Y-45254104D01*
X57466422Y-45254104D02*
X57466422Y-45063628D01*
X57466422Y-45063628D02*
X57418803Y-44825533D01*
X57418803Y-44825533D02*
X57371184Y-44682676D01*
X57371184Y-44682676D02*
X57323565Y-44587438D01*
X57323565Y-44587438D02*
X57228327Y-44444580D01*
X57228327Y-44444580D02*
X57180708Y-44396961D01*
X58656899Y-44635057D02*
X58704518Y-44587438D01*
X58704518Y-44587438D02*
X58799756Y-44539819D01*
X58799756Y-44539819D02*
X59037851Y-44539819D01*
X59037851Y-44539819D02*
X59133089Y-44587438D01*
X59133089Y-44587438D02*
X59180708Y-44635057D01*
X59180708Y-44635057D02*
X59228327Y-44730295D01*
X59228327Y-44730295D02*
X59228327Y-44825533D01*
X59228327Y-44825533D02*
X59180708Y-44968390D01*
X59180708Y-44968390D02*
X58609280Y-45539819D01*
X58609280Y-45539819D02*
X59228327Y-45539819D01*
X59847375Y-44539819D02*
X59942613Y-44539819D01*
X59942613Y-44539819D02*
X60037851Y-44587438D01*
X60037851Y-44587438D02*
X60085470Y-44635057D01*
X60085470Y-44635057D02*
X60133089Y-44730295D01*
X60133089Y-44730295D02*
X60180708Y-44920771D01*
X60180708Y-44920771D02*
X60180708Y-45158866D01*
X60180708Y-45158866D02*
X60133089Y-45349342D01*
X60133089Y-45349342D02*
X60085470Y-45444580D01*
X60085470Y-45444580D02*
X60037851Y-45492200D01*
X60037851Y-45492200D02*
X59942613Y-45539819D01*
X59942613Y-45539819D02*
X59847375Y-45539819D01*
X59847375Y-45539819D02*
X59752137Y-45492200D01*
X59752137Y-45492200D02*
X59704518Y-45444580D01*
X59704518Y-45444580D02*
X59656899Y-45349342D01*
X59656899Y-45349342D02*
X59609280Y-45158866D01*
X59609280Y-45158866D02*
X59609280Y-44920771D01*
X59609280Y-44920771D02*
X59656899Y-44730295D01*
X59656899Y-44730295D02*
X59704518Y-44635057D01*
X59704518Y-44635057D02*
X59752137Y-44587438D01*
X59752137Y-44587438D02*
X59847375Y-44539819D01*
X60561661Y-44635057D02*
X60609280Y-44587438D01*
X60609280Y-44587438D02*
X60704518Y-44539819D01*
X60704518Y-44539819D02*
X60942613Y-44539819D01*
X60942613Y-44539819D02*
X61037851Y-44587438D01*
X61037851Y-44587438D02*
X61085470Y-44635057D01*
X61085470Y-44635057D02*
X61133089Y-44730295D01*
X61133089Y-44730295D02*
X61133089Y-44825533D01*
X61133089Y-44825533D02*
X61085470Y-44968390D01*
X61085470Y-44968390D02*
X60514042Y-45539819D01*
X60514042Y-45539819D02*
X61133089Y-45539819D01*
X61990232Y-44873152D02*
X61990232Y-45539819D01*
X61752137Y-44492200D02*
X61514042Y-45206485D01*
X61514042Y-45206485D02*
X62133089Y-45206485D01*
X63275947Y-45539819D02*
X63275947Y-44539819D01*
X63275947Y-44539819D02*
X63609280Y-45254104D01*
X63609280Y-45254104D02*
X63942613Y-44539819D01*
X63942613Y-44539819D02*
X63942613Y-45539819D01*
X64561661Y-45539819D02*
X64466423Y-45492200D01*
X64466423Y-45492200D02*
X64418804Y-45444580D01*
X64418804Y-45444580D02*
X64371185Y-45349342D01*
X64371185Y-45349342D02*
X64371185Y-45063628D01*
X64371185Y-45063628D02*
X64418804Y-44968390D01*
X64418804Y-44968390D02*
X64466423Y-44920771D01*
X64466423Y-44920771D02*
X64561661Y-44873152D01*
X64561661Y-44873152D02*
X64704518Y-44873152D01*
X64704518Y-44873152D02*
X64799756Y-44920771D01*
X64799756Y-44920771D02*
X64847375Y-44968390D01*
X64847375Y-44968390D02*
X64894994Y-45063628D01*
X64894994Y-45063628D02*
X64894994Y-45349342D01*
X64894994Y-45349342D02*
X64847375Y-45444580D01*
X64847375Y-45444580D02*
X64799756Y-45492200D01*
X64799756Y-45492200D02*
X64704518Y-45539819D01*
X64704518Y-45539819D02*
X64561661Y-45539819D01*
X65752137Y-45539819D02*
X65752137Y-44539819D01*
X65752137Y-45492200D02*
X65656899Y-45539819D01*
X65656899Y-45539819D02*
X65466423Y-45539819D01*
X65466423Y-45539819D02*
X65371185Y-45492200D01*
X65371185Y-45492200D02*
X65323566Y-45444580D01*
X65323566Y-45444580D02*
X65275947Y-45349342D01*
X65275947Y-45349342D02*
X65275947Y-45063628D01*
X65275947Y-45063628D02*
X65323566Y-44968390D01*
X65323566Y-44968390D02*
X65371185Y-44920771D01*
X65371185Y-44920771D02*
X65466423Y-44873152D01*
X65466423Y-44873152D02*
X65656899Y-44873152D01*
X65656899Y-44873152D02*
X65752137Y-44920771D01*
X66656899Y-44873152D02*
X66656899Y-45539819D01*
X66228328Y-44873152D02*
X66228328Y-45396961D01*
X66228328Y-45396961D02*
X66275947Y-45492200D01*
X66275947Y-45492200D02*
X66371185Y-45539819D01*
X66371185Y-45539819D02*
X66514042Y-45539819D01*
X66514042Y-45539819D02*
X66609280Y-45492200D01*
X66609280Y-45492200D02*
X66656899Y-45444580D01*
X67275947Y-45539819D02*
X67180709Y-45492200D01*
X67180709Y-45492200D02*
X67133090Y-45396961D01*
X67133090Y-45396961D02*
X67133090Y-44539819D01*
X68085471Y-45539819D02*
X68085471Y-45016009D01*
X68085471Y-45016009D02*
X68037852Y-44920771D01*
X68037852Y-44920771D02*
X67942614Y-44873152D01*
X67942614Y-44873152D02*
X67752138Y-44873152D01*
X67752138Y-44873152D02*
X67656900Y-44920771D01*
X68085471Y-45492200D02*
X67990233Y-45539819D01*
X67990233Y-45539819D02*
X67752138Y-45539819D01*
X67752138Y-45539819D02*
X67656900Y-45492200D01*
X67656900Y-45492200D02*
X67609281Y-45396961D01*
X67609281Y-45396961D02*
X67609281Y-45301723D01*
X67609281Y-45301723D02*
X67656900Y-45206485D01*
X67656900Y-45206485D02*
X67752138Y-45158866D01*
X67752138Y-45158866D02*
X67990233Y-45158866D01*
X67990233Y-45158866D02*
X68085471Y-45111247D01*
X68561662Y-45539819D02*
X68561662Y-44873152D01*
X68561662Y-45063628D02*
X68609281Y-44968390D01*
X68609281Y-44968390D02*
X68656900Y-44920771D01*
X68656900Y-44920771D02*
X68752138Y-44873152D01*
X68752138Y-44873152D02*
X68847376Y-44873152D01*
X70514043Y-45444580D02*
X70466424Y-45492200D01*
X70466424Y-45492200D02*
X70323567Y-45539819D01*
X70323567Y-45539819D02*
X70228329Y-45539819D01*
X70228329Y-45539819D02*
X70085472Y-45492200D01*
X70085472Y-45492200D02*
X69990234Y-45396961D01*
X69990234Y-45396961D02*
X69942615Y-45301723D01*
X69942615Y-45301723D02*
X69894996Y-45111247D01*
X69894996Y-45111247D02*
X69894996Y-44968390D01*
X69894996Y-44968390D02*
X69942615Y-44777914D01*
X69942615Y-44777914D02*
X69990234Y-44682676D01*
X69990234Y-44682676D02*
X70085472Y-44587438D01*
X70085472Y-44587438D02*
X70228329Y-44539819D01*
X70228329Y-44539819D02*
X70323567Y-44539819D01*
X70323567Y-44539819D02*
X70466424Y-44587438D01*
X70466424Y-44587438D02*
X70514043Y-44635057D01*
X70942615Y-45539819D02*
X70942615Y-44873152D01*
X70942615Y-44539819D02*
X70894996Y-44587438D01*
X70894996Y-44587438D02*
X70942615Y-44635057D01*
X70942615Y-44635057D02*
X70990234Y-44587438D01*
X70990234Y-44587438D02*
X70942615Y-44539819D01*
X70942615Y-44539819D02*
X70942615Y-44635057D01*
X71418805Y-45539819D02*
X71418805Y-44873152D01*
X71418805Y-45063628D02*
X71466424Y-44968390D01*
X71466424Y-44968390D02*
X71514043Y-44920771D01*
X71514043Y-44920771D02*
X71609281Y-44873152D01*
X71609281Y-44873152D02*
X71704519Y-44873152D01*
X72466424Y-45492200D02*
X72371186Y-45539819D01*
X72371186Y-45539819D02*
X72180710Y-45539819D01*
X72180710Y-45539819D02*
X72085472Y-45492200D01*
X72085472Y-45492200D02*
X72037853Y-45444580D01*
X72037853Y-45444580D02*
X71990234Y-45349342D01*
X71990234Y-45349342D02*
X71990234Y-45063628D01*
X71990234Y-45063628D02*
X72037853Y-44968390D01*
X72037853Y-44968390D02*
X72085472Y-44920771D01*
X72085472Y-44920771D02*
X72180710Y-44873152D01*
X72180710Y-44873152D02*
X72371186Y-44873152D01*
X72371186Y-44873152D02*
X72466424Y-44920771D01*
X73323567Y-44873152D02*
X73323567Y-45539819D01*
X72894996Y-44873152D02*
X72894996Y-45396961D01*
X72894996Y-45396961D02*
X72942615Y-45492200D01*
X72942615Y-45492200D02*
X73037853Y-45539819D01*
X73037853Y-45539819D02*
X73180710Y-45539819D01*
X73180710Y-45539819D02*
X73275948Y-45492200D01*
X73275948Y-45492200D02*
X73323567Y-45444580D01*
X73799758Y-45539819D02*
X73799758Y-44873152D01*
X73799758Y-44539819D02*
X73752139Y-44587438D01*
X73752139Y-44587438D02*
X73799758Y-44635057D01*
X73799758Y-44635057D02*
X73847377Y-44587438D01*
X73847377Y-44587438D02*
X73799758Y-44539819D01*
X73799758Y-44539819D02*
X73799758Y-44635057D01*
X74133091Y-44873152D02*
X74514043Y-44873152D01*
X74275948Y-44539819D02*
X74275948Y-45396961D01*
X74275948Y-45396961D02*
X74323567Y-45492200D01*
X74323567Y-45492200D02*
X74418805Y-45539819D01*
X74418805Y-45539819D02*
X74514043Y-45539819D01*
X74799758Y-45492200D02*
X74894996Y-45539819D01*
X74894996Y-45539819D02*
X75085472Y-45539819D01*
X75085472Y-45539819D02*
X75180710Y-45492200D01*
X75180710Y-45492200D02*
X75228329Y-45396961D01*
X75228329Y-45396961D02*
X75228329Y-45349342D01*
X75228329Y-45349342D02*
X75180710Y-45254104D01*
X75180710Y-45254104D02*
X75085472Y-45206485D01*
X75085472Y-45206485D02*
X74942615Y-45206485D01*
X74942615Y-45206485D02*
X74847377Y-45158866D01*
X74847377Y-45158866D02*
X74799758Y-45063628D01*
X74799758Y-45063628D02*
X74799758Y-45016009D01*
X74799758Y-45016009D02*
X74847377Y-44920771D01*
X74847377Y-44920771D02*
X74942615Y-44873152D01*
X74942615Y-44873152D02*
X75085472Y-44873152D01*
X75085472Y-44873152D02*
X75180710Y-44920771D01*
D11*
%TO.C,C5*%
X42515000Y-62950000D03*
X40440000Y-62950000D03*
%TD*%
D12*
%TO.C,TP4*%
X85150000Y-58175000D03*
%TD*%
%TO.C,TP1*%
X81277500Y-64150000D03*
%TD*%
D13*
%TO.C,LED_DONE1*%
X39305000Y-57450000D03*
X40450000Y-57450000D03*
%TD*%
D14*
%TO.C,U6*%
X42628500Y-64550000D03*
X42128500Y-64550000D03*
X41628500Y-64550000D03*
X41628500Y-66050000D03*
X42128500Y-66050000D03*
X42628500Y-66050000D03*
%TD*%
D15*
%TO.C,J_JTAG1*%
X54422500Y-58420000D03*
X54422500Y-62320000D03*
X53152500Y-58420000D03*
X53152500Y-62320000D03*
X51882500Y-58420000D03*
X51882500Y-62320000D03*
X50612500Y-58420000D03*
X50612500Y-62320000D03*
X49342500Y-58420000D03*
X49342500Y-62320000D03*
X48072500Y-58420000D03*
X48072500Y-62320000D03*
%TD*%
D16*
%TO.C,R16*%
X45180000Y-57850000D03*
X46375000Y-57850000D03*
%TD*%
D17*
%TO.C,C7*%
X40377500Y-59012500D03*
X40377500Y-61087500D03*
%TD*%
D16*
%TO.C,R2*%
X78580000Y-57450000D03*
X79775000Y-57450000D03*
%TD*%
D12*
%TO.C,TP2*%
X84777500Y-67250000D03*
%TD*%
D18*
%TO.C,L1*%
X44777500Y-61912500D03*
X44777500Y-59587500D03*
%TD*%
D19*
%TO.C,FID2*%
X70877500Y-57350000D03*
%TD*%
D20*
%TO.C,C11*%
X56967500Y-68157500D03*
X56967500Y-67022500D03*
%TD*%
D21*
%TO.C,C20*%
X57067500Y-57482500D03*
X57067500Y-58617500D03*
%TD*%
D22*
%TO.C,C15*%
X69680000Y-66820000D03*
X70815000Y-66820000D03*
%TD*%
D21*
%TO.C,C23*%
X69427500Y-57282500D03*
X69427500Y-58417500D03*
%TD*%
D23*
%TO.C,SOCKET1*%
X39172500Y-69570000D03*
D24*
X39172500Y-69445000D03*
D23*
X41712500Y-69570000D03*
D24*
X41712500Y-69445000D03*
D23*
X44252500Y-69570000D03*
D24*
X44252500Y-69445000D03*
D23*
X46792500Y-69570000D03*
D24*
X46792500Y-69445000D03*
D23*
X49332500Y-69570000D03*
D24*
X49332500Y-69445000D03*
D23*
X51872500Y-69570000D03*
D24*
X51872500Y-69445000D03*
D23*
X54412500Y-69570000D03*
D24*
X54412500Y-69445000D03*
D23*
X56952500Y-69570000D03*
D24*
X56952500Y-69445000D03*
D23*
X59492500Y-69570000D03*
D24*
X59492500Y-69445000D03*
D23*
X62032500Y-69570000D03*
D24*
X62032500Y-69445000D03*
D23*
X64572500Y-69570000D03*
D24*
X64572500Y-69445000D03*
D23*
X67112500Y-69570000D03*
D24*
X67112500Y-69445000D03*
D23*
X69652500Y-69570000D03*
D24*
X69652500Y-69445000D03*
D23*
X72192500Y-69570000D03*
D24*
X72192500Y-69445000D03*
D23*
X74732500Y-69570000D03*
D24*
X74732500Y-69445000D03*
D23*
X77272500Y-69570000D03*
D24*
X77272500Y-69445000D03*
D23*
X79812500Y-69570000D03*
D24*
X79812500Y-69445000D03*
D23*
X82352500Y-69570000D03*
D24*
X82352500Y-69445000D03*
D23*
X84892500Y-69570000D03*
D24*
X84892500Y-69445000D03*
D23*
X87432500Y-69570000D03*
D24*
X87432500Y-69445000D03*
X87432500Y-55955000D03*
D23*
X87432500Y-55830000D03*
D24*
X84892500Y-55955000D03*
D23*
X84892500Y-55830000D03*
D24*
X82352500Y-55955000D03*
D23*
X82352500Y-55830000D03*
D24*
X79812500Y-55955000D03*
D23*
X79812500Y-55830000D03*
D24*
X77272500Y-55955000D03*
D23*
X77272500Y-55830000D03*
D24*
X74732500Y-55955000D03*
D23*
X74732500Y-55830000D03*
D24*
X72192500Y-55955000D03*
D23*
X72192500Y-55830000D03*
D24*
X69652500Y-55955000D03*
D23*
X69652500Y-55830000D03*
D24*
X67112500Y-55955000D03*
D23*
X67112500Y-55830000D03*
D24*
X64572500Y-55955000D03*
D23*
X64572500Y-55830000D03*
D24*
X62032500Y-55955000D03*
D23*
X62032500Y-55830000D03*
D24*
X59492500Y-55955000D03*
D23*
X59492500Y-55830000D03*
D24*
X56952500Y-55955000D03*
D23*
X56952500Y-55830000D03*
D24*
X54412500Y-55955000D03*
D23*
X54412500Y-55830000D03*
D24*
X51872500Y-55955000D03*
D23*
X51872500Y-55830000D03*
D24*
X49332500Y-55955000D03*
D23*
X49332500Y-55830000D03*
D24*
X46792500Y-55955000D03*
D23*
X46792500Y-55830000D03*
D24*
X44252500Y-55955000D03*
D23*
X44252500Y-55830000D03*
D24*
X41712500Y-55955000D03*
D23*
X41712500Y-55830000D03*
D24*
X39172500Y-55955000D03*
D23*
X39172500Y-55830000D03*
%TD*%
D25*
%TO.C,U1*%
X67502500Y-57915500D03*
X67102500Y-57915500D03*
X66702500Y-57915500D03*
X66302500Y-57915500D03*
X65902500Y-57915500D03*
X65502500Y-57915500D03*
X65102500Y-57915500D03*
X64702500Y-57915500D03*
X64302500Y-57915500D03*
X63902500Y-57915500D03*
X63502500Y-57915500D03*
X63102500Y-57915500D03*
X62702500Y-57915500D03*
X62302500Y-57915500D03*
X61902500Y-57915500D03*
X61502500Y-57915500D03*
X61102500Y-57915500D03*
X60702500Y-57915500D03*
X60302500Y-57915500D03*
X59902500Y-57915500D03*
X59502500Y-57915500D03*
X59102500Y-57915500D03*
D26*
X58367500Y-58650500D03*
X58367500Y-59050500D03*
X58367500Y-59450500D03*
X58367500Y-59850500D03*
X58367500Y-60250500D03*
X58367500Y-60650500D03*
X58367500Y-61050500D03*
X58367500Y-61450500D03*
X58367500Y-61850500D03*
X58367500Y-62250500D03*
X58367500Y-62650500D03*
X58367500Y-63050500D03*
X58367500Y-63450500D03*
X58367500Y-63850500D03*
X58367500Y-64250500D03*
X58367500Y-64650500D03*
X58367500Y-65050500D03*
X58367500Y-65450500D03*
X58367500Y-65850500D03*
X58367500Y-66250500D03*
X58367500Y-66650500D03*
X58367500Y-67050500D03*
D25*
X59102500Y-67785500D03*
X59502500Y-67785500D03*
X59902500Y-67785500D03*
X60302500Y-67785500D03*
X60702500Y-67785500D03*
X61102500Y-67785500D03*
X61502500Y-67785500D03*
X61902500Y-67785500D03*
X62302500Y-67785500D03*
X62702500Y-67785500D03*
X63102500Y-67785500D03*
X63502500Y-67785500D03*
X63902500Y-67785500D03*
X64302500Y-67785500D03*
X64702500Y-67785500D03*
X65102500Y-67785500D03*
X65502500Y-67785500D03*
X65902500Y-67785500D03*
X66302500Y-67785500D03*
X66702500Y-67785500D03*
X67102500Y-67785500D03*
X67502500Y-67785500D03*
D26*
X68237500Y-67050500D03*
X68237500Y-66650500D03*
X68237500Y-66250500D03*
X68237500Y-65850500D03*
X68237500Y-65450500D03*
X68237500Y-65050500D03*
X68237500Y-64650500D03*
X68237500Y-64250500D03*
X68237500Y-63850500D03*
X68237500Y-63450500D03*
X68237500Y-63050500D03*
X68237500Y-62650500D03*
X68237500Y-62250500D03*
X68237500Y-61850500D03*
X68237500Y-61450500D03*
X68237500Y-61050500D03*
X68237500Y-60650500D03*
X68237500Y-60250500D03*
X68237500Y-59850500D03*
X68237500Y-59450500D03*
X68237500Y-59050500D03*
X68237500Y-58650500D03*
D27*
X63302500Y-62850500D03*
%TD*%
D19*
%TO.C,FID9*%
X69677500Y-68050000D03*
%TD*%
%TO.C,FID6*%
X86477500Y-63050000D03*
%TD*%
D12*
%TO.C,TP3*%
X83732500Y-61170000D03*
%TD*%
D28*
%TO.C,R3*%
X79775000Y-58450000D03*
X78580000Y-58450000D03*
%TD*%
D19*
%TO.C,FID8*%
X56377500Y-60850000D03*
%TD*%
%TO.C,FID4*%
X43177500Y-67950000D03*
%TD*%
D28*
%TO.C,R1*%
X42975000Y-57450000D03*
X41780000Y-57450000D03*
%TD*%
D17*
%TO.C,C8*%
X42377500Y-59012500D03*
X42377500Y-61087500D03*
%TD*%
D29*
%TO.C,J_EXT1*%
X46197500Y-67982389D03*
D30*
X46497500Y-64967379D03*
D29*
X46797499Y-67982389D03*
D30*
X47097501Y-64967379D03*
D29*
X47397500Y-67982389D03*
D30*
X47697500Y-64967379D03*
D29*
X47997499Y-67982389D03*
D30*
X48297501Y-64967379D03*
D29*
X48597500Y-67982389D03*
D30*
X48897500Y-64967379D03*
D29*
X49197499Y-67982389D03*
D30*
X49497501Y-64967379D03*
D29*
X49797501Y-67982389D03*
D30*
X50097500Y-64967379D03*
D29*
X50397499Y-67982389D03*
D30*
X50697501Y-64967379D03*
D29*
X50997501Y-67982389D03*
D30*
X51297500Y-64967379D03*
D29*
X51597500Y-67982389D03*
D30*
X51897501Y-64967379D03*
D29*
X52197501Y-67982389D03*
D30*
X52497500Y-64967379D03*
D29*
X52797500Y-67982389D03*
D30*
X53097502Y-64967379D03*
D29*
X53397501Y-67982389D03*
D30*
X53697500Y-64967379D03*
D29*
X53997500Y-67982389D03*
D31*
X45222498Y-67615700D03*
X54972502Y-67615700D03*
%TD*%
D28*
%TO.C,R4*%
X45075000Y-63450000D03*
X43880000Y-63450000D03*
%TD*%
D32*
%TO.C,R5*%
X43777500Y-64552500D03*
X43777500Y-65747500D03*
%TD*%
D33*
%TO.C,J_DISPLAY1*%
X71938500Y-65323000D03*
X71938500Y-64823000D03*
X71938500Y-64323000D03*
X71938500Y-63823000D03*
X71938500Y-63323000D03*
X71938500Y-62823000D03*
X71938500Y-62323000D03*
X71938500Y-61823000D03*
X71938500Y-61323000D03*
X71938500Y-60823000D03*
X71932214Y-60327280D03*
X71938500Y-59823000D03*
D34*
X74988500Y-67073000D03*
X74988500Y-58073000D03*
%TD*%
D21*
%TO.C,C4*%
X56117500Y-57482500D03*
X56117500Y-58617500D03*
%TD*%
D35*
%TO.C,C6*%
X41845000Y-67150000D03*
X40710000Y-67150000D03*
%TD*%
M02*
