%TF.GenerationSoftware,KiCad,Pcbnew,8.0.1-8.0.1-1~ubuntu22.04.1*%
%TF.CreationDate,2024-05-05T11:37:54-07:00*%
%TF.ProjectId,unic_gw1,756e6963-5f67-4773-912e-6b696361645f,1.0*%
%TF.SameCoordinates,Original*%
%TF.FileFunction,Copper,L1,Top*%
%TF.FilePolarity,Positive*%
%FSLAX46Y46*%
G04 Gerber Fmt 4.6, Leading zero omitted, Abs format (unit mm)*
G04 Created by KiCad (PCBNEW 8.0.1-8.0.1-1~ubuntu22.04.1) date 2024-05-05 11:37:54*
%MOMM*%
%LPD*%
G01*
G04 APERTURE LIST*
G04 Aperture macros list*
%AMRoundRect*
0 Rectangle with rounded corners*
0 $1 Rounding radius*
0 $2 $3 $4 $5 $6 $7 $8 $9 X,Y pos of 4 corners*
0 Add a 4 corners polygon primitive as box body*
4,1,4,$2,$3,$4,$5,$6,$7,$8,$9,$2,$3,0*
0 Add four circle primitives for the rounded corners*
1,1,$1+$1,$2,$3*
1,1,$1+$1,$4,$5*
1,1,$1+$1,$6,$7*
1,1,$1+$1,$8,$9*
0 Add four rect primitives between the rounded corners*
20,1,$1+$1,$2,$3,$4,$5,0*
20,1,$1+$1,$4,$5,$6,$7,0*
20,1,$1+$1,$6,$7,$8,$9,0*
20,1,$1+$1,$8,$9,$2,$3,0*%
G04 Aperture macros list end*
%ADD10C,0.150000*%
%TA.AperFunction,NonConductor*%
%ADD11C,0.150000*%
%TD*%
%TA.AperFunction,SMDPad,CuDef*%
%ADD12RoundRect,0.250000X0.337500X0.475000X-0.337500X0.475000X-0.337500X-0.475000X0.337500X-0.475000X0*%
%TD*%
%TA.AperFunction,SMDPad,CuDef*%
%ADD13C,2.000000*%
%TD*%
%TA.AperFunction,SMDPad,CuDef*%
%ADD14RoundRect,0.160000X-0.222500X-0.160000X0.222500X-0.160000X0.222500X0.160000X-0.222500X0.160000X0*%
%TD*%
%TA.AperFunction,SMDPad,CuDef*%
%ADD15RoundRect,0.085000X-0.085000X0.265000X-0.085000X-0.265000X0.085000X-0.265000X0.085000X0.265000X0*%
%TD*%
%TA.AperFunction,SMDPad,CuDef*%
%ADD16R,0.740000X2.400000*%
%TD*%
%TA.AperFunction,SMDPad,CuDef*%
%ADD17RoundRect,0.160000X0.197500X0.160000X-0.197500X0.160000X-0.197500X-0.160000X0.197500X-0.160000X0*%
%TD*%
%TA.AperFunction,SMDPad,CuDef*%
%ADD18RoundRect,0.250000X-0.475000X0.337500X-0.475000X-0.337500X0.475000X-0.337500X0.475000X0.337500X0*%
%TD*%
%TA.AperFunction,SMDPad,CuDef*%
%ADD19RoundRect,0.250001X0.849999X-0.462499X0.849999X0.462499X-0.849999X0.462499X-0.849999X-0.462499X0*%
%TD*%
%TA.AperFunction,SMDPad,CuDef*%
%ADD20C,0.500000*%
%TD*%
%TA.AperFunction,SMDPad,CuDef*%
%ADD21RoundRect,0.155000X-0.155000X0.212500X-0.155000X-0.212500X0.155000X-0.212500X0.155000X0.212500X0*%
%TD*%
%TA.AperFunction,SMDPad,CuDef*%
%ADD22RoundRect,0.155000X0.155000X-0.212500X0.155000X0.212500X-0.155000X0.212500X-0.155000X-0.212500X0*%
%TD*%
%TA.AperFunction,SMDPad,CuDef*%
%ADD23RoundRect,0.155000X0.212500X0.155000X-0.212500X0.155000X-0.212500X-0.155000X0.212500X-0.155000X0*%
%TD*%
%TA.AperFunction,ComponentPad*%
%ADD24C,0.400000*%
%TD*%
%TA.AperFunction,SMDPad,CuDef*%
%ADD25RoundRect,0.225000X0.225000X-0.400000X0.225000X0.400000X-0.225000X0.400000X-0.225000X-0.400000X0*%
%TD*%
%TA.AperFunction,SMDPad,CuDef*%
%ADD26RoundRect,0.006600X-0.103400X0.423400X-0.103400X-0.423400X0.103400X-0.423400X0.103400X0.423400X0*%
%TD*%
%TA.AperFunction,SMDPad,CuDef*%
%ADD27RoundRect,0.006600X-0.423400X-0.103400X0.423400X-0.103400X0.423400X0.103400X-0.423400X0.103400X0*%
%TD*%
%TA.AperFunction,SMDPad,CuDef*%
%ADD28R,6.740000X6.740000*%
%TD*%
%TA.AperFunction,SMDPad,CuDef*%
%ADD29RoundRect,0.160000X-0.197500X-0.160000X0.197500X-0.160000X0.197500X0.160000X-0.197500X0.160000X0*%
%TD*%
%TA.AperFunction,SMDPad,CuDef*%
%ADD30R,0.355600X0.711200*%
%TD*%
%TA.AperFunction,SMDPad,CuDef*%
%ADD31R,0.355600X0.558800*%
%TD*%
%TA.AperFunction,SMDPad,CuDef*%
%ADD32R,0.406400X1.092200*%
%TD*%
%TA.AperFunction,SMDPad,CuDef*%
%ADD33RoundRect,0.160000X0.160000X-0.197500X0.160000X0.197500X-0.160000X0.197500X-0.160000X-0.197500X0*%
%TD*%
%TA.AperFunction,SMDPad,CuDef*%
%ADD34RoundRect,0.075000X0.575000X-0.075000X0.575000X0.075000X-0.575000X0.075000X-0.575000X-0.075000X0*%
%TD*%
%TA.AperFunction,SMDPad,CuDef*%
%ADD35RoundRect,0.400000X0.400000X-0.550000X0.400000X0.550000X-0.400000X0.550000X-0.400000X-0.550000X0*%
%TD*%
%TA.AperFunction,SMDPad,CuDef*%
%ADD36RoundRect,0.155000X-0.212500X-0.155000X0.212500X-0.155000X0.212500X0.155000X-0.212500X0.155000X0*%
%TD*%
%TA.AperFunction,ViaPad*%
%ADD37C,0.400000*%
%TD*%
%TA.AperFunction,Conductor*%
%ADD38C,0.100000*%
%TD*%
%TA.AperFunction,Conductor*%
%ADD39C,0.300000*%
%TD*%
%TA.AperFunction,Conductor*%
%ADD40C,0.400000*%
%TD*%
%TA.AperFunction,Conductor*%
%ADD41C,1.000000*%
%TD*%
G04 APERTURE END LIST*
D10*
D11*
X55609279Y-41319931D02*
X55609279Y-42129454D01*
X55609279Y-42129454D02*
X55656898Y-42224692D01*
X55656898Y-42224692D02*
X55704517Y-42272312D01*
X55704517Y-42272312D02*
X55799755Y-42319931D01*
X55799755Y-42319931D02*
X55990231Y-42319931D01*
X55990231Y-42319931D02*
X56085469Y-42272312D01*
X56085469Y-42272312D02*
X56133088Y-42224692D01*
X56133088Y-42224692D02*
X56180707Y-42129454D01*
X56180707Y-42129454D02*
X56180707Y-41319931D01*
X56656898Y-41653264D02*
X56656898Y-42319931D01*
X56656898Y-41748502D02*
X56704517Y-41700883D01*
X56704517Y-41700883D02*
X56799755Y-41653264D01*
X56799755Y-41653264D02*
X56942612Y-41653264D01*
X56942612Y-41653264D02*
X57037850Y-41700883D01*
X57037850Y-41700883D02*
X57085469Y-41796121D01*
X57085469Y-41796121D02*
X57085469Y-42319931D01*
X57561660Y-42319931D02*
X57561660Y-41319931D01*
X58609278Y-42224692D02*
X58561659Y-42272312D01*
X58561659Y-42272312D02*
X58418802Y-42319931D01*
X58418802Y-42319931D02*
X58323564Y-42319931D01*
X58323564Y-42319931D02*
X58180707Y-42272312D01*
X58180707Y-42272312D02*
X58085469Y-42177073D01*
X58085469Y-42177073D02*
X58037850Y-42081835D01*
X58037850Y-42081835D02*
X57990231Y-41891359D01*
X57990231Y-41891359D02*
X57990231Y-41748502D01*
X57990231Y-41748502D02*
X58037850Y-41558026D01*
X58037850Y-41558026D02*
X58085469Y-41462788D01*
X58085469Y-41462788D02*
X58180707Y-41367550D01*
X58180707Y-41367550D02*
X58323564Y-41319931D01*
X58323564Y-41319931D02*
X58418802Y-41319931D01*
X58418802Y-41319931D02*
X58561659Y-41367550D01*
X58561659Y-41367550D02*
X58609278Y-41415169D01*
X59656898Y-41319931D02*
X59990231Y-42319931D01*
X59990231Y-42319931D02*
X60323564Y-41319931D01*
X61180707Y-42319931D02*
X60609279Y-42319931D01*
X60894993Y-42319931D02*
X60894993Y-41319931D01*
X60894993Y-41319931D02*
X60799755Y-41462788D01*
X60799755Y-41462788D02*
X60704517Y-41558026D01*
X60704517Y-41558026D02*
X60609279Y-41605645D01*
X61609279Y-42224692D02*
X61656898Y-42272312D01*
X61656898Y-42272312D02*
X61609279Y-42319931D01*
X61609279Y-42319931D02*
X61561660Y-42272312D01*
X61561660Y-42272312D02*
X61609279Y-42224692D01*
X61609279Y-42224692D02*
X61609279Y-42319931D01*
X62275945Y-41319931D02*
X62371183Y-41319931D01*
X62371183Y-41319931D02*
X62466421Y-41367550D01*
X62466421Y-41367550D02*
X62514040Y-41415169D01*
X62514040Y-41415169D02*
X62561659Y-41510407D01*
X62561659Y-41510407D02*
X62609278Y-41700883D01*
X62609278Y-41700883D02*
X62609278Y-41938978D01*
X62609278Y-41938978D02*
X62561659Y-42129454D01*
X62561659Y-42129454D02*
X62514040Y-42224692D01*
X62514040Y-42224692D02*
X62466421Y-42272312D01*
X62466421Y-42272312D02*
X62371183Y-42319931D01*
X62371183Y-42319931D02*
X62275945Y-42319931D01*
X62275945Y-42319931D02*
X62180707Y-42272312D01*
X62180707Y-42272312D02*
X62133088Y-42224692D01*
X62133088Y-42224692D02*
X62085469Y-42129454D01*
X62085469Y-42129454D02*
X62037850Y-41938978D01*
X62037850Y-41938978D02*
X62037850Y-41700883D01*
X62037850Y-41700883D02*
X62085469Y-41510407D01*
X62085469Y-41510407D02*
X62133088Y-41415169D01*
X62133088Y-41415169D02*
X62180707Y-41367550D01*
X62180707Y-41367550D02*
X62275945Y-41319931D01*
X55942612Y-43406065D02*
X55609279Y-43406065D01*
X55609279Y-43929875D02*
X55609279Y-42929875D01*
X55609279Y-42929875D02*
X56085469Y-42929875D01*
X56466422Y-43929875D02*
X56466422Y-43263208D01*
X56466422Y-43453684D02*
X56514041Y-43358446D01*
X56514041Y-43358446D02*
X56561660Y-43310827D01*
X56561660Y-43310827D02*
X56656898Y-43263208D01*
X56656898Y-43263208D02*
X56752136Y-43263208D01*
X57228327Y-43929875D02*
X57133089Y-43882256D01*
X57133089Y-43882256D02*
X57085470Y-43834636D01*
X57085470Y-43834636D02*
X57037851Y-43739398D01*
X57037851Y-43739398D02*
X57037851Y-43453684D01*
X57037851Y-43453684D02*
X57085470Y-43358446D01*
X57085470Y-43358446D02*
X57133089Y-43310827D01*
X57133089Y-43310827D02*
X57228327Y-43263208D01*
X57228327Y-43263208D02*
X57371184Y-43263208D01*
X57371184Y-43263208D02*
X57466422Y-43310827D01*
X57466422Y-43310827D02*
X57514041Y-43358446D01*
X57514041Y-43358446D02*
X57561660Y-43453684D01*
X57561660Y-43453684D02*
X57561660Y-43739398D01*
X57561660Y-43739398D02*
X57514041Y-43834636D01*
X57514041Y-43834636D02*
X57466422Y-43882256D01*
X57466422Y-43882256D02*
X57371184Y-43929875D01*
X57371184Y-43929875D02*
X57228327Y-43929875D01*
X57990232Y-43263208D02*
X57990232Y-43929875D01*
X57990232Y-43358446D02*
X58037851Y-43310827D01*
X58037851Y-43310827D02*
X58133089Y-43263208D01*
X58133089Y-43263208D02*
X58275946Y-43263208D01*
X58275946Y-43263208D02*
X58371184Y-43310827D01*
X58371184Y-43310827D02*
X58418803Y-43406065D01*
X58418803Y-43406065D02*
X58418803Y-43929875D01*
X58752137Y-43263208D02*
X59133089Y-43263208D01*
X58894994Y-42929875D02*
X58894994Y-43787017D01*
X58894994Y-43787017D02*
X58942613Y-43882256D01*
X58942613Y-43882256D02*
X59037851Y-43929875D01*
X59037851Y-43929875D02*
X59133089Y-43929875D01*
X60799756Y-43834636D02*
X60752137Y-43882256D01*
X60752137Y-43882256D02*
X60609280Y-43929875D01*
X60609280Y-43929875D02*
X60514042Y-43929875D01*
X60514042Y-43929875D02*
X60371185Y-43882256D01*
X60371185Y-43882256D02*
X60275947Y-43787017D01*
X60275947Y-43787017D02*
X60228328Y-43691779D01*
X60228328Y-43691779D02*
X60180709Y-43501303D01*
X60180709Y-43501303D02*
X60180709Y-43358446D01*
X60180709Y-43358446D02*
X60228328Y-43167970D01*
X60228328Y-43167970D02*
X60275947Y-43072732D01*
X60275947Y-43072732D02*
X60371185Y-42977494D01*
X60371185Y-42977494D02*
X60514042Y-42929875D01*
X60514042Y-42929875D02*
X60609280Y-42929875D01*
X60609280Y-42929875D02*
X60752137Y-42977494D01*
X60752137Y-42977494D02*
X60799756Y-43025113D01*
X61371185Y-43929875D02*
X61275947Y-43882256D01*
X61275947Y-43882256D02*
X61228328Y-43834636D01*
X61228328Y-43834636D02*
X61180709Y-43739398D01*
X61180709Y-43739398D02*
X61180709Y-43453684D01*
X61180709Y-43453684D02*
X61228328Y-43358446D01*
X61228328Y-43358446D02*
X61275947Y-43310827D01*
X61275947Y-43310827D02*
X61371185Y-43263208D01*
X61371185Y-43263208D02*
X61514042Y-43263208D01*
X61514042Y-43263208D02*
X61609280Y-43310827D01*
X61609280Y-43310827D02*
X61656899Y-43358446D01*
X61656899Y-43358446D02*
X61704518Y-43453684D01*
X61704518Y-43453684D02*
X61704518Y-43739398D01*
X61704518Y-43739398D02*
X61656899Y-43834636D01*
X61656899Y-43834636D02*
X61609280Y-43882256D01*
X61609280Y-43882256D02*
X61514042Y-43929875D01*
X61514042Y-43929875D02*
X61371185Y-43929875D01*
X62133090Y-43263208D02*
X62133090Y-44263208D01*
X62133090Y-43310827D02*
X62228328Y-43263208D01*
X62228328Y-43263208D02*
X62418804Y-43263208D01*
X62418804Y-43263208D02*
X62514042Y-43310827D01*
X62514042Y-43310827D02*
X62561661Y-43358446D01*
X62561661Y-43358446D02*
X62609280Y-43453684D01*
X62609280Y-43453684D02*
X62609280Y-43739398D01*
X62609280Y-43739398D02*
X62561661Y-43834636D01*
X62561661Y-43834636D02*
X62514042Y-43882256D01*
X62514042Y-43882256D02*
X62418804Y-43929875D01*
X62418804Y-43929875D02*
X62228328Y-43929875D01*
X62228328Y-43929875D02*
X62133090Y-43882256D01*
X63037852Y-43263208D02*
X63037852Y-44263208D01*
X63037852Y-43310827D02*
X63133090Y-43263208D01*
X63133090Y-43263208D02*
X63323566Y-43263208D01*
X63323566Y-43263208D02*
X63418804Y-43310827D01*
X63418804Y-43310827D02*
X63466423Y-43358446D01*
X63466423Y-43358446D02*
X63514042Y-43453684D01*
X63514042Y-43453684D02*
X63514042Y-43739398D01*
X63514042Y-43739398D02*
X63466423Y-43834636D01*
X63466423Y-43834636D02*
X63418804Y-43882256D01*
X63418804Y-43882256D02*
X63323566Y-43929875D01*
X63323566Y-43929875D02*
X63133090Y-43929875D01*
X63133090Y-43929875D02*
X63037852Y-43882256D01*
X64323566Y-43882256D02*
X64228328Y-43929875D01*
X64228328Y-43929875D02*
X64037852Y-43929875D01*
X64037852Y-43929875D02*
X63942614Y-43882256D01*
X63942614Y-43882256D02*
X63894995Y-43787017D01*
X63894995Y-43787017D02*
X63894995Y-43406065D01*
X63894995Y-43406065D02*
X63942614Y-43310827D01*
X63942614Y-43310827D02*
X64037852Y-43263208D01*
X64037852Y-43263208D02*
X64228328Y-43263208D01*
X64228328Y-43263208D02*
X64323566Y-43310827D01*
X64323566Y-43310827D02*
X64371185Y-43406065D01*
X64371185Y-43406065D02*
X64371185Y-43501303D01*
X64371185Y-43501303D02*
X63894995Y-43596541D01*
X64799757Y-43929875D02*
X64799757Y-43263208D01*
X64799757Y-43453684D02*
X64847376Y-43358446D01*
X64847376Y-43358446D02*
X64894995Y-43310827D01*
X64894995Y-43310827D02*
X64990233Y-43263208D01*
X64990233Y-43263208D02*
X65085471Y-43263208D01*
X55894993Y-45920771D02*
X55847374Y-45873152D01*
X55847374Y-45873152D02*
X55752136Y-45730295D01*
X55752136Y-45730295D02*
X55704517Y-45635057D01*
X55704517Y-45635057D02*
X55656898Y-45492200D01*
X55656898Y-45492200D02*
X55609279Y-45254104D01*
X55609279Y-45254104D02*
X55609279Y-45063628D01*
X55609279Y-45063628D02*
X55656898Y-44825533D01*
X55656898Y-44825533D02*
X55704517Y-44682676D01*
X55704517Y-44682676D02*
X55752136Y-44587438D01*
X55752136Y-44587438D02*
X55847374Y-44444580D01*
X55847374Y-44444580D02*
X55894993Y-44396961D01*
X56847374Y-45444580D02*
X56799755Y-45492200D01*
X56799755Y-45492200D02*
X56656898Y-45539819D01*
X56656898Y-45539819D02*
X56561660Y-45539819D01*
X56561660Y-45539819D02*
X56418803Y-45492200D01*
X56418803Y-45492200D02*
X56323565Y-45396961D01*
X56323565Y-45396961D02*
X56275946Y-45301723D01*
X56275946Y-45301723D02*
X56228327Y-45111247D01*
X56228327Y-45111247D02*
X56228327Y-44968390D01*
X56228327Y-44968390D02*
X56275946Y-44777914D01*
X56275946Y-44777914D02*
X56323565Y-44682676D01*
X56323565Y-44682676D02*
X56418803Y-44587438D01*
X56418803Y-44587438D02*
X56561660Y-44539819D01*
X56561660Y-44539819D02*
X56656898Y-44539819D01*
X56656898Y-44539819D02*
X56799755Y-44587438D01*
X56799755Y-44587438D02*
X56847374Y-44635057D01*
X57180708Y-45920771D02*
X57228327Y-45873152D01*
X57228327Y-45873152D02*
X57323565Y-45730295D01*
X57323565Y-45730295D02*
X57371184Y-45635057D01*
X57371184Y-45635057D02*
X57418803Y-45492200D01*
X57418803Y-45492200D02*
X57466422Y-45254104D01*
X57466422Y-45254104D02*
X57466422Y-45063628D01*
X57466422Y-45063628D02*
X57418803Y-44825533D01*
X57418803Y-44825533D02*
X57371184Y-44682676D01*
X57371184Y-44682676D02*
X57323565Y-44587438D01*
X57323565Y-44587438D02*
X57228327Y-44444580D01*
X57228327Y-44444580D02*
X57180708Y-44396961D01*
X58656899Y-44635057D02*
X58704518Y-44587438D01*
X58704518Y-44587438D02*
X58799756Y-44539819D01*
X58799756Y-44539819D02*
X59037851Y-44539819D01*
X59037851Y-44539819D02*
X59133089Y-44587438D01*
X59133089Y-44587438D02*
X59180708Y-44635057D01*
X59180708Y-44635057D02*
X59228327Y-44730295D01*
X59228327Y-44730295D02*
X59228327Y-44825533D01*
X59228327Y-44825533D02*
X59180708Y-44968390D01*
X59180708Y-44968390D02*
X58609280Y-45539819D01*
X58609280Y-45539819D02*
X59228327Y-45539819D01*
X59847375Y-44539819D02*
X59942613Y-44539819D01*
X59942613Y-44539819D02*
X60037851Y-44587438D01*
X60037851Y-44587438D02*
X60085470Y-44635057D01*
X60085470Y-44635057D02*
X60133089Y-44730295D01*
X60133089Y-44730295D02*
X60180708Y-44920771D01*
X60180708Y-44920771D02*
X60180708Y-45158866D01*
X60180708Y-45158866D02*
X60133089Y-45349342D01*
X60133089Y-45349342D02*
X60085470Y-45444580D01*
X60085470Y-45444580D02*
X60037851Y-45492200D01*
X60037851Y-45492200D02*
X59942613Y-45539819D01*
X59942613Y-45539819D02*
X59847375Y-45539819D01*
X59847375Y-45539819D02*
X59752137Y-45492200D01*
X59752137Y-45492200D02*
X59704518Y-45444580D01*
X59704518Y-45444580D02*
X59656899Y-45349342D01*
X59656899Y-45349342D02*
X59609280Y-45158866D01*
X59609280Y-45158866D02*
X59609280Y-44920771D01*
X59609280Y-44920771D02*
X59656899Y-44730295D01*
X59656899Y-44730295D02*
X59704518Y-44635057D01*
X59704518Y-44635057D02*
X59752137Y-44587438D01*
X59752137Y-44587438D02*
X59847375Y-44539819D01*
X60561661Y-44635057D02*
X60609280Y-44587438D01*
X60609280Y-44587438D02*
X60704518Y-44539819D01*
X60704518Y-44539819D02*
X60942613Y-44539819D01*
X60942613Y-44539819D02*
X61037851Y-44587438D01*
X61037851Y-44587438D02*
X61085470Y-44635057D01*
X61085470Y-44635057D02*
X61133089Y-44730295D01*
X61133089Y-44730295D02*
X61133089Y-44825533D01*
X61133089Y-44825533D02*
X61085470Y-44968390D01*
X61085470Y-44968390D02*
X60514042Y-45539819D01*
X60514042Y-45539819D02*
X61133089Y-45539819D01*
X61990232Y-44873152D02*
X61990232Y-45539819D01*
X61752137Y-44492200D02*
X61514042Y-45206485D01*
X61514042Y-45206485D02*
X62133089Y-45206485D01*
X63275947Y-45539819D02*
X63275947Y-44539819D01*
X63275947Y-44539819D02*
X63609280Y-45254104D01*
X63609280Y-45254104D02*
X63942613Y-44539819D01*
X63942613Y-44539819D02*
X63942613Y-45539819D01*
X64561661Y-45539819D02*
X64466423Y-45492200D01*
X64466423Y-45492200D02*
X64418804Y-45444580D01*
X64418804Y-45444580D02*
X64371185Y-45349342D01*
X64371185Y-45349342D02*
X64371185Y-45063628D01*
X64371185Y-45063628D02*
X64418804Y-44968390D01*
X64418804Y-44968390D02*
X64466423Y-44920771D01*
X64466423Y-44920771D02*
X64561661Y-44873152D01*
X64561661Y-44873152D02*
X64704518Y-44873152D01*
X64704518Y-44873152D02*
X64799756Y-44920771D01*
X64799756Y-44920771D02*
X64847375Y-44968390D01*
X64847375Y-44968390D02*
X64894994Y-45063628D01*
X64894994Y-45063628D02*
X64894994Y-45349342D01*
X64894994Y-45349342D02*
X64847375Y-45444580D01*
X64847375Y-45444580D02*
X64799756Y-45492200D01*
X64799756Y-45492200D02*
X64704518Y-45539819D01*
X64704518Y-45539819D02*
X64561661Y-45539819D01*
X65752137Y-45539819D02*
X65752137Y-44539819D01*
X65752137Y-45492200D02*
X65656899Y-45539819D01*
X65656899Y-45539819D02*
X65466423Y-45539819D01*
X65466423Y-45539819D02*
X65371185Y-45492200D01*
X65371185Y-45492200D02*
X65323566Y-45444580D01*
X65323566Y-45444580D02*
X65275947Y-45349342D01*
X65275947Y-45349342D02*
X65275947Y-45063628D01*
X65275947Y-45063628D02*
X65323566Y-44968390D01*
X65323566Y-44968390D02*
X65371185Y-44920771D01*
X65371185Y-44920771D02*
X65466423Y-44873152D01*
X65466423Y-44873152D02*
X65656899Y-44873152D01*
X65656899Y-44873152D02*
X65752137Y-44920771D01*
X66656899Y-44873152D02*
X66656899Y-45539819D01*
X66228328Y-44873152D02*
X66228328Y-45396961D01*
X66228328Y-45396961D02*
X66275947Y-45492200D01*
X66275947Y-45492200D02*
X66371185Y-45539819D01*
X66371185Y-45539819D02*
X66514042Y-45539819D01*
X66514042Y-45539819D02*
X66609280Y-45492200D01*
X66609280Y-45492200D02*
X66656899Y-45444580D01*
X67275947Y-45539819D02*
X67180709Y-45492200D01*
X67180709Y-45492200D02*
X67133090Y-45396961D01*
X67133090Y-45396961D02*
X67133090Y-44539819D01*
X68085471Y-45539819D02*
X68085471Y-45016009D01*
X68085471Y-45016009D02*
X68037852Y-44920771D01*
X68037852Y-44920771D02*
X67942614Y-44873152D01*
X67942614Y-44873152D02*
X67752138Y-44873152D01*
X67752138Y-44873152D02*
X67656900Y-44920771D01*
X68085471Y-45492200D02*
X67990233Y-45539819D01*
X67990233Y-45539819D02*
X67752138Y-45539819D01*
X67752138Y-45539819D02*
X67656900Y-45492200D01*
X67656900Y-45492200D02*
X67609281Y-45396961D01*
X67609281Y-45396961D02*
X67609281Y-45301723D01*
X67609281Y-45301723D02*
X67656900Y-45206485D01*
X67656900Y-45206485D02*
X67752138Y-45158866D01*
X67752138Y-45158866D02*
X67990233Y-45158866D01*
X67990233Y-45158866D02*
X68085471Y-45111247D01*
X68561662Y-45539819D02*
X68561662Y-44873152D01*
X68561662Y-45063628D02*
X68609281Y-44968390D01*
X68609281Y-44968390D02*
X68656900Y-44920771D01*
X68656900Y-44920771D02*
X68752138Y-44873152D01*
X68752138Y-44873152D02*
X68847376Y-44873152D01*
X70514043Y-45444580D02*
X70466424Y-45492200D01*
X70466424Y-45492200D02*
X70323567Y-45539819D01*
X70323567Y-45539819D02*
X70228329Y-45539819D01*
X70228329Y-45539819D02*
X70085472Y-45492200D01*
X70085472Y-45492200D02*
X69990234Y-45396961D01*
X69990234Y-45396961D02*
X69942615Y-45301723D01*
X69942615Y-45301723D02*
X69894996Y-45111247D01*
X69894996Y-45111247D02*
X69894996Y-44968390D01*
X69894996Y-44968390D02*
X69942615Y-44777914D01*
X69942615Y-44777914D02*
X69990234Y-44682676D01*
X69990234Y-44682676D02*
X70085472Y-44587438D01*
X70085472Y-44587438D02*
X70228329Y-44539819D01*
X70228329Y-44539819D02*
X70323567Y-44539819D01*
X70323567Y-44539819D02*
X70466424Y-44587438D01*
X70466424Y-44587438D02*
X70514043Y-44635057D01*
X70942615Y-45539819D02*
X70942615Y-44873152D01*
X70942615Y-44539819D02*
X70894996Y-44587438D01*
X70894996Y-44587438D02*
X70942615Y-44635057D01*
X70942615Y-44635057D02*
X70990234Y-44587438D01*
X70990234Y-44587438D02*
X70942615Y-44539819D01*
X70942615Y-44539819D02*
X70942615Y-44635057D01*
X71418805Y-45539819D02*
X71418805Y-44873152D01*
X71418805Y-45063628D02*
X71466424Y-44968390D01*
X71466424Y-44968390D02*
X71514043Y-44920771D01*
X71514043Y-44920771D02*
X71609281Y-44873152D01*
X71609281Y-44873152D02*
X71704519Y-44873152D01*
X72466424Y-45492200D02*
X72371186Y-45539819D01*
X72371186Y-45539819D02*
X72180710Y-45539819D01*
X72180710Y-45539819D02*
X72085472Y-45492200D01*
X72085472Y-45492200D02*
X72037853Y-45444580D01*
X72037853Y-45444580D02*
X71990234Y-45349342D01*
X71990234Y-45349342D02*
X71990234Y-45063628D01*
X71990234Y-45063628D02*
X72037853Y-44968390D01*
X72037853Y-44968390D02*
X72085472Y-44920771D01*
X72085472Y-44920771D02*
X72180710Y-44873152D01*
X72180710Y-44873152D02*
X72371186Y-44873152D01*
X72371186Y-44873152D02*
X72466424Y-44920771D01*
X73323567Y-44873152D02*
X73323567Y-45539819D01*
X72894996Y-44873152D02*
X72894996Y-45396961D01*
X72894996Y-45396961D02*
X72942615Y-45492200D01*
X72942615Y-45492200D02*
X73037853Y-45539819D01*
X73037853Y-45539819D02*
X73180710Y-45539819D01*
X73180710Y-45539819D02*
X73275948Y-45492200D01*
X73275948Y-45492200D02*
X73323567Y-45444580D01*
X73799758Y-45539819D02*
X73799758Y-44873152D01*
X73799758Y-44539819D02*
X73752139Y-44587438D01*
X73752139Y-44587438D02*
X73799758Y-44635057D01*
X73799758Y-44635057D02*
X73847377Y-44587438D01*
X73847377Y-44587438D02*
X73799758Y-44539819D01*
X73799758Y-44539819D02*
X73799758Y-44635057D01*
X74133091Y-44873152D02*
X74514043Y-44873152D01*
X74275948Y-44539819D02*
X74275948Y-45396961D01*
X74275948Y-45396961D02*
X74323567Y-45492200D01*
X74323567Y-45492200D02*
X74418805Y-45539819D01*
X74418805Y-45539819D02*
X74514043Y-45539819D01*
X74799758Y-45492200D02*
X74894996Y-45539819D01*
X74894996Y-45539819D02*
X75085472Y-45539819D01*
X75085472Y-45539819D02*
X75180710Y-45492200D01*
X75180710Y-45492200D02*
X75228329Y-45396961D01*
X75228329Y-45396961D02*
X75228329Y-45349342D01*
X75228329Y-45349342D02*
X75180710Y-45254104D01*
X75180710Y-45254104D02*
X75085472Y-45206485D01*
X75085472Y-45206485D02*
X74942615Y-45206485D01*
X74942615Y-45206485D02*
X74847377Y-45158866D01*
X74847377Y-45158866D02*
X74799758Y-45063628D01*
X74799758Y-45063628D02*
X74799758Y-45016009D01*
X74799758Y-45016009D02*
X74847377Y-44920771D01*
X74847377Y-44920771D02*
X74942615Y-44873152D01*
X74942615Y-44873152D02*
X75085472Y-44873152D01*
X75085472Y-44873152D02*
X75180710Y-44920771D01*
D12*
%TO.P,C5,1*%
%TO.N,LINE*%
X42515000Y-62950000D03*
%TO.P,C5,2*%
%TO.N,GND*%
X40440000Y-62950000D03*
%TD*%
D13*
%TO.P,TP4,1,1*%
%TO.N,+1V2*%
X85150000Y-58175000D03*
%TD*%
%TO.P,TP1,1,1*%
%TO.N,LINE*%
X81277500Y-64150000D03*
%TD*%
D14*
%TO.P,LED_DONE1,1,K*%
%TO.N,GND*%
X39305000Y-57450000D03*
%TO.P,LED_DONE1,2,A*%
%TO.N,Net-(LED_DONE1-A)*%
X40450000Y-57450000D03*
%TD*%
D15*
%TO.P,U6,1,VIN*%
%TO.N,LINE*%
X42628500Y-64550000D03*
%TO.P,U6,2,SW*%
%TO.N,Net-(U6-SW)*%
X42128500Y-64550000D03*
%TO.P,U6,3,GND*%
%TO.N,GND*%
X41628500Y-64550000D03*
%TO.P,U6,4,BST*%
%TO.N,Net-(U6-BST)*%
X41628500Y-66050000D03*
%TO.P,U6,5,EN*%
%TO.N,LINE*%
X42128500Y-66050000D03*
%TO.P,U6,6,FB*%
%TO.N,Net-(U6-FB)*%
X42628500Y-66050000D03*
%TD*%
D16*
%TO.P,J_JTAG1,1,Pin_1*%
%TO.N,/IO6B*%
X54422500Y-58420000D03*
%TO.P,J_JTAG1,2,Pin_2*%
%TO.N,/IO6A*%
X54422500Y-62320000D03*
%TO.P,J_JTAG1,3,Pin_3*%
%TO.N,+3V3*%
X53152500Y-58420000D03*
%TO.P,J_JTAG1,4,Pin_4*%
%TO.N,/JTAG_TMS*%
X53152500Y-62320000D03*
%TO.P,J_JTAG1,5,Pin_5*%
%TO.N,GND*%
X51882500Y-58420000D03*
%TO.P,J_JTAG1,6,Pin_6*%
%TO.N,/JTAG_TCK*%
X51882500Y-62320000D03*
%TO.P,J_JTAG1,7,Pin_7*%
%TO.N,GND*%
X50612500Y-58420000D03*
%TO.P,J_JTAG1,8,Pin_8*%
%TO.N,/JTAG_TDO*%
X50612500Y-62320000D03*
%TO.P,J_JTAG1,9,Pin_9*%
%TO.N,/RECONFIG_N*%
X49342500Y-58420000D03*
%TO.P,J_JTAG1,10,Pin_10*%
%TO.N,/JTAG_TDI*%
X49342500Y-62320000D03*
%TO.P,J_JTAG1,11,Pin_11*%
%TO.N,/JTAG_SEL_N*%
X48072500Y-58420000D03*
%TO.P,J_JTAG1,12,Pin_12*%
%TO.N,unconnected-(J_JTAG1-Pin_12-Pad12)*%
X48072500Y-62320000D03*
%TD*%
D17*
%TO.P,R16,1*%
%TO.N,+3V3*%
X45180000Y-57850000D03*
%TO.P,R16,2*%
%TO.N,/JTAG_SEL_N*%
X46375000Y-57850000D03*
%TD*%
D18*
%TO.P,C7,1*%
%TO.N,+3V3*%
X40377500Y-59012500D03*
%TO.P,C7,2*%
%TO.N,GND*%
X40377500Y-61087500D03*
%TD*%
D17*
%TO.P,R2,1*%
%TO.N,+3V3*%
X78580000Y-57450000D03*
%TO.P,R2,2*%
%TO.N,/LCD_RST_N*%
X79775000Y-57450000D03*
%TD*%
D13*
%TO.P,TP2,1,1*%
%TO.N,+5V*%
X84777500Y-67250000D03*
%TD*%
D19*
%TO.P,L1,1*%
%TO.N,Net-(U6-SW)*%
X44777500Y-61912500D03*
%TO.P,L1,2*%
%TO.N,+3V3*%
X44777500Y-59587500D03*
%TD*%
D20*
%TO.P,FID2,*%
%TO.N,*%
X70877500Y-57350000D03*
%TD*%
D21*
%TO.P,C11,1*%
%TO.N,+3V3*%
X56967500Y-68157500D03*
%TO.P,C11,2*%
%TO.N,GND*%
X56967500Y-67022500D03*
%TD*%
D22*
%TO.P,C20,1*%
%TO.N,+1V2*%
X57067500Y-57482500D03*
%TO.P,C20,2*%
%TO.N,GND*%
X57067500Y-58617500D03*
%TD*%
D23*
%TO.P,C15,1*%
%TO.N,+3V3*%
X69680000Y-66820000D03*
%TO.P,C15,2*%
%TO.N,GND*%
X70815000Y-66820000D03*
%TD*%
D22*
%TO.P,C23,1*%
%TO.N,+1V2*%
X69427500Y-57282500D03*
%TO.P,C23,2*%
%TO.N,GND*%
X69427500Y-58417500D03*
%TD*%
D24*
%TO.P,SOCKET1,1,Pin_1*%
%TO.N,/PIN1*%
X39172500Y-69570000D03*
D25*
X39172500Y-69445000D03*
D24*
%TO.P,SOCKET1,2,Pin_2*%
%TO.N,/PIN2*%
X41712500Y-69570000D03*
D25*
X41712500Y-69445000D03*
D24*
%TO.P,SOCKET1,3,Pin_3*%
%TO.N,/PIN3*%
X44252500Y-69570000D03*
D25*
X44252500Y-69445000D03*
D24*
%TO.P,SOCKET1,4,Pin_4*%
%TO.N,/PIN4*%
X46792500Y-69570000D03*
D25*
X46792500Y-69445000D03*
D24*
%TO.P,SOCKET1,5,Pin_5*%
%TO.N,/PIN5*%
X49332500Y-69570000D03*
D25*
X49332500Y-69445000D03*
D24*
%TO.P,SOCKET1,6,Pin_6*%
%TO.N,/PIN6*%
X51872500Y-69570000D03*
D25*
X51872500Y-69445000D03*
D24*
%TO.P,SOCKET1,7,Pin_7*%
%TO.N,/PIN7*%
X54412500Y-69570000D03*
D25*
X54412500Y-69445000D03*
D24*
%TO.P,SOCKET1,8,Pin_8*%
%TO.N,/PIN8*%
X56952500Y-69570000D03*
D25*
X56952500Y-69445000D03*
D24*
%TO.P,SOCKET1,9,Pin_9*%
%TO.N,/PIN9*%
X59492500Y-69570000D03*
D25*
X59492500Y-69445000D03*
D24*
%TO.P,SOCKET1,10,Pin_10*%
%TO.N,/PIN10*%
X62032500Y-69570000D03*
D25*
X62032500Y-69445000D03*
D24*
%TO.P,SOCKET1,11,Pin_11*%
%TO.N,/PIN11*%
X64572500Y-69570000D03*
D25*
X64572500Y-69445000D03*
D24*
%TO.P,SOCKET1,12,Pin_12*%
%TO.N,/PIN12*%
X67112500Y-69570000D03*
D25*
X67112500Y-69445000D03*
D24*
%TO.P,SOCKET1,13,Pin_13*%
%TO.N,/PIN13*%
X69652500Y-69570000D03*
D25*
X69652500Y-69445000D03*
D24*
%TO.P,SOCKET1,14,Pin_14*%
%TO.N,/PIN14*%
X72192500Y-69570000D03*
D25*
X72192500Y-69445000D03*
D24*
%TO.P,SOCKET1,15,Pin_15*%
%TO.N,/PIN15*%
X74732500Y-69570000D03*
D25*
X74732500Y-69445000D03*
D24*
%TO.P,SOCKET1,16,Pin_16*%
%TO.N,/PIN16*%
X77272500Y-69570000D03*
D25*
X77272500Y-69445000D03*
D24*
%TO.P,SOCKET1,17,Pin_17*%
%TO.N,/PIN17*%
X79812500Y-69570000D03*
D25*
X79812500Y-69445000D03*
D24*
%TO.P,SOCKET1,18,Pin_18*%
%TO.N,/PIN18*%
X82352500Y-69570000D03*
D25*
X82352500Y-69445000D03*
D24*
%TO.P,SOCKET1,19,Pin_19*%
%TO.N,/PIN19*%
X84892500Y-69570000D03*
D25*
X84892500Y-69445000D03*
D24*
%TO.P,SOCKET1,20,Pin_20*%
%TO.N,/PIN20*%
X87432500Y-69570000D03*
D25*
X87432500Y-69445000D03*
%TO.P,SOCKET1,21,Pin_21*%
%TO.N,/PIN21*%
X87432500Y-55955000D03*
D24*
X87432500Y-55830000D03*
D25*
%TO.P,SOCKET1,22,Pin_22*%
%TO.N,/PIN22*%
X84892500Y-55955000D03*
D24*
X84892500Y-55830000D03*
D25*
%TO.P,SOCKET1,23,Pin_23*%
%TO.N,/PIN23*%
X82352500Y-55955000D03*
D24*
X82352500Y-55830000D03*
D25*
%TO.P,SOCKET1,24,Pin_24*%
%TO.N,/PIN24*%
X79812500Y-55955000D03*
D24*
X79812500Y-55830000D03*
D25*
%TO.P,SOCKET1,25,Pin_25*%
%TO.N,/PIN25*%
X77272500Y-55955000D03*
D24*
X77272500Y-55830000D03*
D25*
%TO.P,SOCKET1,26,Pin_26*%
%TO.N,/PIN26*%
X74732500Y-55955000D03*
D24*
X74732500Y-55830000D03*
D25*
%TO.P,SOCKET1,27,Pin_27*%
%TO.N,/PIN27*%
X72192500Y-55955000D03*
D24*
X72192500Y-55830000D03*
D25*
%TO.P,SOCKET1,28,Pin_28*%
%TO.N,/PIN28*%
X69652500Y-55955000D03*
D24*
X69652500Y-55830000D03*
D25*
%TO.P,SOCKET1,29,Pin_29*%
%TO.N,/PIN29*%
X67112500Y-55955000D03*
D24*
X67112500Y-55830000D03*
D25*
%TO.P,SOCKET1,30,Pin_30*%
%TO.N,/PIN30*%
X64572500Y-55955000D03*
D24*
X64572500Y-55830000D03*
D25*
%TO.P,SOCKET1,31,Pin_31*%
%TO.N,/PIN31*%
X62032500Y-55955000D03*
D24*
X62032500Y-55830000D03*
D25*
%TO.P,SOCKET1,32,Pin_32*%
%TO.N,/PIN32*%
X59492500Y-55955000D03*
D24*
X59492500Y-55830000D03*
D25*
%TO.P,SOCKET1,33,Pin_33*%
%TO.N,/PIN33*%
X56952500Y-55955000D03*
D24*
X56952500Y-55830000D03*
D25*
%TO.P,SOCKET1,34,Pin_34*%
%TO.N,/PIN34*%
X54412500Y-55955000D03*
D24*
X54412500Y-55830000D03*
D25*
%TO.P,SOCKET1,35,Pin_35*%
%TO.N,/PIN35*%
X51872500Y-55955000D03*
D24*
X51872500Y-55830000D03*
D25*
%TO.P,SOCKET1,36,Pin_36*%
%TO.N,/PIN36*%
X49332500Y-55955000D03*
D24*
X49332500Y-55830000D03*
D25*
%TO.P,SOCKET1,37,Pin_37*%
%TO.N,/PIN37*%
X46792500Y-55955000D03*
D24*
X46792500Y-55830000D03*
D25*
%TO.P,SOCKET1,38,Pin_38*%
%TO.N,/PIN38*%
X44252500Y-55955000D03*
D24*
X44252500Y-55830000D03*
D25*
%TO.P,SOCKET1,39,Pin_39*%
%TO.N,/PIN39*%
X41712500Y-55955000D03*
D24*
X41712500Y-55830000D03*
D25*
%TO.P,SOCKET1,40,Pin_40*%
%TO.N,/PIN40*%
X39172500Y-55955000D03*
D24*
X39172500Y-55830000D03*
%TD*%
D26*
%TO.P,U1,1,VCC*%
%TO.N,+1V2*%
X67502500Y-57915500D03*
%TO.P,U1,2,VSS*%
%TO.N,GND*%
X67102500Y-57915500D03*
%TO.P,U1,3,IOL2A*%
%TO.N,/PIN27_F*%
X66702500Y-57915500D03*
%TO.P,U1,4,IOL5A/JTAGSEL_N/LPLL_T_IN*%
%TO.N,/JTAG_SEL_N*%
X66302500Y-57915500D03*
%TO.P,U1,5,IOL11A/TMS*%
%TO.N,/JTAG_TMS*%
X65902500Y-57915500D03*
%TO.P,U1,6,IOL11B/TCK*%
%TO.N,/JTAG_TCK*%
X65502500Y-57915500D03*
%TO.P,U1,7,IOL12B/TDI*%
%TO.N,/JTAG_TDI*%
X65102500Y-57915500D03*
%TO.P,U1,8,IOL13A/TDO*%
%TO.N,/JTAG_TDO*%
X64702500Y-57915500D03*
%TO.P,U1,9,IOL13B/RECONFIG_N*%
%TO.N,/RECONFIG_N*%
X64302500Y-57915500D03*
%TO.P,U1,10,IOL14A/DONE*%
%TO.N,/DONE*%
X63902500Y-57915500D03*
%TO.P,U1,11,IOL15A/GCLKT_6*%
%TO.N,/PIN28_F*%
X63502500Y-57915500D03*
%TO.P,U1,12,VCCO3*%
%TO.N,+3V3*%
X63102500Y-57915500D03*
%TO.P,U1,13,IOL22A*%
%TO.N,/PIN33_F*%
X62702500Y-57915500D03*
%TO.P,U1,14,IOL22B*%
%TO.N,/PIN34_F*%
X62302500Y-57915500D03*
%TO.P,U1,15,IOL26A*%
%TO.N,/PIN35_F*%
X61902500Y-57915500D03*
%TO.P,U1,16,IOL26B*%
%TO.N,/PIN36_F*%
X61502500Y-57915500D03*
%TO.P,U1,17,IOB2A*%
%TO.N,/PIN39_F*%
X61102500Y-57915500D03*
%TO.P,U1,18,IOB2B*%
%TO.N,/PIN38_F*%
X60702500Y-57915500D03*
%TO.P,U1,19,IOB4A*%
%TO.N,/PIN40_F*%
X60302500Y-57915500D03*
%TO.P,U1,20,IOB4B*%
%TO.N,/PIN37_F*%
X59902500Y-57915500D03*
%TO.P,U1,21,VSS*%
%TO.N,GND*%
X59502500Y-57915500D03*
%TO.P,U1,22,VCC*%
%TO.N,+1V2*%
X59102500Y-57915500D03*
D27*
%TO.P,U1,23,VCCO2*%
%TO.N,+3V3*%
X58367500Y-58650500D03*
%TO.P,U1,24,VSS*%
%TO.N,GND*%
X58367500Y-59050500D03*
%TO.P,U1,25,IOB8A*%
%TO.N,/PIN6_F*%
X58367500Y-59450500D03*
%TO.P,U1,26,IOB8B*%
%TO.N,/PIN5_F*%
X58367500Y-59850500D03*
%TO.P,U1,27,IOB11A*%
%TO.N,/PIN3_F*%
X58367500Y-60250500D03*
%TO.P,U1,28,IOB11B*%
%TO.N,/PIN4_F*%
X58367500Y-60650500D03*
%TO.P,U1,29,IOB13A*%
%TO.N,/PIN1_F*%
X58367500Y-61050500D03*
%TO.P,U1,30,IOB13B*%
%TO.N,/PIN2_F*%
X58367500Y-61450500D03*
%TO.P,U1,31,IOB17A*%
%TO.N,/IO4A*%
X58367500Y-61850500D03*
%TO.P,U1,32,IOB17B*%
%TO.N,/IO4B*%
X58367500Y-62250500D03*
%TO.P,U1,33,IOB23A*%
%TO.N,/IO6A*%
X58367500Y-62650500D03*
%TO.P,U1,34,IOB23B*%
%TO.N,/IO6B*%
X58367500Y-63050500D03*
%TO.P,U1,35,IOB29A/GCLKT_4*%
%TO.N,/IO2B*%
X58367500Y-63450500D03*
%TO.P,U1,36,IOB29B/GCLKC_4*%
%TO.N,/IO2A*%
X58367500Y-63850500D03*
%TO.P,U1,37,IOB31A*%
%TO.N,/IO1A*%
X58367500Y-64250500D03*
%TO.P,U1,38,IOB31B*%
%TO.N,/IO1B*%
X58367500Y-64650500D03*
%TO.P,U1,39,IOB33A*%
%TO.N,/IO3A*%
X58367500Y-65050500D03*
%TO.P,U1,40,IOB33B*%
%TO.N,/IO3B*%
X58367500Y-65450500D03*
%TO.P,U1,41,IOB41A*%
%TO.N,/IO5A*%
X58367500Y-65850500D03*
%TO.P,U1,42,IOB41B*%
%TO.N,/IO5B*%
X58367500Y-66250500D03*
%TO.P,U1,43,VSS*%
%TO.N,GND*%
X58367500Y-66650500D03*
%TO.P,U1,44,VCCO2*%
%TO.N,+3V3*%
X58367500Y-67050500D03*
D26*
%TO.P,U1,45,VCC*%
%TO.N,+1V2*%
X59102500Y-67785500D03*
%TO.P,U1,46,VSS*%
%TO.N,GND*%
X59502500Y-67785500D03*
%TO.P,U1,47,IOB43B*%
%TO.N,/PIN7_F*%
X59902500Y-67785500D03*
%TO.P,U1,48,IOR24B*%
%TO.N,/PIN8_F*%
X60302500Y-67785500D03*
%TO.P,U1,49,IOR24A*%
%TO.N,/PIN19_F*%
X60702500Y-67785500D03*
%TO.P,U1,50,IOR22B*%
%TO.N,/PIN12_F*%
X61102500Y-67785500D03*
%TO.P,U1,51,IOR17B/GCLKC_3*%
%TO.N,/PIN18_F*%
X61502500Y-67785500D03*
%TO.P,U1,52,IOR17A/GCLKT_3*%
%TO.N,/CLK1*%
X61902500Y-67785500D03*
%TO.P,U1,53,IOR15B/DOUT/WE_N*%
%TO.N,/PIN17_F*%
X62302500Y-67785500D03*
%TO.P,U1,54,IOR15A/DIN/CLKHOLD_N*%
%TO.N,/PIN16_F*%
X62702500Y-67785500D03*
%TO.P,U1,55,IOR14B/SSPI_CS_N/D0*%
%TO.N,/SPI_IO2*%
X63102500Y-67785500D03*
%TO.P,U1,56,IOR14A/SO/D1*%
%TO.N,/SPI_IO3*%
X63502500Y-67785500D03*
%TO.P,U1,57,IOR13A/FASTRD_N/D3*%
%TO.N,Net-(U1-IOR13A{slash}FASTRD_N{slash}D3)*%
X63902500Y-67785500D03*
%TO.P,U1,58,VCCO1*%
%TO.N,+3V3*%
X64302500Y-67785500D03*
%TO.P,U1,59,IOR12B/MCLK/D4*%
%TO.N,/SPI_CLK*%
X64702500Y-67785500D03*
%TO.P,U1,60,IOR12A/MCS_N/D5*%
%TO.N,/FLASH_CS_N*%
X65102500Y-67785500D03*
%TO.P,U1,61,IOR11B/MO/D6*%
%TO.N,/SPI_MOSI_IO0*%
X65502500Y-67785500D03*
%TO.P,U1,62,IOR11A/MI/D7*%
%TO.N,/SPI_MISO_IO1*%
X65902500Y-67785500D03*
%TO.P,U1,63,IOR5A/RPLL_T_IN*%
%TO.N,/PIN14_F*%
X66302500Y-67785500D03*
%TO.P,U1,64,VCCX*%
%TO.N,+3V3*%
X66702500Y-67785500D03*
%TO.P,U1,65,VSS*%
%TO.N,GND*%
X67102500Y-67785500D03*
%TO.P,U1,66,VCC*%
%TO.N,+1V2*%
X67502500Y-67785500D03*
D27*
%TO.P,U1,67,VCCO0*%
%TO.N,+3V3*%
X68237500Y-67050500D03*
%TO.P,U1,68,IOT42B*%
%TO.N,/PIN15_F*%
X68237500Y-66650500D03*
%TO.P,U1,69,IOT42A*%
%TO.N,/PIN10_F*%
X68237500Y-66250500D03*
%TO.P,U1,70,IOT41B*%
%TO.N,/PIN9_F*%
X68237500Y-65850500D03*
%TO.P,U1,71,IOT41A*%
%TO.N,/PIN20_F*%
X68237500Y-65450500D03*
%TO.P,U1,72,IOT39B*%
%TO.N,/PIN13_F*%
X68237500Y-65050500D03*
%TO.P,U1,73,IOT39A*%
%TO.N,/PIN11_F*%
X68237500Y-64650500D03*
%TO.P,U1,74,IOT38B*%
%TO.N,/PIN30_F*%
X68237500Y-64250500D03*
%TO.P,U1,75,IOT38A*%
%TO.N,/PIN21_F*%
X68237500Y-63850500D03*
%TO.P,U1,76,IOT37B*%
%TO.N,/PSRAM_CS_N*%
X68237500Y-63450500D03*
%TO.P,U1,77,IOT37A*%
%TO.N,/PIN22_F*%
X68237500Y-63050500D03*
%TO.P,U1,78,VCCX*%
%TO.N,+3V3*%
X68237500Y-62650500D03*
%TO.P,U1,79,IOT12B*%
%TO.N,/LCD_CS_N*%
X68237500Y-62250500D03*
%TO.P,U1,80,IOT12A*%
%TO.N,/PIN23_F*%
X68237500Y-61850500D03*
%TO.P,U1,81,IOT11B*%
%TO.N,/PIN29_F*%
X68237500Y-61450500D03*
%TO.P,U1,82,IOT11A*%
%TO.N,/PIN24_F*%
X68237500Y-61050500D03*
%TO.P,U1,83,IOT10B*%
%TO.N,/PIN25_F*%
X68237500Y-60650500D03*
%TO.P,U1,84,IOT10A*%
%TO.N,/PIN32_F*%
X68237500Y-60250500D03*
%TO.P,U1,85,IOT8B*%
%TO.N,/PIN26_F*%
X68237500Y-59850500D03*
%TO.P,U1,86,IOT8A*%
%TO.N,/PIN31_F*%
X68237500Y-59450500D03*
%TO.P,U1,87,IOT6B/MODE1*%
%TO.N,/LCD_RST_N*%
X68237500Y-59050500D03*
%TO.P,U1,88,IOT5A/MODE0*%
%TO.N,GND*%
X68237500Y-58650500D03*
D28*
%TO.P,U1,89,EXP*%
X63302500Y-62850500D03*
%TD*%
D20*
%TO.P,FID9,*%
%TO.N,*%
X69677500Y-68050000D03*
%TD*%
%TO.P,FID6,*%
%TO.N,*%
X86477500Y-63050000D03*
%TD*%
D13*
%TO.P,TP3,1,1*%
%TO.N,+3V3*%
X83732500Y-61170000D03*
%TD*%
D29*
%TO.P,R3,1*%
%TO.N,/LCD_RST_N*%
X79775000Y-58450000D03*
%TO.P,R3,2*%
%TO.N,GND*%
X78580000Y-58450000D03*
%TD*%
D20*
%TO.P,FID8,*%
%TO.N,*%
X56377500Y-60850000D03*
%TD*%
%TO.P,FID4,*%
%TO.N,*%
X43177500Y-67950000D03*
%TD*%
D29*
%TO.P,R1,1*%
%TO.N,/DONE*%
X42975000Y-57450000D03*
%TO.P,R1,2*%
%TO.N,Net-(LED_DONE1-A)*%
X41780000Y-57450000D03*
%TD*%
D18*
%TO.P,C8,1*%
%TO.N,+3V3*%
X42377500Y-59012500D03*
%TO.P,C8,2*%
%TO.N,GND*%
X42377500Y-61087500D03*
%TD*%
D30*
%TO.P,J_EXT1,1,Pin_1*%
%TO.N,/JTAG_SEL_N*%
X46197500Y-67982389D03*
D31*
%TO.P,J_EXT1,2,Pin_2*%
%TO.N,/JTAG_TDI*%
X46497500Y-64967379D03*
D30*
%TO.P,J_EXT1,3,Pin_3*%
%TO.N,/RECONFIG_N*%
X46797499Y-67982389D03*
D31*
%TO.P,J_EXT1,4,Pin_4*%
%TO.N,/JTAG_TDO*%
X47097501Y-64967379D03*
D30*
%TO.P,J_EXT1,5,Pin_5*%
%TO.N,/JTAG_TMS*%
X47397500Y-67982389D03*
D31*
%TO.P,J_EXT1,6,Pin_6*%
%TO.N,/JTAG_TCK*%
X47697500Y-64967379D03*
D30*
%TO.P,J_EXT1,7,Pin_7*%
%TO.N,/IO1A*%
X47997499Y-67982389D03*
D31*
%TO.P,J_EXT1,8,Pin_8*%
%TO.N,GND*%
X48297501Y-64967379D03*
D30*
%TO.P,J_EXT1,9,Pin_9*%
%TO.N,/IO1B*%
X48597500Y-67982389D03*
D31*
%TO.P,J_EXT1,10,Pin_10*%
%TO.N,/IO2A*%
X48897500Y-64967379D03*
D30*
%TO.P,J_EXT1,11,Pin_11*%
%TO.N,GND*%
X49197499Y-67982389D03*
D31*
%TO.P,J_EXT1,12,Pin_12*%
%TO.N,/IO2B*%
X49497501Y-64967379D03*
D30*
%TO.P,J_EXT1,13,Pin_13*%
%TO.N,/IO3A*%
X49797501Y-67982389D03*
D31*
%TO.P,J_EXT1,14,Pin_14*%
%TO.N,GND*%
X50097500Y-64967379D03*
D30*
%TO.P,J_EXT1,15,Pin_15*%
%TO.N,/IO3B*%
X50397499Y-67982389D03*
D31*
%TO.P,J_EXT1,16,Pin_16*%
%TO.N,/IO4A*%
X50697501Y-64967379D03*
D30*
%TO.P,J_EXT1,17,Pin_17*%
%TO.N,GND*%
X50997501Y-67982389D03*
D31*
%TO.P,J_EXT1,18,Pin_18*%
%TO.N,/IO4B*%
X51297500Y-64967379D03*
D30*
%TO.P,J_EXT1,19,Pin_19*%
%TO.N,/IO5A*%
X51597500Y-67982389D03*
D31*
%TO.P,J_EXT1,20,Pin_20*%
%TO.N,GND*%
X51897501Y-64967379D03*
D30*
%TO.P,J_EXT1,21,Pin_21*%
%TO.N,/IO5B*%
X52197501Y-67982389D03*
D31*
%TO.P,J_EXT1,22,Pin_22*%
%TO.N,/IO6A*%
X52497500Y-64967379D03*
D30*
%TO.P,J_EXT1,23,Pin_23*%
%TO.N,GND*%
X52797500Y-67982389D03*
D31*
%TO.P,J_EXT1,24,Pin_24*%
%TO.N,/IO6B*%
X53097502Y-64967379D03*
D30*
%TO.P,J_EXT1,25,Pin_25*%
%TO.N,+3V3*%
X53397501Y-67982389D03*
D31*
%TO.P,J_EXT1,26,Pin_26*%
X53697500Y-64967379D03*
D30*
%TO.P,J_EXT1,27,Pin_27*%
%TO.N,+5V*%
X53997500Y-67982389D03*
D32*
%TO.P,J_EXT1,MP,MountPin*%
%TO.N,GND*%
X45222498Y-67615700D03*
X54972502Y-67615700D03*
%TD*%
D29*
%TO.P,R4,1*%
%TO.N,+3V3*%
X45075000Y-63450000D03*
%TO.P,R4,2*%
%TO.N,Net-(U6-FB)*%
X43880000Y-63450000D03*
%TD*%
D33*
%TO.P,R5,1*%
%TO.N,Net-(U6-FB)*%
X43777500Y-64552500D03*
%TO.P,R5,2*%
%TO.N,GND*%
X43777500Y-65747500D03*
%TD*%
D34*
%TO.P,J_DISPLAY1,1,Pin_1*%
%TO.N,GND*%
X71938500Y-65323000D03*
%TO.P,J_DISPLAY1,2,Pin_2*%
%TO.N,+3V3*%
X71938500Y-64823000D03*
%TO.P,J_DISPLAY1,3,Pin_3*%
X71938500Y-64323000D03*
%TO.P,J_DISPLAY1,4,Pin_4*%
X71938500Y-63823000D03*
%TO.P,J_DISPLAY1,5,Pin_5*%
%TO.N,GND*%
X71938500Y-63323000D03*
%TO.P,J_DISPLAY1,6,Pin_6*%
%TO.N,/LCD_CS_N*%
X71938500Y-62823000D03*
%TO.P,J_DISPLAY1,7,Pin_7*%
%TO.N,/LCD_RST_N*%
X71938500Y-62323000D03*
%TO.P,J_DISPLAY1,8,Pin_8*%
%TO.N,unconnected-(J_DISPLAY1-Pin_8-Pad8)*%
X71938500Y-61823000D03*
%TO.P,J_DISPLAY1,9,Pin_9*%
%TO.N,/SPI_CLK*%
X71938500Y-61323000D03*
%TO.P,J_DISPLAY1,10,Pin_10*%
%TO.N,/SPI_MOSI_IO0*%
X71938500Y-60823000D03*
%TO.P,J_DISPLAY1,11,Pin_11*%
%TO.N,unconnected-(J_DISPLAY1-Pin_11-Pad11)*%
X71932214Y-60327280D03*
%TO.P,J_DISPLAY1,12,Pin_12*%
%TO.N,GND*%
X71938500Y-59823000D03*
D35*
%TO.P,J_DISPLAY1,MP,MountPin*%
X74988500Y-67073000D03*
X74988500Y-58073000D03*
%TD*%
D22*
%TO.P,C4,1*%
%TO.N,+3V3*%
X56117500Y-57482500D03*
%TO.P,C4,2*%
%TO.N,GND*%
X56117500Y-58617500D03*
%TD*%
D36*
%TO.P,C6,1*%
%TO.N,Net-(U6-BST)*%
X41845000Y-67150000D03*
%TO.P,C6,2*%
%TO.N,Net-(U6-SW)*%
X40710000Y-67150000D03*
%TD*%
D37*
%TO.N,GND*%
X80237500Y-60110000D03*
X68247500Y-58230000D03*
X67620500Y-68520498D03*
X66377500Y-63730000D03*
X61677500Y-62150000D03*
X74177500Y-60150000D03*
X72937500Y-64710000D03*
X59330494Y-57139500D03*
X57627000Y-66650500D03*
X52537500Y-64259020D03*
X52606340Y-68820011D03*
X75277500Y-65950000D03*
X51007500Y-68820000D03*
X44722000Y-67940000D03*
X61107500Y-65960000D03*
X48733000Y-65750000D03*
X56637500Y-59000000D03*
X58123916Y-67971352D03*
X73357500Y-60190000D03*
X67854103Y-56990871D03*
X48577500Y-68950000D03*
X73077500Y-62959500D03*
X50012002Y-58603540D03*
X42581988Y-60140488D03*
X65077500Y-65050000D03*
X70906951Y-67500498D03*
%TO.N,/PIN1*%
X39877500Y-64200000D03*
%TO.N,LINE*%
X74957500Y-64930000D03*
X80877500Y-58450000D03*
X80357500Y-65130000D03*
X42736123Y-65227931D03*
X86210836Y-66910000D03*
X81027500Y-55860000D03*
%TO.N,+5V*%
X54457500Y-67840500D03*
X83812002Y-66320000D03*
%TO.N,/PIN9*%
X68903392Y-69009989D03*
X72882500Y-65495000D03*
%TO.N,/PIN10*%
X72887500Y-66250000D03*
X70895627Y-69037605D03*
%TO.N,/PIN11*%
X73037500Y-69730000D03*
X84097500Y-65170000D03*
X85487500Y-66160000D03*
%TO.N,/PIN12*%
X70547500Y-69400000D03*
X77847500Y-65170980D03*
%TO.N,/PIN13*%
X85197500Y-65260000D03*
%TO.N,/PIN29*%
X81552312Y-57081006D03*
X79182500Y-59745000D03*
%TO.N,/PIN38*%
X42377500Y-57950000D03*
%TO.N,/JTAG_SEL_N*%
X55508000Y-58527100D03*
X66767500Y-56990000D03*
%TO.N,/DONE*%
X63599717Y-56697949D03*
X43007500Y-56429989D03*
%TO.N,+3V3*%
X68977500Y-62473922D03*
X53127500Y-60100000D03*
X79877500Y-61550000D03*
X54077500Y-64960000D03*
X57687500Y-67440000D03*
X76047500Y-69460000D03*
X57677000Y-58650500D03*
X63102500Y-57200000D03*
X73077500Y-62050000D03*
X53637500Y-68850000D03*
X45477500Y-58350000D03*
X64261353Y-68527623D03*
X45014500Y-58636000D03*
X66985500Y-68520498D03*
X81977500Y-61450000D03*
X82907500Y-58320000D03*
X76331055Y-58303555D03*
X81927500Y-67682411D03*
X76477500Y-61650000D03*
X70267500Y-67500498D03*
%TO.N,+1V2*%
X78772500Y-55830000D03*
X68457500Y-57710000D03*
X58707500Y-67830000D03*
X68647500Y-67810000D03*
X58078065Y-58136297D03*
X83677500Y-55870000D03*
%TO.N,/JTAG_TMS*%
X55028360Y-59811591D03*
X66237500Y-56984989D03*
%TO.N,/JTAG_TCK*%
X52577500Y-60550000D03*
X65677500Y-56984989D03*
%TO.N,/JTAG_TDO*%
X64572500Y-56985000D03*
X50741426Y-60736073D03*
%TO.N,/RECONFIG_N*%
X64064500Y-56985000D03*
X48837500Y-60510000D03*
%TO.N,/JTAG_TDI*%
X49564884Y-60849500D03*
X65088997Y-56985000D03*
%TO.N,/SPI_MOSI_IO0*%
X65508765Y-68484155D03*
X79127500Y-62944976D03*
%TO.N,/PIN1_F*%
X57063525Y-61485303D03*
%TO.N,/PIN2_F*%
X57298000Y-61927858D03*
%TO.N,/PIN3_F*%
X44297500Y-67180000D03*
X57027500Y-60160000D03*
X44731177Y-65369213D03*
%TO.N,/PIN4_F*%
X57363124Y-61085624D03*
%TO.N,/PIN5_F*%
X57565380Y-60101000D03*
%TO.N,/PIN6_F*%
X57473711Y-59609981D03*
%TO.N,/PIN7_F*%
X57887500Y-69685000D03*
%TO.N,/PIN8_F*%
X59970073Y-68585317D03*
%TO.N,/PIN9_F*%
X70135464Y-65635453D03*
%TO.N,/PIN10_F*%
X70607500Y-65798807D03*
%TO.N,/PIN11_F*%
X69429857Y-65002357D03*
%TO.N,/PIN12_F*%
X60242000Y-69270000D03*
%TO.N,/PIN13_F*%
X68887515Y-65060500D03*
%TO.N,/PIN14_F*%
X66475813Y-68720016D03*
%TO.N,/PIN15_F*%
X71142866Y-65854634D03*
%TO.N,/PIN16_F*%
X62564422Y-68560706D03*
%TO.N,/PIN17_F*%
X62067500Y-68510000D03*
%TO.N,/PIN18_F*%
X60808874Y-69367179D03*
%TO.N,/PIN19_F*%
X60462155Y-68724655D03*
%TO.N,/PIN21_F*%
X70657878Y-62599500D03*
%TO.N,/PIN22_F*%
X70145305Y-62617805D03*
%TO.N,/PIN23_F*%
X76427500Y-60200000D03*
X70377500Y-61688540D03*
X77032384Y-59710616D03*
%TO.N,/PIN24_F*%
X69279634Y-60619065D03*
%TO.N,/PIN25_F*%
X70489094Y-60424500D03*
%TO.N,/PIN26_F*%
X70657500Y-59640000D03*
%TO.N,/PIN27_F*%
X67267003Y-56990000D03*
%TO.N,/PIN28_F*%
X63767500Y-55530000D03*
%TO.N,/PIN29_F*%
X69609804Y-60993885D03*
%TO.N,/PIN30_F*%
X70980011Y-63099500D03*
%TO.N,/PIN31_F*%
X69223517Y-59521014D03*
%TO.N,/PIN32_F*%
X70157500Y-59989500D03*
%TO.N,/PIN33_F*%
X62896177Y-56745100D03*
%TO.N,/PIN34_F*%
X62349489Y-56985000D03*
%TO.N,/PIN35_F*%
X61849986Y-56985000D03*
%TO.N,/PIN36_F*%
X61357500Y-56860000D03*
%TO.N,/PIN37_F*%
X59853497Y-56985000D03*
%TO.N,/PIN38_F*%
X60641280Y-56499731D03*
%TO.N,/PIN39_F*%
X61197500Y-55530000D03*
%TO.N,/PIN40_F*%
X60353000Y-56985000D03*
%TO.N,/PIN20_F*%
X70877500Y-64740500D03*
%TO.N,/IO6A*%
X56167500Y-63250000D03*
X55457508Y-62630008D03*
%TO.N,/IO6B*%
X55477500Y-62050000D03*
X56747500Y-63260000D03*
%TO.N,/SPI_CLK*%
X78627497Y-62944976D03*
X64797500Y-68520500D03*
%TO.N,/CLK1*%
X61283000Y-69210000D03*
%TO.N,/SPI_IO2*%
X62946176Y-68882834D03*
%TO.N,/SPI_IO3*%
X63562342Y-68504168D03*
%TO.N,/FLASH_CS_N*%
X65312044Y-68943288D03*
%TO.N,/PSRAM_CS_N*%
X69185220Y-63182440D03*
%TO.N,/SPI_MISO_IO1*%
X65784259Y-69106124D03*
%TO.N,Net-(U1-IOR13A{slash}FASTRD_N{slash}D3)*%
X63468962Y-68994865D03*
%TD*%
D38*
%TO.N,+1V2*%
X83677500Y-55870000D02*
X83925000Y-56117500D01*
X83925000Y-56117500D02*
X83925000Y-56950000D01*
X83925000Y-56950000D02*
X85150000Y-58175000D01*
X78772500Y-55830000D02*
X78772500Y-55855000D01*
X69960000Y-56750000D02*
X69427500Y-57282500D01*
X78772500Y-55855000D02*
X77877500Y-56750000D01*
X77877500Y-56750000D02*
X69960000Y-56750000D01*
%TO.N,GND*%
X73272011Y-60104511D02*
X72807727Y-60104511D01*
X49197499Y-67982389D02*
X49197499Y-68330001D01*
X48733000Y-65559101D02*
X48297501Y-65123602D01*
X68237500Y-58650500D02*
X68237500Y-58240000D01*
X72807727Y-60104511D02*
X72526216Y-59823000D01*
X78580000Y-58450000D02*
X78580000Y-59637475D01*
X50997501Y-67982389D02*
X50997501Y-68810001D01*
X52449637Y-64259020D02*
X51897501Y-64811156D01*
X74377500Y-59950000D02*
X74377500Y-58884000D01*
X50997501Y-68810001D02*
X51007500Y-68820000D01*
D39*
X41277500Y-64050000D02*
X41605500Y-64378000D01*
D38*
X58562564Y-68410000D02*
X59225587Y-68410000D01*
D39*
X41605500Y-64378000D02*
X41605500Y-64450000D01*
D38*
X43777500Y-67154975D02*
X44562525Y-67940000D01*
X74904500Y-66323000D02*
X75277500Y-65950000D01*
X67102500Y-57567052D02*
X67334052Y-57335500D01*
X79052525Y-60110000D02*
X80237500Y-60110000D01*
X57127500Y-67082500D02*
X55735000Y-67082500D01*
X44717500Y-67940000D02*
X44722000Y-67940000D01*
X50097500Y-64967379D02*
X50097500Y-64580000D01*
X49197499Y-68330001D02*
X48577500Y-68950000D01*
X70906951Y-67500498D02*
X70815000Y-67408547D01*
X49957500Y-64440000D02*
X50097500Y-64580000D01*
X50612500Y-58420000D02*
X51882500Y-58420000D01*
X39305000Y-59740000D02*
X40977500Y-61412500D01*
X72937500Y-64710000D02*
X72937500Y-64890000D01*
X55201800Y-67615700D02*
X55735000Y-67082500D01*
X52797500Y-68628851D02*
X52797500Y-67982389D01*
X54972502Y-67615700D02*
X55201800Y-67615700D01*
X69194500Y-58650500D02*
X68237500Y-58650500D01*
X67489911Y-68520498D02*
X67102500Y-68133087D01*
X59502500Y-57311506D02*
X59330494Y-57139500D01*
X43777500Y-65747500D02*
X43777500Y-67154975D01*
X48733000Y-65750000D02*
X48733000Y-65559101D01*
X73077500Y-62959500D02*
X72714000Y-63323000D01*
D40*
X41277500Y-64050000D02*
X40440000Y-63212500D01*
D38*
X58317000Y-59000000D02*
X57450000Y-59000000D01*
X72937500Y-64890000D02*
X72504500Y-65323000D01*
X67620500Y-68520498D02*
X67489911Y-68520498D01*
X39305000Y-57450000D02*
X39305000Y-59740000D01*
X59502500Y-57915500D02*
X59502500Y-57311506D01*
X45041800Y-67615700D02*
X44717500Y-67940000D01*
X73357500Y-60190000D02*
X73272011Y-60104511D01*
X78580000Y-59637475D02*
X79052525Y-60110000D01*
X48297501Y-64967379D02*
X48297501Y-64649999D01*
X57450000Y-59000000D02*
X57067500Y-58617500D01*
X52537500Y-64259020D02*
X52449637Y-64259020D01*
X58367500Y-66650500D02*
X57627000Y-66650500D01*
X58123916Y-67971352D02*
X58562564Y-68410000D01*
X57627000Y-66650500D02*
X57559500Y-66650500D01*
X48297501Y-64649999D02*
X48507500Y-64440000D01*
D40*
X42215000Y-61250000D02*
X40540000Y-61250000D01*
D38*
X70815000Y-67408547D02*
X70815000Y-66820000D01*
X48507500Y-64440000D02*
X49957500Y-64440000D01*
X59225587Y-68410000D02*
X59502500Y-68133087D01*
X67334052Y-57335500D02*
X67509474Y-57335500D01*
X74177500Y-60150000D02*
X74377500Y-59950000D01*
X67509474Y-57335500D02*
X67854103Y-56990871D01*
D40*
X42581988Y-60140488D02*
X42581988Y-60883012D01*
D38*
X56255000Y-58617500D02*
X56637500Y-59000000D01*
X45222498Y-67615700D02*
X45041800Y-67615700D01*
X50012002Y-58603540D02*
X50428960Y-58603540D01*
D40*
X40377500Y-61087500D02*
X40377500Y-62887500D01*
D38*
X52606340Y-68820011D02*
X52797500Y-68628851D01*
X68237500Y-58240000D02*
X68247500Y-58230000D01*
X57559500Y-66650500D02*
X57127500Y-67082500D01*
X72714000Y-63323000D02*
X71938500Y-63323000D01*
X57020000Y-58617500D02*
X56637500Y-59000000D01*
X44562525Y-67940000D02*
X44722000Y-67940000D01*
%TO.N,/PIN1*%
X38937989Y-65152273D02*
X38937989Y-69335489D01*
X39877500Y-64200000D02*
X39877500Y-64212762D01*
X39877500Y-64212762D02*
X38937989Y-65152273D01*
%TO.N,LINE*%
X42611569Y-65227931D02*
X42128500Y-65711000D01*
X86210836Y-66910000D02*
X86210836Y-65493336D01*
X42128500Y-65711000D02*
X42128500Y-66100000D01*
X85157500Y-64440000D02*
X81047500Y-64440000D01*
X80777500Y-56110000D02*
X81027500Y-55860000D01*
D39*
X42736123Y-65227931D02*
X42627500Y-65119308D01*
D38*
X42736123Y-65227931D02*
X42611569Y-65227931D01*
X81047500Y-64440000D02*
X80357500Y-65130000D01*
D39*
X42628500Y-63138500D02*
X42628500Y-64473000D01*
D38*
X86210836Y-65493336D02*
X85157500Y-64440000D01*
X80777500Y-58350000D02*
X80777500Y-56110000D01*
D39*
X42627500Y-65119308D02*
X42627500Y-64652000D01*
D38*
X80877500Y-58450000D02*
X80777500Y-58350000D01*
%TO.N,+5V*%
X83847500Y-66320000D02*
X83812002Y-66320000D01*
X84777500Y-67250000D02*
X83847500Y-66320000D01*
X54457500Y-67840500D02*
X54315611Y-67982389D01*
X54315611Y-67982389D02*
X53997500Y-67982389D01*
%TO.N,/PIN9*%
X72077500Y-66970000D02*
X72077500Y-66300000D01*
X68903392Y-69009989D02*
X68925947Y-69009989D01*
X68925947Y-69009989D02*
X69285936Y-68650000D01*
X69285936Y-68650000D02*
X70397500Y-68650000D01*
X70397500Y-68650000D02*
X72077500Y-66970000D01*
X72077500Y-66300000D02*
X72882500Y-65495000D01*
%TO.N,/PIN10*%
X72887500Y-66250000D02*
X72887500Y-66442842D01*
X72887500Y-66442842D02*
X70895627Y-68434715D01*
X70895627Y-68434715D02*
X70895627Y-69037605D01*
%TO.N,/PIN11*%
X85487500Y-66160000D02*
X84497500Y-65170000D01*
X83548480Y-65719020D02*
X81737500Y-65719020D01*
X76917500Y-66650000D02*
X76917500Y-67710000D01*
X84497500Y-65170000D02*
X84097500Y-65170000D01*
X77847500Y-65720000D02*
X76917500Y-66650000D01*
X81737500Y-65719020D02*
X81736520Y-65720000D01*
X76317500Y-68310000D02*
X73687500Y-68310000D01*
X81736520Y-65720000D02*
X77847500Y-65720000D01*
X73687500Y-68310000D02*
X73037500Y-68960000D01*
X73037500Y-68960000D02*
X73037500Y-69730000D01*
X76917500Y-67710000D02*
X76317500Y-68310000D01*
X84097500Y-65170000D02*
X83548480Y-65719020D01*
%TO.N,/PIN12*%
X70997500Y-69430000D02*
X70577500Y-69430000D01*
X71247980Y-69179520D02*
X70997500Y-69430000D01*
X77698000Y-65320480D02*
X74317020Y-65320480D01*
X71247980Y-68389520D02*
X71247980Y-69179520D01*
X70577500Y-69430000D02*
X70547500Y-69400000D01*
X74317020Y-65320480D02*
X71247980Y-68389520D01*
X77847500Y-65170980D02*
X77698000Y-65320480D01*
%TO.N,/PIN13*%
X81654857Y-65519500D02*
X83088000Y-65519500D01*
X71018651Y-69788849D02*
X71447500Y-69360000D01*
X83787011Y-64820489D02*
X84767989Y-64820489D01*
X85197500Y-65250000D02*
X85197500Y-65260000D01*
X83088000Y-65519500D02*
X83787011Y-64820489D01*
X74399862Y-65520480D02*
X81653877Y-65520480D01*
X69871349Y-69788849D02*
X71018651Y-69788849D01*
X71447500Y-69360000D02*
X71447500Y-68472842D01*
X71447500Y-68472842D02*
X74399862Y-65520480D01*
X84767989Y-64820489D02*
X85197500Y-65250000D01*
X81653877Y-65520480D02*
X81654857Y-65519500D01*
%TO.N,/PIN29*%
X81552312Y-58675188D02*
X80482500Y-59745000D01*
X80482500Y-59745000D02*
X79182500Y-59745000D01*
X81552312Y-57081006D02*
X81552312Y-58675188D01*
%TO.N,/PIN38*%
X44252500Y-57075000D02*
X44252500Y-56265000D01*
X42377500Y-57950000D02*
X43377500Y-57950000D01*
X43377500Y-57950000D02*
X44252500Y-57075000D01*
%TO.N,/JTAG_SEL_N*%
X47088460Y-63053534D02*
X45667980Y-64474014D01*
X66767500Y-56990000D02*
X66302500Y-57455000D01*
X45667980Y-67452869D02*
X46197500Y-67982389D01*
X48277500Y-56890000D02*
X48072500Y-57095000D01*
X48072500Y-59470000D02*
X46645000Y-59470000D01*
X66302500Y-57455000D02*
X66302500Y-57915500D01*
X55087500Y-56890000D02*
X48277500Y-56890000D01*
X48072500Y-57095000D02*
X48072500Y-58420000D01*
X46377500Y-59202500D02*
X46377500Y-58447500D01*
X47088460Y-60719040D02*
X47088460Y-63053534D01*
X46645000Y-59470000D02*
X46377500Y-59202500D01*
X46377500Y-58447500D02*
X46375000Y-58445000D01*
X55508000Y-57310500D02*
X55087500Y-56890000D01*
X55508000Y-58527100D02*
X55508000Y-57310500D01*
X45667980Y-64474014D02*
X45667980Y-67452869D01*
X48072500Y-59735000D02*
X47088460Y-60719040D01*
X48072500Y-58420000D02*
X48072500Y-59735000D01*
X46375000Y-58445000D02*
X46375000Y-57850000D01*
%TO.N,/DONE*%
X43007500Y-56429989D02*
X42975000Y-56462489D01*
X63683500Y-56781732D02*
X63683500Y-57112000D01*
X42975000Y-56462489D02*
X42975000Y-57490000D01*
X63902500Y-57331000D02*
X63902500Y-57915500D01*
X63599717Y-56697949D02*
X63683500Y-56781732D01*
X63683500Y-57112000D02*
X63902500Y-57331000D01*
%TO.N,+3V3*%
X57475000Y-67650000D02*
X56967500Y-68157500D01*
X45125112Y-63450000D02*
X46157500Y-62417612D01*
X53397501Y-68610001D02*
X53397501Y-67982389D01*
X66985500Y-68520498D02*
X66778998Y-68520498D01*
X53637500Y-68850000D02*
X53397501Y-68610001D01*
X76047500Y-69350000D02*
X77127500Y-68270000D01*
X71938500Y-64823000D02*
X71938500Y-64323000D01*
D40*
X44777500Y-58873000D02*
X45014500Y-58636000D01*
D38*
X71938500Y-64323000D02*
X72804500Y-64323000D01*
X72804500Y-64323000D02*
X73077500Y-64050000D01*
X63102500Y-57200000D02*
X63102500Y-57915500D01*
X77184610Y-57450000D02*
X78580000Y-57450000D01*
X64261353Y-68527623D02*
X64302500Y-68486476D01*
X73077500Y-63850000D02*
X73477500Y-63450000D01*
D41*
X42377500Y-59012500D02*
X43098129Y-59012500D01*
D38*
X57677000Y-58650500D02*
X57677000Y-58423870D01*
X54077500Y-64960000D02*
X54070121Y-64967379D01*
D40*
X45477500Y-58350000D02*
X45477500Y-58887500D01*
D41*
X43098129Y-59012500D02*
X43472629Y-59387000D01*
D38*
X57677000Y-58650500D02*
X58367500Y-58650500D01*
X76047500Y-69460000D02*
X76047500Y-69350000D01*
X46157500Y-60967500D02*
X44777500Y-59587500D01*
X73477500Y-62450000D02*
X73077500Y-62050000D01*
X45477500Y-58350000D02*
X45180000Y-58052500D01*
X53152500Y-58420000D02*
X53152500Y-60075000D01*
D41*
X40377500Y-59012500D02*
X42377500Y-59012500D01*
D38*
X77127500Y-68270000D02*
X81339911Y-68270000D01*
X81339911Y-68270000D02*
X81927500Y-67682411D01*
X76331055Y-58303555D02*
X77184610Y-57450000D01*
D40*
X45477500Y-58887500D02*
X44777500Y-59587500D01*
D41*
X43472629Y-59387000D02*
X44577000Y-59387000D01*
D38*
X69711144Y-66820000D02*
X70267500Y-67376356D01*
X73050500Y-63823000D02*
X73077500Y-63850000D01*
X71938500Y-63823000D02*
X73050500Y-63823000D01*
X64302500Y-68486476D02*
X64302500Y-67785500D01*
X70267500Y-67376356D02*
X70267500Y-67500498D01*
X57687500Y-67440000D02*
X57477500Y-67650000D01*
X57477500Y-67650000D02*
X57475000Y-67650000D01*
X57677000Y-58423870D02*
X57253130Y-58000000D01*
X56635000Y-58000000D02*
X56117500Y-57482500D01*
X57687500Y-67439716D02*
X57687500Y-67440000D01*
X66778998Y-68520498D02*
X66702500Y-68444000D01*
X58076716Y-67050500D02*
X57687500Y-67439716D01*
X68800922Y-62650500D02*
X68237500Y-62650500D01*
X68977500Y-62473922D02*
X68800922Y-62650500D01*
X54070121Y-64967379D02*
X53697500Y-64967379D01*
X57253130Y-58000000D02*
X56635000Y-58000000D01*
X68237500Y-67050500D02*
X69449500Y-67050500D01*
X53152500Y-60075000D02*
X53127500Y-60100000D01*
X46157500Y-62417612D02*
X46157500Y-60967500D01*
D40*
X44777500Y-59587500D02*
X44777500Y-58873000D01*
D38*
X73477500Y-63450000D02*
X73477500Y-62450000D01*
X73077500Y-64050000D02*
X73077500Y-63850000D01*
X66702500Y-68444000D02*
X66702500Y-67785500D01*
%TO.N,+1V2*%
X68885000Y-57282500D02*
X69427500Y-57282500D01*
X68457500Y-57710000D02*
X68885000Y-57282500D01*
X57424268Y-57482500D02*
X58078065Y-58136297D01*
X58078065Y-58136297D02*
X58298862Y-57915500D01*
X58707500Y-67830000D02*
X59058000Y-67830000D01*
X68457500Y-57710000D02*
X67708000Y-57710000D01*
X67708000Y-57710000D02*
X67502500Y-57915500D01*
X68647500Y-67810000D02*
X68407500Y-67570000D01*
X67718000Y-67570000D02*
X67508000Y-67780000D01*
X68407500Y-67570000D02*
X67718000Y-67570000D01*
X58298862Y-57915500D02*
X59102500Y-57915500D01*
X57067500Y-57482500D02*
X57424268Y-57482500D01*
%TO.N,Net-(U6-BST)*%
X41628500Y-66050000D02*
X41628500Y-66933500D01*
%TO.N,/JTAG_TMS*%
X52533216Y-60000000D02*
X53152500Y-60619284D01*
X47552989Y-63154689D02*
X47552989Y-61044511D01*
X47402002Y-67977887D02*
X47402002Y-67174975D01*
X53322273Y-60449511D02*
X53152500Y-60619284D01*
X66237500Y-56984989D02*
X65902500Y-57319989D01*
X47552989Y-61044511D02*
X47627011Y-60970489D01*
X65902500Y-57319989D02*
X65902500Y-57915500D01*
X46702002Y-66474975D02*
X46702002Y-66474502D01*
X46067500Y-64640178D02*
X47552989Y-63154689D01*
X48937011Y-60970489D02*
X49907500Y-60000000D01*
X46702002Y-66474502D02*
X46067500Y-65840000D01*
X49907500Y-60000000D02*
X52533216Y-60000000D01*
X54390440Y-60449511D02*
X53322273Y-60449511D01*
X46067500Y-65840000D02*
X46067500Y-64640178D01*
X55028360Y-59811591D02*
X54390440Y-60449511D01*
X47402002Y-67174975D02*
X46702002Y-66474975D01*
X53152500Y-60619284D02*
X53152500Y-62320000D01*
X47627011Y-60970489D02*
X48937011Y-60970489D01*
%TO.N,/JTAG_TCK*%
X47697500Y-64430000D02*
X47908461Y-64219039D01*
X52577500Y-60550000D02*
X52457500Y-60550000D01*
X65677500Y-56984989D02*
X65502500Y-57159989D01*
X65502500Y-57159989D02*
X65502500Y-57915500D01*
X51098461Y-64219039D02*
X51882500Y-63435000D01*
X51882500Y-61125000D02*
X51882500Y-61351550D01*
X47908461Y-64219039D02*
X51098461Y-64219039D01*
X52457500Y-60550000D02*
X51882500Y-61125000D01*
X47697500Y-64967379D02*
X47697500Y-64430000D01*
%TO.N,/JTAG_TDO*%
X50612500Y-63620000D02*
X50212980Y-64019520D01*
X64702500Y-57915500D02*
X64702500Y-57115000D01*
X50741426Y-60736073D02*
X50612500Y-60864999D01*
X47497980Y-64019520D02*
X47097501Y-64419999D01*
X47097501Y-64419999D02*
X47097501Y-64967379D01*
X50212980Y-64019520D02*
X47497980Y-64019520D01*
X50612500Y-62320000D02*
X50612500Y-63620000D01*
X50612500Y-60864999D02*
X50612500Y-62320000D01*
X64702500Y-57115000D02*
X64572500Y-56985000D01*
%TO.N,/RECONFIG_N*%
X64302500Y-57223000D02*
X64064500Y-56985000D01*
X45867500Y-67052390D02*
X46272435Y-67457325D01*
X64302500Y-57915500D02*
X64302500Y-57223000D01*
X48837500Y-60510000D02*
X47731315Y-60510000D01*
X45867500Y-64557336D02*
X45867500Y-67052390D01*
X47288460Y-63136376D02*
X45867500Y-64557336D01*
X46704824Y-67457325D02*
X46797499Y-67550000D01*
X48837500Y-60510000D02*
X49342500Y-60005000D01*
X47288460Y-60952855D02*
X47288460Y-63136376D01*
X47731315Y-60510000D02*
X47288460Y-60952855D01*
X46797499Y-67550000D02*
X46797499Y-67982389D01*
X49342500Y-60005000D02*
X49342500Y-58420000D01*
X46272435Y-67457325D02*
X46704824Y-67457325D01*
%TO.N,/JTAG_TDI*%
X49342500Y-61071884D02*
X49342500Y-62320000D01*
X47415138Y-63819520D02*
X46497500Y-64737158D01*
X49342500Y-63585000D02*
X49107980Y-63819520D01*
X49342500Y-63375000D02*
X49342500Y-63585000D01*
X49564884Y-60849500D02*
X49342500Y-61071884D01*
X65102500Y-56998503D02*
X65088997Y-56985000D01*
X49107980Y-63819520D02*
X47415138Y-63819520D01*
X65102500Y-57915500D02*
X65102500Y-56998503D01*
%TO.N,/SPI_MOSI_IO0*%
X73150500Y-60823000D02*
X71938500Y-60823000D01*
X78732524Y-62550000D02*
X78377500Y-62550000D01*
X75327500Y-63000000D02*
X73150500Y-60823000D01*
X77927500Y-63000000D02*
X75327500Y-63000000D01*
X65508765Y-68484155D02*
X65508765Y-68139352D01*
X78377500Y-62550000D02*
X77927500Y-63000000D01*
X79127500Y-62944976D02*
X78732524Y-62550000D01*
%TO.N,/LCD_RST_N*%
X71077500Y-62111999D02*
X71077500Y-59472520D01*
X71088760Y-59461260D02*
X70678000Y-59050500D01*
X79775000Y-57450000D02*
X79775000Y-58450000D01*
X71377500Y-59172520D02*
X71088760Y-59461260D01*
X79275000Y-56950000D02*
X74077500Y-56950000D01*
X71288501Y-62323000D02*
X71077500Y-62111999D01*
X70678000Y-59050500D02*
X68237500Y-59050500D01*
X74077500Y-56950000D02*
X73379734Y-57647766D01*
X73379734Y-58755254D02*
X72962468Y-59172520D01*
X71077500Y-59472520D02*
X71088760Y-59461260D01*
X79775000Y-57450000D02*
X79275000Y-56950000D01*
X73379734Y-57647766D02*
X73379734Y-58755254D01*
X72962468Y-59172520D02*
X71377500Y-59172520D01*
X71938500Y-62323000D02*
X71288501Y-62323000D01*
%TO.N,/LCD_CS_N*%
X68237500Y-62250500D02*
X68677000Y-62250500D01*
X68677000Y-62250500D02*
X68867500Y-62060000D01*
X68867500Y-62060000D02*
X70642525Y-62060000D01*
X70642525Y-62060000D02*
X71405525Y-62823000D01*
%TO.N,/PIN1_F*%
X57572197Y-61485303D02*
X58007000Y-61050500D01*
X57063525Y-61485303D02*
X57572197Y-61485303D01*
%TO.N,/PIN2_F*%
X57298000Y-61927858D02*
X57499642Y-61927858D01*
X57977000Y-61450500D02*
X58367500Y-61450500D01*
X57499642Y-61927858D02*
X57977000Y-61450500D01*
%TO.N,/PIN3_F*%
X44731177Y-65369213D02*
X44731177Y-66746323D01*
X57027500Y-60160000D02*
X57318000Y-60450500D01*
X44731177Y-66746323D02*
X44297500Y-67180000D01*
X57819052Y-60450500D02*
X58019052Y-60250500D01*
X57318000Y-60450500D02*
X57819052Y-60450500D01*
%TO.N,/PIN4_F*%
X57363124Y-61085624D02*
X57363124Y-61004376D01*
X57717000Y-60650500D02*
X58367500Y-60650500D01*
X57363124Y-61004376D02*
X57717000Y-60650500D01*
%TO.N,/PIN5_F*%
X57815880Y-59850500D02*
X58367500Y-59850500D01*
X57565380Y-60101000D02*
X57815880Y-59850500D01*
%TO.N,/PIN6_F*%
X57473711Y-59609981D02*
X57487519Y-59609981D01*
X57487519Y-59609981D02*
X57647000Y-59450500D01*
X57647000Y-59450500D02*
X58367500Y-59450500D01*
%TO.N,/PIN7_F*%
X59078480Y-68609520D02*
X59426067Y-68609520D01*
X58003000Y-69685000D02*
X59078480Y-68609520D01*
X57887500Y-69685000D02*
X58003000Y-69685000D01*
X59426067Y-68609520D02*
X59902500Y-68133087D01*
%TO.N,/PIN8_F*%
X60302500Y-68336000D02*
X60302500Y-67785500D01*
X60053183Y-68585317D02*
X60302500Y-68336000D01*
X59970073Y-68585317D02*
X60053183Y-68585317D01*
%TO.N,/PIN9_F*%
X70135464Y-65635453D02*
X69920417Y-65850500D01*
X69920417Y-65850500D02*
X68237500Y-65850500D01*
%TO.N,/PIN10_F*%
X69151284Y-66250500D02*
X68237500Y-66250500D01*
X70607500Y-65798807D02*
X70306787Y-66099520D01*
X70306787Y-66099520D02*
X69302264Y-66099520D01*
X69302264Y-66099520D02*
X69151284Y-66250500D01*
%TO.N,/PIN11_F*%
X69078000Y-64650500D02*
X68237500Y-64650500D01*
X69429857Y-65002357D02*
X69078000Y-64650500D01*
%TO.N,/PIN12_F*%
X60411784Y-69270000D02*
X60847011Y-68834773D01*
X60847011Y-68834773D02*
X60847011Y-68530489D01*
X60242000Y-69270000D02*
X60411784Y-69270000D01*
X60847011Y-68530489D02*
X61112011Y-68265489D01*
X61112011Y-68265489D02*
X61112011Y-67795011D01*
%TO.N,/PIN13_F*%
X68887515Y-65060500D02*
X68266538Y-65060500D01*
%TO.N,/PIN14_F*%
X66302500Y-68546703D02*
X66302500Y-67785500D01*
X66475813Y-68720016D02*
X66302500Y-68546703D01*
%TO.N,/PIN15_F*%
X69033448Y-66650500D02*
X68237500Y-66650500D01*
X69384428Y-66299520D02*
X69033448Y-66650500D01*
X70697980Y-66299520D02*
X69384428Y-66299520D01*
X71142866Y-65854634D02*
X70697980Y-66299520D01*
%TO.N,/PIN16_F*%
X62564422Y-68560706D02*
X62564422Y-68558852D01*
X62702500Y-68420774D02*
X62702500Y-67785500D01*
X62564422Y-68558852D02*
X62702500Y-68420774D01*
%TO.N,/PIN17_F*%
X62302500Y-68218031D02*
X62302500Y-67785500D01*
X62067500Y-68510000D02*
X62067500Y-68453031D01*
X62067500Y-68453031D02*
X62302500Y-68218031D01*
%TO.N,/PIN18_F*%
X61046531Y-68630969D02*
X61502500Y-68175000D01*
X61046531Y-68917416D02*
X61046531Y-68630969D01*
X61502500Y-68175000D02*
X61502500Y-67785500D01*
X60808874Y-69155073D02*
X61046531Y-68917416D01*
X60808874Y-69367179D02*
X60808874Y-69155073D01*
%TO.N,/PIN19_F*%
X60462155Y-68595345D02*
X60702500Y-68355000D01*
X60462155Y-68724655D02*
X60462155Y-68595345D01*
X60702500Y-68355000D02*
X60702500Y-67785500D01*
%TO.N,/PIN21_F*%
X69398847Y-63858531D02*
X68245531Y-63858531D01*
X70657878Y-62599500D02*
X69398847Y-63858531D01*
%TO.N,/PIN22_F*%
X68684111Y-63050500D02*
X68237500Y-63050500D01*
X69930670Y-62832440D02*
X68902171Y-62832440D01*
X68902171Y-62832440D02*
X68684111Y-63050500D01*
X70145305Y-62617805D02*
X69930670Y-62832440D01*
%TO.N,/PIN23_F*%
X70206040Y-61860000D02*
X68247000Y-61860000D01*
X70377500Y-61688540D02*
X70206040Y-61860000D01*
X77032384Y-59710616D02*
X76543000Y-60200000D01*
X76543000Y-60200000D02*
X76427500Y-60200000D01*
%TO.N,/PIN24_F*%
X69279634Y-60619065D02*
X68848199Y-61050500D01*
X68848199Y-61050500D02*
X68237500Y-61050500D01*
%TO.N,/PIN25_F*%
X69685977Y-60424500D02*
X69531042Y-60269565D01*
X68737000Y-60650500D02*
X68237500Y-60650500D01*
X70489094Y-60424500D02*
X69685977Y-60424500D01*
X69531042Y-60269565D02*
X69117935Y-60269565D01*
X69117935Y-60269565D02*
X68737000Y-60650500D01*
%TO.N,/PIN26_F*%
X69867500Y-59640000D02*
X69636975Y-59870525D01*
X70657500Y-59640000D02*
X69867500Y-59640000D01*
X69636975Y-59870525D02*
X68257525Y-59870525D01*
%TO.N,/PIN27_F*%
X67267003Y-56990000D02*
X67267003Y-57003410D01*
X67267003Y-57003410D02*
X66702500Y-57567913D01*
%TO.N,/PIN28_F*%
X63249717Y-56842217D02*
X63483980Y-57076480D01*
X63767500Y-55530000D02*
X63249717Y-56047783D01*
X63249717Y-56047783D02*
X63249717Y-56842217D01*
X63483980Y-57076480D02*
X63483980Y-57896980D01*
%TO.N,/PIN29_F*%
X69609804Y-60993885D02*
X69153189Y-61450500D01*
X69153189Y-61450500D02*
X68237500Y-61450500D01*
%TO.N,/PIN30_F*%
X69290220Y-64250000D02*
X68238000Y-64250000D01*
X70440720Y-63099500D02*
X69290220Y-64250000D01*
X70980011Y-63099500D02*
X70440720Y-63099500D01*
%TO.N,/PIN31_F*%
X69177000Y-59450500D02*
X69177500Y-59450000D01*
X69177500Y-59450000D02*
X69223517Y-59496017D01*
X69223517Y-59496017D02*
X69223517Y-59521014D01*
X68237500Y-59450500D02*
X69177000Y-59450500D01*
%TO.N,/PIN32_F*%
X68987455Y-60070045D02*
X68807000Y-60250500D01*
X68807000Y-60250500D02*
X68237500Y-60250500D01*
X70076955Y-60070045D02*
X68987455Y-60070045D01*
X70157500Y-59989500D02*
X70076955Y-60070045D01*
%TO.N,/PIN33_F*%
X62698989Y-56942288D02*
X62698989Y-57911989D01*
X62896177Y-56745100D02*
X62698989Y-56942288D01*
%TO.N,/PIN34_F*%
X62302500Y-57031989D02*
X62349489Y-56985000D01*
X62302500Y-57915500D02*
X62302500Y-57031989D01*
%TO.N,/PIN35_F*%
X61902500Y-57037514D02*
X61849986Y-56985000D01*
X61902500Y-57915500D02*
X61902500Y-57037514D01*
%TO.N,/PIN36_F*%
X61502500Y-57131798D02*
X61502500Y-57915500D01*
X61357500Y-56860000D02*
X61357500Y-56986798D01*
X61357500Y-56986798D02*
X61502500Y-57131798D01*
%TO.N,/PIN37_F*%
X59902500Y-57915500D02*
X59902500Y-57034003D01*
X59902500Y-57034003D02*
X59853497Y-56985000D01*
%TO.N,/PIN38_F*%
X60702500Y-56560951D02*
X60702500Y-57915500D01*
X60641280Y-56499731D02*
X60702500Y-56560951D01*
%TO.N,/PIN39_F*%
X61007500Y-55720000D02*
X61007500Y-57004975D01*
X61097500Y-57094975D02*
X61097500Y-57910500D01*
X61197500Y-55530000D02*
X61007500Y-55720000D01*
X61007500Y-57004975D02*
X61097500Y-57094975D01*
%TO.N,/PIN40_F*%
X60302500Y-57915500D02*
X60302500Y-57035500D01*
X60302500Y-57035500D02*
X60353000Y-56985000D01*
%TO.N,/PIN20_F*%
X70877500Y-64740500D02*
X70487000Y-64350000D01*
X69826991Y-65099491D02*
X69475982Y-65450500D01*
X70487000Y-64350000D02*
X70177500Y-64350000D01*
X70177500Y-64350000D02*
X69826991Y-64700509D01*
X69826991Y-64700509D02*
X69826991Y-65099491D01*
X69475982Y-65450500D02*
X68237500Y-65450500D01*
D39*
%TO.N,Net-(U6-SW)*%
X42128500Y-64101000D02*
X42128500Y-64550000D01*
X41677500Y-62260966D02*
X41677500Y-63650000D01*
X41677500Y-63650000D02*
X42128500Y-64101000D01*
X44740000Y-61950000D02*
X41988466Y-61950000D01*
D38*
X40710000Y-67150000D02*
X40710000Y-65422525D01*
X40710000Y-65422525D02*
X41082525Y-65050000D01*
X41082525Y-65050000D02*
X41877500Y-65050000D01*
X42128500Y-64171000D02*
X42128500Y-64473000D01*
D39*
X41988466Y-61950000D02*
X41677500Y-62260966D01*
D38*
X41877500Y-65050000D02*
X42128500Y-64799000D01*
%TO.N,/IO1A*%
X47997499Y-67630001D02*
X47997499Y-67982389D01*
X57478421Y-64250500D02*
X56578921Y-65150000D01*
X49447500Y-66180000D02*
X47997499Y-67630001D01*
X56578921Y-65150000D02*
X55004134Y-65150000D01*
X58367500Y-64250500D02*
X57478421Y-64250500D01*
X53974134Y-66180000D02*
X49447500Y-66180000D01*
X55004134Y-65150000D02*
X53974134Y-66180000D01*
%TO.N,/IO1B*%
X49531798Y-66395702D02*
X48597500Y-67330000D01*
X56661763Y-65350000D02*
X55086298Y-65350000D01*
X54040596Y-66395702D02*
X49531798Y-66395702D01*
X58367500Y-64650500D02*
X57361263Y-64650500D01*
X57361263Y-64650500D02*
X56661763Y-65350000D01*
X55086298Y-65350000D02*
X54040596Y-66395702D01*
X48597500Y-67330000D02*
X48597500Y-67982389D01*
%TO.N,/IO2A*%
X53991970Y-65880000D02*
X55021970Y-64850000D01*
X55021970Y-64850000D02*
X56260343Y-64850000D01*
X48897500Y-65220962D02*
X49556538Y-65880000D01*
X49556538Y-65880000D02*
X53991970Y-65880000D01*
X56260343Y-64850000D02*
X57259842Y-63850500D01*
X57259842Y-63850500D02*
X58367500Y-63850500D01*
X48897500Y-64967379D02*
X48897500Y-65220962D01*
%TO.N,/IO2B*%
X56177500Y-64650000D02*
X54939806Y-64650000D01*
X49639182Y-65680480D02*
X49487500Y-65528798D01*
X53909326Y-65680480D02*
X49639182Y-65680480D01*
X54939806Y-64650000D02*
X53909326Y-65680480D01*
X58367500Y-63450500D02*
X57377000Y-63450500D01*
X49487500Y-65528798D02*
X49487500Y-65078980D01*
X57377000Y-63450500D02*
X56177500Y-64650000D01*
%TO.N,/IO3A*%
X50475336Y-67420000D02*
X51215336Y-66680000D01*
X56877500Y-65750000D02*
X57577000Y-65050500D01*
X54038462Y-66680000D02*
X54968462Y-65750000D01*
X51215336Y-66680000D02*
X54038462Y-66680000D01*
X54968462Y-65750000D02*
X56877500Y-65750000D01*
X49797501Y-67689999D02*
X50067500Y-67420000D01*
X57577000Y-65050500D02*
X58367500Y-65050500D01*
X50067500Y-67420000D02*
X50475336Y-67420000D01*
%TO.N,/IO3B*%
X51297500Y-66880000D02*
X54121304Y-66880000D01*
X55051304Y-65950000D02*
X56960342Y-65950000D01*
X54121304Y-66880000D02*
X55051304Y-65950000D01*
X57459842Y-65450500D02*
X58367500Y-65450500D01*
X50397499Y-67780001D02*
X51297500Y-66880000D01*
X56960342Y-65950000D02*
X57459842Y-65450500D01*
%TO.N,/IO4A*%
X50697501Y-64639999D02*
X50799521Y-64537979D01*
X57497500Y-62290000D02*
X57937000Y-61850500D01*
X50697501Y-64967379D02*
X50697501Y-64639999D01*
X57937000Y-61850500D02*
X58367500Y-61850500D01*
X56291784Y-62290000D02*
X57497500Y-62290000D01*
X50799521Y-64537979D02*
X51126678Y-64537979D01*
X51126678Y-64537979D02*
X51954657Y-63710000D01*
X54871784Y-63710000D02*
X56291784Y-62290000D01*
X51954657Y-63710000D02*
X54871784Y-63710000D01*
%TO.N,/IO4B*%
X56353948Y-62510000D02*
X54954428Y-63909520D01*
X51297500Y-64650000D02*
X51297500Y-64967379D01*
X54954428Y-63909520D02*
X52037980Y-63909520D01*
X57907000Y-62250500D02*
X57647500Y-62510000D01*
X57647500Y-62510000D02*
X56353948Y-62510000D01*
X52037980Y-63909520D02*
X51297500Y-64650000D01*
X58367500Y-62250500D02*
X57907000Y-62250500D01*
%TO.N,/IO5A*%
X57116336Y-66280000D02*
X57545836Y-65850500D01*
X54124856Y-67200480D02*
X55045336Y-66280000D01*
X55045336Y-66280000D02*
X57116336Y-66280000D01*
X51597500Y-67804589D02*
X52201608Y-67200481D01*
X52201608Y-67200481D02*
X54124856Y-67200480D01*
X57545836Y-65850500D02*
X58367500Y-65850500D01*
%TO.N,/IO5B*%
X54207500Y-67400000D02*
X52327500Y-67400000D01*
X52327500Y-67400000D02*
X52197501Y-67529999D01*
X55127500Y-66480000D02*
X54207500Y-67400000D01*
X57428000Y-66250500D02*
X58367500Y-66250500D01*
X55127500Y-66480000D02*
X57198500Y-66480000D01*
X52197501Y-67529999D02*
X52197501Y-67982389D01*
X57198500Y-66480000D02*
X57428000Y-66250500D01*
%TO.N,/IO6A*%
X56707500Y-62710000D02*
X56167500Y-63250000D01*
X53213279Y-64150000D02*
X52497500Y-64865779D01*
X55032500Y-62205000D02*
X54422500Y-62205000D01*
X56167500Y-63250000D02*
X55267500Y-64150000D01*
X58308000Y-62710000D02*
X56707500Y-62710000D01*
X55267500Y-64150000D02*
X53213279Y-64150000D01*
X55457508Y-62630008D02*
X55032500Y-62205000D01*
%TO.N,/IO6B*%
X55477500Y-59475000D02*
X54422500Y-58420000D01*
X53097502Y-64865779D02*
X53613281Y-64350000D01*
X53613281Y-64350000D02*
X55657500Y-64350000D01*
X55657500Y-64350000D02*
X56957000Y-63050500D01*
X55477500Y-62050000D02*
X55477500Y-59475000D01*
X56957000Y-63050500D02*
X58367500Y-63050500D01*
%TO.N,/SPI_CLK*%
X78322473Y-63250000D02*
X75277500Y-63250000D01*
X73277500Y-61250000D02*
X72011500Y-61250000D01*
X64797500Y-68520500D02*
X64797500Y-68251214D01*
X64797500Y-68251214D02*
X64702500Y-68156214D01*
X78627497Y-62944976D02*
X78322473Y-63250000D01*
X75277500Y-63250000D02*
X73277500Y-61250000D01*
%TO.N,/CLK1*%
X61283000Y-69037008D02*
X61246051Y-69000059D01*
X61246051Y-69000059D02*
X61246051Y-68791449D01*
X61246051Y-68791449D02*
X61902500Y-68135000D01*
X61283000Y-69210000D02*
X61283000Y-69037008D01*
%TO.N,/SPI_IO2*%
X63102500Y-68538610D02*
X63102500Y-67785500D01*
X62946176Y-68694934D02*
X63102500Y-68538610D01*
X62946176Y-68882834D02*
X62946176Y-68694934D01*
%TO.N,/SPI_IO3*%
X63502500Y-67785500D02*
X63502500Y-68444326D01*
X63502500Y-68444326D02*
X63562342Y-68504168D01*
%TO.N,/FLASH_CS_N*%
X65102500Y-67785500D02*
X65102500Y-68331216D01*
X65147011Y-68375727D02*
X65147011Y-68778255D01*
X65147011Y-68778255D02*
X65312044Y-68943288D01*
X65102500Y-68331216D02*
X65147011Y-68375727D01*
%TO.N,/PSRAM_CS_N*%
X69185220Y-63182440D02*
X68917160Y-63450500D01*
X68917160Y-63450500D02*
X68237500Y-63450500D01*
%TO.N,Net-(LED_DONE1-A)*%
X41780000Y-57450000D02*
X40450000Y-57450000D01*
%TO.N,Net-(U6-FB)*%
X42628500Y-65870000D02*
X43777500Y-64721000D01*
X43880000Y-63450000D02*
X43880000Y-64450000D01*
%TO.N,/SPI_MISO_IO1*%
X65784259Y-69106124D02*
X65784259Y-69094525D01*
X65784259Y-69094525D02*
X65969500Y-68909284D01*
X65902500Y-68228000D02*
X65902500Y-67785500D01*
X65969500Y-68909284D02*
X65969500Y-68295000D01*
X65969500Y-68295000D02*
X65902500Y-68228000D01*
%TO.N,Net-(U1-IOR13A{slash}FASTRD_N{slash}D3)*%
X63610148Y-68853679D02*
X63707115Y-68853679D01*
X63911853Y-68359395D02*
X63902500Y-68350042D01*
X63911853Y-68648941D02*
X63911853Y-68359395D01*
X63902500Y-68350042D02*
X63902500Y-67785500D01*
X63468962Y-68994865D02*
X63610148Y-68853679D01*
X63707115Y-68853679D02*
X63911853Y-68648941D01*
%TD*%
%TA.AperFunction,Conductor*%
%TO.N,LINE*%
G36*
X84548316Y-62525185D02*
G01*
X84569130Y-62541991D01*
X84907159Y-62881351D01*
X84940524Y-62942739D01*
X84940911Y-62944608D01*
X84941534Y-62947740D01*
X84996899Y-63030601D01*
X85079760Y-63085966D01*
X85081658Y-63086343D01*
X85085412Y-63088307D01*
X85091042Y-63090639D01*
X85090833Y-63091142D01*
X85143569Y-63118726D01*
X85145311Y-63120440D01*
X85765191Y-63742761D01*
X85969102Y-63947474D01*
X86002467Y-64008863D01*
X85997345Y-64078545D01*
X85995811Y-64082434D01*
X85991532Y-64092762D01*
X85972092Y-64190497D01*
X85972092Y-64190502D01*
X85991533Y-64288238D01*
X85991533Y-64288239D01*
X85991534Y-64288240D01*
X86046899Y-64371101D01*
X86129760Y-64426466D01*
X86162340Y-64432946D01*
X86227498Y-64445908D01*
X86227499Y-64445908D01*
X86227499Y-64445907D01*
X86227500Y-64445908D01*
X86246205Y-64442187D01*
X86315795Y-64448413D01*
X86370973Y-64491275D01*
X86392014Y-64539612D01*
X86411533Y-64637738D01*
X86411533Y-64637739D01*
X86411534Y-64637740D01*
X86466899Y-64720601D01*
X86549760Y-64775966D01*
X86573936Y-64780775D01*
X86647498Y-64795408D01*
X86647500Y-64795408D01*
X86647501Y-64795408D01*
X86721064Y-64780775D01*
X86790656Y-64787002D01*
X86833108Y-64814882D01*
X86981353Y-64963711D01*
X87014718Y-65025099D01*
X87017500Y-65051219D01*
X87017500Y-67566000D01*
X86997815Y-67633039D01*
X86945011Y-67678794D01*
X86893500Y-67690000D01*
X86012674Y-67690000D01*
X85945635Y-67670315D01*
X85899880Y-67617511D01*
X85889936Y-67548353D01*
X85893405Y-67532077D01*
X85913256Y-67462310D01*
X85932929Y-67250000D01*
X85913256Y-67037690D01*
X85854905Y-66832611D01*
X85854903Y-66832606D01*
X85854903Y-66832605D01*
X85783413Y-66689034D01*
X85759866Y-66641745D01*
X85713702Y-66580614D01*
X85689010Y-66515253D01*
X85703575Y-66446918D01*
X85724970Y-66418211D01*
X85774595Y-66368587D01*
X85825000Y-66269661D01*
X85825000Y-66269659D01*
X85825001Y-66269658D01*
X85842369Y-66160002D01*
X85842369Y-66159997D01*
X85825001Y-66050341D01*
X85790752Y-65983123D01*
X85774595Y-65951413D01*
X85774592Y-65951410D01*
X85774590Y-65951407D01*
X85696092Y-65872909D01*
X85696088Y-65872906D01*
X85696087Y-65872905D01*
X85690346Y-65869980D01*
X85597158Y-65822498D01*
X85487503Y-65805131D01*
X85477742Y-65805131D01*
X85477742Y-65803631D01*
X85419031Y-65796039D01*
X85381255Y-65770206D01*
X85362517Y-65751468D01*
X85329032Y-65690145D01*
X85334016Y-65620453D01*
X85375888Y-65564520D01*
X85393896Y-65553306D01*
X85406087Y-65547095D01*
X85484595Y-65468587D01*
X85535000Y-65369661D01*
X85535000Y-65369659D01*
X85535001Y-65369658D01*
X85552369Y-65260002D01*
X85552369Y-65259997D01*
X85535001Y-65150341D01*
X85489642Y-65061319D01*
X85484595Y-65051413D01*
X85484592Y-65051410D01*
X85484590Y-65051407D01*
X85406092Y-64972909D01*
X85406088Y-64972906D01*
X85406087Y-64972905D01*
X85378086Y-64958638D01*
X85307158Y-64922498D01*
X85197502Y-64905131D01*
X85187741Y-64905131D01*
X85187741Y-64901154D01*
X85137620Y-64894653D01*
X85099889Y-64868839D01*
X84881563Y-64650513D01*
X84807872Y-64619989D01*
X84807871Y-64619989D01*
X83826893Y-64619989D01*
X83747129Y-64619989D01*
X83747127Y-64619989D01*
X83673436Y-64650513D01*
X83673435Y-64650514D01*
X83041269Y-65282681D01*
X82979946Y-65316166D01*
X82953588Y-65319000D01*
X81607787Y-65319000D01*
X81597835Y-65319980D01*
X78323955Y-65319980D01*
X78256916Y-65300295D01*
X78211161Y-65247491D01*
X78201217Y-65178333D01*
X78201482Y-65176582D01*
X78202369Y-65170981D01*
X78202369Y-65170977D01*
X78185001Y-65061321D01*
X78164451Y-65020989D01*
X78134595Y-64962393D01*
X78134592Y-64962390D01*
X78134590Y-64962387D01*
X78056092Y-64883889D01*
X78056088Y-64883886D01*
X78056087Y-64883885D01*
X78052243Y-64881926D01*
X77957158Y-64833478D01*
X77847502Y-64816111D01*
X77847498Y-64816111D01*
X77737841Y-64833478D01*
X77638914Y-64883884D01*
X77638907Y-64883889D01*
X77560409Y-64962387D01*
X77560404Y-64962394D01*
X77548888Y-64984996D01*
X77515048Y-65051413D01*
X77514609Y-65052274D01*
X77466635Y-65103071D01*
X77404124Y-65119980D01*
X74356902Y-65119980D01*
X74277138Y-65119980D01*
X74277136Y-65119980D01*
X74277134Y-65119981D01*
X74269073Y-65123320D01*
X74199603Y-65130789D01*
X74137124Y-65099513D01*
X74133940Y-65096440D01*
X74083819Y-65046319D01*
X74050334Y-64984996D01*
X74047500Y-64958638D01*
X74047500Y-63840502D01*
X84722092Y-63840502D01*
X84741533Y-63938238D01*
X84741533Y-63938239D01*
X84741534Y-63938240D01*
X84796899Y-64021101D01*
X84879760Y-64076466D01*
X84890212Y-64078545D01*
X84977498Y-64095908D01*
X84977500Y-64095908D01*
X84977502Y-64095908D01*
X85045237Y-64082434D01*
X85075240Y-64076466D01*
X85158101Y-64021101D01*
X85213466Y-63938240D01*
X85232908Y-63840500D01*
X85232908Y-63840497D01*
X85213466Y-63742761D01*
X85213466Y-63742760D01*
X85158101Y-63659899D01*
X85075240Y-63604534D01*
X85075239Y-63604533D01*
X85075238Y-63604533D01*
X84977502Y-63585092D01*
X84977498Y-63585092D01*
X84879761Y-63604533D01*
X84796899Y-63659899D01*
X84741533Y-63742761D01*
X84722092Y-63840497D01*
X84722092Y-63840502D01*
X74047500Y-63840502D01*
X74047500Y-63574000D01*
X74067185Y-63506961D01*
X74119989Y-63461206D01*
X74171500Y-63450000D01*
X75222891Y-63450000D01*
X75227966Y-63450500D01*
X75237618Y-63450500D01*
X78372007Y-63450500D01*
X78377082Y-63450000D01*
X79677498Y-63450000D01*
X79677500Y-63450000D01*
X80278684Y-62881350D01*
X80640183Y-62539415D01*
X80702414Y-62507648D01*
X80725393Y-62505500D01*
X84481277Y-62505500D01*
X84548316Y-62525185D01*
G37*
%TD.AperFunction*%
%TD*%
%TA.AperFunction,Conductor*%
%TO.N,+3V3*%
G36*
X78050826Y-57271674D02*
G01*
X78072500Y-57324000D01*
X78072500Y-57375000D01*
X79087500Y-57375000D01*
X79087500Y-57324000D01*
X79109174Y-57271674D01*
X79161500Y-57250000D01*
X79193000Y-57250000D01*
X79245326Y-57271674D01*
X79267000Y-57324000D01*
X79267000Y-57656355D01*
X79270011Y-57682315D01*
X79270012Y-57682320D01*
X79316901Y-57788514D01*
X79398986Y-57870599D01*
X79424875Y-57882030D01*
X79425498Y-57882305D01*
X79464611Y-57923268D01*
X79463303Y-57979890D01*
X79425498Y-58017695D01*
X79398985Y-58029401D01*
X79316901Y-58111485D01*
X79270011Y-58217682D01*
X79267000Y-58243643D01*
X79267000Y-58656355D01*
X79270011Y-58682315D01*
X79270012Y-58682321D01*
X79301910Y-58754563D01*
X79316901Y-58788514D01*
X79398986Y-58870599D01*
X79505180Y-58917488D01*
X79531143Y-58920500D01*
X80018856Y-58920499D01*
X80044820Y-58917488D01*
X80151014Y-58870599D01*
X80208565Y-58813048D01*
X80260890Y-58791373D01*
X80307323Y-58807753D01*
X80324252Y-58821395D01*
X80378012Y-58849516D01*
X80445051Y-58869201D01*
X80488862Y-58875500D01*
X80488868Y-58875500D01*
X80786120Y-58875500D01*
X80786138Y-58875500D01*
X80802761Y-58874609D01*
X80829119Y-58871775D01*
X80887019Y-58853645D01*
X80887030Y-58853638D01*
X80889776Y-58852473D01*
X80946411Y-58851955D01*
X80986824Y-58891635D01*
X80987342Y-58948270D01*
X80971045Y-58972904D01*
X80421124Y-59522826D01*
X80368798Y-59544500D01*
X79508333Y-59544500D01*
X79456008Y-59522826D01*
X79391087Y-59457905D01*
X79292160Y-59407499D01*
X79182500Y-59390131D01*
X79072839Y-59407499D01*
X78973912Y-59457905D01*
X78906826Y-59524992D01*
X78854500Y-59546666D01*
X78802174Y-59524992D01*
X78780500Y-59472666D01*
X78780500Y-58991440D01*
X78802174Y-58939114D01*
X78845981Y-58917933D01*
X78849820Y-58917488D01*
X78956014Y-58870599D01*
X79038099Y-58788514D01*
X79084988Y-58682320D01*
X79088000Y-58656357D01*
X79087999Y-58243644D01*
X79084988Y-58217680D01*
X79038099Y-58111486D01*
X78956014Y-58029401D01*
X78928880Y-58017420D01*
X78889769Y-57976457D01*
X78891077Y-57919835D01*
X78928884Y-57882030D01*
X78955727Y-57870178D01*
X79037678Y-57788227D01*
X79084492Y-57682206D01*
X79087500Y-57656282D01*
X79087500Y-57525000D01*
X78072500Y-57525000D01*
X78072500Y-57656282D01*
X78075507Y-57682206D01*
X78122321Y-57788227D01*
X78204273Y-57870179D01*
X78231116Y-57882031D01*
X78270230Y-57922993D01*
X78268922Y-57979615D01*
X78231118Y-58017420D01*
X78203986Y-58029400D01*
X78121901Y-58111485D01*
X78075011Y-58217682D01*
X78072000Y-58243643D01*
X78072000Y-58656355D01*
X78075011Y-58682315D01*
X78075012Y-58682321D01*
X78106910Y-58754563D01*
X78121901Y-58788514D01*
X78203986Y-58870599D01*
X78310180Y-58917488D01*
X78314022Y-58917933D01*
X78363503Y-58945489D01*
X78379500Y-58991441D01*
X78379500Y-59677358D01*
X78410022Y-59751046D01*
X78410023Y-59751048D01*
X78410024Y-59751049D01*
X78938951Y-60279976D01*
X79012643Y-60310500D01*
X79092407Y-60310500D01*
X79911667Y-60310500D01*
X79963991Y-60332173D01*
X80028913Y-60397095D01*
X80127839Y-60447500D01*
X80237500Y-60464869D01*
X80347161Y-60447500D01*
X80446087Y-60397095D01*
X80524595Y-60318587D01*
X80575000Y-60219661D01*
X80586033Y-60150000D01*
X82122092Y-60150000D01*
X82141534Y-60247740D01*
X82188871Y-60318587D01*
X82196899Y-60330601D01*
X82279760Y-60385966D01*
X82377500Y-60405408D01*
X82475240Y-60385966D01*
X82558101Y-60330601D01*
X82613466Y-60247740D01*
X82632908Y-60150000D01*
X82613466Y-60052260D01*
X82558101Y-59969399D01*
X82509701Y-59937060D01*
X82475240Y-59914034D01*
X82377500Y-59894592D01*
X82279759Y-59914034D01*
X82196899Y-59969398D01*
X82196898Y-59969399D01*
X82141534Y-60052259D01*
X82122092Y-60150000D01*
X80586033Y-60150000D01*
X80592369Y-60110000D01*
X80575000Y-60000339D01*
X80574998Y-60000335D01*
X80573247Y-59994945D01*
X80577690Y-59938482D01*
X80591299Y-59919750D01*
X80596072Y-59914976D01*
X80596074Y-59914976D01*
X80901050Y-59610000D01*
X83522092Y-59610000D01*
X83541534Y-59707740D01*
X83593156Y-59785000D01*
X83596899Y-59790601D01*
X83679760Y-59845966D01*
X83777500Y-59865408D01*
X83875240Y-59845966D01*
X83958101Y-59790601D01*
X84013466Y-59707740D01*
X84032908Y-59610000D01*
X84013466Y-59512260D01*
X83958101Y-59429399D01*
X83925326Y-59407500D01*
X83875240Y-59374034D01*
X83777500Y-59354592D01*
X83679759Y-59374034D01*
X83596899Y-59429398D01*
X83596898Y-59429399D01*
X83541534Y-59512259D01*
X83522092Y-59610000D01*
X80901050Y-59610000D01*
X81722288Y-58788762D01*
X81752812Y-58715070D01*
X81752812Y-58635306D01*
X81752812Y-57406840D01*
X81774486Y-57354514D01*
X81805000Y-57324000D01*
X81839407Y-57289593D01*
X81839408Y-57289589D01*
X81842829Y-57284883D01*
X81844248Y-57285914D01*
X81882065Y-57253621D01*
X81904928Y-57250000D01*
X83910798Y-57250000D01*
X83963124Y-57271674D01*
X84161064Y-57469614D01*
X84182738Y-57521940D01*
X84168829Y-57563456D01*
X84169437Y-57563833D01*
X84167837Y-57566415D01*
X84167803Y-57566520D01*
X84167638Y-57566737D01*
X84167632Y-57566747D01*
X84072596Y-57757606D01*
X84072593Y-57757616D01*
X84014243Y-57962690D01*
X84014242Y-57962696D01*
X83994571Y-58174996D01*
X83994571Y-58175004D01*
X84010745Y-58349560D01*
X83993991Y-58403662D01*
X83943888Y-58430071D01*
X83895949Y-58417916D01*
X83845240Y-58384034D01*
X83747500Y-58364592D01*
X83649759Y-58384034D01*
X83566899Y-58439398D01*
X83566898Y-58439399D01*
X83511534Y-58522259D01*
X83492092Y-58620000D01*
X83511534Y-58717740D01*
X83558988Y-58788762D01*
X83566899Y-58800601D01*
X83649760Y-58855966D01*
X83747500Y-58875408D01*
X83845240Y-58855966D01*
X83928101Y-58800601D01*
X83983466Y-58717740D01*
X83984462Y-58712731D01*
X84015927Y-58665640D01*
X84071476Y-58654590D01*
X84118568Y-58686055D01*
X84123282Y-58694184D01*
X84167632Y-58783252D01*
X84167636Y-58783258D01*
X84173764Y-58791373D01*
X84296128Y-58953407D01*
X84453698Y-59097052D01*
X84634981Y-59209298D01*
X84833802Y-59286321D01*
X85043390Y-59325500D01*
X85076000Y-59325500D01*
X85128326Y-59347174D01*
X85150000Y-59399500D01*
X85150000Y-61439656D01*
X85150000Y-61846848D01*
X85128326Y-61899174D01*
X84699174Y-62328326D01*
X84646848Y-62350000D01*
X78782209Y-62350000D01*
X78777133Y-62349500D01*
X78772406Y-62349500D01*
X78417382Y-62349500D01*
X78337618Y-62349500D01*
X78332891Y-62349500D01*
X78327815Y-62350000D01*
X76720652Y-62350000D01*
X76668326Y-62328326D01*
X75261674Y-60921674D01*
X75240000Y-60869348D01*
X75240000Y-60200000D01*
X76072631Y-60200000D01*
X76089999Y-60309660D01*
X76128879Y-60385966D01*
X76140405Y-60408587D01*
X76218913Y-60487095D01*
X76317839Y-60537500D01*
X76427500Y-60554869D01*
X76537161Y-60537500D01*
X76636087Y-60487095D01*
X76714595Y-60408587D01*
X76765000Y-60309661D01*
X76770292Y-60276243D01*
X76791053Y-60235495D01*
X76944155Y-60082393D01*
X76996480Y-60060720D01*
X77008046Y-60061630D01*
X77032384Y-60065485D01*
X77142045Y-60048116D01*
X77240971Y-59997711D01*
X77319479Y-59919203D01*
X77369884Y-59820277D01*
X77387253Y-59710616D01*
X77369884Y-59600955D01*
X77319479Y-59502029D01*
X77240971Y-59423521D01*
X77193827Y-59399500D01*
X77142044Y-59373115D01*
X77032384Y-59355747D01*
X76922723Y-59373115D01*
X76823796Y-59423521D01*
X76745289Y-59502028D01*
X76694883Y-59600955D01*
X76677515Y-59710616D01*
X76677515Y-59710618D01*
X76681367Y-59734944D01*
X76668144Y-59790016D01*
X76660604Y-59798844D01*
X76614352Y-59845096D01*
X76562026Y-59866770D01*
X76539167Y-59863151D01*
X76537164Y-59862500D01*
X76427500Y-59845131D01*
X76317839Y-59862499D01*
X76218912Y-59912905D01*
X76140405Y-59991412D01*
X76089999Y-60090339D01*
X76072631Y-60200000D01*
X75240000Y-60200000D01*
X75240000Y-59247500D01*
X75261674Y-59195174D01*
X75314000Y-59173500D01*
X75431604Y-59173500D01*
X75447222Y-59171624D01*
X75520064Y-59162877D01*
X75660842Y-59107361D01*
X75781422Y-59015922D01*
X75872861Y-58895342D01*
X75928377Y-58754564D01*
X75939000Y-58666102D01*
X75939000Y-58410000D01*
X77092092Y-58410000D01*
X77111534Y-58507740D01*
X77166899Y-58590601D01*
X77249760Y-58645966D01*
X77347500Y-58665408D01*
X77445240Y-58645966D01*
X77528101Y-58590601D01*
X77583466Y-58507740D01*
X77602908Y-58410000D01*
X77583466Y-58312260D01*
X77528101Y-58229399D01*
X77445240Y-58174034D01*
X77347500Y-58154592D01*
X77249759Y-58174034D01*
X77166899Y-58229398D01*
X77166898Y-58229399D01*
X77111534Y-58312259D01*
X77111534Y-58312260D01*
X77092092Y-58410000D01*
X75939000Y-58410000D01*
X75939000Y-57479898D01*
X75928377Y-57391436D01*
X75912489Y-57351147D01*
X75913456Y-57294518D01*
X75954183Y-57255159D01*
X75981330Y-57250000D01*
X77998500Y-57250000D01*
X78050826Y-57271674D01*
G37*
%TD.AperFunction*%
%TD*%
%TA.AperFunction,Conductor*%
%TO.N,LINE*%
G36*
X81540539Y-55419685D02*
G01*
X81586294Y-55472489D01*
X81597500Y-55524000D01*
X81597500Y-56613073D01*
X81577815Y-56680112D01*
X81525011Y-56725867D01*
X81492900Y-56735546D01*
X81442653Y-56743505D01*
X81343726Y-56793910D01*
X81343719Y-56793915D01*
X81265221Y-56872413D01*
X81265216Y-56872420D01*
X81214810Y-56971347D01*
X81197443Y-57081003D01*
X81197443Y-57081008D01*
X81214810Y-57190664D01*
X81263258Y-57285749D01*
X81265217Y-57289593D01*
X81265221Y-57289597D01*
X81315492Y-57339868D01*
X81348978Y-57401191D01*
X81351812Y-57427550D01*
X81351812Y-58154326D01*
X81332127Y-58221365D01*
X81315493Y-58242007D01*
X80873819Y-58683681D01*
X80812496Y-58717166D01*
X80786138Y-58720000D01*
X80488862Y-58720000D01*
X80421823Y-58700315D01*
X80401181Y-58683681D01*
X80319318Y-58601818D01*
X80285833Y-58540495D01*
X80282999Y-58514143D01*
X80282999Y-58243644D01*
X80282805Y-58241976D01*
X80279989Y-58217685D01*
X80279988Y-58217682D01*
X80279988Y-58217680D01*
X80233099Y-58111486D01*
X80159294Y-58037681D01*
X80125809Y-57976358D01*
X80130793Y-57906666D01*
X80159294Y-57862319D01*
X80233099Y-57788514D01*
X80279988Y-57682320D01*
X80283000Y-57656357D01*
X80282999Y-57243644D01*
X80279988Y-57217680D01*
X80233099Y-57111486D01*
X80151014Y-57029401D01*
X80061512Y-56989882D01*
X80044821Y-56982512D01*
X80018860Y-56979500D01*
X80015288Y-56979294D01*
X80015299Y-56979087D01*
X80015298Y-56979087D01*
X80015301Y-56979053D01*
X80015379Y-56977702D01*
X79954461Y-56959815D01*
X79908706Y-56907011D01*
X79897500Y-56855500D01*
X79897500Y-56854500D01*
X79917185Y-56787461D01*
X79969989Y-56741706D01*
X80021500Y-56730500D01*
X80073130Y-56730500D01*
X80073136Y-56730500D01*
X80146125Y-56719866D01*
X80227443Y-56680112D01*
X80258710Y-56664827D01*
X80347327Y-56576210D01*
X80374259Y-56521118D01*
X80402366Y-56463625D01*
X80413000Y-56390636D01*
X80413000Y-55524000D01*
X80432685Y-55456961D01*
X80485489Y-55411206D01*
X80537000Y-55400000D01*
X81473500Y-55400000D01*
X81540539Y-55419685D01*
G37*
%TD.AperFunction*%
%TD*%
M02*
