%TF.GenerationSoftware,KiCad,Pcbnew,8.0.1-8.0.1-1~ubuntu22.04.1*%
%TF.CreationDate,2024-05-05T11:37:55-07:00*%
%TF.ProjectId,unic_gw1,756e6963-5f67-4773-912e-6b696361645f,1.0*%
%TF.SameCoordinates,Original*%
%TF.FileFunction,Paste,Bot*%
%TF.FilePolarity,Positive*%
%FSLAX46Y46*%
G04 Gerber Fmt 4.6, Leading zero omitted, Abs format (unit mm)*
G04 Created by KiCad (PCBNEW 8.0.1-8.0.1-1~ubuntu22.04.1) date 2024-05-05 11:37:55*
%MOMM*%
%LPD*%
G01*
G04 APERTURE LIST*
G04 Aperture macros list*
%AMRoundRect*
0 Rectangle with rounded corners*
0 $1 Rounding radius*
0 $2 $3 $4 $5 $6 $7 $8 $9 X,Y pos of 4 corners*
0 Add a 4 corners polygon primitive as box body*
4,1,4,$2,$3,$4,$5,$6,$7,$8,$9,$2,$3,0*
0 Add four circle primitives for the rounded corners*
1,1,$1+$1,$2,$3*
1,1,$1+$1,$4,$5*
1,1,$1+$1,$6,$7*
1,1,$1+$1,$8,$9*
0 Add four rect primitives between the rounded corners*
20,1,$1+$1,$2,$3,$4,$5,0*
20,1,$1+$1,$4,$5,$6,$7,0*
20,1,$1+$1,$6,$7,$8,$9,0*
20,1,$1+$1,$8,$9,$2,$3,0*%
G04 Aperture macros list end*
%ADD10C,0.150000*%
%ADD11C,0.010000*%
%ADD12RoundRect,0.160000X0.197500X0.160000X-0.197500X0.160000X-0.197500X-0.160000X0.197500X-0.160000X0*%
%ADD13RoundRect,0.050000X0.150000X0.075000X-0.150000X0.075000X-0.150000X-0.075000X0.150000X-0.075000X0*%
%ADD14RoundRect,0.050000X0.150000X0.300000X-0.150000X0.300000X-0.150000X-0.300000X0.150000X-0.300000X0*%
%ADD15RoundRect,0.155000X-0.155000X0.212500X-0.155000X-0.212500X0.155000X-0.212500X0.155000X0.212500X0*%
%ADD16RoundRect,0.093750X0.093750X-0.156250X0.093750X0.156250X-0.093750X0.156250X-0.093750X-0.156250X0*%
%ADD17RoundRect,0.075000X0.075000X-0.250000X0.075000X0.250000X-0.075000X0.250000X-0.075000X-0.250000X0*%
%ADD18RoundRect,0.019500X0.175500X-0.465500X0.175500X0.465500X-0.175500X0.465500X-0.175500X-0.465500X0*%
%ADD19RoundRect,0.019500X-0.175500X0.465500X-0.175500X-0.465500X0.175500X-0.465500X0.175500X0.465500X0*%
%ADD20RoundRect,0.155000X-0.212500X-0.155000X0.212500X-0.155000X0.212500X0.155000X-0.212500X0.155000X0*%
%ADD21RoundRect,0.160000X-0.160000X0.197500X-0.160000X-0.197500X0.160000X-0.197500X0.160000X0.197500X0*%
%ADD22RoundRect,0.160000X0.160000X-0.197500X0.160000X0.197500X-0.160000X0.197500X-0.160000X-0.197500X0*%
%ADD23RoundRect,0.160000X-0.197500X-0.160000X0.197500X-0.160000X0.197500X0.160000X-0.197500X0.160000X0*%
%ADD24RoundRect,0.155000X0.212500X0.155000X-0.212500X0.155000X-0.212500X-0.155000X0.212500X-0.155000X0*%
%ADD25R,1.300000X1.100000*%
%ADD26RoundRect,0.150000X0.512500X0.150000X-0.512500X0.150000X-0.512500X-0.150000X0.512500X-0.150000X0*%
%ADD27RoundRect,0.155000X0.155000X-0.212500X0.155000X0.212500X-0.155000X0.212500X-0.155000X-0.212500X0*%
%ADD28RoundRect,0.050000X-0.075000X0.150000X-0.075000X-0.150000X0.075000X-0.150000X0.075000X0.150000X0*%
%ADD29RoundRect,0.050000X-0.300000X0.150000X-0.300000X-0.150000X0.300000X-0.150000X0.300000X0.150000X0*%
G04 APERTURE END LIST*
D10*
X55609279Y-41319931D02*
X55609279Y-42129454D01*
X55609279Y-42129454D02*
X55656898Y-42224692D01*
X55656898Y-42224692D02*
X55704517Y-42272312D01*
X55704517Y-42272312D02*
X55799755Y-42319931D01*
X55799755Y-42319931D02*
X55990231Y-42319931D01*
X55990231Y-42319931D02*
X56085469Y-42272312D01*
X56085469Y-42272312D02*
X56133088Y-42224692D01*
X56133088Y-42224692D02*
X56180707Y-42129454D01*
X56180707Y-42129454D02*
X56180707Y-41319931D01*
X56656898Y-41653264D02*
X56656898Y-42319931D01*
X56656898Y-41748502D02*
X56704517Y-41700883D01*
X56704517Y-41700883D02*
X56799755Y-41653264D01*
X56799755Y-41653264D02*
X56942612Y-41653264D01*
X56942612Y-41653264D02*
X57037850Y-41700883D01*
X57037850Y-41700883D02*
X57085469Y-41796121D01*
X57085469Y-41796121D02*
X57085469Y-42319931D01*
X57561660Y-42319931D02*
X57561660Y-41319931D01*
X58609278Y-42224692D02*
X58561659Y-42272312D01*
X58561659Y-42272312D02*
X58418802Y-42319931D01*
X58418802Y-42319931D02*
X58323564Y-42319931D01*
X58323564Y-42319931D02*
X58180707Y-42272312D01*
X58180707Y-42272312D02*
X58085469Y-42177073D01*
X58085469Y-42177073D02*
X58037850Y-42081835D01*
X58037850Y-42081835D02*
X57990231Y-41891359D01*
X57990231Y-41891359D02*
X57990231Y-41748502D01*
X57990231Y-41748502D02*
X58037850Y-41558026D01*
X58037850Y-41558026D02*
X58085469Y-41462788D01*
X58085469Y-41462788D02*
X58180707Y-41367550D01*
X58180707Y-41367550D02*
X58323564Y-41319931D01*
X58323564Y-41319931D02*
X58418802Y-41319931D01*
X58418802Y-41319931D02*
X58561659Y-41367550D01*
X58561659Y-41367550D02*
X58609278Y-41415169D01*
X59656898Y-41319931D02*
X59990231Y-42319931D01*
X59990231Y-42319931D02*
X60323564Y-41319931D01*
X61180707Y-42319931D02*
X60609279Y-42319931D01*
X60894993Y-42319931D02*
X60894993Y-41319931D01*
X60894993Y-41319931D02*
X60799755Y-41462788D01*
X60799755Y-41462788D02*
X60704517Y-41558026D01*
X60704517Y-41558026D02*
X60609279Y-41605645D01*
X61609279Y-42224692D02*
X61656898Y-42272312D01*
X61656898Y-42272312D02*
X61609279Y-42319931D01*
X61609279Y-42319931D02*
X61561660Y-42272312D01*
X61561660Y-42272312D02*
X61609279Y-42224692D01*
X61609279Y-42224692D02*
X61609279Y-42319931D01*
X62275945Y-41319931D02*
X62371183Y-41319931D01*
X62371183Y-41319931D02*
X62466421Y-41367550D01*
X62466421Y-41367550D02*
X62514040Y-41415169D01*
X62514040Y-41415169D02*
X62561659Y-41510407D01*
X62561659Y-41510407D02*
X62609278Y-41700883D01*
X62609278Y-41700883D02*
X62609278Y-41938978D01*
X62609278Y-41938978D02*
X62561659Y-42129454D01*
X62561659Y-42129454D02*
X62514040Y-42224692D01*
X62514040Y-42224692D02*
X62466421Y-42272312D01*
X62466421Y-42272312D02*
X62371183Y-42319931D01*
X62371183Y-42319931D02*
X62275945Y-42319931D01*
X62275945Y-42319931D02*
X62180707Y-42272312D01*
X62180707Y-42272312D02*
X62133088Y-42224692D01*
X62133088Y-42224692D02*
X62085469Y-42129454D01*
X62085469Y-42129454D02*
X62037850Y-41938978D01*
X62037850Y-41938978D02*
X62037850Y-41700883D01*
X62037850Y-41700883D02*
X62085469Y-41510407D01*
X62085469Y-41510407D02*
X62133088Y-41415169D01*
X62133088Y-41415169D02*
X62180707Y-41367550D01*
X62180707Y-41367550D02*
X62275945Y-41319931D01*
X55942612Y-43406065D02*
X56085469Y-43453684D01*
X56085469Y-43453684D02*
X56133088Y-43501303D01*
X56133088Y-43501303D02*
X56180707Y-43596541D01*
X56180707Y-43596541D02*
X56180707Y-43739398D01*
X56180707Y-43739398D02*
X56133088Y-43834636D01*
X56133088Y-43834636D02*
X56085469Y-43882256D01*
X56085469Y-43882256D02*
X55990231Y-43929875D01*
X55990231Y-43929875D02*
X55609279Y-43929875D01*
X55609279Y-43929875D02*
X55609279Y-42929875D01*
X55609279Y-42929875D02*
X55942612Y-42929875D01*
X55942612Y-42929875D02*
X56037850Y-42977494D01*
X56037850Y-42977494D02*
X56085469Y-43025113D01*
X56085469Y-43025113D02*
X56133088Y-43120351D01*
X56133088Y-43120351D02*
X56133088Y-43215589D01*
X56133088Y-43215589D02*
X56085469Y-43310827D01*
X56085469Y-43310827D02*
X56037850Y-43358446D01*
X56037850Y-43358446D02*
X55942612Y-43406065D01*
X55942612Y-43406065D02*
X55609279Y-43406065D01*
X56752136Y-43929875D02*
X56656898Y-43882256D01*
X56656898Y-43882256D02*
X56609279Y-43834636D01*
X56609279Y-43834636D02*
X56561660Y-43739398D01*
X56561660Y-43739398D02*
X56561660Y-43453684D01*
X56561660Y-43453684D02*
X56609279Y-43358446D01*
X56609279Y-43358446D02*
X56656898Y-43310827D01*
X56656898Y-43310827D02*
X56752136Y-43263208D01*
X56752136Y-43263208D02*
X56894993Y-43263208D01*
X56894993Y-43263208D02*
X56990231Y-43310827D01*
X56990231Y-43310827D02*
X57037850Y-43358446D01*
X57037850Y-43358446D02*
X57085469Y-43453684D01*
X57085469Y-43453684D02*
X57085469Y-43739398D01*
X57085469Y-43739398D02*
X57037850Y-43834636D01*
X57037850Y-43834636D02*
X56990231Y-43882256D01*
X56990231Y-43882256D02*
X56894993Y-43929875D01*
X56894993Y-43929875D02*
X56752136Y-43929875D01*
X57371184Y-43263208D02*
X57752136Y-43263208D01*
X57514041Y-42929875D02*
X57514041Y-43787017D01*
X57514041Y-43787017D02*
X57561660Y-43882256D01*
X57561660Y-43882256D02*
X57656898Y-43929875D01*
X57656898Y-43929875D02*
X57752136Y-43929875D01*
X57942613Y-43263208D02*
X58323565Y-43263208D01*
X58085470Y-42929875D02*
X58085470Y-43787017D01*
X58085470Y-43787017D02*
X58133089Y-43882256D01*
X58133089Y-43882256D02*
X58228327Y-43929875D01*
X58228327Y-43929875D02*
X58323565Y-43929875D01*
X58799756Y-43929875D02*
X58704518Y-43882256D01*
X58704518Y-43882256D02*
X58656899Y-43834636D01*
X58656899Y-43834636D02*
X58609280Y-43739398D01*
X58609280Y-43739398D02*
X58609280Y-43453684D01*
X58609280Y-43453684D02*
X58656899Y-43358446D01*
X58656899Y-43358446D02*
X58704518Y-43310827D01*
X58704518Y-43310827D02*
X58799756Y-43263208D01*
X58799756Y-43263208D02*
X58942613Y-43263208D01*
X58942613Y-43263208D02*
X59037851Y-43310827D01*
X59037851Y-43310827D02*
X59085470Y-43358446D01*
X59085470Y-43358446D02*
X59133089Y-43453684D01*
X59133089Y-43453684D02*
X59133089Y-43739398D01*
X59133089Y-43739398D02*
X59085470Y-43834636D01*
X59085470Y-43834636D02*
X59037851Y-43882256D01*
X59037851Y-43882256D02*
X58942613Y-43929875D01*
X58942613Y-43929875D02*
X58799756Y-43929875D01*
X59561661Y-43929875D02*
X59561661Y-43263208D01*
X59561661Y-43358446D02*
X59609280Y-43310827D01*
X59609280Y-43310827D02*
X59704518Y-43263208D01*
X59704518Y-43263208D02*
X59847375Y-43263208D01*
X59847375Y-43263208D02*
X59942613Y-43310827D01*
X59942613Y-43310827D02*
X59990232Y-43406065D01*
X59990232Y-43406065D02*
X59990232Y-43929875D01*
X59990232Y-43406065D02*
X60037851Y-43310827D01*
X60037851Y-43310827D02*
X60133089Y-43263208D01*
X60133089Y-43263208D02*
X60275946Y-43263208D01*
X60275946Y-43263208D02*
X60371185Y-43310827D01*
X60371185Y-43310827D02*
X60418804Y-43406065D01*
X60418804Y-43406065D02*
X60418804Y-43929875D01*
X61656899Y-43929875D02*
X61656899Y-42929875D01*
X61656899Y-42929875D02*
X62037851Y-42929875D01*
X62037851Y-42929875D02*
X62133089Y-42977494D01*
X62133089Y-42977494D02*
X62180708Y-43025113D01*
X62180708Y-43025113D02*
X62228327Y-43120351D01*
X62228327Y-43120351D02*
X62228327Y-43263208D01*
X62228327Y-43263208D02*
X62180708Y-43358446D01*
X62180708Y-43358446D02*
X62133089Y-43406065D01*
X62133089Y-43406065D02*
X62037851Y-43453684D01*
X62037851Y-43453684D02*
X61656899Y-43453684D01*
X63085470Y-43929875D02*
X63085470Y-43406065D01*
X63085470Y-43406065D02*
X63037851Y-43310827D01*
X63037851Y-43310827D02*
X62942613Y-43263208D01*
X62942613Y-43263208D02*
X62752137Y-43263208D01*
X62752137Y-43263208D02*
X62656899Y-43310827D01*
X63085470Y-43882256D02*
X62990232Y-43929875D01*
X62990232Y-43929875D02*
X62752137Y-43929875D01*
X62752137Y-43929875D02*
X62656899Y-43882256D01*
X62656899Y-43882256D02*
X62609280Y-43787017D01*
X62609280Y-43787017D02*
X62609280Y-43691779D01*
X62609280Y-43691779D02*
X62656899Y-43596541D01*
X62656899Y-43596541D02*
X62752137Y-43548922D01*
X62752137Y-43548922D02*
X62990232Y-43548922D01*
X62990232Y-43548922D02*
X63085470Y-43501303D01*
X63514042Y-43882256D02*
X63609280Y-43929875D01*
X63609280Y-43929875D02*
X63799756Y-43929875D01*
X63799756Y-43929875D02*
X63894994Y-43882256D01*
X63894994Y-43882256D02*
X63942613Y-43787017D01*
X63942613Y-43787017D02*
X63942613Y-43739398D01*
X63942613Y-43739398D02*
X63894994Y-43644160D01*
X63894994Y-43644160D02*
X63799756Y-43596541D01*
X63799756Y-43596541D02*
X63656899Y-43596541D01*
X63656899Y-43596541D02*
X63561661Y-43548922D01*
X63561661Y-43548922D02*
X63514042Y-43453684D01*
X63514042Y-43453684D02*
X63514042Y-43406065D01*
X63514042Y-43406065D02*
X63561661Y-43310827D01*
X63561661Y-43310827D02*
X63656899Y-43263208D01*
X63656899Y-43263208D02*
X63799756Y-43263208D01*
X63799756Y-43263208D02*
X63894994Y-43310827D01*
X64228328Y-43263208D02*
X64609280Y-43263208D01*
X64371185Y-42929875D02*
X64371185Y-43787017D01*
X64371185Y-43787017D02*
X64418804Y-43882256D01*
X64418804Y-43882256D02*
X64514042Y-43929875D01*
X64514042Y-43929875D02*
X64609280Y-43929875D01*
X65323566Y-43882256D02*
X65228328Y-43929875D01*
X65228328Y-43929875D02*
X65037852Y-43929875D01*
X65037852Y-43929875D02*
X64942614Y-43882256D01*
X64942614Y-43882256D02*
X64894995Y-43787017D01*
X64894995Y-43787017D02*
X64894995Y-43406065D01*
X64894995Y-43406065D02*
X64942614Y-43310827D01*
X64942614Y-43310827D02*
X65037852Y-43263208D01*
X65037852Y-43263208D02*
X65228328Y-43263208D01*
X65228328Y-43263208D02*
X65323566Y-43310827D01*
X65323566Y-43310827D02*
X65371185Y-43406065D01*
X65371185Y-43406065D02*
X65371185Y-43501303D01*
X65371185Y-43501303D02*
X64894995Y-43596541D01*
X55894993Y-45920771D02*
X55847374Y-45873152D01*
X55847374Y-45873152D02*
X55752136Y-45730295D01*
X55752136Y-45730295D02*
X55704517Y-45635057D01*
X55704517Y-45635057D02*
X55656898Y-45492200D01*
X55656898Y-45492200D02*
X55609279Y-45254104D01*
X55609279Y-45254104D02*
X55609279Y-45063628D01*
X55609279Y-45063628D02*
X55656898Y-44825533D01*
X55656898Y-44825533D02*
X55704517Y-44682676D01*
X55704517Y-44682676D02*
X55752136Y-44587438D01*
X55752136Y-44587438D02*
X55847374Y-44444580D01*
X55847374Y-44444580D02*
X55894993Y-44396961D01*
X56847374Y-45444580D02*
X56799755Y-45492200D01*
X56799755Y-45492200D02*
X56656898Y-45539819D01*
X56656898Y-45539819D02*
X56561660Y-45539819D01*
X56561660Y-45539819D02*
X56418803Y-45492200D01*
X56418803Y-45492200D02*
X56323565Y-45396961D01*
X56323565Y-45396961D02*
X56275946Y-45301723D01*
X56275946Y-45301723D02*
X56228327Y-45111247D01*
X56228327Y-45111247D02*
X56228327Y-44968390D01*
X56228327Y-44968390D02*
X56275946Y-44777914D01*
X56275946Y-44777914D02*
X56323565Y-44682676D01*
X56323565Y-44682676D02*
X56418803Y-44587438D01*
X56418803Y-44587438D02*
X56561660Y-44539819D01*
X56561660Y-44539819D02*
X56656898Y-44539819D01*
X56656898Y-44539819D02*
X56799755Y-44587438D01*
X56799755Y-44587438D02*
X56847374Y-44635057D01*
X57180708Y-45920771D02*
X57228327Y-45873152D01*
X57228327Y-45873152D02*
X57323565Y-45730295D01*
X57323565Y-45730295D02*
X57371184Y-45635057D01*
X57371184Y-45635057D02*
X57418803Y-45492200D01*
X57418803Y-45492200D02*
X57466422Y-45254104D01*
X57466422Y-45254104D02*
X57466422Y-45063628D01*
X57466422Y-45063628D02*
X57418803Y-44825533D01*
X57418803Y-44825533D02*
X57371184Y-44682676D01*
X57371184Y-44682676D02*
X57323565Y-44587438D01*
X57323565Y-44587438D02*
X57228327Y-44444580D01*
X57228327Y-44444580D02*
X57180708Y-44396961D01*
X58656899Y-44635057D02*
X58704518Y-44587438D01*
X58704518Y-44587438D02*
X58799756Y-44539819D01*
X58799756Y-44539819D02*
X59037851Y-44539819D01*
X59037851Y-44539819D02*
X59133089Y-44587438D01*
X59133089Y-44587438D02*
X59180708Y-44635057D01*
X59180708Y-44635057D02*
X59228327Y-44730295D01*
X59228327Y-44730295D02*
X59228327Y-44825533D01*
X59228327Y-44825533D02*
X59180708Y-44968390D01*
X59180708Y-44968390D02*
X58609280Y-45539819D01*
X58609280Y-45539819D02*
X59228327Y-45539819D01*
X59847375Y-44539819D02*
X59942613Y-44539819D01*
X59942613Y-44539819D02*
X60037851Y-44587438D01*
X60037851Y-44587438D02*
X60085470Y-44635057D01*
X60085470Y-44635057D02*
X60133089Y-44730295D01*
X60133089Y-44730295D02*
X60180708Y-44920771D01*
X60180708Y-44920771D02*
X60180708Y-45158866D01*
X60180708Y-45158866D02*
X60133089Y-45349342D01*
X60133089Y-45349342D02*
X60085470Y-45444580D01*
X60085470Y-45444580D02*
X60037851Y-45492200D01*
X60037851Y-45492200D02*
X59942613Y-45539819D01*
X59942613Y-45539819D02*
X59847375Y-45539819D01*
X59847375Y-45539819D02*
X59752137Y-45492200D01*
X59752137Y-45492200D02*
X59704518Y-45444580D01*
X59704518Y-45444580D02*
X59656899Y-45349342D01*
X59656899Y-45349342D02*
X59609280Y-45158866D01*
X59609280Y-45158866D02*
X59609280Y-44920771D01*
X59609280Y-44920771D02*
X59656899Y-44730295D01*
X59656899Y-44730295D02*
X59704518Y-44635057D01*
X59704518Y-44635057D02*
X59752137Y-44587438D01*
X59752137Y-44587438D02*
X59847375Y-44539819D01*
X60561661Y-44635057D02*
X60609280Y-44587438D01*
X60609280Y-44587438D02*
X60704518Y-44539819D01*
X60704518Y-44539819D02*
X60942613Y-44539819D01*
X60942613Y-44539819D02*
X61037851Y-44587438D01*
X61037851Y-44587438D02*
X61085470Y-44635057D01*
X61085470Y-44635057D02*
X61133089Y-44730295D01*
X61133089Y-44730295D02*
X61133089Y-44825533D01*
X61133089Y-44825533D02*
X61085470Y-44968390D01*
X61085470Y-44968390D02*
X60514042Y-45539819D01*
X60514042Y-45539819D02*
X61133089Y-45539819D01*
X61990232Y-44873152D02*
X61990232Y-45539819D01*
X61752137Y-44492200D02*
X61514042Y-45206485D01*
X61514042Y-45206485D02*
X62133089Y-45206485D01*
X63275947Y-45539819D02*
X63275947Y-44539819D01*
X63275947Y-44539819D02*
X63609280Y-45254104D01*
X63609280Y-45254104D02*
X63942613Y-44539819D01*
X63942613Y-44539819D02*
X63942613Y-45539819D01*
X64561661Y-45539819D02*
X64466423Y-45492200D01*
X64466423Y-45492200D02*
X64418804Y-45444580D01*
X64418804Y-45444580D02*
X64371185Y-45349342D01*
X64371185Y-45349342D02*
X64371185Y-45063628D01*
X64371185Y-45063628D02*
X64418804Y-44968390D01*
X64418804Y-44968390D02*
X64466423Y-44920771D01*
X64466423Y-44920771D02*
X64561661Y-44873152D01*
X64561661Y-44873152D02*
X64704518Y-44873152D01*
X64704518Y-44873152D02*
X64799756Y-44920771D01*
X64799756Y-44920771D02*
X64847375Y-44968390D01*
X64847375Y-44968390D02*
X64894994Y-45063628D01*
X64894994Y-45063628D02*
X64894994Y-45349342D01*
X64894994Y-45349342D02*
X64847375Y-45444580D01*
X64847375Y-45444580D02*
X64799756Y-45492200D01*
X64799756Y-45492200D02*
X64704518Y-45539819D01*
X64704518Y-45539819D02*
X64561661Y-45539819D01*
X65752137Y-45539819D02*
X65752137Y-44539819D01*
X65752137Y-45492200D02*
X65656899Y-45539819D01*
X65656899Y-45539819D02*
X65466423Y-45539819D01*
X65466423Y-45539819D02*
X65371185Y-45492200D01*
X65371185Y-45492200D02*
X65323566Y-45444580D01*
X65323566Y-45444580D02*
X65275947Y-45349342D01*
X65275947Y-45349342D02*
X65275947Y-45063628D01*
X65275947Y-45063628D02*
X65323566Y-44968390D01*
X65323566Y-44968390D02*
X65371185Y-44920771D01*
X65371185Y-44920771D02*
X65466423Y-44873152D01*
X65466423Y-44873152D02*
X65656899Y-44873152D01*
X65656899Y-44873152D02*
X65752137Y-44920771D01*
X66656899Y-44873152D02*
X66656899Y-45539819D01*
X66228328Y-44873152D02*
X66228328Y-45396961D01*
X66228328Y-45396961D02*
X66275947Y-45492200D01*
X66275947Y-45492200D02*
X66371185Y-45539819D01*
X66371185Y-45539819D02*
X66514042Y-45539819D01*
X66514042Y-45539819D02*
X66609280Y-45492200D01*
X66609280Y-45492200D02*
X66656899Y-45444580D01*
X67275947Y-45539819D02*
X67180709Y-45492200D01*
X67180709Y-45492200D02*
X67133090Y-45396961D01*
X67133090Y-45396961D02*
X67133090Y-44539819D01*
X68085471Y-45539819D02*
X68085471Y-45016009D01*
X68085471Y-45016009D02*
X68037852Y-44920771D01*
X68037852Y-44920771D02*
X67942614Y-44873152D01*
X67942614Y-44873152D02*
X67752138Y-44873152D01*
X67752138Y-44873152D02*
X67656900Y-44920771D01*
X68085471Y-45492200D02*
X67990233Y-45539819D01*
X67990233Y-45539819D02*
X67752138Y-45539819D01*
X67752138Y-45539819D02*
X67656900Y-45492200D01*
X67656900Y-45492200D02*
X67609281Y-45396961D01*
X67609281Y-45396961D02*
X67609281Y-45301723D01*
X67609281Y-45301723D02*
X67656900Y-45206485D01*
X67656900Y-45206485D02*
X67752138Y-45158866D01*
X67752138Y-45158866D02*
X67990233Y-45158866D01*
X67990233Y-45158866D02*
X68085471Y-45111247D01*
X68561662Y-45539819D02*
X68561662Y-44873152D01*
X68561662Y-45063628D02*
X68609281Y-44968390D01*
X68609281Y-44968390D02*
X68656900Y-44920771D01*
X68656900Y-44920771D02*
X68752138Y-44873152D01*
X68752138Y-44873152D02*
X68847376Y-44873152D01*
X70514043Y-45444580D02*
X70466424Y-45492200D01*
X70466424Y-45492200D02*
X70323567Y-45539819D01*
X70323567Y-45539819D02*
X70228329Y-45539819D01*
X70228329Y-45539819D02*
X70085472Y-45492200D01*
X70085472Y-45492200D02*
X69990234Y-45396961D01*
X69990234Y-45396961D02*
X69942615Y-45301723D01*
X69942615Y-45301723D02*
X69894996Y-45111247D01*
X69894996Y-45111247D02*
X69894996Y-44968390D01*
X69894996Y-44968390D02*
X69942615Y-44777914D01*
X69942615Y-44777914D02*
X69990234Y-44682676D01*
X69990234Y-44682676D02*
X70085472Y-44587438D01*
X70085472Y-44587438D02*
X70228329Y-44539819D01*
X70228329Y-44539819D02*
X70323567Y-44539819D01*
X70323567Y-44539819D02*
X70466424Y-44587438D01*
X70466424Y-44587438D02*
X70514043Y-44635057D01*
X70942615Y-45539819D02*
X70942615Y-44873152D01*
X70942615Y-44539819D02*
X70894996Y-44587438D01*
X70894996Y-44587438D02*
X70942615Y-44635057D01*
X70942615Y-44635057D02*
X70990234Y-44587438D01*
X70990234Y-44587438D02*
X70942615Y-44539819D01*
X70942615Y-44539819D02*
X70942615Y-44635057D01*
X71418805Y-45539819D02*
X71418805Y-44873152D01*
X71418805Y-45063628D02*
X71466424Y-44968390D01*
X71466424Y-44968390D02*
X71514043Y-44920771D01*
X71514043Y-44920771D02*
X71609281Y-44873152D01*
X71609281Y-44873152D02*
X71704519Y-44873152D01*
X72466424Y-45492200D02*
X72371186Y-45539819D01*
X72371186Y-45539819D02*
X72180710Y-45539819D01*
X72180710Y-45539819D02*
X72085472Y-45492200D01*
X72085472Y-45492200D02*
X72037853Y-45444580D01*
X72037853Y-45444580D02*
X71990234Y-45349342D01*
X71990234Y-45349342D02*
X71990234Y-45063628D01*
X71990234Y-45063628D02*
X72037853Y-44968390D01*
X72037853Y-44968390D02*
X72085472Y-44920771D01*
X72085472Y-44920771D02*
X72180710Y-44873152D01*
X72180710Y-44873152D02*
X72371186Y-44873152D01*
X72371186Y-44873152D02*
X72466424Y-44920771D01*
X73323567Y-44873152D02*
X73323567Y-45539819D01*
X72894996Y-44873152D02*
X72894996Y-45396961D01*
X72894996Y-45396961D02*
X72942615Y-45492200D01*
X72942615Y-45492200D02*
X73037853Y-45539819D01*
X73037853Y-45539819D02*
X73180710Y-45539819D01*
X73180710Y-45539819D02*
X73275948Y-45492200D01*
X73275948Y-45492200D02*
X73323567Y-45444580D01*
X73799758Y-45539819D02*
X73799758Y-44873152D01*
X73799758Y-44539819D02*
X73752139Y-44587438D01*
X73752139Y-44587438D02*
X73799758Y-44635057D01*
X73799758Y-44635057D02*
X73847377Y-44587438D01*
X73847377Y-44587438D02*
X73799758Y-44539819D01*
X73799758Y-44539819D02*
X73799758Y-44635057D01*
X74133091Y-44873152D02*
X74514043Y-44873152D01*
X74275948Y-44539819D02*
X74275948Y-45396961D01*
X74275948Y-45396961D02*
X74323567Y-45492200D01*
X74323567Y-45492200D02*
X74418805Y-45539819D01*
X74418805Y-45539819D02*
X74514043Y-45539819D01*
X74799758Y-45492200D02*
X74894996Y-45539819D01*
X74894996Y-45539819D02*
X75085472Y-45539819D01*
X75085472Y-45539819D02*
X75180710Y-45492200D01*
X75180710Y-45492200D02*
X75228329Y-45396961D01*
X75228329Y-45396961D02*
X75228329Y-45349342D01*
X75228329Y-45349342D02*
X75180710Y-45254104D01*
X75180710Y-45254104D02*
X75085472Y-45206485D01*
X75085472Y-45206485D02*
X74942615Y-45206485D01*
X74942615Y-45206485D02*
X74847377Y-45158866D01*
X74847377Y-45158866D02*
X74799758Y-45063628D01*
X74799758Y-45063628D02*
X74799758Y-45016009D01*
X74799758Y-45016009D02*
X74847377Y-44920771D01*
X74847377Y-44920771D02*
X74942615Y-44873152D01*
X74942615Y-44873152D02*
X75085472Y-44873152D01*
X75085472Y-44873152D02*
X75180710Y-44920771D01*
D11*
%TO.C,U7*%
X82252500Y-61950000D02*
X81702500Y-61950000D01*
X81702500Y-61750000D01*
X82252500Y-61750000D01*
X82252500Y-61950000D01*
G36*
X82252500Y-61950000D02*
G01*
X81702500Y-61950000D01*
X81702500Y-61750000D01*
X82252500Y-61750000D01*
X82252500Y-61950000D01*
G37*
X82252500Y-62450000D02*
X81702500Y-62450000D01*
X81702500Y-62250000D01*
X82252500Y-62250000D01*
X82252500Y-62450000D01*
G36*
X82252500Y-62450000D02*
G01*
X81702500Y-62450000D01*
X81702500Y-62250000D01*
X82252500Y-62250000D01*
X82252500Y-62450000D01*
G37*
X82252500Y-62950000D02*
X81702500Y-62950000D01*
X81702500Y-62750000D01*
X82252500Y-62750000D01*
X82252500Y-62950000D01*
G36*
X82252500Y-62950000D02*
G01*
X81702500Y-62950000D01*
X81702500Y-62750000D01*
X82252500Y-62750000D01*
X82252500Y-62950000D01*
G37*
X82252500Y-63450000D02*
X81702500Y-63450000D01*
X81702500Y-63250000D01*
X82252500Y-63250000D01*
X82252500Y-63450000D01*
G36*
X82252500Y-63450000D02*
G01*
X81702500Y-63450000D01*
X81702500Y-63250000D01*
X82252500Y-63250000D01*
X82252500Y-63450000D01*
G37*
X83327500Y-62500000D02*
X83127500Y-62500000D01*
X83127500Y-62000000D01*
X83327500Y-62000000D01*
X83327500Y-62500000D01*
G36*
X83327500Y-62500000D02*
G01*
X83127500Y-62500000D01*
X83127500Y-62000000D01*
X83327500Y-62000000D01*
X83327500Y-62500000D01*
G37*
X83327500Y-63200000D02*
X83127500Y-63200000D01*
X83127500Y-62700000D01*
X83327500Y-62700000D01*
X83327500Y-63200000D01*
G36*
X83327500Y-63200000D02*
G01*
X83127500Y-63200000D01*
X83127500Y-62700000D01*
X83327500Y-62700000D01*
X83327500Y-63200000D01*
G37*
X84752500Y-61950000D02*
X84202500Y-61950000D01*
X84202500Y-61750000D01*
X84752500Y-61750000D01*
X84752500Y-61950000D01*
G36*
X84752500Y-61950000D02*
G01*
X84202500Y-61950000D01*
X84202500Y-61750000D01*
X84752500Y-61750000D01*
X84752500Y-61950000D01*
G37*
X84752500Y-62450000D02*
X84202500Y-62450000D01*
X84202500Y-62250000D01*
X84752500Y-62250000D01*
X84752500Y-62450000D01*
G36*
X84752500Y-62450000D02*
G01*
X84202500Y-62450000D01*
X84202500Y-62250000D01*
X84752500Y-62250000D01*
X84752500Y-62450000D01*
G37*
X84752500Y-62950000D02*
X84202500Y-62950000D01*
X84202500Y-62750000D01*
X84752500Y-62750000D01*
X84752500Y-62950000D01*
G36*
X84752500Y-62950000D02*
G01*
X84202500Y-62950000D01*
X84202500Y-62750000D01*
X84752500Y-62750000D01*
X84752500Y-62950000D01*
G37*
X84752500Y-63450000D02*
X84202500Y-63450000D01*
X84202500Y-63250000D01*
X84752500Y-63250000D01*
X84752500Y-63450000D01*
G36*
X84752500Y-63450000D02*
G01*
X84202500Y-63450000D01*
X84202500Y-63250000D01*
X84752500Y-63250000D01*
X84752500Y-63450000D01*
G37*
%TO.C,U4*%
X62702500Y-62300000D02*
X62152500Y-62300000D01*
X62152500Y-62100000D01*
X62702500Y-62100000D01*
X62702500Y-62300000D01*
G36*
X62702500Y-62300000D02*
G01*
X62152500Y-62300000D01*
X62152500Y-62100000D01*
X62702500Y-62100000D01*
X62702500Y-62300000D01*
G37*
X62702500Y-62800000D02*
X62152500Y-62800000D01*
X62152500Y-62600000D01*
X62702500Y-62600000D01*
X62702500Y-62800000D01*
G36*
X62702500Y-62800000D02*
G01*
X62152500Y-62800000D01*
X62152500Y-62600000D01*
X62702500Y-62600000D01*
X62702500Y-62800000D01*
G37*
X62702500Y-63300000D02*
X62152500Y-63300000D01*
X62152500Y-63100000D01*
X62702500Y-63100000D01*
X62702500Y-63300000D01*
G36*
X62702500Y-63300000D02*
G01*
X62152500Y-63300000D01*
X62152500Y-63100000D01*
X62702500Y-63100000D01*
X62702500Y-63300000D01*
G37*
X62702500Y-63800000D02*
X62152500Y-63800000D01*
X62152500Y-63600000D01*
X62702500Y-63600000D01*
X62702500Y-63800000D01*
G36*
X62702500Y-63800000D02*
G01*
X62152500Y-63800000D01*
X62152500Y-63600000D01*
X62702500Y-63600000D01*
X62702500Y-63800000D01*
G37*
X63777500Y-62850000D02*
X63577500Y-62850000D01*
X63577500Y-62350000D01*
X63777500Y-62350000D01*
X63777500Y-62850000D01*
G36*
X63777500Y-62850000D02*
G01*
X63577500Y-62850000D01*
X63577500Y-62350000D01*
X63777500Y-62350000D01*
X63777500Y-62850000D01*
G37*
X63777500Y-63550000D02*
X63577500Y-63550000D01*
X63577500Y-63050000D01*
X63777500Y-63050000D01*
X63777500Y-63550000D01*
G36*
X63777500Y-63550000D02*
G01*
X63577500Y-63550000D01*
X63577500Y-63050000D01*
X63777500Y-63050000D01*
X63777500Y-63550000D01*
G37*
X65202500Y-62300000D02*
X64652500Y-62300000D01*
X64652500Y-62100000D01*
X65202500Y-62100000D01*
X65202500Y-62300000D01*
G36*
X65202500Y-62300000D02*
G01*
X64652500Y-62300000D01*
X64652500Y-62100000D01*
X65202500Y-62100000D01*
X65202500Y-62300000D01*
G37*
X65202500Y-62800000D02*
X64652500Y-62800000D01*
X64652500Y-62600000D01*
X65202500Y-62600000D01*
X65202500Y-62800000D01*
G36*
X65202500Y-62800000D02*
G01*
X64652500Y-62800000D01*
X64652500Y-62600000D01*
X65202500Y-62600000D01*
X65202500Y-62800000D01*
G37*
X65202500Y-63300000D02*
X64652500Y-63300000D01*
X64652500Y-63100000D01*
X65202500Y-63100000D01*
X65202500Y-63300000D01*
G36*
X65202500Y-63300000D02*
G01*
X64652500Y-63300000D01*
X64652500Y-63100000D01*
X65202500Y-63100000D01*
X65202500Y-63300000D01*
G37*
X65202500Y-63800000D02*
X64652500Y-63800000D01*
X64652500Y-63600000D01*
X65202500Y-63600000D01*
X65202500Y-63800000D01*
G36*
X65202500Y-63800000D02*
G01*
X64652500Y-63800000D01*
X64652500Y-63600000D01*
X65202500Y-63600000D01*
X65202500Y-63800000D01*
G37*
%TD*%
D12*
%TO.C,R6*%
X54480000Y-59150000D03*
X55675000Y-59150000D03*
%TD*%
D13*
%TO.C,Q13*%
X71657500Y-67375000D03*
X71657500Y-66925000D03*
D14*
X72357500Y-67150000D03*
%TD*%
D15*
%TO.C,C1*%
X47177500Y-63517500D03*
X47177500Y-62382500D03*
%TD*%
D16*
%TO.C,D28*%
X69640000Y-57300000D03*
D17*
X70177500Y-57225000D03*
D16*
X70715000Y-57300000D03*
X70715000Y-59000000D03*
D17*
X70177500Y-59075000D03*
D16*
X69640000Y-59000000D03*
%TD*%
D13*
%TO.C,Q32*%
X71650000Y-60525000D03*
X71650000Y-60075000D03*
D14*
X72350000Y-60300000D03*
%TD*%
D18*
%TO.C,D3*%
X73407500Y-66020000D03*
X74057500Y-66020000D03*
X74707500Y-66020000D03*
D19*
X74707500Y-67980000D03*
X74057500Y-67980000D03*
X73407500Y-67980000D03*
%TD*%
D13*
%TO.C,Q23*%
X77927500Y-57375000D03*
X77927500Y-56925000D03*
D14*
X78627500Y-57150000D03*
%TD*%
D13*
%TO.C,Q38*%
X41177500Y-58475000D03*
X41177500Y-58025000D03*
D14*
X41877500Y-58250000D03*
%TD*%
D20*
%TO.C,C19*%
X62055000Y-57610000D03*
X60920000Y-57610000D03*
%TD*%
D21*
%TO.C,R17*%
X48177500Y-63551500D03*
X48177500Y-62356500D03*
%TD*%
D13*
%TO.C,Q8*%
X47477500Y-68415000D03*
X47477500Y-67965000D03*
D14*
X48177500Y-68190000D03*
%TD*%
D13*
%TO.C,Q26*%
X84250000Y-60450000D03*
X84250000Y-60000000D03*
D14*
X84950000Y-60225000D03*
%TD*%
D22*
%TO.C,R13*%
X68157500Y-62512500D03*
X68157500Y-63707500D03*
%TD*%
D13*
%TO.C,Q7*%
X47477500Y-67375000D03*
X47477500Y-66925000D03*
D14*
X48177500Y-67150000D03*
%TD*%
D20*
%TO.C,C2*%
X45045000Y-60650000D03*
X43910000Y-60650000D03*
%TD*%
D18*
%TO.C,D5*%
X85977500Y-66020000D03*
X86627500Y-66020000D03*
X87277500Y-66020000D03*
D19*
X87277500Y-67980000D03*
X86627500Y-67980000D03*
X85977500Y-67980000D03*
%TD*%
D23*
%TO.C,R15*%
X54546000Y-61230000D03*
X53351000Y-61230000D03*
%TD*%
D13*
%TO.C,Q12*%
X84250000Y-58400000D03*
X84250000Y-57950000D03*
D14*
X84950000Y-58175000D03*
%TD*%
D12*
%TO.C,R8*%
X82180000Y-60850000D03*
X83375000Y-60850000D03*
%TD*%
D24*
%TO.C,C9*%
X66770000Y-67480000D03*
X67905000Y-67480000D03*
%TD*%
D25*
%TO.C,X1*%
X64197500Y-67505000D03*
X62097500Y-67505000D03*
X62097500Y-65855000D03*
X64197500Y-65855000D03*
%TD*%
D13*
%TO.C,Q20*%
X84227500Y-66325000D03*
X84227500Y-65875000D03*
D14*
X84927500Y-66100000D03*
%TD*%
D26*
%TO.C,U3*%
X49621000Y-63540000D03*
X49621000Y-62590000D03*
X49621000Y-61640000D03*
X51896000Y-61640000D03*
X51896000Y-63540000D03*
%TD*%
D16*
%TO.C,D27*%
X75940000Y-57500000D03*
D17*
X76477500Y-57425000D03*
D16*
X77015000Y-57500000D03*
X77015000Y-59200000D03*
D17*
X76477500Y-59275000D03*
D16*
X75940000Y-59200000D03*
%TD*%
D13*
%TO.C,Q22*%
X84227500Y-68425000D03*
X84227500Y-67975000D03*
D14*
X84927500Y-68200000D03*
%TD*%
D27*
%TO.C,C14*%
X80577500Y-61882500D03*
X80577500Y-63017500D03*
%TD*%
%TO.C,C21*%
X66997500Y-62520000D03*
X66997500Y-63655000D03*
%TD*%
D13*
%TO.C,Q27*%
X77927500Y-59475000D03*
X77927500Y-59025000D03*
D14*
X78627500Y-59250000D03*
%TD*%
D16*
%TO.C,D22*%
X45490000Y-66350000D03*
D17*
X46027500Y-66275000D03*
D16*
X46565000Y-66350000D03*
X46565000Y-68050000D03*
D17*
X46027500Y-68125000D03*
D16*
X45490000Y-68050000D03*
%TD*%
D18*
%TO.C,D8*%
X49227500Y-57420000D03*
X49877500Y-57420000D03*
X50527500Y-57420000D03*
D19*
X50527500Y-59380000D03*
X49877500Y-59380000D03*
X49227500Y-59380000D03*
%TD*%
D16*
%TO.C,D29*%
X45480000Y-57500000D03*
D17*
X46017500Y-57425000D03*
D16*
X46555000Y-57500000D03*
X46555000Y-59200000D03*
D17*
X46017500Y-59275000D03*
D16*
X45480000Y-59200000D03*
%TD*%
D18*
%TO.C,D11*%
X85977500Y-57370000D03*
X86627500Y-57370000D03*
X87277500Y-57370000D03*
D19*
X87277500Y-59330000D03*
X86627500Y-59330000D03*
X85977500Y-59330000D03*
%TD*%
D18*
%TO.C,D1*%
X42927500Y-66020000D03*
X43577500Y-66020000D03*
X44227500Y-66020000D03*
D19*
X44227500Y-67980000D03*
X43577500Y-67980000D03*
X42927500Y-67980000D03*
%TD*%
D13*
%TO.C,Q9*%
X73727500Y-64955000D03*
X73727500Y-64505000D03*
D14*
X74427500Y-64730000D03*
%TD*%
D13*
%TO.C,Q15*%
X76417500Y-65425000D03*
X76417500Y-64975000D03*
D14*
X77117500Y-65200000D03*
%TD*%
D15*
%TO.C,C10*%
X41077500Y-62517500D03*
X41077500Y-61382500D03*
%TD*%
D13*
%TO.C,Q29*%
X71650000Y-57375000D03*
X71650000Y-56925000D03*
D14*
X72350000Y-57150000D03*
%TD*%
D13*
%TO.C,Q11*%
X84250000Y-57375000D03*
X84250000Y-56925000D03*
D14*
X84950000Y-57150000D03*
%TD*%
D23*
%TO.C,R14*%
X54536000Y-62310000D03*
X53341000Y-62310000D03*
%TD*%
D16*
%TO.C,D21*%
X39190000Y-66350000D03*
D17*
X39727500Y-66275000D03*
D16*
X40265000Y-66350000D03*
X40265000Y-68050000D03*
D17*
X39727500Y-68125000D03*
D16*
X39190000Y-68050000D03*
%TD*%
D23*
%TO.C,R11*%
X77575000Y-63450000D03*
X76380000Y-63450000D03*
%TD*%
D18*
%TO.C,D9*%
X42927500Y-57400000D03*
X43577500Y-57400000D03*
X44227500Y-57400000D03*
D19*
X44227500Y-59360000D03*
X43577500Y-59360000D03*
X42927500Y-59360000D03*
%TD*%
D16*
%TO.C,D30*%
X39190000Y-57500000D03*
D17*
X39727500Y-57425000D03*
D16*
X40265000Y-57500000D03*
X40265000Y-59200000D03*
D17*
X39727500Y-59275000D03*
D16*
X39190000Y-59200000D03*
%TD*%
D24*
%TO.C,C3*%
X53361000Y-63310000D03*
X54496000Y-63310000D03*
%TD*%
D13*
%TO.C,Q18*%
X77957500Y-68425000D03*
X77957500Y-67975000D03*
D14*
X78657500Y-68200000D03*
%TD*%
D16*
%TO.C,D25*%
X82250000Y-66350000D03*
D17*
X82787500Y-66275000D03*
D16*
X83325000Y-66350000D03*
X83325000Y-68050000D03*
D17*
X82787500Y-68125000D03*
D16*
X82250000Y-68050000D03*
%TD*%
D12*
%TO.C,R7*%
X61380000Y-58650000D03*
X62575000Y-58650000D03*
%TD*%
D13*
%TO.C,Q31*%
X71650000Y-59475000D03*
X71650000Y-59025000D03*
D14*
X72350000Y-59250000D03*
%TD*%
D15*
%TO.C,C17*%
X56967500Y-67307500D03*
X56967500Y-66172500D03*
%TD*%
D16*
%TO.C,D23*%
X69670000Y-66350000D03*
D17*
X70207500Y-66275000D03*
D16*
X70745000Y-66350000D03*
X70745000Y-68050000D03*
D17*
X70207500Y-68125000D03*
D16*
X69670000Y-68050000D03*
%TD*%
D18*
%TO.C,D6*%
X79677500Y-57370000D03*
X80327500Y-57370000D03*
X80977500Y-57370000D03*
D19*
X80977500Y-59330000D03*
X80327500Y-59330000D03*
X79677500Y-59330000D03*
%TD*%
D13*
%TO.C,Q17*%
X77957500Y-67375000D03*
X77957500Y-66925000D03*
D14*
X78657500Y-67150000D03*
%TD*%
D26*
%TO.C,U5*%
X42480000Y-63800000D03*
X42480000Y-62850000D03*
X42480000Y-61900000D03*
X44755000Y-61900000D03*
X44755000Y-63800000D03*
%TD*%
D13*
%TO.C,Q36*%
X47500000Y-60575000D03*
X47500000Y-60125000D03*
D14*
X48200000Y-60350000D03*
%TD*%
D13*
%TO.C,Q37*%
X41177500Y-57425000D03*
X41177500Y-56975000D03*
D14*
X41877500Y-57200000D03*
%TD*%
D13*
%TO.C,Q19*%
X82687500Y-65395000D03*
X82687500Y-64945000D03*
D14*
X83387500Y-65170000D03*
%TD*%
D13*
%TO.C,Q16*%
X77957500Y-66325000D03*
X77957500Y-65875000D03*
D14*
X78657500Y-66100000D03*
%TD*%
D13*
%TO.C,Q5*%
X55040000Y-67805000D03*
X55040000Y-67355000D03*
D14*
X55740000Y-67580000D03*
%TD*%
D18*
%TO.C,D7*%
X73377500Y-57370000D03*
X74027500Y-57370000D03*
X74677500Y-57370000D03*
D19*
X74677500Y-59330000D03*
X74027500Y-59330000D03*
X73377500Y-59330000D03*
%TD*%
D15*
%TO.C,C18*%
X58337500Y-67307500D03*
X58337500Y-66172500D03*
%TD*%
D18*
%TO.C,D2*%
X49652500Y-66020000D03*
X50302500Y-66020000D03*
X50952500Y-66020000D03*
D19*
X50952500Y-67980000D03*
X50302500Y-67980000D03*
X49652500Y-67980000D03*
%TD*%
D13*
%TO.C,Q40*%
X41177500Y-60575000D03*
X41177500Y-60125000D03*
D14*
X41877500Y-60350000D03*
%TD*%
D13*
%TO.C,Q41*%
X47527500Y-61575000D03*
X47527500Y-61125000D03*
D14*
X48227500Y-61350000D03*
%TD*%
D13*
%TO.C,Q6*%
X47477500Y-66325000D03*
X47477500Y-65875000D03*
D14*
X48177500Y-66100000D03*
%TD*%
D13*
%TO.C,Q2*%
X41177500Y-66325000D03*
X41177500Y-65875000D03*
D14*
X41877500Y-66100000D03*
%TD*%
D13*
%TO.C,Q35*%
X47500000Y-59525000D03*
X47500000Y-59075000D03*
D14*
X48200000Y-59300000D03*
%TD*%
D24*
%TO.C,C16*%
X73710000Y-62150000D03*
X74845000Y-62150000D03*
%TD*%
D15*
%TO.C,C13*%
X65677500Y-66327500D03*
X65677500Y-65192500D03*
%TD*%
D18*
%TO.C,D4*%
X79707500Y-66020000D03*
X80357500Y-66020000D03*
X81007500Y-66020000D03*
D19*
X81007500Y-67980000D03*
X80357500Y-67980000D03*
X79707500Y-67980000D03*
%TD*%
D13*
%TO.C,Q3*%
X41177500Y-67375000D03*
X41177500Y-66925000D03*
D14*
X41877500Y-67150000D03*
%TD*%
D13*
%TO.C,Q21*%
X84227500Y-67375000D03*
X84227500Y-66925000D03*
D14*
X84927500Y-67150000D03*
%TD*%
D16*
%TO.C,D26*%
X82250000Y-57500000D03*
D17*
X82787500Y-57425000D03*
D16*
X83325000Y-57500000D03*
X83325000Y-59200000D03*
D17*
X82787500Y-59275000D03*
D16*
X82250000Y-59200000D03*
%TD*%
D13*
%TO.C,Q34*%
X47500000Y-58475000D03*
X47500000Y-58025000D03*
D14*
X48200000Y-58250000D03*
%TD*%
D13*
%TO.C,Q25*%
X84250000Y-59425000D03*
X84250000Y-58975000D03*
D14*
X84950000Y-59200000D03*
%TD*%
D13*
%TO.C,Q4*%
X41177500Y-68425000D03*
X41177500Y-67975000D03*
D14*
X41877500Y-68200000D03*
%TD*%
D20*
%TO.C,C22*%
X68365000Y-66510000D03*
X67230000Y-66510000D03*
%TD*%
D13*
%TO.C,Q14*%
X71657500Y-68425000D03*
X71657500Y-67975000D03*
D14*
X72357500Y-68200000D03*
%TD*%
D13*
%TO.C,Q28*%
X77927500Y-60525000D03*
X77927500Y-60075000D03*
D14*
X78627500Y-60300000D03*
%TD*%
D13*
%TO.C,Q30*%
X71650000Y-58425000D03*
X71650000Y-57975000D03*
D14*
X72350000Y-58200000D03*
%TD*%
D12*
%TO.C,R10*%
X77480000Y-61750000D03*
X78675000Y-61750000D03*
%TD*%
D21*
%TO.C,R12*%
X60977500Y-63247500D03*
X60977500Y-62052500D03*
%TD*%
D13*
%TO.C,Q33*%
X47500000Y-57425000D03*
X47500000Y-56975000D03*
D14*
X48200000Y-57200000D03*
%TD*%
D13*
%TO.C,Q39*%
X41177500Y-59525000D03*
X41177500Y-59075000D03*
D14*
X41877500Y-59300000D03*
%TD*%
D22*
%TO.C,R9*%
X85877500Y-62352500D03*
X85877500Y-63547500D03*
%TD*%
D13*
%TO.C,Q24*%
X77927500Y-58425000D03*
X77927500Y-57975000D03*
D14*
X78627500Y-58200000D03*
%TD*%
D28*
%TO.C,Q1*%
X40902500Y-64400000D03*
X40452500Y-64400000D03*
D29*
X40677500Y-63700000D03*
%TD*%
D13*
%TO.C,Q10*%
X71657500Y-66325000D03*
X71657500Y-65875000D03*
D14*
X72357500Y-66100000D03*
%TD*%
D16*
%TO.C,D24*%
X75970000Y-66350000D03*
D17*
X76507500Y-66275000D03*
D16*
X77045000Y-66350000D03*
X77045000Y-68050000D03*
D17*
X76507500Y-68125000D03*
D16*
X75970000Y-68050000D03*
%TD*%
M02*
