%TF.GenerationSoftware,KiCad,Pcbnew,8.0.4-8.0.4-0~ubuntu24.04.1*%
%TF.CreationDate,2024-08-21T20:20:37-07:00*%
%TF.ProjectId,programmer,70726f67-7261-46d6-9d65-722e6b696361,1.0*%
%TF.SameCoordinates,Original*%
%TF.FileFunction,Copper,L2,Bot*%
%TF.FilePolarity,Positive*%
%FSLAX46Y46*%
G04 Gerber Fmt 4.6, Leading zero omitted, Abs format (unit mm)*
G04 Created by KiCad (PCBNEW 8.0.4-8.0.4-0~ubuntu24.04.1) date 2024-08-21 20:20:37*
%MOMM*%
%LPD*%
G01*
G04 APERTURE LIST*
%TA.AperFunction,ComponentPad*%
%ADD10R,1.000000X1.000000*%
%TD*%
%TA.AperFunction,ComponentPad*%
%ADD11R,1.700000X1.700000*%
%TD*%
%TA.AperFunction,ComponentPad*%
%ADD12O,1.700000X1.700000*%
%TD*%
%TA.AperFunction,ComponentPad*%
%ADD13C,5.600000*%
%TD*%
%TA.AperFunction,ComponentPad*%
%ADD14O,2.100000X1.000000*%
%TD*%
%TA.AperFunction,ComponentPad*%
%ADD15O,1.600000X1.000000*%
%TD*%
%TA.AperFunction,ViaPad*%
%ADD16C,0.400000*%
%TD*%
%TA.AperFunction,Conductor*%
%ADD17C,0.100000*%
%TD*%
%TA.AperFunction,Conductor*%
%ADD18C,1.000000*%
%TD*%
G04 APERTURE END LIST*
D10*
%TO.P,TP6,1,1*%
%TO.N,Net-(U1-BDBUS6)*%
X69600000Y-32800000D03*
%TD*%
%TO.P,TP5,1,1*%
%TO.N,Net-(U1-BDBUS7)*%
X69600000Y-34900000D03*
%TD*%
%TO.P,TP4,1,1*%
%TO.N,Net-(U1-BCBUS0)*%
X69600000Y-37000000D03*
%TD*%
%TO.P,TP3,1,1*%
%TO.N,Net-(U1-ACBUS7)*%
X70400000Y-25700000D03*
%TD*%
%TO.P,TP2,1,1*%
%TO.N,Net-(U1-ACBUS6)*%
X70400000Y-23600000D03*
%TD*%
%TO.P,TP1,1,1*%
%TO.N,Net-(U1-ACBUS5)*%
X72500000Y-23600000D03*
%TD*%
D11*
%TO.P,JP4,1,A*%
%TO.N,Net-(JP4-A)*%
X59020000Y-27840000D03*
D12*
%TO.P,JP4,2,B*%
%TO.N,/JTAG_SEL_N*%
X56480000Y-27840000D03*
%TD*%
D11*
%TO.P,J_EXT2,1,Pin_1*%
%TO.N,+5V*%
X49600000Y-47440000D03*
D12*
%TO.P,J_EXT2,2,Pin_2*%
%TO.N,VIO*%
X49600000Y-44900000D03*
%TO.P,J_EXT2,3,Pin_3*%
X52140000Y-47440000D03*
%TO.P,J_EXT2,4,Pin_4*%
%TO.N,/SER_RXD*%
X52140000Y-44900000D03*
%TO.P,J_EXT2,5,Pin_5*%
%TO.N,GND*%
X54680000Y-47440000D03*
%TO.P,J_EXT2,6,Pin_6*%
%TO.N,/SER_TXD*%
X54680000Y-44900000D03*
%TO.P,J_EXT2,7,Pin_7*%
%TO.N,/IO5B*%
X57220000Y-47440000D03*
%TO.P,J_EXT2,8,Pin_8*%
%TO.N,GND*%
X57220000Y-44900000D03*
%TO.P,J_EXT2,9,Pin_9*%
%TO.N,/IO5A*%
X59760000Y-47440000D03*
%TO.P,J_EXT2,10,Pin_10*%
%TO.N,/IO4B*%
X59760000Y-44900000D03*
%TO.P,J_EXT2,11,Pin_11*%
%TO.N,GND*%
X62300000Y-47440000D03*
%TO.P,J_EXT2,12,Pin_12*%
%TO.N,/IO4A*%
X62300000Y-44900000D03*
%TO.P,J_EXT2,13,Pin_13*%
%TO.N,/IO3B*%
X64840000Y-47440000D03*
%TO.P,J_EXT2,14,Pin_14*%
%TO.N,GND*%
X64840000Y-44900000D03*
%TO.P,J_EXT2,15,Pin_15*%
%TO.N,/IO3A*%
X67380000Y-47440000D03*
%TO.P,J_EXT2,16,Pin_16*%
%TO.N,/IO2B*%
X67380000Y-44900000D03*
%TO.P,J_EXT2,17,Pin_17*%
%TO.N,GND*%
X69920000Y-47440000D03*
%TO.P,J_EXT2,18,Pin_18*%
%TO.N,/IO2A*%
X69920000Y-44900000D03*
%TO.P,J_EXT2,19,Pin_19*%
%TO.N,/IO1B*%
X72460000Y-47440000D03*
%TO.P,J_EXT2,20,Pin_20*%
%TO.N,GND*%
X72460000Y-44900000D03*
%TO.P,J_EXT2,21,Pin_21*%
%TO.N,/IO1A*%
X75000000Y-47440000D03*
%TO.P,J_EXT2,22,Pin_22*%
%TO.N,/JTAG_TCK*%
X75000000Y-44900000D03*
%TO.P,J_EXT2,23,Pin_23*%
%TO.N,/JTAG_TMS*%
X77540000Y-47440000D03*
%TO.P,J_EXT2,24,Pin_24*%
%TO.N,/JTAG_TDO*%
X77540000Y-44900000D03*
%TO.P,J_EXT2,25,Pin_25*%
%TO.N,/RECONFIG_N*%
X80080000Y-47440000D03*
%TO.P,J_EXT2,26,Pin_26*%
%TO.N,/JTAG_TDI*%
X80080000Y-44900000D03*
%TO.P,J_EXT2,27,Pin_27*%
%TO.N,/JTAG_SEL_N*%
X82620000Y-47440000D03*
%TO.P,J_EXT2,28*%
%TO.N,N/C*%
X82620000Y-44900000D03*
%TD*%
D13*
%TO.P,H3,1,1*%
%TO.N,GND*%
X99000000Y-24000000D03*
%TD*%
D11*
%TO.P,JP1,1,A*%
%TO.N,Net-(JP1-A)*%
X59020000Y-32920000D03*
D12*
%TO.P,JP1,2,B*%
%TO.N,/RECONFIG_N*%
X56480000Y-32920000D03*
%TD*%
D13*
%TO.P,H1,1,1*%
%TO.N,GND*%
X44000000Y-46000000D03*
%TD*%
D14*
%TO.P,J1,S1,SHIELD*%
%TO.N,/SHIELD*%
X95920000Y-39320000D03*
D15*
X100100000Y-39320000D03*
D14*
X95920000Y-30680000D03*
D15*
X100100000Y-30680000D03*
%TD*%
D11*
%TO.P,JP3,1,A*%
%TO.N,Net-(JP3-A)*%
X59020000Y-38000000D03*
D12*
%TO.P,JP3,2,B*%
%TO.N,/SER_TXD*%
X56480000Y-38000000D03*
%TD*%
D13*
%TO.P,H4,1,1*%
%TO.N,GND*%
X44000000Y-24000000D03*
%TD*%
D11*
%TO.P,JP2,1,A*%
%TO.N,Net-(JP2-A)*%
X59020000Y-22760000D03*
D12*
%TO.P,JP2,2,B*%
%TO.N,/SER_RXD*%
X56480000Y-22760000D03*
%TD*%
D13*
%TO.P,H2,1,1*%
%TO.N,GND*%
X99000000Y-46000000D03*
%TD*%
D16*
%TO.N,GND*%
X69600000Y-38100000D03*
X93950000Y-38250000D03*
X87600000Y-32295410D03*
X49400000Y-27100000D03*
X85500000Y-40600000D03*
X65700000Y-22600000D03*
X46104995Y-32000000D03*
X84500000Y-29100000D03*
X63100000Y-34800000D03*
X70900000Y-28400000D03*
X62400000Y-35900000D03*
X88900000Y-38500000D03*
X61500000Y-26000000D03*
X74950000Y-38100000D03*
X48900000Y-35225000D03*
X44504995Y-30400000D03*
X85600000Y-24400000D03*
X62600000Y-30800000D03*
X45696684Y-28008311D03*
X82200000Y-33100000D03*
X50500000Y-30700000D03*
X50500000Y-35800000D03*
X48900000Y-31625000D03*
X77500000Y-24400000D03*
X48900000Y-33424999D03*
X97400000Y-28700000D03*
X83000000Y-40400000D03*
X90600000Y-40100000D03*
X70900000Y-34500000D03*
X46154995Y-33700000D03*
X90800000Y-38200000D03*
X90700000Y-36700000D03*
X63900000Y-28800000D03*
X91600000Y-48300000D03*
X83400000Y-35600000D03*
X94000000Y-31700000D03*
X87700000Y-29300000D03*
X86700000Y-22200000D03*
X90400000Y-33600000D03*
X84500000Y-28000000D03*
X84500000Y-30300000D03*
X62400000Y-22500000D03*
X86300000Y-48300000D03*
X45604995Y-38900000D03*
%TO.N,VCC*%
X75100000Y-32500000D03*
X66000000Y-39200000D03*
X83900000Y-25300000D03*
X66900000Y-33800000D03*
X65500000Y-33800000D03*
X82200000Y-35700000D03*
X96000000Y-26800000D03*
X67000000Y-39000000D03*
X66900000Y-28700000D03*
X101800000Y-42800000D03*
X65900000Y-28900000D03*
X75200000Y-28800000D03*
X82800000Y-25700000D03*
X80200000Y-35700000D03*
X73300000Y-32500000D03*
%TO.N,/JTAG_TCK*%
X44604995Y-35875000D03*
X46904995Y-35824999D03*
%TO.N,/JTAG_SEL_N*%
X63702512Y-39350000D03*
X65016421Y-39700000D03*
%TO.N,/RECONFIG_N*%
X64494975Y-36944976D03*
X64375000Y-36000000D03*
X58200000Y-31300000D03*
%TO.N,/JTAG_TDI*%
X60700000Y-26500000D03*
X59900000Y-26250000D03*
%TO.N,/JTAG_TDO*%
X44405419Y-36333445D03*
X47054995Y-36375000D03*
%TO.N,/SER_RXD*%
X44504995Y-29800000D03*
X46704995Y-29800000D03*
%TO.N,/SER_TXD*%
X44499779Y-31021944D03*
X49600000Y-38875000D03*
X50500000Y-38900000D03*
X46104995Y-30975000D03*
%TO.N,/IO2B*%
X44304995Y-34275000D03*
X46854995Y-34275000D03*
%TO.N,/IO2A*%
X44304995Y-34775000D03*
X46854995Y-34775000D03*
%TO.N,/IO4A*%
X44504995Y-33148311D03*
X46854995Y-33075000D03*
%TO.N,/IO4B*%
X44304995Y-32575000D03*
X46854995Y-32575000D03*
%TO.N,/FT_JTAG_EN_N*%
X77250000Y-41350000D03*
X79221963Y-39417341D03*
X66700000Y-25500000D03*
X64451409Y-25073590D03*
%TO.N,/FT_SER_RXD*%
X69300000Y-24700000D03*
X70600000Y-31000000D03*
X69900000Y-30700000D03*
X67841684Y-23863342D03*
%TO.N,/FT_JTAG_TDO*%
X81500000Y-22100000D03*
X80900000Y-23300000D03*
%TO.N,VIO*%
X63750000Y-27900000D03*
X57500000Y-25200000D03*
X64525000Y-26900000D03*
X61500000Y-34900000D03*
X55100000Y-25200000D03*
X61200000Y-31400000D03*
X62650000Y-33900000D03*
%TD*%
D17*
%TO.N,/RECONFIG_N*%
X64494975Y-36944976D02*
X64375000Y-36825001D01*
X64375000Y-36825001D02*
X64375000Y-36000000D01*
%TO.N,/JTAG_SEL_N*%
X64666421Y-39350000D02*
X65016421Y-39700000D01*
X63702512Y-39350000D02*
X64666421Y-39350000D01*
%TO.N,/FT_JTAG_EN_N*%
X66700000Y-25500000D02*
X66300000Y-25100000D01*
X66300000Y-25100000D02*
X64477819Y-25100000D01*
X64477819Y-25100000D02*
X64451409Y-25073590D01*
D18*
%TO.N,VCC*%
X73300000Y-32500000D02*
X75100000Y-32500000D01*
X66900000Y-33800000D02*
X65500000Y-33800000D01*
X101800000Y-29700000D02*
X99800000Y-27700000D01*
X65900000Y-28900000D02*
X66100000Y-28700000D01*
X75100000Y-28900000D02*
X75100000Y-32500000D01*
X99800000Y-27700000D02*
X96900000Y-27700000D01*
X80200000Y-35700000D02*
X82200000Y-35700000D01*
X66900000Y-39100000D02*
X66100000Y-39100000D01*
X101800000Y-42800000D02*
X101800000Y-29700000D01*
X66100000Y-28700000D02*
X66900000Y-28700000D01*
X82800000Y-25700000D02*
X83200000Y-25300000D01*
D17*
X67000000Y-39000000D02*
X66900000Y-39100000D01*
D18*
X83200000Y-25300000D02*
X83900000Y-25300000D01*
D17*
X66100000Y-39100000D02*
X66000000Y-39200000D01*
D18*
X96900000Y-27700000D02*
X96000000Y-26800000D01*
D17*
X75200000Y-28800000D02*
X75100000Y-28900000D01*
%TO.N,/JTAG_TCK*%
X46854994Y-35875000D02*
X46904995Y-35824999D01*
X44604995Y-35875000D02*
X46854994Y-35875000D01*
%TO.N,/RECONFIG_N*%
X58200000Y-31300000D02*
X58100000Y-31300000D01*
X58100000Y-31300000D02*
X56480000Y-32920000D01*
%TO.N,/JTAG_TDI*%
X60450000Y-26250000D02*
X60700000Y-26500000D01*
X59900000Y-26250000D02*
X60450000Y-26250000D01*
%TO.N,/JTAG_TDO*%
X47054995Y-36375000D02*
X44446974Y-36375000D01*
X44446974Y-36375000D02*
X44405419Y-36333445D01*
%TO.N,/SER_RXD*%
X46704995Y-29800000D02*
X44504995Y-29800000D01*
%TO.N,/SER_TXD*%
X49600000Y-38875000D02*
X50475000Y-38875000D01*
X46104995Y-30975000D02*
X46058051Y-31021944D01*
X46058051Y-31021944D02*
X44499779Y-31021944D01*
X50475000Y-38875000D02*
X50500000Y-38900000D01*
%TO.N,/IO2B*%
X44304995Y-34275000D02*
X46854995Y-34275000D01*
%TO.N,/IO2A*%
X44304995Y-34775000D02*
X46854995Y-34775000D01*
%TO.N,/IO4A*%
X44578306Y-33075000D02*
X46854995Y-33075000D01*
X44504995Y-33148311D02*
X44578306Y-33075000D01*
%TO.N,/IO4B*%
X46854995Y-32575000D02*
X44304995Y-32575000D01*
%TO.N,/FT_JTAG_EN_N*%
X77250000Y-41350000D02*
X79182659Y-39417341D01*
X79182659Y-39417341D02*
X79221963Y-39417341D01*
%TO.N,/FT_SER_RXD*%
X70300000Y-30700000D02*
X70600000Y-31000000D01*
X69900000Y-30700000D02*
X70300000Y-30700000D01*
X68463342Y-23863342D02*
X69300000Y-24700000D01*
X67841684Y-23863342D02*
X68463342Y-23863342D01*
%TO.N,/FT_JTAG_TDO*%
X81500000Y-22100000D02*
X80900000Y-22700000D01*
X80900000Y-22700000D02*
X80900000Y-23300000D01*
D18*
%TO.N,VIO*%
X55100000Y-25200000D02*
X57500000Y-25200000D01*
X61200000Y-31400000D02*
X62650000Y-32850000D01*
X64525000Y-27125000D02*
X63750000Y-27900000D01*
X64525000Y-26900000D02*
X64525000Y-27125000D01*
X61500000Y-34900000D02*
X61650000Y-34900000D01*
X62650000Y-32850000D02*
X62650000Y-33900000D01*
X61650000Y-34900000D02*
X62650000Y-33900000D01*
%TD*%
%TA.AperFunction,Conductor*%
%TO.N,GND*%
G36*
X102442539Y-20520185D02*
G01*
X102488294Y-20572989D01*
X102499500Y-20624500D01*
X102499500Y-29180192D01*
X102479815Y-29247231D01*
X102427011Y-29292986D01*
X102357853Y-29302930D01*
X102294297Y-29273905D01*
X102287819Y-29267874D01*
X102267176Y-29247231D01*
X102214669Y-29194724D01*
X101724765Y-28704820D01*
X100214674Y-27194727D01*
X100214673Y-27194726D01*
X100214669Y-27194723D01*
X100108127Y-27123535D01*
X100045213Y-27097475D01*
X99990810Y-27053634D01*
X99968745Y-26987340D01*
X99986024Y-26919641D01*
X100037161Y-26872030D01*
X100045214Y-26868353D01*
X100325424Y-26752288D01*
X100325428Y-26752286D01*
X100625255Y-26586577D01*
X100904641Y-26388342D01*
X101066720Y-26243497D01*
X100042982Y-25219759D01*
X100219759Y-25042982D01*
X101243497Y-26066720D01*
X101388342Y-25904641D01*
X101586577Y-25625255D01*
X101752286Y-25325428D01*
X101752288Y-25325424D01*
X101883380Y-25008935D01*
X101978214Y-24679762D01*
X101978216Y-24679754D01*
X102035596Y-24342037D01*
X102035598Y-24342025D01*
X102054805Y-24000000D01*
X102035598Y-23657974D01*
X102035596Y-23657962D01*
X101978216Y-23320245D01*
X101978214Y-23320237D01*
X101883380Y-22991064D01*
X101752288Y-22674575D01*
X101752286Y-22674571D01*
X101586577Y-22374744D01*
X101388339Y-22095353D01*
X101243498Y-21933278D01*
X100219759Y-22957017D01*
X100042982Y-22780240D01*
X101066721Y-21756501D01*
X101066720Y-21756500D01*
X100904646Y-21611660D01*
X100625255Y-21413422D01*
X100325428Y-21247713D01*
X100325424Y-21247711D01*
X100008935Y-21116619D01*
X99679762Y-21021785D01*
X99679754Y-21021783D01*
X99342037Y-20964403D01*
X99342025Y-20964401D01*
X99000000Y-20945194D01*
X98657974Y-20964401D01*
X98657962Y-20964403D01*
X98320245Y-21021783D01*
X98320237Y-21021785D01*
X97991064Y-21116619D01*
X97674575Y-21247711D01*
X97674571Y-21247713D01*
X97374744Y-21413422D01*
X97095358Y-21611657D01*
X96933278Y-21756501D01*
X97957017Y-22780240D01*
X97780240Y-22957017D01*
X96756501Y-21933278D01*
X96611657Y-22095358D01*
X96413422Y-22374744D01*
X96247713Y-22674571D01*
X96247711Y-22674575D01*
X96116619Y-22991064D01*
X96021785Y-23320237D01*
X96021783Y-23320245D01*
X95964403Y-23657962D01*
X95964401Y-23657974D01*
X95945194Y-24000000D01*
X95964401Y-24342025D01*
X95964403Y-24342037D01*
X96021783Y-24679754D01*
X96021785Y-24679762D01*
X96116619Y-25008935D01*
X96247711Y-25325424D01*
X96247713Y-25325428D01*
X96413422Y-25625255D01*
X96611660Y-25904646D01*
X96756500Y-26066720D01*
X96756501Y-26066721D01*
X97780240Y-25042982D01*
X97957017Y-25219759D01*
X96933278Y-26243498D01*
X97095353Y-26388339D01*
X97374744Y-26586577D01*
X97674571Y-26752286D01*
X97674575Y-26752288D01*
X97816172Y-26810939D01*
X97870576Y-26854780D01*
X97892641Y-26921074D01*
X97875362Y-26988773D01*
X97824225Y-27036384D01*
X97768720Y-27049500D01*
X97220807Y-27049500D01*
X97153768Y-27029815D01*
X97133126Y-27013181D01*
X96414674Y-26294727D01*
X96414673Y-26294726D01*
X96414669Y-26294723D01*
X96308127Y-26223535D01*
X96287087Y-26214820D01*
X96189744Y-26174499D01*
X96189736Y-26174497D01*
X96064073Y-26149501D01*
X96064069Y-26149501D01*
X95935931Y-26149501D01*
X95935926Y-26149501D01*
X95810263Y-26174497D01*
X95810255Y-26174499D01*
X95691874Y-26223534D01*
X95585326Y-26294726D01*
X95494726Y-26385326D01*
X95423534Y-26491874D01*
X95374499Y-26610255D01*
X95374497Y-26610263D01*
X95349501Y-26735926D01*
X95349501Y-26864073D01*
X95374497Y-26989736D01*
X95374499Y-26989744D01*
X95423535Y-27108127D01*
X95494723Y-27214669D01*
X95494726Y-27214673D01*
X95494727Y-27214674D01*
X96394724Y-28114669D01*
X96474778Y-28194723D01*
X96485332Y-28205277D01*
X96591866Y-28276461D01*
X96591872Y-28276464D01*
X96591873Y-28276465D01*
X96710256Y-28325501D01*
X96710260Y-28325501D01*
X96710261Y-28325502D01*
X96835928Y-28350500D01*
X96835931Y-28350500D01*
X99479192Y-28350500D01*
X99546231Y-28370185D01*
X99566873Y-28386819D01*
X101113181Y-29933126D01*
X101146666Y-29994449D01*
X101149500Y-30020807D01*
X101149500Y-30222064D01*
X101129815Y-30289103D01*
X101077011Y-30334858D01*
X101007853Y-30344802D01*
X100944297Y-30315777D01*
X100922398Y-30290955D01*
X100905276Y-30265331D01*
X100905273Y-30265327D01*
X100814672Y-30174726D01*
X100814668Y-30174723D01*
X100708133Y-30103538D01*
X100708124Y-30103533D01*
X100589744Y-30054499D01*
X100589738Y-30054497D01*
X100464071Y-30029500D01*
X100464069Y-30029500D01*
X99735931Y-30029500D01*
X99735929Y-30029500D01*
X99610261Y-30054497D01*
X99610255Y-30054499D01*
X99491875Y-30103533D01*
X99491866Y-30103538D01*
X99385331Y-30174723D01*
X99385327Y-30174726D01*
X99294726Y-30265327D01*
X99294723Y-30265331D01*
X99223538Y-30371866D01*
X99223533Y-30371875D01*
X99174499Y-30490255D01*
X99174497Y-30490261D01*
X99149500Y-30615928D01*
X99149500Y-30615931D01*
X99149500Y-30744069D01*
X99149500Y-30744071D01*
X99149499Y-30744071D01*
X99174497Y-30869738D01*
X99174499Y-30869744D01*
X99223533Y-30988124D01*
X99223538Y-30988133D01*
X99294723Y-31094668D01*
X99294726Y-31094672D01*
X99385327Y-31185273D01*
X99385331Y-31185276D01*
X99491866Y-31256461D01*
X99491872Y-31256464D01*
X99491873Y-31256465D01*
X99610256Y-31305501D01*
X99610260Y-31305501D01*
X99610261Y-31305502D01*
X99735928Y-31330500D01*
X99735931Y-31330500D01*
X100464071Y-31330500D01*
X100548615Y-31313682D01*
X100589744Y-31305501D01*
X100708127Y-31256465D01*
X100814669Y-31185276D01*
X100905276Y-31094669D01*
X100922397Y-31069044D01*
X100976009Y-31024240D01*
X101045334Y-31015531D01*
X101108362Y-31045686D01*
X101145081Y-31105128D01*
X101149500Y-31137935D01*
X101149500Y-38862064D01*
X101129815Y-38929103D01*
X101077011Y-38974858D01*
X101007853Y-38984802D01*
X100944297Y-38955777D01*
X100922398Y-38930955D01*
X100905276Y-38905331D01*
X100905273Y-38905327D01*
X100814672Y-38814726D01*
X100814668Y-38814723D01*
X100708133Y-38743538D01*
X100708124Y-38743533D01*
X100589744Y-38694499D01*
X100589738Y-38694497D01*
X100464071Y-38669500D01*
X100464069Y-38669500D01*
X99735931Y-38669500D01*
X99735929Y-38669500D01*
X99610261Y-38694497D01*
X99610255Y-38694499D01*
X99491875Y-38743533D01*
X99491866Y-38743538D01*
X99385331Y-38814723D01*
X99385327Y-38814726D01*
X99294726Y-38905327D01*
X99294723Y-38905331D01*
X99223538Y-39011866D01*
X99223533Y-39011875D01*
X99174499Y-39130255D01*
X99174497Y-39130261D01*
X99149500Y-39255928D01*
X99149500Y-39255931D01*
X99149500Y-39384069D01*
X99149500Y-39384071D01*
X99149499Y-39384071D01*
X99174497Y-39509738D01*
X99174499Y-39509744D01*
X99223533Y-39628124D01*
X99223538Y-39628133D01*
X99294723Y-39734668D01*
X99294726Y-39734672D01*
X99385327Y-39825273D01*
X99385331Y-39825276D01*
X99491866Y-39896461D01*
X99491872Y-39896464D01*
X99491873Y-39896465D01*
X99610256Y-39945501D01*
X99610260Y-39945501D01*
X99610261Y-39945502D01*
X99735928Y-39970500D01*
X99735931Y-39970500D01*
X100464071Y-39970500D01*
X100548615Y-39953682D01*
X100589744Y-39945501D01*
X100708127Y-39896465D01*
X100814669Y-39825276D01*
X100905276Y-39734669D01*
X100922397Y-39709044D01*
X100976009Y-39664240D01*
X101045334Y-39655531D01*
X101108362Y-39685686D01*
X101145081Y-39745128D01*
X101149500Y-39777935D01*
X101149500Y-42864069D01*
X101149500Y-42864071D01*
X101149499Y-42864071D01*
X101174497Y-42989738D01*
X101174499Y-42989744D01*
X101223533Y-43108124D01*
X101223538Y-43108133D01*
X101294723Y-43214668D01*
X101294726Y-43214672D01*
X101385327Y-43305273D01*
X101385331Y-43305276D01*
X101491866Y-43376461D01*
X101491872Y-43376464D01*
X101491873Y-43376465D01*
X101610256Y-43425501D01*
X101610260Y-43425501D01*
X101610261Y-43425502D01*
X101735928Y-43450500D01*
X101735931Y-43450500D01*
X101864071Y-43450500D01*
X101948615Y-43433682D01*
X101989744Y-43425501D01*
X102108127Y-43376465D01*
X102214669Y-43305276D01*
X102214672Y-43305273D01*
X102287819Y-43232127D01*
X102349142Y-43198642D01*
X102418834Y-43203626D01*
X102474767Y-43245498D01*
X102499184Y-43310962D01*
X102499500Y-43319808D01*
X102499500Y-49375500D01*
X102479815Y-49442539D01*
X102427011Y-49488294D01*
X102375500Y-49499500D01*
X40624500Y-49499500D01*
X40557461Y-49479815D01*
X40511706Y-49427011D01*
X40500500Y-49375500D01*
X40500500Y-46000000D01*
X40945194Y-46000000D01*
X40964401Y-46342025D01*
X40964403Y-46342037D01*
X41021783Y-46679754D01*
X41021785Y-46679762D01*
X41116619Y-47008935D01*
X41247711Y-47325424D01*
X41247713Y-47325428D01*
X41413422Y-47625255D01*
X41611660Y-47904646D01*
X41756500Y-48066720D01*
X41756501Y-48066721D01*
X42780240Y-47042982D01*
X42957017Y-47219759D01*
X41933278Y-48243498D01*
X42095353Y-48388339D01*
X42374744Y-48586577D01*
X42674571Y-48752286D01*
X42674575Y-48752288D01*
X42991064Y-48883380D01*
X43320237Y-48978214D01*
X43320245Y-48978216D01*
X43657962Y-49035596D01*
X43657974Y-49035598D01*
X44000000Y-49054805D01*
X44342025Y-49035598D01*
X44342037Y-49035596D01*
X44679754Y-48978216D01*
X44679762Y-48978214D01*
X45008935Y-48883380D01*
X45325424Y-48752288D01*
X45325428Y-48752286D01*
X45625255Y-48586577D01*
X45904641Y-48388342D01*
X45998098Y-48304822D01*
X48599499Y-48304822D01*
X48608231Y-48348717D01*
X48608232Y-48348721D01*
X48608233Y-48348722D01*
X48641496Y-48398504D01*
X48691278Y-48431767D01*
X48691281Y-48431767D01*
X48691282Y-48431768D01*
X48735177Y-48440500D01*
X48735180Y-48440500D01*
X50464822Y-48440500D01*
X50508717Y-48431768D01*
X50508717Y-48431767D01*
X50508722Y-48431767D01*
X50558504Y-48398504D01*
X50591767Y-48348722D01*
X50591768Y-48348717D01*
X50600500Y-48304822D01*
X50600500Y-47440000D01*
X51134659Y-47440000D01*
X51153975Y-47636129D01*
X51211188Y-47824733D01*
X51304086Y-47998532D01*
X51304090Y-47998539D01*
X51429116Y-48150883D01*
X51581460Y-48275909D01*
X51581467Y-48275913D01*
X51755266Y-48368811D01*
X51755269Y-48368811D01*
X51755273Y-48368814D01*
X51943868Y-48426024D01*
X52140000Y-48445341D01*
X52336132Y-48426024D01*
X52524727Y-48368814D01*
X52562317Y-48348722D01*
X52613099Y-48321578D01*
X52698538Y-48275910D01*
X52850883Y-48150883D01*
X52975910Y-47998538D01*
X53026099Y-47904641D01*
X53068811Y-47824733D01*
X53068811Y-47824732D01*
X53068814Y-47824727D01*
X53126024Y-47636132D01*
X53145341Y-47440000D01*
X53133030Y-47314999D01*
X53586869Y-47314999D01*
X53586870Y-47315000D01*
X54195856Y-47315000D01*
X54180000Y-47374174D01*
X54180000Y-47505826D01*
X54195856Y-47565000D01*
X53586870Y-47565000D01*
X53594097Y-47642989D01*
X53594097Y-47642992D01*
X53649883Y-47839063D01*
X53649886Y-47839069D01*
X53740754Y-48021556D01*
X53863608Y-48184242D01*
X54014260Y-48321578D01*
X54187584Y-48428897D01*
X54377678Y-48502539D01*
X54555000Y-48535686D01*
X54555000Y-47924144D01*
X54614174Y-47940000D01*
X54745826Y-47940000D01*
X54805000Y-47924144D01*
X54805000Y-48535686D01*
X54982321Y-48502539D01*
X55172415Y-48428897D01*
X55345739Y-48321578D01*
X55496391Y-48184242D01*
X55619245Y-48021556D01*
X55710113Y-47839069D01*
X55710116Y-47839063D01*
X55765902Y-47642992D01*
X55765902Y-47642989D01*
X55773130Y-47565000D01*
X55164144Y-47565000D01*
X55180000Y-47505826D01*
X55180000Y-47440000D01*
X56214659Y-47440000D01*
X56233975Y-47636129D01*
X56291188Y-47824733D01*
X56384086Y-47998532D01*
X56384090Y-47998539D01*
X56509116Y-48150883D01*
X56661460Y-48275909D01*
X56661467Y-48275913D01*
X56835266Y-48368811D01*
X56835269Y-48368811D01*
X56835273Y-48368814D01*
X57023868Y-48426024D01*
X57220000Y-48445341D01*
X57416132Y-48426024D01*
X57604727Y-48368814D01*
X57642317Y-48348722D01*
X57693099Y-48321578D01*
X57778538Y-48275910D01*
X57930883Y-48150883D01*
X58055910Y-47998538D01*
X58106099Y-47904641D01*
X58148811Y-47824733D01*
X58148811Y-47824732D01*
X58148814Y-47824727D01*
X58206024Y-47636132D01*
X58225341Y-47440000D01*
X58754659Y-47440000D01*
X58773975Y-47636129D01*
X58831188Y-47824733D01*
X58924086Y-47998532D01*
X58924090Y-47998539D01*
X59049116Y-48150883D01*
X59201460Y-48275909D01*
X59201467Y-48275913D01*
X59375266Y-48368811D01*
X59375269Y-48368811D01*
X59375273Y-48368814D01*
X59563868Y-48426024D01*
X59760000Y-48445341D01*
X59956132Y-48426024D01*
X60144727Y-48368814D01*
X60182317Y-48348722D01*
X60233099Y-48321578D01*
X60318538Y-48275910D01*
X60470883Y-48150883D01*
X60595910Y-47998538D01*
X60646099Y-47904641D01*
X60688811Y-47824733D01*
X60688811Y-47824732D01*
X60688814Y-47824727D01*
X60746024Y-47636132D01*
X60765341Y-47440000D01*
X60753030Y-47314999D01*
X61206869Y-47314999D01*
X61206870Y-47315000D01*
X61815856Y-47315000D01*
X61800000Y-47374174D01*
X61800000Y-47505826D01*
X61815856Y-47565000D01*
X61206870Y-47565000D01*
X61214097Y-47642989D01*
X61214097Y-47642992D01*
X61269883Y-47839063D01*
X61269886Y-47839069D01*
X61360754Y-48021556D01*
X61483608Y-48184242D01*
X61634260Y-48321578D01*
X61807584Y-48428897D01*
X61997678Y-48502539D01*
X62175000Y-48535686D01*
X62175000Y-47924144D01*
X62234174Y-47940000D01*
X62365826Y-47940000D01*
X62425000Y-47924144D01*
X62425000Y-48535686D01*
X62602321Y-48502539D01*
X62792415Y-48428897D01*
X62965739Y-48321578D01*
X63116391Y-48184242D01*
X63239245Y-48021556D01*
X63330113Y-47839069D01*
X63330116Y-47839063D01*
X63385902Y-47642992D01*
X63385902Y-47642989D01*
X63393130Y-47565000D01*
X62784144Y-47565000D01*
X62800000Y-47505826D01*
X62800000Y-47440000D01*
X63834659Y-47440000D01*
X63853975Y-47636129D01*
X63911188Y-47824733D01*
X64004086Y-47998532D01*
X64004090Y-47998539D01*
X64129116Y-48150883D01*
X64281460Y-48275909D01*
X64281467Y-48275913D01*
X64455266Y-48368811D01*
X64455269Y-48368811D01*
X64455273Y-48368814D01*
X64643868Y-48426024D01*
X64840000Y-48445341D01*
X65036132Y-48426024D01*
X65224727Y-48368814D01*
X65262317Y-48348722D01*
X65313099Y-48321578D01*
X65398538Y-48275910D01*
X65550883Y-48150883D01*
X65675910Y-47998538D01*
X65726099Y-47904641D01*
X65768811Y-47824733D01*
X65768811Y-47824732D01*
X65768814Y-47824727D01*
X65826024Y-47636132D01*
X65845341Y-47440000D01*
X66374659Y-47440000D01*
X66393975Y-47636129D01*
X66451188Y-47824733D01*
X66544086Y-47998532D01*
X66544090Y-47998539D01*
X66669116Y-48150883D01*
X66821460Y-48275909D01*
X66821467Y-48275913D01*
X66995266Y-48368811D01*
X66995269Y-48368811D01*
X66995273Y-48368814D01*
X67183868Y-48426024D01*
X67380000Y-48445341D01*
X67576132Y-48426024D01*
X67764727Y-48368814D01*
X67802317Y-48348722D01*
X67853099Y-48321578D01*
X67938538Y-48275910D01*
X68090883Y-48150883D01*
X68215910Y-47998538D01*
X68266099Y-47904641D01*
X68308811Y-47824733D01*
X68308811Y-47824732D01*
X68308814Y-47824727D01*
X68366024Y-47636132D01*
X68385341Y-47440000D01*
X68373030Y-47314999D01*
X68826869Y-47314999D01*
X68826870Y-47315000D01*
X69435856Y-47315000D01*
X69420000Y-47374174D01*
X69420000Y-47505826D01*
X69435856Y-47565000D01*
X68826870Y-47565000D01*
X68834097Y-47642989D01*
X68834097Y-47642992D01*
X68889883Y-47839063D01*
X68889886Y-47839069D01*
X68980754Y-48021556D01*
X69103608Y-48184242D01*
X69254260Y-48321578D01*
X69427584Y-48428897D01*
X69617678Y-48502539D01*
X69795000Y-48535686D01*
X69795000Y-47924144D01*
X69854174Y-47940000D01*
X69985826Y-47940000D01*
X70045000Y-47924144D01*
X70045000Y-48535686D01*
X70222321Y-48502539D01*
X70412415Y-48428897D01*
X70585739Y-48321578D01*
X70736391Y-48184242D01*
X70859245Y-48021556D01*
X70950113Y-47839069D01*
X70950116Y-47839063D01*
X71005902Y-47642992D01*
X71005902Y-47642989D01*
X71013130Y-47565000D01*
X70404144Y-47565000D01*
X70420000Y-47505826D01*
X70420000Y-47440000D01*
X71454659Y-47440000D01*
X71473975Y-47636129D01*
X71531188Y-47824733D01*
X71624086Y-47998532D01*
X71624090Y-47998539D01*
X71749116Y-48150883D01*
X71901460Y-48275909D01*
X71901467Y-48275913D01*
X72075266Y-48368811D01*
X72075269Y-48368811D01*
X72075273Y-48368814D01*
X72263868Y-48426024D01*
X72460000Y-48445341D01*
X72656132Y-48426024D01*
X72844727Y-48368814D01*
X72882317Y-48348722D01*
X72933099Y-48321578D01*
X73018538Y-48275910D01*
X73170883Y-48150883D01*
X73295910Y-47998538D01*
X73346099Y-47904641D01*
X73388811Y-47824733D01*
X73388811Y-47824732D01*
X73388814Y-47824727D01*
X73446024Y-47636132D01*
X73465341Y-47440000D01*
X73994659Y-47440000D01*
X74013975Y-47636129D01*
X74071188Y-47824733D01*
X74164086Y-47998532D01*
X74164090Y-47998539D01*
X74289116Y-48150883D01*
X74441460Y-48275909D01*
X74441467Y-48275913D01*
X74615266Y-48368811D01*
X74615269Y-48368811D01*
X74615273Y-48368814D01*
X74803868Y-48426024D01*
X75000000Y-48445341D01*
X75196132Y-48426024D01*
X75384727Y-48368814D01*
X75422317Y-48348722D01*
X75473099Y-48321578D01*
X75558538Y-48275910D01*
X75710883Y-48150883D01*
X75835910Y-47998538D01*
X75886099Y-47904641D01*
X75928811Y-47824733D01*
X75928811Y-47824732D01*
X75928814Y-47824727D01*
X75986024Y-47636132D01*
X76005341Y-47440000D01*
X76534659Y-47440000D01*
X76553975Y-47636129D01*
X76611188Y-47824733D01*
X76704086Y-47998532D01*
X76704090Y-47998539D01*
X76829116Y-48150883D01*
X76981460Y-48275909D01*
X76981467Y-48275913D01*
X77155266Y-48368811D01*
X77155269Y-48368811D01*
X77155273Y-48368814D01*
X77343868Y-48426024D01*
X77540000Y-48445341D01*
X77736132Y-48426024D01*
X77924727Y-48368814D01*
X77962317Y-48348722D01*
X78013099Y-48321578D01*
X78098538Y-48275910D01*
X78250883Y-48150883D01*
X78375910Y-47998538D01*
X78426099Y-47904641D01*
X78468811Y-47824733D01*
X78468811Y-47824732D01*
X78468814Y-47824727D01*
X78526024Y-47636132D01*
X78545341Y-47440000D01*
X79074659Y-47440000D01*
X79093975Y-47636129D01*
X79151188Y-47824733D01*
X79244086Y-47998532D01*
X79244090Y-47998539D01*
X79369116Y-48150883D01*
X79521460Y-48275909D01*
X79521467Y-48275913D01*
X79695266Y-48368811D01*
X79695269Y-48368811D01*
X79695273Y-48368814D01*
X79883868Y-48426024D01*
X80080000Y-48445341D01*
X80276132Y-48426024D01*
X80464727Y-48368814D01*
X80502317Y-48348722D01*
X80553099Y-48321578D01*
X80638538Y-48275910D01*
X80790883Y-48150883D01*
X80915910Y-47998538D01*
X80966099Y-47904641D01*
X81008811Y-47824733D01*
X81008811Y-47824732D01*
X81008814Y-47824727D01*
X81066024Y-47636132D01*
X81085341Y-47440000D01*
X81614659Y-47440000D01*
X81633975Y-47636129D01*
X81691188Y-47824733D01*
X81784086Y-47998532D01*
X81784090Y-47998539D01*
X81909116Y-48150883D01*
X82061460Y-48275909D01*
X82061467Y-48275913D01*
X82235266Y-48368811D01*
X82235269Y-48368811D01*
X82235273Y-48368814D01*
X82423868Y-48426024D01*
X82620000Y-48445341D01*
X82816132Y-48426024D01*
X83004727Y-48368814D01*
X83042317Y-48348722D01*
X83093099Y-48321578D01*
X83178538Y-48275910D01*
X83330883Y-48150883D01*
X83455910Y-47998538D01*
X83506099Y-47904641D01*
X83548811Y-47824733D01*
X83548811Y-47824732D01*
X83548814Y-47824727D01*
X83606024Y-47636132D01*
X83625341Y-47440000D01*
X83606024Y-47243868D01*
X83548814Y-47055273D01*
X83548811Y-47055269D01*
X83548811Y-47055266D01*
X83455913Y-46881467D01*
X83455909Y-46881460D01*
X83330883Y-46729116D01*
X83178539Y-46604090D01*
X83178532Y-46604086D01*
X83004733Y-46511188D01*
X83004727Y-46511186D01*
X82816132Y-46453976D01*
X82816129Y-46453975D01*
X82620000Y-46434659D01*
X82423870Y-46453975D01*
X82235266Y-46511188D01*
X82061467Y-46604086D01*
X82061460Y-46604090D01*
X81909116Y-46729116D01*
X81784090Y-46881460D01*
X81784086Y-46881467D01*
X81691188Y-47055266D01*
X81633975Y-47243870D01*
X81614659Y-47440000D01*
X81085341Y-47440000D01*
X81066024Y-47243868D01*
X81008814Y-47055273D01*
X81008811Y-47055269D01*
X81008811Y-47055266D01*
X80915913Y-46881467D01*
X80915909Y-46881460D01*
X80790883Y-46729116D01*
X80638539Y-46604090D01*
X80638532Y-46604086D01*
X80464733Y-46511188D01*
X80464727Y-46511186D01*
X80276132Y-46453976D01*
X80276129Y-46453975D01*
X80080000Y-46434659D01*
X79883870Y-46453975D01*
X79695266Y-46511188D01*
X79521467Y-46604086D01*
X79521460Y-46604090D01*
X79369116Y-46729116D01*
X79244090Y-46881460D01*
X79244086Y-46881467D01*
X79151188Y-47055266D01*
X79093975Y-47243870D01*
X79074659Y-47440000D01*
X78545341Y-47440000D01*
X78526024Y-47243868D01*
X78468814Y-47055273D01*
X78468811Y-47055269D01*
X78468811Y-47055266D01*
X78375913Y-46881467D01*
X78375909Y-46881460D01*
X78250883Y-46729116D01*
X78098539Y-46604090D01*
X78098532Y-46604086D01*
X77924733Y-46511188D01*
X77924727Y-46511186D01*
X77736132Y-46453976D01*
X77736129Y-46453975D01*
X77540000Y-46434659D01*
X77343870Y-46453975D01*
X77155266Y-46511188D01*
X76981467Y-46604086D01*
X76981460Y-46604090D01*
X76829116Y-46729116D01*
X76704090Y-46881460D01*
X76704086Y-46881467D01*
X76611188Y-47055266D01*
X76553975Y-47243870D01*
X76534659Y-47440000D01*
X76005341Y-47440000D01*
X75986024Y-47243868D01*
X75928814Y-47055273D01*
X75928811Y-47055269D01*
X75928811Y-47055266D01*
X75835913Y-46881467D01*
X75835909Y-46881460D01*
X75710883Y-46729116D01*
X75558539Y-46604090D01*
X75558532Y-46604086D01*
X75384733Y-46511188D01*
X75384727Y-46511186D01*
X75196132Y-46453976D01*
X75196129Y-46453975D01*
X75000000Y-46434659D01*
X74803870Y-46453975D01*
X74615266Y-46511188D01*
X74441467Y-46604086D01*
X74441460Y-46604090D01*
X74289116Y-46729116D01*
X74164090Y-46881460D01*
X74164086Y-46881467D01*
X74071188Y-47055266D01*
X74013975Y-47243870D01*
X73994659Y-47440000D01*
X73465341Y-47440000D01*
X73446024Y-47243868D01*
X73388814Y-47055273D01*
X73388811Y-47055269D01*
X73388811Y-47055266D01*
X73295913Y-46881467D01*
X73295909Y-46881460D01*
X73170883Y-46729116D01*
X73018539Y-46604090D01*
X73018532Y-46604086D01*
X72844733Y-46511188D01*
X72844727Y-46511186D01*
X72656132Y-46453976D01*
X72656129Y-46453975D01*
X72460000Y-46434659D01*
X72263870Y-46453975D01*
X72075266Y-46511188D01*
X71901467Y-46604086D01*
X71901460Y-46604090D01*
X71749116Y-46729116D01*
X71624090Y-46881460D01*
X71624086Y-46881467D01*
X71531188Y-47055266D01*
X71473975Y-47243870D01*
X71454659Y-47440000D01*
X70420000Y-47440000D01*
X70420000Y-47374174D01*
X70404144Y-47315000D01*
X71013130Y-47315000D01*
X71013130Y-47314999D01*
X71005902Y-47237010D01*
X71005902Y-47237007D01*
X70950116Y-47040936D01*
X70950113Y-47040930D01*
X70859245Y-46858443D01*
X70736391Y-46695757D01*
X70585739Y-46558421D01*
X70412415Y-46451102D01*
X70222321Y-46377460D01*
X70045000Y-46344312D01*
X70045000Y-46955855D01*
X69985826Y-46940000D01*
X69854174Y-46940000D01*
X69795000Y-46955855D01*
X69795000Y-46344312D01*
X69617678Y-46377460D01*
X69427584Y-46451102D01*
X69254260Y-46558421D01*
X69103608Y-46695757D01*
X68980754Y-46858443D01*
X68889886Y-47040930D01*
X68889883Y-47040936D01*
X68834097Y-47237007D01*
X68834097Y-47237010D01*
X68826869Y-47314999D01*
X68373030Y-47314999D01*
X68366024Y-47243868D01*
X68308814Y-47055273D01*
X68308811Y-47055269D01*
X68308811Y-47055266D01*
X68215913Y-46881467D01*
X68215909Y-46881460D01*
X68090883Y-46729116D01*
X67938539Y-46604090D01*
X67938532Y-46604086D01*
X67764733Y-46511188D01*
X67764727Y-46511186D01*
X67576132Y-46453976D01*
X67576129Y-46453975D01*
X67380000Y-46434659D01*
X67183870Y-46453975D01*
X66995266Y-46511188D01*
X66821467Y-46604086D01*
X66821460Y-46604090D01*
X66669116Y-46729116D01*
X66544090Y-46881460D01*
X66544086Y-46881467D01*
X66451188Y-47055266D01*
X66393975Y-47243870D01*
X66374659Y-47440000D01*
X65845341Y-47440000D01*
X65826024Y-47243868D01*
X65768814Y-47055273D01*
X65768811Y-47055269D01*
X65768811Y-47055266D01*
X65675913Y-46881467D01*
X65675909Y-46881460D01*
X65550883Y-46729116D01*
X65398539Y-46604090D01*
X65398532Y-46604086D01*
X65224733Y-46511188D01*
X65224727Y-46511186D01*
X65036132Y-46453976D01*
X65036129Y-46453975D01*
X64840000Y-46434659D01*
X64643870Y-46453975D01*
X64455266Y-46511188D01*
X64281467Y-46604086D01*
X64281460Y-46604090D01*
X64129116Y-46729116D01*
X64004090Y-46881460D01*
X64004086Y-46881467D01*
X63911188Y-47055266D01*
X63853975Y-47243870D01*
X63834659Y-47440000D01*
X62800000Y-47440000D01*
X62800000Y-47374174D01*
X62784144Y-47315000D01*
X63393130Y-47315000D01*
X63393130Y-47314999D01*
X63385902Y-47237010D01*
X63385902Y-47237007D01*
X63330116Y-47040936D01*
X63330113Y-47040930D01*
X63239245Y-46858443D01*
X63116391Y-46695757D01*
X62965739Y-46558421D01*
X62792415Y-46451102D01*
X62602321Y-46377460D01*
X62425000Y-46344312D01*
X62425000Y-46955855D01*
X62365826Y-46940000D01*
X62234174Y-46940000D01*
X62175000Y-46955855D01*
X62175000Y-46344312D01*
X61997678Y-46377460D01*
X61807584Y-46451102D01*
X61634260Y-46558421D01*
X61483608Y-46695757D01*
X61360754Y-46858443D01*
X61269886Y-47040930D01*
X61269883Y-47040936D01*
X61214097Y-47237007D01*
X61214097Y-47237010D01*
X61206869Y-47314999D01*
X60753030Y-47314999D01*
X60746024Y-47243868D01*
X60688814Y-47055273D01*
X60688811Y-47055269D01*
X60688811Y-47055266D01*
X60595913Y-46881467D01*
X60595909Y-46881460D01*
X60470883Y-46729116D01*
X60318539Y-46604090D01*
X60318532Y-46604086D01*
X60144733Y-46511188D01*
X60144727Y-46511186D01*
X59956132Y-46453976D01*
X59956129Y-46453975D01*
X59760000Y-46434659D01*
X59563870Y-46453975D01*
X59375266Y-46511188D01*
X59201467Y-46604086D01*
X59201460Y-46604090D01*
X59049116Y-46729116D01*
X58924090Y-46881460D01*
X58924086Y-46881467D01*
X58831188Y-47055266D01*
X58773975Y-47243870D01*
X58754659Y-47440000D01*
X58225341Y-47440000D01*
X58206024Y-47243868D01*
X58148814Y-47055273D01*
X58148811Y-47055269D01*
X58148811Y-47055266D01*
X58055913Y-46881467D01*
X58055909Y-46881460D01*
X57930883Y-46729116D01*
X57778539Y-46604090D01*
X57778532Y-46604086D01*
X57604733Y-46511188D01*
X57604727Y-46511186D01*
X57416132Y-46453976D01*
X57416129Y-46453975D01*
X57220000Y-46434659D01*
X57023870Y-46453975D01*
X56835266Y-46511188D01*
X56661467Y-46604086D01*
X56661460Y-46604090D01*
X56509116Y-46729116D01*
X56384090Y-46881460D01*
X56384086Y-46881467D01*
X56291188Y-47055266D01*
X56233975Y-47243870D01*
X56214659Y-47440000D01*
X55180000Y-47440000D01*
X55180000Y-47374174D01*
X55164144Y-47315000D01*
X55773130Y-47315000D01*
X55773130Y-47314999D01*
X55765902Y-47237010D01*
X55765902Y-47237007D01*
X55710116Y-47040936D01*
X55710113Y-47040930D01*
X55619245Y-46858443D01*
X55496391Y-46695757D01*
X55345739Y-46558421D01*
X55172415Y-46451102D01*
X54982321Y-46377460D01*
X54805000Y-46344312D01*
X54805000Y-46955855D01*
X54745826Y-46940000D01*
X54614174Y-46940000D01*
X54555000Y-46955855D01*
X54555000Y-46344312D01*
X54377678Y-46377460D01*
X54187584Y-46451102D01*
X54014260Y-46558421D01*
X53863608Y-46695757D01*
X53740754Y-46858443D01*
X53649886Y-47040930D01*
X53649883Y-47040936D01*
X53594097Y-47237007D01*
X53594097Y-47237010D01*
X53586869Y-47314999D01*
X53133030Y-47314999D01*
X53126024Y-47243868D01*
X53068814Y-47055273D01*
X53068811Y-47055269D01*
X53068811Y-47055266D01*
X52975913Y-46881467D01*
X52975909Y-46881460D01*
X52850883Y-46729116D01*
X52698539Y-46604090D01*
X52698532Y-46604086D01*
X52524733Y-46511188D01*
X52524727Y-46511186D01*
X52336132Y-46453976D01*
X52336129Y-46453975D01*
X52140000Y-46434659D01*
X51943870Y-46453975D01*
X51755266Y-46511188D01*
X51581467Y-46604086D01*
X51581460Y-46604090D01*
X51429116Y-46729116D01*
X51304090Y-46881460D01*
X51304086Y-46881467D01*
X51211188Y-47055266D01*
X51153975Y-47243870D01*
X51134659Y-47440000D01*
X50600500Y-47440000D01*
X50600500Y-46575177D01*
X50591768Y-46531282D01*
X50591767Y-46531281D01*
X50591767Y-46531278D01*
X50558504Y-46481496D01*
X50558503Y-46481495D01*
X50508724Y-46448234D01*
X50508717Y-46448231D01*
X50464822Y-46439500D01*
X50464820Y-46439500D01*
X48735180Y-46439500D01*
X48735178Y-46439500D01*
X48691282Y-46448231D01*
X48691275Y-46448234D01*
X48641496Y-46481495D01*
X48641495Y-46481496D01*
X48608234Y-46531275D01*
X48608231Y-46531282D01*
X48599500Y-46575177D01*
X48599500Y-46575180D01*
X48599500Y-48304820D01*
X48599500Y-48304822D01*
X48599499Y-48304822D01*
X45998098Y-48304822D01*
X46066720Y-48243497D01*
X45042982Y-47219759D01*
X45219759Y-47042982D01*
X46243497Y-48066720D01*
X46388342Y-47904641D01*
X46586577Y-47625255D01*
X46752286Y-47325428D01*
X46752288Y-47325424D01*
X46883380Y-47008935D01*
X46978214Y-46679762D01*
X46978216Y-46679754D01*
X47035596Y-46342037D01*
X47035598Y-46342025D01*
X47054805Y-46000000D01*
X95945194Y-46000000D01*
X95964401Y-46342025D01*
X95964403Y-46342037D01*
X96021783Y-46679754D01*
X96021785Y-46679762D01*
X96116619Y-47008935D01*
X96247711Y-47325424D01*
X96247713Y-47325428D01*
X96413422Y-47625255D01*
X96611660Y-47904646D01*
X96756500Y-48066720D01*
X96756501Y-48066721D01*
X97780240Y-47042982D01*
X97957017Y-47219759D01*
X96933278Y-48243498D01*
X97095353Y-48388339D01*
X97374744Y-48586577D01*
X97674571Y-48752286D01*
X97674575Y-48752288D01*
X97991064Y-48883380D01*
X98320237Y-48978214D01*
X98320245Y-48978216D01*
X98657962Y-49035596D01*
X98657974Y-49035598D01*
X99000000Y-49054805D01*
X99342025Y-49035598D01*
X99342037Y-49035596D01*
X99679754Y-48978216D01*
X99679762Y-48978214D01*
X100008935Y-48883380D01*
X100325424Y-48752288D01*
X100325428Y-48752286D01*
X100625255Y-48586577D01*
X100904641Y-48388342D01*
X101066720Y-48243497D01*
X100042982Y-47219759D01*
X100219759Y-47042982D01*
X101243497Y-48066720D01*
X101388342Y-47904641D01*
X101586577Y-47625255D01*
X101752286Y-47325428D01*
X101752288Y-47325424D01*
X101883380Y-47008935D01*
X101978214Y-46679762D01*
X101978216Y-46679754D01*
X102035596Y-46342037D01*
X102035598Y-46342025D01*
X102054805Y-46000000D01*
X102035598Y-45657974D01*
X102035596Y-45657962D01*
X101978216Y-45320245D01*
X101978214Y-45320237D01*
X101883380Y-44991064D01*
X101752288Y-44674575D01*
X101752286Y-44674571D01*
X101586577Y-44374744D01*
X101388339Y-44095353D01*
X101243498Y-43933278D01*
X100219759Y-44957017D01*
X100042982Y-44780240D01*
X101066721Y-43756501D01*
X101066720Y-43756500D01*
X100904646Y-43611660D01*
X100625255Y-43413422D01*
X100325428Y-43247713D01*
X100325424Y-43247711D01*
X100008935Y-43116619D01*
X99679762Y-43021785D01*
X99679754Y-43021783D01*
X99342037Y-42964403D01*
X99342025Y-42964401D01*
X99000000Y-42945194D01*
X98657974Y-42964401D01*
X98657962Y-42964403D01*
X98320245Y-43021783D01*
X98320237Y-43021785D01*
X97991064Y-43116619D01*
X97674575Y-43247711D01*
X97674571Y-43247713D01*
X97374744Y-43413422D01*
X97095358Y-43611657D01*
X96933278Y-43756501D01*
X97957017Y-44780240D01*
X97780240Y-44957017D01*
X96756501Y-43933278D01*
X96611657Y-44095358D01*
X96413422Y-44374744D01*
X96247713Y-44674571D01*
X96247711Y-44674575D01*
X96116619Y-44991064D01*
X96021785Y-45320237D01*
X96021783Y-45320245D01*
X95964403Y-45657962D01*
X95964401Y-45657974D01*
X95945194Y-46000000D01*
X47054805Y-46000000D01*
X47035598Y-45657974D01*
X47035596Y-45657962D01*
X46978216Y-45320245D01*
X46978214Y-45320237D01*
X46883380Y-44991064D01*
X46845661Y-44900000D01*
X48594659Y-44900000D01*
X48613975Y-45096129D01*
X48671188Y-45284733D01*
X48764086Y-45458532D01*
X48764090Y-45458539D01*
X48889116Y-45610883D01*
X49041460Y-45735909D01*
X49041467Y-45735913D01*
X49215266Y-45828811D01*
X49215269Y-45828811D01*
X49215273Y-45828814D01*
X49403868Y-45886024D01*
X49600000Y-45905341D01*
X49796132Y-45886024D01*
X49984727Y-45828814D01*
X50158538Y-45735910D01*
X50310883Y-45610883D01*
X50435910Y-45458538D01*
X50509829Y-45320245D01*
X50528811Y-45284733D01*
X50528811Y-45284732D01*
X50528814Y-45284727D01*
X50586024Y-45096132D01*
X50605341Y-44900000D01*
X51134659Y-44900000D01*
X51153975Y-45096129D01*
X51211188Y-45284733D01*
X51304086Y-45458532D01*
X51304090Y-45458539D01*
X51429116Y-45610883D01*
X51581460Y-45735909D01*
X51581467Y-45735913D01*
X51755266Y-45828811D01*
X51755269Y-45828811D01*
X51755273Y-45828814D01*
X51943868Y-45886024D01*
X52140000Y-45905341D01*
X52336132Y-45886024D01*
X52524727Y-45828814D01*
X52698538Y-45735910D01*
X52850883Y-45610883D01*
X52975910Y-45458538D01*
X53049829Y-45320245D01*
X53068811Y-45284733D01*
X53068811Y-45284732D01*
X53068814Y-45284727D01*
X53126024Y-45096132D01*
X53145341Y-44900000D01*
X53674659Y-44900000D01*
X53693975Y-45096129D01*
X53751188Y-45284733D01*
X53844086Y-45458532D01*
X53844090Y-45458539D01*
X53969116Y-45610883D01*
X54121460Y-45735909D01*
X54121467Y-45735913D01*
X54295266Y-45828811D01*
X54295269Y-45828811D01*
X54295273Y-45828814D01*
X54483868Y-45886024D01*
X54680000Y-45905341D01*
X54876132Y-45886024D01*
X55064727Y-45828814D01*
X55238538Y-45735910D01*
X55390883Y-45610883D01*
X55515910Y-45458538D01*
X55589829Y-45320245D01*
X55608811Y-45284733D01*
X55608811Y-45284732D01*
X55608814Y-45284727D01*
X55666024Y-45096132D01*
X55685341Y-44900000D01*
X55673030Y-44774999D01*
X56126869Y-44774999D01*
X56126870Y-44775000D01*
X56735856Y-44775000D01*
X56720000Y-44834174D01*
X56720000Y-44965826D01*
X56735856Y-45025000D01*
X56126870Y-45025000D01*
X56134097Y-45102989D01*
X56134097Y-45102992D01*
X56189883Y-45299063D01*
X56189886Y-45299069D01*
X56280754Y-45481556D01*
X56403608Y-45644242D01*
X56554260Y-45781578D01*
X56727584Y-45888897D01*
X56917678Y-45962539D01*
X57095000Y-45995686D01*
X57095000Y-45384144D01*
X57154174Y-45400000D01*
X57285826Y-45400000D01*
X57345000Y-45384144D01*
X57345000Y-45995686D01*
X57522321Y-45962539D01*
X57712415Y-45888897D01*
X57885739Y-45781578D01*
X58036391Y-45644242D01*
X58159245Y-45481556D01*
X58250113Y-45299069D01*
X58250116Y-45299063D01*
X58305902Y-45102992D01*
X58305902Y-45102989D01*
X58313130Y-45025000D01*
X57704144Y-45025000D01*
X57720000Y-44965826D01*
X57720000Y-44900000D01*
X58754659Y-44900000D01*
X58773975Y-45096129D01*
X58831188Y-45284733D01*
X58924086Y-45458532D01*
X58924090Y-45458539D01*
X59049116Y-45610883D01*
X59201460Y-45735909D01*
X59201467Y-45735913D01*
X59375266Y-45828811D01*
X59375269Y-45828811D01*
X59375273Y-45828814D01*
X59563868Y-45886024D01*
X59760000Y-45905341D01*
X59956132Y-45886024D01*
X60144727Y-45828814D01*
X60318538Y-45735910D01*
X60470883Y-45610883D01*
X60595910Y-45458538D01*
X60669829Y-45320245D01*
X60688811Y-45284733D01*
X60688811Y-45284732D01*
X60688814Y-45284727D01*
X60746024Y-45096132D01*
X60765341Y-44900000D01*
X61294659Y-44900000D01*
X61313975Y-45096129D01*
X61371188Y-45284733D01*
X61464086Y-45458532D01*
X61464090Y-45458539D01*
X61589116Y-45610883D01*
X61741460Y-45735909D01*
X61741467Y-45735913D01*
X61915266Y-45828811D01*
X61915269Y-45828811D01*
X61915273Y-45828814D01*
X62103868Y-45886024D01*
X62300000Y-45905341D01*
X62496132Y-45886024D01*
X62684727Y-45828814D01*
X62858538Y-45735910D01*
X63010883Y-45610883D01*
X63135910Y-45458538D01*
X63209829Y-45320245D01*
X63228811Y-45284733D01*
X63228811Y-45284732D01*
X63228814Y-45284727D01*
X63286024Y-45096132D01*
X63305341Y-44900000D01*
X63293030Y-44774999D01*
X63746869Y-44774999D01*
X63746870Y-44775000D01*
X64355856Y-44775000D01*
X64340000Y-44834174D01*
X64340000Y-44965826D01*
X64355856Y-45025000D01*
X63746870Y-45025000D01*
X63754097Y-45102989D01*
X63754097Y-45102992D01*
X63809883Y-45299063D01*
X63809886Y-45299069D01*
X63900754Y-45481556D01*
X64023608Y-45644242D01*
X64174260Y-45781578D01*
X64347584Y-45888897D01*
X64537678Y-45962539D01*
X64715000Y-45995686D01*
X64715000Y-45384144D01*
X64774174Y-45400000D01*
X64905826Y-45400000D01*
X64965000Y-45384144D01*
X64965000Y-45995686D01*
X65142321Y-45962539D01*
X65332415Y-45888897D01*
X65505739Y-45781578D01*
X65656391Y-45644242D01*
X65779245Y-45481556D01*
X65870113Y-45299069D01*
X65870116Y-45299063D01*
X65925902Y-45102992D01*
X65925902Y-45102989D01*
X65933130Y-45025000D01*
X65324144Y-45025000D01*
X65340000Y-44965826D01*
X65340000Y-44900000D01*
X66374659Y-44900000D01*
X66393975Y-45096129D01*
X66451188Y-45284733D01*
X66544086Y-45458532D01*
X66544090Y-45458539D01*
X66669116Y-45610883D01*
X66821460Y-45735909D01*
X66821467Y-45735913D01*
X66995266Y-45828811D01*
X66995269Y-45828811D01*
X66995273Y-45828814D01*
X67183868Y-45886024D01*
X67380000Y-45905341D01*
X67576132Y-45886024D01*
X67764727Y-45828814D01*
X67938538Y-45735910D01*
X68090883Y-45610883D01*
X68215910Y-45458538D01*
X68289829Y-45320245D01*
X68308811Y-45284733D01*
X68308811Y-45284732D01*
X68308814Y-45284727D01*
X68366024Y-45096132D01*
X68385341Y-44900000D01*
X68914659Y-44900000D01*
X68933975Y-45096129D01*
X68991188Y-45284733D01*
X69084086Y-45458532D01*
X69084090Y-45458539D01*
X69209116Y-45610883D01*
X69361460Y-45735909D01*
X69361467Y-45735913D01*
X69535266Y-45828811D01*
X69535269Y-45828811D01*
X69535273Y-45828814D01*
X69723868Y-45886024D01*
X69920000Y-45905341D01*
X70116132Y-45886024D01*
X70304727Y-45828814D01*
X70478538Y-45735910D01*
X70630883Y-45610883D01*
X70755910Y-45458538D01*
X70829829Y-45320245D01*
X70848811Y-45284733D01*
X70848811Y-45284732D01*
X70848814Y-45284727D01*
X70906024Y-45096132D01*
X70925341Y-44900000D01*
X70913030Y-44774999D01*
X71366869Y-44774999D01*
X71366870Y-44775000D01*
X71975856Y-44775000D01*
X71960000Y-44834174D01*
X71960000Y-44965826D01*
X71975856Y-45025000D01*
X71366870Y-45025000D01*
X71374097Y-45102989D01*
X71374097Y-45102992D01*
X71429883Y-45299063D01*
X71429886Y-45299069D01*
X71520754Y-45481556D01*
X71643608Y-45644242D01*
X71794260Y-45781578D01*
X71967584Y-45888897D01*
X72157678Y-45962539D01*
X72335000Y-45995686D01*
X72335000Y-45384144D01*
X72394174Y-45400000D01*
X72525826Y-45400000D01*
X72585000Y-45384144D01*
X72585000Y-45995686D01*
X72762321Y-45962539D01*
X72952415Y-45888897D01*
X73125739Y-45781578D01*
X73276391Y-45644242D01*
X73399245Y-45481556D01*
X73490113Y-45299069D01*
X73490116Y-45299063D01*
X73545902Y-45102992D01*
X73545902Y-45102989D01*
X73553130Y-45025000D01*
X72944144Y-45025000D01*
X72960000Y-44965826D01*
X72960000Y-44900000D01*
X73994659Y-44900000D01*
X74013975Y-45096129D01*
X74071188Y-45284733D01*
X74164086Y-45458532D01*
X74164090Y-45458539D01*
X74289116Y-45610883D01*
X74441460Y-45735909D01*
X74441467Y-45735913D01*
X74615266Y-45828811D01*
X74615269Y-45828811D01*
X74615273Y-45828814D01*
X74803868Y-45886024D01*
X75000000Y-45905341D01*
X75196132Y-45886024D01*
X75384727Y-45828814D01*
X75558538Y-45735910D01*
X75710883Y-45610883D01*
X75835910Y-45458538D01*
X75909829Y-45320245D01*
X75928811Y-45284733D01*
X75928811Y-45284732D01*
X75928814Y-45284727D01*
X75986024Y-45096132D01*
X76005341Y-44900000D01*
X76534659Y-44900000D01*
X76553975Y-45096129D01*
X76611188Y-45284733D01*
X76704086Y-45458532D01*
X76704090Y-45458539D01*
X76829116Y-45610883D01*
X76981460Y-45735909D01*
X76981467Y-45735913D01*
X77155266Y-45828811D01*
X77155269Y-45828811D01*
X77155273Y-45828814D01*
X77343868Y-45886024D01*
X77540000Y-45905341D01*
X77736132Y-45886024D01*
X77924727Y-45828814D01*
X78098538Y-45735910D01*
X78250883Y-45610883D01*
X78375910Y-45458538D01*
X78449829Y-45320245D01*
X78468811Y-45284733D01*
X78468811Y-45284732D01*
X78468814Y-45284727D01*
X78526024Y-45096132D01*
X78545341Y-44900000D01*
X79074659Y-44900000D01*
X79093975Y-45096129D01*
X79151188Y-45284733D01*
X79244086Y-45458532D01*
X79244090Y-45458539D01*
X79369116Y-45610883D01*
X79521460Y-45735909D01*
X79521467Y-45735913D01*
X79695266Y-45828811D01*
X79695269Y-45828811D01*
X79695273Y-45828814D01*
X79883868Y-45886024D01*
X80080000Y-45905341D01*
X80276132Y-45886024D01*
X80464727Y-45828814D01*
X80638538Y-45735910D01*
X80790883Y-45610883D01*
X80915910Y-45458538D01*
X80989829Y-45320245D01*
X81008811Y-45284733D01*
X81008811Y-45284732D01*
X81008814Y-45284727D01*
X81066024Y-45096132D01*
X81085341Y-44900000D01*
X81614659Y-44900000D01*
X81633975Y-45096129D01*
X81691188Y-45284733D01*
X81784086Y-45458532D01*
X81784090Y-45458539D01*
X81909116Y-45610883D01*
X82061460Y-45735909D01*
X82061467Y-45735913D01*
X82235266Y-45828811D01*
X82235269Y-45828811D01*
X82235273Y-45828814D01*
X82423868Y-45886024D01*
X82620000Y-45905341D01*
X82816132Y-45886024D01*
X83004727Y-45828814D01*
X83178538Y-45735910D01*
X83330883Y-45610883D01*
X83455910Y-45458538D01*
X83529829Y-45320245D01*
X83548811Y-45284733D01*
X83548811Y-45284732D01*
X83548814Y-45284727D01*
X83606024Y-45096132D01*
X83625341Y-44900000D01*
X83606024Y-44703868D01*
X83548814Y-44515273D01*
X83548811Y-44515269D01*
X83548811Y-44515266D01*
X83455913Y-44341467D01*
X83455909Y-44341460D01*
X83330883Y-44189116D01*
X83178539Y-44064090D01*
X83178532Y-44064086D01*
X83004733Y-43971188D01*
X83004727Y-43971186D01*
X82816132Y-43913976D01*
X82816129Y-43913975D01*
X82620000Y-43894659D01*
X82423870Y-43913975D01*
X82235266Y-43971188D01*
X82061467Y-44064086D01*
X82061460Y-44064090D01*
X81909116Y-44189116D01*
X81784090Y-44341460D01*
X81784086Y-44341467D01*
X81691188Y-44515266D01*
X81633975Y-44703870D01*
X81614659Y-44900000D01*
X81085341Y-44900000D01*
X81066024Y-44703868D01*
X81008814Y-44515273D01*
X81008811Y-44515269D01*
X81008811Y-44515266D01*
X80915913Y-44341467D01*
X80915909Y-44341460D01*
X80790883Y-44189116D01*
X80638539Y-44064090D01*
X80638532Y-44064086D01*
X80464733Y-43971188D01*
X80464727Y-43971186D01*
X80276132Y-43913976D01*
X80276129Y-43913975D01*
X80080000Y-43894659D01*
X79883870Y-43913975D01*
X79695266Y-43971188D01*
X79521467Y-44064086D01*
X79521460Y-44064090D01*
X79369116Y-44189116D01*
X79244090Y-44341460D01*
X79244086Y-44341467D01*
X79151188Y-44515266D01*
X79093975Y-44703870D01*
X79074659Y-44900000D01*
X78545341Y-44900000D01*
X78526024Y-44703868D01*
X78468814Y-44515273D01*
X78468811Y-44515269D01*
X78468811Y-44515266D01*
X78375913Y-44341467D01*
X78375909Y-44341460D01*
X78250883Y-44189116D01*
X78098539Y-44064090D01*
X78098532Y-44064086D01*
X77924733Y-43971188D01*
X77924727Y-43971186D01*
X77736132Y-43913976D01*
X77736129Y-43913975D01*
X77540000Y-43894659D01*
X77343870Y-43913975D01*
X77155266Y-43971188D01*
X76981467Y-44064086D01*
X76981460Y-44064090D01*
X76829116Y-44189116D01*
X76704090Y-44341460D01*
X76704086Y-44341467D01*
X76611188Y-44515266D01*
X76553975Y-44703870D01*
X76534659Y-44900000D01*
X76005341Y-44900000D01*
X75986024Y-44703868D01*
X75928814Y-44515273D01*
X75928811Y-44515269D01*
X75928811Y-44515266D01*
X75835913Y-44341467D01*
X75835909Y-44341460D01*
X75710883Y-44189116D01*
X75558539Y-44064090D01*
X75558532Y-44064086D01*
X75384733Y-43971188D01*
X75384727Y-43971186D01*
X75196132Y-43913976D01*
X75196129Y-43913975D01*
X75000000Y-43894659D01*
X74803870Y-43913975D01*
X74615266Y-43971188D01*
X74441467Y-44064086D01*
X74441460Y-44064090D01*
X74289116Y-44189116D01*
X74164090Y-44341460D01*
X74164086Y-44341467D01*
X74071188Y-44515266D01*
X74013975Y-44703870D01*
X73994659Y-44900000D01*
X72960000Y-44900000D01*
X72960000Y-44834174D01*
X72944144Y-44775000D01*
X73553130Y-44775000D01*
X73553130Y-44774999D01*
X73545902Y-44697010D01*
X73545902Y-44697007D01*
X73490116Y-44500936D01*
X73490113Y-44500930D01*
X73399245Y-44318443D01*
X73276391Y-44155757D01*
X73125739Y-44018421D01*
X72952415Y-43911102D01*
X72762321Y-43837460D01*
X72585000Y-43804312D01*
X72585000Y-44415855D01*
X72525826Y-44400000D01*
X72394174Y-44400000D01*
X72335000Y-44415855D01*
X72335000Y-43804312D01*
X72157678Y-43837460D01*
X71967584Y-43911102D01*
X71794260Y-44018421D01*
X71643608Y-44155757D01*
X71520754Y-44318443D01*
X71429886Y-44500930D01*
X71429883Y-44500936D01*
X71374097Y-44697007D01*
X71374097Y-44697010D01*
X71366869Y-44774999D01*
X70913030Y-44774999D01*
X70906024Y-44703868D01*
X70848814Y-44515273D01*
X70848811Y-44515269D01*
X70848811Y-44515266D01*
X70755913Y-44341467D01*
X70755909Y-44341460D01*
X70630883Y-44189116D01*
X70478539Y-44064090D01*
X70478532Y-44064086D01*
X70304733Y-43971188D01*
X70304727Y-43971186D01*
X70116132Y-43913976D01*
X70116129Y-43913975D01*
X69920000Y-43894659D01*
X69723870Y-43913975D01*
X69535266Y-43971188D01*
X69361467Y-44064086D01*
X69361460Y-44064090D01*
X69209116Y-44189116D01*
X69084090Y-44341460D01*
X69084086Y-44341467D01*
X68991188Y-44515266D01*
X68933975Y-44703870D01*
X68914659Y-44900000D01*
X68385341Y-44900000D01*
X68366024Y-44703868D01*
X68308814Y-44515273D01*
X68308811Y-44515269D01*
X68308811Y-44515266D01*
X68215913Y-44341467D01*
X68215909Y-44341460D01*
X68090883Y-44189116D01*
X67938539Y-44064090D01*
X67938532Y-44064086D01*
X67764733Y-43971188D01*
X67764727Y-43971186D01*
X67576132Y-43913976D01*
X67576129Y-43913975D01*
X67380000Y-43894659D01*
X67183870Y-43913975D01*
X66995266Y-43971188D01*
X66821467Y-44064086D01*
X66821460Y-44064090D01*
X66669116Y-44189116D01*
X66544090Y-44341460D01*
X66544086Y-44341467D01*
X66451188Y-44515266D01*
X66393975Y-44703870D01*
X66374659Y-44900000D01*
X65340000Y-44900000D01*
X65340000Y-44834174D01*
X65324144Y-44775000D01*
X65933130Y-44775000D01*
X65933130Y-44774999D01*
X65925902Y-44697010D01*
X65925902Y-44697007D01*
X65870116Y-44500936D01*
X65870113Y-44500930D01*
X65779245Y-44318443D01*
X65656391Y-44155757D01*
X65505739Y-44018421D01*
X65332415Y-43911102D01*
X65142321Y-43837460D01*
X64965000Y-43804312D01*
X64965000Y-44415855D01*
X64905826Y-44400000D01*
X64774174Y-44400000D01*
X64715000Y-44415855D01*
X64715000Y-43804312D01*
X64537678Y-43837460D01*
X64347584Y-43911102D01*
X64174260Y-44018421D01*
X64023608Y-44155757D01*
X63900754Y-44318443D01*
X63809886Y-44500930D01*
X63809883Y-44500936D01*
X63754097Y-44697007D01*
X63754097Y-44697010D01*
X63746869Y-44774999D01*
X63293030Y-44774999D01*
X63286024Y-44703868D01*
X63228814Y-44515273D01*
X63228811Y-44515269D01*
X63228811Y-44515266D01*
X63135913Y-44341467D01*
X63135909Y-44341460D01*
X63010883Y-44189116D01*
X62858539Y-44064090D01*
X62858532Y-44064086D01*
X62684733Y-43971188D01*
X62684727Y-43971186D01*
X62496132Y-43913976D01*
X62496129Y-43913975D01*
X62300000Y-43894659D01*
X62103870Y-43913975D01*
X61915266Y-43971188D01*
X61741467Y-44064086D01*
X61741460Y-44064090D01*
X61589116Y-44189116D01*
X61464090Y-44341460D01*
X61464086Y-44341467D01*
X61371188Y-44515266D01*
X61313975Y-44703870D01*
X61294659Y-44900000D01*
X60765341Y-44900000D01*
X60746024Y-44703868D01*
X60688814Y-44515273D01*
X60688811Y-44515269D01*
X60688811Y-44515266D01*
X60595913Y-44341467D01*
X60595909Y-44341460D01*
X60470883Y-44189116D01*
X60318539Y-44064090D01*
X60318532Y-44064086D01*
X60144733Y-43971188D01*
X60144727Y-43971186D01*
X59956132Y-43913976D01*
X59956129Y-43913975D01*
X59760000Y-43894659D01*
X59563870Y-43913975D01*
X59375266Y-43971188D01*
X59201467Y-44064086D01*
X59201460Y-44064090D01*
X59049116Y-44189116D01*
X58924090Y-44341460D01*
X58924086Y-44341467D01*
X58831188Y-44515266D01*
X58773975Y-44703870D01*
X58754659Y-44900000D01*
X57720000Y-44900000D01*
X57720000Y-44834174D01*
X57704144Y-44775000D01*
X58313130Y-44775000D01*
X58313130Y-44774999D01*
X58305902Y-44697010D01*
X58305902Y-44697007D01*
X58250116Y-44500936D01*
X58250113Y-44500930D01*
X58159245Y-44318443D01*
X58036391Y-44155757D01*
X57885739Y-44018421D01*
X57712415Y-43911102D01*
X57522321Y-43837460D01*
X57345000Y-43804312D01*
X57345000Y-44415855D01*
X57285826Y-44400000D01*
X57154174Y-44400000D01*
X57095000Y-44415855D01*
X57095000Y-43804312D01*
X56917678Y-43837460D01*
X56727584Y-43911102D01*
X56554260Y-44018421D01*
X56403608Y-44155757D01*
X56280754Y-44318443D01*
X56189886Y-44500930D01*
X56189883Y-44500936D01*
X56134097Y-44697007D01*
X56134097Y-44697010D01*
X56126869Y-44774999D01*
X55673030Y-44774999D01*
X55666024Y-44703868D01*
X55608814Y-44515273D01*
X55608811Y-44515269D01*
X55608811Y-44515266D01*
X55515913Y-44341467D01*
X55515909Y-44341460D01*
X55390883Y-44189116D01*
X55238539Y-44064090D01*
X55238532Y-44064086D01*
X55064733Y-43971188D01*
X55064727Y-43971186D01*
X54876132Y-43913976D01*
X54876129Y-43913975D01*
X54680000Y-43894659D01*
X54483870Y-43913975D01*
X54295266Y-43971188D01*
X54121467Y-44064086D01*
X54121460Y-44064090D01*
X53969116Y-44189116D01*
X53844090Y-44341460D01*
X53844086Y-44341467D01*
X53751188Y-44515266D01*
X53693975Y-44703870D01*
X53674659Y-44900000D01*
X53145341Y-44900000D01*
X53126024Y-44703868D01*
X53068814Y-44515273D01*
X53068811Y-44515269D01*
X53068811Y-44515266D01*
X52975913Y-44341467D01*
X52975909Y-44341460D01*
X52850883Y-44189116D01*
X52698539Y-44064090D01*
X52698532Y-44064086D01*
X52524733Y-43971188D01*
X52524727Y-43971186D01*
X52336132Y-43913976D01*
X52336129Y-43913975D01*
X52140000Y-43894659D01*
X51943870Y-43913975D01*
X51755266Y-43971188D01*
X51581467Y-44064086D01*
X51581460Y-44064090D01*
X51429116Y-44189116D01*
X51304090Y-44341460D01*
X51304086Y-44341467D01*
X51211188Y-44515266D01*
X51153975Y-44703870D01*
X51134659Y-44900000D01*
X50605341Y-44900000D01*
X50586024Y-44703868D01*
X50528814Y-44515273D01*
X50528811Y-44515269D01*
X50528811Y-44515266D01*
X50435913Y-44341467D01*
X50435909Y-44341460D01*
X50310883Y-44189116D01*
X50158539Y-44064090D01*
X50158532Y-44064086D01*
X49984733Y-43971188D01*
X49984727Y-43971186D01*
X49796132Y-43913976D01*
X49796129Y-43913975D01*
X49600000Y-43894659D01*
X49403870Y-43913975D01*
X49215266Y-43971188D01*
X49041467Y-44064086D01*
X49041460Y-44064090D01*
X48889116Y-44189116D01*
X48764090Y-44341460D01*
X48764086Y-44341467D01*
X48671188Y-44515266D01*
X48613975Y-44703870D01*
X48594659Y-44900000D01*
X46845661Y-44900000D01*
X46752288Y-44674575D01*
X46752286Y-44674571D01*
X46586577Y-44374744D01*
X46388339Y-44095353D01*
X46243498Y-43933278D01*
X45219759Y-44957017D01*
X45042982Y-44780240D01*
X46066721Y-43756501D01*
X46066720Y-43756500D01*
X45904646Y-43611660D01*
X45625255Y-43413422D01*
X45325428Y-43247713D01*
X45325424Y-43247711D01*
X45008935Y-43116619D01*
X44679762Y-43021785D01*
X44679754Y-43021783D01*
X44342037Y-42964403D01*
X44342025Y-42964401D01*
X44000000Y-42945194D01*
X43657974Y-42964401D01*
X43657962Y-42964403D01*
X43320245Y-43021783D01*
X43320237Y-43021785D01*
X42991064Y-43116619D01*
X42674575Y-43247711D01*
X42674571Y-43247713D01*
X42374744Y-43413422D01*
X42095358Y-43611657D01*
X41933278Y-43756501D01*
X42957017Y-44780240D01*
X42780240Y-44957017D01*
X41756501Y-43933278D01*
X41611657Y-44095358D01*
X41413422Y-44374744D01*
X41247713Y-44674571D01*
X41247711Y-44674575D01*
X41116619Y-44991064D01*
X41021785Y-45320237D01*
X41021783Y-45320245D01*
X40964403Y-45657962D01*
X40964401Y-45657974D01*
X40945194Y-46000000D01*
X40500500Y-46000000D01*
X40500500Y-41349997D01*
X76895131Y-41349997D01*
X76895131Y-41350002D01*
X76912498Y-41459658D01*
X76962904Y-41558585D01*
X76962909Y-41558592D01*
X77041407Y-41637090D01*
X77041410Y-41637092D01*
X77041413Y-41637095D01*
X77140339Y-41687500D01*
X77140341Y-41687501D01*
X77249998Y-41704869D01*
X77250000Y-41704869D01*
X77250002Y-41704869D01*
X77359658Y-41687501D01*
X77359659Y-41687500D01*
X77359661Y-41687500D01*
X77458587Y-41637095D01*
X77537095Y-41558587D01*
X77587500Y-41459661D01*
X77587500Y-41459659D01*
X77587501Y-41459658D01*
X77604869Y-41350002D01*
X77604869Y-41340240D01*
X77606371Y-41340240D01*
X77613952Y-41281548D01*
X77639790Y-41243758D01*
X79081790Y-39801758D01*
X79143111Y-39768275D01*
X79188868Y-39766968D01*
X79221963Y-39772210D01*
X79221965Y-39772210D01*
X79331621Y-39754842D01*
X79331622Y-39754841D01*
X79331624Y-39754841D01*
X79430550Y-39704436D01*
X79509058Y-39625928D01*
X79559463Y-39527002D01*
X79559463Y-39527000D01*
X79559464Y-39526999D01*
X79576832Y-39417343D01*
X79576832Y-39417336D01*
X79571563Y-39384071D01*
X94719499Y-39384071D01*
X94744497Y-39509738D01*
X94744499Y-39509744D01*
X94793533Y-39628124D01*
X94793538Y-39628133D01*
X94864723Y-39734668D01*
X94864726Y-39734672D01*
X94955327Y-39825273D01*
X94955331Y-39825276D01*
X95061866Y-39896461D01*
X95061872Y-39896464D01*
X95061873Y-39896465D01*
X95180256Y-39945501D01*
X95180260Y-39945501D01*
X95180261Y-39945502D01*
X95305928Y-39970500D01*
X95305931Y-39970500D01*
X96534071Y-39970500D01*
X96618615Y-39953682D01*
X96659744Y-39945501D01*
X96778127Y-39896465D01*
X96884669Y-39825276D01*
X96975276Y-39734669D01*
X97046465Y-39628127D01*
X97095501Y-39509744D01*
X97114764Y-39412904D01*
X97120500Y-39384071D01*
X97120500Y-39255928D01*
X97095502Y-39130261D01*
X97095501Y-39130260D01*
X97095501Y-39130256D01*
X97046465Y-39011873D01*
X97046464Y-39011872D01*
X97046461Y-39011866D01*
X96975276Y-38905331D01*
X96975273Y-38905327D01*
X96884672Y-38814726D01*
X96884668Y-38814723D01*
X96778133Y-38743538D01*
X96778124Y-38743533D01*
X96659744Y-38694499D01*
X96659738Y-38694497D01*
X96534071Y-38669500D01*
X96534069Y-38669500D01*
X95305931Y-38669500D01*
X95305929Y-38669500D01*
X95180261Y-38694497D01*
X95180255Y-38694499D01*
X95061875Y-38743533D01*
X95061866Y-38743538D01*
X94955331Y-38814723D01*
X94955327Y-38814726D01*
X94864726Y-38905327D01*
X94864723Y-38905331D01*
X94793538Y-39011866D01*
X94793533Y-39011875D01*
X94744499Y-39130255D01*
X94744497Y-39130261D01*
X94719500Y-39255928D01*
X94719500Y-39255931D01*
X94719500Y-39384069D01*
X94719500Y-39384071D01*
X94719499Y-39384071D01*
X79571563Y-39384071D01*
X79559464Y-39307682D01*
X79550321Y-39289738D01*
X79509058Y-39208754D01*
X79509055Y-39208751D01*
X79509053Y-39208748D01*
X79430555Y-39130250D01*
X79430551Y-39130247D01*
X79430550Y-39130246D01*
X79394385Y-39111819D01*
X79331621Y-39079839D01*
X79221965Y-39062472D01*
X79221961Y-39062472D01*
X79112304Y-39079839D01*
X79013377Y-39130245D01*
X79013370Y-39130250D01*
X78934872Y-39208748D01*
X78934867Y-39208755D01*
X78884462Y-39307682D01*
X78867371Y-39415587D01*
X78837441Y-39478721D01*
X78832579Y-39483869D01*
X77356242Y-40960206D01*
X77294919Y-40993691D01*
X77259759Y-40994696D01*
X77259759Y-40995131D01*
X77249998Y-40995131D01*
X77140341Y-41012498D01*
X77041414Y-41062904D01*
X77041407Y-41062909D01*
X76962909Y-41141407D01*
X76962904Y-41141414D01*
X76912498Y-41240341D01*
X76895131Y-41349997D01*
X40500500Y-41349997D01*
X40500500Y-39349997D01*
X63347643Y-39349997D01*
X63347643Y-39350002D01*
X63365010Y-39459658D01*
X63415416Y-39558585D01*
X63415421Y-39558592D01*
X63493919Y-39637090D01*
X63493922Y-39637092D01*
X63493925Y-39637095D01*
X63589291Y-39685686D01*
X63592853Y-39687501D01*
X63702510Y-39704869D01*
X63702512Y-39704869D01*
X63702514Y-39704869D01*
X63812170Y-39687501D01*
X63812171Y-39687500D01*
X63812173Y-39687500D01*
X63911099Y-39637095D01*
X63922268Y-39625926D01*
X63961376Y-39586819D01*
X64022699Y-39553334D01*
X64049057Y-39550500D01*
X64532009Y-39550500D01*
X64599048Y-39570185D01*
X64619690Y-39586819D01*
X64626627Y-39593756D01*
X64660112Y-39655079D01*
X64661118Y-39690242D01*
X64661552Y-39690242D01*
X64661552Y-39700002D01*
X64678919Y-39809658D01*
X64729325Y-39908585D01*
X64729330Y-39908592D01*
X64807828Y-39987090D01*
X64807831Y-39987092D01*
X64807834Y-39987095D01*
X64906760Y-40037500D01*
X64906762Y-40037501D01*
X65016419Y-40054869D01*
X65016421Y-40054869D01*
X65016423Y-40054869D01*
X65126079Y-40037501D01*
X65126080Y-40037500D01*
X65126082Y-40037500D01*
X65225008Y-39987095D01*
X65303516Y-39908587D01*
X65353921Y-39809661D01*
X65353921Y-39809659D01*
X65353922Y-39809658D01*
X65371290Y-39700002D01*
X65371290Y-39699997D01*
X65352395Y-39580700D01*
X65354763Y-39580324D01*
X65353156Y-39524313D01*
X65358454Y-39515523D01*
X65345721Y-39515069D01*
X65297200Y-39485096D01*
X65225013Y-39412909D01*
X65225009Y-39412906D01*
X65225008Y-39412905D01*
X65168414Y-39384069D01*
X65126079Y-39362498D01*
X65016424Y-39345131D01*
X65006663Y-39345131D01*
X65006663Y-39343631D01*
X64947955Y-39336040D01*
X64910177Y-39310206D01*
X64779995Y-39180024D01*
X64741481Y-39164071D01*
X65449499Y-39164071D01*
X65474497Y-39289738D01*
X65474500Y-39289748D01*
X65499442Y-39349963D01*
X65506911Y-39419432D01*
X65497202Y-39438827D01*
X65521341Y-39441594D01*
X65575435Y-39485816D01*
X65576188Y-39486928D01*
X65594726Y-39514672D01*
X65685327Y-39605273D01*
X65685331Y-39605276D01*
X65791866Y-39676461D01*
X65791872Y-39676464D01*
X65791873Y-39676465D01*
X65910256Y-39725501D01*
X65910260Y-39725501D01*
X65910261Y-39725502D01*
X66035928Y-39750500D01*
X66035931Y-39750500D01*
X66964071Y-39750500D01*
X67048615Y-39733682D01*
X67089744Y-39725501D01*
X67208127Y-39676465D01*
X67314669Y-39605276D01*
X67405276Y-39514669D01*
X67476465Y-39408127D01*
X67525501Y-39289744D01*
X67541611Y-39208755D01*
X67550500Y-39164071D01*
X67550500Y-39035928D01*
X67525502Y-38910261D01*
X67525501Y-38910260D01*
X67525501Y-38910256D01*
X67476465Y-38791873D01*
X67476464Y-38791872D01*
X67476461Y-38791866D01*
X67405276Y-38685331D01*
X67405273Y-38685327D01*
X67314672Y-38594726D01*
X67314668Y-38594723D01*
X67208133Y-38523538D01*
X67208124Y-38523533D01*
X67089744Y-38474499D01*
X67089738Y-38474497D01*
X66964071Y-38449500D01*
X66964069Y-38449500D01*
X66035931Y-38449500D01*
X66035929Y-38449500D01*
X65910261Y-38474497D01*
X65910255Y-38474499D01*
X65791875Y-38523533D01*
X65791866Y-38523538D01*
X65685331Y-38594723D01*
X65685327Y-38594726D01*
X65594726Y-38685327D01*
X65594723Y-38685331D01*
X65523538Y-38791866D01*
X65523533Y-38791875D01*
X65474499Y-38910255D01*
X65474497Y-38910261D01*
X65449500Y-39035928D01*
X65449500Y-39035931D01*
X65449500Y-39164069D01*
X65449500Y-39164071D01*
X65449499Y-39164071D01*
X64741481Y-39164071D01*
X64706304Y-39149500D01*
X64706303Y-39149500D01*
X64049057Y-39149500D01*
X63982018Y-39129815D01*
X63961376Y-39113181D01*
X63911104Y-39062909D01*
X63911100Y-39062906D01*
X63911099Y-39062905D01*
X63907255Y-39060946D01*
X63812170Y-39012498D01*
X63702514Y-38995131D01*
X63702510Y-38995131D01*
X63592853Y-39012498D01*
X63493926Y-39062904D01*
X63493919Y-39062909D01*
X63415421Y-39141407D01*
X63415416Y-39141414D01*
X63365010Y-39240341D01*
X63347643Y-39349997D01*
X40500500Y-39349997D01*
X40500500Y-38874997D01*
X49245131Y-38874997D01*
X49245131Y-38875002D01*
X49262498Y-38984658D01*
X49312904Y-39083585D01*
X49312909Y-39083592D01*
X49391407Y-39162090D01*
X49391410Y-39162092D01*
X49391413Y-39162095D01*
X49440469Y-39187090D01*
X49490341Y-39212501D01*
X49599998Y-39229869D01*
X49600000Y-39229869D01*
X49600002Y-39229869D01*
X49709658Y-39212501D01*
X49709659Y-39212500D01*
X49709661Y-39212500D01*
X49808587Y-39162095D01*
X49829275Y-39141407D01*
X49858864Y-39111819D01*
X49920187Y-39078334D01*
X49946545Y-39075500D01*
X50128455Y-39075500D01*
X50195494Y-39095185D01*
X50216136Y-39111819D01*
X50291407Y-39187090D01*
X50291410Y-39187092D01*
X50291413Y-39187095D01*
X50375362Y-39229869D01*
X50390341Y-39237501D01*
X50499998Y-39254869D01*
X50500000Y-39254869D01*
X50500002Y-39254869D01*
X50609658Y-39237501D01*
X50609659Y-39237500D01*
X50609661Y-39237500D01*
X50708587Y-39187095D01*
X50787095Y-39108587D01*
X50837500Y-39009661D01*
X50837500Y-39009659D01*
X50837501Y-39009658D01*
X50854869Y-38900002D01*
X50854869Y-38899997D01*
X50837501Y-38790341D01*
X50788666Y-38694497D01*
X50787095Y-38691413D01*
X50787092Y-38691410D01*
X50787090Y-38691407D01*
X50708592Y-38612909D01*
X50708588Y-38612906D01*
X50708587Y-38612905D01*
X50704743Y-38610946D01*
X50609658Y-38562498D01*
X50500002Y-38545131D01*
X50499998Y-38545131D01*
X50390341Y-38562498D01*
X50291414Y-38612904D01*
X50291407Y-38612909D01*
X50266136Y-38638181D01*
X50204813Y-38671666D01*
X50178455Y-38674500D01*
X49946545Y-38674500D01*
X49879506Y-38654815D01*
X49858864Y-38638181D01*
X49808592Y-38587909D01*
X49808588Y-38587906D01*
X49808587Y-38587905D01*
X49750939Y-38558532D01*
X49709658Y-38537498D01*
X49600002Y-38520131D01*
X49599998Y-38520131D01*
X49490341Y-38537498D01*
X49391414Y-38587904D01*
X49391407Y-38587909D01*
X49312909Y-38666407D01*
X49312904Y-38666414D01*
X49262498Y-38765341D01*
X49245131Y-38874997D01*
X40500500Y-38874997D01*
X40500500Y-38000000D01*
X55474659Y-38000000D01*
X55493975Y-38196129D01*
X55551188Y-38384733D01*
X55644086Y-38558532D01*
X55644090Y-38558539D01*
X55769116Y-38710883D01*
X55921460Y-38835909D01*
X55921467Y-38835913D01*
X56095266Y-38928811D01*
X56095269Y-38928811D01*
X56095273Y-38928814D01*
X56283868Y-38986024D01*
X56480000Y-39005341D01*
X56676132Y-38986024D01*
X56864727Y-38928814D01*
X56899449Y-38910255D01*
X56965411Y-38874997D01*
X56984447Y-38864822D01*
X58019499Y-38864822D01*
X58028231Y-38908717D01*
X58028232Y-38908721D01*
X58028233Y-38908722D01*
X58061496Y-38958504D01*
X58111278Y-38991767D01*
X58111281Y-38991767D01*
X58111282Y-38991768D01*
X58155177Y-39000500D01*
X58155180Y-39000500D01*
X59884822Y-39000500D01*
X59928717Y-38991768D01*
X59928717Y-38991767D01*
X59928722Y-38991767D01*
X59978504Y-38958504D01*
X60011767Y-38908722D01*
X60020500Y-38864820D01*
X60020500Y-37833982D01*
X96024500Y-37833982D01*
X96024500Y-37946018D01*
X96053497Y-38054237D01*
X96109515Y-38151263D01*
X96188737Y-38230485D01*
X96285763Y-38286503D01*
X96393982Y-38315500D01*
X96393984Y-38315500D01*
X96506016Y-38315500D01*
X96506018Y-38315500D01*
X96614237Y-38286503D01*
X96711263Y-38230485D01*
X96790485Y-38151263D01*
X96846503Y-38054237D01*
X96875500Y-37946018D01*
X96875500Y-37833982D01*
X96846503Y-37725763D01*
X96790485Y-37628737D01*
X96711263Y-37549515D01*
X96614237Y-37493497D01*
X96506018Y-37464500D01*
X96393982Y-37464500D01*
X96285763Y-37493497D01*
X96285760Y-37493498D01*
X96188740Y-37549513D01*
X96188734Y-37549517D01*
X96109517Y-37628734D01*
X96109513Y-37628740D01*
X96053498Y-37725760D01*
X96053497Y-37725763D01*
X96024500Y-37833982D01*
X60020500Y-37833982D01*
X60020500Y-37514822D01*
X68949499Y-37514822D01*
X68958231Y-37558717D01*
X68958232Y-37558721D01*
X68958233Y-37558722D01*
X68991496Y-37608504D01*
X69041278Y-37641767D01*
X69041281Y-37641767D01*
X69041282Y-37641768D01*
X69085177Y-37650500D01*
X69085180Y-37650500D01*
X70114822Y-37650500D01*
X70158717Y-37641768D01*
X70158717Y-37641767D01*
X70158722Y-37641767D01*
X70208504Y-37608504D01*
X70241767Y-37558722D01*
X70243598Y-37549517D01*
X70250500Y-37514822D01*
X70250500Y-36485177D01*
X70241768Y-36441282D01*
X70241767Y-36441281D01*
X70241767Y-36441278D01*
X70208504Y-36391496D01*
X70183816Y-36375000D01*
X70158724Y-36358234D01*
X70158717Y-36358231D01*
X70114822Y-36349500D01*
X70114820Y-36349500D01*
X69085180Y-36349500D01*
X69085178Y-36349500D01*
X69041282Y-36358231D01*
X69041275Y-36358234D01*
X68991496Y-36391495D01*
X68991495Y-36391496D01*
X68958234Y-36441275D01*
X68958231Y-36441282D01*
X68949500Y-36485177D01*
X68949500Y-36485180D01*
X68949500Y-37514820D01*
X68949500Y-37514822D01*
X68949499Y-37514822D01*
X60020500Y-37514822D01*
X60020500Y-37135180D01*
X60020500Y-37135177D01*
X60011768Y-37091282D01*
X60011767Y-37091281D01*
X60011767Y-37091278D01*
X59978504Y-37041496D01*
X59978503Y-37041495D01*
X59928724Y-37008234D01*
X59928717Y-37008231D01*
X59884822Y-36999500D01*
X59884820Y-36999500D01*
X58155180Y-36999500D01*
X58155178Y-36999500D01*
X58111282Y-37008231D01*
X58111275Y-37008234D01*
X58061496Y-37041495D01*
X58061495Y-37041496D01*
X58028234Y-37091275D01*
X58028231Y-37091282D01*
X58019500Y-37135177D01*
X58019500Y-37135180D01*
X58019500Y-38864820D01*
X58019500Y-38864822D01*
X58019499Y-38864822D01*
X56984447Y-38864822D01*
X57038538Y-38835910D01*
X57190883Y-38710883D01*
X57315910Y-38558538D01*
X57408814Y-38384727D01*
X57466024Y-38196132D01*
X57485341Y-38000000D01*
X57466024Y-37803868D01*
X57408814Y-37615273D01*
X57408811Y-37615269D01*
X57408811Y-37615266D01*
X57315913Y-37441467D01*
X57315909Y-37441460D01*
X57190883Y-37289116D01*
X57038539Y-37164090D01*
X57038532Y-37164086D01*
X56864733Y-37071188D01*
X56864727Y-37071186D01*
X56676132Y-37013976D01*
X56676129Y-37013975D01*
X56480000Y-36994659D01*
X56283870Y-37013975D01*
X56095266Y-37071188D01*
X55921467Y-37164086D01*
X55921460Y-37164090D01*
X55769116Y-37289116D01*
X55644090Y-37441460D01*
X55644086Y-37441467D01*
X55551188Y-37615266D01*
X55493975Y-37803870D01*
X55474659Y-38000000D01*
X40500500Y-38000000D01*
X40500500Y-36333442D01*
X44050550Y-36333442D01*
X44050550Y-36333447D01*
X44067917Y-36443103D01*
X44118323Y-36542030D01*
X44118328Y-36542037D01*
X44196826Y-36620535D01*
X44196829Y-36620537D01*
X44196832Y-36620540D01*
X44270126Y-36657885D01*
X44295760Y-36670946D01*
X44405417Y-36688314D01*
X44405419Y-36688314D01*
X44405421Y-36688314D01*
X44515077Y-36670946D01*
X44515078Y-36670945D01*
X44515080Y-36670945D01*
X44614006Y-36620540D01*
X44614011Y-36620535D01*
X44622728Y-36611819D01*
X44684051Y-36578334D01*
X44710409Y-36575500D01*
X46708450Y-36575500D01*
X46775489Y-36595185D01*
X46796131Y-36611819D01*
X46846402Y-36662090D01*
X46846405Y-36662092D01*
X46846408Y-36662095D01*
X46945334Y-36712500D01*
X46945336Y-36712501D01*
X47054993Y-36729869D01*
X47054995Y-36729869D01*
X47054997Y-36729869D01*
X47164653Y-36712501D01*
X47164654Y-36712500D01*
X47164656Y-36712500D01*
X47263582Y-36662095D01*
X47342090Y-36583587D01*
X47392495Y-36484661D01*
X47392495Y-36484659D01*
X47392496Y-36484658D01*
X47409864Y-36375002D01*
X47409864Y-36374997D01*
X47392496Y-36265341D01*
X47371322Y-36223784D01*
X47342090Y-36166413D01*
X47342087Y-36166410D01*
X47342085Y-36166407D01*
X47261590Y-36085912D01*
X47228105Y-36024589D01*
X47229864Y-35999997D01*
X64020131Y-35999997D01*
X64020131Y-36000002D01*
X64037498Y-36109658D01*
X64060377Y-36154560D01*
X64087905Y-36208587D01*
X64087909Y-36208591D01*
X64138180Y-36258862D01*
X64171666Y-36320185D01*
X64174500Y-36346544D01*
X64174500Y-36772132D01*
X64160986Y-36828424D01*
X64157473Y-36835317D01*
X64140106Y-36944973D01*
X64140106Y-36944978D01*
X64157473Y-37054634D01*
X64207879Y-37153561D01*
X64207884Y-37153568D01*
X64286382Y-37232066D01*
X64286385Y-37232068D01*
X64286388Y-37232071D01*
X64385314Y-37282476D01*
X64385316Y-37282477D01*
X64494973Y-37299845D01*
X64494975Y-37299845D01*
X64494977Y-37299845D01*
X64604633Y-37282477D01*
X64604634Y-37282476D01*
X64604636Y-37282476D01*
X64703562Y-37232071D01*
X64782070Y-37153563D01*
X64832475Y-37054637D01*
X64832475Y-37054635D01*
X64832476Y-37054634D01*
X64849844Y-36944978D01*
X64849844Y-36944973D01*
X64832476Y-36835317D01*
X64800282Y-36772132D01*
X64782070Y-36736389D01*
X64782067Y-36736386D01*
X64782065Y-36736383D01*
X64703567Y-36657885D01*
X64703564Y-36657883D01*
X64703562Y-36657881D01*
X64643204Y-36627127D01*
X64592409Y-36579153D01*
X64575500Y-36516643D01*
X64575500Y-36346544D01*
X64595185Y-36279505D01*
X64611820Y-36258862D01*
X64662095Y-36208587D01*
X64712500Y-36109661D01*
X64712500Y-36109659D01*
X64712501Y-36109658D01*
X64729869Y-36000002D01*
X64729869Y-35999997D01*
X64712501Y-35890341D01*
X64704683Y-35874997D01*
X64662095Y-35791413D01*
X64662092Y-35791410D01*
X64662090Y-35791407D01*
X64634754Y-35764071D01*
X79549499Y-35764071D01*
X79574497Y-35889738D01*
X79574499Y-35889744D01*
X79623533Y-36008124D01*
X79623538Y-36008133D01*
X79694723Y-36114668D01*
X79694726Y-36114672D01*
X79785327Y-36205273D01*
X79785331Y-36205276D01*
X79891866Y-36276461D01*
X79891872Y-36276464D01*
X79891873Y-36276465D01*
X80010256Y-36325501D01*
X80010260Y-36325501D01*
X80010261Y-36325502D01*
X80135928Y-36350500D01*
X80135931Y-36350500D01*
X82264071Y-36350500D01*
X82349823Y-36333442D01*
X82389744Y-36325501D01*
X82508127Y-36276465D01*
X82614669Y-36205276D01*
X82705276Y-36114669D01*
X82776465Y-36008127D01*
X82825501Y-35889744D01*
X82850247Y-35765341D01*
X82850500Y-35764071D01*
X82850500Y-35635928D01*
X82825502Y-35510261D01*
X82825501Y-35510260D01*
X82825501Y-35510256D01*
X82782017Y-35405276D01*
X82776466Y-35391875D01*
X82776461Y-35391866D01*
X82705276Y-35285331D01*
X82705273Y-35285327D01*
X82614672Y-35194726D01*
X82614668Y-35194723D01*
X82508133Y-35123538D01*
X82508124Y-35123533D01*
X82389744Y-35074499D01*
X82389738Y-35074497D01*
X82264071Y-35049500D01*
X82264069Y-35049500D01*
X80135931Y-35049500D01*
X80135929Y-35049500D01*
X80010261Y-35074497D01*
X80010255Y-35074499D01*
X79891875Y-35123533D01*
X79891866Y-35123538D01*
X79785331Y-35194723D01*
X79785327Y-35194726D01*
X79694726Y-35285327D01*
X79694723Y-35285331D01*
X79623538Y-35391866D01*
X79623533Y-35391875D01*
X79574499Y-35510255D01*
X79574497Y-35510261D01*
X79549500Y-35635928D01*
X79549500Y-35635931D01*
X79549500Y-35764069D01*
X79549500Y-35764071D01*
X79549499Y-35764071D01*
X64634754Y-35764071D01*
X64583592Y-35712909D01*
X64583588Y-35712906D01*
X64583587Y-35712905D01*
X64579743Y-35710946D01*
X64484658Y-35662498D01*
X64375002Y-35645131D01*
X64374998Y-35645131D01*
X64265341Y-35662498D01*
X64166414Y-35712904D01*
X64166407Y-35712909D01*
X64087909Y-35791407D01*
X64087904Y-35791414D01*
X64037498Y-35890341D01*
X64020131Y-35999997D01*
X47229864Y-35999997D01*
X47233089Y-35954897D01*
X47238781Y-35941949D01*
X47242495Y-35934660D01*
X47251944Y-35875002D01*
X47259864Y-35825001D01*
X47259864Y-35824996D01*
X47242496Y-35715340D01*
X47217567Y-35666414D01*
X47192090Y-35616412D01*
X47192087Y-35616409D01*
X47192085Y-35616406D01*
X47113587Y-35537908D01*
X47113583Y-35537905D01*
X47113582Y-35537904D01*
X47089238Y-35525500D01*
X47014653Y-35487497D01*
X46904997Y-35470130D01*
X46904993Y-35470130D01*
X46795336Y-35487497D01*
X46696409Y-35537903D01*
X46696406Y-35537905D01*
X46617899Y-35616413D01*
X46612831Y-35623389D01*
X46557499Y-35666053D01*
X46512515Y-35674500D01*
X44951540Y-35674500D01*
X44884501Y-35654815D01*
X44863859Y-35638181D01*
X44813587Y-35587909D01*
X44813583Y-35587906D01*
X44813582Y-35587905D01*
X44809738Y-35585946D01*
X44714653Y-35537498D01*
X44604997Y-35520131D01*
X44604993Y-35520131D01*
X44495336Y-35537498D01*
X44396409Y-35587904D01*
X44396402Y-35587909D01*
X44317904Y-35666407D01*
X44317899Y-35666414D01*
X44267493Y-35765341D01*
X44250126Y-35874997D01*
X44250126Y-35875002D01*
X44257165Y-35919445D01*
X44248210Y-35988739D01*
X44204640Y-36040496D01*
X44204726Y-36040614D01*
X44204251Y-36040959D01*
X44203214Y-36042191D01*
X44199864Y-36044146D01*
X44196831Y-36046350D01*
X44118328Y-36124852D01*
X44118323Y-36124859D01*
X44067917Y-36223786D01*
X44050550Y-36333442D01*
X40500500Y-36333442D01*
X40500500Y-34274997D01*
X43950126Y-34274997D01*
X43950126Y-34275002D01*
X43967493Y-34384658D01*
X44010318Y-34468706D01*
X44023214Y-34537375D01*
X44010318Y-34581294D01*
X43967493Y-34665341D01*
X43950126Y-34774997D01*
X43950126Y-34775002D01*
X43967493Y-34884658D01*
X44017899Y-34983585D01*
X44017904Y-34983592D01*
X44096402Y-35062090D01*
X44096405Y-35062092D01*
X44096408Y-35062095D01*
X44150661Y-35089738D01*
X44195336Y-35112501D01*
X44304993Y-35129869D01*
X44304995Y-35129869D01*
X44304997Y-35129869D01*
X44414653Y-35112501D01*
X44414654Y-35112500D01*
X44414656Y-35112500D01*
X44513582Y-35062095D01*
X44526177Y-35049500D01*
X44563859Y-35011819D01*
X44625182Y-34978334D01*
X44651540Y-34975500D01*
X46508450Y-34975500D01*
X46575489Y-34995185D01*
X46596131Y-35011819D01*
X46646402Y-35062090D01*
X46646405Y-35062092D01*
X46646408Y-35062095D01*
X46700661Y-35089738D01*
X46745336Y-35112501D01*
X46854993Y-35129869D01*
X46854995Y-35129869D01*
X46854997Y-35129869D01*
X46964653Y-35112501D01*
X46964654Y-35112500D01*
X46964656Y-35112500D01*
X47063582Y-35062095D01*
X47142090Y-34983587D01*
X47192495Y-34884661D01*
X47192495Y-34884659D01*
X47192496Y-34884658D01*
X47209864Y-34775002D01*
X47209864Y-34774997D01*
X47192496Y-34665343D01*
X47192495Y-34665341D01*
X47192495Y-34665339D01*
X47149670Y-34581289D01*
X47136775Y-34512626D01*
X47149668Y-34468712D01*
X47192495Y-34384661D01*
X47199366Y-34341282D01*
X47209864Y-34275002D01*
X47209864Y-34274997D01*
X47192496Y-34165341D01*
X47163344Y-34108127D01*
X47142090Y-34066413D01*
X47142087Y-34066410D01*
X47142085Y-34066407D01*
X47063587Y-33987909D01*
X47063583Y-33987906D01*
X47063582Y-33987905D01*
X47016801Y-33964069D01*
X46964653Y-33937498D01*
X46854997Y-33920131D01*
X46854993Y-33920131D01*
X46745336Y-33937498D01*
X46646409Y-33987904D01*
X46646402Y-33987909D01*
X46596131Y-34038181D01*
X46534808Y-34071666D01*
X46508450Y-34074500D01*
X44651540Y-34074500D01*
X44584501Y-34054815D01*
X44563859Y-34038181D01*
X44513587Y-33987909D01*
X44513583Y-33987906D01*
X44513582Y-33987905D01*
X44466801Y-33964069D01*
X44414653Y-33937498D01*
X44304997Y-33920131D01*
X44304993Y-33920131D01*
X44195336Y-33937498D01*
X44096409Y-33987904D01*
X44096402Y-33987909D01*
X44017904Y-34066407D01*
X44017899Y-34066414D01*
X43967493Y-34165341D01*
X43950126Y-34274997D01*
X40500500Y-34274997D01*
X40500500Y-32574997D01*
X43950126Y-32574997D01*
X43950126Y-32575002D01*
X43967493Y-32684658D01*
X44017899Y-32783585D01*
X44017904Y-32783592D01*
X44096402Y-32862090D01*
X44096408Y-32862095D01*
X44113776Y-32870944D01*
X44164572Y-32918918D01*
X44181368Y-32986738D01*
X44170190Y-33029270D01*
X44170509Y-33029374D01*
X44168699Y-33034942D01*
X44167970Y-33037718D01*
X44167493Y-33038652D01*
X44150126Y-33148308D01*
X44150126Y-33148311D01*
X44167493Y-33257969D01*
X44191321Y-33304733D01*
X44217899Y-33356897D01*
X44217904Y-33356903D01*
X44296402Y-33435401D01*
X44296405Y-33435403D01*
X44296408Y-33435406D01*
X44381048Y-33478532D01*
X44395336Y-33485812D01*
X44504993Y-33503180D01*
X44504995Y-33503180D01*
X44504997Y-33503180D01*
X44614653Y-33485812D01*
X44614654Y-33485811D01*
X44614656Y-33485811D01*
X44713582Y-33435406D01*
X44792090Y-33356898D01*
X44799066Y-33343205D01*
X44847040Y-33292410D01*
X44909551Y-33275500D01*
X46508450Y-33275500D01*
X46575489Y-33295185D01*
X46596131Y-33311819D01*
X46646402Y-33362090D01*
X46646405Y-33362092D01*
X46646408Y-33362095D01*
X46737491Y-33408504D01*
X46745336Y-33412501D01*
X46854993Y-33429869D01*
X46854995Y-33429869D01*
X46854997Y-33429869D01*
X46964653Y-33412501D01*
X46964654Y-33412500D01*
X46964656Y-33412500D01*
X47063582Y-33362095D01*
X47142090Y-33283587D01*
X47192495Y-33184661D01*
X47192495Y-33184659D01*
X47192496Y-33184658D01*
X47209864Y-33075002D01*
X47209864Y-33074997D01*
X47192496Y-32965343D01*
X47192495Y-32965341D01*
X47192495Y-32965339D01*
X47169394Y-32920000D01*
X55474659Y-32920000D01*
X55493975Y-33116129D01*
X55503737Y-33148311D01*
X55548291Y-33295185D01*
X55551188Y-33304733D01*
X55644086Y-33478532D01*
X55644090Y-33478539D01*
X55769116Y-33630883D01*
X55921460Y-33755909D01*
X55921467Y-33755913D01*
X56095266Y-33848811D01*
X56095269Y-33848811D01*
X56095273Y-33848814D01*
X56283868Y-33906024D01*
X56480000Y-33925341D01*
X56676132Y-33906024D01*
X56864727Y-33848814D01*
X56902317Y-33828722D01*
X56951632Y-33802362D01*
X56984447Y-33784822D01*
X58019499Y-33784822D01*
X58028231Y-33828717D01*
X58028232Y-33828721D01*
X58028233Y-33828722D01*
X58061496Y-33878504D01*
X58111278Y-33911767D01*
X58111281Y-33911767D01*
X58111282Y-33911768D01*
X58155177Y-33920500D01*
X58155180Y-33920500D01*
X59884822Y-33920500D01*
X59928717Y-33911768D01*
X59928717Y-33911767D01*
X59928722Y-33911767D01*
X59978504Y-33878504D01*
X60011767Y-33828722D01*
X60020500Y-33784820D01*
X60020500Y-32055180D01*
X60020500Y-32055177D01*
X60011768Y-32011282D01*
X60011767Y-32011281D01*
X60011767Y-32011278D01*
X59978504Y-31961496D01*
X59954958Y-31945763D01*
X59928724Y-31928234D01*
X59928717Y-31928231D01*
X59884822Y-31919500D01*
X59884820Y-31919500D01*
X58155180Y-31919500D01*
X58155178Y-31919500D01*
X58111282Y-31928231D01*
X58111276Y-31928234D01*
X58085336Y-31945566D01*
X58055881Y-31954788D01*
X58051295Y-31975874D01*
X58045566Y-31985336D01*
X58028234Y-32011276D01*
X58028231Y-32011282D01*
X58019500Y-32055177D01*
X58019500Y-32055180D01*
X58019500Y-33784820D01*
X58019500Y-33784822D01*
X58019499Y-33784822D01*
X56984447Y-33784822D01*
X57038538Y-33755910D01*
X57190883Y-33630883D01*
X57315910Y-33478538D01*
X57408814Y-33304727D01*
X57466024Y-33116132D01*
X57485341Y-32920000D01*
X57466024Y-32723868D01*
X57408814Y-32535273D01*
X57361412Y-32446592D01*
X57347171Y-32378190D01*
X57372171Y-32312946D01*
X57383083Y-32300465D01*
X57854784Y-31828764D01*
X57904455Y-31801642D01*
X57921301Y-31762944D01*
X57928755Y-31754793D01*
X58007430Y-31676118D01*
X58068751Y-31642635D01*
X58114507Y-31641328D01*
X58143799Y-31645967D01*
X58199999Y-31654869D01*
X58200000Y-31654869D01*
X58200002Y-31654869D01*
X58309658Y-31637501D01*
X58309659Y-31637500D01*
X58309661Y-31637500D01*
X58408587Y-31587095D01*
X58487095Y-31508587D01*
X58537500Y-31409661D01*
X58537500Y-31409659D01*
X58537501Y-31409658D01*
X58549179Y-31335926D01*
X60549501Y-31335926D01*
X60549501Y-31464073D01*
X60573971Y-31587090D01*
X60574499Y-31589744D01*
X60623535Y-31708127D01*
X60686019Y-31801642D01*
X60694726Y-31814673D01*
X60694727Y-31814674D01*
X61963181Y-33083127D01*
X61996666Y-33144450D01*
X61999500Y-33170808D01*
X61999500Y-33579191D01*
X61979815Y-33646230D01*
X61963181Y-33666872D01*
X61393400Y-34236653D01*
X61332077Y-34270138D01*
X61329955Y-34270580D01*
X61320013Y-34272558D01*
X61310254Y-34274499D01*
X61191875Y-34323533D01*
X61191866Y-34323538D01*
X61085331Y-34394723D01*
X61085327Y-34394726D01*
X60994726Y-34485327D01*
X60994723Y-34485331D01*
X60923538Y-34591866D01*
X60923533Y-34591875D01*
X60874499Y-34710255D01*
X60874497Y-34710261D01*
X60849500Y-34835928D01*
X60849500Y-34835931D01*
X60849500Y-34964069D01*
X60849500Y-34964071D01*
X60849499Y-34964071D01*
X60874497Y-35089738D01*
X60874499Y-35089744D01*
X60923533Y-35208124D01*
X60923538Y-35208133D01*
X60994723Y-35314668D01*
X60994726Y-35314672D01*
X61085327Y-35405273D01*
X61085331Y-35405276D01*
X61191866Y-35476461D01*
X61191872Y-35476464D01*
X61191873Y-35476465D01*
X61310256Y-35525501D01*
X61310260Y-35525501D01*
X61310261Y-35525502D01*
X61435928Y-35550500D01*
X61435931Y-35550500D01*
X61714071Y-35550500D01*
X61798615Y-35533682D01*
X61839744Y-35525501D01*
X61958127Y-35476465D01*
X61961233Y-35474389D01*
X61967606Y-35470132D01*
X61967608Y-35470131D01*
X62040238Y-35421600D01*
X62050383Y-35414822D01*
X68949499Y-35414822D01*
X68958231Y-35458717D01*
X68958234Y-35458724D01*
X68977461Y-35487499D01*
X68991496Y-35508504D01*
X69041278Y-35541767D01*
X69041281Y-35541767D01*
X69041282Y-35541768D01*
X69085177Y-35550500D01*
X69085180Y-35550500D01*
X70114822Y-35550500D01*
X70158717Y-35541768D01*
X70158717Y-35541767D01*
X70158722Y-35541767D01*
X70208504Y-35508504D01*
X70241767Y-35458722D01*
X70250500Y-35414820D01*
X70250500Y-34385180D01*
X70250500Y-34385177D01*
X70241768Y-34341282D01*
X70241767Y-34341281D01*
X70241767Y-34341278D01*
X70208504Y-34291496D01*
X70183816Y-34275000D01*
X70158724Y-34258234D01*
X70158717Y-34258231D01*
X70114822Y-34249500D01*
X70114820Y-34249500D01*
X69085180Y-34249500D01*
X69085178Y-34249500D01*
X69041282Y-34258231D01*
X69041275Y-34258234D01*
X68991496Y-34291495D01*
X68991495Y-34291496D01*
X68958234Y-34341275D01*
X68958231Y-34341282D01*
X68949500Y-34385177D01*
X68949500Y-34385180D01*
X68949500Y-35414820D01*
X68949500Y-35414822D01*
X68949499Y-35414822D01*
X62050383Y-35414822D01*
X62064669Y-35405277D01*
X63155277Y-34314669D01*
X63226466Y-34208126D01*
X63269172Y-34105024D01*
X63275501Y-34089744D01*
X63300500Y-33964069D01*
X63300500Y-33864071D01*
X64849499Y-33864071D01*
X64874497Y-33989738D01*
X64874499Y-33989744D01*
X64923533Y-34108124D01*
X64923538Y-34108133D01*
X64994723Y-34214668D01*
X64994726Y-34214672D01*
X65085327Y-34305273D01*
X65085331Y-34305276D01*
X65191866Y-34376461D01*
X65191875Y-34376466D01*
X65212913Y-34385180D01*
X65310256Y-34425501D01*
X65310260Y-34425501D01*
X65310261Y-34425502D01*
X65435928Y-34450500D01*
X65435931Y-34450500D01*
X66964071Y-34450500D01*
X67048615Y-34433682D01*
X67089744Y-34425501D01*
X67208127Y-34376465D01*
X67314669Y-34305276D01*
X67405276Y-34214669D01*
X67476465Y-34108127D01*
X67525501Y-33989744D01*
X67541012Y-33911767D01*
X67550500Y-33864071D01*
X67550500Y-33735928D01*
X67525502Y-33610261D01*
X67525501Y-33610260D01*
X67525501Y-33610256D01*
X67476465Y-33491873D01*
X67476464Y-33491872D01*
X67476461Y-33491866D01*
X67405276Y-33385331D01*
X67405273Y-33385327D01*
X67334768Y-33314822D01*
X68949499Y-33314822D01*
X68958231Y-33358717D01*
X68958234Y-33358724D01*
X68976012Y-33385331D01*
X68991496Y-33408504D01*
X69041278Y-33441767D01*
X69041281Y-33441767D01*
X69041282Y-33441768D01*
X69085177Y-33450500D01*
X69085180Y-33450500D01*
X70114822Y-33450500D01*
X70158717Y-33441768D01*
X70158717Y-33441767D01*
X70158722Y-33441767D01*
X70208504Y-33408504D01*
X70241767Y-33358722D01*
X70242130Y-33356896D01*
X70250500Y-33314822D01*
X70250500Y-32435928D01*
X72649500Y-32435928D01*
X72649500Y-32564069D01*
X72674497Y-32689738D01*
X72674499Y-32689744D01*
X72723533Y-32808124D01*
X72723538Y-32808133D01*
X72794723Y-32914668D01*
X72794726Y-32914672D01*
X72885327Y-33005273D01*
X72885331Y-33005276D01*
X72991866Y-33076461D01*
X72991872Y-33076464D01*
X72991873Y-33076465D01*
X73110256Y-33125501D01*
X73110260Y-33125501D01*
X73110261Y-33125502D01*
X73235928Y-33150500D01*
X73235931Y-33150500D01*
X75164071Y-33150500D01*
X75248615Y-33133682D01*
X75289744Y-33125501D01*
X75408127Y-33076465D01*
X75514669Y-33005276D01*
X75605276Y-32914669D01*
X75676465Y-32808127D01*
X75725501Y-32689744D01*
X75750500Y-32564069D01*
X75750500Y-32053982D01*
X96024500Y-32053982D01*
X96024500Y-32166018D01*
X96043654Y-32237500D01*
X96053497Y-32274236D01*
X96053498Y-32274239D01*
X96068636Y-32300458D01*
X96109515Y-32371263D01*
X96188737Y-32450485D01*
X96285763Y-32506503D01*
X96393982Y-32535500D01*
X96393984Y-32535500D01*
X96506016Y-32535500D01*
X96506018Y-32535500D01*
X96614237Y-32506503D01*
X96711263Y-32450485D01*
X96790485Y-32371263D01*
X96846503Y-32274237D01*
X96875500Y-32166018D01*
X96875500Y-32053982D01*
X96846503Y-31945763D01*
X96790485Y-31848737D01*
X96711263Y-31769515D01*
X96614237Y-31713497D01*
X96506018Y-31684500D01*
X96393982Y-31684500D01*
X96285763Y-31713497D01*
X96285760Y-31713498D01*
X96188740Y-31769513D01*
X96188734Y-31769517D01*
X96109517Y-31848734D01*
X96109513Y-31848740D01*
X96053498Y-31945760D01*
X96053497Y-31945763D01*
X96024500Y-32053982D01*
X75750500Y-32053982D01*
X75750500Y-30744071D01*
X94719499Y-30744071D01*
X94744497Y-30869738D01*
X94744499Y-30869744D01*
X94793533Y-30988124D01*
X94793538Y-30988133D01*
X94864723Y-31094668D01*
X94864726Y-31094672D01*
X94955327Y-31185273D01*
X94955331Y-31185276D01*
X95061866Y-31256461D01*
X95061872Y-31256464D01*
X95061873Y-31256465D01*
X95180256Y-31305501D01*
X95180260Y-31305501D01*
X95180261Y-31305502D01*
X95305928Y-31330500D01*
X95305931Y-31330500D01*
X96534071Y-31330500D01*
X96618615Y-31313682D01*
X96659744Y-31305501D01*
X96778127Y-31256465D01*
X96884669Y-31185276D01*
X96975276Y-31094669D01*
X97046465Y-30988127D01*
X97095501Y-30869744D01*
X97107453Y-30809658D01*
X97120500Y-30744071D01*
X97120500Y-30615928D01*
X97095502Y-30490261D01*
X97095501Y-30490260D01*
X97095501Y-30490256D01*
X97046465Y-30371873D01*
X97046464Y-30371872D01*
X97046461Y-30371866D01*
X96975276Y-30265331D01*
X96975273Y-30265327D01*
X96884672Y-30174726D01*
X96884668Y-30174723D01*
X96778133Y-30103538D01*
X96778124Y-30103533D01*
X96659744Y-30054499D01*
X96659738Y-30054497D01*
X96534071Y-30029500D01*
X96534069Y-30029500D01*
X95305931Y-30029500D01*
X95305929Y-30029500D01*
X95180261Y-30054497D01*
X95180255Y-30054499D01*
X95061875Y-30103533D01*
X95061866Y-30103538D01*
X94955331Y-30174723D01*
X94955327Y-30174726D01*
X94864726Y-30265327D01*
X94864723Y-30265331D01*
X94793538Y-30371866D01*
X94793533Y-30371875D01*
X94744499Y-30490255D01*
X94744497Y-30490261D01*
X94719500Y-30615928D01*
X94719500Y-30615931D01*
X94719500Y-30744069D01*
X94719500Y-30744071D01*
X94719499Y-30744071D01*
X75750500Y-30744071D01*
X75750500Y-28835931D01*
X75750500Y-28835928D01*
X75725502Y-28710261D01*
X75725501Y-28710260D01*
X75725501Y-28710256D01*
X75676465Y-28591873D01*
X75676464Y-28591872D01*
X75676461Y-28591866D01*
X75605276Y-28485331D01*
X75605273Y-28485327D01*
X75514672Y-28394726D01*
X75514668Y-28394723D01*
X75408133Y-28323538D01*
X75408124Y-28323533D01*
X75289744Y-28274499D01*
X75289738Y-28274497D01*
X75164071Y-28249500D01*
X75164069Y-28249500D01*
X75035931Y-28249500D01*
X75035929Y-28249500D01*
X74910261Y-28274497D01*
X74910255Y-28274499D01*
X74791875Y-28323533D01*
X74791866Y-28323538D01*
X74685331Y-28394723D01*
X74685327Y-28394726D01*
X74594726Y-28485327D01*
X74594723Y-28485331D01*
X74523538Y-28591866D01*
X74523533Y-28591875D01*
X74474499Y-28710255D01*
X74474497Y-28710261D01*
X74449500Y-28835928D01*
X74449500Y-31725500D01*
X74429815Y-31792539D01*
X74377011Y-31838294D01*
X74325500Y-31849500D01*
X73235929Y-31849500D01*
X73110261Y-31874497D01*
X73110255Y-31874499D01*
X72991875Y-31923533D01*
X72991866Y-31923538D01*
X72885331Y-31994723D01*
X72885327Y-31994726D01*
X72794726Y-32085327D01*
X72794723Y-32085331D01*
X72723538Y-32191866D01*
X72723533Y-32191875D01*
X72674499Y-32310255D01*
X72674497Y-32310261D01*
X72649500Y-32435928D01*
X70250500Y-32435928D01*
X70250500Y-32285177D01*
X70241768Y-32241282D01*
X70241767Y-32241281D01*
X70241767Y-32241278D01*
X70208504Y-32191496D01*
X70208503Y-32191495D01*
X70158724Y-32158234D01*
X70158717Y-32158231D01*
X70114822Y-32149500D01*
X70114820Y-32149500D01*
X69085180Y-32149500D01*
X69085178Y-32149500D01*
X69041282Y-32158231D01*
X69041275Y-32158234D01*
X68991496Y-32191495D01*
X68991495Y-32191496D01*
X68958234Y-32241275D01*
X68958231Y-32241282D01*
X68949500Y-32285177D01*
X68949500Y-32285180D01*
X68949500Y-33314820D01*
X68949500Y-33314822D01*
X68949499Y-33314822D01*
X67334768Y-33314822D01*
X67314672Y-33294726D01*
X67314668Y-33294723D01*
X67208133Y-33223538D01*
X67208124Y-33223533D01*
X67089744Y-33174499D01*
X67089738Y-33174497D01*
X66964071Y-33149500D01*
X66964069Y-33149500D01*
X65435931Y-33149500D01*
X65435929Y-33149500D01*
X65310261Y-33174497D01*
X65310255Y-33174499D01*
X65191875Y-33223533D01*
X65191866Y-33223538D01*
X65085331Y-33294723D01*
X65085327Y-33294726D01*
X64994726Y-33385327D01*
X64994723Y-33385331D01*
X64923538Y-33491866D01*
X64923533Y-33491875D01*
X64874499Y-33610255D01*
X64874497Y-33610261D01*
X64849500Y-33735928D01*
X64849500Y-33735931D01*
X64849500Y-33864069D01*
X64849500Y-33864071D01*
X64849499Y-33864071D01*
X63300500Y-33864071D01*
X63300500Y-32785931D01*
X63300500Y-32785928D01*
X63275502Y-32660261D01*
X63275501Y-32660260D01*
X63275501Y-32660256D01*
X63235659Y-32564069D01*
X63226466Y-32541874D01*
X63202832Y-32506503D01*
X63155278Y-32435332D01*
X63155272Y-32435325D01*
X61614673Y-30894726D01*
X61614669Y-30894723D01*
X61508127Y-30823535D01*
X61483555Y-30813357D01*
X61389744Y-30774499D01*
X61389736Y-30774497D01*
X61264073Y-30749501D01*
X61264069Y-30749501D01*
X61135931Y-30749501D01*
X61135926Y-30749501D01*
X61010263Y-30774497D01*
X61010255Y-30774499D01*
X60891874Y-30823534D01*
X60785326Y-30894726D01*
X60694726Y-30985326D01*
X60623534Y-31091874D01*
X60574499Y-31210255D01*
X60574497Y-31210263D01*
X60549501Y-31335926D01*
X58549179Y-31335926D01*
X58554869Y-31300002D01*
X58554869Y-31299997D01*
X58537501Y-31190341D01*
X58510799Y-31137935D01*
X58487095Y-31091413D01*
X58487092Y-31091410D01*
X58487090Y-31091407D01*
X58408592Y-31012909D01*
X58408588Y-31012906D01*
X58408587Y-31012905D01*
X58383263Y-31000002D01*
X58309658Y-30962498D01*
X58200002Y-30945131D01*
X58199998Y-30945131D01*
X58090341Y-30962498D01*
X57991414Y-31012904D01*
X57991407Y-31012909D01*
X57912909Y-31091407D01*
X57912906Y-31091412D01*
X57912905Y-31091413D01*
X57892428Y-31131602D01*
X57862500Y-31190338D01*
X57856831Y-31226129D01*
X57826900Y-31289263D01*
X57822039Y-31294409D01*
X57099540Y-32016908D01*
X57038217Y-32050393D01*
X56968525Y-32045409D01*
X56953406Y-32038585D01*
X56864733Y-31991188D01*
X56864727Y-31991186D01*
X56714988Y-31945763D01*
X56676129Y-31933975D01*
X56480000Y-31914659D01*
X56283870Y-31933975D01*
X56095266Y-31991188D01*
X55921467Y-32084086D01*
X55921460Y-32084090D01*
X55769116Y-32209116D01*
X55644090Y-32361460D01*
X55644086Y-32361467D01*
X55551188Y-32535266D01*
X55493975Y-32723870D01*
X55474659Y-32920000D01*
X47169394Y-32920000D01*
X47149670Y-32881289D01*
X47136775Y-32812626D01*
X47149668Y-32768712D01*
X47192495Y-32684661D01*
X47196360Y-32660261D01*
X47209864Y-32575002D01*
X47209864Y-32574997D01*
X47192496Y-32465341D01*
X47184927Y-32450486D01*
X47142090Y-32366413D01*
X47142087Y-32366410D01*
X47142085Y-32366407D01*
X47063587Y-32287909D01*
X47063583Y-32287906D01*
X47063582Y-32287905D01*
X46972079Y-32241282D01*
X46964653Y-32237498D01*
X46854997Y-32220131D01*
X46854993Y-32220131D01*
X46745336Y-32237498D01*
X46646409Y-32287904D01*
X46646402Y-32287909D01*
X46596131Y-32338181D01*
X46534808Y-32371666D01*
X46508450Y-32374500D01*
X44651540Y-32374500D01*
X44584501Y-32354815D01*
X44563859Y-32338181D01*
X44513587Y-32287909D01*
X44513583Y-32287906D01*
X44513582Y-32287905D01*
X44422079Y-32241282D01*
X44414653Y-32237498D01*
X44304997Y-32220131D01*
X44304993Y-32220131D01*
X44195336Y-32237498D01*
X44096409Y-32287904D01*
X44096402Y-32287909D01*
X44017904Y-32366407D01*
X44017899Y-32366414D01*
X43967493Y-32465341D01*
X43950126Y-32574997D01*
X40500500Y-32574997D01*
X40500500Y-31021941D01*
X44144910Y-31021941D01*
X44144910Y-31021946D01*
X44162277Y-31131602D01*
X44212683Y-31230529D01*
X44212688Y-31230536D01*
X44291186Y-31309034D01*
X44291189Y-31309036D01*
X44291192Y-31309039D01*
X44381139Y-31354869D01*
X44390120Y-31359445D01*
X44499777Y-31376813D01*
X44499779Y-31376813D01*
X44499781Y-31376813D01*
X44609437Y-31359445D01*
X44609438Y-31359444D01*
X44609440Y-31359444D01*
X44708366Y-31309039D01*
X44730315Y-31287090D01*
X44758643Y-31258763D01*
X44819966Y-31225278D01*
X44846324Y-31222444D01*
X45805394Y-31222444D01*
X45872433Y-31242129D01*
X45893075Y-31258763D01*
X45896402Y-31262090D01*
X45896405Y-31262092D01*
X45896408Y-31262095D01*
X45970801Y-31300000D01*
X45995336Y-31312501D01*
X46104993Y-31329869D01*
X46104995Y-31329869D01*
X46104997Y-31329869D01*
X46214653Y-31312501D01*
X46214654Y-31312500D01*
X46214656Y-31312500D01*
X46313582Y-31262095D01*
X46392090Y-31183587D01*
X46442495Y-31084661D01*
X46442495Y-31084659D01*
X46442496Y-31084658D01*
X46459864Y-30975002D01*
X46459864Y-30974997D01*
X46442496Y-30865341D01*
X46421194Y-30823534D01*
X46392090Y-30766413D01*
X46392086Y-30766409D01*
X46392085Y-30766407D01*
X46325675Y-30699997D01*
X69545131Y-30699997D01*
X69545131Y-30700002D01*
X69562498Y-30809658D01*
X69612904Y-30908585D01*
X69612909Y-30908592D01*
X69691407Y-30987090D01*
X69691410Y-30987092D01*
X69691413Y-30987095D01*
X69764315Y-31024240D01*
X69790341Y-31037501D01*
X69899998Y-31054869D01*
X69900000Y-31054869D01*
X69900002Y-31054869D01*
X70009657Y-31037501D01*
X70009658Y-31037500D01*
X70009661Y-31037500D01*
X70080976Y-31001163D01*
X70149641Y-30988267D01*
X70214382Y-31014543D01*
X70254639Y-31071649D01*
X70259741Y-31092247D01*
X70262499Y-31109658D01*
X70262499Y-31109659D01*
X70262500Y-31109661D01*
X70301026Y-31185273D01*
X70312904Y-31208585D01*
X70312909Y-31208592D01*
X70391407Y-31287090D01*
X70391410Y-31287092D01*
X70391413Y-31287095D01*
X70475362Y-31329869D01*
X70490341Y-31337501D01*
X70599998Y-31354869D01*
X70600000Y-31354869D01*
X70600002Y-31354869D01*
X70709658Y-31337501D01*
X70709659Y-31337500D01*
X70709661Y-31337500D01*
X70808587Y-31287095D01*
X70887095Y-31208587D01*
X70937500Y-31109661D01*
X70937500Y-31109659D01*
X70937501Y-31109658D01*
X70954869Y-31000002D01*
X70954869Y-30999997D01*
X70937501Y-30890341D01*
X70898276Y-30813357D01*
X70887095Y-30791413D01*
X70887092Y-30791410D01*
X70887090Y-30791407D01*
X70808592Y-30712909D01*
X70808588Y-30712906D01*
X70808587Y-30712905D01*
X70783263Y-30700002D01*
X70709658Y-30662498D01*
X70600003Y-30645131D01*
X70590242Y-30645131D01*
X70590242Y-30643631D01*
X70531534Y-30636040D01*
X70493756Y-30610206D01*
X70413574Y-30530024D01*
X70339883Y-30499500D01*
X70339882Y-30499500D01*
X70246545Y-30499500D01*
X70179506Y-30479815D01*
X70158864Y-30463181D01*
X70108592Y-30412909D01*
X70108588Y-30412906D01*
X70108587Y-30412905D01*
X70028057Y-30371873D01*
X70009658Y-30362498D01*
X69900002Y-30345131D01*
X69899998Y-30345131D01*
X69790341Y-30362498D01*
X69691414Y-30412904D01*
X69691407Y-30412909D01*
X69612909Y-30491407D01*
X69612904Y-30491414D01*
X69562498Y-30590341D01*
X69545131Y-30699997D01*
X46325675Y-30699997D01*
X46313587Y-30687909D01*
X46313583Y-30687906D01*
X46313582Y-30687905D01*
X46263718Y-30662498D01*
X46214653Y-30637498D01*
X46104997Y-30620131D01*
X46104993Y-30620131D01*
X45995336Y-30637498D01*
X45896409Y-30687904D01*
X45896402Y-30687909D01*
X45817902Y-30766409D01*
X45815054Y-30770330D01*
X45759724Y-30812995D01*
X45714736Y-30821444D01*
X44846324Y-30821444D01*
X44779285Y-30801759D01*
X44758643Y-30785125D01*
X44708371Y-30734853D01*
X44708367Y-30734850D01*
X44708366Y-30734849D01*
X44665306Y-30712909D01*
X44609437Y-30684442D01*
X44499781Y-30667075D01*
X44499777Y-30667075D01*
X44390120Y-30684442D01*
X44291193Y-30734848D01*
X44291186Y-30734853D01*
X44212688Y-30813351D01*
X44212683Y-30813358D01*
X44162277Y-30912285D01*
X44144910Y-31021941D01*
X40500500Y-31021941D01*
X40500500Y-29799997D01*
X44150126Y-29799997D01*
X44150126Y-29800002D01*
X44167493Y-29909658D01*
X44217899Y-30008585D01*
X44217904Y-30008592D01*
X44296402Y-30087090D01*
X44296405Y-30087092D01*
X44296408Y-30087095D01*
X44395334Y-30137500D01*
X44395336Y-30137501D01*
X44504993Y-30154869D01*
X44504995Y-30154869D01*
X44504997Y-30154869D01*
X44614653Y-30137501D01*
X44614654Y-30137500D01*
X44614656Y-30137500D01*
X44713582Y-30087095D01*
X44713587Y-30087090D01*
X44763859Y-30036819D01*
X44825182Y-30003334D01*
X44851540Y-30000500D01*
X46358450Y-30000500D01*
X46425489Y-30020185D01*
X46446131Y-30036819D01*
X46496402Y-30087090D01*
X46496405Y-30087092D01*
X46496408Y-30087095D01*
X46595334Y-30137500D01*
X46595336Y-30137501D01*
X46704993Y-30154869D01*
X46704995Y-30154869D01*
X46704997Y-30154869D01*
X46814653Y-30137501D01*
X46814654Y-30137500D01*
X46814656Y-30137500D01*
X46913582Y-30087095D01*
X46992090Y-30008587D01*
X47042495Y-29909661D01*
X47042495Y-29909659D01*
X47042496Y-29909658D01*
X47059864Y-29800002D01*
X47059864Y-29799997D01*
X47042496Y-29690341D01*
X47014773Y-29635931D01*
X46992090Y-29591413D01*
X46992087Y-29591410D01*
X46992085Y-29591407D01*
X46913587Y-29512909D01*
X46913583Y-29512906D01*
X46913582Y-29512905D01*
X46908383Y-29510256D01*
X46814653Y-29462498D01*
X46704997Y-29445131D01*
X46704993Y-29445131D01*
X46595336Y-29462498D01*
X46496409Y-29512904D01*
X46496402Y-29512909D01*
X46446131Y-29563181D01*
X46384808Y-29596666D01*
X46358450Y-29599500D01*
X44851540Y-29599500D01*
X44784501Y-29579815D01*
X44763859Y-29563181D01*
X44713587Y-29512909D01*
X44713583Y-29512906D01*
X44713582Y-29512905D01*
X44708383Y-29510256D01*
X44614653Y-29462498D01*
X44504997Y-29445131D01*
X44504993Y-29445131D01*
X44395336Y-29462498D01*
X44296409Y-29512904D01*
X44296402Y-29512909D01*
X44217904Y-29591407D01*
X44217899Y-29591414D01*
X44167493Y-29690341D01*
X44150126Y-29799997D01*
X40500500Y-29799997D01*
X40500500Y-27840000D01*
X55474659Y-27840000D01*
X55493975Y-28036129D01*
X55493976Y-28036132D01*
X55546150Y-28208127D01*
X55551188Y-28224733D01*
X55644086Y-28398532D01*
X55644090Y-28398539D01*
X55769116Y-28550883D01*
X55921460Y-28675909D01*
X55921467Y-28675913D01*
X56095266Y-28768811D01*
X56095269Y-28768811D01*
X56095273Y-28768814D01*
X56283868Y-28826024D01*
X56480000Y-28845341D01*
X56676132Y-28826024D01*
X56864727Y-28768814D01*
X56873605Y-28764069D01*
X56974283Y-28710255D01*
X56984447Y-28704822D01*
X58019499Y-28704822D01*
X58028231Y-28748717D01*
X58028234Y-28748724D01*
X58041656Y-28768811D01*
X58061496Y-28798504D01*
X58111278Y-28831767D01*
X58111281Y-28831767D01*
X58111282Y-28831768D01*
X58155177Y-28840500D01*
X58155180Y-28840500D01*
X59884822Y-28840500D01*
X59907815Y-28835926D01*
X65249501Y-28835926D01*
X65249501Y-28964073D01*
X65274497Y-29089736D01*
X65274499Y-29089744D01*
X65323535Y-29208127D01*
X65394723Y-29314669D01*
X65394726Y-29314673D01*
X65485326Y-29405273D01*
X65485329Y-29405275D01*
X65485331Y-29405277D01*
X65591873Y-29476465D01*
X65710256Y-29525501D01*
X65835926Y-29550498D01*
X65835930Y-29550499D01*
X65835931Y-29550499D01*
X65964070Y-29550499D01*
X65964071Y-29550498D01*
X66089744Y-29525501D01*
X66208127Y-29476465D01*
X66314669Y-29405277D01*
X66314674Y-29405272D01*
X66333128Y-29386819D01*
X66394451Y-29353334D01*
X66420809Y-29350500D01*
X66964071Y-29350500D01*
X67048615Y-29333682D01*
X67089744Y-29325501D01*
X67208127Y-29276465D01*
X67314669Y-29205276D01*
X67405276Y-29114669D01*
X67476465Y-29008127D01*
X67525501Y-28889744D01*
X67536206Y-28835926D01*
X67550500Y-28764071D01*
X67550500Y-28635928D01*
X67525502Y-28510261D01*
X67525501Y-28510260D01*
X67525501Y-28510256D01*
X67482017Y-28405277D01*
X67476466Y-28391875D01*
X67476461Y-28391866D01*
X67405276Y-28285331D01*
X67405273Y-28285327D01*
X67314672Y-28194726D01*
X67314668Y-28194723D01*
X67208133Y-28123538D01*
X67208124Y-28123533D01*
X67089744Y-28074499D01*
X67089738Y-28074497D01*
X66964071Y-28049500D01*
X66964069Y-28049500D01*
X66035931Y-28049500D01*
X66035929Y-28049500D01*
X65910261Y-28074497D01*
X65910255Y-28074499D01*
X65791874Y-28123534D01*
X65685326Y-28194726D01*
X65394726Y-28485326D01*
X65323534Y-28591874D01*
X65274499Y-28710255D01*
X65274497Y-28710263D01*
X65249501Y-28835926D01*
X59907815Y-28835926D01*
X59928717Y-28831768D01*
X59928717Y-28831767D01*
X59928722Y-28831767D01*
X59978504Y-28798504D01*
X60011767Y-28748722D01*
X60011768Y-28748717D01*
X60020500Y-28704822D01*
X60020500Y-27835926D01*
X63099501Y-27835926D01*
X63099501Y-27964073D01*
X63124497Y-28089736D01*
X63124499Y-28089744D01*
X63173535Y-28208127D01*
X63244723Y-28314669D01*
X63244726Y-28314673D01*
X63335326Y-28405273D01*
X63335329Y-28405275D01*
X63335331Y-28405277D01*
X63441873Y-28476465D01*
X63560256Y-28525501D01*
X63685926Y-28550498D01*
X63685930Y-28550499D01*
X63685931Y-28550499D01*
X63814070Y-28550499D01*
X63814071Y-28550498D01*
X63939744Y-28525501D01*
X64058127Y-28476465D01*
X64164669Y-28405277D01*
X65030277Y-27539669D01*
X65101466Y-27433126D01*
X65150501Y-27314743D01*
X65170442Y-27214499D01*
X65175500Y-27189069D01*
X65175500Y-26835931D01*
X65175500Y-26835928D01*
X65150502Y-26710261D01*
X65150501Y-26710260D01*
X65150501Y-26710256D01*
X65101465Y-26591873D01*
X65101464Y-26591872D01*
X65101461Y-26591866D01*
X65030276Y-26485331D01*
X65030273Y-26485327D01*
X64939672Y-26394726D01*
X64939668Y-26394723D01*
X64833133Y-26323538D01*
X64833124Y-26323533D01*
X64714744Y-26274499D01*
X64714738Y-26274497D01*
X64589071Y-26249500D01*
X64589069Y-26249500D01*
X64460931Y-26249500D01*
X64460929Y-26249500D01*
X64335261Y-26274497D01*
X64335255Y-26274499D01*
X64216875Y-26323533D01*
X64216866Y-26323538D01*
X64110331Y-26394723D01*
X64110327Y-26394726D01*
X64019726Y-26485327D01*
X64019723Y-26485331D01*
X63948538Y-26591866D01*
X63948533Y-26591875D01*
X63899499Y-26710255D01*
X63899497Y-26710261D01*
X63876965Y-26823535D01*
X63844580Y-26885446D01*
X63843029Y-26887024D01*
X63244727Y-27485325D01*
X63244726Y-27485326D01*
X63173534Y-27591874D01*
X63124499Y-27710255D01*
X63124497Y-27710263D01*
X63099501Y-27835926D01*
X60020500Y-27835926D01*
X60020500Y-26975177D01*
X60011768Y-26931282D01*
X60011767Y-26931281D01*
X60011767Y-26931278D01*
X59978504Y-26881496D01*
X59978503Y-26881495D01*
X59928724Y-26848234D01*
X59928719Y-26848232D01*
X59915896Y-26845681D01*
X59865416Y-26819273D01*
X59821726Y-26838477D01*
X59805833Y-26839500D01*
X58155178Y-26839500D01*
X58111282Y-26848231D01*
X58111275Y-26848234D01*
X58061496Y-26881495D01*
X58061495Y-26881496D01*
X58028234Y-26931275D01*
X58028231Y-26931282D01*
X58019500Y-26975177D01*
X58019500Y-26975180D01*
X58019500Y-28704820D01*
X58019500Y-28704822D01*
X58019499Y-28704822D01*
X56984447Y-28704822D01*
X57038538Y-28675910D01*
X57190883Y-28550883D01*
X57315910Y-28398538D01*
X57362362Y-28311632D01*
X57408811Y-28224733D01*
X57408811Y-28224732D01*
X57408814Y-28224727D01*
X57466024Y-28036132D01*
X57485341Y-27840000D01*
X57466024Y-27643868D01*
X57408814Y-27455273D01*
X57408811Y-27455269D01*
X57408811Y-27455266D01*
X57315913Y-27281467D01*
X57315909Y-27281460D01*
X57190883Y-27129116D01*
X57038539Y-27004090D01*
X57038532Y-27004086D01*
X56864733Y-26911188D01*
X56864727Y-26911186D01*
X56679076Y-26854869D01*
X56676129Y-26853975D01*
X56480000Y-26834659D01*
X56283870Y-26853975D01*
X56095266Y-26911188D01*
X55921467Y-27004086D01*
X55921460Y-27004090D01*
X55769116Y-27129116D01*
X55644090Y-27281460D01*
X55644086Y-27281467D01*
X55551188Y-27455266D01*
X55493975Y-27643870D01*
X55474659Y-27840000D01*
X40500500Y-27840000D01*
X40500500Y-24000000D01*
X40945194Y-24000000D01*
X40964401Y-24342025D01*
X40964403Y-24342037D01*
X41021783Y-24679754D01*
X41021785Y-24679762D01*
X41116619Y-25008935D01*
X41247711Y-25325424D01*
X41247713Y-25325428D01*
X41413422Y-25625255D01*
X41611660Y-25904646D01*
X41756500Y-26066720D01*
X41756501Y-26066721D01*
X42780240Y-25042982D01*
X42957017Y-25219759D01*
X41933278Y-26243498D01*
X42095353Y-26388339D01*
X42374744Y-26586577D01*
X42674571Y-26752286D01*
X42674575Y-26752288D01*
X42991064Y-26883380D01*
X43320237Y-26978214D01*
X43320245Y-26978216D01*
X43657962Y-27035596D01*
X43657974Y-27035598D01*
X44000000Y-27054805D01*
X44342025Y-27035598D01*
X44342037Y-27035596D01*
X44679754Y-26978216D01*
X44679762Y-26978214D01*
X45008935Y-26883380D01*
X45325424Y-26752288D01*
X45325428Y-26752286D01*
X45625255Y-26586577D01*
X45904641Y-26388342D01*
X46059447Y-26249997D01*
X59545131Y-26249997D01*
X59545131Y-26250002D01*
X59562498Y-26359658D01*
X59612904Y-26458585D01*
X59612909Y-26458592D01*
X59691407Y-26537090D01*
X59691410Y-26537092D01*
X59691413Y-26537095D01*
X59790337Y-26587499D01*
X59790341Y-26587501D01*
X59825231Y-26593027D01*
X59880249Y-26619108D01*
X59920689Y-26601592D01*
X60009661Y-26587500D01*
X60108587Y-26537095D01*
X60145775Y-26499907D01*
X60207098Y-26466421D01*
X60276789Y-26471405D01*
X60332723Y-26513275D01*
X60355930Y-26568187D01*
X60362499Y-26609658D01*
X60362499Y-26609659D01*
X60362500Y-26609661D01*
X60412904Y-26708585D01*
X60412909Y-26708592D01*
X60491407Y-26787090D01*
X60491410Y-26787092D01*
X60491413Y-26787095D01*
X60562931Y-26823535D01*
X60590341Y-26837501D01*
X60699998Y-26854869D01*
X60700000Y-26854869D01*
X60700002Y-26854869D01*
X60809658Y-26837501D01*
X60809659Y-26837500D01*
X60809661Y-26837500D01*
X60908587Y-26787095D01*
X60987095Y-26708587D01*
X61037500Y-26609661D01*
X61037500Y-26609659D01*
X61037501Y-26609658D01*
X61054869Y-26500002D01*
X61054869Y-26499997D01*
X61037501Y-26390341D01*
X61017201Y-26350500D01*
X60987095Y-26291413D01*
X60987092Y-26291410D01*
X60987090Y-26291407D01*
X60910505Y-26214822D01*
X69749499Y-26214822D01*
X69758231Y-26258717D01*
X69758234Y-26258724D01*
X69791495Y-26308503D01*
X69791496Y-26308504D01*
X69841278Y-26341767D01*
X69841281Y-26341767D01*
X69841282Y-26341768D01*
X69885177Y-26350500D01*
X69885180Y-26350500D01*
X70914822Y-26350500D01*
X70958717Y-26341768D01*
X70958717Y-26341767D01*
X70958722Y-26341767D01*
X71008504Y-26308504D01*
X71041767Y-26258722D01*
X71043503Y-26249997D01*
X71050500Y-26214822D01*
X71050500Y-25635926D01*
X82149501Y-25635926D01*
X82149501Y-25764073D01*
X82174497Y-25889736D01*
X82174499Y-25889744D01*
X82223535Y-26008127D01*
X82291741Y-26110206D01*
X82294726Y-26114673D01*
X82385326Y-26205273D01*
X82385329Y-26205275D01*
X82385331Y-26205277D01*
X82491873Y-26276465D01*
X82610256Y-26325501D01*
X82692022Y-26341765D01*
X82735926Y-26350498D01*
X82735930Y-26350499D01*
X82735931Y-26350499D01*
X82864070Y-26350499D01*
X82864071Y-26350498D01*
X82989744Y-26325501D01*
X83108127Y-26276465D01*
X83214669Y-26205277D01*
X83433127Y-25986819D01*
X83494450Y-25953334D01*
X83520808Y-25950500D01*
X83964071Y-25950500D01*
X84048615Y-25933682D01*
X84089744Y-25925501D01*
X84208127Y-25876465D01*
X84314669Y-25805276D01*
X84405276Y-25714669D01*
X84476465Y-25608127D01*
X84525501Y-25489744D01*
X84537692Y-25428459D01*
X84550500Y-25364071D01*
X84550500Y-25235928D01*
X84525502Y-25110261D01*
X84525501Y-25110260D01*
X84525501Y-25110256D01*
X84476465Y-24991873D01*
X84476464Y-24991872D01*
X84476461Y-24991866D01*
X84405276Y-24885331D01*
X84405273Y-24885327D01*
X84314672Y-24794726D01*
X84314668Y-24794723D01*
X84208133Y-24723538D01*
X84208124Y-24723533D01*
X84089744Y-24674499D01*
X84089738Y-24674497D01*
X83964071Y-24649500D01*
X83964069Y-24649500D01*
X83135931Y-24649500D01*
X83135929Y-24649500D01*
X83010261Y-24674497D01*
X83010255Y-24674499D01*
X82891870Y-24723535D01*
X82785331Y-24794722D01*
X82785324Y-24794728D01*
X82294726Y-25285326D01*
X82223534Y-25391874D01*
X82174499Y-25510255D01*
X82174497Y-25510263D01*
X82149501Y-25635926D01*
X71050500Y-25635926D01*
X71050500Y-25185177D01*
X71041768Y-25141282D01*
X71041767Y-25141281D01*
X71041767Y-25141278D01*
X71008504Y-25091496D01*
X70981706Y-25073590D01*
X70958724Y-25058234D01*
X70958717Y-25058231D01*
X70914822Y-25049500D01*
X70914820Y-25049500D01*
X69885180Y-25049500D01*
X69885178Y-25049500D01*
X69841282Y-25058231D01*
X69841275Y-25058234D01*
X69791496Y-25091495D01*
X69791495Y-25091496D01*
X69758234Y-25141275D01*
X69758231Y-25141282D01*
X69749500Y-25185177D01*
X69749500Y-25185180D01*
X69749500Y-26214820D01*
X69749500Y-26214822D01*
X69749499Y-26214822D01*
X60910505Y-26214822D01*
X60908592Y-26212909D01*
X60908588Y-26212906D01*
X60908587Y-26212905D01*
X60833207Y-26174497D01*
X60809658Y-26162498D01*
X60700003Y-26145131D01*
X60690242Y-26145131D01*
X60690242Y-26143631D01*
X60631534Y-26136040D01*
X60593756Y-26110206D01*
X60563574Y-26080024D01*
X60489883Y-26049500D01*
X60489882Y-26049500D01*
X60246545Y-26049500D01*
X60179506Y-26029815D01*
X60158864Y-26013181D01*
X60108592Y-25962909D01*
X60108588Y-25962906D01*
X60108587Y-25962905D01*
X60084241Y-25950500D01*
X60009658Y-25912498D01*
X59900002Y-25895131D01*
X59899998Y-25895131D01*
X59790341Y-25912498D01*
X59691414Y-25962904D01*
X59691407Y-25962909D01*
X59612909Y-26041407D01*
X59612904Y-26041414D01*
X59562498Y-26140341D01*
X59545131Y-26249997D01*
X46059447Y-26249997D01*
X46066720Y-26243497D01*
X45042982Y-25219759D01*
X45219759Y-25042982D01*
X46243497Y-26066720D01*
X46388342Y-25904641D01*
X46586577Y-25625255D01*
X46752286Y-25325428D01*
X46752288Y-25325424D01*
X46777701Y-25264071D01*
X54449499Y-25264071D01*
X54474497Y-25389738D01*
X54474499Y-25389744D01*
X54523533Y-25508124D01*
X54523538Y-25508133D01*
X54594723Y-25614668D01*
X54594726Y-25614672D01*
X54685327Y-25705273D01*
X54685331Y-25705276D01*
X54791866Y-25776461D01*
X54791872Y-25776464D01*
X54791873Y-25776465D01*
X54910256Y-25825501D01*
X54910260Y-25825501D01*
X54910261Y-25825502D01*
X55035928Y-25850500D01*
X55035931Y-25850500D01*
X57564071Y-25850500D01*
X57648615Y-25833682D01*
X57689744Y-25825501D01*
X57808127Y-25776465D01*
X57914669Y-25705276D01*
X58005276Y-25614669D01*
X58076465Y-25508127D01*
X58125501Y-25389744D01*
X58138295Y-25325428D01*
X58150500Y-25264071D01*
X58150500Y-25135928D01*
X58138099Y-25073587D01*
X64096540Y-25073587D01*
X64096540Y-25073592D01*
X64113907Y-25183248D01*
X64164313Y-25282175D01*
X64164318Y-25282182D01*
X64242816Y-25360680D01*
X64242819Y-25360682D01*
X64242822Y-25360685D01*
X64307728Y-25393756D01*
X64341750Y-25411091D01*
X64451407Y-25428459D01*
X64451409Y-25428459D01*
X64451411Y-25428459D01*
X64561067Y-25411091D01*
X64561068Y-25411090D01*
X64561070Y-25411090D01*
X64659996Y-25360685D01*
X64660001Y-25360680D01*
X64683863Y-25336819D01*
X64745186Y-25303334D01*
X64771544Y-25300500D01*
X66165588Y-25300500D01*
X66232627Y-25320185D01*
X66253269Y-25336819D01*
X66310206Y-25393756D01*
X66343691Y-25455079D01*
X66344697Y-25490242D01*
X66345131Y-25490242D01*
X66345131Y-25500002D01*
X66362498Y-25609658D01*
X66412904Y-25708585D01*
X66412909Y-25708592D01*
X66491407Y-25787090D01*
X66491410Y-25787092D01*
X66491413Y-25787095D01*
X66590339Y-25837500D01*
X66590341Y-25837501D01*
X66699998Y-25854869D01*
X66700000Y-25854869D01*
X66700002Y-25854869D01*
X66809658Y-25837501D01*
X66809659Y-25837500D01*
X66809661Y-25837500D01*
X66908587Y-25787095D01*
X66987095Y-25708587D01*
X67037500Y-25609661D01*
X67037500Y-25609659D01*
X67037501Y-25609658D01*
X67054869Y-25500002D01*
X67054869Y-25499997D01*
X67037501Y-25390341D01*
X67037194Y-25389738D01*
X66987095Y-25291413D01*
X66987092Y-25291410D01*
X66987090Y-25291407D01*
X66908592Y-25212909D01*
X66908588Y-25212906D01*
X66908587Y-25212905D01*
X66904743Y-25210946D01*
X66809658Y-25162498D01*
X66700003Y-25145131D01*
X66690242Y-25145131D01*
X66690242Y-25143631D01*
X66631534Y-25136040D01*
X66593756Y-25110206D01*
X66413574Y-24930024D01*
X66339883Y-24899500D01*
X66339882Y-24899500D01*
X64824364Y-24899500D01*
X64757325Y-24879815D01*
X64736683Y-24863181D01*
X64660001Y-24786499D01*
X64659997Y-24786496D01*
X64659996Y-24786495D01*
X64656152Y-24784536D01*
X64561067Y-24736088D01*
X64451411Y-24718721D01*
X64451407Y-24718721D01*
X64341750Y-24736088D01*
X64242823Y-24786494D01*
X64242816Y-24786499D01*
X64164318Y-24864997D01*
X64164313Y-24865004D01*
X64113907Y-24963931D01*
X64096540Y-25073587D01*
X58138099Y-25073587D01*
X58125502Y-25010261D01*
X58125501Y-25010260D01*
X58125501Y-25010256D01*
X58076465Y-24891873D01*
X58076464Y-24891872D01*
X58076461Y-24891866D01*
X58005276Y-24785331D01*
X58005273Y-24785327D01*
X57914672Y-24694726D01*
X57914668Y-24694723D01*
X57808133Y-24623538D01*
X57808124Y-24623533D01*
X57689744Y-24574499D01*
X57689738Y-24574497D01*
X57564071Y-24549500D01*
X57564069Y-24549500D01*
X55035931Y-24549500D01*
X55035929Y-24549500D01*
X54910261Y-24574497D01*
X54910255Y-24574499D01*
X54791875Y-24623533D01*
X54791866Y-24623538D01*
X54685331Y-24694723D01*
X54685327Y-24694726D01*
X54594726Y-24785327D01*
X54594723Y-24785331D01*
X54523538Y-24891866D01*
X54523533Y-24891875D01*
X54474499Y-25010255D01*
X54474497Y-25010261D01*
X54449500Y-25135928D01*
X54449500Y-25135931D01*
X54449500Y-25264069D01*
X54449500Y-25264071D01*
X54449499Y-25264071D01*
X46777701Y-25264071D01*
X46883380Y-25008935D01*
X46978214Y-24679762D01*
X46978216Y-24679754D01*
X47035596Y-24342037D01*
X47035598Y-24342025D01*
X47054805Y-24000000D01*
X47047131Y-23863339D01*
X67486815Y-23863339D01*
X67486815Y-23863344D01*
X67504182Y-23973000D01*
X67554588Y-24071927D01*
X67554593Y-24071934D01*
X67633091Y-24150432D01*
X67633094Y-24150434D01*
X67633097Y-24150437D01*
X67732023Y-24200842D01*
X67732025Y-24200843D01*
X67841682Y-24218211D01*
X67841684Y-24218211D01*
X67841686Y-24218211D01*
X67951342Y-24200843D01*
X67951343Y-24200842D01*
X67951345Y-24200842D01*
X68050271Y-24150437D01*
X68074785Y-24125923D01*
X68100548Y-24100161D01*
X68161871Y-24066676D01*
X68188229Y-24063842D01*
X68328930Y-24063842D01*
X68395969Y-24083527D01*
X68416611Y-24100161D01*
X68910206Y-24593756D01*
X68943691Y-24655079D01*
X68944697Y-24690242D01*
X68945131Y-24690242D01*
X68945131Y-24700002D01*
X68962498Y-24809658D01*
X69012904Y-24908585D01*
X69012909Y-24908592D01*
X69091407Y-24987090D01*
X69091410Y-24987092D01*
X69091413Y-24987095D01*
X69190339Y-25037500D01*
X69190341Y-25037501D01*
X69299998Y-25054869D01*
X69300000Y-25054869D01*
X69300002Y-25054869D01*
X69409658Y-25037501D01*
X69409659Y-25037500D01*
X69409661Y-25037500D01*
X69508587Y-24987095D01*
X69587095Y-24908587D01*
X69637500Y-24809661D01*
X69637500Y-24809659D01*
X69637501Y-24809658D01*
X69654869Y-24700002D01*
X69654869Y-24699997D01*
X69637501Y-24590341D01*
X69629428Y-24574497D01*
X69587095Y-24491413D01*
X69587092Y-24491410D01*
X69587090Y-24491407D01*
X69508592Y-24412909D01*
X69508588Y-24412906D01*
X69508587Y-24412905D01*
X69504743Y-24410946D01*
X69409658Y-24362498D01*
X69300003Y-24345131D01*
X69290242Y-24345131D01*
X69290242Y-24343631D01*
X69231534Y-24336040D01*
X69193756Y-24310206D01*
X68998372Y-24114822D01*
X69749499Y-24114822D01*
X69758231Y-24158717D01*
X69758232Y-24158721D01*
X69758233Y-24158722D01*
X69791496Y-24208504D01*
X69841278Y-24241767D01*
X69841281Y-24241767D01*
X69841282Y-24241768D01*
X69885177Y-24250500D01*
X69885180Y-24250500D01*
X70914822Y-24250500D01*
X70958717Y-24241768D01*
X70958717Y-24241767D01*
X70958722Y-24241767D01*
X71008504Y-24208504D01*
X71041767Y-24158722D01*
X71043416Y-24150432D01*
X71050500Y-24114822D01*
X71849499Y-24114822D01*
X71858231Y-24158717D01*
X71858232Y-24158721D01*
X71858233Y-24158722D01*
X71891496Y-24208504D01*
X71941278Y-24241767D01*
X71941281Y-24241767D01*
X71941282Y-24241768D01*
X71985177Y-24250500D01*
X71985180Y-24250500D01*
X73014822Y-24250500D01*
X73058717Y-24241768D01*
X73058717Y-24241767D01*
X73058722Y-24241767D01*
X73108504Y-24208504D01*
X73141767Y-24158722D01*
X73143416Y-24150432D01*
X73150500Y-24114822D01*
X73150500Y-23299997D01*
X80545131Y-23299997D01*
X80545131Y-23300002D01*
X80562498Y-23409658D01*
X80612904Y-23508585D01*
X80612909Y-23508592D01*
X80691407Y-23587090D01*
X80691410Y-23587092D01*
X80691413Y-23587095D01*
X80790339Y-23637500D01*
X80790341Y-23637501D01*
X80899998Y-23654869D01*
X80900000Y-23654869D01*
X80900002Y-23654869D01*
X81009658Y-23637501D01*
X81009659Y-23637500D01*
X81009661Y-23637500D01*
X81108587Y-23587095D01*
X81187095Y-23508587D01*
X81237500Y-23409661D01*
X81237500Y-23409659D01*
X81237501Y-23409658D01*
X81254869Y-23300002D01*
X81254869Y-23299997D01*
X81237501Y-23190341D01*
X81237500Y-23190339D01*
X81187095Y-23091413D01*
X81187092Y-23091410D01*
X81187090Y-23091407D01*
X81136819Y-23041136D01*
X81103334Y-22979813D01*
X81100500Y-22953455D01*
X81100500Y-22834411D01*
X81120185Y-22767372D01*
X81136815Y-22746734D01*
X81393757Y-22489791D01*
X81455078Y-22456308D01*
X81490240Y-22455304D01*
X81490240Y-22454869D01*
X81500002Y-22454869D01*
X81609658Y-22437501D01*
X81609659Y-22437500D01*
X81609661Y-22437500D01*
X81708587Y-22387095D01*
X81787095Y-22308587D01*
X81837500Y-22209661D01*
X81837500Y-22209659D01*
X81837501Y-22209658D01*
X81854869Y-22100002D01*
X81854869Y-22099997D01*
X81837501Y-21990341D01*
X81808426Y-21933278D01*
X81787095Y-21891413D01*
X81787092Y-21891410D01*
X81787090Y-21891407D01*
X81708592Y-21812909D01*
X81708588Y-21812906D01*
X81708587Y-21812905D01*
X81704743Y-21810946D01*
X81609658Y-21762498D01*
X81500002Y-21745131D01*
X81499998Y-21745131D01*
X81390341Y-21762498D01*
X81291414Y-21812904D01*
X81291407Y-21812909D01*
X81212909Y-21891407D01*
X81212904Y-21891414D01*
X81162498Y-21990341D01*
X81145131Y-22099997D01*
X81145131Y-22109759D01*
X81143630Y-22109759D01*
X81136043Y-22168458D01*
X81110206Y-22206242D01*
X80786426Y-22530024D01*
X80730025Y-22586424D01*
X80730024Y-22586425D01*
X80699500Y-22660116D01*
X80699500Y-22953455D01*
X80679815Y-23020494D01*
X80663181Y-23041136D01*
X80612909Y-23091407D01*
X80612904Y-23091414D01*
X80562498Y-23190341D01*
X80545131Y-23299997D01*
X73150500Y-23299997D01*
X73150500Y-23085177D01*
X73141768Y-23041282D01*
X73141767Y-23041281D01*
X73141767Y-23041278D01*
X73108504Y-22991496D01*
X73108503Y-22991495D01*
X73058724Y-22958234D01*
X73058717Y-22958231D01*
X73014822Y-22949500D01*
X73014820Y-22949500D01*
X71985180Y-22949500D01*
X71985178Y-22949500D01*
X71941282Y-22958231D01*
X71941275Y-22958234D01*
X71891496Y-22991495D01*
X71891495Y-22991496D01*
X71858234Y-23041275D01*
X71858231Y-23041282D01*
X71849500Y-23085177D01*
X71849500Y-23085180D01*
X71849500Y-24114820D01*
X71849500Y-24114822D01*
X71849499Y-24114822D01*
X71050500Y-24114822D01*
X71050500Y-23085177D01*
X71041768Y-23041282D01*
X71041767Y-23041281D01*
X71041767Y-23041278D01*
X71008504Y-22991496D01*
X71008503Y-22991495D01*
X70958724Y-22958234D01*
X70958717Y-22958231D01*
X70914822Y-22949500D01*
X70914820Y-22949500D01*
X69885180Y-22949500D01*
X69885178Y-22949500D01*
X69841282Y-22958231D01*
X69841275Y-22958234D01*
X69791496Y-22991495D01*
X69791495Y-22991496D01*
X69758234Y-23041275D01*
X69758231Y-23041282D01*
X69749500Y-23085177D01*
X69749500Y-23085180D01*
X69749500Y-24114820D01*
X69749500Y-24114822D01*
X69749499Y-24114822D01*
X68998372Y-24114822D01*
X68576916Y-23693366D01*
X68503225Y-23662842D01*
X68503224Y-23662842D01*
X68188229Y-23662842D01*
X68121190Y-23643157D01*
X68100548Y-23626523D01*
X68050276Y-23576251D01*
X68050272Y-23576248D01*
X68050271Y-23576247D01*
X68046427Y-23574288D01*
X67951342Y-23525840D01*
X67841686Y-23508473D01*
X67841682Y-23508473D01*
X67732025Y-23525840D01*
X67633098Y-23576246D01*
X67633091Y-23576251D01*
X67554593Y-23654749D01*
X67554588Y-23654756D01*
X67504182Y-23753683D01*
X67486815Y-23863339D01*
X47047131Y-23863339D01*
X47035598Y-23657974D01*
X47035596Y-23657962D01*
X46978216Y-23320245D01*
X46978214Y-23320237D01*
X46883380Y-22991064D01*
X46787672Y-22760000D01*
X55474659Y-22760000D01*
X55493975Y-22956129D01*
X55494613Y-22958231D01*
X55535011Y-23091407D01*
X55551188Y-23144733D01*
X55644086Y-23318532D01*
X55644090Y-23318539D01*
X55769116Y-23470883D01*
X55921460Y-23595909D01*
X55921467Y-23595913D01*
X56095266Y-23688811D01*
X56095269Y-23688811D01*
X56095273Y-23688814D01*
X56283868Y-23746024D01*
X56480000Y-23765341D01*
X56676132Y-23746024D01*
X56864727Y-23688814D01*
X56902317Y-23668722D01*
X56983493Y-23625332D01*
X56984447Y-23624822D01*
X58019499Y-23624822D01*
X58028231Y-23668717D01*
X58028232Y-23668721D01*
X58028233Y-23668722D01*
X58061496Y-23718504D01*
X58111278Y-23751767D01*
X58111281Y-23751767D01*
X58111282Y-23751768D01*
X58155177Y-23760500D01*
X58155180Y-23760500D01*
X59884822Y-23760500D01*
X59928717Y-23751768D01*
X59928717Y-23751767D01*
X59928722Y-23751767D01*
X59978504Y-23718504D01*
X60011767Y-23668722D01*
X60014547Y-23654749D01*
X60020500Y-23624822D01*
X60020500Y-21895177D01*
X60011768Y-21851282D01*
X60011767Y-21851281D01*
X60011767Y-21851278D01*
X59978504Y-21801496D01*
X59978503Y-21801495D01*
X59928724Y-21768234D01*
X59928717Y-21768231D01*
X59884822Y-21759500D01*
X59884820Y-21759500D01*
X58155180Y-21759500D01*
X58155178Y-21759500D01*
X58111282Y-21768231D01*
X58111275Y-21768234D01*
X58061496Y-21801495D01*
X58061495Y-21801496D01*
X58028234Y-21851275D01*
X58028231Y-21851282D01*
X58019500Y-21895177D01*
X58019500Y-21895180D01*
X58019500Y-23624820D01*
X58019500Y-23624822D01*
X58019499Y-23624822D01*
X56984447Y-23624822D01*
X57038538Y-23595910D01*
X57190883Y-23470883D01*
X57315910Y-23318538D01*
X57408814Y-23144727D01*
X57466024Y-22956132D01*
X57485341Y-22760000D01*
X57466024Y-22563868D01*
X57408814Y-22375273D01*
X57408811Y-22375269D01*
X57408811Y-22375266D01*
X57315913Y-22201467D01*
X57315909Y-22201460D01*
X57190883Y-22049116D01*
X57038539Y-21924090D01*
X57038532Y-21924086D01*
X56864733Y-21831188D01*
X56864727Y-21831186D01*
X56676132Y-21773976D01*
X56676129Y-21773975D01*
X56480000Y-21754659D01*
X56283870Y-21773975D01*
X56095266Y-21831188D01*
X55921467Y-21924086D01*
X55921460Y-21924090D01*
X55769116Y-22049116D01*
X55644090Y-22201460D01*
X55644086Y-22201467D01*
X55551188Y-22375266D01*
X55493975Y-22563870D01*
X55474659Y-22760000D01*
X46787672Y-22760000D01*
X46752288Y-22674575D01*
X46752286Y-22674571D01*
X46586577Y-22374744D01*
X46388339Y-22095353D01*
X46243498Y-21933278D01*
X45219759Y-22957017D01*
X45042982Y-22780240D01*
X46066721Y-21756501D01*
X46066720Y-21756500D01*
X45904646Y-21611660D01*
X45625255Y-21413422D01*
X45325428Y-21247713D01*
X45325424Y-21247711D01*
X45008935Y-21116619D01*
X44679762Y-21021785D01*
X44679754Y-21021783D01*
X44342037Y-20964403D01*
X44342025Y-20964401D01*
X44000000Y-20945194D01*
X43657974Y-20964401D01*
X43657962Y-20964403D01*
X43320245Y-21021783D01*
X43320237Y-21021785D01*
X42991064Y-21116619D01*
X42674575Y-21247711D01*
X42674571Y-21247713D01*
X42374744Y-21413422D01*
X42095358Y-21611657D01*
X41933278Y-21756501D01*
X42957017Y-22780240D01*
X42780240Y-22957017D01*
X41756501Y-21933278D01*
X41611657Y-22095358D01*
X41413422Y-22374744D01*
X41247713Y-22674571D01*
X41247711Y-22674575D01*
X41116619Y-22991064D01*
X41021785Y-23320237D01*
X41021783Y-23320245D01*
X40964403Y-23657962D01*
X40964401Y-23657974D01*
X40945194Y-24000000D01*
X40500500Y-24000000D01*
X40500500Y-20624500D01*
X40520185Y-20557461D01*
X40572989Y-20511706D01*
X40624500Y-20500500D01*
X102375500Y-20500500D01*
X102442539Y-20520185D01*
G37*
%TD.AperFunction*%
%TD*%
M02*
