M48
; DRILL file {KiCad 8.0.4-8.0.4-0~ubuntu24.04.1} date 2024-08-21T20:20:35-0700
; FORMAT={-:-/ absolute / inch / decimal}
; #@! TF.CreationDate,2024-08-21T20:20:35-07:00
; #@! TF.GenerationSoftware,Kicad,Pcbnew,8.0.4-8.0.4-0~ubuntu24.04.1
; #@! TF.FileFunction,Plated,1,2,PTH
FMAT,2
INCH
; #@! TA.AperFunction,Plated,PTH,ViaDrill
T1C0.0079
; #@! TA.AperFunction,Plated,PTH,ComponentDrill
T2C0.0197
; #@! TA.AperFunction,Plated,PTH,ComponentDrill
T3C0.0236
; #@! TA.AperFunction,Plated,PTH,ComponentDrill
T4C0.0394
; #@! TA.AperFunction,Plated,PTH,ComponentDrill
T5C0.1260
%
G90
G05
T1
X1.7443Y-1.2825
X1.7443Y-1.3494
X1.7443Y-1.3691
X1.7482Y-1.4305
X1.752Y-1.2213
X1.7522Y-1.1732
X1.7522Y-1.1969
X1.7522Y-1.3051
X1.7561Y-1.4124
X1.7955Y-1.5315
X1.7991Y-1.1027
X1.8152Y-1.2195
X1.8152Y-1.2598
X1.8171Y-1.3268
X1.8388Y-1.1732
X1.8447Y-1.2825
X1.8447Y-1.3022
X1.8447Y-1.3494
X1.8447Y-1.3691
X1.8467Y-1.4104
X1.8526Y-1.4321
X1.9252Y-1.2451
X1.9252Y-1.3159
X1.9252Y-1.3868
X1.9449Y-1.0669
X1.9528Y-1.5305
X1.9882Y-1.2087
X1.9882Y-1.4094
X1.9882Y-1.5315
X2.1693Y-0.9921
X2.2638Y-0.9921
X2.2913Y-1.2323
X2.3583Y-1.0335
X2.3898Y-1.0433
X2.4094Y-1.2362
X2.4213Y-1.0236
X2.4213Y-1.374
X2.4567Y-0.8858
X2.4567Y-1.4134
X2.4646Y-1.2126
X2.4665Y-1.3346
X2.4843Y-1.3701
X2.508Y-1.5492
X2.5098Y-1.0984
X2.5157Y-1.1339
X2.5344Y-1.4173
X2.5375Y-0.9871
X2.5392Y-1.4545
X2.5404Y-1.0591
X2.5597Y-1.563
X2.5787Y-1.3307
X2.5866Y-0.8898
X2.5945Y-1.1378
X2.5984Y-1.5433
X2.626Y-1.0039
X2.6339Y-1.1299
X2.6339Y-1.3307
X2.6378Y-1.5354
X2.6709Y-0.9395
X2.7283Y-0.9724
X2.7402Y-1.5
X2.752Y-1.2087
X2.7795Y-1.2205
X2.7913Y-1.1181
X2.7913Y-1.3583
X2.8858Y-1.2795
X2.9508Y-1.5
X2.9567Y-1.2795
X2.9606Y-1.1339
X3.0413Y-1.628
X3.0512Y-0.9606
X3.119Y-1.5519
X3.1575Y-1.4055
X3.185Y-0.9173
X3.2087Y-0.8701
X3.2362Y-1.3031
X3.2362Y-1.4055
X3.2598Y-1.0118
X3.2677Y-1.5906
X3.2835Y-1.4016
X3.3031Y-0.9961
X3.3268Y-1.1024
X3.3268Y-1.1457
X3.3268Y-1.1929
X3.3661Y-1.5984
X3.3701Y-0.9606
X3.3976Y-1.9016
X3.4134Y-0.874
X3.4488Y-1.2715
X3.4528Y-1.1535
X3.5Y-1.5157
X3.5591Y-1.3228
X3.5669Y-1.5787
X3.5709Y-1.4449
X3.5748Y-1.5039
X3.6063Y-1.9016
X3.6988Y-1.5059
X3.7008Y-1.248
X3.7795Y-1.0551
X3.8346Y-1.1299
X4.0079Y-1.685
T2
X2.7402Y-1.2913
X2.7402Y-1.374
X2.7402Y-1.4567
X2.7717Y-0.9291
X2.7717Y-1.0118
X2.8543Y-0.9291
T4
X1.9528Y-1.7677
X1.9528Y-1.8677
X2.0528Y-1.7677
X2.0528Y-1.8677
X2.1528Y-1.7677
X2.1528Y-1.8677
X2.2236Y-0.8961
X2.2236Y-1.0961
X2.2236Y-1.2961
X2.2236Y-1.4961
X2.2528Y-1.7677
X2.2528Y-1.8677
X2.3236Y-0.8961
X2.3236Y-1.0961
X2.3236Y-1.2961
X2.3236Y-1.4961
X2.3528Y-1.7677
X2.3528Y-1.8677
X2.4528Y-1.7677
X2.4528Y-1.8677
X2.5528Y-1.7677
X2.5528Y-1.8677
X2.6528Y-1.7677
X2.6528Y-1.8677
X2.7528Y-1.7677
X2.7528Y-1.8677
X2.8528Y-1.7677
X2.8528Y-1.8677
X2.9528Y-1.7677
X2.9528Y-1.8677
X3.0528Y-1.7677
X3.0528Y-1.8677
X3.1528Y-1.7677
X3.1528Y-1.8677
X3.2528Y-1.7677
X3.2528Y-1.8677
T5
X1.7323Y-0.9449
X1.7323Y-1.811
X3.8976Y-0.9449
X3.8976Y-1.811
T3
G00X3.7547Y-1.2079
M15
G01X3.798Y-1.2079
M16
G05
G00X3.7547Y-1.548
M15
G01X3.798Y-1.548
M16
G05
G00X3.9291Y-1.2079
M15
G01X3.9528Y-1.2079
M16
G05
G00X3.9291Y-1.548
M15
G01X3.9528Y-1.548
M16
G05
M30
