M48
; DRILL file {KiCad 8.0.1-8.0.1-1~ubuntu22.04.1} date 2024-05-05T11:37:58-0700
; FORMAT={-:-/ absolute / inch / decimal}
; #@! TF.CreationDate,2024-05-05T11:37:58-07:00
; #@! TF.GenerationSoftware,Kicad,Pcbnew,8.0.1-8.0.1-1~ubuntu22.04.1
; #@! TF.FileFunction,Plated,1,4,PTH
FMAT,2
INCH
; #@! TA.AperFunction,Plated,PTH,ViaDrill
T1C0.0079
; #@! TA.AperFunction,Plated,PTH,ComponentDrill
T2C0.0079
%
G90
G05
T1
X1.5457Y-2.3798
X1.5468Y-2.6531
X1.5582Y-2.4429
X1.5621Y-2.2858
X1.57Y-2.5276
X1.5877Y-2.237
X1.5921Y-2.5556
X1.5936Y-2.2884
X1.5996Y-2.2127
X1.6031Y-2.1917
X1.6034Y-2.7106
X1.6212Y-2.5768
X1.6487Y-2.5748
X1.6684Y-2.2815
X1.6711Y-2.2378
X1.6765Y-2.3677
X1.6825Y-2.568
X1.6932Y-2.2217
X1.7082Y-2.7126
X1.7156Y-2.2977
X1.744Y-2.6449
X1.7607Y-2.6748
X1.7611Y-2.5736
X1.7722Y-2.3085
X1.7723Y-2.2506
X1.7905Y-2.2972
X1.8003Y-2.7106
X1.8122Y-2.4985
X1.8196Y-2.6342
X1.8231Y-2.3867
X1.8377Y-2.4232
X1.84Y-2.642
X1.8495Y-2.3551
X1.8499Y-2.3028
X1.8517Y-2.3258
X1.852Y-2.2724
X1.8524Y-2.6114
X1.9125Y-2.7146
X1.9186Y-2.5886
X1.9227Y-2.3823
X1.9514Y-2.3956
X1.9597Y-2.6282
X1.969Y-2.3072
X1.9775Y-2.1989
X1.9832Y-2.6278
X1.9977Y-2.3912
X2.0082Y-2.7094
X2.0405Y-2.3854
X2.0684Y-2.5299
X2.07Y-2.3839
X2.0711Y-2.7094
X2.0916Y-2.3661
X2.1117Y-2.7106
X2.1222Y-2.3585
X2.129Y-2.5575
X2.144Y-2.6709
X2.1665Y-2.3548
X2.1834Y-2.4657
X2.1842Y-2.4429
X2.1854Y-2.3042
X2.2113Y-2.4902
X2.2298Y-2.3228
X2.2342Y-2.4906
X2.2452Y-2.3685
X2.2466Y-2.4207
X2.2558Y-2.4381
X2.2584Y-2.4049
X2.2627Y-2.3468
X2.2664Y-2.3662
X2.2688Y-2.624
X2.2707Y-2.3091
X2.2712Y-2.6551
X2.279Y-2.7435
X2.2865Y-2.2888
X2.2883Y-2.676
X2.3113Y-2.6705
X2.3358Y-2.2496
X2.3564Y-2.2435
X2.361Y-2.7002
X2.3717Y-2.7272
X2.3761Y-2.2435
X2.3804Y-2.7057
X2.3875Y-2.2244
X2.3941Y-2.731
X2.4058Y-2.5969
X2.4094Y-2.1862
X2.4127Y-2.7248
X2.4156Y-2.2386
X2.4282Y-2.4469
X2.435Y-2.2435
X2.4436Y-2.6972
X2.4547Y-2.2435
X2.4632Y-2.6992
X2.4762Y-2.2341
X2.4782Y-2.7119
X2.4844Y-2.252
X2.4988Y-2.7163
X2.5025Y-2.697
X2.5039Y-2.2322
X2.5105Y-2.1862
X2.5222Y-2.2435
X2.53Y-2.6979
X2.5422Y-2.2435
X2.5511Y-2.6977
X2.5621Y-2.561
X2.5626Y-2.2435
X2.5713Y-2.7143
X2.5791Y-2.6962
X2.5857Y-2.2435
X2.5899Y-2.7207
X2.6078Y-2.2435
X2.6133Y-2.5091
X2.6172Y-2.7055
X2.6286Y-2.2437
X2.6372Y-2.6977
X2.6483Y-2.2437
X2.6622Y-2.6977
X2.6714Y-2.2437
X2.6779Y-2.6807
X2.6869Y-2.2925
X2.6952Y-2.272
X2.7027Y-2.6697
X2.7121Y-2.5614
X2.7127Y-2.7169
X2.7156Y-2.4596
X2.7238Y-2.4875
X2.7253Y-2.3433
X2.7275Y-2.3866
X2.7335Y-2.5591
X2.7405Y-2.4013
X2.7612Y-2.5841
X2.7616Y-2.4653
X2.7621Y-2.3618
X2.7664Y-2.6575
X2.7676Y-2.2874
X2.7708Y-2.4287
X2.7708Y-2.5531
X2.7752Y-2.3789
X2.7775Y-2.7323
X2.7798Y-2.5905
X2.7818Y-2.348
X2.7818Y-2.4645
X2.7905Y-2.5488
X2.7912Y-2.718
X2.7916Y-2.6575
X2.7945Y-2.4842
X2.7982Y-2.2981
X2.8009Y-2.5927
X2.868Y-2.2913
X2.8694Y-2.5785
X2.8696Y-2.6083
X2.8716Y-2.5476
X2.8721Y-2.3526
X2.8755Y-2.7453
X2.8771Y-2.4429
X2.8771Y-2.4787
X2.8861Y-2.5634
X2.8881Y-2.3697
X2.8995Y-2.2094
X2.9137Y-2.7039
X2.9204Y-2.3681
X2.9511Y-2.5563
X2.9637Y-2.5965
X2.9676Y-2.4311
X2.9905Y-2.5933
X2.994Y-2.7346
X3.0052Y-2.2954
X3.0086Y-2.6339
X3.009Y-2.3701
X3.0109Y-2.4272
X3.0227Y-2.4665
X3.0328Y-2.3508
X3.0452Y-2.2996
X3.0456Y-2.6583
X3.0481Y-2.6348
X3.0649Y-2.5658
X3.0956Y-2.4781
X3.1013Y-2.198
X3.1094Y-2.2185
X3.115Y-2.6615
X3.1153Y-2.4781
X3.1174Y-2.3522
X3.1448Y-2.4232
X3.1448Y-2.4744
X3.159Y-2.3665
X3.1637Y-2.5642
X3.1637Y-2.6476
X3.1842Y-2.3012
X3.1901Y-2.1992
X3.2107Y-2.2473
X3.2255Y-2.6647
X3.2275Y-2.4193
X3.2432Y-2.3681
X3.2641Y-2.2961
X3.2802Y-2.6315
X3.2944Y-2.1996
X3.2971Y-2.3079
X3.2983Y-2.3469
X3.2997Y-2.611
X3.3109Y-2.5657
X3.3456Y-2.5134
X3.3534Y-2.4744
X3.3542Y-2.5693
X3.3656Y-2.6047
X3.367Y-2.3537
X3.3928Y-2.4053
X3.3941Y-2.6343
X3.3948Y-2.5272
X3.4086Y-2.439
X3.4097Y-2.3677
X3.4101Y-2.2079
X3.4109Y-2.7319
X3.4113Y-2.5409
X3.4389Y-2.5394
X3.4416Y-2.3031
X3.4464Y-2.4563
T2
X1.5422Y-2.198
X1.5422Y-2.739
X1.6422Y-2.198
X1.6422Y-2.739
X1.7422Y-2.198
X1.7422Y-2.739
X1.8422Y-2.198
X1.8422Y-2.739
X1.9422Y-2.198
X1.9422Y-2.739
X2.0422Y-2.198
X2.0422Y-2.739
X2.1422Y-2.198
X2.1422Y-2.739
X2.2422Y-2.198
X2.2422Y-2.739
X2.3422Y-2.198
X2.3422Y-2.739
X2.4422Y-2.198
X2.4422Y-2.739
X2.5422Y-2.198
X2.5422Y-2.739
X2.6422Y-2.198
X2.6422Y-2.739
X2.7422Y-2.198
X2.7422Y-2.739
X2.8422Y-2.198
X2.8422Y-2.739
X2.9422Y-2.198
X2.9422Y-2.739
X3.0422Y-2.198
X3.0422Y-2.739
X3.1422Y-2.198
X3.1422Y-2.739
X3.2422Y-2.198
X3.2422Y-2.739
X3.3422Y-2.198
X3.3422Y-2.739
X3.4422Y-2.198
X3.4422Y-2.739
M30
