%TF.GenerationSoftware,KiCad,Pcbnew,8.0.1-8.0.1-1~ubuntu22.04.1*%
%TF.CreationDate,2024-05-05T11:37:56-07:00*%
%TF.ProjectId,unic_gw1,756e6963-5f67-4773-912e-6b696361645f,1.0*%
%TF.SameCoordinates,Original*%
%TF.FileFunction,AssemblyDrawing,Top*%
%FSLAX46Y46*%
G04 Gerber Fmt 4.6, Leading zero omitted, Abs format (unit mm)*
G04 Created by KiCad (PCBNEW 8.0.1-8.0.1-1~ubuntu22.04.1) date 2024-05-05 11:37:56*
%MOMM*%
%LPD*%
G01*
G04 APERTURE LIST*
%ADD10C,0.100000*%
%ADD11C,0.150000*%
%ADD12C,0.040000*%
%ADD13C,0.200000*%
%ADD14C,0.127000*%
%ADD15C,0.120711*%
G04 APERTURE END LIST*
D10*
X38542500Y-68290000D02*
X38542500Y-57110000D01*
X88322500Y-68290000D02*
X88322500Y-70320000D01*
X88322500Y-57110000D02*
X88062500Y-57110000D01*
X38282500Y-55080000D02*
X88322500Y-55080000D01*
X88062500Y-68290000D02*
X88322500Y-68290000D01*
X88062500Y-57110000D02*
X88062500Y-68290000D01*
X38542500Y-57110000D02*
X38282500Y-57110000D01*
X38282500Y-70320000D02*
X38282500Y-68290000D01*
X38282500Y-57110000D02*
X38282500Y-55080000D01*
X88322500Y-70320000D02*
X38282500Y-70320000D01*
X38282500Y-68290000D02*
X38542500Y-68290000D01*
X88322500Y-55080000D02*
X88322500Y-57110000D01*
D11*
X55609279Y-41319931D02*
X55609279Y-42129454D01*
X55609279Y-42129454D02*
X55656898Y-42224692D01*
X55656898Y-42224692D02*
X55704517Y-42272312D01*
X55704517Y-42272312D02*
X55799755Y-42319931D01*
X55799755Y-42319931D02*
X55990231Y-42319931D01*
X55990231Y-42319931D02*
X56085469Y-42272312D01*
X56085469Y-42272312D02*
X56133088Y-42224692D01*
X56133088Y-42224692D02*
X56180707Y-42129454D01*
X56180707Y-42129454D02*
X56180707Y-41319931D01*
X56656898Y-41653264D02*
X56656898Y-42319931D01*
X56656898Y-41748502D02*
X56704517Y-41700883D01*
X56704517Y-41700883D02*
X56799755Y-41653264D01*
X56799755Y-41653264D02*
X56942612Y-41653264D01*
X56942612Y-41653264D02*
X57037850Y-41700883D01*
X57037850Y-41700883D02*
X57085469Y-41796121D01*
X57085469Y-41796121D02*
X57085469Y-42319931D01*
X57561660Y-42319931D02*
X57561660Y-41319931D01*
X58609278Y-42224692D02*
X58561659Y-42272312D01*
X58561659Y-42272312D02*
X58418802Y-42319931D01*
X58418802Y-42319931D02*
X58323564Y-42319931D01*
X58323564Y-42319931D02*
X58180707Y-42272312D01*
X58180707Y-42272312D02*
X58085469Y-42177073D01*
X58085469Y-42177073D02*
X58037850Y-42081835D01*
X58037850Y-42081835D02*
X57990231Y-41891359D01*
X57990231Y-41891359D02*
X57990231Y-41748502D01*
X57990231Y-41748502D02*
X58037850Y-41558026D01*
X58037850Y-41558026D02*
X58085469Y-41462788D01*
X58085469Y-41462788D02*
X58180707Y-41367550D01*
X58180707Y-41367550D02*
X58323564Y-41319931D01*
X58323564Y-41319931D02*
X58418802Y-41319931D01*
X58418802Y-41319931D02*
X58561659Y-41367550D01*
X58561659Y-41367550D02*
X58609278Y-41415169D01*
X59656898Y-41319931D02*
X59990231Y-42319931D01*
X59990231Y-42319931D02*
X60323564Y-41319931D01*
X61180707Y-42319931D02*
X60609279Y-42319931D01*
X60894993Y-42319931D02*
X60894993Y-41319931D01*
X60894993Y-41319931D02*
X60799755Y-41462788D01*
X60799755Y-41462788D02*
X60704517Y-41558026D01*
X60704517Y-41558026D02*
X60609279Y-41605645D01*
X61609279Y-42224692D02*
X61656898Y-42272312D01*
X61656898Y-42272312D02*
X61609279Y-42319931D01*
X61609279Y-42319931D02*
X61561660Y-42272312D01*
X61561660Y-42272312D02*
X61609279Y-42224692D01*
X61609279Y-42224692D02*
X61609279Y-42319931D01*
X62275945Y-41319931D02*
X62371183Y-41319931D01*
X62371183Y-41319931D02*
X62466421Y-41367550D01*
X62466421Y-41367550D02*
X62514040Y-41415169D01*
X62514040Y-41415169D02*
X62561659Y-41510407D01*
X62561659Y-41510407D02*
X62609278Y-41700883D01*
X62609278Y-41700883D02*
X62609278Y-41938978D01*
X62609278Y-41938978D02*
X62561659Y-42129454D01*
X62561659Y-42129454D02*
X62514040Y-42224692D01*
X62514040Y-42224692D02*
X62466421Y-42272312D01*
X62466421Y-42272312D02*
X62371183Y-42319931D01*
X62371183Y-42319931D02*
X62275945Y-42319931D01*
X62275945Y-42319931D02*
X62180707Y-42272312D01*
X62180707Y-42272312D02*
X62133088Y-42224692D01*
X62133088Y-42224692D02*
X62085469Y-42129454D01*
X62085469Y-42129454D02*
X62037850Y-41938978D01*
X62037850Y-41938978D02*
X62037850Y-41700883D01*
X62037850Y-41700883D02*
X62085469Y-41510407D01*
X62085469Y-41510407D02*
X62133088Y-41415169D01*
X62133088Y-41415169D02*
X62180707Y-41367550D01*
X62180707Y-41367550D02*
X62275945Y-41319931D01*
X55942612Y-43406065D02*
X55609279Y-43406065D01*
X55609279Y-43929875D02*
X55609279Y-42929875D01*
X55609279Y-42929875D02*
X56085469Y-42929875D01*
X56466422Y-43929875D02*
X56466422Y-43263208D01*
X56466422Y-43453684D02*
X56514041Y-43358446D01*
X56514041Y-43358446D02*
X56561660Y-43310827D01*
X56561660Y-43310827D02*
X56656898Y-43263208D01*
X56656898Y-43263208D02*
X56752136Y-43263208D01*
X57228327Y-43929875D02*
X57133089Y-43882256D01*
X57133089Y-43882256D02*
X57085470Y-43834636D01*
X57085470Y-43834636D02*
X57037851Y-43739398D01*
X57037851Y-43739398D02*
X57037851Y-43453684D01*
X57037851Y-43453684D02*
X57085470Y-43358446D01*
X57085470Y-43358446D02*
X57133089Y-43310827D01*
X57133089Y-43310827D02*
X57228327Y-43263208D01*
X57228327Y-43263208D02*
X57371184Y-43263208D01*
X57371184Y-43263208D02*
X57466422Y-43310827D01*
X57466422Y-43310827D02*
X57514041Y-43358446D01*
X57514041Y-43358446D02*
X57561660Y-43453684D01*
X57561660Y-43453684D02*
X57561660Y-43739398D01*
X57561660Y-43739398D02*
X57514041Y-43834636D01*
X57514041Y-43834636D02*
X57466422Y-43882256D01*
X57466422Y-43882256D02*
X57371184Y-43929875D01*
X57371184Y-43929875D02*
X57228327Y-43929875D01*
X57990232Y-43263208D02*
X57990232Y-43929875D01*
X57990232Y-43358446D02*
X58037851Y-43310827D01*
X58037851Y-43310827D02*
X58133089Y-43263208D01*
X58133089Y-43263208D02*
X58275946Y-43263208D01*
X58275946Y-43263208D02*
X58371184Y-43310827D01*
X58371184Y-43310827D02*
X58418803Y-43406065D01*
X58418803Y-43406065D02*
X58418803Y-43929875D01*
X58752137Y-43263208D02*
X59133089Y-43263208D01*
X58894994Y-42929875D02*
X58894994Y-43787017D01*
X58894994Y-43787017D02*
X58942613Y-43882256D01*
X58942613Y-43882256D02*
X59037851Y-43929875D01*
X59037851Y-43929875D02*
X59133089Y-43929875D01*
X60561661Y-43406065D02*
X60228328Y-43406065D01*
X60228328Y-43929875D02*
X60228328Y-42929875D01*
X60228328Y-42929875D02*
X60704518Y-42929875D01*
X61514042Y-43929875D02*
X61514042Y-43406065D01*
X61514042Y-43406065D02*
X61466423Y-43310827D01*
X61466423Y-43310827D02*
X61371185Y-43263208D01*
X61371185Y-43263208D02*
X61180709Y-43263208D01*
X61180709Y-43263208D02*
X61085471Y-43310827D01*
X61514042Y-43882256D02*
X61418804Y-43929875D01*
X61418804Y-43929875D02*
X61180709Y-43929875D01*
X61180709Y-43929875D02*
X61085471Y-43882256D01*
X61085471Y-43882256D02*
X61037852Y-43787017D01*
X61037852Y-43787017D02*
X61037852Y-43691779D01*
X61037852Y-43691779D02*
X61085471Y-43596541D01*
X61085471Y-43596541D02*
X61180709Y-43548922D01*
X61180709Y-43548922D02*
X61418804Y-43548922D01*
X61418804Y-43548922D02*
X61514042Y-43501303D01*
X61990233Y-43929875D02*
X61990233Y-42929875D01*
X61990233Y-43310827D02*
X62085471Y-43263208D01*
X62085471Y-43263208D02*
X62275947Y-43263208D01*
X62275947Y-43263208D02*
X62371185Y-43310827D01*
X62371185Y-43310827D02*
X62418804Y-43358446D01*
X62418804Y-43358446D02*
X62466423Y-43453684D01*
X62466423Y-43453684D02*
X62466423Y-43739398D01*
X62466423Y-43739398D02*
X62418804Y-43834636D01*
X62418804Y-43834636D02*
X62371185Y-43882256D01*
X62371185Y-43882256D02*
X62275947Y-43929875D01*
X62275947Y-43929875D02*
X62085471Y-43929875D01*
X62085471Y-43929875D02*
X61990233Y-43882256D01*
X63656900Y-43929875D02*
X63656900Y-42929875D01*
X63656900Y-42929875D02*
X63894995Y-42929875D01*
X63894995Y-42929875D02*
X64037852Y-42977494D01*
X64037852Y-42977494D02*
X64133090Y-43072732D01*
X64133090Y-43072732D02*
X64180709Y-43167970D01*
X64180709Y-43167970D02*
X64228328Y-43358446D01*
X64228328Y-43358446D02*
X64228328Y-43501303D01*
X64228328Y-43501303D02*
X64180709Y-43691779D01*
X64180709Y-43691779D02*
X64133090Y-43787017D01*
X64133090Y-43787017D02*
X64037852Y-43882256D01*
X64037852Y-43882256D02*
X63894995Y-43929875D01*
X63894995Y-43929875D02*
X63656900Y-43929875D01*
X64656900Y-43929875D02*
X64656900Y-43263208D01*
X64656900Y-43453684D02*
X64704519Y-43358446D01*
X64704519Y-43358446D02*
X64752138Y-43310827D01*
X64752138Y-43310827D02*
X64847376Y-43263208D01*
X64847376Y-43263208D02*
X64942614Y-43263208D01*
X65704519Y-43929875D02*
X65704519Y-43406065D01*
X65704519Y-43406065D02*
X65656900Y-43310827D01*
X65656900Y-43310827D02*
X65561662Y-43263208D01*
X65561662Y-43263208D02*
X65371186Y-43263208D01*
X65371186Y-43263208D02*
X65275948Y-43310827D01*
X65704519Y-43882256D02*
X65609281Y-43929875D01*
X65609281Y-43929875D02*
X65371186Y-43929875D01*
X65371186Y-43929875D02*
X65275948Y-43882256D01*
X65275948Y-43882256D02*
X65228329Y-43787017D01*
X65228329Y-43787017D02*
X65228329Y-43691779D01*
X65228329Y-43691779D02*
X65275948Y-43596541D01*
X65275948Y-43596541D02*
X65371186Y-43548922D01*
X65371186Y-43548922D02*
X65609281Y-43548922D01*
X65609281Y-43548922D02*
X65704519Y-43501303D01*
X66085472Y-43263208D02*
X66275948Y-43929875D01*
X66275948Y-43929875D02*
X66466424Y-43453684D01*
X66466424Y-43453684D02*
X66656900Y-43929875D01*
X66656900Y-43929875D02*
X66847376Y-43263208D01*
X67228329Y-43929875D02*
X67228329Y-43263208D01*
X67228329Y-42929875D02*
X67180710Y-42977494D01*
X67180710Y-42977494D02*
X67228329Y-43025113D01*
X67228329Y-43025113D02*
X67275948Y-42977494D01*
X67275948Y-42977494D02*
X67228329Y-42929875D01*
X67228329Y-42929875D02*
X67228329Y-43025113D01*
X67704519Y-43263208D02*
X67704519Y-43929875D01*
X67704519Y-43358446D02*
X67752138Y-43310827D01*
X67752138Y-43310827D02*
X67847376Y-43263208D01*
X67847376Y-43263208D02*
X67990233Y-43263208D01*
X67990233Y-43263208D02*
X68085471Y-43310827D01*
X68085471Y-43310827D02*
X68133090Y-43406065D01*
X68133090Y-43406065D02*
X68133090Y-43929875D01*
X69037852Y-43263208D02*
X69037852Y-44072732D01*
X69037852Y-44072732D02*
X68990233Y-44167970D01*
X68990233Y-44167970D02*
X68942614Y-44215589D01*
X68942614Y-44215589D02*
X68847376Y-44263208D01*
X68847376Y-44263208D02*
X68704519Y-44263208D01*
X68704519Y-44263208D02*
X68609281Y-44215589D01*
X69037852Y-43882256D02*
X68942614Y-43929875D01*
X68942614Y-43929875D02*
X68752138Y-43929875D01*
X68752138Y-43929875D02*
X68656900Y-43882256D01*
X68656900Y-43882256D02*
X68609281Y-43834636D01*
X68609281Y-43834636D02*
X68561662Y-43739398D01*
X68561662Y-43739398D02*
X68561662Y-43453684D01*
X68561662Y-43453684D02*
X68609281Y-43358446D01*
X68609281Y-43358446D02*
X68656900Y-43310827D01*
X68656900Y-43310827D02*
X68752138Y-43263208D01*
X68752138Y-43263208D02*
X68942614Y-43263208D01*
X68942614Y-43263208D02*
X69037852Y-43310827D01*
X55894993Y-45920771D02*
X55847374Y-45873152D01*
X55847374Y-45873152D02*
X55752136Y-45730295D01*
X55752136Y-45730295D02*
X55704517Y-45635057D01*
X55704517Y-45635057D02*
X55656898Y-45492200D01*
X55656898Y-45492200D02*
X55609279Y-45254104D01*
X55609279Y-45254104D02*
X55609279Y-45063628D01*
X55609279Y-45063628D02*
X55656898Y-44825533D01*
X55656898Y-44825533D02*
X55704517Y-44682676D01*
X55704517Y-44682676D02*
X55752136Y-44587438D01*
X55752136Y-44587438D02*
X55847374Y-44444580D01*
X55847374Y-44444580D02*
X55894993Y-44396961D01*
X56847374Y-45444580D02*
X56799755Y-45492200D01*
X56799755Y-45492200D02*
X56656898Y-45539819D01*
X56656898Y-45539819D02*
X56561660Y-45539819D01*
X56561660Y-45539819D02*
X56418803Y-45492200D01*
X56418803Y-45492200D02*
X56323565Y-45396961D01*
X56323565Y-45396961D02*
X56275946Y-45301723D01*
X56275946Y-45301723D02*
X56228327Y-45111247D01*
X56228327Y-45111247D02*
X56228327Y-44968390D01*
X56228327Y-44968390D02*
X56275946Y-44777914D01*
X56275946Y-44777914D02*
X56323565Y-44682676D01*
X56323565Y-44682676D02*
X56418803Y-44587438D01*
X56418803Y-44587438D02*
X56561660Y-44539819D01*
X56561660Y-44539819D02*
X56656898Y-44539819D01*
X56656898Y-44539819D02*
X56799755Y-44587438D01*
X56799755Y-44587438D02*
X56847374Y-44635057D01*
X57180708Y-45920771D02*
X57228327Y-45873152D01*
X57228327Y-45873152D02*
X57323565Y-45730295D01*
X57323565Y-45730295D02*
X57371184Y-45635057D01*
X57371184Y-45635057D02*
X57418803Y-45492200D01*
X57418803Y-45492200D02*
X57466422Y-45254104D01*
X57466422Y-45254104D02*
X57466422Y-45063628D01*
X57466422Y-45063628D02*
X57418803Y-44825533D01*
X57418803Y-44825533D02*
X57371184Y-44682676D01*
X57371184Y-44682676D02*
X57323565Y-44587438D01*
X57323565Y-44587438D02*
X57228327Y-44444580D01*
X57228327Y-44444580D02*
X57180708Y-44396961D01*
X58656899Y-44635057D02*
X58704518Y-44587438D01*
X58704518Y-44587438D02*
X58799756Y-44539819D01*
X58799756Y-44539819D02*
X59037851Y-44539819D01*
X59037851Y-44539819D02*
X59133089Y-44587438D01*
X59133089Y-44587438D02*
X59180708Y-44635057D01*
X59180708Y-44635057D02*
X59228327Y-44730295D01*
X59228327Y-44730295D02*
X59228327Y-44825533D01*
X59228327Y-44825533D02*
X59180708Y-44968390D01*
X59180708Y-44968390D02*
X58609280Y-45539819D01*
X58609280Y-45539819D02*
X59228327Y-45539819D01*
X59847375Y-44539819D02*
X59942613Y-44539819D01*
X59942613Y-44539819D02*
X60037851Y-44587438D01*
X60037851Y-44587438D02*
X60085470Y-44635057D01*
X60085470Y-44635057D02*
X60133089Y-44730295D01*
X60133089Y-44730295D02*
X60180708Y-44920771D01*
X60180708Y-44920771D02*
X60180708Y-45158866D01*
X60180708Y-45158866D02*
X60133089Y-45349342D01*
X60133089Y-45349342D02*
X60085470Y-45444580D01*
X60085470Y-45444580D02*
X60037851Y-45492200D01*
X60037851Y-45492200D02*
X59942613Y-45539819D01*
X59942613Y-45539819D02*
X59847375Y-45539819D01*
X59847375Y-45539819D02*
X59752137Y-45492200D01*
X59752137Y-45492200D02*
X59704518Y-45444580D01*
X59704518Y-45444580D02*
X59656899Y-45349342D01*
X59656899Y-45349342D02*
X59609280Y-45158866D01*
X59609280Y-45158866D02*
X59609280Y-44920771D01*
X59609280Y-44920771D02*
X59656899Y-44730295D01*
X59656899Y-44730295D02*
X59704518Y-44635057D01*
X59704518Y-44635057D02*
X59752137Y-44587438D01*
X59752137Y-44587438D02*
X59847375Y-44539819D01*
X60561661Y-44635057D02*
X60609280Y-44587438D01*
X60609280Y-44587438D02*
X60704518Y-44539819D01*
X60704518Y-44539819D02*
X60942613Y-44539819D01*
X60942613Y-44539819D02*
X61037851Y-44587438D01*
X61037851Y-44587438D02*
X61085470Y-44635057D01*
X61085470Y-44635057D02*
X61133089Y-44730295D01*
X61133089Y-44730295D02*
X61133089Y-44825533D01*
X61133089Y-44825533D02*
X61085470Y-44968390D01*
X61085470Y-44968390D02*
X60514042Y-45539819D01*
X60514042Y-45539819D02*
X61133089Y-45539819D01*
X61990232Y-44873152D02*
X61990232Y-45539819D01*
X61752137Y-44492200D02*
X61514042Y-45206485D01*
X61514042Y-45206485D02*
X62133089Y-45206485D01*
X63275947Y-45539819D02*
X63275947Y-44539819D01*
X63275947Y-44539819D02*
X63609280Y-45254104D01*
X63609280Y-45254104D02*
X63942613Y-44539819D01*
X63942613Y-44539819D02*
X63942613Y-45539819D01*
X64561661Y-45539819D02*
X64466423Y-45492200D01*
X64466423Y-45492200D02*
X64418804Y-45444580D01*
X64418804Y-45444580D02*
X64371185Y-45349342D01*
X64371185Y-45349342D02*
X64371185Y-45063628D01*
X64371185Y-45063628D02*
X64418804Y-44968390D01*
X64418804Y-44968390D02*
X64466423Y-44920771D01*
X64466423Y-44920771D02*
X64561661Y-44873152D01*
X64561661Y-44873152D02*
X64704518Y-44873152D01*
X64704518Y-44873152D02*
X64799756Y-44920771D01*
X64799756Y-44920771D02*
X64847375Y-44968390D01*
X64847375Y-44968390D02*
X64894994Y-45063628D01*
X64894994Y-45063628D02*
X64894994Y-45349342D01*
X64894994Y-45349342D02*
X64847375Y-45444580D01*
X64847375Y-45444580D02*
X64799756Y-45492200D01*
X64799756Y-45492200D02*
X64704518Y-45539819D01*
X64704518Y-45539819D02*
X64561661Y-45539819D01*
X65752137Y-45539819D02*
X65752137Y-44539819D01*
X65752137Y-45492200D02*
X65656899Y-45539819D01*
X65656899Y-45539819D02*
X65466423Y-45539819D01*
X65466423Y-45539819D02*
X65371185Y-45492200D01*
X65371185Y-45492200D02*
X65323566Y-45444580D01*
X65323566Y-45444580D02*
X65275947Y-45349342D01*
X65275947Y-45349342D02*
X65275947Y-45063628D01*
X65275947Y-45063628D02*
X65323566Y-44968390D01*
X65323566Y-44968390D02*
X65371185Y-44920771D01*
X65371185Y-44920771D02*
X65466423Y-44873152D01*
X65466423Y-44873152D02*
X65656899Y-44873152D01*
X65656899Y-44873152D02*
X65752137Y-44920771D01*
X66656899Y-44873152D02*
X66656899Y-45539819D01*
X66228328Y-44873152D02*
X66228328Y-45396961D01*
X66228328Y-45396961D02*
X66275947Y-45492200D01*
X66275947Y-45492200D02*
X66371185Y-45539819D01*
X66371185Y-45539819D02*
X66514042Y-45539819D01*
X66514042Y-45539819D02*
X66609280Y-45492200D01*
X66609280Y-45492200D02*
X66656899Y-45444580D01*
X67275947Y-45539819D02*
X67180709Y-45492200D01*
X67180709Y-45492200D02*
X67133090Y-45396961D01*
X67133090Y-45396961D02*
X67133090Y-44539819D01*
X68085471Y-45539819D02*
X68085471Y-45016009D01*
X68085471Y-45016009D02*
X68037852Y-44920771D01*
X68037852Y-44920771D02*
X67942614Y-44873152D01*
X67942614Y-44873152D02*
X67752138Y-44873152D01*
X67752138Y-44873152D02*
X67656900Y-44920771D01*
X68085471Y-45492200D02*
X67990233Y-45539819D01*
X67990233Y-45539819D02*
X67752138Y-45539819D01*
X67752138Y-45539819D02*
X67656900Y-45492200D01*
X67656900Y-45492200D02*
X67609281Y-45396961D01*
X67609281Y-45396961D02*
X67609281Y-45301723D01*
X67609281Y-45301723D02*
X67656900Y-45206485D01*
X67656900Y-45206485D02*
X67752138Y-45158866D01*
X67752138Y-45158866D02*
X67990233Y-45158866D01*
X67990233Y-45158866D02*
X68085471Y-45111247D01*
X68561662Y-45539819D02*
X68561662Y-44873152D01*
X68561662Y-45063628D02*
X68609281Y-44968390D01*
X68609281Y-44968390D02*
X68656900Y-44920771D01*
X68656900Y-44920771D02*
X68752138Y-44873152D01*
X68752138Y-44873152D02*
X68847376Y-44873152D01*
X70514043Y-45444580D02*
X70466424Y-45492200D01*
X70466424Y-45492200D02*
X70323567Y-45539819D01*
X70323567Y-45539819D02*
X70228329Y-45539819D01*
X70228329Y-45539819D02*
X70085472Y-45492200D01*
X70085472Y-45492200D02*
X69990234Y-45396961D01*
X69990234Y-45396961D02*
X69942615Y-45301723D01*
X69942615Y-45301723D02*
X69894996Y-45111247D01*
X69894996Y-45111247D02*
X69894996Y-44968390D01*
X69894996Y-44968390D02*
X69942615Y-44777914D01*
X69942615Y-44777914D02*
X69990234Y-44682676D01*
X69990234Y-44682676D02*
X70085472Y-44587438D01*
X70085472Y-44587438D02*
X70228329Y-44539819D01*
X70228329Y-44539819D02*
X70323567Y-44539819D01*
X70323567Y-44539819D02*
X70466424Y-44587438D01*
X70466424Y-44587438D02*
X70514043Y-44635057D01*
X70942615Y-45539819D02*
X70942615Y-44873152D01*
X70942615Y-44539819D02*
X70894996Y-44587438D01*
X70894996Y-44587438D02*
X70942615Y-44635057D01*
X70942615Y-44635057D02*
X70990234Y-44587438D01*
X70990234Y-44587438D02*
X70942615Y-44539819D01*
X70942615Y-44539819D02*
X70942615Y-44635057D01*
X71418805Y-45539819D02*
X71418805Y-44873152D01*
X71418805Y-45063628D02*
X71466424Y-44968390D01*
X71466424Y-44968390D02*
X71514043Y-44920771D01*
X71514043Y-44920771D02*
X71609281Y-44873152D01*
X71609281Y-44873152D02*
X71704519Y-44873152D01*
X72466424Y-45492200D02*
X72371186Y-45539819D01*
X72371186Y-45539819D02*
X72180710Y-45539819D01*
X72180710Y-45539819D02*
X72085472Y-45492200D01*
X72085472Y-45492200D02*
X72037853Y-45444580D01*
X72037853Y-45444580D02*
X71990234Y-45349342D01*
X71990234Y-45349342D02*
X71990234Y-45063628D01*
X71990234Y-45063628D02*
X72037853Y-44968390D01*
X72037853Y-44968390D02*
X72085472Y-44920771D01*
X72085472Y-44920771D02*
X72180710Y-44873152D01*
X72180710Y-44873152D02*
X72371186Y-44873152D01*
X72371186Y-44873152D02*
X72466424Y-44920771D01*
X73323567Y-44873152D02*
X73323567Y-45539819D01*
X72894996Y-44873152D02*
X72894996Y-45396961D01*
X72894996Y-45396961D02*
X72942615Y-45492200D01*
X72942615Y-45492200D02*
X73037853Y-45539819D01*
X73037853Y-45539819D02*
X73180710Y-45539819D01*
X73180710Y-45539819D02*
X73275948Y-45492200D01*
X73275948Y-45492200D02*
X73323567Y-45444580D01*
X73799758Y-45539819D02*
X73799758Y-44873152D01*
X73799758Y-44539819D02*
X73752139Y-44587438D01*
X73752139Y-44587438D02*
X73799758Y-44635057D01*
X73799758Y-44635057D02*
X73847377Y-44587438D01*
X73847377Y-44587438D02*
X73799758Y-44539819D01*
X73799758Y-44539819D02*
X73799758Y-44635057D01*
X74133091Y-44873152D02*
X74514043Y-44873152D01*
X74275948Y-44539819D02*
X74275948Y-45396961D01*
X74275948Y-45396961D02*
X74323567Y-45492200D01*
X74323567Y-45492200D02*
X74418805Y-45539819D01*
X74418805Y-45539819D02*
X74514043Y-45539819D01*
X74799758Y-45492200D02*
X74894996Y-45539819D01*
X74894996Y-45539819D02*
X75085472Y-45539819D01*
X75085472Y-45539819D02*
X75180710Y-45492200D01*
X75180710Y-45492200D02*
X75228329Y-45396961D01*
X75228329Y-45396961D02*
X75228329Y-45349342D01*
X75228329Y-45349342D02*
X75180710Y-45254104D01*
X75180710Y-45254104D02*
X75085472Y-45206485D01*
X75085472Y-45206485D02*
X74942615Y-45206485D01*
X74942615Y-45206485D02*
X74847377Y-45158866D01*
X74847377Y-45158866D02*
X74799758Y-45063628D01*
X74799758Y-45063628D02*
X74799758Y-45016009D01*
X74799758Y-45016009D02*
X74847377Y-44920771D01*
X74847377Y-44920771D02*
X74942615Y-44873152D01*
X74942615Y-44873152D02*
X75085472Y-44873152D01*
X75085472Y-44873152D02*
X75180710Y-44920771D01*
D12*
X39063338Y-57617324D02*
X39063338Y-57367324D01*
X39206195Y-57617324D02*
X39099053Y-57474467D01*
X39206195Y-57367324D02*
X39063338Y-57510181D01*
X40551434Y-57545896D02*
X40670481Y-57545896D01*
X40527624Y-57617324D02*
X40610957Y-57367324D01*
X40610957Y-57367324D02*
X40694291Y-57617324D01*
D11*
X90674319Y-66747618D02*
X90674319Y-67319046D01*
X90674319Y-67033332D02*
X89674319Y-67033332D01*
X89674319Y-67033332D02*
X89817176Y-67128570D01*
X89817176Y-67128570D02*
X89912414Y-67223808D01*
X89912414Y-67223808D02*
X89960033Y-67319046D01*
X90674319Y-65795237D02*
X90674319Y-66366665D01*
X90674319Y-66080951D02*
X89674319Y-66080951D01*
X89674319Y-66080951D02*
X89817176Y-66176189D01*
X89817176Y-66176189D02*
X89912414Y-66271427D01*
X89912414Y-66271427D02*
X89960033Y-66366665D01*
X90579080Y-65366665D02*
X90626700Y-65319046D01*
X90626700Y-65319046D02*
X90674319Y-65366665D01*
X90674319Y-65366665D02*
X90626700Y-65414284D01*
X90626700Y-65414284D02*
X90579080Y-65366665D01*
X90579080Y-65366665D02*
X90674319Y-65366665D01*
X90674319Y-64366666D02*
X90674319Y-64938094D01*
X90674319Y-64652380D02*
X89674319Y-64652380D01*
X89674319Y-64652380D02*
X89817176Y-64747618D01*
X89817176Y-64747618D02*
X89912414Y-64842856D01*
X89912414Y-64842856D02*
X89960033Y-64938094D01*
X89674319Y-64033332D02*
X89674319Y-63366666D01*
X89674319Y-63366666D02*
X90674319Y-63795237D01*
X89674319Y-62557142D02*
X89674319Y-62747618D01*
X89674319Y-62747618D02*
X89721938Y-62842856D01*
X89721938Y-62842856D02*
X89769557Y-62890475D01*
X89769557Y-62890475D02*
X89912414Y-62985713D01*
X89912414Y-62985713D02*
X90102890Y-63033332D01*
X90102890Y-63033332D02*
X90483842Y-63033332D01*
X90483842Y-63033332D02*
X90579080Y-62985713D01*
X90579080Y-62985713D02*
X90626700Y-62938094D01*
X90626700Y-62938094D02*
X90674319Y-62842856D01*
X90674319Y-62842856D02*
X90674319Y-62652380D01*
X90674319Y-62652380D02*
X90626700Y-62557142D01*
X90626700Y-62557142D02*
X90579080Y-62509523D01*
X90579080Y-62509523D02*
X90483842Y-62461904D01*
X90483842Y-62461904D02*
X90245747Y-62461904D01*
X90245747Y-62461904D02*
X90150509Y-62509523D01*
X90150509Y-62509523D02*
X90102890Y-62557142D01*
X90102890Y-62557142D02*
X90055271Y-62652380D01*
X90055271Y-62652380D02*
X90055271Y-62842856D01*
X90055271Y-62842856D02*
X90102890Y-62938094D01*
X90102890Y-62938094D02*
X90150509Y-62985713D01*
X90150509Y-62985713D02*
X90245747Y-63033332D01*
X89674319Y-61842856D02*
X89674319Y-61747618D01*
X89674319Y-61747618D02*
X89721938Y-61652380D01*
X89721938Y-61652380D02*
X89769557Y-61604761D01*
X89769557Y-61604761D02*
X89864795Y-61557142D01*
X89864795Y-61557142D02*
X90055271Y-61509523D01*
X90055271Y-61509523D02*
X90293366Y-61509523D01*
X90293366Y-61509523D02*
X90483842Y-61557142D01*
X90483842Y-61557142D02*
X90579080Y-61604761D01*
X90579080Y-61604761D02*
X90626700Y-61652380D01*
X90626700Y-61652380D02*
X90674319Y-61747618D01*
X90674319Y-61747618D02*
X90674319Y-61842856D01*
X90674319Y-61842856D02*
X90626700Y-61938094D01*
X90626700Y-61938094D02*
X90579080Y-61985713D01*
X90579080Y-61985713D02*
X90483842Y-62033332D01*
X90483842Y-62033332D02*
X90293366Y-62080951D01*
X90293366Y-62080951D02*
X90055271Y-62080951D01*
X90055271Y-62080951D02*
X89864795Y-62033332D01*
X89864795Y-62033332D02*
X89769557Y-61985713D01*
X89769557Y-61985713D02*
X89721938Y-61938094D01*
X89721938Y-61938094D02*
X89674319Y-61842856D01*
X90674319Y-60319046D02*
X90007652Y-60319046D01*
X90102890Y-60319046D02*
X90055271Y-60271427D01*
X90055271Y-60271427D02*
X90007652Y-60176189D01*
X90007652Y-60176189D02*
X90007652Y-60033332D01*
X90007652Y-60033332D02*
X90055271Y-59938094D01*
X90055271Y-59938094D02*
X90150509Y-59890475D01*
X90150509Y-59890475D02*
X90674319Y-59890475D01*
X90150509Y-59890475D02*
X90055271Y-59842856D01*
X90055271Y-59842856D02*
X90007652Y-59747618D01*
X90007652Y-59747618D02*
X90007652Y-59604761D01*
X90007652Y-59604761D02*
X90055271Y-59509522D01*
X90055271Y-59509522D02*
X90150509Y-59461903D01*
X90150509Y-59461903D02*
X90674319Y-59461903D01*
X90674319Y-58985713D02*
X90007652Y-58985713D01*
X90102890Y-58985713D02*
X90055271Y-58938094D01*
X90055271Y-58938094D02*
X90007652Y-58842856D01*
X90007652Y-58842856D02*
X90007652Y-58699999D01*
X90007652Y-58699999D02*
X90055271Y-58604761D01*
X90055271Y-58604761D02*
X90150509Y-58557142D01*
X90150509Y-58557142D02*
X90674319Y-58557142D01*
X90150509Y-58557142D02*
X90055271Y-58509523D01*
X90055271Y-58509523D02*
X90007652Y-58414285D01*
X90007652Y-58414285D02*
X90007652Y-58271428D01*
X90007652Y-58271428D02*
X90055271Y-58176189D01*
X90055271Y-58176189D02*
X90150509Y-58128570D01*
X90150509Y-58128570D02*
X90674319Y-58128570D01*
D10*
X88694500Y-68288000D02*
X91955920Y-68288000D01*
X88694500Y-57112000D02*
X91955920Y-57112000D01*
X91369500Y-68288000D02*
X91369500Y-57112000D01*
X91369500Y-68288000D02*
X91369500Y-57112000D01*
X91369500Y-68288000D02*
X90783079Y-67161496D01*
X91369500Y-68288000D02*
X91955921Y-67161496D01*
X91369500Y-57112000D02*
X91955921Y-58238504D01*
X91369500Y-57112000D02*
X90783079Y-58238504D01*
D11*
X93468319Y-66747618D02*
X93468319Y-67319046D01*
X93468319Y-67033332D02*
X92468319Y-67033332D01*
X92468319Y-67033332D02*
X92611176Y-67128570D01*
X92611176Y-67128570D02*
X92706414Y-67223808D01*
X92706414Y-67223808D02*
X92754033Y-67319046D01*
X92468319Y-65842856D02*
X92468319Y-66319046D01*
X92468319Y-66319046D02*
X92944509Y-66366665D01*
X92944509Y-66366665D02*
X92896890Y-66319046D01*
X92896890Y-66319046D02*
X92849271Y-66223808D01*
X92849271Y-66223808D02*
X92849271Y-65985713D01*
X92849271Y-65985713D02*
X92896890Y-65890475D01*
X92896890Y-65890475D02*
X92944509Y-65842856D01*
X92944509Y-65842856D02*
X93039747Y-65795237D01*
X93039747Y-65795237D02*
X93277842Y-65795237D01*
X93277842Y-65795237D02*
X93373080Y-65842856D01*
X93373080Y-65842856D02*
X93420700Y-65890475D01*
X93420700Y-65890475D02*
X93468319Y-65985713D01*
X93468319Y-65985713D02*
X93468319Y-66223808D01*
X93468319Y-66223808D02*
X93420700Y-66319046D01*
X93420700Y-66319046D02*
X93373080Y-66366665D01*
X93373080Y-65366665D02*
X93420700Y-65319046D01*
X93420700Y-65319046D02*
X93468319Y-65366665D01*
X93468319Y-65366665D02*
X93420700Y-65414284D01*
X93420700Y-65414284D02*
X93373080Y-65366665D01*
X93373080Y-65366665D02*
X93468319Y-65366665D01*
X92563557Y-64938094D02*
X92515938Y-64890475D01*
X92515938Y-64890475D02*
X92468319Y-64795237D01*
X92468319Y-64795237D02*
X92468319Y-64557142D01*
X92468319Y-64557142D02*
X92515938Y-64461904D01*
X92515938Y-64461904D02*
X92563557Y-64414285D01*
X92563557Y-64414285D02*
X92658795Y-64366666D01*
X92658795Y-64366666D02*
X92754033Y-64366666D01*
X92754033Y-64366666D02*
X92896890Y-64414285D01*
X92896890Y-64414285D02*
X93468319Y-64985713D01*
X93468319Y-64985713D02*
X93468319Y-64366666D01*
X92801652Y-63509523D02*
X93468319Y-63509523D01*
X92420700Y-63747618D02*
X93134985Y-63985713D01*
X93134985Y-63985713D02*
X93134985Y-63366666D01*
X92468319Y-62795237D02*
X92468319Y-62699999D01*
X92468319Y-62699999D02*
X92515938Y-62604761D01*
X92515938Y-62604761D02*
X92563557Y-62557142D01*
X92563557Y-62557142D02*
X92658795Y-62509523D01*
X92658795Y-62509523D02*
X92849271Y-62461904D01*
X92849271Y-62461904D02*
X93087366Y-62461904D01*
X93087366Y-62461904D02*
X93277842Y-62509523D01*
X93277842Y-62509523D02*
X93373080Y-62557142D01*
X93373080Y-62557142D02*
X93420700Y-62604761D01*
X93420700Y-62604761D02*
X93468319Y-62699999D01*
X93468319Y-62699999D02*
X93468319Y-62795237D01*
X93468319Y-62795237D02*
X93420700Y-62890475D01*
X93420700Y-62890475D02*
X93373080Y-62938094D01*
X93373080Y-62938094D02*
X93277842Y-62985713D01*
X93277842Y-62985713D02*
X93087366Y-63033332D01*
X93087366Y-63033332D02*
X92849271Y-63033332D01*
X92849271Y-63033332D02*
X92658795Y-62985713D01*
X92658795Y-62985713D02*
X92563557Y-62938094D01*
X92563557Y-62938094D02*
X92515938Y-62890475D01*
X92515938Y-62890475D02*
X92468319Y-62795237D01*
X92468319Y-61842856D02*
X92468319Y-61747618D01*
X92468319Y-61747618D02*
X92515938Y-61652380D01*
X92515938Y-61652380D02*
X92563557Y-61604761D01*
X92563557Y-61604761D02*
X92658795Y-61557142D01*
X92658795Y-61557142D02*
X92849271Y-61509523D01*
X92849271Y-61509523D02*
X93087366Y-61509523D01*
X93087366Y-61509523D02*
X93277842Y-61557142D01*
X93277842Y-61557142D02*
X93373080Y-61604761D01*
X93373080Y-61604761D02*
X93420700Y-61652380D01*
X93420700Y-61652380D02*
X93468319Y-61747618D01*
X93468319Y-61747618D02*
X93468319Y-61842856D01*
X93468319Y-61842856D02*
X93420700Y-61938094D01*
X93420700Y-61938094D02*
X93373080Y-61985713D01*
X93373080Y-61985713D02*
X93277842Y-62033332D01*
X93277842Y-62033332D02*
X93087366Y-62080951D01*
X93087366Y-62080951D02*
X92849271Y-62080951D01*
X92849271Y-62080951D02*
X92658795Y-62033332D01*
X92658795Y-62033332D02*
X92563557Y-61985713D01*
X92563557Y-61985713D02*
X92515938Y-61938094D01*
X92515938Y-61938094D02*
X92468319Y-61842856D01*
X93468319Y-60319046D02*
X92801652Y-60319046D01*
X92896890Y-60319046D02*
X92849271Y-60271427D01*
X92849271Y-60271427D02*
X92801652Y-60176189D01*
X92801652Y-60176189D02*
X92801652Y-60033332D01*
X92801652Y-60033332D02*
X92849271Y-59938094D01*
X92849271Y-59938094D02*
X92944509Y-59890475D01*
X92944509Y-59890475D02*
X93468319Y-59890475D01*
X92944509Y-59890475D02*
X92849271Y-59842856D01*
X92849271Y-59842856D02*
X92801652Y-59747618D01*
X92801652Y-59747618D02*
X92801652Y-59604761D01*
X92801652Y-59604761D02*
X92849271Y-59509522D01*
X92849271Y-59509522D02*
X92944509Y-59461903D01*
X92944509Y-59461903D02*
X93468319Y-59461903D01*
X93468319Y-58985713D02*
X92801652Y-58985713D01*
X92896890Y-58985713D02*
X92849271Y-58938094D01*
X92849271Y-58938094D02*
X92801652Y-58842856D01*
X92801652Y-58842856D02*
X92801652Y-58699999D01*
X92801652Y-58699999D02*
X92849271Y-58604761D01*
X92849271Y-58604761D02*
X92944509Y-58557142D01*
X92944509Y-58557142D02*
X93468319Y-58557142D01*
X92944509Y-58557142D02*
X92849271Y-58509523D01*
X92849271Y-58509523D02*
X92801652Y-58414285D01*
X92801652Y-58414285D02*
X92801652Y-58271428D01*
X92801652Y-58271428D02*
X92849271Y-58176189D01*
X92849271Y-58176189D02*
X92944509Y-58128570D01*
X92944509Y-58128570D02*
X93468319Y-58128570D01*
D10*
X86789500Y-70320000D02*
X94749920Y-70320000D01*
X86789500Y-55080000D02*
X94749920Y-55080000D01*
X94163500Y-70320000D02*
X94163500Y-55080000D01*
X94163500Y-70320000D02*
X94163500Y-55080000D01*
X94163500Y-70320000D02*
X93577079Y-69193496D01*
X94163500Y-70320000D02*
X94749921Y-69193496D01*
X94163500Y-55080000D02*
X94749921Y-56206504D01*
X94163500Y-55080000D02*
X93577079Y-56206504D01*
D11*
X59207262Y-49320819D02*
X58731072Y-49320819D01*
X58731072Y-49320819D02*
X58683453Y-49797009D01*
X58683453Y-49797009D02*
X58731072Y-49749390D01*
X58731072Y-49749390D02*
X58826310Y-49701771D01*
X58826310Y-49701771D02*
X59064405Y-49701771D01*
X59064405Y-49701771D02*
X59159643Y-49749390D01*
X59159643Y-49749390D02*
X59207262Y-49797009D01*
X59207262Y-49797009D02*
X59254881Y-49892247D01*
X59254881Y-49892247D02*
X59254881Y-50130342D01*
X59254881Y-50130342D02*
X59207262Y-50225580D01*
X59207262Y-50225580D02*
X59159643Y-50273200D01*
X59159643Y-50273200D02*
X59064405Y-50320819D01*
X59064405Y-50320819D02*
X58826310Y-50320819D01*
X58826310Y-50320819D02*
X58731072Y-50273200D01*
X58731072Y-50273200D02*
X58683453Y-50225580D01*
X59873929Y-49320819D02*
X59969167Y-49320819D01*
X59969167Y-49320819D02*
X60064405Y-49368438D01*
X60064405Y-49368438D02*
X60112024Y-49416057D01*
X60112024Y-49416057D02*
X60159643Y-49511295D01*
X60159643Y-49511295D02*
X60207262Y-49701771D01*
X60207262Y-49701771D02*
X60207262Y-49939866D01*
X60207262Y-49939866D02*
X60159643Y-50130342D01*
X60159643Y-50130342D02*
X60112024Y-50225580D01*
X60112024Y-50225580D02*
X60064405Y-50273200D01*
X60064405Y-50273200D02*
X59969167Y-50320819D01*
X59969167Y-50320819D02*
X59873929Y-50320819D01*
X59873929Y-50320819D02*
X59778691Y-50273200D01*
X59778691Y-50273200D02*
X59731072Y-50225580D01*
X59731072Y-50225580D02*
X59683453Y-50130342D01*
X59683453Y-50130342D02*
X59635834Y-49939866D01*
X59635834Y-49939866D02*
X59635834Y-49701771D01*
X59635834Y-49701771D02*
X59683453Y-49511295D01*
X59683453Y-49511295D02*
X59731072Y-49416057D01*
X59731072Y-49416057D02*
X59778691Y-49368438D01*
X59778691Y-49368438D02*
X59873929Y-49320819D01*
X60635834Y-50225580D02*
X60683453Y-50273200D01*
X60683453Y-50273200D02*
X60635834Y-50320819D01*
X60635834Y-50320819D02*
X60588215Y-50273200D01*
X60588215Y-50273200D02*
X60635834Y-50225580D01*
X60635834Y-50225580D02*
X60635834Y-50320819D01*
X61302500Y-49320819D02*
X61397738Y-49320819D01*
X61397738Y-49320819D02*
X61492976Y-49368438D01*
X61492976Y-49368438D02*
X61540595Y-49416057D01*
X61540595Y-49416057D02*
X61588214Y-49511295D01*
X61588214Y-49511295D02*
X61635833Y-49701771D01*
X61635833Y-49701771D02*
X61635833Y-49939866D01*
X61635833Y-49939866D02*
X61588214Y-50130342D01*
X61588214Y-50130342D02*
X61540595Y-50225580D01*
X61540595Y-50225580D02*
X61492976Y-50273200D01*
X61492976Y-50273200D02*
X61397738Y-50320819D01*
X61397738Y-50320819D02*
X61302500Y-50320819D01*
X61302500Y-50320819D02*
X61207262Y-50273200D01*
X61207262Y-50273200D02*
X61159643Y-50225580D01*
X61159643Y-50225580D02*
X61112024Y-50130342D01*
X61112024Y-50130342D02*
X61064405Y-49939866D01*
X61064405Y-49939866D02*
X61064405Y-49701771D01*
X61064405Y-49701771D02*
X61112024Y-49511295D01*
X61112024Y-49511295D02*
X61159643Y-49416057D01*
X61159643Y-49416057D02*
X61207262Y-49368438D01*
X61207262Y-49368438D02*
X61302500Y-49320819D01*
X61969167Y-49320819D02*
X62588214Y-49320819D01*
X62588214Y-49320819D02*
X62254881Y-49701771D01*
X62254881Y-49701771D02*
X62397738Y-49701771D01*
X62397738Y-49701771D02*
X62492976Y-49749390D01*
X62492976Y-49749390D02*
X62540595Y-49797009D01*
X62540595Y-49797009D02*
X62588214Y-49892247D01*
X62588214Y-49892247D02*
X62588214Y-50130342D01*
X62588214Y-50130342D02*
X62540595Y-50225580D01*
X62540595Y-50225580D02*
X62492976Y-50273200D01*
X62492976Y-50273200D02*
X62397738Y-50320819D01*
X62397738Y-50320819D02*
X62112024Y-50320819D01*
X62112024Y-50320819D02*
X62016786Y-50273200D01*
X62016786Y-50273200D02*
X61969167Y-50225580D01*
X63159643Y-49749390D02*
X63064405Y-49701771D01*
X63064405Y-49701771D02*
X63016786Y-49654152D01*
X63016786Y-49654152D02*
X62969167Y-49558914D01*
X62969167Y-49558914D02*
X62969167Y-49511295D01*
X62969167Y-49511295D02*
X63016786Y-49416057D01*
X63016786Y-49416057D02*
X63064405Y-49368438D01*
X63064405Y-49368438D02*
X63159643Y-49320819D01*
X63159643Y-49320819D02*
X63350119Y-49320819D01*
X63350119Y-49320819D02*
X63445357Y-49368438D01*
X63445357Y-49368438D02*
X63492976Y-49416057D01*
X63492976Y-49416057D02*
X63540595Y-49511295D01*
X63540595Y-49511295D02*
X63540595Y-49558914D01*
X63540595Y-49558914D02*
X63492976Y-49654152D01*
X63492976Y-49654152D02*
X63445357Y-49701771D01*
X63445357Y-49701771D02*
X63350119Y-49749390D01*
X63350119Y-49749390D02*
X63159643Y-49749390D01*
X63159643Y-49749390D02*
X63064405Y-49797009D01*
X63064405Y-49797009D02*
X63016786Y-49844628D01*
X63016786Y-49844628D02*
X62969167Y-49939866D01*
X62969167Y-49939866D02*
X62969167Y-50130342D01*
X62969167Y-50130342D02*
X63016786Y-50225580D01*
X63016786Y-50225580D02*
X63064405Y-50273200D01*
X63064405Y-50273200D02*
X63159643Y-50320819D01*
X63159643Y-50320819D02*
X63350119Y-50320819D01*
X63350119Y-50320819D02*
X63445357Y-50273200D01*
X63445357Y-50273200D02*
X63492976Y-50225580D01*
X63492976Y-50225580D02*
X63540595Y-50130342D01*
X63540595Y-50130342D02*
X63540595Y-49939866D01*
X63540595Y-49939866D02*
X63492976Y-49844628D01*
X63492976Y-49844628D02*
X63445357Y-49797009D01*
X63445357Y-49797009D02*
X63350119Y-49749390D01*
X64159643Y-49320819D02*
X64254881Y-49320819D01*
X64254881Y-49320819D02*
X64350119Y-49368438D01*
X64350119Y-49368438D02*
X64397738Y-49416057D01*
X64397738Y-49416057D02*
X64445357Y-49511295D01*
X64445357Y-49511295D02*
X64492976Y-49701771D01*
X64492976Y-49701771D02*
X64492976Y-49939866D01*
X64492976Y-49939866D02*
X64445357Y-50130342D01*
X64445357Y-50130342D02*
X64397738Y-50225580D01*
X64397738Y-50225580D02*
X64350119Y-50273200D01*
X64350119Y-50273200D02*
X64254881Y-50320819D01*
X64254881Y-50320819D02*
X64159643Y-50320819D01*
X64159643Y-50320819D02*
X64064405Y-50273200D01*
X64064405Y-50273200D02*
X64016786Y-50225580D01*
X64016786Y-50225580D02*
X63969167Y-50130342D01*
X63969167Y-50130342D02*
X63921548Y-49939866D01*
X63921548Y-49939866D02*
X63921548Y-49701771D01*
X63921548Y-49701771D02*
X63969167Y-49511295D01*
X63969167Y-49511295D02*
X64016786Y-49416057D01*
X64016786Y-49416057D02*
X64064405Y-49368438D01*
X64064405Y-49368438D02*
X64159643Y-49320819D01*
X65683453Y-50320819D02*
X65683453Y-49654152D01*
X65683453Y-49749390D02*
X65731072Y-49701771D01*
X65731072Y-49701771D02*
X65826310Y-49654152D01*
X65826310Y-49654152D02*
X65969167Y-49654152D01*
X65969167Y-49654152D02*
X66064405Y-49701771D01*
X66064405Y-49701771D02*
X66112024Y-49797009D01*
X66112024Y-49797009D02*
X66112024Y-50320819D01*
X66112024Y-49797009D02*
X66159643Y-49701771D01*
X66159643Y-49701771D02*
X66254881Y-49654152D01*
X66254881Y-49654152D02*
X66397738Y-49654152D01*
X66397738Y-49654152D02*
X66492977Y-49701771D01*
X66492977Y-49701771D02*
X66540596Y-49797009D01*
X66540596Y-49797009D02*
X66540596Y-50320819D01*
X67016786Y-50320819D02*
X67016786Y-49654152D01*
X67016786Y-49749390D02*
X67064405Y-49701771D01*
X67064405Y-49701771D02*
X67159643Y-49654152D01*
X67159643Y-49654152D02*
X67302500Y-49654152D01*
X67302500Y-49654152D02*
X67397738Y-49701771D01*
X67397738Y-49701771D02*
X67445357Y-49797009D01*
X67445357Y-49797009D02*
X67445357Y-50320819D01*
X67445357Y-49797009D02*
X67492976Y-49701771D01*
X67492976Y-49701771D02*
X67588214Y-49654152D01*
X67588214Y-49654152D02*
X67731071Y-49654152D01*
X67731071Y-49654152D02*
X67826310Y-49701771D01*
X67826310Y-49701771D02*
X67873929Y-49797009D01*
X67873929Y-49797009D02*
X67873929Y-50320819D01*
D10*
X38283500Y-55596000D02*
X38283500Y-50429580D01*
X88321500Y-55596000D02*
X88321500Y-50429580D01*
X38283500Y-51016000D02*
X88321500Y-51016000D01*
X38283500Y-51016000D02*
X88321500Y-51016000D01*
X38283500Y-51016000D02*
X39410004Y-50429579D01*
X38283500Y-51016000D02*
X39410004Y-51602421D01*
X88321500Y-51016000D02*
X87194996Y-51602421D01*
X88321500Y-51016000D02*
X87194996Y-50429579D01*
D11*
X59159643Y-52310310D02*
X59159643Y-52976977D01*
X58921548Y-51929358D02*
X58683453Y-52643643D01*
X58683453Y-52643643D02*
X59302500Y-52643643D01*
X59731072Y-52976977D02*
X59921548Y-52976977D01*
X59921548Y-52976977D02*
X60016786Y-52929358D01*
X60016786Y-52929358D02*
X60064405Y-52881738D01*
X60064405Y-52881738D02*
X60159643Y-52738881D01*
X60159643Y-52738881D02*
X60207262Y-52548405D01*
X60207262Y-52548405D02*
X60207262Y-52167453D01*
X60207262Y-52167453D02*
X60159643Y-52072215D01*
X60159643Y-52072215D02*
X60112024Y-52024596D01*
X60112024Y-52024596D02*
X60016786Y-51976977D01*
X60016786Y-51976977D02*
X59826310Y-51976977D01*
X59826310Y-51976977D02*
X59731072Y-52024596D01*
X59731072Y-52024596D02*
X59683453Y-52072215D01*
X59683453Y-52072215D02*
X59635834Y-52167453D01*
X59635834Y-52167453D02*
X59635834Y-52405548D01*
X59635834Y-52405548D02*
X59683453Y-52500786D01*
X59683453Y-52500786D02*
X59731072Y-52548405D01*
X59731072Y-52548405D02*
X59826310Y-52596024D01*
X59826310Y-52596024D02*
X60016786Y-52596024D01*
X60016786Y-52596024D02*
X60112024Y-52548405D01*
X60112024Y-52548405D02*
X60159643Y-52500786D01*
X60159643Y-52500786D02*
X60207262Y-52405548D01*
X60635834Y-52881738D02*
X60683453Y-52929358D01*
X60683453Y-52929358D02*
X60635834Y-52976977D01*
X60635834Y-52976977D02*
X60588215Y-52929358D01*
X60588215Y-52929358D02*
X60635834Y-52881738D01*
X60635834Y-52881738D02*
X60635834Y-52976977D01*
X61588214Y-51976977D02*
X61112024Y-51976977D01*
X61112024Y-51976977D02*
X61064405Y-52453167D01*
X61064405Y-52453167D02*
X61112024Y-52405548D01*
X61112024Y-52405548D02*
X61207262Y-52357929D01*
X61207262Y-52357929D02*
X61445357Y-52357929D01*
X61445357Y-52357929D02*
X61540595Y-52405548D01*
X61540595Y-52405548D02*
X61588214Y-52453167D01*
X61588214Y-52453167D02*
X61635833Y-52548405D01*
X61635833Y-52548405D02*
X61635833Y-52786500D01*
X61635833Y-52786500D02*
X61588214Y-52881738D01*
X61588214Y-52881738D02*
X61540595Y-52929358D01*
X61540595Y-52929358D02*
X61445357Y-52976977D01*
X61445357Y-52976977D02*
X61207262Y-52976977D01*
X61207262Y-52976977D02*
X61112024Y-52929358D01*
X61112024Y-52929358D02*
X61064405Y-52881738D01*
X61969167Y-51976977D02*
X62588214Y-51976977D01*
X62588214Y-51976977D02*
X62254881Y-52357929D01*
X62254881Y-52357929D02*
X62397738Y-52357929D01*
X62397738Y-52357929D02*
X62492976Y-52405548D01*
X62492976Y-52405548D02*
X62540595Y-52453167D01*
X62540595Y-52453167D02*
X62588214Y-52548405D01*
X62588214Y-52548405D02*
X62588214Y-52786500D01*
X62588214Y-52786500D02*
X62540595Y-52881738D01*
X62540595Y-52881738D02*
X62492976Y-52929358D01*
X62492976Y-52929358D02*
X62397738Y-52976977D01*
X62397738Y-52976977D02*
X62112024Y-52976977D01*
X62112024Y-52976977D02*
X62016786Y-52929358D01*
X62016786Y-52929358D02*
X61969167Y-52881738D01*
X63207262Y-51976977D02*
X63302500Y-51976977D01*
X63302500Y-51976977D02*
X63397738Y-52024596D01*
X63397738Y-52024596D02*
X63445357Y-52072215D01*
X63445357Y-52072215D02*
X63492976Y-52167453D01*
X63492976Y-52167453D02*
X63540595Y-52357929D01*
X63540595Y-52357929D02*
X63540595Y-52596024D01*
X63540595Y-52596024D02*
X63492976Y-52786500D01*
X63492976Y-52786500D02*
X63445357Y-52881738D01*
X63445357Y-52881738D02*
X63397738Y-52929358D01*
X63397738Y-52929358D02*
X63302500Y-52976977D01*
X63302500Y-52976977D02*
X63207262Y-52976977D01*
X63207262Y-52976977D02*
X63112024Y-52929358D01*
X63112024Y-52929358D02*
X63064405Y-52881738D01*
X63064405Y-52881738D02*
X63016786Y-52786500D01*
X63016786Y-52786500D02*
X62969167Y-52596024D01*
X62969167Y-52596024D02*
X62969167Y-52357929D01*
X62969167Y-52357929D02*
X63016786Y-52167453D01*
X63016786Y-52167453D02*
X63064405Y-52072215D01*
X63064405Y-52072215D02*
X63112024Y-52024596D01*
X63112024Y-52024596D02*
X63207262Y-51976977D01*
X64159643Y-51976977D02*
X64254881Y-51976977D01*
X64254881Y-51976977D02*
X64350119Y-52024596D01*
X64350119Y-52024596D02*
X64397738Y-52072215D01*
X64397738Y-52072215D02*
X64445357Y-52167453D01*
X64445357Y-52167453D02*
X64492976Y-52357929D01*
X64492976Y-52357929D02*
X64492976Y-52596024D01*
X64492976Y-52596024D02*
X64445357Y-52786500D01*
X64445357Y-52786500D02*
X64397738Y-52881738D01*
X64397738Y-52881738D02*
X64350119Y-52929358D01*
X64350119Y-52929358D02*
X64254881Y-52976977D01*
X64254881Y-52976977D02*
X64159643Y-52976977D01*
X64159643Y-52976977D02*
X64064405Y-52929358D01*
X64064405Y-52929358D02*
X64016786Y-52881738D01*
X64016786Y-52881738D02*
X63969167Y-52786500D01*
X63969167Y-52786500D02*
X63921548Y-52596024D01*
X63921548Y-52596024D02*
X63921548Y-52357929D01*
X63921548Y-52357929D02*
X63969167Y-52167453D01*
X63969167Y-52167453D02*
X64016786Y-52072215D01*
X64016786Y-52072215D02*
X64064405Y-52024596D01*
X64064405Y-52024596D02*
X64159643Y-51976977D01*
X65683453Y-52976977D02*
X65683453Y-52310310D01*
X65683453Y-52405548D02*
X65731072Y-52357929D01*
X65731072Y-52357929D02*
X65826310Y-52310310D01*
X65826310Y-52310310D02*
X65969167Y-52310310D01*
X65969167Y-52310310D02*
X66064405Y-52357929D01*
X66064405Y-52357929D02*
X66112024Y-52453167D01*
X66112024Y-52453167D02*
X66112024Y-52976977D01*
X66112024Y-52453167D02*
X66159643Y-52357929D01*
X66159643Y-52357929D02*
X66254881Y-52310310D01*
X66254881Y-52310310D02*
X66397738Y-52310310D01*
X66397738Y-52310310D02*
X66492977Y-52357929D01*
X66492977Y-52357929D02*
X66540596Y-52453167D01*
X66540596Y-52453167D02*
X66540596Y-52976977D01*
X67016786Y-52976977D02*
X67016786Y-52310310D01*
X67016786Y-52405548D02*
X67064405Y-52357929D01*
X67064405Y-52357929D02*
X67159643Y-52310310D01*
X67159643Y-52310310D02*
X67302500Y-52310310D01*
X67302500Y-52310310D02*
X67397738Y-52357929D01*
X67397738Y-52357929D02*
X67445357Y-52453167D01*
X67445357Y-52453167D02*
X67445357Y-52976977D01*
X67445357Y-52453167D02*
X67492976Y-52357929D01*
X67492976Y-52357929D02*
X67588214Y-52310310D01*
X67588214Y-52310310D02*
X67731071Y-52310310D01*
X67731071Y-52310310D02*
X67826310Y-52357929D01*
X67826310Y-52357929D02*
X67873929Y-52453167D01*
X67873929Y-52453167D02*
X67873929Y-52976977D01*
D10*
X38537500Y-62200000D02*
X38537500Y-53085738D01*
X88067500Y-62200000D02*
X88067500Y-53085738D01*
X38537500Y-53672158D02*
X88067500Y-53672158D01*
X38537500Y-53672158D02*
X88067500Y-53672158D01*
X38537500Y-53672158D02*
X39664004Y-53085737D01*
X38537500Y-53672158D02*
X39664004Y-54258579D01*
X88067500Y-53672158D02*
X86940996Y-54258579D01*
X88067500Y-53672158D02*
X86940996Y-53085737D01*
D12*
X41316786Y-63194574D02*
X41173929Y-63194574D01*
X41245357Y-63194574D02*
X41245357Y-62944574D01*
X41245357Y-62944574D02*
X41221548Y-62980289D01*
X41221548Y-62980289D02*
X41197738Y-63004098D01*
X41197738Y-63004098D02*
X41173929Y-63016003D01*
X41471547Y-62944574D02*
X41495357Y-62944574D01*
X41495357Y-62944574D02*
X41519166Y-62956479D01*
X41519166Y-62956479D02*
X41531071Y-62968384D01*
X41531071Y-62968384D02*
X41542976Y-62992193D01*
X41542976Y-62992193D02*
X41554881Y-63039812D01*
X41554881Y-63039812D02*
X41554881Y-63099336D01*
X41554881Y-63099336D02*
X41542976Y-63146955D01*
X41542976Y-63146955D02*
X41531071Y-63170765D01*
X41531071Y-63170765D02*
X41519166Y-63182670D01*
X41519166Y-63182670D02*
X41495357Y-63194574D01*
X41495357Y-63194574D02*
X41471547Y-63194574D01*
X41471547Y-63194574D02*
X41447738Y-63182670D01*
X41447738Y-63182670D02*
X41435833Y-63170765D01*
X41435833Y-63170765D02*
X41423928Y-63146955D01*
X41423928Y-63146955D02*
X41412024Y-63099336D01*
X41412024Y-63099336D02*
X41412024Y-63039812D01*
X41412024Y-63039812D02*
X41423928Y-62992193D01*
X41423928Y-62992193D02*
X41435833Y-62968384D01*
X41435833Y-62968384D02*
X41447738Y-62956479D01*
X41447738Y-62956479D02*
X41471547Y-62944574D01*
X41769166Y-63027908D02*
X41769166Y-63194574D01*
X41662023Y-63027908D02*
X41662023Y-63158860D01*
X41662023Y-63158860D02*
X41673928Y-63182670D01*
X41673928Y-63182670D02*
X41697738Y-63194574D01*
X41697738Y-63194574D02*
X41733452Y-63194574D01*
X41733452Y-63194574D02*
X41757261Y-63182670D01*
X41757261Y-63182670D02*
X41769166Y-63170765D01*
X41416833Y-62789765D02*
X41404929Y-62801670D01*
X41404929Y-62801670D02*
X41369214Y-62813574D01*
X41369214Y-62813574D02*
X41345405Y-62813574D01*
X41345405Y-62813574D02*
X41309691Y-62801670D01*
X41309691Y-62801670D02*
X41285881Y-62777860D01*
X41285881Y-62777860D02*
X41273976Y-62754050D01*
X41273976Y-62754050D02*
X41262072Y-62706431D01*
X41262072Y-62706431D02*
X41262072Y-62670717D01*
X41262072Y-62670717D02*
X41273976Y-62623098D01*
X41273976Y-62623098D02*
X41285881Y-62599289D01*
X41285881Y-62599289D02*
X41309691Y-62575479D01*
X41309691Y-62575479D02*
X41345405Y-62563574D01*
X41345405Y-62563574D02*
X41369214Y-62563574D01*
X41369214Y-62563574D02*
X41404929Y-62575479D01*
X41404929Y-62575479D02*
X41416833Y-62587384D01*
X41643024Y-62563574D02*
X41523976Y-62563574D01*
X41523976Y-62563574D02*
X41512072Y-62682622D01*
X41512072Y-62682622D02*
X41523976Y-62670717D01*
X41523976Y-62670717D02*
X41547786Y-62658812D01*
X41547786Y-62658812D02*
X41607310Y-62658812D01*
X41607310Y-62658812D02*
X41631119Y-62670717D01*
X41631119Y-62670717D02*
X41643024Y-62682622D01*
X41643024Y-62682622D02*
X41654929Y-62706431D01*
X41654929Y-62706431D02*
X41654929Y-62765955D01*
X41654929Y-62765955D02*
X41643024Y-62789765D01*
X41643024Y-62789765D02*
X41631119Y-62801670D01*
X41631119Y-62801670D02*
X41607310Y-62813574D01*
X41607310Y-62813574D02*
X41547786Y-62813574D01*
X41547786Y-62813574D02*
X41523976Y-62801670D01*
X41523976Y-62801670D02*
X41512072Y-62789765D01*
X39716786Y-56971574D02*
X39597738Y-56971574D01*
X39597738Y-56971574D02*
X39597738Y-56721574D01*
X39800119Y-56840622D02*
X39883453Y-56840622D01*
X39919167Y-56971574D02*
X39800119Y-56971574D01*
X39800119Y-56971574D02*
X39800119Y-56721574D01*
X39800119Y-56721574D02*
X39919167Y-56721574D01*
X40026309Y-56971574D02*
X40026309Y-56721574D01*
X40026309Y-56721574D02*
X40085833Y-56721574D01*
X40085833Y-56721574D02*
X40121547Y-56733479D01*
X40121547Y-56733479D02*
X40145357Y-56757289D01*
X40145357Y-56757289D02*
X40157262Y-56781098D01*
X40157262Y-56781098D02*
X40169166Y-56828717D01*
X40169166Y-56828717D02*
X40169166Y-56864431D01*
X40169166Y-56864431D02*
X40157262Y-56912050D01*
X40157262Y-56912050D02*
X40145357Y-56935860D01*
X40145357Y-56935860D02*
X40121547Y-56959670D01*
X40121547Y-56959670D02*
X40085833Y-56971574D01*
X40085833Y-56971574D02*
X40026309Y-56971574D01*
X39002500Y-58114574D02*
X38883452Y-58114574D01*
X38883452Y-58114574D02*
X38883452Y-57864574D01*
X39085833Y-57983622D02*
X39169167Y-57983622D01*
X39204881Y-58114574D02*
X39085833Y-58114574D01*
X39085833Y-58114574D02*
X39085833Y-57864574D01*
X39085833Y-57864574D02*
X39204881Y-57864574D01*
X39312023Y-58114574D02*
X39312023Y-57864574D01*
X39312023Y-57864574D02*
X39371547Y-57864574D01*
X39371547Y-57864574D02*
X39407261Y-57876479D01*
X39407261Y-57876479D02*
X39431071Y-57900289D01*
X39431071Y-57900289D02*
X39442976Y-57924098D01*
X39442976Y-57924098D02*
X39454880Y-57971717D01*
X39454880Y-57971717D02*
X39454880Y-58007431D01*
X39454880Y-58007431D02*
X39442976Y-58055050D01*
X39442976Y-58055050D02*
X39431071Y-58078860D01*
X39431071Y-58078860D02*
X39407261Y-58102670D01*
X39407261Y-58102670D02*
X39371547Y-58114574D01*
X39371547Y-58114574D02*
X39312023Y-58114574D01*
X39502500Y-58138384D02*
X39692976Y-58138384D01*
X39752499Y-58114574D02*
X39752499Y-57864574D01*
X39752499Y-57864574D02*
X39812023Y-57864574D01*
X39812023Y-57864574D02*
X39847737Y-57876479D01*
X39847737Y-57876479D02*
X39871547Y-57900289D01*
X39871547Y-57900289D02*
X39883452Y-57924098D01*
X39883452Y-57924098D02*
X39895356Y-57971717D01*
X39895356Y-57971717D02*
X39895356Y-58007431D01*
X39895356Y-58007431D02*
X39883452Y-58055050D01*
X39883452Y-58055050D02*
X39871547Y-58078860D01*
X39871547Y-58078860D02*
X39847737Y-58102670D01*
X39847737Y-58102670D02*
X39812023Y-58114574D01*
X39812023Y-58114574D02*
X39752499Y-58114574D01*
X40050118Y-57864574D02*
X40097737Y-57864574D01*
X40097737Y-57864574D02*
X40121547Y-57876479D01*
X40121547Y-57876479D02*
X40145356Y-57900289D01*
X40145356Y-57900289D02*
X40157261Y-57947908D01*
X40157261Y-57947908D02*
X40157261Y-58031241D01*
X40157261Y-58031241D02*
X40145356Y-58078860D01*
X40145356Y-58078860D02*
X40121547Y-58102670D01*
X40121547Y-58102670D02*
X40097737Y-58114574D01*
X40097737Y-58114574D02*
X40050118Y-58114574D01*
X40050118Y-58114574D02*
X40026309Y-58102670D01*
X40026309Y-58102670D02*
X40002499Y-58078860D01*
X40002499Y-58078860D02*
X39990595Y-58031241D01*
X39990595Y-58031241D02*
X39990595Y-57947908D01*
X39990595Y-57947908D02*
X40002499Y-57900289D01*
X40002499Y-57900289D02*
X40026309Y-57876479D01*
X40026309Y-57876479D02*
X40050118Y-57864574D01*
X40264404Y-58114574D02*
X40264404Y-57864574D01*
X40264404Y-57864574D02*
X40407261Y-58114574D01*
X40407261Y-58114574D02*
X40407261Y-57864574D01*
X40526309Y-57983622D02*
X40609643Y-57983622D01*
X40645357Y-58114574D02*
X40526309Y-58114574D01*
X40526309Y-58114574D02*
X40526309Y-57864574D01*
X40526309Y-57864574D02*
X40645357Y-57864574D01*
X40883452Y-58114574D02*
X40740595Y-58114574D01*
X40812023Y-58114574D02*
X40812023Y-57864574D01*
X40812023Y-57864574D02*
X40788214Y-57900289D01*
X40788214Y-57900289D02*
X40764404Y-57924098D01*
X40764404Y-57924098D02*
X40740595Y-57936003D01*
X39043644Y-65409146D02*
X39162691Y-65409146D01*
X39019834Y-65480574D02*
X39103167Y-65230574D01*
X39103167Y-65230574D02*
X39186501Y-65480574D01*
X39269834Y-65480574D02*
X39269834Y-65230574D01*
X39269834Y-65230574D02*
X39365072Y-65230574D01*
X39365072Y-65230574D02*
X39388882Y-65242479D01*
X39388882Y-65242479D02*
X39400787Y-65254384D01*
X39400787Y-65254384D02*
X39412691Y-65278193D01*
X39412691Y-65278193D02*
X39412691Y-65313908D01*
X39412691Y-65313908D02*
X39400787Y-65337717D01*
X39400787Y-65337717D02*
X39388882Y-65349622D01*
X39388882Y-65349622D02*
X39365072Y-65361527D01*
X39365072Y-65361527D02*
X39269834Y-65361527D01*
X39626977Y-65230574D02*
X39579358Y-65230574D01*
X39579358Y-65230574D02*
X39555549Y-65242479D01*
X39555549Y-65242479D02*
X39543644Y-65254384D01*
X39543644Y-65254384D02*
X39519834Y-65290098D01*
X39519834Y-65290098D02*
X39507930Y-65337717D01*
X39507930Y-65337717D02*
X39507930Y-65432955D01*
X39507930Y-65432955D02*
X39519834Y-65456765D01*
X39519834Y-65456765D02*
X39531739Y-65468670D01*
X39531739Y-65468670D02*
X39555549Y-65480574D01*
X39555549Y-65480574D02*
X39603168Y-65480574D01*
X39603168Y-65480574D02*
X39626977Y-65468670D01*
X39626977Y-65468670D02*
X39638882Y-65456765D01*
X39638882Y-65456765D02*
X39650787Y-65432955D01*
X39650787Y-65432955D02*
X39650787Y-65373431D01*
X39650787Y-65373431D02*
X39638882Y-65349622D01*
X39638882Y-65349622D02*
X39626977Y-65337717D01*
X39626977Y-65337717D02*
X39603168Y-65325812D01*
X39603168Y-65325812D02*
X39555549Y-65325812D01*
X39555549Y-65325812D02*
X39531739Y-65337717D01*
X39531739Y-65337717D02*
X39519834Y-65349622D01*
X39519834Y-65349622D02*
X39507930Y-65373431D01*
X39746025Y-65254384D02*
X39757929Y-65242479D01*
X39757929Y-65242479D02*
X39781739Y-65230574D01*
X39781739Y-65230574D02*
X39841263Y-65230574D01*
X39841263Y-65230574D02*
X39865072Y-65242479D01*
X39865072Y-65242479D02*
X39876977Y-65254384D01*
X39876977Y-65254384D02*
X39888882Y-65278193D01*
X39888882Y-65278193D02*
X39888882Y-65302003D01*
X39888882Y-65302003D02*
X39876977Y-65337717D01*
X39876977Y-65337717D02*
X39734120Y-65480574D01*
X39734120Y-65480574D02*
X39888882Y-65480574D01*
X40126977Y-65480574D02*
X39984120Y-65480574D01*
X40055548Y-65480574D02*
X40055548Y-65230574D01*
X40055548Y-65230574D02*
X40031739Y-65266289D01*
X40031739Y-65266289D02*
X40007929Y-65290098D01*
X40007929Y-65290098D02*
X39984120Y-65302003D01*
X40353167Y-65230574D02*
X40234119Y-65230574D01*
X40234119Y-65230574D02*
X40222215Y-65349622D01*
X40222215Y-65349622D02*
X40234119Y-65337717D01*
X40234119Y-65337717D02*
X40257929Y-65325812D01*
X40257929Y-65325812D02*
X40317453Y-65325812D01*
X40317453Y-65325812D02*
X40341262Y-65337717D01*
X40341262Y-65337717D02*
X40353167Y-65349622D01*
X40353167Y-65349622D02*
X40365072Y-65373431D01*
X40365072Y-65373431D02*
X40365072Y-65432955D01*
X40365072Y-65432955D02*
X40353167Y-65456765D01*
X40353167Y-65456765D02*
X40341262Y-65468670D01*
X40341262Y-65468670D02*
X40317453Y-65480574D01*
X40317453Y-65480574D02*
X40257929Y-65480574D01*
X40257929Y-65480574D02*
X40234119Y-65468670D01*
X40234119Y-65468670D02*
X40222215Y-65456765D01*
X40519833Y-65230574D02*
X40543643Y-65230574D01*
X40543643Y-65230574D02*
X40567452Y-65242479D01*
X40567452Y-65242479D02*
X40579357Y-65254384D01*
X40579357Y-65254384D02*
X40591262Y-65278193D01*
X40591262Y-65278193D02*
X40603167Y-65325812D01*
X40603167Y-65325812D02*
X40603167Y-65385336D01*
X40603167Y-65385336D02*
X40591262Y-65432955D01*
X40591262Y-65432955D02*
X40579357Y-65456765D01*
X40579357Y-65456765D02*
X40567452Y-65468670D01*
X40567452Y-65468670D02*
X40543643Y-65480574D01*
X40543643Y-65480574D02*
X40519833Y-65480574D01*
X40519833Y-65480574D02*
X40496024Y-65468670D01*
X40496024Y-65468670D02*
X40484119Y-65456765D01*
X40484119Y-65456765D02*
X40472214Y-65432955D01*
X40472214Y-65432955D02*
X40460310Y-65385336D01*
X40460310Y-65385336D02*
X40460310Y-65325812D01*
X40460310Y-65325812D02*
X40472214Y-65278193D01*
X40472214Y-65278193D02*
X40484119Y-65254384D01*
X40484119Y-65254384D02*
X40496024Y-65242479D01*
X40496024Y-65242479D02*
X40519833Y-65230574D01*
X40686500Y-65230574D02*
X40853166Y-65230574D01*
X40853166Y-65230574D02*
X40686500Y-65480574D01*
X40686500Y-65480574D02*
X40853166Y-65480574D01*
X41055547Y-65230574D02*
X41007928Y-65230574D01*
X41007928Y-65230574D02*
X40984119Y-65242479D01*
X40984119Y-65242479D02*
X40972214Y-65254384D01*
X40972214Y-65254384D02*
X40948404Y-65290098D01*
X40948404Y-65290098D02*
X40936500Y-65337717D01*
X40936500Y-65337717D02*
X40936500Y-65432955D01*
X40936500Y-65432955D02*
X40948404Y-65456765D01*
X40948404Y-65456765D02*
X40960309Y-65468670D01*
X40960309Y-65468670D02*
X40984119Y-65480574D01*
X40984119Y-65480574D02*
X41031738Y-65480574D01*
X41031738Y-65480574D02*
X41055547Y-65468670D01*
X41055547Y-65468670D02*
X41067452Y-65456765D01*
X41067452Y-65456765D02*
X41079357Y-65432955D01*
X41079357Y-65432955D02*
X41079357Y-65373431D01*
X41079357Y-65373431D02*
X41067452Y-65349622D01*
X41067452Y-65349622D02*
X41055547Y-65337717D01*
X41055547Y-65337717D02*
X41031738Y-65325812D01*
X41031738Y-65325812D02*
X40984119Y-65325812D01*
X40984119Y-65325812D02*
X40960309Y-65337717D01*
X40960309Y-65337717D02*
X40948404Y-65349622D01*
X40948404Y-65349622D02*
X40936500Y-65373431D01*
X41938023Y-65163574D02*
X41938023Y-65365955D01*
X41938023Y-65365955D02*
X41949928Y-65389765D01*
X41949928Y-65389765D02*
X41961833Y-65401670D01*
X41961833Y-65401670D02*
X41985642Y-65413574D01*
X41985642Y-65413574D02*
X42033261Y-65413574D01*
X42033261Y-65413574D02*
X42057071Y-65401670D01*
X42057071Y-65401670D02*
X42068976Y-65389765D01*
X42068976Y-65389765D02*
X42080880Y-65365955D01*
X42080880Y-65365955D02*
X42080880Y-65163574D01*
X42307071Y-65163574D02*
X42259452Y-65163574D01*
X42259452Y-65163574D02*
X42235643Y-65175479D01*
X42235643Y-65175479D02*
X42223738Y-65187384D01*
X42223738Y-65187384D02*
X42199928Y-65223098D01*
X42199928Y-65223098D02*
X42188024Y-65270717D01*
X42188024Y-65270717D02*
X42188024Y-65365955D01*
X42188024Y-65365955D02*
X42199928Y-65389765D01*
X42199928Y-65389765D02*
X42211833Y-65401670D01*
X42211833Y-65401670D02*
X42235643Y-65413574D01*
X42235643Y-65413574D02*
X42283262Y-65413574D01*
X42283262Y-65413574D02*
X42307071Y-65401670D01*
X42307071Y-65401670D02*
X42318976Y-65389765D01*
X42318976Y-65389765D02*
X42330881Y-65365955D01*
X42330881Y-65365955D02*
X42330881Y-65306431D01*
X42330881Y-65306431D02*
X42318976Y-65282622D01*
X42318976Y-65282622D02*
X42307071Y-65270717D01*
X42307071Y-65270717D02*
X42283262Y-65258812D01*
X42283262Y-65258812D02*
X42235643Y-65258812D01*
X42235643Y-65258812D02*
X42211833Y-65270717D01*
X42211833Y-65270717D02*
X42199928Y-65282622D01*
X42199928Y-65282622D02*
X42188024Y-65306431D01*
X50255310Y-59896574D02*
X50255310Y-60075146D01*
X50255310Y-60075146D02*
X50243405Y-60110860D01*
X50243405Y-60110860D02*
X50219596Y-60134670D01*
X50219596Y-60134670D02*
X50183881Y-60146574D01*
X50183881Y-60146574D02*
X50160072Y-60146574D01*
X50314834Y-60170384D02*
X50505310Y-60170384D01*
X50636262Y-59896574D02*
X50636262Y-60075146D01*
X50636262Y-60075146D02*
X50624357Y-60110860D01*
X50624357Y-60110860D02*
X50600548Y-60134670D01*
X50600548Y-60134670D02*
X50564833Y-60146574D01*
X50564833Y-60146574D02*
X50541024Y-60146574D01*
X50719595Y-59896574D02*
X50862452Y-59896574D01*
X50791024Y-60146574D02*
X50791024Y-59896574D01*
X50933881Y-60075146D02*
X51052928Y-60075146D01*
X50910071Y-60146574D02*
X50993404Y-59896574D01*
X50993404Y-59896574D02*
X51076738Y-60146574D01*
X51291024Y-59908479D02*
X51267214Y-59896574D01*
X51267214Y-59896574D02*
X51231500Y-59896574D01*
X51231500Y-59896574D02*
X51195786Y-59908479D01*
X51195786Y-59908479D02*
X51171976Y-59932289D01*
X51171976Y-59932289D02*
X51160071Y-59956098D01*
X51160071Y-59956098D02*
X51148167Y-60003717D01*
X51148167Y-60003717D02*
X51148167Y-60039431D01*
X51148167Y-60039431D02*
X51160071Y-60087050D01*
X51160071Y-60087050D02*
X51171976Y-60110860D01*
X51171976Y-60110860D02*
X51195786Y-60134670D01*
X51195786Y-60134670D02*
X51231500Y-60146574D01*
X51231500Y-60146574D02*
X51255309Y-60146574D01*
X51255309Y-60146574D02*
X51291024Y-60134670D01*
X51291024Y-60134670D02*
X51302928Y-60122765D01*
X51302928Y-60122765D02*
X51302928Y-60039431D01*
X51302928Y-60039431D02*
X51255309Y-60039431D01*
X51541024Y-60146574D02*
X51398167Y-60146574D01*
X51469595Y-60146574D02*
X51469595Y-59896574D01*
X51469595Y-59896574D02*
X51445786Y-59932289D01*
X51445786Y-59932289D02*
X51421976Y-59956098D01*
X51421976Y-59956098D02*
X51398167Y-59968003D01*
X45627691Y-57479574D02*
X45484834Y-57479574D01*
X45556262Y-57479574D02*
X45556262Y-57229574D01*
X45556262Y-57229574D02*
X45532453Y-57265289D01*
X45532453Y-57265289D02*
X45508643Y-57289098D01*
X45508643Y-57289098D02*
X45484834Y-57301003D01*
X45782452Y-57229574D02*
X45806262Y-57229574D01*
X45806262Y-57229574D02*
X45830071Y-57241479D01*
X45830071Y-57241479D02*
X45841976Y-57253384D01*
X45841976Y-57253384D02*
X45853881Y-57277193D01*
X45853881Y-57277193D02*
X45865786Y-57324812D01*
X45865786Y-57324812D02*
X45865786Y-57384336D01*
X45865786Y-57384336D02*
X45853881Y-57431955D01*
X45853881Y-57431955D02*
X45841976Y-57455765D01*
X45841976Y-57455765D02*
X45830071Y-57467670D01*
X45830071Y-57467670D02*
X45806262Y-57479574D01*
X45806262Y-57479574D02*
X45782452Y-57479574D01*
X45782452Y-57479574D02*
X45758643Y-57467670D01*
X45758643Y-57467670D02*
X45746738Y-57455765D01*
X45746738Y-57455765D02*
X45734833Y-57431955D01*
X45734833Y-57431955D02*
X45722929Y-57384336D01*
X45722929Y-57384336D02*
X45722929Y-57324812D01*
X45722929Y-57324812D02*
X45734833Y-57277193D01*
X45734833Y-57277193D02*
X45746738Y-57253384D01*
X45746738Y-57253384D02*
X45758643Y-57241479D01*
X45758643Y-57241479D02*
X45782452Y-57229574D01*
X45972928Y-57479574D02*
X45972928Y-57229574D01*
X45996738Y-57384336D02*
X46068166Y-57479574D01*
X46068166Y-57312908D02*
X45972928Y-57408146D01*
X45616785Y-57963574D02*
X45533452Y-57844527D01*
X45473928Y-57963574D02*
X45473928Y-57713574D01*
X45473928Y-57713574D02*
X45569166Y-57713574D01*
X45569166Y-57713574D02*
X45592976Y-57725479D01*
X45592976Y-57725479D02*
X45604881Y-57737384D01*
X45604881Y-57737384D02*
X45616785Y-57761193D01*
X45616785Y-57761193D02*
X45616785Y-57796908D01*
X45616785Y-57796908D02*
X45604881Y-57820717D01*
X45604881Y-57820717D02*
X45592976Y-57832622D01*
X45592976Y-57832622D02*
X45569166Y-57844527D01*
X45569166Y-57844527D02*
X45473928Y-57844527D01*
X45854881Y-57963574D02*
X45712024Y-57963574D01*
X45783452Y-57963574D02*
X45783452Y-57713574D01*
X45783452Y-57713574D02*
X45759643Y-57749289D01*
X45759643Y-57749289D02*
X45735833Y-57773098D01*
X45735833Y-57773098D02*
X45712024Y-57785003D01*
X46069166Y-57713574D02*
X46021547Y-57713574D01*
X46021547Y-57713574D02*
X45997738Y-57725479D01*
X45997738Y-57725479D02*
X45985833Y-57737384D01*
X45985833Y-57737384D02*
X45962023Y-57773098D01*
X45962023Y-57773098D02*
X45950119Y-57820717D01*
X45950119Y-57820717D02*
X45950119Y-57915955D01*
X45950119Y-57915955D02*
X45962023Y-57939765D01*
X45962023Y-57939765D02*
X45973928Y-57951670D01*
X45973928Y-57951670D02*
X45997738Y-57963574D01*
X45997738Y-57963574D02*
X46045357Y-57963574D01*
X46045357Y-57963574D02*
X46069166Y-57951670D01*
X46069166Y-57951670D02*
X46081071Y-57939765D01*
X46081071Y-57939765D02*
X46092976Y-57915955D01*
X46092976Y-57915955D02*
X46092976Y-57856431D01*
X46092976Y-57856431D02*
X46081071Y-57832622D01*
X46081071Y-57832622D02*
X46069166Y-57820717D01*
X46069166Y-57820717D02*
X46045357Y-57808812D01*
X46045357Y-57808812D02*
X45997738Y-57808812D01*
X45997738Y-57808812D02*
X45973928Y-57820717D01*
X45973928Y-57820717D02*
X45962023Y-57832622D01*
X45962023Y-57832622D02*
X45950119Y-57856431D01*
X40138929Y-60174384D02*
X40150833Y-60162479D01*
X40150833Y-60162479D02*
X40174643Y-60150574D01*
X40174643Y-60150574D02*
X40234167Y-60150574D01*
X40234167Y-60150574D02*
X40257976Y-60162479D01*
X40257976Y-60162479D02*
X40269881Y-60174384D01*
X40269881Y-60174384D02*
X40281786Y-60198193D01*
X40281786Y-60198193D02*
X40281786Y-60222003D01*
X40281786Y-60222003D02*
X40269881Y-60257717D01*
X40269881Y-60257717D02*
X40127024Y-60400574D01*
X40127024Y-60400574D02*
X40281786Y-60400574D01*
X40377024Y-60174384D02*
X40388928Y-60162479D01*
X40388928Y-60162479D02*
X40412738Y-60150574D01*
X40412738Y-60150574D02*
X40472262Y-60150574D01*
X40472262Y-60150574D02*
X40496071Y-60162479D01*
X40496071Y-60162479D02*
X40507976Y-60174384D01*
X40507976Y-60174384D02*
X40519881Y-60198193D01*
X40519881Y-60198193D02*
X40519881Y-60222003D01*
X40519881Y-60222003D02*
X40507976Y-60257717D01*
X40507976Y-60257717D02*
X40365119Y-60400574D01*
X40365119Y-60400574D02*
X40519881Y-60400574D01*
X40734166Y-60233908D02*
X40734166Y-60400574D01*
X40627023Y-60233908D02*
X40627023Y-60364860D01*
X40627023Y-60364860D02*
X40638928Y-60388670D01*
X40638928Y-60388670D02*
X40662738Y-60400574D01*
X40662738Y-60400574D02*
X40698452Y-60400574D01*
X40698452Y-60400574D02*
X40722261Y-60388670D01*
X40722261Y-60388670D02*
X40734166Y-60376765D01*
X40335833Y-59868765D02*
X40323929Y-59880670D01*
X40323929Y-59880670D02*
X40288214Y-59892574D01*
X40288214Y-59892574D02*
X40264405Y-59892574D01*
X40264405Y-59892574D02*
X40228691Y-59880670D01*
X40228691Y-59880670D02*
X40204881Y-59856860D01*
X40204881Y-59856860D02*
X40192976Y-59833050D01*
X40192976Y-59833050D02*
X40181072Y-59785431D01*
X40181072Y-59785431D02*
X40181072Y-59749717D01*
X40181072Y-59749717D02*
X40192976Y-59702098D01*
X40192976Y-59702098D02*
X40204881Y-59678289D01*
X40204881Y-59678289D02*
X40228691Y-59654479D01*
X40228691Y-59654479D02*
X40264405Y-59642574D01*
X40264405Y-59642574D02*
X40288214Y-59642574D01*
X40288214Y-59642574D02*
X40323929Y-59654479D01*
X40323929Y-59654479D02*
X40335833Y-59666384D01*
X40419167Y-59642574D02*
X40585833Y-59642574D01*
X40585833Y-59642574D02*
X40478691Y-59892574D01*
X79146138Y-57022374D02*
X79003281Y-57022374D01*
X79074709Y-57022374D02*
X79074709Y-56772374D01*
X79074709Y-56772374D02*
X79050900Y-56808089D01*
X79050900Y-56808089D02*
X79027090Y-56831898D01*
X79027090Y-56831898D02*
X79003281Y-56843803D01*
X79253280Y-57022374D02*
X79253280Y-56772374D01*
X79277090Y-56927136D02*
X79348518Y-57022374D01*
X79348518Y-56855708D02*
X79253280Y-56950946D01*
X79135833Y-57563574D02*
X79052500Y-57444527D01*
X78992976Y-57563574D02*
X78992976Y-57313574D01*
X78992976Y-57313574D02*
X79088214Y-57313574D01*
X79088214Y-57313574D02*
X79112024Y-57325479D01*
X79112024Y-57325479D02*
X79123929Y-57337384D01*
X79123929Y-57337384D02*
X79135833Y-57361193D01*
X79135833Y-57361193D02*
X79135833Y-57396908D01*
X79135833Y-57396908D02*
X79123929Y-57420717D01*
X79123929Y-57420717D02*
X79112024Y-57432622D01*
X79112024Y-57432622D02*
X79088214Y-57444527D01*
X79088214Y-57444527D02*
X78992976Y-57444527D01*
X79231072Y-57337384D02*
X79242976Y-57325479D01*
X79242976Y-57325479D02*
X79266786Y-57313574D01*
X79266786Y-57313574D02*
X79326310Y-57313574D01*
X79326310Y-57313574D02*
X79350119Y-57325479D01*
X79350119Y-57325479D02*
X79362024Y-57337384D01*
X79362024Y-57337384D02*
X79373929Y-57361193D01*
X79373929Y-57361193D02*
X79373929Y-57385003D01*
X79373929Y-57385003D02*
X79362024Y-57420717D01*
X79362024Y-57420717D02*
X79219167Y-57563574D01*
X79219167Y-57563574D02*
X79373929Y-57563574D01*
X44485834Y-61313574D02*
X44342977Y-61313574D01*
X44414405Y-61313574D02*
X44414405Y-61063574D01*
X44414405Y-61063574D02*
X44390596Y-61099289D01*
X44390596Y-61099289D02*
X44366786Y-61123098D01*
X44366786Y-61123098D02*
X44342977Y-61135003D01*
X44640595Y-61063574D02*
X44664405Y-61063574D01*
X44664405Y-61063574D02*
X44688214Y-61075479D01*
X44688214Y-61075479D02*
X44700119Y-61087384D01*
X44700119Y-61087384D02*
X44712024Y-61111193D01*
X44712024Y-61111193D02*
X44723929Y-61158812D01*
X44723929Y-61158812D02*
X44723929Y-61218336D01*
X44723929Y-61218336D02*
X44712024Y-61265955D01*
X44712024Y-61265955D02*
X44700119Y-61289765D01*
X44700119Y-61289765D02*
X44688214Y-61301670D01*
X44688214Y-61301670D02*
X44664405Y-61313574D01*
X44664405Y-61313574D02*
X44640595Y-61313574D01*
X44640595Y-61313574D02*
X44616786Y-61301670D01*
X44616786Y-61301670D02*
X44604881Y-61289765D01*
X44604881Y-61289765D02*
X44592976Y-61265955D01*
X44592976Y-61265955D02*
X44581072Y-61218336D01*
X44581072Y-61218336D02*
X44581072Y-61158812D01*
X44581072Y-61158812D02*
X44592976Y-61111193D01*
X44592976Y-61111193D02*
X44604881Y-61087384D01*
X44604881Y-61087384D02*
X44616786Y-61075479D01*
X44616786Y-61075479D02*
X44640595Y-61063574D01*
X44938214Y-61146908D02*
X44938214Y-61313574D01*
X44831071Y-61146908D02*
X44831071Y-61277860D01*
X44831071Y-61277860D02*
X44842976Y-61301670D01*
X44842976Y-61301670D02*
X44866786Y-61313574D01*
X44866786Y-61313574D02*
X44902500Y-61313574D01*
X44902500Y-61313574D02*
X44926309Y-61301670D01*
X44926309Y-61301670D02*
X44938214Y-61289765D01*
X45057261Y-61313574D02*
X45057261Y-61063574D01*
X45057261Y-61182622D02*
X45200118Y-61182622D01*
X45200118Y-61313574D02*
X45200118Y-61063574D01*
X44735833Y-60527574D02*
X44616785Y-60527574D01*
X44616785Y-60527574D02*
X44616785Y-60277574D01*
X44950119Y-60527574D02*
X44807262Y-60527574D01*
X44878690Y-60527574D02*
X44878690Y-60277574D01*
X44878690Y-60277574D02*
X44854881Y-60313289D01*
X44854881Y-60313289D02*
X44831071Y-60337098D01*
X44831071Y-60337098D02*
X44807262Y-60349003D01*
X70663214Y-57335681D02*
X70596548Y-57335681D01*
X70596548Y-57440443D02*
X70596548Y-57240443D01*
X70596548Y-57240443D02*
X70691786Y-57240443D01*
X70767977Y-57440443D02*
X70767977Y-57240443D01*
X70863215Y-57440443D02*
X70863215Y-57240443D01*
X70863215Y-57240443D02*
X70910834Y-57240443D01*
X70910834Y-57240443D02*
X70939405Y-57249967D01*
X70939405Y-57249967D02*
X70958453Y-57269015D01*
X70958453Y-57269015D02*
X70967976Y-57288062D01*
X70967976Y-57288062D02*
X70977500Y-57326158D01*
X70977500Y-57326158D02*
X70977500Y-57354729D01*
X70977500Y-57354729D02*
X70967976Y-57392824D01*
X70967976Y-57392824D02*
X70958453Y-57411872D01*
X70958453Y-57411872D02*
X70939405Y-57430920D01*
X70939405Y-57430920D02*
X70910834Y-57440443D01*
X70910834Y-57440443D02*
X70863215Y-57440443D01*
X71053691Y-57259491D02*
X71063215Y-57249967D01*
X71063215Y-57249967D02*
X71082262Y-57240443D01*
X71082262Y-57240443D02*
X71129881Y-57240443D01*
X71129881Y-57240443D02*
X71148929Y-57249967D01*
X71148929Y-57249967D02*
X71158453Y-57259491D01*
X71158453Y-57259491D02*
X71167976Y-57278539D01*
X71167976Y-57278539D02*
X71167976Y-57297586D01*
X71167976Y-57297586D02*
X71158453Y-57326158D01*
X71158453Y-57326158D02*
X71044167Y-57440443D01*
X71044167Y-57440443D02*
X71167976Y-57440443D01*
X56306484Y-67939894D02*
X56294579Y-67927990D01*
X56294579Y-67927990D02*
X56282674Y-67904180D01*
X56282674Y-67904180D02*
X56282674Y-67844656D01*
X56282674Y-67844656D02*
X56294579Y-67820847D01*
X56294579Y-67820847D02*
X56306484Y-67808942D01*
X56306484Y-67808942D02*
X56330293Y-67797037D01*
X56330293Y-67797037D02*
X56354103Y-67797037D01*
X56354103Y-67797037D02*
X56389817Y-67808942D01*
X56389817Y-67808942D02*
X56532674Y-67951799D01*
X56532674Y-67951799D02*
X56532674Y-67797037D01*
X56508865Y-67689895D02*
X56520770Y-67677990D01*
X56520770Y-67677990D02*
X56532674Y-67689895D01*
X56532674Y-67689895D02*
X56520770Y-67701799D01*
X56520770Y-67701799D02*
X56508865Y-67689895D01*
X56508865Y-67689895D02*
X56532674Y-67689895D01*
X56306484Y-67582751D02*
X56294579Y-67570847D01*
X56294579Y-67570847D02*
X56282674Y-67547037D01*
X56282674Y-67547037D02*
X56282674Y-67487513D01*
X56282674Y-67487513D02*
X56294579Y-67463704D01*
X56294579Y-67463704D02*
X56306484Y-67451799D01*
X56306484Y-67451799D02*
X56330293Y-67439894D01*
X56330293Y-67439894D02*
X56354103Y-67439894D01*
X56354103Y-67439894D02*
X56389817Y-67451799D01*
X56389817Y-67451799D02*
X56532674Y-67594656D01*
X56532674Y-67594656D02*
X56532674Y-67439894D01*
X56366008Y-67225609D02*
X56532674Y-67225609D01*
X56366008Y-67332752D02*
X56496960Y-67332752D01*
X56496960Y-67332752D02*
X56520770Y-67320847D01*
X56520770Y-67320847D02*
X56532674Y-67297037D01*
X56532674Y-67297037D02*
X56532674Y-67261323D01*
X56532674Y-67261323D02*
X56520770Y-67237514D01*
X56520770Y-67237514D02*
X56508865Y-67225609D01*
X57057265Y-67750714D02*
X57069170Y-67762618D01*
X57069170Y-67762618D02*
X57081074Y-67798333D01*
X57081074Y-67798333D02*
X57081074Y-67822142D01*
X57081074Y-67822142D02*
X57069170Y-67857856D01*
X57069170Y-67857856D02*
X57045360Y-67881666D01*
X57045360Y-67881666D02*
X57021550Y-67893571D01*
X57021550Y-67893571D02*
X56973931Y-67905475D01*
X56973931Y-67905475D02*
X56938217Y-67905475D01*
X56938217Y-67905475D02*
X56890598Y-67893571D01*
X56890598Y-67893571D02*
X56866789Y-67881666D01*
X56866789Y-67881666D02*
X56842979Y-67857856D01*
X56842979Y-67857856D02*
X56831074Y-67822142D01*
X56831074Y-67822142D02*
X56831074Y-67798333D01*
X56831074Y-67798333D02*
X56842979Y-67762618D01*
X56842979Y-67762618D02*
X56854884Y-67750714D01*
X57081074Y-67512618D02*
X57081074Y-67655475D01*
X57081074Y-67584047D02*
X56831074Y-67584047D01*
X56831074Y-67584047D02*
X56866789Y-67607856D01*
X56866789Y-67607856D02*
X56890598Y-67631666D01*
X56890598Y-67631666D02*
X56902503Y-67655475D01*
X57081074Y-67274523D02*
X57081074Y-67417380D01*
X57081074Y-67345952D02*
X56831074Y-67345952D01*
X56831074Y-67345952D02*
X56866789Y-67369761D01*
X56866789Y-67369761D02*
X56890598Y-67393571D01*
X56890598Y-67393571D02*
X56902503Y-67417380D01*
X57525684Y-58440294D02*
X57513779Y-58428390D01*
X57513779Y-58428390D02*
X57501874Y-58404580D01*
X57501874Y-58404580D02*
X57501874Y-58345056D01*
X57501874Y-58345056D02*
X57513779Y-58321247D01*
X57513779Y-58321247D02*
X57525684Y-58309342D01*
X57525684Y-58309342D02*
X57549493Y-58297437D01*
X57549493Y-58297437D02*
X57573303Y-58297437D01*
X57573303Y-58297437D02*
X57609017Y-58309342D01*
X57609017Y-58309342D02*
X57751874Y-58452199D01*
X57751874Y-58452199D02*
X57751874Y-58297437D01*
X57728065Y-58190295D02*
X57739970Y-58178390D01*
X57739970Y-58178390D02*
X57751874Y-58190295D01*
X57751874Y-58190295D02*
X57739970Y-58202199D01*
X57739970Y-58202199D02*
X57728065Y-58190295D01*
X57728065Y-58190295D02*
X57751874Y-58190295D01*
X57525684Y-58083151D02*
X57513779Y-58071247D01*
X57513779Y-58071247D02*
X57501874Y-58047437D01*
X57501874Y-58047437D02*
X57501874Y-57987913D01*
X57501874Y-57987913D02*
X57513779Y-57964104D01*
X57513779Y-57964104D02*
X57525684Y-57952199D01*
X57525684Y-57952199D02*
X57549493Y-57940294D01*
X57549493Y-57940294D02*
X57573303Y-57940294D01*
X57573303Y-57940294D02*
X57609017Y-57952199D01*
X57609017Y-57952199D02*
X57751874Y-58095056D01*
X57751874Y-58095056D02*
X57751874Y-57940294D01*
X57585208Y-57726009D02*
X57751874Y-57726009D01*
X57585208Y-57833152D02*
X57716160Y-57833152D01*
X57716160Y-57833152D02*
X57739970Y-57821247D01*
X57739970Y-57821247D02*
X57751874Y-57797437D01*
X57751874Y-57797437D02*
X57751874Y-57761723D01*
X57751874Y-57761723D02*
X57739970Y-57737914D01*
X57739970Y-57737914D02*
X57728065Y-57726009D01*
X57157265Y-58210714D02*
X57169170Y-58222618D01*
X57169170Y-58222618D02*
X57181074Y-58258333D01*
X57181074Y-58258333D02*
X57181074Y-58282142D01*
X57181074Y-58282142D02*
X57169170Y-58317856D01*
X57169170Y-58317856D02*
X57145360Y-58341666D01*
X57145360Y-58341666D02*
X57121550Y-58353571D01*
X57121550Y-58353571D02*
X57073931Y-58365475D01*
X57073931Y-58365475D02*
X57038217Y-58365475D01*
X57038217Y-58365475D02*
X56990598Y-58353571D01*
X56990598Y-58353571D02*
X56966789Y-58341666D01*
X56966789Y-58341666D02*
X56942979Y-58317856D01*
X56942979Y-58317856D02*
X56931074Y-58282142D01*
X56931074Y-58282142D02*
X56931074Y-58258333D01*
X56931074Y-58258333D02*
X56942979Y-58222618D01*
X56942979Y-58222618D02*
X56954884Y-58210714D01*
X56954884Y-58115475D02*
X56942979Y-58103571D01*
X56942979Y-58103571D02*
X56931074Y-58079761D01*
X56931074Y-58079761D02*
X56931074Y-58020237D01*
X56931074Y-58020237D02*
X56942979Y-57996428D01*
X56942979Y-57996428D02*
X56954884Y-57984523D01*
X56954884Y-57984523D02*
X56978693Y-57972618D01*
X56978693Y-57972618D02*
X57002503Y-57972618D01*
X57002503Y-57972618D02*
X57038217Y-57984523D01*
X57038217Y-57984523D02*
X57181074Y-58127380D01*
X57181074Y-58127380D02*
X57181074Y-57972618D01*
X56931074Y-57817857D02*
X56931074Y-57794047D01*
X56931074Y-57794047D02*
X56942979Y-57770238D01*
X56942979Y-57770238D02*
X56954884Y-57758333D01*
X56954884Y-57758333D02*
X56978693Y-57746428D01*
X56978693Y-57746428D02*
X57026312Y-57734523D01*
X57026312Y-57734523D02*
X57085836Y-57734523D01*
X57085836Y-57734523D02*
X57133455Y-57746428D01*
X57133455Y-57746428D02*
X57157265Y-57758333D01*
X57157265Y-57758333D02*
X57169170Y-57770238D01*
X57169170Y-57770238D02*
X57181074Y-57794047D01*
X57181074Y-57794047D02*
X57181074Y-57817857D01*
X57181074Y-57817857D02*
X57169170Y-57841666D01*
X57169170Y-57841666D02*
X57157265Y-57853571D01*
X57157265Y-57853571D02*
X57133455Y-57865476D01*
X57133455Y-57865476D02*
X57085836Y-57877380D01*
X57085836Y-57877380D02*
X57026312Y-57877380D01*
X57026312Y-57877380D02*
X56978693Y-57865476D01*
X56978693Y-57865476D02*
X56954884Y-57853571D01*
X56954884Y-57853571D02*
X56942979Y-57841666D01*
X56942979Y-57841666D02*
X56931074Y-57817857D01*
X69884405Y-66143384D02*
X69896309Y-66131479D01*
X69896309Y-66131479D02*
X69920119Y-66119574D01*
X69920119Y-66119574D02*
X69979643Y-66119574D01*
X69979643Y-66119574D02*
X70003452Y-66131479D01*
X70003452Y-66131479D02*
X70015357Y-66143384D01*
X70015357Y-66143384D02*
X70027262Y-66167193D01*
X70027262Y-66167193D02*
X70027262Y-66191003D01*
X70027262Y-66191003D02*
X70015357Y-66226717D01*
X70015357Y-66226717D02*
X69872500Y-66369574D01*
X69872500Y-66369574D02*
X70027262Y-66369574D01*
X70134404Y-66345765D02*
X70146309Y-66357670D01*
X70146309Y-66357670D02*
X70134404Y-66369574D01*
X70134404Y-66369574D02*
X70122500Y-66357670D01*
X70122500Y-66357670D02*
X70134404Y-66345765D01*
X70134404Y-66345765D02*
X70134404Y-66369574D01*
X70241548Y-66143384D02*
X70253452Y-66131479D01*
X70253452Y-66131479D02*
X70277262Y-66119574D01*
X70277262Y-66119574D02*
X70336786Y-66119574D01*
X70336786Y-66119574D02*
X70360595Y-66131479D01*
X70360595Y-66131479D02*
X70372500Y-66143384D01*
X70372500Y-66143384D02*
X70384405Y-66167193D01*
X70384405Y-66167193D02*
X70384405Y-66191003D01*
X70384405Y-66191003D02*
X70372500Y-66226717D01*
X70372500Y-66226717D02*
X70229643Y-66369574D01*
X70229643Y-66369574D02*
X70384405Y-66369574D01*
X70598690Y-66202908D02*
X70598690Y-66369574D01*
X70491547Y-66202908D02*
X70491547Y-66333860D01*
X70491547Y-66333860D02*
X70503452Y-66357670D01*
X70503452Y-66357670D02*
X70527262Y-66369574D01*
X70527262Y-66369574D02*
X70562976Y-66369574D01*
X70562976Y-66369574D02*
X70586785Y-66357670D01*
X70586785Y-66357670D02*
X70598690Y-66345765D01*
X70086785Y-66909765D02*
X70074881Y-66921670D01*
X70074881Y-66921670D02*
X70039166Y-66933574D01*
X70039166Y-66933574D02*
X70015357Y-66933574D01*
X70015357Y-66933574D02*
X69979643Y-66921670D01*
X69979643Y-66921670D02*
X69955833Y-66897860D01*
X69955833Y-66897860D02*
X69943928Y-66874050D01*
X69943928Y-66874050D02*
X69932024Y-66826431D01*
X69932024Y-66826431D02*
X69932024Y-66790717D01*
X69932024Y-66790717D02*
X69943928Y-66743098D01*
X69943928Y-66743098D02*
X69955833Y-66719289D01*
X69955833Y-66719289D02*
X69979643Y-66695479D01*
X69979643Y-66695479D02*
X70015357Y-66683574D01*
X70015357Y-66683574D02*
X70039166Y-66683574D01*
X70039166Y-66683574D02*
X70074881Y-66695479D01*
X70074881Y-66695479D02*
X70086785Y-66707384D01*
X70324881Y-66933574D02*
X70182024Y-66933574D01*
X70253452Y-66933574D02*
X70253452Y-66683574D01*
X70253452Y-66683574D02*
X70229643Y-66719289D01*
X70229643Y-66719289D02*
X70205833Y-66743098D01*
X70205833Y-66743098D02*
X70182024Y-66755003D01*
X70551071Y-66683574D02*
X70432023Y-66683574D01*
X70432023Y-66683574D02*
X70420119Y-66802622D01*
X70420119Y-66802622D02*
X70432023Y-66790717D01*
X70432023Y-66790717D02*
X70455833Y-66778812D01*
X70455833Y-66778812D02*
X70515357Y-66778812D01*
X70515357Y-66778812D02*
X70539166Y-66790717D01*
X70539166Y-66790717D02*
X70551071Y-66802622D01*
X70551071Y-66802622D02*
X70562976Y-66826431D01*
X70562976Y-66826431D02*
X70562976Y-66885955D01*
X70562976Y-66885955D02*
X70551071Y-66909765D01*
X70551071Y-66909765D02*
X70539166Y-66921670D01*
X70539166Y-66921670D02*
X70515357Y-66933574D01*
X70515357Y-66933574D02*
X70455833Y-66933574D01*
X70455833Y-66933574D02*
X70432023Y-66921670D01*
X70432023Y-66921670D02*
X70420119Y-66909765D01*
X68803284Y-58186294D02*
X68791379Y-58174390D01*
X68791379Y-58174390D02*
X68779474Y-58150580D01*
X68779474Y-58150580D02*
X68779474Y-58091056D01*
X68779474Y-58091056D02*
X68791379Y-58067247D01*
X68791379Y-58067247D02*
X68803284Y-58055342D01*
X68803284Y-58055342D02*
X68827093Y-58043437D01*
X68827093Y-58043437D02*
X68850903Y-58043437D01*
X68850903Y-58043437D02*
X68886617Y-58055342D01*
X68886617Y-58055342D02*
X69029474Y-58198199D01*
X69029474Y-58198199D02*
X69029474Y-58043437D01*
X69005665Y-57936295D02*
X69017570Y-57924390D01*
X69017570Y-57924390D02*
X69029474Y-57936295D01*
X69029474Y-57936295D02*
X69017570Y-57948199D01*
X69017570Y-57948199D02*
X69005665Y-57936295D01*
X69005665Y-57936295D02*
X69029474Y-57936295D01*
X68803284Y-57829151D02*
X68791379Y-57817247D01*
X68791379Y-57817247D02*
X68779474Y-57793437D01*
X68779474Y-57793437D02*
X68779474Y-57733913D01*
X68779474Y-57733913D02*
X68791379Y-57710104D01*
X68791379Y-57710104D02*
X68803284Y-57698199D01*
X68803284Y-57698199D02*
X68827093Y-57686294D01*
X68827093Y-57686294D02*
X68850903Y-57686294D01*
X68850903Y-57686294D02*
X68886617Y-57698199D01*
X68886617Y-57698199D02*
X69029474Y-57841056D01*
X69029474Y-57841056D02*
X69029474Y-57686294D01*
X68862808Y-57472009D02*
X69029474Y-57472009D01*
X68862808Y-57579152D02*
X68993760Y-57579152D01*
X68993760Y-57579152D02*
X69017570Y-57567247D01*
X69017570Y-57567247D02*
X69029474Y-57543437D01*
X69029474Y-57543437D02*
X69029474Y-57507723D01*
X69029474Y-57507723D02*
X69017570Y-57483914D01*
X69017570Y-57483914D02*
X69005665Y-57472009D01*
X69517265Y-58010714D02*
X69529170Y-58022618D01*
X69529170Y-58022618D02*
X69541074Y-58058333D01*
X69541074Y-58058333D02*
X69541074Y-58082142D01*
X69541074Y-58082142D02*
X69529170Y-58117856D01*
X69529170Y-58117856D02*
X69505360Y-58141666D01*
X69505360Y-58141666D02*
X69481550Y-58153571D01*
X69481550Y-58153571D02*
X69433931Y-58165475D01*
X69433931Y-58165475D02*
X69398217Y-58165475D01*
X69398217Y-58165475D02*
X69350598Y-58153571D01*
X69350598Y-58153571D02*
X69326789Y-58141666D01*
X69326789Y-58141666D02*
X69302979Y-58117856D01*
X69302979Y-58117856D02*
X69291074Y-58082142D01*
X69291074Y-58082142D02*
X69291074Y-58058333D01*
X69291074Y-58058333D02*
X69302979Y-58022618D01*
X69302979Y-58022618D02*
X69314884Y-58010714D01*
X69314884Y-57915475D02*
X69302979Y-57903571D01*
X69302979Y-57903571D02*
X69291074Y-57879761D01*
X69291074Y-57879761D02*
X69291074Y-57820237D01*
X69291074Y-57820237D02*
X69302979Y-57796428D01*
X69302979Y-57796428D02*
X69314884Y-57784523D01*
X69314884Y-57784523D02*
X69338693Y-57772618D01*
X69338693Y-57772618D02*
X69362503Y-57772618D01*
X69362503Y-57772618D02*
X69398217Y-57784523D01*
X69398217Y-57784523D02*
X69541074Y-57927380D01*
X69541074Y-57927380D02*
X69541074Y-57772618D01*
X69291074Y-57689285D02*
X69291074Y-57534523D01*
X69291074Y-57534523D02*
X69386312Y-57617857D01*
X69386312Y-57617857D02*
X69386312Y-57582142D01*
X69386312Y-57582142D02*
X69398217Y-57558333D01*
X69398217Y-57558333D02*
X69410122Y-57546428D01*
X69410122Y-57546428D02*
X69433931Y-57534523D01*
X69433931Y-57534523D02*
X69493455Y-57534523D01*
X69493455Y-57534523D02*
X69517265Y-57546428D01*
X69517265Y-57546428D02*
X69529170Y-57558333D01*
X69529170Y-57558333D02*
X69541074Y-57582142D01*
X69541074Y-57582142D02*
X69541074Y-57653571D01*
X69541074Y-57653571D02*
X69529170Y-57677380D01*
X69529170Y-57677380D02*
X69517265Y-57689285D01*
X61456081Y-63337479D02*
X61432271Y-63325574D01*
X61432271Y-63325574D02*
X61396557Y-63325574D01*
X61396557Y-63325574D02*
X61360843Y-63337479D01*
X61360843Y-63337479D02*
X61337033Y-63361289D01*
X61337033Y-63361289D02*
X61325128Y-63385098D01*
X61325128Y-63385098D02*
X61313224Y-63432717D01*
X61313224Y-63432717D02*
X61313224Y-63468431D01*
X61313224Y-63468431D02*
X61325128Y-63516050D01*
X61325128Y-63516050D02*
X61337033Y-63539860D01*
X61337033Y-63539860D02*
X61360843Y-63563670D01*
X61360843Y-63563670D02*
X61396557Y-63575574D01*
X61396557Y-63575574D02*
X61420366Y-63575574D01*
X61420366Y-63575574D02*
X61456081Y-63563670D01*
X61456081Y-63563670D02*
X61467985Y-63551765D01*
X61467985Y-63551765D02*
X61467985Y-63468431D01*
X61467985Y-63468431D02*
X61420366Y-63468431D01*
X61551319Y-63325574D02*
X61610843Y-63575574D01*
X61610843Y-63575574D02*
X61658462Y-63397003D01*
X61658462Y-63397003D02*
X61706081Y-63575574D01*
X61706081Y-63575574D02*
X61765605Y-63325574D01*
X61991795Y-63575574D02*
X61848938Y-63575574D01*
X61920366Y-63575574D02*
X61920366Y-63325574D01*
X61920366Y-63325574D02*
X61896557Y-63361289D01*
X61896557Y-63361289D02*
X61872747Y-63385098D01*
X61872747Y-63385098D02*
X61848938Y-63397003D01*
X62098937Y-63575574D02*
X62098937Y-63325574D01*
X62098937Y-63325574D02*
X62241794Y-63575574D01*
X62241794Y-63575574D02*
X62241794Y-63325574D01*
X62360842Y-63480336D02*
X62551319Y-63480336D01*
X62789414Y-63575574D02*
X62670366Y-63575574D01*
X62670366Y-63575574D02*
X62670366Y-63325574D01*
X62837033Y-63325574D02*
X62920366Y-63575574D01*
X62920366Y-63575574D02*
X63003700Y-63325574D01*
X63098938Y-63575574D02*
X63146557Y-63575574D01*
X63146557Y-63575574D02*
X63170367Y-63563670D01*
X63170367Y-63563670D02*
X63182271Y-63551765D01*
X63182271Y-63551765D02*
X63206081Y-63516050D01*
X63206081Y-63516050D02*
X63217986Y-63468431D01*
X63217986Y-63468431D02*
X63217986Y-63373193D01*
X63217986Y-63373193D02*
X63206081Y-63349384D01*
X63206081Y-63349384D02*
X63194176Y-63337479D01*
X63194176Y-63337479D02*
X63170367Y-63325574D01*
X63170367Y-63325574D02*
X63122748Y-63325574D01*
X63122748Y-63325574D02*
X63098938Y-63337479D01*
X63098938Y-63337479D02*
X63087033Y-63349384D01*
X63087033Y-63349384D02*
X63075129Y-63373193D01*
X63075129Y-63373193D02*
X63075129Y-63432717D01*
X63075129Y-63432717D02*
X63087033Y-63456527D01*
X63087033Y-63456527D02*
X63098938Y-63468431D01*
X63098938Y-63468431D02*
X63122748Y-63480336D01*
X63122748Y-63480336D02*
X63170367Y-63480336D01*
X63170367Y-63480336D02*
X63194176Y-63468431D01*
X63194176Y-63468431D02*
X63206081Y-63456527D01*
X63206081Y-63456527D02*
X63217986Y-63432717D01*
X63491795Y-63599384D02*
X63467985Y-63587479D01*
X63467985Y-63587479D02*
X63444176Y-63563670D01*
X63444176Y-63563670D02*
X63408462Y-63527955D01*
X63408462Y-63527955D02*
X63384652Y-63516050D01*
X63384652Y-63516050D02*
X63360843Y-63516050D01*
X63372747Y-63575574D02*
X63348938Y-63563670D01*
X63348938Y-63563670D02*
X63325128Y-63539860D01*
X63325128Y-63539860D02*
X63313224Y-63492241D01*
X63313224Y-63492241D02*
X63313224Y-63408908D01*
X63313224Y-63408908D02*
X63325128Y-63361289D01*
X63325128Y-63361289D02*
X63348938Y-63337479D01*
X63348938Y-63337479D02*
X63372747Y-63325574D01*
X63372747Y-63325574D02*
X63420366Y-63325574D01*
X63420366Y-63325574D02*
X63444176Y-63337479D01*
X63444176Y-63337479D02*
X63467985Y-63361289D01*
X63467985Y-63361289D02*
X63479890Y-63408908D01*
X63479890Y-63408908D02*
X63479890Y-63492241D01*
X63479890Y-63492241D02*
X63467985Y-63539860D01*
X63467985Y-63539860D02*
X63444176Y-63563670D01*
X63444176Y-63563670D02*
X63420366Y-63575574D01*
X63420366Y-63575574D02*
X63372747Y-63575574D01*
X63587033Y-63575574D02*
X63587033Y-63325574D01*
X63587033Y-63325574D02*
X63729890Y-63575574D01*
X63729890Y-63575574D02*
X63729890Y-63325574D01*
X63884653Y-63432717D02*
X63860843Y-63420812D01*
X63860843Y-63420812D02*
X63848938Y-63408908D01*
X63848938Y-63408908D02*
X63837034Y-63385098D01*
X63837034Y-63385098D02*
X63837034Y-63373193D01*
X63837034Y-63373193D02*
X63848938Y-63349384D01*
X63848938Y-63349384D02*
X63860843Y-63337479D01*
X63860843Y-63337479D02*
X63884653Y-63325574D01*
X63884653Y-63325574D02*
X63932272Y-63325574D01*
X63932272Y-63325574D02*
X63956081Y-63337479D01*
X63956081Y-63337479D02*
X63967986Y-63349384D01*
X63967986Y-63349384D02*
X63979891Y-63373193D01*
X63979891Y-63373193D02*
X63979891Y-63385098D01*
X63979891Y-63385098D02*
X63967986Y-63408908D01*
X63967986Y-63408908D02*
X63956081Y-63420812D01*
X63956081Y-63420812D02*
X63932272Y-63432717D01*
X63932272Y-63432717D02*
X63884653Y-63432717D01*
X63884653Y-63432717D02*
X63860843Y-63444622D01*
X63860843Y-63444622D02*
X63848938Y-63456527D01*
X63848938Y-63456527D02*
X63837034Y-63480336D01*
X63837034Y-63480336D02*
X63837034Y-63527955D01*
X63837034Y-63527955D02*
X63848938Y-63551765D01*
X63848938Y-63551765D02*
X63860843Y-63563670D01*
X63860843Y-63563670D02*
X63884653Y-63575574D01*
X63884653Y-63575574D02*
X63932272Y-63575574D01*
X63932272Y-63575574D02*
X63956081Y-63563670D01*
X63956081Y-63563670D02*
X63967986Y-63551765D01*
X63967986Y-63551765D02*
X63979891Y-63527955D01*
X63979891Y-63527955D02*
X63979891Y-63480336D01*
X63979891Y-63480336D02*
X63967986Y-63456527D01*
X63967986Y-63456527D02*
X63956081Y-63444622D01*
X63956081Y-63444622D02*
X63932272Y-63432717D01*
X64122748Y-63432717D02*
X64098938Y-63420812D01*
X64098938Y-63420812D02*
X64087033Y-63408908D01*
X64087033Y-63408908D02*
X64075129Y-63385098D01*
X64075129Y-63385098D02*
X64075129Y-63373193D01*
X64075129Y-63373193D02*
X64087033Y-63349384D01*
X64087033Y-63349384D02*
X64098938Y-63337479D01*
X64098938Y-63337479D02*
X64122748Y-63325574D01*
X64122748Y-63325574D02*
X64170367Y-63325574D01*
X64170367Y-63325574D02*
X64194176Y-63337479D01*
X64194176Y-63337479D02*
X64206081Y-63349384D01*
X64206081Y-63349384D02*
X64217986Y-63373193D01*
X64217986Y-63373193D02*
X64217986Y-63385098D01*
X64217986Y-63385098D02*
X64206081Y-63408908D01*
X64206081Y-63408908D02*
X64194176Y-63420812D01*
X64194176Y-63420812D02*
X64170367Y-63432717D01*
X64170367Y-63432717D02*
X64122748Y-63432717D01*
X64122748Y-63432717D02*
X64098938Y-63444622D01*
X64098938Y-63444622D02*
X64087033Y-63456527D01*
X64087033Y-63456527D02*
X64075129Y-63480336D01*
X64075129Y-63480336D02*
X64075129Y-63527955D01*
X64075129Y-63527955D02*
X64087033Y-63551765D01*
X64087033Y-63551765D02*
X64098938Y-63563670D01*
X64098938Y-63563670D02*
X64122748Y-63575574D01*
X64122748Y-63575574D02*
X64170367Y-63575574D01*
X64170367Y-63575574D02*
X64194176Y-63563670D01*
X64194176Y-63563670D02*
X64206081Y-63551765D01*
X64206081Y-63551765D02*
X64217986Y-63527955D01*
X64217986Y-63527955D02*
X64217986Y-63480336D01*
X64217986Y-63480336D02*
X64206081Y-63456527D01*
X64206081Y-63456527D02*
X64194176Y-63444622D01*
X64194176Y-63444622D02*
X64170367Y-63432717D01*
X64467985Y-63551765D02*
X64456081Y-63563670D01*
X64456081Y-63563670D02*
X64420366Y-63575574D01*
X64420366Y-63575574D02*
X64396557Y-63575574D01*
X64396557Y-63575574D02*
X64360843Y-63563670D01*
X64360843Y-63563670D02*
X64337033Y-63539860D01*
X64337033Y-63539860D02*
X64325128Y-63516050D01*
X64325128Y-63516050D02*
X64313224Y-63468431D01*
X64313224Y-63468431D02*
X64313224Y-63432717D01*
X64313224Y-63432717D02*
X64325128Y-63385098D01*
X64325128Y-63385098D02*
X64337033Y-63361289D01*
X64337033Y-63361289D02*
X64360843Y-63337479D01*
X64360843Y-63337479D02*
X64396557Y-63325574D01*
X64396557Y-63325574D02*
X64420366Y-63325574D01*
X64420366Y-63325574D02*
X64456081Y-63337479D01*
X64456081Y-63337479D02*
X64467985Y-63349384D01*
X64682271Y-63325574D02*
X64634652Y-63325574D01*
X64634652Y-63325574D02*
X64610843Y-63337479D01*
X64610843Y-63337479D02*
X64598938Y-63349384D01*
X64598938Y-63349384D02*
X64575128Y-63385098D01*
X64575128Y-63385098D02*
X64563224Y-63432717D01*
X64563224Y-63432717D02*
X64563224Y-63527955D01*
X64563224Y-63527955D02*
X64575128Y-63551765D01*
X64575128Y-63551765D02*
X64587033Y-63563670D01*
X64587033Y-63563670D02*
X64610843Y-63575574D01*
X64610843Y-63575574D02*
X64658462Y-63575574D01*
X64658462Y-63575574D02*
X64682271Y-63563670D01*
X64682271Y-63563670D02*
X64694176Y-63551765D01*
X64694176Y-63551765D02*
X64706081Y-63527955D01*
X64706081Y-63527955D02*
X64706081Y-63468431D01*
X64706081Y-63468431D02*
X64694176Y-63444622D01*
X64694176Y-63444622D02*
X64682271Y-63432717D01*
X64682271Y-63432717D02*
X64658462Y-63420812D01*
X64658462Y-63420812D02*
X64610843Y-63420812D01*
X64610843Y-63420812D02*
X64587033Y-63432717D01*
X64587033Y-63432717D02*
X64575128Y-63444622D01*
X64575128Y-63444622D02*
X64563224Y-63468431D01*
X64753700Y-63599384D02*
X64944176Y-63599384D01*
X65003699Y-63575574D02*
X65003699Y-63325574D01*
X65241795Y-63325574D02*
X65122747Y-63325574D01*
X65122747Y-63325574D02*
X65110843Y-63444622D01*
X65110843Y-63444622D02*
X65122747Y-63432717D01*
X65122747Y-63432717D02*
X65146557Y-63420812D01*
X65146557Y-63420812D02*
X65206081Y-63420812D01*
X65206081Y-63420812D02*
X65229890Y-63432717D01*
X65229890Y-63432717D02*
X65241795Y-63444622D01*
X65241795Y-63444622D02*
X65253700Y-63468431D01*
X65253700Y-63468431D02*
X65253700Y-63527955D01*
X65253700Y-63527955D02*
X65241795Y-63551765D01*
X65241795Y-63551765D02*
X65229890Y-63563670D01*
X65229890Y-63563670D02*
X65206081Y-63575574D01*
X65206081Y-63575574D02*
X65146557Y-63575574D01*
X65146557Y-63575574D02*
X65122747Y-63563670D01*
X65122747Y-63563670D02*
X65110843Y-63551765D01*
X65301319Y-63599384D02*
X65491795Y-63599384D01*
X63137423Y-61598374D02*
X63137423Y-61800755D01*
X63137423Y-61800755D02*
X63149328Y-61824565D01*
X63149328Y-61824565D02*
X63161233Y-61836470D01*
X63161233Y-61836470D02*
X63185042Y-61848374D01*
X63185042Y-61848374D02*
X63232661Y-61848374D01*
X63232661Y-61848374D02*
X63256471Y-61836470D01*
X63256471Y-61836470D02*
X63268376Y-61824565D01*
X63268376Y-61824565D02*
X63280280Y-61800755D01*
X63280280Y-61800755D02*
X63280280Y-61598374D01*
X63530281Y-61848374D02*
X63387424Y-61848374D01*
X63458852Y-61848374D02*
X63458852Y-61598374D01*
X63458852Y-61598374D02*
X63435043Y-61634089D01*
X63435043Y-61634089D02*
X63411233Y-61657898D01*
X63411233Y-61657898D02*
X63387424Y-61669803D01*
X69463214Y-68035681D02*
X69396548Y-68035681D01*
X69396548Y-68140443D02*
X69396548Y-67940443D01*
X69396548Y-67940443D02*
X69491786Y-67940443D01*
X69567977Y-68140443D02*
X69567977Y-67940443D01*
X69663215Y-68140443D02*
X69663215Y-67940443D01*
X69663215Y-67940443D02*
X69710834Y-67940443D01*
X69710834Y-67940443D02*
X69739405Y-67949967D01*
X69739405Y-67949967D02*
X69758453Y-67969015D01*
X69758453Y-67969015D02*
X69767976Y-67988062D01*
X69767976Y-67988062D02*
X69777500Y-68026158D01*
X69777500Y-68026158D02*
X69777500Y-68054729D01*
X69777500Y-68054729D02*
X69767976Y-68092824D01*
X69767976Y-68092824D02*
X69758453Y-68111872D01*
X69758453Y-68111872D02*
X69739405Y-68130920D01*
X69739405Y-68130920D02*
X69710834Y-68140443D01*
X69710834Y-68140443D02*
X69663215Y-68140443D01*
X69872738Y-68140443D02*
X69910834Y-68140443D01*
X69910834Y-68140443D02*
X69929881Y-68130920D01*
X69929881Y-68130920D02*
X69939405Y-68121396D01*
X69939405Y-68121396D02*
X69958453Y-68092824D01*
X69958453Y-68092824D02*
X69967976Y-68054729D01*
X69967976Y-68054729D02*
X69967976Y-67978539D01*
X69967976Y-67978539D02*
X69958453Y-67959491D01*
X69958453Y-67959491D02*
X69948929Y-67949967D01*
X69948929Y-67949967D02*
X69929881Y-67940443D01*
X69929881Y-67940443D02*
X69891786Y-67940443D01*
X69891786Y-67940443D02*
X69872738Y-67949967D01*
X69872738Y-67949967D02*
X69863215Y-67959491D01*
X69863215Y-67959491D02*
X69853691Y-67978539D01*
X69853691Y-67978539D02*
X69853691Y-68026158D01*
X69853691Y-68026158D02*
X69863215Y-68045205D01*
X69863215Y-68045205D02*
X69872738Y-68054729D01*
X69872738Y-68054729D02*
X69891786Y-68064253D01*
X69891786Y-68064253D02*
X69929881Y-68064253D01*
X69929881Y-68064253D02*
X69948929Y-68054729D01*
X69948929Y-68054729D02*
X69958453Y-68045205D01*
X69958453Y-68045205D02*
X69967976Y-68026158D01*
X86263214Y-63035681D02*
X86196548Y-63035681D01*
X86196548Y-63140443D02*
X86196548Y-62940443D01*
X86196548Y-62940443D02*
X86291786Y-62940443D01*
X86367977Y-63140443D02*
X86367977Y-62940443D01*
X86463215Y-63140443D02*
X86463215Y-62940443D01*
X86463215Y-62940443D02*
X86510834Y-62940443D01*
X86510834Y-62940443D02*
X86539405Y-62949967D01*
X86539405Y-62949967D02*
X86558453Y-62969015D01*
X86558453Y-62969015D02*
X86567976Y-62988062D01*
X86567976Y-62988062D02*
X86577500Y-63026158D01*
X86577500Y-63026158D02*
X86577500Y-63054729D01*
X86577500Y-63054729D02*
X86567976Y-63092824D01*
X86567976Y-63092824D02*
X86558453Y-63111872D01*
X86558453Y-63111872D02*
X86539405Y-63130920D01*
X86539405Y-63130920D02*
X86510834Y-63140443D01*
X86510834Y-63140443D02*
X86463215Y-63140443D01*
X86748929Y-62940443D02*
X86710834Y-62940443D01*
X86710834Y-62940443D02*
X86691786Y-62949967D01*
X86691786Y-62949967D02*
X86682262Y-62959491D01*
X86682262Y-62959491D02*
X86663215Y-62988062D01*
X86663215Y-62988062D02*
X86653691Y-63026158D01*
X86653691Y-63026158D02*
X86653691Y-63102348D01*
X86653691Y-63102348D02*
X86663215Y-63121396D01*
X86663215Y-63121396D02*
X86672738Y-63130920D01*
X86672738Y-63130920D02*
X86691786Y-63140443D01*
X86691786Y-63140443D02*
X86729881Y-63140443D01*
X86729881Y-63140443D02*
X86748929Y-63130920D01*
X86748929Y-63130920D02*
X86758453Y-63121396D01*
X86758453Y-63121396D02*
X86767976Y-63102348D01*
X86767976Y-63102348D02*
X86767976Y-63054729D01*
X86767976Y-63054729D02*
X86758453Y-63035681D01*
X86758453Y-63035681D02*
X86748929Y-63026158D01*
X86748929Y-63026158D02*
X86729881Y-63016634D01*
X86729881Y-63016634D02*
X86691786Y-63016634D01*
X86691786Y-63016634D02*
X86672738Y-63026158D01*
X86672738Y-63026158D02*
X86663215Y-63035681D01*
X86663215Y-63035681D02*
X86653691Y-63054729D01*
X79077891Y-59155974D02*
X78935034Y-59155974D01*
X79006462Y-59155974D02*
X79006462Y-58905974D01*
X79006462Y-58905974D02*
X78982653Y-58941689D01*
X78982653Y-58941689D02*
X78958843Y-58965498D01*
X78958843Y-58965498D02*
X78935034Y-58977403D01*
X79232652Y-58905974D02*
X79256462Y-58905974D01*
X79256462Y-58905974D02*
X79280271Y-58917879D01*
X79280271Y-58917879D02*
X79292176Y-58929784D01*
X79292176Y-58929784D02*
X79304081Y-58953593D01*
X79304081Y-58953593D02*
X79315986Y-59001212D01*
X79315986Y-59001212D02*
X79315986Y-59060736D01*
X79315986Y-59060736D02*
X79304081Y-59108355D01*
X79304081Y-59108355D02*
X79292176Y-59132165D01*
X79292176Y-59132165D02*
X79280271Y-59144070D01*
X79280271Y-59144070D02*
X79256462Y-59155974D01*
X79256462Y-59155974D02*
X79232652Y-59155974D01*
X79232652Y-59155974D02*
X79208843Y-59144070D01*
X79208843Y-59144070D02*
X79196938Y-59132165D01*
X79196938Y-59132165D02*
X79185033Y-59108355D01*
X79185033Y-59108355D02*
X79173129Y-59060736D01*
X79173129Y-59060736D02*
X79173129Y-59001212D01*
X79173129Y-59001212D02*
X79185033Y-58953593D01*
X79185033Y-58953593D02*
X79196938Y-58929784D01*
X79196938Y-58929784D02*
X79208843Y-58917879D01*
X79208843Y-58917879D02*
X79232652Y-58905974D01*
X79423128Y-59155974D02*
X79423128Y-58905974D01*
X79446938Y-59060736D02*
X79518366Y-59155974D01*
X79518366Y-58989308D02*
X79423128Y-59084546D01*
X79135833Y-58563574D02*
X79052500Y-58444527D01*
X78992976Y-58563574D02*
X78992976Y-58313574D01*
X78992976Y-58313574D02*
X79088214Y-58313574D01*
X79088214Y-58313574D02*
X79112024Y-58325479D01*
X79112024Y-58325479D02*
X79123929Y-58337384D01*
X79123929Y-58337384D02*
X79135833Y-58361193D01*
X79135833Y-58361193D02*
X79135833Y-58396908D01*
X79135833Y-58396908D02*
X79123929Y-58420717D01*
X79123929Y-58420717D02*
X79112024Y-58432622D01*
X79112024Y-58432622D02*
X79088214Y-58444527D01*
X79088214Y-58444527D02*
X78992976Y-58444527D01*
X79219167Y-58313574D02*
X79373929Y-58313574D01*
X79373929Y-58313574D02*
X79290595Y-58408812D01*
X79290595Y-58408812D02*
X79326310Y-58408812D01*
X79326310Y-58408812D02*
X79350119Y-58420717D01*
X79350119Y-58420717D02*
X79362024Y-58432622D01*
X79362024Y-58432622D02*
X79373929Y-58456431D01*
X79373929Y-58456431D02*
X79373929Y-58515955D01*
X79373929Y-58515955D02*
X79362024Y-58539765D01*
X79362024Y-58539765D02*
X79350119Y-58551670D01*
X79350119Y-58551670D02*
X79326310Y-58563574D01*
X79326310Y-58563574D02*
X79254881Y-58563574D01*
X79254881Y-58563574D02*
X79231072Y-58551670D01*
X79231072Y-58551670D02*
X79219167Y-58539765D01*
X56163214Y-60835681D02*
X56096548Y-60835681D01*
X56096548Y-60940443D02*
X56096548Y-60740443D01*
X56096548Y-60740443D02*
X56191786Y-60740443D01*
X56267977Y-60940443D02*
X56267977Y-60740443D01*
X56363215Y-60940443D02*
X56363215Y-60740443D01*
X56363215Y-60740443D02*
X56410834Y-60740443D01*
X56410834Y-60740443D02*
X56439405Y-60749967D01*
X56439405Y-60749967D02*
X56458453Y-60769015D01*
X56458453Y-60769015D02*
X56467976Y-60788062D01*
X56467976Y-60788062D02*
X56477500Y-60826158D01*
X56477500Y-60826158D02*
X56477500Y-60854729D01*
X56477500Y-60854729D02*
X56467976Y-60892824D01*
X56467976Y-60892824D02*
X56458453Y-60911872D01*
X56458453Y-60911872D02*
X56439405Y-60930920D01*
X56439405Y-60930920D02*
X56410834Y-60940443D01*
X56410834Y-60940443D02*
X56363215Y-60940443D01*
X56591786Y-60826158D02*
X56572738Y-60816634D01*
X56572738Y-60816634D02*
X56563215Y-60807110D01*
X56563215Y-60807110D02*
X56553691Y-60788062D01*
X56553691Y-60788062D02*
X56553691Y-60778539D01*
X56553691Y-60778539D02*
X56563215Y-60759491D01*
X56563215Y-60759491D02*
X56572738Y-60749967D01*
X56572738Y-60749967D02*
X56591786Y-60740443D01*
X56591786Y-60740443D02*
X56629881Y-60740443D01*
X56629881Y-60740443D02*
X56648929Y-60749967D01*
X56648929Y-60749967D02*
X56658453Y-60759491D01*
X56658453Y-60759491D02*
X56667976Y-60778539D01*
X56667976Y-60778539D02*
X56667976Y-60788062D01*
X56667976Y-60788062D02*
X56658453Y-60807110D01*
X56658453Y-60807110D02*
X56648929Y-60816634D01*
X56648929Y-60816634D02*
X56629881Y-60826158D01*
X56629881Y-60826158D02*
X56591786Y-60826158D01*
X56591786Y-60826158D02*
X56572738Y-60835681D01*
X56572738Y-60835681D02*
X56563215Y-60845205D01*
X56563215Y-60845205D02*
X56553691Y-60864253D01*
X56553691Y-60864253D02*
X56553691Y-60902348D01*
X56553691Y-60902348D02*
X56563215Y-60921396D01*
X56563215Y-60921396D02*
X56572738Y-60930920D01*
X56572738Y-60930920D02*
X56591786Y-60940443D01*
X56591786Y-60940443D02*
X56629881Y-60940443D01*
X56629881Y-60940443D02*
X56648929Y-60930920D01*
X56648929Y-60930920D02*
X56658453Y-60921396D01*
X56658453Y-60921396D02*
X56667976Y-60902348D01*
X56667976Y-60902348D02*
X56667976Y-60864253D01*
X56667976Y-60864253D02*
X56658453Y-60845205D01*
X56658453Y-60845205D02*
X56648929Y-60835681D01*
X56648929Y-60835681D02*
X56629881Y-60826158D01*
X42963214Y-67935681D02*
X42896548Y-67935681D01*
X42896548Y-68040443D02*
X42896548Y-67840443D01*
X42896548Y-67840443D02*
X42991786Y-67840443D01*
X43067977Y-68040443D02*
X43067977Y-67840443D01*
X43163215Y-68040443D02*
X43163215Y-67840443D01*
X43163215Y-67840443D02*
X43210834Y-67840443D01*
X43210834Y-67840443D02*
X43239405Y-67849967D01*
X43239405Y-67849967D02*
X43258453Y-67869015D01*
X43258453Y-67869015D02*
X43267976Y-67888062D01*
X43267976Y-67888062D02*
X43277500Y-67926158D01*
X43277500Y-67926158D02*
X43277500Y-67954729D01*
X43277500Y-67954729D02*
X43267976Y-67992824D01*
X43267976Y-67992824D02*
X43258453Y-68011872D01*
X43258453Y-68011872D02*
X43239405Y-68030920D01*
X43239405Y-68030920D02*
X43210834Y-68040443D01*
X43210834Y-68040443D02*
X43163215Y-68040443D01*
X43448929Y-67907110D02*
X43448929Y-68040443D01*
X43401310Y-67830920D02*
X43353691Y-67973777D01*
X43353691Y-67973777D02*
X43477500Y-67973777D01*
X42037977Y-56745384D02*
X42049881Y-56733479D01*
X42049881Y-56733479D02*
X42073691Y-56721574D01*
X42073691Y-56721574D02*
X42133215Y-56721574D01*
X42133215Y-56721574D02*
X42157024Y-56733479D01*
X42157024Y-56733479D02*
X42168929Y-56745384D01*
X42168929Y-56745384D02*
X42180834Y-56769193D01*
X42180834Y-56769193D02*
X42180834Y-56793003D01*
X42180834Y-56793003D02*
X42168929Y-56828717D01*
X42168929Y-56828717D02*
X42026072Y-56971574D01*
X42026072Y-56971574D02*
X42180834Y-56971574D01*
X42276072Y-56745384D02*
X42287976Y-56733479D01*
X42287976Y-56733479D02*
X42311786Y-56721574D01*
X42311786Y-56721574D02*
X42371310Y-56721574D01*
X42371310Y-56721574D02*
X42395119Y-56733479D01*
X42395119Y-56733479D02*
X42407024Y-56745384D01*
X42407024Y-56745384D02*
X42418929Y-56769193D01*
X42418929Y-56769193D02*
X42418929Y-56793003D01*
X42418929Y-56793003D02*
X42407024Y-56828717D01*
X42407024Y-56828717D02*
X42264167Y-56971574D01*
X42264167Y-56971574D02*
X42418929Y-56971574D01*
X42573690Y-56721574D02*
X42597500Y-56721574D01*
X42597500Y-56721574D02*
X42621309Y-56733479D01*
X42621309Y-56733479D02*
X42633214Y-56745384D01*
X42633214Y-56745384D02*
X42645119Y-56769193D01*
X42645119Y-56769193D02*
X42657024Y-56816812D01*
X42657024Y-56816812D02*
X42657024Y-56876336D01*
X42657024Y-56876336D02*
X42645119Y-56923955D01*
X42645119Y-56923955D02*
X42633214Y-56947765D01*
X42633214Y-56947765D02*
X42621309Y-56959670D01*
X42621309Y-56959670D02*
X42597500Y-56971574D01*
X42597500Y-56971574D02*
X42573690Y-56971574D01*
X42573690Y-56971574D02*
X42549881Y-56959670D01*
X42549881Y-56959670D02*
X42537976Y-56947765D01*
X42537976Y-56947765D02*
X42526071Y-56923955D01*
X42526071Y-56923955D02*
X42514167Y-56876336D01*
X42514167Y-56876336D02*
X42514167Y-56816812D01*
X42514167Y-56816812D02*
X42526071Y-56769193D01*
X42526071Y-56769193D02*
X42537976Y-56745384D01*
X42537976Y-56745384D02*
X42549881Y-56733479D01*
X42549881Y-56733479D02*
X42573690Y-56721574D01*
X42335833Y-57563574D02*
X42252500Y-57444527D01*
X42192976Y-57563574D02*
X42192976Y-57313574D01*
X42192976Y-57313574D02*
X42288214Y-57313574D01*
X42288214Y-57313574D02*
X42312024Y-57325479D01*
X42312024Y-57325479D02*
X42323929Y-57337384D01*
X42323929Y-57337384D02*
X42335833Y-57361193D01*
X42335833Y-57361193D02*
X42335833Y-57396908D01*
X42335833Y-57396908D02*
X42323929Y-57420717D01*
X42323929Y-57420717D02*
X42312024Y-57432622D01*
X42312024Y-57432622D02*
X42288214Y-57444527D01*
X42288214Y-57444527D02*
X42192976Y-57444527D01*
X42573929Y-57563574D02*
X42431072Y-57563574D01*
X42502500Y-57563574D02*
X42502500Y-57313574D01*
X42502500Y-57313574D02*
X42478691Y-57349289D01*
X42478691Y-57349289D02*
X42454881Y-57373098D01*
X42454881Y-57373098D02*
X42431072Y-57385003D01*
X42043929Y-60174384D02*
X42055833Y-60162479D01*
X42055833Y-60162479D02*
X42079643Y-60150574D01*
X42079643Y-60150574D02*
X42139167Y-60150574D01*
X42139167Y-60150574D02*
X42162976Y-60162479D01*
X42162976Y-60162479D02*
X42174881Y-60174384D01*
X42174881Y-60174384D02*
X42186786Y-60198193D01*
X42186786Y-60198193D02*
X42186786Y-60222003D01*
X42186786Y-60222003D02*
X42174881Y-60257717D01*
X42174881Y-60257717D02*
X42032024Y-60400574D01*
X42032024Y-60400574D02*
X42186786Y-60400574D01*
X42282024Y-60174384D02*
X42293928Y-60162479D01*
X42293928Y-60162479D02*
X42317738Y-60150574D01*
X42317738Y-60150574D02*
X42377262Y-60150574D01*
X42377262Y-60150574D02*
X42401071Y-60162479D01*
X42401071Y-60162479D02*
X42412976Y-60174384D01*
X42412976Y-60174384D02*
X42424881Y-60198193D01*
X42424881Y-60198193D02*
X42424881Y-60222003D01*
X42424881Y-60222003D02*
X42412976Y-60257717D01*
X42412976Y-60257717D02*
X42270119Y-60400574D01*
X42270119Y-60400574D02*
X42424881Y-60400574D01*
X42639166Y-60233908D02*
X42639166Y-60400574D01*
X42532023Y-60233908D02*
X42532023Y-60364860D01*
X42532023Y-60364860D02*
X42543928Y-60388670D01*
X42543928Y-60388670D02*
X42567738Y-60400574D01*
X42567738Y-60400574D02*
X42603452Y-60400574D01*
X42603452Y-60400574D02*
X42627261Y-60388670D01*
X42627261Y-60388670D02*
X42639166Y-60376765D01*
X42305833Y-59868765D02*
X42293929Y-59880670D01*
X42293929Y-59880670D02*
X42258214Y-59892574D01*
X42258214Y-59892574D02*
X42234405Y-59892574D01*
X42234405Y-59892574D02*
X42198691Y-59880670D01*
X42198691Y-59880670D02*
X42174881Y-59856860D01*
X42174881Y-59856860D02*
X42162976Y-59833050D01*
X42162976Y-59833050D02*
X42151072Y-59785431D01*
X42151072Y-59785431D02*
X42151072Y-59749717D01*
X42151072Y-59749717D02*
X42162976Y-59702098D01*
X42162976Y-59702098D02*
X42174881Y-59678289D01*
X42174881Y-59678289D02*
X42198691Y-59654479D01*
X42198691Y-59654479D02*
X42234405Y-59642574D01*
X42234405Y-59642574D02*
X42258214Y-59642574D01*
X42258214Y-59642574D02*
X42293929Y-59654479D01*
X42293929Y-59654479D02*
X42305833Y-59666384D01*
X42448691Y-59749717D02*
X42424881Y-59737812D01*
X42424881Y-59737812D02*
X42412976Y-59725908D01*
X42412976Y-59725908D02*
X42401072Y-59702098D01*
X42401072Y-59702098D02*
X42401072Y-59690193D01*
X42401072Y-59690193D02*
X42412976Y-59666384D01*
X42412976Y-59666384D02*
X42424881Y-59654479D01*
X42424881Y-59654479D02*
X42448691Y-59642574D01*
X42448691Y-59642574D02*
X42496310Y-59642574D01*
X42496310Y-59642574D02*
X42520119Y-59654479D01*
X42520119Y-59654479D02*
X42532024Y-59666384D01*
X42532024Y-59666384D02*
X42543929Y-59690193D01*
X42543929Y-59690193D02*
X42543929Y-59702098D01*
X42543929Y-59702098D02*
X42532024Y-59725908D01*
X42532024Y-59725908D02*
X42520119Y-59737812D01*
X42520119Y-59737812D02*
X42496310Y-59749717D01*
X42496310Y-59749717D02*
X42448691Y-59749717D01*
X42448691Y-59749717D02*
X42424881Y-59761622D01*
X42424881Y-59761622D02*
X42412976Y-59773527D01*
X42412976Y-59773527D02*
X42401072Y-59797336D01*
X42401072Y-59797336D02*
X42401072Y-59844955D01*
X42401072Y-59844955D02*
X42412976Y-59868765D01*
X42412976Y-59868765D02*
X42424881Y-59880670D01*
X42424881Y-59880670D02*
X42448691Y-59892574D01*
X42448691Y-59892574D02*
X42496310Y-59892574D01*
X42496310Y-59892574D02*
X42520119Y-59880670D01*
X42520119Y-59880670D02*
X42532024Y-59868765D01*
X42532024Y-59868765D02*
X42543929Y-59844955D01*
X42543929Y-59844955D02*
X42543929Y-59797336D01*
X42543929Y-59797336D02*
X42532024Y-59773527D01*
X42532024Y-59773527D02*
X42520119Y-59761622D01*
X42520119Y-59761622D02*
X42496310Y-59749717D01*
X49591548Y-66389665D02*
X49591548Y-66568237D01*
X49591548Y-66568237D02*
X49579643Y-66603951D01*
X49579643Y-66603951D02*
X49555834Y-66627761D01*
X49555834Y-66627761D02*
X49520119Y-66639665D01*
X49520119Y-66639665D02*
X49496310Y-66639665D01*
X49651072Y-66663475D02*
X49841548Y-66663475D01*
X49901071Y-66508713D02*
X49984405Y-66508713D01*
X50020119Y-66639665D02*
X49901071Y-66639665D01*
X49901071Y-66639665D02*
X49901071Y-66389665D01*
X49901071Y-66389665D02*
X50020119Y-66389665D01*
X50103452Y-66389665D02*
X50270118Y-66639665D01*
X50270118Y-66389665D02*
X50103452Y-66639665D01*
X50329642Y-66389665D02*
X50472499Y-66389665D01*
X50401071Y-66639665D02*
X50401071Y-66389665D01*
X50686785Y-66639665D02*
X50543928Y-66639665D01*
X50615356Y-66639665D02*
X50615356Y-66389665D01*
X50615356Y-66389665D02*
X50591547Y-66425380D01*
X50591547Y-66425380D02*
X50567737Y-66449189D01*
X50567737Y-66449189D02*
X50543928Y-66461094D01*
X43897357Y-62817574D02*
X44052119Y-62817574D01*
X44052119Y-62817574D02*
X43968785Y-62912812D01*
X43968785Y-62912812D02*
X44004500Y-62912812D01*
X44004500Y-62912812D02*
X44028309Y-62924717D01*
X44028309Y-62924717D02*
X44040214Y-62936622D01*
X44040214Y-62936622D02*
X44052119Y-62960431D01*
X44052119Y-62960431D02*
X44052119Y-63019955D01*
X44052119Y-63019955D02*
X44040214Y-63043765D01*
X44040214Y-63043765D02*
X44028309Y-63055670D01*
X44028309Y-63055670D02*
X44004500Y-63067574D01*
X44004500Y-63067574D02*
X43933071Y-63067574D01*
X43933071Y-63067574D02*
X43909262Y-63055670D01*
X43909262Y-63055670D02*
X43897357Y-63043765D01*
X44290214Y-63067574D02*
X44147357Y-63067574D01*
X44218785Y-63067574D02*
X44218785Y-62817574D01*
X44218785Y-62817574D02*
X44194976Y-62853289D01*
X44194976Y-62853289D02*
X44171166Y-62877098D01*
X44171166Y-62877098D02*
X44147357Y-62889003D01*
X44397356Y-63043765D02*
X44409261Y-63055670D01*
X44409261Y-63055670D02*
X44397356Y-63067574D01*
X44397356Y-63067574D02*
X44385452Y-63055670D01*
X44385452Y-63055670D02*
X44397356Y-63043765D01*
X44397356Y-63043765D02*
X44397356Y-63067574D01*
X44623547Y-62817574D02*
X44575928Y-62817574D01*
X44575928Y-62817574D02*
X44552119Y-62829479D01*
X44552119Y-62829479D02*
X44540214Y-62841384D01*
X44540214Y-62841384D02*
X44516404Y-62877098D01*
X44516404Y-62877098D02*
X44504500Y-62924717D01*
X44504500Y-62924717D02*
X44504500Y-63019955D01*
X44504500Y-63019955D02*
X44516404Y-63043765D01*
X44516404Y-63043765D02*
X44528309Y-63055670D01*
X44528309Y-63055670D02*
X44552119Y-63067574D01*
X44552119Y-63067574D02*
X44599738Y-63067574D01*
X44599738Y-63067574D02*
X44623547Y-63055670D01*
X44623547Y-63055670D02*
X44635452Y-63043765D01*
X44635452Y-63043765D02*
X44647357Y-63019955D01*
X44647357Y-63019955D02*
X44647357Y-62960431D01*
X44647357Y-62960431D02*
X44635452Y-62936622D01*
X44635452Y-62936622D02*
X44623547Y-62924717D01*
X44623547Y-62924717D02*
X44599738Y-62912812D01*
X44599738Y-62912812D02*
X44552119Y-62912812D01*
X44552119Y-62912812D02*
X44528309Y-62924717D01*
X44528309Y-62924717D02*
X44516404Y-62936622D01*
X44516404Y-62936622D02*
X44504500Y-62960431D01*
X44754499Y-63067574D02*
X44754499Y-62817574D01*
X44778309Y-62972336D02*
X44849737Y-63067574D01*
X44849737Y-62900908D02*
X44754499Y-62996146D01*
X44435833Y-63563574D02*
X44352500Y-63444527D01*
X44292976Y-63563574D02*
X44292976Y-63313574D01*
X44292976Y-63313574D02*
X44388214Y-63313574D01*
X44388214Y-63313574D02*
X44412024Y-63325479D01*
X44412024Y-63325479D02*
X44423929Y-63337384D01*
X44423929Y-63337384D02*
X44435833Y-63361193D01*
X44435833Y-63361193D02*
X44435833Y-63396908D01*
X44435833Y-63396908D02*
X44423929Y-63420717D01*
X44423929Y-63420717D02*
X44412024Y-63432622D01*
X44412024Y-63432622D02*
X44388214Y-63444527D01*
X44388214Y-63444527D02*
X44292976Y-63444527D01*
X44650119Y-63396908D02*
X44650119Y-63563574D01*
X44590595Y-63301670D02*
X44531072Y-63480241D01*
X44531072Y-63480241D02*
X44685833Y-63480241D01*
X44442274Y-65287208D02*
X44442274Y-65430065D01*
X44442274Y-65358637D02*
X44192274Y-65358637D01*
X44192274Y-65358637D02*
X44227989Y-65382446D01*
X44227989Y-65382446D02*
X44251798Y-65406256D01*
X44251798Y-65406256D02*
X44263703Y-65430065D01*
X44192274Y-65132447D02*
X44192274Y-65108637D01*
X44192274Y-65108637D02*
X44204179Y-65084828D01*
X44204179Y-65084828D02*
X44216084Y-65072923D01*
X44216084Y-65072923D02*
X44239893Y-65061018D01*
X44239893Y-65061018D02*
X44287512Y-65049113D01*
X44287512Y-65049113D02*
X44347036Y-65049113D01*
X44347036Y-65049113D02*
X44394655Y-65061018D01*
X44394655Y-65061018D02*
X44418465Y-65072923D01*
X44418465Y-65072923D02*
X44430370Y-65084828D01*
X44430370Y-65084828D02*
X44442274Y-65108637D01*
X44442274Y-65108637D02*
X44442274Y-65132447D01*
X44442274Y-65132447D02*
X44430370Y-65156256D01*
X44430370Y-65156256D02*
X44418465Y-65168161D01*
X44418465Y-65168161D02*
X44394655Y-65180066D01*
X44394655Y-65180066D02*
X44347036Y-65191970D01*
X44347036Y-65191970D02*
X44287512Y-65191970D01*
X44287512Y-65191970D02*
X44239893Y-65180066D01*
X44239893Y-65180066D02*
X44216084Y-65168161D01*
X44216084Y-65168161D02*
X44204179Y-65156256D01*
X44204179Y-65156256D02*
X44192274Y-65132447D01*
X44442274Y-64941971D02*
X44192274Y-64941971D01*
X44347036Y-64918161D02*
X44442274Y-64846733D01*
X44275608Y-64846733D02*
X44370846Y-64941971D01*
X43891074Y-65191666D02*
X43772027Y-65274999D01*
X43891074Y-65334523D02*
X43641074Y-65334523D01*
X43641074Y-65334523D02*
X43641074Y-65239285D01*
X43641074Y-65239285D02*
X43652979Y-65215475D01*
X43652979Y-65215475D02*
X43664884Y-65203570D01*
X43664884Y-65203570D02*
X43688693Y-65191666D01*
X43688693Y-65191666D02*
X43724408Y-65191666D01*
X43724408Y-65191666D02*
X43748217Y-65203570D01*
X43748217Y-65203570D02*
X43760122Y-65215475D01*
X43760122Y-65215475D02*
X43772027Y-65239285D01*
X43772027Y-65239285D02*
X43772027Y-65334523D01*
X43641074Y-64965475D02*
X43641074Y-65084523D01*
X43641074Y-65084523D02*
X43760122Y-65096427D01*
X43760122Y-65096427D02*
X43748217Y-65084523D01*
X43748217Y-65084523D02*
X43736312Y-65060713D01*
X43736312Y-65060713D02*
X43736312Y-65001189D01*
X43736312Y-65001189D02*
X43748217Y-64977380D01*
X43748217Y-64977380D02*
X43760122Y-64965475D01*
X43760122Y-64965475D02*
X43783931Y-64953570D01*
X43783931Y-64953570D02*
X43843455Y-64953570D01*
X43843455Y-64953570D02*
X43867265Y-64965475D01*
X43867265Y-64965475D02*
X43879170Y-64977380D01*
X43879170Y-64977380D02*
X43891074Y-65001189D01*
X43891074Y-65001189D02*
X43891074Y-65060713D01*
X43891074Y-65060713D02*
X43879170Y-65084523D01*
X43879170Y-65084523D02*
X43867265Y-65096427D01*
X73707074Y-63368618D02*
X73885646Y-63368618D01*
X73885646Y-63368618D02*
X73921360Y-63380523D01*
X73921360Y-63380523D02*
X73945170Y-63404332D01*
X73945170Y-63404332D02*
X73957074Y-63440047D01*
X73957074Y-63440047D02*
X73957074Y-63463856D01*
X73980884Y-63309095D02*
X73980884Y-63118618D01*
X73957074Y-63059095D02*
X73707074Y-63059095D01*
X73707074Y-63059095D02*
X73707074Y-62999571D01*
X73707074Y-62999571D02*
X73718979Y-62963857D01*
X73718979Y-62963857D02*
X73742789Y-62940047D01*
X73742789Y-62940047D02*
X73766598Y-62928142D01*
X73766598Y-62928142D02*
X73814217Y-62916238D01*
X73814217Y-62916238D02*
X73849931Y-62916238D01*
X73849931Y-62916238D02*
X73897550Y-62928142D01*
X73897550Y-62928142D02*
X73921360Y-62940047D01*
X73921360Y-62940047D02*
X73945170Y-62963857D01*
X73945170Y-62963857D02*
X73957074Y-62999571D01*
X73957074Y-62999571D02*
X73957074Y-63059095D01*
X73957074Y-62809095D02*
X73707074Y-62809095D01*
X73945170Y-62701951D02*
X73957074Y-62666237D01*
X73957074Y-62666237D02*
X73957074Y-62606713D01*
X73957074Y-62606713D02*
X73945170Y-62582904D01*
X73945170Y-62582904D02*
X73933265Y-62570999D01*
X73933265Y-62570999D02*
X73909455Y-62559094D01*
X73909455Y-62559094D02*
X73885646Y-62559094D01*
X73885646Y-62559094D02*
X73861836Y-62570999D01*
X73861836Y-62570999D02*
X73849931Y-62582904D01*
X73849931Y-62582904D02*
X73838027Y-62606713D01*
X73838027Y-62606713D02*
X73826122Y-62654332D01*
X73826122Y-62654332D02*
X73814217Y-62678142D01*
X73814217Y-62678142D02*
X73802312Y-62690047D01*
X73802312Y-62690047D02*
X73778503Y-62701951D01*
X73778503Y-62701951D02*
X73754693Y-62701951D01*
X73754693Y-62701951D02*
X73730884Y-62690047D01*
X73730884Y-62690047D02*
X73718979Y-62678142D01*
X73718979Y-62678142D02*
X73707074Y-62654332D01*
X73707074Y-62654332D02*
X73707074Y-62594809D01*
X73707074Y-62594809D02*
X73718979Y-62559094D01*
X73957074Y-62451952D02*
X73707074Y-62451952D01*
X73707074Y-62451952D02*
X73707074Y-62356714D01*
X73707074Y-62356714D02*
X73718979Y-62332904D01*
X73718979Y-62332904D02*
X73730884Y-62320999D01*
X73730884Y-62320999D02*
X73754693Y-62309095D01*
X73754693Y-62309095D02*
X73790408Y-62309095D01*
X73790408Y-62309095D02*
X73814217Y-62320999D01*
X73814217Y-62320999D02*
X73826122Y-62332904D01*
X73826122Y-62332904D02*
X73838027Y-62356714D01*
X73838027Y-62356714D02*
X73838027Y-62451952D01*
X73957074Y-62082904D02*
X73957074Y-62201952D01*
X73957074Y-62201952D02*
X73707074Y-62201952D01*
X73885646Y-62011475D02*
X73885646Y-61892428D01*
X73957074Y-62035285D02*
X73707074Y-61951952D01*
X73707074Y-61951952D02*
X73957074Y-61868618D01*
X73838027Y-61737666D02*
X73957074Y-61737666D01*
X73707074Y-61820999D02*
X73838027Y-61737666D01*
X73838027Y-61737666D02*
X73707074Y-61654332D01*
X73957074Y-61440046D02*
X73957074Y-61582903D01*
X73957074Y-61511475D02*
X73707074Y-61511475D01*
X73707074Y-61511475D02*
X73742789Y-61535284D01*
X73742789Y-61535284D02*
X73766598Y-61559094D01*
X73766598Y-61559094D02*
X73778503Y-61582903D01*
X55442884Y-58389494D02*
X55430979Y-58377590D01*
X55430979Y-58377590D02*
X55419074Y-58353780D01*
X55419074Y-58353780D02*
X55419074Y-58294256D01*
X55419074Y-58294256D02*
X55430979Y-58270447D01*
X55430979Y-58270447D02*
X55442884Y-58258542D01*
X55442884Y-58258542D02*
X55466693Y-58246637D01*
X55466693Y-58246637D02*
X55490503Y-58246637D01*
X55490503Y-58246637D02*
X55526217Y-58258542D01*
X55526217Y-58258542D02*
X55669074Y-58401399D01*
X55669074Y-58401399D02*
X55669074Y-58246637D01*
X55645265Y-58139495D02*
X55657170Y-58127590D01*
X55657170Y-58127590D02*
X55669074Y-58139495D01*
X55669074Y-58139495D02*
X55657170Y-58151399D01*
X55657170Y-58151399D02*
X55645265Y-58139495D01*
X55645265Y-58139495D02*
X55669074Y-58139495D01*
X55442884Y-58032351D02*
X55430979Y-58020447D01*
X55430979Y-58020447D02*
X55419074Y-57996637D01*
X55419074Y-57996637D02*
X55419074Y-57937113D01*
X55419074Y-57937113D02*
X55430979Y-57913304D01*
X55430979Y-57913304D02*
X55442884Y-57901399D01*
X55442884Y-57901399D02*
X55466693Y-57889494D01*
X55466693Y-57889494D02*
X55490503Y-57889494D01*
X55490503Y-57889494D02*
X55526217Y-57901399D01*
X55526217Y-57901399D02*
X55669074Y-58044256D01*
X55669074Y-58044256D02*
X55669074Y-57889494D01*
X55502408Y-57675209D02*
X55669074Y-57675209D01*
X55502408Y-57782352D02*
X55633360Y-57782352D01*
X55633360Y-57782352D02*
X55657170Y-57770447D01*
X55657170Y-57770447D02*
X55669074Y-57746637D01*
X55669074Y-57746637D02*
X55669074Y-57710923D01*
X55669074Y-57710923D02*
X55657170Y-57687114D01*
X55657170Y-57687114D02*
X55645265Y-57675209D01*
X56207265Y-58091666D02*
X56219170Y-58103570D01*
X56219170Y-58103570D02*
X56231074Y-58139285D01*
X56231074Y-58139285D02*
X56231074Y-58163094D01*
X56231074Y-58163094D02*
X56219170Y-58198808D01*
X56219170Y-58198808D02*
X56195360Y-58222618D01*
X56195360Y-58222618D02*
X56171550Y-58234523D01*
X56171550Y-58234523D02*
X56123931Y-58246427D01*
X56123931Y-58246427D02*
X56088217Y-58246427D01*
X56088217Y-58246427D02*
X56040598Y-58234523D01*
X56040598Y-58234523D02*
X56016789Y-58222618D01*
X56016789Y-58222618D02*
X55992979Y-58198808D01*
X55992979Y-58198808D02*
X55981074Y-58163094D01*
X55981074Y-58163094D02*
X55981074Y-58139285D01*
X55981074Y-58139285D02*
X55992979Y-58103570D01*
X55992979Y-58103570D02*
X56004884Y-58091666D01*
X56064408Y-57877380D02*
X56231074Y-57877380D01*
X55969170Y-57936904D02*
X56147741Y-57996427D01*
X56147741Y-57996427D02*
X56147741Y-57841666D01*
X40917605Y-66498984D02*
X40929509Y-66487079D01*
X40929509Y-66487079D02*
X40953319Y-66475174D01*
X40953319Y-66475174D02*
X41012843Y-66475174D01*
X41012843Y-66475174D02*
X41036652Y-66487079D01*
X41036652Y-66487079D02*
X41048557Y-66498984D01*
X41048557Y-66498984D02*
X41060462Y-66522793D01*
X41060462Y-66522793D02*
X41060462Y-66546603D01*
X41060462Y-66546603D02*
X41048557Y-66582317D01*
X41048557Y-66582317D02*
X40905700Y-66725174D01*
X40905700Y-66725174D02*
X41060462Y-66725174D01*
X41167604Y-66701365D02*
X41179509Y-66713270D01*
X41179509Y-66713270D02*
X41167604Y-66725174D01*
X41167604Y-66725174D02*
X41155700Y-66713270D01*
X41155700Y-66713270D02*
X41167604Y-66701365D01*
X41167604Y-66701365D02*
X41167604Y-66725174D01*
X41274748Y-66498984D02*
X41286652Y-66487079D01*
X41286652Y-66487079D02*
X41310462Y-66475174D01*
X41310462Y-66475174D02*
X41369986Y-66475174D01*
X41369986Y-66475174D02*
X41393795Y-66487079D01*
X41393795Y-66487079D02*
X41405700Y-66498984D01*
X41405700Y-66498984D02*
X41417605Y-66522793D01*
X41417605Y-66522793D02*
X41417605Y-66546603D01*
X41417605Y-66546603D02*
X41405700Y-66582317D01*
X41405700Y-66582317D02*
X41262843Y-66725174D01*
X41262843Y-66725174D02*
X41417605Y-66725174D01*
X41631890Y-66558508D02*
X41631890Y-66725174D01*
X41524747Y-66558508D02*
X41524747Y-66689460D01*
X41524747Y-66689460D02*
X41536652Y-66713270D01*
X41536652Y-66713270D02*
X41560462Y-66725174D01*
X41560462Y-66725174D02*
X41596176Y-66725174D01*
X41596176Y-66725174D02*
X41619985Y-66713270D01*
X41619985Y-66713270D02*
X41631890Y-66701365D01*
X41235833Y-67239765D02*
X41223929Y-67251670D01*
X41223929Y-67251670D02*
X41188214Y-67263574D01*
X41188214Y-67263574D02*
X41164405Y-67263574D01*
X41164405Y-67263574D02*
X41128691Y-67251670D01*
X41128691Y-67251670D02*
X41104881Y-67227860D01*
X41104881Y-67227860D02*
X41092976Y-67204050D01*
X41092976Y-67204050D02*
X41081072Y-67156431D01*
X41081072Y-67156431D02*
X41081072Y-67120717D01*
X41081072Y-67120717D02*
X41092976Y-67073098D01*
X41092976Y-67073098D02*
X41104881Y-67049289D01*
X41104881Y-67049289D02*
X41128691Y-67025479D01*
X41128691Y-67025479D02*
X41164405Y-67013574D01*
X41164405Y-67013574D02*
X41188214Y-67013574D01*
X41188214Y-67013574D02*
X41223929Y-67025479D01*
X41223929Y-67025479D02*
X41235833Y-67037384D01*
X41450119Y-67013574D02*
X41402500Y-67013574D01*
X41402500Y-67013574D02*
X41378691Y-67025479D01*
X41378691Y-67025479D02*
X41366786Y-67037384D01*
X41366786Y-67037384D02*
X41342976Y-67073098D01*
X41342976Y-67073098D02*
X41331072Y-67120717D01*
X41331072Y-67120717D02*
X41331072Y-67215955D01*
X41331072Y-67215955D02*
X41342976Y-67239765D01*
X41342976Y-67239765D02*
X41354881Y-67251670D01*
X41354881Y-67251670D02*
X41378691Y-67263574D01*
X41378691Y-67263574D02*
X41426310Y-67263574D01*
X41426310Y-67263574D02*
X41450119Y-67251670D01*
X41450119Y-67251670D02*
X41462024Y-67239765D01*
X41462024Y-67239765D02*
X41473929Y-67215955D01*
X41473929Y-67215955D02*
X41473929Y-67156431D01*
X41473929Y-67156431D02*
X41462024Y-67132622D01*
X41462024Y-67132622D02*
X41450119Y-67120717D01*
X41450119Y-67120717D02*
X41426310Y-67108812D01*
X41426310Y-67108812D02*
X41378691Y-67108812D01*
X41378691Y-67108812D02*
X41354881Y-67120717D01*
X41354881Y-67120717D02*
X41342976Y-67132622D01*
X41342976Y-67132622D02*
X41331072Y-67156431D01*
D10*
%TO.C,C5*%
X40477500Y-62325000D02*
X42477500Y-62325000D01*
X40477500Y-63575000D02*
X40477500Y-62325000D01*
X42477500Y-62325000D02*
X42477500Y-63575000D01*
X42477500Y-63575000D02*
X40477500Y-63575000D01*
%TO.C,LED_DONE1*%
X39377500Y-57200000D02*
X40377500Y-57200000D01*
X39377500Y-57700000D02*
X39377500Y-57200000D01*
X39477500Y-57700000D02*
X39477500Y-57200000D01*
X39577500Y-57700000D02*
X39577500Y-57200000D01*
X40377500Y-57200000D02*
X40377500Y-57700000D01*
X40377500Y-57700000D02*
X39377500Y-57700000D01*
%TO.C,U6*%
X41278500Y-64650000D02*
X41278500Y-65950000D01*
X41278500Y-65950000D02*
X42978500Y-65950000D01*
X42978500Y-64650000D02*
X41278500Y-64650000D01*
X42978500Y-65950000D02*
X42978500Y-64650000D01*
D13*
X42728500Y-64900000D02*
G75*
G02*
X42528500Y-64900000I-100000J0D01*
G01*
X42528500Y-64900000D02*
G75*
G02*
X42728500Y-64900000I100000J0D01*
G01*
D10*
%TO.C,J_JTAG1*%
X47437500Y-58665000D02*
X54622500Y-58665000D01*
X47437500Y-62075000D02*
X47437500Y-58665000D01*
X47872500Y-57620000D02*
X47872500Y-58665000D01*
X47872500Y-63120000D02*
X47872500Y-62075000D01*
X48272500Y-57620000D02*
X47872500Y-57620000D01*
X48272500Y-58665000D02*
X48272500Y-57620000D01*
X48272500Y-62075000D02*
X48272500Y-63120000D01*
X48272500Y-63120000D02*
X47872500Y-63120000D01*
X49142500Y-57620000D02*
X49142500Y-58665000D01*
X49142500Y-63120000D02*
X49142500Y-62075000D01*
X49542500Y-57620000D02*
X49142500Y-57620000D01*
X49542500Y-58665000D02*
X49542500Y-57620000D01*
X49542500Y-62075000D02*
X49542500Y-63120000D01*
X49542500Y-63120000D02*
X49142500Y-63120000D01*
X50412500Y-57620000D02*
X50412500Y-58665000D01*
X50412500Y-63120000D02*
X50412500Y-62075000D01*
X50812500Y-57620000D02*
X50412500Y-57620000D01*
X50812500Y-58665000D02*
X50812500Y-57620000D01*
X50812500Y-62075000D02*
X50812500Y-63120000D01*
X50812500Y-63120000D02*
X50412500Y-63120000D01*
X51682500Y-57620000D02*
X51682500Y-58665000D01*
X51682500Y-63120000D02*
X51682500Y-62075000D01*
X52082500Y-57620000D02*
X51682500Y-57620000D01*
X52082500Y-58665000D02*
X52082500Y-57620000D01*
X52082500Y-62075000D02*
X52082500Y-63120000D01*
X52082500Y-63120000D02*
X51682500Y-63120000D01*
X52952500Y-57620000D02*
X52952500Y-58665000D01*
X52952500Y-63120000D02*
X52952500Y-62075000D01*
X53352500Y-57620000D02*
X52952500Y-57620000D01*
X53352500Y-58665000D02*
X53352500Y-57620000D01*
X53352500Y-62075000D02*
X53352500Y-63120000D01*
X53352500Y-63120000D02*
X52952500Y-63120000D01*
X54222500Y-57620000D02*
X54222500Y-58665000D01*
X54222500Y-63120000D02*
X54222500Y-62075000D01*
X54622500Y-57620000D02*
X54222500Y-57620000D01*
X54622500Y-58665000D02*
X54622500Y-57620000D01*
X54622500Y-58665000D02*
X55057500Y-59100000D01*
X54622500Y-62075000D02*
X54622500Y-63120000D01*
X54622500Y-63120000D02*
X54222500Y-63120000D01*
X55057500Y-59100000D02*
X55057500Y-62075000D01*
X55057500Y-62075000D02*
X47437500Y-62075000D01*
D13*
X54547500Y-59070000D02*
G75*
G02*
X54347500Y-59070000I-100000J0D01*
G01*
X54347500Y-59070000D02*
G75*
G02*
X54547500Y-59070000I100000J0D01*
G01*
D10*
%TO.C,R16*%
X45252500Y-57580000D02*
X46302500Y-57580000D01*
X45252500Y-58120000D02*
X45252500Y-57580000D01*
X46302500Y-57580000D02*
X46302500Y-58120000D01*
X46302500Y-58120000D02*
X45252500Y-58120000D01*
%TO.C,C7*%
X39752500Y-59050000D02*
X41002500Y-59050000D01*
X39752500Y-61050000D02*
X39752500Y-59050000D01*
X41002500Y-59050000D02*
X41002500Y-61050000D01*
X41002500Y-61050000D02*
X39752500Y-61050000D01*
%TO.C,R2*%
X78652500Y-57180000D02*
X79702500Y-57180000D01*
X78652500Y-57720000D02*
X78652500Y-57180000D01*
X79702500Y-57180000D02*
X79702500Y-57720000D01*
X79702500Y-57720000D02*
X78652500Y-57720000D01*
%TO.C,L1*%
X43777500Y-59500000D02*
X45777500Y-59500000D01*
X43777500Y-62000000D02*
X43777500Y-59500000D01*
X45777500Y-59500000D02*
X45777500Y-62000000D01*
X45777500Y-62000000D02*
X43777500Y-62000000D01*
%TO.C,FID2*%
X71377500Y-57350000D02*
G75*
G02*
X70377500Y-57350000I-500000J0D01*
G01*
X70377500Y-57350000D02*
G75*
G02*
X71377500Y-57350000I500000J0D01*
G01*
%TO.C,C11*%
X56717500Y-67090000D02*
X57217500Y-67090000D01*
X56717500Y-68090000D02*
X56717500Y-67090000D01*
X57217500Y-67090000D02*
X57217500Y-68090000D01*
X57217500Y-68090000D02*
X56717500Y-68090000D01*
%TO.C,C20*%
X56817500Y-57550000D02*
X57317500Y-57550000D01*
X56817500Y-58550000D02*
X56817500Y-57550000D01*
X57317500Y-57550000D02*
X57317500Y-58550000D01*
X57317500Y-58550000D02*
X56817500Y-58550000D01*
%TO.C,C15*%
X69747500Y-66570000D02*
X70747500Y-66570000D01*
X69747500Y-67070000D02*
X69747500Y-66570000D01*
X70747500Y-66570000D02*
X70747500Y-67070000D01*
X70747500Y-67070000D02*
X69747500Y-67070000D01*
%TO.C,C23*%
X69177500Y-57350000D02*
X69677500Y-57350000D01*
X69177500Y-58350000D02*
X69177500Y-57350000D01*
X69677500Y-57350000D02*
X69677500Y-58350000D01*
X69677500Y-58350000D02*
X69177500Y-58350000D01*
D14*
%TO.C,U1*%
X58302500Y-57850500D02*
X68302500Y-57850500D01*
X58302500Y-67850500D02*
X58302500Y-57850500D01*
X58302500Y-67850500D02*
X68302500Y-67850500D01*
X68302500Y-67850500D02*
X68302500Y-57850500D01*
D13*
X67602500Y-58250500D02*
G75*
G02*
X67402500Y-58250500I-100000J0D01*
G01*
X67402500Y-58250500D02*
G75*
G02*
X67602500Y-58250500I100000J0D01*
G01*
D10*
%TO.C,FID9*%
X70177500Y-68050000D02*
G75*
G02*
X69177500Y-68050000I-500000J0D01*
G01*
X69177500Y-68050000D02*
G75*
G02*
X70177500Y-68050000I500000J0D01*
G01*
%TO.C,FID6*%
X86977500Y-63050000D02*
G75*
G02*
X85977500Y-63050000I-500000J0D01*
G01*
X85977500Y-63050000D02*
G75*
G02*
X86977500Y-63050000I500000J0D01*
G01*
%TO.C,R3*%
X78652500Y-58180000D02*
X79702500Y-58180000D01*
X78652500Y-58720000D02*
X78652500Y-58180000D01*
X79702500Y-58180000D02*
X79702500Y-58720000D01*
X79702500Y-58720000D02*
X78652500Y-58720000D01*
%TO.C,FID8*%
X56877500Y-60850000D02*
G75*
G02*
X55877500Y-60850000I-500000J0D01*
G01*
X55877500Y-60850000D02*
G75*
G02*
X56877500Y-60850000I500000J0D01*
G01*
%TO.C,FID4*%
X43677500Y-67950000D02*
G75*
G02*
X42677500Y-67950000I-500000J0D01*
G01*
X42677500Y-67950000D02*
G75*
G02*
X43677500Y-67950000I500000J0D01*
G01*
%TO.C,R1*%
X41852500Y-57180000D02*
X42902500Y-57180000D01*
X41852500Y-57720000D02*
X41852500Y-57180000D01*
X42902500Y-57180000D02*
X42902500Y-57720000D01*
X42902500Y-57720000D02*
X41852500Y-57720000D01*
%TO.C,C8*%
X41752500Y-59050000D02*
X43002500Y-59050000D01*
X41752500Y-61050000D02*
X41752500Y-59050000D01*
X43002500Y-59050000D02*
X43002500Y-61050000D01*
X43002500Y-61050000D02*
X41752500Y-61050000D01*
%TO.C,J_EXT1*%
X44992100Y-64582000D02*
X44992100Y-68138000D01*
X44992100Y-68138000D02*
X55202900Y-68138000D01*
X55202900Y-64582000D02*
X44992100Y-64582000D01*
X55202900Y-68138000D02*
X55202900Y-64582000D01*
D13*
X46247500Y-67360000D02*
G75*
G02*
X46047500Y-67360000I-100000J0D01*
G01*
X46047500Y-67360000D02*
G75*
G02*
X46247500Y-67360000I100000J0D01*
G01*
D10*
%TO.C,R4*%
X43952500Y-63180000D02*
X45002500Y-63180000D01*
X43952500Y-63720000D02*
X43952500Y-63180000D01*
X45002500Y-63180000D02*
X45002500Y-63720000D01*
X45002500Y-63720000D02*
X43952500Y-63720000D01*
%TO.C,R5*%
X43507500Y-64625000D02*
X44047500Y-64625000D01*
X43507500Y-65675000D02*
X43507500Y-64625000D01*
X44047500Y-64625000D02*
X44047500Y-65675000D01*
X44047500Y-65675000D02*
X43507500Y-65675000D01*
%TO.C,J_DISPLAY1*%
X71938500Y-57473000D02*
X71938500Y-59473000D01*
X71938500Y-65673000D02*
X71938500Y-67673000D01*
X71938500Y-67673000D02*
X73938500Y-67673000D01*
X73938500Y-57473000D02*
X71938500Y-57473000D01*
X76038500Y-67673000D02*
X77038500Y-67673000D01*
X77038500Y-57473000D02*
X76038500Y-57473000D01*
X77038500Y-57773000D02*
X77738500Y-57773000D01*
X77038500Y-67673000D02*
X77038500Y-57473000D01*
X77738500Y-57773000D02*
X77738500Y-67373000D01*
X77738500Y-67373000D02*
X77038500Y-67373000D01*
D15*
X72298855Y-65773000D02*
G75*
G02*
X72178145Y-65773000I-60355J0D01*
G01*
X72178145Y-65773000D02*
G75*
G02*
X72298855Y-65773000I60355J0D01*
G01*
D10*
%TO.C,C4*%
X55867500Y-57550000D02*
X56367500Y-57550000D01*
X55867500Y-58550000D02*
X55867500Y-57550000D01*
X56367500Y-57550000D02*
X56367500Y-58550000D01*
X56367500Y-58550000D02*
X55867500Y-58550000D01*
%TO.C,C6*%
X40777500Y-66900000D02*
X41777500Y-66900000D01*
X40777500Y-67400000D02*
X40777500Y-66900000D01*
X41777500Y-66900000D02*
X41777500Y-67400000D01*
X41777500Y-67400000D02*
X40777500Y-67400000D01*
%TD*%
M02*
